<?xml version="1.0" encoding="UTF-8" standalone="no"?>
<!-- Created with Inkscape (http://www.inkscape.org/) -->

<svg
   version="1.1"
   id="svg1"
   width="440.60229"
   height="496.70337"
   viewBox="0 0 440.60229 496.70338"
   xmlns="http://www.w3.org/2000/svg"
   xmlns:svg="http://www.w3.org/2000/svg">
  <defs
     id="defs1" />
  <g
     id="g1"
     transform="translate(-1466.6396,-2170.75)">
    <path
       id="path2"
       d="M 2666.6666,2962.96 H 0 V 7.4074e-5 H 2666.6666 V 2962.96"
       style="display:none;fill:#fef5e6;fill-opacity:1;fill-rule:nonzero;stroke:none;stroke-width:0.133333" />
    <path
       id="path316"
       d="m 1587.64,2205.92 -19.2667,-24.9466 -14.4267,-5.1467 h -21.64 l -21.64,4.9067 -12.24,10.1333 -12.0933,19.4 -13.88,36.4133 v 26.2934 l 5.2267,6.88 8.2533,7.7866 h 9.7867 l 6.0266,-1.2 5.68,-2.8933 5.6,-8 6.4667,-4.4533 18.1867,-11.6534 -6.7867,20.4134 -1.84,22.9999 -2.4667,22.1867 2.4667,11.04 -9.56,12.7467 -5.92,10.4533 0.9733,12.24 13.8134,34.3867 18.8933,26.8133 15.6667,13.64 10.4266,3.9067 5.0667,8.9333 11.24,8.4133 12.9867,2.84 5.8666,-1.76 1.1467,22.2534 6.28,4.5866 -6.28,16.0267 v 17.2533 l -3.48,22.2934 -4.36,29.4933 -2.9733,13.8533 -3.2534,8.9467 -4.72,9.1333 -3.4266,2.6 h -5.6667 l -5.3333,4.8934 -1.36,4.32 -1.7334,7.8533 1.7334,9.4667 9.0266,0.2666 32.2667,9.2667 26.2133,4.1867 6.24,6.3733 27.76,0.8667 h 92.24 29.3734 l 4.84,-7.24 0.7066,-7.92 c 0,0 32.4667,-7.1467 43.0934,-33.4 0,0 16.8133,23.4266 44.12,-8.6267 27.3066,-32.0533 0,-73.28 0,-73.28 l -4.1867,-11.7867 -12.3067,-14.4933 -0.3466,-13.48 3.0533,-11.24 -9.4133,-8 c 0,0 -20.6,4.3867 -25.24,26.0267 -4.64,21.64 9.16,42.08 9.16,42.08 l 5.7866,14.9733 -6.4,9.6 -9.2933,6.2667 c 0,0 -10.5467,-17.2534 -31.8533,-38.6534 -21.2934,-21.3866 -36.7067,-37.88 -36.7067,-37.88 l -14.08,-31.6266 -5.3467,-28.44 20.7067,-12.0667 3,-9.1467 -2.0933,-12.0666 -5.2934,-12.12 6.28,-18.5867 15.7867,17.6667 11.5733,5.0533 16.7067,-6.2267 16.1067,-16.4933 5.2666,-17.3733 0.6934,-33.28 v -27.28 c 0,0 -2.5734,-32.9867 -19.84,-41.48 0,0 -12.88,-6.2 -40.5867,-1.4267 l -1.4133,-7.7066 c 0,0 -27.2267,-34.7467 -49.6,-42.4 -22.36,-7.6667 -46.7734,-15.3867 -75.1067,-11.68 -28.3333,3.6933 -55.36,9.2266 -68.3333,17.0266"
       style="fill:#d4a377;fill-opacity:1;fill-rule:nonzero;stroke:none;stroke-width:0.133333" />
    <path
       id="path317"
       d="m 1637.1733,2561.76 c 0,0 -9.3867,-17.4933 -9.5333,-32.9467 0,0 -6.9867,21.92 6.68,44.5867 l 2.8533,-11.64"
       style="fill:#feece0;fill-opacity:1;fill-rule:nonzero;stroke:none;stroke-width:0.133333" />
    <path
       id="path318"
       d="m 1572.9333,2626.2133 c 0,0 7.04,-8.12 15.5467,-1.5466 0,0 6.2666,-1.48 12.24,3.7066 l 10.56,3.8267 c 0,0 3.6533,-6.3733 14.5733,0 0,0 4.7467,-6.2267 17.8933,4.52 0,0 1.9334,-4.72 12.36,4.9467 10.44,9.6666 5.2267,13.72 5.2267,13.72 0,0 -6.6533,6.3733 -21.9733,6.3733 -15.3334,0 -36.9734,0 -36.9734,0 l -11.52,-1.5467 -8.1866,1.5467 c 0,0 -11.3067,-9.48 -11.72,-14.2933 -0.4267,-4.8267 -0.8534,-10.44 -0.8534,-10.44 l 2.8267,-10.8134"
       style="fill:#feece0;fill-opacity:1;fill-rule:nonzero;stroke:none;stroke-width:0.133333" />
    <path
       id="path319"
       d="m 1682,2611.76 c 0,0 7.2933,18.0667 23.96,31.6667 l 25.12,-11.2267 -16.8134,-18.5333 -12.3066,-19.2134 -9.9067,7.4 L 1682,2611.76"
       style="fill:#feece0;fill-opacity:1;fill-rule:nonzero;stroke:none;stroke-width:0.133333" />
    <path
       id="path320"
       d="m 1706.5466,2659.0533 v -10.04 l 3.6667,-12.2933 20.8667,-1.6267 15.1733,4.4534 c 0,0 8.0133,-3.2534 18.0667,3.88 0,0 5.4133,-1.56 14.6933,3.56 9.2667,5.12 22.6,-5.32 22.6,-5.32 0,0 8.3067,18.16 -15.2667,20.0933 -23.5733,1.9333 -41.7333,0 -41.7333,0 l -38.0667,-2.7067"
       style="fill:#feece0;fill-opacity:1;fill-rule:nonzero;stroke:none;stroke-width:0.133333" />
    <path
       id="path321"
       d="m 1853.7866,2546.1733 c 0,0 7.56,8.0667 21.7734,9.48 2.3066,0.2267 4.32,-1.52 4.32,-3.8266 v 0 c 0,-1.5734 1.9733,-2.28 2.96,-1.0534 1.72,2.1334 4.1466,4.36 7.08,5.0934 6.1866,1.5466 10.6266,-2.32 10.6266,-2.32 0,0 -6,-31.2934 -20.2933,-41.7334 l -3.3333,-5.9333 -2.8,-13.48 3.0533,-11.24 -5.0267,-8 -12.16,2.5067 -10.4266,8.6933 -5.2134,13.5333 -1.8266,12.3734 1.8266,13.9066 9.44,22"
       style="fill:#feece0;fill-opacity:1;fill-rule:nonzero;stroke:none;stroke-width:0.133333" />
    <path
       id="path322"
       d="m 1668.6666,2640.68 c 0,0 9.7334,-3.6533 15.9067,0.9867 0,0 17.4,-4.64 19.68,5.8 l -2.4133,12.24 -12.36,2.92 -28.1467,-1.8934 7.3333,-20.0533"
       style="fill:#feece0;fill-opacity:1;fill-rule:nonzero;stroke:none;stroke-width:0.133333" />
    <path
       id="path323"
       d="m 1760.84,2458.2267 -0.48,-5.4267 -4.16,-6.6933 -2.4134,-10.6 -22.8266,11.12 -26.0267,6.6933 -33.7467,10.6267 -36.8666,3.9066 -25.8134,0.84 2.3867,23.7067 h 28.9467 l 31.3466,-1.9867 38.8934,-9.7733 29.5866,-8.8 7.36,-4.0533 0.5334,-0.12 -0.04,-0.1467 10.4933,-5.76 2.8267,-3.5333"
       style="fill:#da262d;fill-opacity:1;fill-rule:nonzero;stroke:none;stroke-width:0.133333" />
    <path
       id="path324"
       d="m 1597.4533,2281.5467 c -2.2533,-0.6 -4.6533,-1.12 -7.52,-1.08 -2.44,0.04 -4.92,0.5067 -7.6267,1.0133 -2.4666,0.4534 -5.1866,0.2267 -7.7466,1.08 -2.4134,0.8134 -4.9467,1.6267 -7.3334,2.7867 -2.32,1.1333 -4.2933,2.96 -6.48,4.4267 -2.16,1.44 -4.9466,2.1866 -6.8933,3.9466 -1.9067,1.7467 -3.6533,3.8667 -5.28,5.9333 -1.6,2.0267 -3.0133,4.3467 -4.2533,6.68 -1.1734,2.24 -1.4667,4.9334 -2.3867,7.2934 -0.92,2.3733 -2.5333,4.5333 -3.1867,6.96 -0.6666,2.4933 0.1467,5.24 -0.2,7.6933 -0.3866,2.5867 -0.7466,5.0133 -0.7466,7.4667 -0.013,2.6533 -1.1067,5.32 -0.6534,7.6933 0.52,2.64 1.4934,5.1867 2.6134,7.2933 1.24,2.3334 3.56,3.72 5.5866,5.1734 1.96,1.4 4.2,1.6933 6.9334,2.0666 2.4133,0.3334 4.7066,0.92 7.1733,0.7734 2.4133,-0.1334 5.0267,0.64 7.44,0.053 2.3333,-0.56 4.76,-1.4133 7.0533,-2.4133 2.1867,-0.96 4.04,-2.7734 6.16,-4.1334 2,-1.2933 3.44,-3.3333 5.3334,-4.9866 1.8,-1.5734 4.3066,-2.4667 5.9733,-4.36 1.56,-1.7867 2.68,-4.0267 4.0933,-6.12 1.3467,-1.96 3.3867,-3.6134 4.5734,-5.84 1.1333,-2.0934 2.0533,-4.44 3.0266,-6.7734 1.0934,-2.6266 1.12,-5.4533 1.8667,-7.8533 0.84,-2.7467 2.4667,-5.12 2.8933,-7.56 0.5067,-2.8667 0.8667,-5.6267 0.88,-8.08 0.013,-2.96 -0.72,-5.6933 -1.28,-8.0266 -0.72,-2.96 -2.9333,-4.7734 -4.2933,-6.68 -1.8,-2.5467 -3.4933,-3.84 -5.72,-4.4267"
       style="fill:#9b795f;fill-opacity:1;fill-rule:nonzero;stroke:none;stroke-width:0.133333" />
    <path
       id="path325"
       d="m 1807.5866,2397.4 c -0.92,0 -1.7866,-0.053 -2.5733,-0.093 -0.56,-0.04 -1.1067,-0.067 -1.6267,-0.08 -0.6,0 -1.1866,0.013 -1.7866,0.027 -2.3867,0.053 -5.0667,0.12 -7.6267,-0.9466 -2.4267,-1.0134 -4.0667,-2.8534 -5.3867,-4.3334 -0.56,-0.6266 -1.08,-1.2133 -1.56,-1.6266 -0.5733,-0.5067 -1.2133,-0.9467 -1.8533,-1.4134 -1.4533,-1.04 -3.0933,-2.2266 -4.5333,-3.9333 -1.04,-1.2267 -1.9467,-2.5333 -2.8134,-3.8 -0.5866,-0.8267 -1.16,-1.68 -1.8,-2.4933 -1.4666,-1.9334 -2.9866,-3.8934 -4.5866,-5.88 -0.8267,-1.0134 -1.48,-2.0667 -2.1334,-3.08 -0.68,-1.08 -1.3333,-2.1067 -2.04,-2.8534 -0.4133,-0.4266 -0.84,-0.84 -1.2666,-1.2533 -1.5334,-1.4933 -3.28,-3.1867 -4.4134,-5.5733 -1,-2.0934 -1.3333,-4.2267 -1.64,-6.1067 -0.1066,-0.72 -0.2266,-1.4533 -0.3866,-2.16 l -0.3334,-1.44 c -0.48,-2.04 -0.9733,-4.1467 -1.2,-6.4267 -0.1733,-1.6266 -0.1333,-3.1733 -0.1066,-4.6533 0.027,-1.0667 0.053,-2.08 -0.013,-3 -0.053,-0.96 -0.3733,-2.0533 -0.7066,-3.2133 -0.36,-1.2267 -0.72,-2.5067 -0.8934,-3.9334 l -0.04,-0.32 c -0.2933,-2.3333 -0.5466,-4.3466 -1.1333,-5.96 -0.4533,-1.24 -1.2933,-2.04 -3.12,-3.48 -1.5867,-1.2533 -2.52,-1.8666 -4.24,-2.12 -2.4267,-0.3466 -4.1067,-2.6 -3.76,-5.0266 0.3467,-2.4267 2.6267,-4.12 5.0267,-3.7734 3.9466,0.5734 6.3466,2.2534 8.48,3.9467 2.4,1.8933 4.6666,3.88 5.9466,7.3867 0.9467,2.5733 1.28,5.1733 1.6134,7.9333 l 0.04,0.32 c 0.093,0.7333 0.3466,1.6267 0.6266,2.5733 0.4267,1.4934 0.9067,3.1734 1.04,5.08 0.08,1.3067 0.053,2.5734 0.027,3.7867 -0.027,1.2667 -0.053,2.4667 0.053,3.56 0.1734,1.7067 0.5867,3.44 1.0134,5.28 l 0.36,1.52 c 0.2,0.9067 0.3466,1.8267 0.4933,2.7333 0.2133,1.4134 0.4267,2.7467 0.8667,3.6667 0.4533,0.9467 1.44,1.9067 2.5866,3.0133 0.5067,0.4934 1.0267,1 1.52,1.5067 1.3067,1.3867 2.2667,2.8933 3.1067,4.2267 0.5333,0.84 1.04,1.6266 1.5467,2.2533 1.6533,2.0533 3.2133,4.08 4.7333,6.0667 0.7067,0.9333 1.3733,1.88 2.0267,2.8266 0.8,1.1467 1.5466,2.2267 2.32,3.1467 0.72,0.8533 1.7866,1.6267 2.92,2.44 0.8133,0.5733 1.6533,1.1867 2.48,1.8933 0.92,0.8 1.7066,1.68 2.3866,2.4534 0.76,0.84 1.6134,1.8 2.16,2.0266 0.8267,0.3467 2.44,0.3067 4,0.28 0.7067,-0.027 1.4,-0.04 2.0934,-0.027 0.6533,0 1.3333,0.04 2.04,0.08 1.6,0.093 3.12,0.1733 4.4666,-0.1867 0.9734,-0.2533 2.2134,-0.8933 3.5334,-1.56 0.8933,-0.4533 1.8266,-0.92 2.7866,-1.36 1.0667,-0.48 2.1067,-1.32 3.2,-2.2267 0.7734,-0.6266 1.52,-1.24 2.3067,-1.7866 0.5067,-0.3467 1.0133,-0.68 1.5067,-1.0134 1.52,-1.0133 2.8266,-1.8933 3.7866,-2.92 0.9867,-1.0533 1.7467,-2.3866 2.6267,-3.9333 0.3067,-0.56 0.6267,-1.1067 0.96,-1.6533 0.6133,-1.04 1.2933,-1.92 1.9467,-2.7867 0.8,-1.04 1.5466,-2.04 1.9066,-2.9467 0.52,-1.3733 0.88,-2.9866 1.2667,-4.6933 0.16,-0.72 0.3333,-1.4533 0.5067,-2.1867 0.32,-1.28 0.4933,-2.7466 0.68,-4.28 0.12,-0.96 0.24,-1.92 0.3866,-2.8933 0.24,-1.56 0.76,-2.9733 1.2134,-4.2133 0.4,-1.0934 0.7733,-2.1334 0.8533,-2.9734 0.08,-0.8 -0.053,-1.8533 -0.1867,-2.9733 -0.1733,-1.3733 -0.36,-2.9067 -0.28,-4.56 0.067,-1.04 -0.013,-2.2 -0.08,-3.4267 -0.093,-1.3066 -0.1733,-2.6666 -0.1333,-4.1066 0.053,-1.72 0.4667,-3.2934 0.8267,-4.6667 0.28,-1.08 0.5466,-2.0933 0.56,-2.8933 0.013,-0.8134 -0.16,-1.8267 -0.36,-2.92 -0.2534,-1.4 -0.5334,-3 -0.5067,-4.72 0.027,-1.4667 0.1867,-2.8667 0.3333,-4.2267 0.1334,-1.2 0.2667,-2.3333 0.28,-3.4267 0.027,-1.2666 -0.1466,-2.6 -0.3333,-4.0133 -0.1333,-1.0933 -0.2667,-2.1733 -0.3333,-3.24 -0.1067,-1.7733 0.1733,-3.3733 0.4266,-4.7866 0.1734,-1 0.3467,-2.0267 0.2667,-2.6 -0.12,-0.8267 -0.6133,-1.84 -1.12,-2.92 -0.5467,-1.1467 -1.16,-2.4534 -1.5333,-3.92 -0.36,-1.4534 -0.92,-2.84 -1.5067,-4.3067 -0.3333,-0.8 -0.6533,-1.5867 -0.9333,-2.3733 -0.84,-2.3334 -1.68,-4.5734 -2.6534,-6.52 -0.6933,-1.3867 -1.1466,-2.7334 -1.5466,-3.92 -0.3734,-1.1067 -0.72,-2.1334 -1.1067,-2.72 -0.68,-1.0267 -1.6667,-1.8934 -2.72,-2.8 -0.76,-0.68 -1.56,-1.3734 -2.28,-2.1867 -1.0533,-1.1867 -1.68,-1.9733 -2.1333,-2.5733 -0.1734,-0.2267 -0.3067,-0.4 -0.44,-0.5467 -0.053,-0.027 -0.3334,-0.2 -1.16,-0.5867 -1.2534,-0.3866 -2.3734,-0.8533 -3.3734,-1.28 -1.16,-0.4933 -2.1733,-0.92 -3.08,-1.08 -1.3066,-0.24 -2.72,-0.2933 -4.2133,-0.3466 -1.0667,-0.04 -2.1067,-0.08 -3.1467,-0.1734 -1.5733,-0.1466 -3.0266,-0.5333 -4.3066,-0.88 -1.1467,-0.3066 -2.1867,-0.5733 -3.0267,-0.6 -1.0933,0 -2.3467,0.24 -3.6667,0.5067 -1.1733,0.2267 -2.3866,0.4667 -3.68,0.5733 -1.12,0.1067 -2.3466,0.4534 -3.64,0.8134 -1.12,0.32 -2.2933,0.6533 -3.56,0.8666 -2.1733,0.3867 -4.4533,0.8934 -7.1466,1.6 -1.6134,0.4134 -3.16,0.5334 -4.5067,0.64 -1.1333,0.08 -2.2133,0.1734 -2.8933,0.4134 -1.16,0.4 -2.32,0.7333 -3.4534,1.0533 -1.3733,0.4 -2.6666,0.7733 -3.6666,1.2133 -1.3467,0.5867 -2.6,1.4134 -3.8267,2.2 -0.9067,0.5867 -1.76,1.1467 -2.5867,1.6 -1.88,1.0134 -2.1733,1.3334 -2.6666,1.8667 -0.56,0.6 -1.32,1.4267 -2.92,2.6133 -1.9867,1.4534 -4.76,1.04 -6.2134,-0.9333 -1.4666,-1.9733 -1.04,-4.76 0.9334,-6.2133 0.92,-0.6934 1.2533,-1.04 1.6666,-1.4934 1.04,-1.1333 2.0134,-2.0533 4.9467,-3.6533 0.64,-0.3467 1.3067,-0.7867 2,-1.24 1.44,-0.9333 3.08,-2 5.08,-2.88 1.56,-0.6933 3.2133,-1.16 4.8,-1.6267 0.9733,-0.2666 1.9867,-0.56 2.9733,-0.9066 1.7867,-0.6267 3.5734,-0.76 5.1467,-0.88 1.08,-0.08 2.0933,-0.16 2.9333,-0.3734 2.9467,-0.7733 5.4534,-1.3333 7.88,-1.76 0.8134,-0.1333 1.7067,-0.3866 2.6667,-0.6533 1.5467,-0.44 3.32,-0.9467 5.28,-1.12 0.8133,-0.067 1.7467,-0.2533 2.7333,-0.44 1.6,-0.32 3.4267,-0.68 5.4,-0.68 h 0.013 c 1.9733,0 3.7466,0.48 5.32,0.9067 1.0266,0.28 1.9866,0.5466 2.8,0.6133 0.8666,0.08 1.76,0.1067 2.64,0.1467 1.68,0.053 3.5733,0.12 5.52,0.48 1.8666,0.3466 3.4933,1.0266 4.9333,1.64 0.9333,0.4 1.8267,0.7733 2.6933,1.0133 0.24,0.067 0.48,0.16 0.72,0.2667 2.8534,1.36 3.6134,1.9466 5.12,3.88 0.3734,0.48 0.88,1.1333 1.7467,2.1066 0.3467,0.3867 0.9067,0.88 1.4933,1.4 1.3067,1.1334 2.92,2.5467 4.2667,4.56 1.04,1.5734 1.6267,3.2934 2.1333,4.8267 0.3334,1 0.6534,1.9467 1.0667,2.76 1.1867,2.3733 2.12,4.8933 3.0533,7.4667 0.2534,0.6933 0.5334,1.3733 0.8134,2.0666 0.6666,1.6134 1.4,3.44 1.9066,5.5067 0.16,0.6 0.5334,1.4133 0.9467,2.2667 0.6933,1.4666 1.56,3.2933 1.8667,5.4266 0.2933,1.9867 -0.027,3.8134 -0.3067,5.4267 -0.1733,1.0133 -0.3467,1.9866 -0.3067,2.72 0.053,0.8666 0.1734,1.7466 0.2934,2.64 0.2,1.5866 0.44,3.3866 0.4,5.32 -0.027,1.4933 -0.1867,2.8933 -0.3334,4.2533 -0.1466,1.1867 -0.2666,2.32 -0.28,3.36 -0.013,0.88 0.1734,1.92 0.36,3.0267 0.2534,1.3866 0.5334,2.9733 0.5067,4.6533 -0.04,1.8533 -0.4667,3.5067 -0.8533,4.9733 -0.2667,1.0134 -0.52,1.9734 -0.5334,2.6934 -0.04,1.0266 0.027,2.1066 0.1067,3.2666 0.093,1.44 0.1867,2.92 0.093,4.48 -0.04,0.8534 0.08,1.88 0.2134,2.9734 0.1866,1.4666 0.3866,3.1466 0.2266,4.9066 -0.1866,1.9734 -0.8133,3.68 -1.36,5.1867 -0.3466,0.9467 -0.6666,1.8267 -0.7733,2.52 -0.1333,0.8667 -0.24,1.7333 -0.3467,2.5867 -0.2133,1.7466 -0.4266,3.5466 -0.8666,5.3466 -0.1734,0.68 -0.32,1.3467 -0.4667,2.0134 -0.44,1.9466 -0.8933,3.96 -1.6533,5.9333 -0.8134,2.1067 -2.04,3.72 -3.1334,5.1467 -0.5333,0.7066 -1.0266,1.36 -1.4,1.96 -0.2933,0.4933 -0.5733,0.9866 -0.8533,1.48 -1.0133,1.7866 -2.1467,3.7866 -3.84,5.6 -1.6667,1.7866 -3.5333,3.04 -5.3467,4.2533 -0.4666,0.3067 -0.92,0.6133 -1.3866,0.9333 -0.5867,0.4134 -1.16,0.88 -1.7334,1.36 -1.44,1.1734 -3.0666,2.5067 -5.2,3.4667 -0.84,0.36 -1.6266,0.7733 -2.4,1.16 -1.6666,0.8533 -3.4,1.7333 -5.2666,2.2267 -1.6667,0.4533 -3.24,0.5733 -4.6934,0.5733"
       style="fill:#362421;fill-opacity:1;fill-rule:nonzero;stroke:none;stroke-width:0.133333" />
    <path
       id="path326"
       d="m 1494.1066,2292.8934 c -0.2666,0 -0.5333,0 -0.8,-0.013 -2.1733,-0.08 -4.0933,-0.8666 -5.7866,-1.5733 -0.8667,-0.36 -1.68,-0.6933 -2.4667,-0.9067 -0.6,-0.1733 -1.2533,-0.32 -1.9067,-0.4666 -1.7733,-0.4 -3.7866,-0.8667 -5.9066,-1.84 -2.9334,-1.36 -5.44,-3.7734 -7.44,-7.1734 -1.2934,-2.2 -1.6,-4.5866 -1.88,-6.68 -0.093,-0.7066 -0.1867,-1.4266 -0.32,-2.16 -0.48,-2.48 -0.9467,-5.16 -0.96,-8.3066 -0.013,-2.12 0.24,-4.1867 0.4933,-6.1867 0.08,-0.6267 0.16,-1.2667 0.2267,-1.9067 0.3066,-2.76 0.8,-5.4266 1.28,-7.88 0.1466,-0.72 0.1466,-1.6666 0.1466,-2.6666 0.013,-1.6134 0.027,-3.4267 0.5467,-5.36 0.4533,-1.6934 1.12,-3.1867 1.76,-4.6267 0.44,-0.9867 0.8533,-1.9067 1.1467,-2.8 0.7333,-2.1733 1.5733,-4.4667 2.7466,-7.4267 0.64,-1.64 1.4134,-3.12 2.16,-4.5466 0.44,-0.8534 0.8934,-1.6934 1.2934,-2.5734 0.3866,-0.8533 0.7466,-1.7066 1.1066,-2.56 0.6267,-1.52 1.2934,-3.1066 2.1334,-4.6666 0.3333,-0.6267 0.5866,-1.5734 0.8533,-2.5734 0.4267,-1.5733 0.9067,-3.3466 1.96,-5.04 1.12,-1.7733 2.3467,-3.3466 3.5333,-4.88 0.44,-0.56 0.8667,-1.1066 1.28,-1.6533 1.2934,-1.72 2.76,-3.1733 4.0534,-4.4533 0.5333,-0.5334 1.0666,-1.0534 1.56,-1.5734 1.5866,-1.68 3.3333,-2.8133 4.8666,-3.8133 0.64,-0.4267 1.2667,-0.8267 1.84,-1.2667 0.5867,-0.44 1.2,-1.04 1.84,-1.6666 1.1334,-1.12 2.4267,-2.4 4.1334,-3.36 0.6666,-0.3734 1.32,-0.7867 1.9733,-1.2 1.5067,-0.9334 3.04,-1.8934 4.8267,-2.64 2.36,-0.9734 4.72,-1.6534 7.0133,-2.32 l 0.3333,-0.1067 c 1.9067,-0.5467 3.6934,-0.56 5.2667,-0.56 0.92,-0.013 1.7733,-0.013 2.4,-0.1333 0.7333,-0.1334 1.6,-0.4534 2.5067,-0.7867 1.4133,-0.52 3.0133,-1.12 4.84,-1.2933 2.28,-0.24 4.44,-0.28 6.5333,-0.32 l 1.0133,-0.027 c 0.7334,-0.013 1.4667,-0.04 2.1867,-0.067 1.7733,-0.067 3.6,-0.1333 5.3333,-0.053 2.04,0.093 3.84,0.5733 5.2934,0.96 0.8,0.2133 1.5733,0.4133 2.1066,0.4667 1.1734,0.1466 1.8134,0.08 2.4267,0.013 2.3733,-0.2533 4.1867,0.067 6.8267,2.4133 0.6666,0.6 1.1866,1.0267 1.6133,1.3867 1.44,1.2133 2.2133,1.8933 4.0133,4.24 1.4934,1.9333 2.0134,3.2933 2.4,4.28 0.28,0.7333 0.4267,1.1333 1.12,2.04 0.56,0.72 0.8134,0.8667 1.48,1.2533 1.0267,0.5867 2.4267,1.4 4.04,3.5067 1.2934,1.68 1.8534,2.6667 2.3334,3.5467 0.4133,0.72 0.72,1.28 1.6133,2.44 1.56,2.0266 2.04,3.4933 2.3867,4.5733 0.2266,0.7333 0.3333,1.0667 0.96,1.8533 1.4933,1.9467 1.1333,4.7334 -0.8134,6.24 -1.9333,1.4934 -4.7333,1.1334 -6.2266,-0.8 -1.5734,-2.0266 -2.04,-3.5066 -2.3867,-4.5733 -0.24,-0.7333 -0.3467,-1.0667 -0.96,-1.8667 -1.2933,-1.68 -1.84,-2.6666 -2.3333,-3.5466 -0.4,-0.72 -0.72,-1.28 -1.6,-2.44 -0.56,-0.72 -0.8134,-0.8667 -1.48,-1.2534 -1.0134,-0.5866 -2.4134,-1.4 -4.04,-3.5066 -1.4934,-1.9334 -2.0134,-3.2934 -2.4,-4.28 -0.28,-0.7334 -0.4267,-1.1334 -1.12,-2.04 -1.3067,-1.68 -1.6,-1.9334 -2.7067,-2.8534 -0.48,-0.4 -1.0533,-0.88 -1.8133,-1.56 -0.08,-0.08 -0.1467,-0.1333 -0.2134,-0.1866 -0.84,0.08 -2.1733,0.1866 -4.1466,-0.053 -1.1734,-0.1333 -2.28,-0.4266 -3.3467,-0.7066 -1.2133,-0.32 -2.3467,-0.6134 -3.4533,-0.6667 -1.36,-0.067 -2.92,-0.013 -4.5734,0.053 -0.76,0.027 -1.5333,0.053 -2.3066,0.067 l -1.04,0.027 c -1.92,0.04 -3.9067,0.08 -5.84,0.28 -0.6934,0.067 -1.64,0.4133 -2.6534,0.7866 -1.1466,0.4267 -2.4666,0.92 -3.9333,1.1867 -1.4133,0.2667 -2.7733,0.28 -3.9733,0.28 -1.1067,0.013 -2.1467,0.013 -2.8534,0.2267 l -0.3333,0.093 c -2.0667,0.6 -4.2,1.2133 -6.0933,2 -1.0934,0.4533 -2.2667,1.1867 -3.5067,1.96 -0.7733,0.48 -1.5333,0.96 -2.32,1.4 -0.68,0.3867 -1.4533,1.1467 -2.28,1.96 -0.7733,0.76 -1.6533,1.6267 -2.6933,2.4133 -0.7467,0.56 -1.5334,1.0934 -2.36,1.6267 -1.2267,0.8 -2.4,1.56 -3.2534,2.4667 -0.5733,0.6133 -1.1733,1.2 -1.7866,1.8133 -1.1734,1.16 -2.2934,2.2667 -3.1867,3.4533 -0.44,0.5867 -0.9067,1.1867 -1.3733,1.7867 -1.0534,1.3467 -2.1467,2.7467 -3.0267,4.1467 -0.3333,0.5466 -0.6133,1.5466 -0.8933,2.6 -0.36,1.3866 -0.7867,2.9466 -1.6134,4.4933 -0.64,1.1733 -1.1733,2.48 -1.76,3.8667 -0.4,0.96 -0.8,1.92 -1.24,2.88 -0.4666,1 -0.9733,1.9733 -1.48,2.9466 -0.6666,1.2934 -1.3066,2.5067 -1.7866,3.72 -1.1067,2.7867 -1.8934,4.9334 -2.56,6.9467 -0.44,1.3067 -0.96,2.4933 -1.4667,3.6267 -0.5333,1.1733 -1.0267,2.28 -1.2933,3.3066 -0.2267,0.8134 -0.2267,1.9334 -0.24,3.1067 0,1.3067 -0.013,2.7867 -0.32,4.32 -0.44,2.28 -0.8934,4.72 -1.16,7.1467 -0.08,0.6933 -0.16,1.36 -0.24,2.0266 -0.2267,1.8 -0.44,3.5067 -0.4267,5.04 0.013,2.4 0.3867,4.5334 0.8,6.6934 0.1733,0.9066 0.2933,1.8 0.4,2.6666 0.1867,1.3867 0.36,2.6934 0.7333,3.3334 1.0667,1.8133 2.24,3.0266 3.5067,3.6133 1.2667,0.5867 2.6533,0.8933 4.1333,1.2267 0.8267,0.1866 1.6134,0.3733 2.3734,0.5866 1.2666,0.36 2.4133,0.8267 3.4266,1.2534 1,0.4133 2.1467,0.88 2.72,0.9066 1.8,0.067 3.8534,-0.24 6.1334,-0.92 1.72,-0.5066 3.5733,-1.44 5.52,-2.7866 0.76,-0.5067 1.52,-1.4934 2.3466,-2.5467 0.6134,-0.7733 1.24,-1.5867 2,-2.3867 0.92,-0.9733 1.9067,-1.8 2.7867,-2.5333 0.9467,-0.8 1.8267,-1.5467 2.4,-2.2667 0.5067,-0.64 0.9867,-1.4533 1.4933,-2.32 1,-1.6933 2.1334,-3.6 3.96,-5.0933 2.6667,-2.16 5.5067,-3.72 7.5867,-4.8667 3.0933,-1.72 4.6933,-1.9333 6.4667,-2.04 0.6933,-0.04 1.1866,-0.08 2.24,-0.4 2.3466,-0.72 4.84,0.5867 5.56,2.92 0.7333,2.3467 -0.5867,4.84 -2.92,5.5734 -2.0934,0.64 -3.3867,0.72 -4.3467,0.7733 -0.7867,0.053 -1.12,0.067 -2.7067,0.9467 -1.7866,0.9866 -4.2266,2.3333 -6.28,4 -0.5866,0.48 -1.2533,1.6133 -1.9066,2.7066 -0.6,1.0267 -1.2934,2.2 -2.16,3.3067 -1.1334,1.4267 -2.48,2.56 -3.6667,3.56 -0.76,0.64 -1.48,1.24 -2.0533,1.84 -0.52,0.5467 -0.9867,1.16 -1.4534,1.76 -1.1466,1.4533 -2.4266,3.1067 -4.3066,4.4 -2.7067,1.8667 -5.4134,3.2133 -8.04,3.9867 -2.8934,0.8533 -5.64,1.28 -8.1734,1.28"
       style="fill:#362421;fill-opacity:1;fill-rule:nonzero;stroke:none;stroke-width:0.133333" />
    <path
       id="path327"
       d="m 1583.6933,2320.8667 c 0,2.4933 0.08,5.4266 -1.56,7.0533 -1.6267,1.64 -4.56,2 -7.0533,2 -2.4934,0 -4.1734,-1.6267 -5.8,-3.2533 -1.64,-1.64 -2.7334,-3.3067 -2.7334,-5.8 0,-2.4934 0.2,-5.0667 1.84,-6.7067 1.6267,-1.6267 4.2,-1.5467 6.6934,-1.5467 2.4933,0 4.8533,0.12 6.4933,1.76 1.6267,1.6267 2.12,4 2.12,6.4934"
       style="fill:#362421;fill-opacity:1;fill-rule:nonzero;stroke:none;stroke-width:0.133333" />
    <path
       id="path328"
       d="m 1686.36,2345.1067 c 0,2.5066 -1.2267,5.28 -2.8534,6.92 -1.64,1.6266 -4.4266,2.2 -6.92,2.2 -2.4933,0 -4.5866,-1.2534 -6.2266,-2.8934 -1.6267,-1.6266 -3.6534,-3.72 -3.6534,-6.2266 0,-2.4934 1.72,-4.8934 3.3467,-6.5334 1.64,-1.6266 4.04,-2.7466 6.5333,-2.7466 2.4934,0 4.0934,1.9333 5.72,3.5733 1.64,1.6267 4.0534,3.2133 4.0534,5.7067"
       style="fill:#362421;fill-opacity:1;fill-rule:nonzero;stroke:none;stroke-width:0.133333" />
    <path
       id="path329"
       d="m 1618.7466,2363.8667 c -0.6933,2.0933 -1.9333,4.56 -4.04,5.64 -1.8266,0.92 -4.4933,-0.04 -6.9066,-0.013 -2.0934,0.027 -4.3867,0.48 -6.6134,-0.2666 -2.24,-0.7334 -4.5866,-1.4534 -6.2533,-2.72 -1.9333,-1.4667 -2.3333,-4.0667 -3.24,-5.8934 -1.0667,-2.1333 -2.1333,-4.0666 -1.3867,-6.16 0.92,-2.6 2.8,-3.64 4.5334,-4.6933 1.8666,-1.1333 3.7333,-2.2267 6.24,-2.04 2.0933,0.1467 4.4133,0.5867 6.76,1.36 2.24,0.7333 4.6666,1.3333 6.3333,2.6 1.92,1.4667 2.7333,3.9333 3.64,5.76 1.0533,2.1333 1.6267,4.32 0.9333,6.4267"
       style="fill:#362421;fill-opacity:1;fill-rule:nonzero;stroke:none;stroke-width:0.133333" />
    <path
       id="path330"
       d="m 1613.3733,2489.7867 h 0.027 z m 26.4933,7.92 c -1.9466,0 -3.6533,-0.44 -5.16,-0.84 -0.9333,-0.2534 -1.8266,-0.48 -2.4266,-0.4934 -1.1867,-0.027 -2.36,0.04 -3.48,0.1067 -1.3867,0.067 -2.8134,0.1467 -4.2267,0.08 -1.2133,-0.067 -2.4667,0.027 -3.6667,0.1067 -1.3333,0.093 -2.72,0.1866 -4.0933,0.08 -1.1733,-0.08 -2.1067,0.1066 -3.1067,0.32 -1.7066,0.3733 -6.9066,1.4933 -8.8133,-4.64 -1.0133,-3.2667 -0.7333,-5.1867 -0.28,-7.1734 0.1867,-0.8 0.3467,-1.4933 0.3467,-2.6666 0,-2.1867 0.053,-3.28 0.093,-4.3734 0.04,-0.9866 0.08,-1.9866 0.08,-3.9866 0,-1.7734 -0.12,-2.5867 -0.2533,-3.5467 -0.16,-1.12 -0.3467,-2.4 -0.3467,-4.8 0,-2.4533 1.9867,-4.4533 4.44,-4.4533 2.4533,0 4.4533,2 4.4533,4.4533 0,1.76 0.12,2.5867 0.2534,3.5333 0.16,1.1334 0.3466,2.4 0.3466,4.8134 0,2.1866 -0.053,3.28 -0.093,4.36 -0.04,1 -0.08,2 -0.08,4 0,2.1733 -0.3333,3.6 -0.56,4.64 -0.093,0.3733 -0.16,0.6533 -0.1867,0.8933 1.16,-0.2 2.64,-0.3733 4.3734,-0.24 0.7466,0.053 1.76,-0.013 2.84,-0.08 1.3733,-0.093 2.9333,-0.2 4.6533,-0.12 0.9867,0.053 2.1467,-0.013 3.36,-0.08 1.24,-0.067 2.64,-0.12 4.1067,-0.1067 1.6533,0.027 3.1733,0.4267 4.52,0.7734 1.08,0.28 2.1066,0.5466 2.9066,0.5466 0.013,0 0.027,0 0.04,0 0.6534,0 1.6,-0.2533 2.6134,-0.52 1.4133,-0.3866 3.0133,-0.8133 4.8266,-0.88 1.6,-0.053 3.1067,0.2 4.44,0.4134 1.1334,0.1866 2.2134,0.36 3.0667,0.3066 0.5867,-0.04 1.5333,-0.3866 2.4533,-0.7333 1.4134,-0.52 3.0134,-1.1067 4.88,-1.2667 1.76,-0.16 3.36,0.1067 4.7867,0.3467 1.0667,0.1733 2.0667,0.3467 2.7733,0.2533 1.52,-0.1733 3.0534,-0.4133 4.6,-0.6533 0.9334,-0.1467 1.8667,-0.2933 2.8,-0.4267 1.0667,-0.1466 2.2134,-0.4533 3.4267,-0.7733 1.2267,-0.3333 2.4933,-0.6667 3.88,-0.9067 1.1467,-0.2 2.3067,-0.3333 3.48,-0.48 1.36,-0.1733 2.6667,-0.3333 3.8933,-0.5866 1.0534,-0.2134 2.1734,-0.5867 3.36,-0.9867 1.2,-0.4 2.44,-0.8133 3.8,-1.1333 1.08,-0.2534 2.2134,-0.6667 3.4134,-1.0934 1.16,-0.4266 2.36,-0.8533 3.6666,-1.2133 1.2667,-0.3467 2.4934,-0.5733 3.68,-0.8 1.28,-0.24 2.48,-0.4667 3.5734,-0.8133 1.1866,-0.36 2.4,-0.8534 3.6666,-1.36 1.08,-0.44 2.1734,-0.88 3.28,-1.2667 1.1334,-0.3867 2.2934,-0.72 3.4534,-1.04 1.2933,-0.36 2.52,-0.7067 3.64,-1.1467 2.4666,-0.96 4.68,-1.84 6.8666,-2.7866 1.48,-0.6534 2.9734,-0.9867 4.2934,-1.2934 1.1066,-0.24 2.16,-0.48 2.8933,-0.84 0.5733,-0.28 1.3067,-0.96 2.08,-1.6933 1.0667,-0.9867 2.28,-2.12 3.8667,-2.9733 0.8933,-0.4934 1.8133,-0.9467 2.7333,-1.4134 1.3333,-0.6666 2.6,-1.3066 3.8,-2.0266 1.1333,-0.68 2.4267,-1.3067 3.68,-1.9067 0.027,-0.027 0.067,-0.04 0.093,-0.053 -0.8266,-0.9067 -1.7866,-2.1734 -2.5333,-4.1334 -0.88,-2.3333 -1.1333,-3.64 -1.36,-4.8 -0.1733,-0.96 -0.32,-1.7066 -0.9333,-3.3066 -0.88,-2.32 -1.1334,-3.6267 -1.3467,-4.7867 -0.1867,-0.9467 -0.3333,-1.7067 -0.9467,-3.3067 -0.8666,-2.2933 0.28,-4.8666 2.5734,-5.7333 2.3066,-0.8667 4.8666,0.28 5.7333,2.5733 0.88,2.32 1.1467,3.6267 1.36,4.7867 0.1867,0.96 0.3333,1.7067 0.9467,3.3067 0.88,2.3333 1.1333,3.64 1.3466,4.8 0.1867,0.9466 0.3334,1.7066 0.9334,3.3066 0.32,0.8534 0.6533,1.1734 1.3066,1.84 1.1734,1.1867 2.96,2.9867 3.32,6.8934 0.1467,1.6266 -0.6133,3.2 -1.9733,4.1066 -1.4133,0.9467 -3.0667,1.7334 -4.6533,2.5067 -1.12,0.5467 -2.1867,1.0533 -2.9734,1.5333 -1.48,0.88 -2.96,1.6267 -4.3866,2.3467 -0.84,0.4133 -1.68,0.84 -2.4934,1.28 -0.5733,0.32 -1.28,0.9733 -2.0266,1.6667 -1.16,1.08 -2.48,2.32 -4.2534,3.1733 -1.6666,0.8133 -3.3466,1.2 -4.8266,1.5333 -1.0267,0.2267 -1.9867,0.44 -2.6934,0.76 -2.3333,1.0134 -4.6266,1.92 -7.1866,2.92 -1.5334,0.6 -3.04,1.0134 -4.48,1.4267 -0.9867,0.28 -1.9734,0.5467 -2.92,0.88 -0.9867,0.3333 -1.9334,0.72 -2.8934,1.1067 -1.3866,0.56 -2.8266,1.1466 -4.36,1.6133 -1.5733,0.4933 -3.08,0.7733 -4.5466,1.0533 -1.0667,0.2 -2.08,0.3867 -3,0.64 -0.96,0.2667 -1.9467,0.6267 -2.9867,1 -1.3867,0.4934 -2.8133,1.0134 -4.3733,1.3867 -0.96,0.2267 -1.96,0.56 -3.0267,0.9067 -1.3867,0.4666 -2.8267,0.96 -4.4,1.28 -1.5867,0.32 -3.12,0.5066 -4.6,0.6933 -1.0267,0.12 -2.0533,0.24 -3.0533,0.4133 -0.9867,0.1734 -2.0134,0.4534 -3.1067,0.7334 -1.4133,0.3733 -2.8667,0.76 -4.44,0.9866 -0.9067,0.1334 -1.8,0.28 -2.6933,0.4134 -1.6667,0.2533 -3.32,0.52 -4.9467,0.7066 -1.9467,0.2134 -3.7067,-0.067 -5.2533,-0.32 -0.9867,-0.1733 -1.92,-0.32 -2.56,-0.2666 -0.68,0.053 -1.6,0.4 -2.5867,0.76 -1.44,0.5333 -3.08,1.1333 -4.9733,1.2533 -1.8667,0.1067 -3.5467,-0.16 -5.04,-0.4 -1.0134,-0.1733 -2,-0.3333 -2.7067,-0.2933 -0.8,0.027 -1.7867,0.2933 -2.84,0.5733 -1.4267,0.3733 -3.04,0.8133 -4.8267,0.8267 -0.04,0 -0.08,0 -0.12,0"
       style="fill:#362421;fill-opacity:1;fill-rule:nonzero;stroke:none;stroke-width:0.133333" />
    <path
       id="path331"
       d="m 1584.4666,2667.4533 c -0.8933,0 -1.9333,-0.1466 -3.2533,-0.52 -3.64,-1.0266 -4.8667,-2.6133 -6.0933,-4.5733 -0.3867,-0.6267 -0.7867,-1.2667 -1.5334,-2.12 -0.28,-0.32 -0.5866,-0.64 -0.9066,-0.9867 -1.3734,-1.48 -3.08,-3.32 -4.3067,-5.7733 -1,-1.9733 -1.16,-4.0533 -1.3067,-5.8933 -0.067,-0.9067 -0.1466,-1.76 -0.2933,-2.48 -0.48,-2.2 -0.4133,-4.3334 -0.36,-6.4 0.027,-0.56 0.04,-1.1334 0.04,-1.72 0.04,-3.1467 0.4933,-5.8667 1.4267,-8.5334 0.92,-2.64 2,-5.44 4.04,-7.88 2.1733,-2.6133 4.28,-4.5466 6.4266,-5.92 0.9067,-0.5866 1.4667,-1.0533 1.9734,-1.4533 2.0133,-1.6533 3.5466,-2.4533 6.9866,-2.3333 0.32,-0.6267 0.7334,-1.3867 1.28,-2.32 0.7067,-1.2 1.7734,-3.1067 2.88,-5.6667 0.68,-1.56 1.4667,-3.52 2.4534,-6.16 0.5066,-1.3467 0.9733,-3.3867 1.5066,-5.7467 l 0.28,-1.2 c 0.5334,-2.2933 1.0934,-4.7466 1.5867,-7.3733 0.2133,-1.1467 0.5067,-2.32 0.8133,-3.5333 0.3467,-1.3467 0.6667,-2.6134 0.88,-3.92 0.4,-2.4267 0.7867,-4.96 1.1734,-7.5734 0.093,-0.56 -0.067,-1.56 -0.2267,-2.52 -0.2533,-1.5733 -0.5467,-3.3466 -0.28,-5.3066 0.24,-1.6667 0.76,-3.1734 1.2133,-4.5067 0.3734,-1.08 0.72,-2.1067 0.8267,-2.96 0.1333,-1.04 0.1467,-2.1867 0.16,-3.4 0.013,-1.3867 0.027,-2.8133 0.2133,-4.32 0.2267,-1.84 0.8534,-3.44 1.4134,-4.84 0.3866,-1 0.76,-1.9333 0.84,-2.6267 0.067,-0.5866 -0.1467,-1.5866 -0.36,-2.56 -0.3334,-1.5466 -0.72,-3.32 -0.4934,-5.28 0.2267,-2.04 1.0267,-3.7866 1.6667,-5.1866 0.3867,-0.8667 0.8,-1.7734 0.8533,-2.28 0.1467,-1.36 0.2534,-2.6934 0.3467,-4.0134 0.093,-1.24 0.1867,-2.4666 0.3067,-3.6533 0.093,-0.9467 -0.027,-2.0533 -0.1734,-3.2267 -0.16,-1.3733 -0.3466,-2.9466 -0.1866,-4.56 0.2,-1.9733 0.7466,-3.7466 1.1733,-5.16 0.2933,-0.9333 0.56,-1.8133 0.6133,-2.3866 0.1734,-1.7734 0.053,-2.24 -0.12,-2.88 -0.3066,-1.2267 -0.5733,-2.5067 -0.36,-4.88 0.2134,-2.44 2.3734,-4.2534 4.8134,-4.0267 2.44,0.2133 4.2533,2.3733 4.04,4.8133 -0.093,1.04 -0.027,1.28 0.12,1.8667 0.36,1.3733 0.6533,2.8667 0.36,5.9467 -0.1467,1.4666 -0.56,2.84 -0.9734,4.16 -0.36,1.2 -0.7066,2.32 -0.8133,3.44 -0.067,0.64 0.04,1.6133 0.16,2.6266 0.1867,1.5334 0.3867,3.2667 0.1867,5.1734 -0.1067,1.1066 -0.2,2.2533 -0.28,3.4133 -0.1067,1.4 -0.2134,2.84 -0.3734,4.2933 -0.2,1.9467 -0.9466,3.5867 -1.6133,5.0267 -0.4133,0.9067 -0.8533,1.8667 -0.92,2.48 -0.053,0.52 0.1467,1.48 0.36,2.4133 0.32,1.5334 0.7333,3.4267 0.4933,5.4667 -0.2133,1.84 -0.84,3.44 -1.4,4.8667 -0.4,1 -0.7733,1.9466 -0.8533,2.6533 -0.1333,1.0133 -0.1333,2.1333 -0.1467,3.32 -0.013,1.4267 -0.027,2.8933 -0.24,4.4533 -0.2133,1.7467 -0.76,3.32 -1.24,4.7067 -0.3466,1.0533 -0.6933,2.0267 -0.8,2.84 -0.093,0.64 0.067,1.6267 0.24,2.6667 0.2534,1.56 0.5334,3.3333 0.2534,5.2533 -0.4,2.6533 -0.8,5.24 -1.2,7.7067 -0.28,1.6666 -0.6667,3.1866 -1.04,4.6666 -0.2534,1.0134 -0.5067,2.0134 -0.6934,2.9867 -0.52,2.8 -1.1066,5.36 -1.6533,7.7333 l -0.28,1.1867 c -0.6133,2.68 -1.1467,4.9867 -1.8533,6.88 -1.04,2.7867 -1.88,4.8933 -2.6267,6.6 -1.2933,2.9733 -2.5333,5.1733 -3.3467,6.5867 -0.76,1.2933 -1.2266,2.2133 -1.5466,2.8533 -1.1467,2.2533 -2.5334,4.2533 -6.4267,3.9333 -0.2533,-0.013 -0.5733,-0.04 -0.9867,-0.053 -0.52,-0.027 -0.8133,-0.013 -0.9733,0 -0.12,0.093 -0.2533,0.2 -0.4,0.32 -0.6133,0.5067 -1.4533,1.2 -2.7867,2.0533 -1.3733,0.88 -2.8133,2.2267 -4.4,4.1334 -0.9866,1.1866 -1.6533,2.7733 -2.48,5.12 -0.6133,1.76 -0.8933,3.52 -0.92,5.7066 -0.013,0.64 -0.027,1.2667 -0.04,1.88 -0.053,1.6667 -0.093,3.1067 0.1467,4.24 0.28,1.3067 0.3867,2.56 0.4667,3.6667 0.08,0.9733 0.1866,2.1867 0.4,2.6133 0.6533,1.32 1.7866,2.5334 2.88,3.7067 0.3733,0.4133 0.7466,0.8133 1.08,1.1867 1.2133,1.4 1.92,2.52 2.3733,3.2666 0.12,0.1867 0.2267,0.36 0.3333,0.5067 0.1067,0.053 0.3067,0.12 0.6534,0.2267 0.6,0.16 0.8133,0.1733 0.8133,0.1733 0.067,-0.027 0.2,-0.067 0.36,-0.12 1.2667,-0.3733 2.72,-0.7467 5.32,-0.7467 0.7467,0 1.6533,-0.093 2.7067,-0.2 1.4,-0.1466 2.9733,-0.3066 4.7333,-0.3066 1.4267,0 2.7733,0.2 4.0667,0.4 2.4666,0.36 4.5733,0.3466 6.9333,0.36 2.2933,0.013 4.7067,0.027 7.24,-0.1067 1.3467,-0.067 2.7067,-0.1333 4.1067,-0.1333 0.8266,0 1.84,-0.16 2.9066,-0.3334 1.36,-0.2133 2.8934,-0.4533 4.5467,-0.4533 1.2133,0 2.44,0.013 3.68,0.027 2.1867,0.027 4.32,0.067 6.9467,-0.2 1.3466,-0.1467 2.76,-0.3067 4.2666,-0.3067 1.72,0 3.28,0.36 4.6667,0.68 1.04,0.24 2.0133,0.4667 2.7733,0.4667 l 7.4534,-0.013 c 1.3066,0 2.6133,0.067 3.9333,0.1334 2.12,0.12 4.1733,0.16 6.6933,-0.1334 2.4534,-0.28 5.1867,-0.32 7.9334,-0.3466 1.2666,-0.013 2.52,-0.027 3.7866,-0.027 1.6534,0 3.1867,0.28 4.5467,0.5333 1.0667,0.2134 2.08,0.4 2.9067,0.4 1,0 2.08,-0.1333 3.2266,-0.2666 1.3467,-0.1467 2.7467,-0.3067 4.24,-0.3067 0.7334,0 1.6934,-0.2267 2.72,-0.48 1.4,-0.3333 2.9867,-0.7067 4.7467,-0.7067 1.92,0 3.5867,0.52 5.0667,0.9734 0.8933,0.28 1.8266,0.5733 2.3866,0.5733 1.1734,0 2.3334,-0.08 3.4934,-0.1467 2.7866,-0.1733 5.6,-0.1466 8.12,0.08 2.3333,0.2 4.2533,0.2 6.6,-0.067 1.32,-0.1467 2.7066,-0.3067 4.1733,-0.3067 0.9467,0 2.0133,-0.1467 3.1467,-0.32 1.3733,-0.2 2.7733,-0.4 4.3066,-0.4 l 7.4534,-0.027 c 1.7466,0 3.3333,0.3334 4.7333,0.6134 1.0267,0.2 1.9867,0.4 2.7333,0.4 0.7067,0 1.6534,-0.2667 2.6667,-0.5467 1.4133,-0.4 3,-0.8533 4.7867,-0.8533 1.3733,0 2.72,0.027 4.04,0.053 1.1733,0.027 2.3066,0.053 3.4133,0.053 l 7.4667,0.013 c 1.9733,0 3.7466,0.3733 5.1733,0.6666 0.9067,0.1867 1.76,0.36 2.28,0.36 2.5733,0 4.6,0.053 5.9733,0.08 0.6534,0.013 1.1467,0.027 1.4667,0.027 1.16,0 2.1867,-0.4533 3.6933,-1.6 1.0934,-0.8267 1.7867,-2.28 2.4667,-3.8133 0.36,-0.8134 0.4,-1.1734 0.4533,-1.7734 0.16,-1.6666 0.4667,-3.3733 2.52,-5.7466 2.64,-3.0534 5.2,-3.04 7.3467,-2.64 0.6533,0.1333 0.9867,0.1866 1.84,-0.04 1.5733,-0.44 3.52,-1.2134 5.5867,-2.0534 l 0.7466,-0.2933 c 1.12,-0.4533 2.36,-1.1867 3.6667,-1.96 0.72,-0.4133 1.44,-0.84 2.1867,-1.2533 2.0266,-1.12 3.8266,-2.28 5.5066,-3.56 1.2,-0.8934 2.3334,-2.12 3.5334,-3.4134 l 1.04,-1.1066 c 0.9333,-0.9734 1.96,-1.7334 2.8666,-2.4 0.8934,-0.6667 1.7334,-1.2934 2.1067,-1.8534 0.2133,-0.32 0.3867,-1.4 0.52,-2.1866 0.2133,-1.2667 0.4533,-2.6934 1.0667,-4.1734 0.48,-1.1733 1.1066,-2.2 1.6666,-3.12 0.6,-0.96 1.16,-1.88 1.32,-2.6266 0.48,-2.2267 0.96,-4.3734 1.0934,-6.52 0.08,-1.1867 0.2133,-2.36 0.36,-3.52 0.1733,-1.4134 0.3466,-2.7334 0.32,-3.88 -0.027,-1.44 -0.2534,-2.9334 -0.4934,-4.52 -0.1466,-0.9467 -0.28,-1.8934 -0.3866,-2.8 -0.1067,-1.04 -0.5334,-2.2134 -0.9734,-3.4534 -0.3866,-1.1066 -0.8,-2.2666 -1.08,-3.5333 -0.32,-1.4267 -0.4266,-2.8 -0.52,-4.0133 -0.1066,-1.2267 -0.2,-2.3734 -0.48,-3.1734 -0.4133,-1.2 -1.12,-2.4266 -1.8666,-3.72 -0.52,-0.8933 -1.0267,-1.7733 -1.4667,-2.68 -0.5067,-1 -0.9333,-2.0533 -1.36,-3.0933 -0.5333,-1.32 -1.04,-2.56 -1.6533,-3.5067 -0.6267,-0.96 -1.52,-1.92 -2.48,-2.9333 -0.7734,-0.8133 -1.56,-1.6533 -2.32,-2.6133 -1.1734,-1.4534 -2.48,-2.8534 -3.8667,-4.3334 l -1.0667,-1.1466 c -0.7866,-0.84 -1.76,-1.6534 -2.7866,-2.5067 -0.9067,-0.7733 -1.8534,-1.5733 -2.7867,-2.48 -1.1733,-1.1467 -2.4,-2.24 -3.6267,-3.36 -0.64,-0.5867 -1.2933,-1.1733 -1.9333,-1.7733 -1.0533,-0.96 -1.9733,-1.96 -2.8667,-2.9334 -0.84,-0.9333 -1.6533,-1.8133 -2.4933,-2.5733 -0.6933,-0.6267 -1.52,-1.2533 -2.4,-1.9067 -1.1467,-0.8666 -2.3333,-1.7466 -3.48,-2.84 -1.1067,-1.0533 -2.1067,-2.1466 -3.08,-3.2 -0.7067,-0.7733 -1.4,-1.5466 -2.1467,-2.28 -1.12,-1.12 -2.04,-2.3066 -2.92,-3.44 -0.6666,-0.88 -1.3066,-1.6933 -1.96,-2.3866 -1.08,-1.1334 -2,-2.32 -2.8933,-3.4667 -0.6267,-0.8 -1.2533,-1.6133 -1.9333,-2.3733 -0.4134,-0.48 -1.2,-1 -2.0134,-1.56 -1.2933,-0.8667 -2.7466,-1.8534 -3.9733,-3.3334 -1.08,-1.32 -1.8933,-2.7333 -2.6,-3.9733 -0.5333,-0.92 -1.04,-1.8 -1.56,-2.4933 -1.0133,-1.3334 -1.7867,-2.76 -2.48,-4.0134 -0.4933,-0.92 -0.9733,-1.8 -1.48,-2.5333 -0.3467,-0.4933 -1.04,-1.0933 -1.7867,-1.72 -1.2266,-1.0267 -2.6,-2.2 -3.6533,-3.8933 -0.9733,-1.56 -1.52,-3.1867 -2,-4.6134 -0.3333,-0.9733 -0.64,-1.88 -1.0133,-2.56 -0.44,-0.8 -0.92,-1.6 -1.4,-2.3866 -0.8267,-1.36 -1.6934,-2.76 -2.4267,-4.32 -0.8267,-1.7334 -1.12,-3.48 -1.4,-5 -0.16,-0.9734 -0.32,-1.8934 -0.5867,-2.5467 -0.1866,-0.5067 -0.76,-1.24 -1.32,-1.96 -0.96,-1.24 -2.16,-2.7867 -2.8,-4.7867 -0.7466,-2.3466 0.5467,-4.84 2.88,-5.5866 2.3334,-0.7467 4.84,0.5466 5.5867,2.8933 0.16,0.4933 0.7733,1.28 1.36,2.04 0.8933,1.1467 1.8933,2.4533 2.56,4.12 0.6,1.5067 0.8533,2.9867 1.08,4.2933 0.1867,1.0667 0.36,2.08 0.68,2.7334 0.5333,1.1333 1.2267,2.28 1.9733,3.4933 0.5467,0.9067 1.1067,1.8133 1.6134,2.7467 0.7466,1.36 1.2133,2.7466 1.6266,3.9733 0.36,1.08 0.7067,2.0933 1.1334,2.7733 0.32,0.5067 1.0933,1.16 1.84,1.8 1.1066,0.9334 2.3466,1.9867 3.36,3.4534 0.7866,1.12 1.4,2.2533 1.9866,3.3466 0.5867,1.0667 1.1334,2.08 1.7467,2.88 0.88,1.16 1.5733,2.3734 2.1867,3.44 0.5866,1.04 1.1466,2.0134 1.7466,2.7467 0.4134,0.4933 1.2267,1.04 2.0934,1.6267 1.1866,0.8 2.52,1.7066 3.6933,3.0266 0.8,0.8934 1.5467,1.8534 2.2933,2.8 0.8,1.0267 1.5467,1.9867 2.3467,2.8267 0.96,1.0133 1.7467,2.0533 2.52,3.0533 0.7467,0.96 1.4533,1.8667 2.1733,2.5867 0.84,0.84 1.6267,1.6933 2.4267,2.56 0.9067,1 1.76,1.9333 2.64,2.76 0.7733,0.7467 1.7067,1.44 2.6933,2.1867 1,0.7466 2.04,1.52 3.04,2.4266 1.1467,1.04 2.1334,2.12 3.08,3.16 0.8,0.8667 1.56,1.6934 2.32,2.4 0.64,0.5867 1.2667,1.16 1.8934,1.72 1.3066,1.1867 2.6,2.36 3.8533,3.5867 0.7333,0.72 1.52,1.3733 2.3067,2.0267 1.1866,0.9866 2.4133,2.0266 3.5733,3.28 l 1.04,1.1066 c 1.4533,1.5467 2.9467,3.1334 4.3333,4.8667 0.5734,0.72 1.2134,1.4 1.84,2.0667 1.1334,1.2 2.4134,2.56 3.4667,4.1866 1.08,1.6534 1.8,3.44 2.44,5 0.3333,0.84 0.68,1.68 1.0667,2.4934 0.3733,0.7333 0.7866,1.4533 1.2133,2.1866 0.88,1.52 1.8667,3.24 2.56,5.2134 0.6667,1.88 0.8133,3.76 0.9467,5.4266 0.08,1.0134 0.16,1.96 0.3333,2.7867 0.1733,0.72 0.4667,1.5733 0.7867,2.4667 0.5733,1.5866 1.2133,3.3866 1.44,5.4666 0.093,0.8 0.2133,1.6134 0.3333,2.4267 0.2667,1.72 0.56,3.68 0.6,5.72 0.027,1.7733 -0.1867,3.48 -0.3867,5.12 -0.12,0.9867 -0.2533,1.9733 -0.32,2.9867 -0.1733,2.8266 -0.7466,5.4266 -1.2533,7.72 -0.5067,2.36 -1.5867,4.1066 -2.44,5.5066 -0.4267,0.6934 -0.8267,1.3467 -1.04,1.8667 -0.2267,0.56 -0.36,1.3867 -0.5067,2.2533 -0.28,1.6534 -0.6266,3.7067 -1.8533,5.5867 -1.24,1.9067 -2.92,3.1467 -4.28,4.1333 -0.6667,0.5067 -1.2933,0.96 -1.6933,1.3734 l -0.96,1.04 c -1.4134,1.52 -2.88,3.0933 -4.6934,4.4533 -2.0266,1.5333 -4.1733,2.92 -6.5733,4.24 -0.6667,0.3733 -1.3067,0.76 -1.9467,1.1333 -1.5466,0.92 -3.1466,1.8534 -4.8933,2.56 l -0.7333,0.2934 c -2.3067,0.9333 -4.48,1.8 -6.5467,2.3733 -2.2933,0.6267 -4.0133,0.5067 -5.1467,0.3333 -0.053,0.08 -0.08,0.12 -0.08,0.12 0.04,-0.04 0.013,0.1067 0.013,0.24 -0.12,1.2134 -0.3067,2.5467 -1.1734,4.52 -1.0666,2.4267 -2.44,5.1867 -5.2,7.2934 -2.0933,1.5866 -5.0133,3.4266 -9.0933,3.4266 -0.3733,0 -0.9333,-0.013 -1.68,-0.04 -1.32,-0.027 -3.2667,-0.067 -5.76,-0.067 -1.44,0 -2.7867,-0.28 -4.0933,-0.5467 -1.1734,-0.2533 -2.2934,-0.48 -3.36,-0.48 l -7.4667,-0.013 c -1.1733,0 -2.3733,-0.027 -3.6133,-0.053 -1.2534,-0.027 -2.5334,-0.053 -3.84,-0.053 -0.5467,0 -1.48,0.2533 -2.3734,0.5067 -1.4666,0.4133 -3.1466,0.8933 -5.08,0.8933 -1.64,0 -3.16,-0.3067 -4.5066,-0.5867 -1.08,-0.2133 -2.1067,-0.4266 -2.96,-0.4266 l -7.4534,0.013 c -0.88,0 -1.92,0.16 -3.0133,0.32 -1.3333,0.1867 -2.84,0.4133 -4.44,0.4133 -0.9733,0 -2.04,0.12 -3.1867,0.2534 -1.36,0.1466 -2.76,0.3066 -4.28,0.3066 -1.4133,0 -2.76,-0.12 -4.0666,-0.2266 -2.4667,-0.2134 -4.5867,-0.2 -6.8134,-0.067 -1.3466,0.093 -2.6933,0.16 -4.04,0.16 -1.9066,0 -3.56,-0.5067 -5.0266,-0.96 -0.9067,-0.28 -1.8534,-0.5733 -2.4267,-0.5733 -0.72,0 -1.68,0.2266 -2.6933,0.4666 -1.4134,0.3334 -3,0.7067 -4.7734,0.7067 -0.9866,0 -2.0666,0.1333 -3.2133,0.2667 -1.36,0.1466 -2.7467,0.3066 -4.2533,0.3066 -1.6534,0 -3.1867,-0.28 -4.5467,-0.5333 -1.0667,-0.2 -2.08,-0.3867 -2.9067,-0.3867 -1.2266,0 -2.4533,0.013 -3.6933,0.027 -2.24,0.027 -4.3867,-0.013 -6.9867,0.28 -2.5466,0.3067 -5.4,0.3333 -8.2133,0.1867 -1.16,-0.067 -2.3067,-0.12 -3.4533,-0.12 l -7.4534,0.013 c -1.7733,0 -3.36,-0.3733 -4.7733,-0.6933 -1,-0.24 -1.96,-0.4534 -2.6667,-0.4534 -1.04,0 -2.1466,0.12 -3.32,0.24 -2.5066,0.28 -5.3066,0.2934 -8,0.2667 -2.1733,-0.027 -4.1866,-0.08 -6.72,0.32 -1.36,0.2133 -2.7733,0.44 -4.3066,0.44 -1.24,0 -2.4534,0.067 -3.6534,0.12 -2.7066,0.1333 -5.2933,0.1333 -7.76,0.12 -1.1866,-0.013 -2.3466,-0.027 -3.48,-0.027 -1.7333,0 -3.3066,-0.2266 -4.6933,-0.44 -1.0267,-0.1466 -2,-0.2933 -2.76,-0.2933 -1.3067,0 -2.5867,0.1333 -3.84,0.2533 -1.24,0.12 -2.4133,0.24 -3.6,0.24 -1.5067,0 -2.0933,0.1867 -2.76,0.3867 -0.8933,0.2667 -1.7867,0.4933 -2.9067,0.4933"
       style="fill:#362421;fill-opacity:1;fill-rule:nonzero;stroke:none;stroke-width:0.133333" />
    <path
       id="path332"
       d="m 1751.4933,2645.2267 c -0.48,0 -0.9733,-0.08 -1.4533,-0.2534 -0.56,-0.1866 -1.16,-0.3466 -1.8,-0.5333 -1.7867,-0.4933 -4.0134,-1.1067 -6.3334,-2.4 -0.6533,-0.3467 -1.4933,-0.7067 -2.3733,-1.08 -1.6133,-0.68 -3.4267,-1.4533 -5.2267,-2.6667 -1.4533,-1 -2.76,-2.16 -4.0133,-3.2933 -0.7733,-0.6933 -1.56,-1.4 -2.4,-2.0667 -1.52,-1.2 -2.9333,-2.5333 -4.3067,-3.8133 -0.6133,-0.5733 -1.2266,-1.1467 -1.8666,-1.72 -0.6134,-0.56 -1.4667,-1.1333 -2.36,-1.72 -1.36,-0.9067 -2.9067,-1.9333 -4.2934,-3.3467 -1.2666,-1.3066 -2.2533,-2.7066 -3.2133,-4.0666 -0.6533,-0.9067 -1.2667,-1.7734 -1.9067,-2.52 -1.2133,-1.4267 -2.2533,-2.92 -3.2533,-4.36 -0.5333,-0.7867 -1.08,-1.5734 -1.6533,-2.3334 -1.52,-2.04 -2.6134,-4.1866 -3.68,-6.2666 l -0.4934,-0.96 c -1.2133,-2.3467 -2.0133,-4.72 -2.7866,-7.0134 l -0.2267,-0.68 c -0.84,-2.4933 -1.28,-4.9333 -1.6933,-7.2933 l -0.12,-0.72 c -0.12,-0.6133 -0.4534,-1.4267 -0.8134,-2.2933 -0.6533,-1.5734 -1.4666,-3.5334 -1.5333,-5.8 -0.067,-2.12 0.32,-4.1067 0.6667,-5.8667 0.16,-0.8267 0.32,-1.6533 0.4266,-2.4667 0.08,-0.7466 0.093,-1.6133 0.1067,-2.5466 0.027,-1.7867 0.053,-3.8134 0.64,-5.8934 0.6,-2.1066 1.7333,-3.7733 2.7333,-5.24 0.5334,-0.8 1.04,-1.5466 1.36,-2.2133 0.2934,-0.6267 0.5467,-1.4667 0.8134,-2.3467 0.52,-1.72 1.1066,-3.6666 2.3733,-5.52 1.1867,-1.7333 2.68,-3.12 4.0133,-4.3466 0.6134,-0.5734 1.2534,-1.1467 1.8267,-1.76 1.9067,-2.0267 3.9733,-3.92 6.1467,-5.6267 0.5866,-0.4667 1.2,-1.0533 1.84,-1.6667 1.2666,-1.2133 2.6933,-2.6 4.5466,-3.5733 2.1334,-1.1333 4.3334,-1.2267 6.1067,-1.32 0.8,-0.027 1.64,-0.067 2.0667,-0.2133 l 1.36,-0.44 c 1.9866,-0.64 4.0266,-1.3067 6.3066,-1.6267 2.9467,-0.4133 5.6267,-0.4533 7.88,-0.4533 h 0.013 c 0.7466,0 1.64,-0.1334 2.5866,-0.28 1.5867,-0.24 3.3734,-0.5067 5.3067,-0.2667 2.2267,0.28 4.0267,1.2267 5.48,1.9867 0.72,0.3733 1.4533,0.7733 1.8933,0.8666 0.7067,0.1734 1.68,0.12 2.72,0.067 1.5867,-0.08 3.3734,-0.1733 5.2,0.4533 3.0267,1.04 3.9467,1.56 5.2,2.32 0.4667,0.28 1.0267,0.6267 2.0267,1.1334 2.2,1.1066 3.0667,3.7733 1.96,5.9733 -1.1067,2.1867 -3.7733,3.0533 -5.9733,1.96 -1.2934,-0.6667 -2.0267,-1.1067 -2.6267,-1.4667 -0.7867,-0.48 -1.1867,-0.7333 -3.4667,-1.5066 -0.28,-0.067 -1.24,-0.013 -1.88,0.013 -1.4533,0.08 -3.2666,0.16 -5.2,-0.2933 -1.5333,-0.36 -2.84,-1.04 -3.9866,-1.6534 -0.9067,-0.4666 -1.8267,-0.96 -2.4667,-1.04 -0.6933,-0.08 -1.7467,0.08 -2.8667,0.24 -1.1733,0.1867 -2.52,0.48 -3.9466,0.3867 -1.9467,-0.013 -4.2267,0.027 -6.6134,0.36 -1.5066,0.2133 -3.0266,0.7067 -4.7866,1.28 l -1.4534,0.4667 c -1.5333,0.4933 -3.0133,0.56 -4.32,0.6133 -0.8933,0.04 -1.9866,0.093 -2.3733,0.3067 -0.7333,0.3866 -1.6,1.2133 -2.52,2.1066 -0.7333,0.7067 -1.5733,1.52 -2.52,2.2534 -1.8267,1.44 -3.56,3.0266 -5.1733,4.7333 -0.72,0.76 -1.4934,1.48 -2.2667,2.2 -1.0667,0.9867 -2.08,1.92 -2.7067,2.8267 -0.48,0.72 -0.8266,1.8666 -1.2,3.08 -0.3333,1.0933 -0.7066,2.3333 -1.2666,3.5466 -0.6134,1.2934 -1.3867,2.4267 -2.0534,3.4267 -0.6933,1 -1.3333,1.96 -1.5466,2.6933 -0.2667,0.9467 -0.28,2.2134 -0.2934,3.56 -0.013,1.1334 -0.027,2.2934 -0.1866,3.5067 -0.12,1.04 -0.32,2.0667 -0.52,3.1067 -0.28,1.4266 -0.5334,2.7733 -0.5067,3.8933 0.013,0.6267 0.44,1.6533 0.8533,2.6533 0.5067,1.2 1.08,2.5734 1.36,4.1467 l 0.1334,0.72 c 0.3733,2.1333 0.7333,4.1467 1.36,6.0133 l 0.2266,0.6934 c 0.7067,2.0666 1.36,4.0133 2.2534,5.7466 l 0.5066,1 c 0.9467,1.8267 1.8267,3.56 2.9067,5.0134 0.6267,0.84 1.2267,1.7066 1.8267,2.5733 0.92,1.32 1.7866,2.5733 2.7066,3.6533 0.9067,1.0534 1.6534,2.12 2.3867,3.16 0.8,1.12 1.56,2.1867 2.3467,3 0.72,0.7334 1.7466,1.4134 2.8266,2.1334 1.1334,0.76 2.3067,1.5333 3.4267,2.5466 0.6667,0.6 1.32,1.2134 1.9733,1.8134 1.2934,1.2266 2.52,2.3733 3.7467,3.3466 0.9867,0.7734 1.9067,1.6 2.8133,2.4134 1.08,0.9733 2.1067,1.8933 3.08,2.56 1.0667,0.72 2.3467,1.2533 3.6934,1.8266 1.0533,0.44 2.1333,0.9067 3.2,1.4934 1.4133,0.7866 2.88,1.1866 4.4133,1.6133 0.8267,0.2267 1.6133,0.4533 2.3333,0.6933 2.32,0.8 3.5467,3.3334 2.7467,5.6534 -0.64,1.84 -2.36,3 -4.2,3"
       style="fill:#362421;fill-opacity:1;fill-rule:nonzero;stroke:none;stroke-width:0.133333" />
    <path
       id="path333"
       d="m 1706.6933,2666.0267 c -1.6,0 -3.1467,-0.8534 -3.9333,-2.36 -0.32,-0.6 -0.6667,-1.1734 -1,-1.72 -1.0934,-1.84 -2.3467,-3.9067 -2.5467,-6.4267 -0.24,-3.0933 0.2933,-6.48 1.48,-9.28 1.08,-2.5733 3.1333,-4.1333 4.6267,-5.28 0.5066,-0.3867 1.04,-0.7867 1.3066,-1.0667 3.0534,-3.1866 4.8267,-4.7333 6.3334,-5.48 1.0666,-0.5333 2.2266,-0.76 3.72,-1.04 1.0933,-0.2133 2.3333,-0.4533 3.5733,-0.8266 0.4,-0.1334 1.1867,-0.6667 1.8267,-1.1067 1.2266,-0.84 2.6133,-1.8 4.3733,-2.3067 2.12,-0.6 2.9867,-0.7866 3.9067,-1 0.6666,-0.1466 1.3733,-0.3066 2.7733,-0.6933 2.3867,-0.64 4.8133,0.7733 5.4533,3.1333 0.64,2.3734 -0.76,4.8134 -3.1333,5.4534 -1.5733,0.4266 -2.3733,0.6 -3.1333,0.7733 -0.8134,0.1867 -1.5734,0.36 -3.4267,0.8933 -0.36,0.093 -1.1867,0.6667 -1.7867,1.08 -1.2,0.8134 -2.5466,1.7467 -4.2533,2.2667 -1.6933,0.52 -3.2533,0.8133 -4.4933,1.0533 -0.5067,0.1067 -1.1734,0.2267 -1.4934,0.32 -0.3066,0.2 -1.2933,0.9867 -3.8,3.6134 -0.76,0.7866 -1.6133,1.44 -2.36,2.0133 -0.6933,0.5333 -1.6666,1.2667 -1.8266,1.6667 -0.64,1.5066 -0.9334,3.4133 -0.8,5.0933 0.027,0.44 0.8,1.72 1.3066,2.5733 0.4134,0.68 0.84,1.4 1.2267,2.1334 1.1467,2.1733 0.32,4.8666 -1.8533,6.0133 -0.6667,0.3467 -1.3734,0.5067 -2.0667,0.5067"
       style="fill:#362421;fill-opacity:1;fill-rule:nonzero;stroke:none;stroke-width:0.133333" />
    <path
       id="path334"
       d="m 1724.8533,2665.8533 c -1.6267,0 -3.2,-0.9066 -3.9733,-2.4666 -0.28,-0.5467 -0.56,-1.0667 -0.8134,-1.56 -1.5066,-2.8667 -2.92,-5.5867 -2.1333,-8.7334 1.3467,-5.36 4.1867,-6.4133 7.2267,-7.08 0.5066,-0.12 1.0933,-0.2533 1.7866,-0.4533 2.3334,-0.72 4.8267,0.6 5.5334,2.96 0.72,2.3467 -0.6,4.8267 -2.9467,5.5333 -0.9467,0.2934 -1.76,0.48 -2.4533,0.6267 -0.1334,0.04 -0.2667,0.067 -0.3867,0.08 -0.013,0.067 -0.04,0.1333 -0.053,0.2 0.1733,0.5733 0.8133,1.8133 1.2933,2.7467 0.2933,0.5333 0.5867,1.1066 0.8933,1.7066 1.0934,2.2 0.2,4.8667 -1.9866,5.96 -0.64,0.32 -1.32,0.48 -1.9867,0.48"
       style="fill:#362421;fill-opacity:1;fill-rule:nonzero;stroke:none;stroke-width:0.133333" />
    <path
       id="path335"
       d="m 1602.68,2666.0133 c -1.4534,0 -2.8667,-0.7066 -3.72,-2.0133 -0.4534,-0.68 -0.72,-0.9467 -1.08,-1.3333 -1.04,-1.0534 -1.92,-2.08 -2.96,-4.8134 l -0.28,-0.7333 c -0.68,-1.7467 -1.5334,-3.9333 -1.9334,-6.3333 -0.3733,-2.36 0.4134,-4.44 0.9867,-5.96 0.24,-0.6 0.4933,-1.2934 0.5467,-1.6667 0.36,-2.9467 1.16,-6.3333 4.2,-9.1733 1.6133,-1.4934 4.1733,-3.5734 7.28,-5.0667 2.2266,-1.0533 3.2533,-1.4133 4.24,-1.76 0.5466,-0.1867 1.08,-0.3733 1.92,-0.7333 0.5866,-0.76 1.3733,-2.0267 2.3466,-4.12 0.32,-0.6934 0.5867,-1.7067 0.8667,-2.7867 0.3067,-1.16 0.64,-2.4667 1.16,-3.84 0.6133,-1.6267 1.5867,-2.8933 2.44,-4.0133 0.5867,-0.7734 1.2,-1.5734 1.4,-2.1467 0.2933,-0.9067 0.6267,-1.8267 0.96,-2.7467 0.4667,-1.32 0.9467,-2.6666 1.3733,-4.04 0.28,-0.8933 0.4534,-1.96 0.6534,-3.0933 0.2133,-1.2667 0.44,-2.5867 0.84,-3.96 0.3333,-1.16 0.6,-2.3467 0.8666,-3.52 0.2667,-1.1733 0.5334,-2.3467 0.8534,-3.4933 0.2533,-0.9067 0.3866,-1.9734 0.52,-3.1067 0.16,-1.2933 0.32,-2.64 0.6933,-4.0267 0.4667,-1.76 1.2533,-3.2266 1.9467,-4.5066 0.4533,-0.84 0.88,-1.6267 1.0133,-2.1734 0.24,-0.8933 0.24,-1.9733 0.2533,-3.1066 0.013,-1.3467 0.027,-2.7334 0.3867,-4.1734 0.72,-2.9066 1.56,-4.2 2.44,-5.3733 0.32,-0.44 0.4,-0.52 0.5733,-1.3067 0.56,-2.3866 2.9467,-3.88 5.3334,-3.32 2.4,0.56 3.88,2.9467 3.32,5.3467 -0.5467,2.3867 -1.32,3.5467 -2.12,4.6133 -0.36,0.48 -0.5734,0.7734 -0.92,2.16 -0.1067,0.44 -0.12,1.3067 -0.12,2.1334 -0.013,1.4666 -0.04,3.2933 -0.5334,5.24 -0.4,1.5866 -1.1466,2.9733 -1.8,4.1866 -0.5066,0.9334 -0.9866,1.8134 -1.1866,2.56 -0.2,0.8 -0.32,1.7867 -0.4534,2.8267 -0.16,1.3333 -0.3466,2.8533 -0.7733,4.4 -0.28,1.0133 -0.52,2.0533 -0.76,3.0933 -0.3067,1.3467 -0.6133,2.6934 -1,4.0267 -0.2533,0.88 -0.4267,1.9067 -0.6133,2.9733 -0.2267,1.36 -0.4667,2.7734 -0.92,4.2267 -0.4667,1.4933 -0.9867,2.96 -1.4934,4.4 -0.32,0.8667 -0.6266,1.7333 -0.9066,2.5867 -0.6667,1.9733 -1.8267,3.4933 -2.76,4.72 -0.4934,0.6266 -1.04,1.36 -1.1867,1.7466 -0.36,0.9334 -0.6133,1.9067 -0.88,2.9334 -0.36,1.4133 -0.7467,2.88 -1.4,4.3066 -1.4667,3.16 -2.9467,5.4934 -4.4933,7.1067 -0.4,0.4133 -0.8667,0.7467 -1.3867,0.9867 -1.76,0.7866 -2.7067,1.12 -3.5333,1.4133 -0.8267,0.28 -1.5467,0.5333 -3.3334,1.3867 -1.6266,0.7866 -3.4266,2.04 -5.0533,3.56 -0.6933,0.64 -1.1467,1.4533 -1.44,3.76 -0.1733,1.4266 -0.6533,2.6933 -1.04,3.72 -0.2,0.5066 -0.4933,1.28 -0.5067,1.5466 0.2134,1.3067 0.8534,2.9334 1.4134,4.36 l 0.3066,0.7867 c 0.4667,1.2267 0.5867,1.3467 1.0134,1.7867 0.4933,0.4933 1.24,1.2666 2.16,2.68 1.3466,2.0533 0.76,4.8133 -1.2934,6.1466 -0.7466,0.4934 -1.5866,0.72 -2.4266,0.72"
       style="fill:#362421;fill-opacity:1;fill-rule:nonzero;stroke:none;stroke-width:0.133333" />
    <path
       id="path336"
       d="m 1650.6,2665.4933 c -0.4934,0 -1.0134,-0.027 -1.5867,-0.08 -0.56,-0.04 -1.2533,-0.1066 -2.2267,-0.12 -2.4533,-0.027 -4.4133,-2.0533 -4.3866,-4.5066 0.04,-2.4534 2.1333,-4.4134 4.5066,-4.3734 1.24,0.013 2.12,0.08 2.84,0.1467 1.2134,0.093 1.2134,0.093 3.4267,-0.9733 1.84,-0.88 3.5867,-2.28 5.1867,-4.1734 0.4133,-0.48 0.8666,-0.9733 1.3466,-1.4933 1.2667,-1.36 2.4534,-2.6533 3.0134,-4.1867 0.2533,-0.6933 0.4533,-1.5466 0.6666,-2.44 0.3467,-1.4266 0.7334,-3.04 1.44,-4.68 1.04,-2.3866 2.04,-4.5733 3.08,-6.68 0.68,-1.3866 1.44,-2.6666 2.1734,-3.9066 0.4933,-0.8134 0.9733,-1.6267 1.4266,-2.4667 0.32,-0.6 0.5734,-1.4933 0.84,-2.4267 0.3867,-1.4 0.84,-2.9866 1.7334,-4.52 0.9066,-1.56 2.04,-2.76 3.04,-3.8266 0.6666,-0.6934 1.28,-1.36 1.64,-1.92 0.9066,-1.4267 1.8533,-2.68 2.76,-3.88 0.5333,-0.7067 1.0533,-1.3867 1.5333,-2.0667 0.56,-0.8 1.04,-1.68 1.56,-2.6 0.6933,-1.2533 1.4133,-2.5467 2.3733,-3.7333 1.5334,-1.92 4.3334,-2.2267 6.24,-0.6934 1.92,1.5334 2.2267,4.3334 0.6934,6.2534 -0.48,0.6 -1,1.52 -1.5467,2.5066 -0.5733,1.0134 -1.2133,2.1734 -2.0267,3.3334 -0.5466,0.7866 -1.1333,1.5733 -1.7333,2.36 -0.84,1.1066 -1.64,2.16 -2.3467,3.28 -0.8,1.28 -1.8,2.3333 -2.6666,3.2666 -0.7467,0.7734 -1.44,1.52 -1.84,2.2 -0.3334,0.56 -0.5867,1.48 -0.8534,2.4534 -0.3733,1.2933 -0.7866,2.7733 -1.5733,4.2266 -0.5067,0.9467 -1.0533,1.88 -1.6133,2.8 -0.68,1.1334 -1.3067,2.2134 -1.8267,3.28 -0.9733,1.9734 -1.9333,4.04 -2.9067,6.3067 -0.4133,0.9333 -0.6666,2.0267 -0.9466,3.2 -0.2667,1.0933 -0.5334,2.24 -0.96,3.4 -1.1734,3.24 -3.2134,5.44 -4.8667,7.2133 -0.3867,0.4134 -0.7467,0.8134 -1.08,1.2 -2.4133,2.84 -5.1333,5 -8.1067,6.4267 -3.04,1.4533 -4.5333,1.8933 -6.4266,1.8933"
       style="fill:#362421;fill-opacity:1;fill-rule:nonzero;stroke:none;stroke-width:0.133333" />
    <path
       id="path337"
       d="m 1708.68,2647.2533 c -0.4667,0 -0.96,-0.08 -1.44,-0.24 -0.5867,-0.2 -1.1734,-0.3866 -1.7734,-0.5733 -2.3466,-0.7333 -5.0133,-1.56 -7.32,-3.36 -2.9333,-2.2933 -5.2266,-5 -6.6933,-6.8533 -2.36,-2.96 -2.8667,-3.9467 -3.7067,-6 -0.2266,-0.56 -0.5066,-1.2667 -0.9866,-2.2667 -1.04,-2.2267 -0.08,-4.8667 2.1466,-5.9067 2.2267,-1.04 4.8667,-0.093 5.9067,2.1334 0.56,1.1866 0.8933,2.0133 1.16,2.68 0.5333,1.2933 0.6533,1.6 2.4267,3.8266 1.1866,1.4934 3.0266,3.6667 5.2133,5.3734 1.0267,0.8 2.72,1.3333 4.4933,1.8933 0.68,0.2 1.3467,0.4133 2.0267,0.64 2.32,0.8 3.5467,3.32 2.76,5.6533 -0.64,1.84 -2.36,3 -4.2133,3"
       style="fill:#362421;fill-opacity:1;fill-rule:nonzero;stroke:none;stroke-width:0.133333" />
    <path
       id="path338"
       d="m 1803.5733,2651.96 c -1.8667,0 -3.6,-1.1733 -4.2133,-3.04 -0.6267,-1.8933 -0.7734,-3.0667 -0.8934,-3.92 -0.1066,-0.8267 -0.1466,-1.2 -1.16,-2.9867 -0.8266,-1.4666 -2.2,-3.2533 -3.6533,-5.1466 L 1792.9866,2636 c -0.52,-0.68 -1.5066,-1.4267 -2.5466,-2.2267 -0.9467,-0.72 -2.0267,-1.5466 -3.0534,-2.52 -1.0533,-1.0266 -2.3866,-1.9066 -3.9466,-2.92 -0.6,-0.3866 -1.2134,-0.7866 -1.8267,-1.2133 -2.0267,-1.3867 -2.5333,-4.1467 -1.1467,-6.1733 1.3734,-2.0267 4.1467,-2.5467 6.1734,-1.16 0.56,0.3866 1.12,0.7466 1.6666,1.1066 1.7734,1.16 3.6,2.36 5.2534,3.96 0.6533,0.6134 1.4266,1.2134 2.2666,1.8534 1.4,1.0533 2.9734,2.2666 4.2267,3.8933 l 0.6533,0.8533 c 1.6534,2.1467 3.2134,4.1734 4.3467,6.2 1.72,3.0534 2.0133,4.5067 2.2267,6.2 0.093,0.6667 0.16,1.1867 0.52,2.2667 0.7733,2.3333 -0.4934,4.84 -2.8267,5.6133 -0.4667,0.16 -0.9333,0.2267 -1.4,0.2267"
       style="fill:#362421;fill-opacity:1;fill-rule:nonzero;stroke:none;stroke-width:0.133333" />
    <path
       id="path339"
       d="m 1797.3066,2623.84 h 0.027 z m 0.48,17.0267 c -0.8933,0 -1.7866,-0.2667 -2.5733,-0.8267 -2,-1.4267 -2.4667,-4.2 -1.04,-6.2 1.9333,-2.7067 2.3333,-4.5333 2.48,-5.8267 0.1333,-1.2933 0.2933,-2.2933 0.4267,-3.1066 0.067,-0.4134 0.1466,-0.9067 0.1733,-1.1734 -0.093,-0.1733 -0.3333,-0.5466 -0.8933,-1.2666 -1.5067,-1.9334 -1.1734,-4.72 0.76,-6.24 1.9466,-1.5067 4.7333,-1.16 6.24,0.7733 3.0133,3.84 3.0666,5.8 2.4933,9.3467 -0.1067,0.68 -0.2533,1.52 -0.36,2.6 -0.3733,3.4666 -1.6667,6.6666 -4.08,10.0533 -0.8667,1.2133 -2.24,1.8667 -3.6267,1.8667"
       style="fill:#362421;fill-opacity:1;fill-rule:nonzero;stroke:none;stroke-width:0.133333" />
    <path
       id="path340"
       d="m 1860.5466,2627.1067 c -2.08,0 -3.8933,-0.2 -5.4933,-0.6134 -3.2,-0.8133 -6.36,-2.4533 -8.6667,-4.48 -2.88,-2.5333 -4.6,-6.2133 -5.36,-8.1733 -0.88,-2.2933 0.2534,-4.8667 2.5467,-5.76 2.28,-0.88 4.8533,0.2533 5.7467,2.5467 0.7866,2.0266 1.88,3.7866 2.92,4.7066 1.2666,1.1067 3.1866,2.08 5.0266,2.5467 0.9734,0.2533 2.8267,0.4933 6.0667,0.2 0.8667,-0.08 2.08,-0.5867 3.36,-1.1333 0.8667,-0.36 1.7333,-0.72 2.6267,-1.0267 2.2,-0.76 4.12,-1.6267 5.8933,-2.6533 0.8,-0.4667 1.64,-1.2667 2.6133,-2.2 0.76,-0.72 1.52,-1.44 2.36,-2.12 1.2534,-1.04 2.64,-1.6534 3.8667,-2.1867 0.8533,-0.3867 1.8267,-0.8267 2.1733,-1.1867 0.9734,-1.0666 1.92,-2.44 2.92,-3.9066 0.3734,-0.5467 0.7467,-1.0934 1.1334,-1.6267 0.68,-0.9733 1.2266,-2.3333 1.8,-3.7733 0.3333,-0.84 0.68,-1.68 1.0533,-2.5067 1.1467,-2.4933 1.9333,-4.5467 2.48,-6.4933 0.2267,-0.7867 0.24,-1.92 0.24,-3.1067 0,-1.2 0.013,-2.5467 0.2267,-3.96 0.3866,-2.5867 0.6133,-4.8267 0.6933,-7.0133 0.08,-1.7467 0.56,-3.2934 0.9867,-4.6534 0.3066,-0.9733 0.6266,-1.9866 0.5866,-2.56 -0.053,-1.0133 -0.3466,-2.2 -0.6666,-3.4533 -0.3067,-1.1733 -0.6134,-2.4 -0.8134,-3.72 -0.16,-1.2 -0.24,-2.36 -0.3066,-3.48 -0.093,-1.3733 -0.1734,-2.68 -0.44,-3.8 -0.16,-0.72 -0.32,-1.4533 -0.4667,-2.1867 -0.3733,-1.76 -0.7333,-3.4266 -1.2133,-4.96 -0.3467,-1.12 -0.9467,-2.32 -1.5734,-3.6 -0.5066,-1.0133 -1,-2.04 -1.4266,-3.0666 -0.44,-1.0667 -1.12,-2.16 -1.8534,-3.32 -0.6,-0.9334 -1.2,-1.9067 -1.76,-2.9734 -1.0133,-1.9466 -2.1733,-3.9066 -3.64,-6.1466 -1.5866,-2.4267 -2.8666,-4.1867 -4.1466,-5.7067 -1.3467,-1.5867 -2.2667,-3.24 -3.0667,-4.6933 -0.3333,-0.6 -0.6533,-1.1867 -1,-1.7334 -0.4133,-0.6533 -0.9467,-1.32 -1.52,-2.0266 -1.0267,-1.2534 -2.2,-2.68 -2.92,-4.4667 -0.9067,-2.2267 -1.0267,-4.3867 -1.1067,-6.12 -0.04,-0.7067 -0.067,-1.36 -0.1466,-1.8533 -0.44,-2.5734 -0.5067,-5.1334 -0.24,-8.0267 0.2666,-2.9333 1.0133,-5.3333 1.7466,-7.32 -1.24,-0.4267 -2.16,-1.2267 -2.7866,-1.92 -1.2534,-1.3867 -1.8667,-2.72 -2.12,-3.92 -2.2267,0.9867 -4.1734,2.0133 -5.9334,3.1333 -1.1333,0.72 -2.12,1.7467 -3.16,2.84 -0.5466,0.56 -1.08,1.12 -1.6266,1.6534 -1.16,1.0933 -2.4,1.8533 -3.5067,2.5333 -0.68,0.4133 -1.72,1.04 -1.92,1.36 -1.0133,1.5733 -1.72,3.6533 -2.4,5.6533 l -0.5467,1.6134 c -0.6533,1.8933 -1.28,3.6666 -1.4533,5.2666 -0.08,0.7334 0.16,1.84 0.4267,3 0.2533,1.16 0.5466,2.4667 0.6266,3.8667 0.053,0.8667 0.067,1.7467 0.08,2.6267 0.04,1.56 0.067,3.04 0.3067,4.3466 l 0.2667,1.4267 c 0.36,1.9733 0.6933,3.84 1.1866,5.5733 0.2667,0.9334 0.8,1.9467 1.3734,3.04 0.5866,1.1067 1.2,2.2667 1.6666,3.6 0.6267,1.7467 0.7867,3.4267 0.92,4.9067 0.093,0.96 0.1867,1.96 0.3867,2.4667 0.3733,0.8933 1,1.8133 1.68,2.7866 0.8,1.1467 1.6133,2.32 2.2,3.72 0.1867,0.4534 0.3867,0.9067 0.5733,1.3467 0.88,2.0267 1.8,4.12 2.0534,6.4267 0.32,2.6933 -0.5734,4.9866 -1.2134,6.6533 -0.2266,0.6 -0.4533,1.1733 -0.5466,1.5733 -0.1467,0.64 -0.24,1.2934 -0.3334,1.9334 -0.28,1.8666 -0.6,3.9866 -1.8,6 -1.24,2.08 -2.9066,3.5066 -4.24,4.64 -0.44,0.3866 -0.8666,0.7333 -1.2266,1.1066 -0.88,0.88 -1.2534,1.4 -1.6267,1.9067 -0.92,1.2533 -1.7467,2.2533 -4.1467,3.6533 -2.12,1.2534 -4.84,0.5334 -6.08,-1.5866 -1.24,-2.12 -0.52,-4.84 1.6,-6.08 0.9734,-0.5734 1,-0.6267 1.44,-1.2267 0.4667,-0.6267 1.1467,-1.5733 2.5067,-2.9333 0.5333,-0.5334 1.1333,-1.0534 1.76,-1.5867 0.9733,-0.84 1.8933,-1.6133 2.3867,-2.4533 0.2933,-0.5067 0.4666,-1.6534 0.64,-2.76 0.12,-0.8667 0.2666,-1.7334 0.4533,-2.5867 0.24,-1.0267 0.6,-1.9733 0.92,-2.8 0.36,-0.9467 0.7467,-1.92 0.68,-2.4533 -0.1067,-0.9734 -0.72,-2.3867 -1.3733,-3.8667 -0.2134,-0.4933 -0.4267,-0.9867 -0.64,-1.48 -0.2134,-0.5333 -0.7334,-1.28 -1.28,-2.0667 -0.84,-1.2133 -1.88,-2.7066 -2.6134,-4.52 -0.7066,-1.72 -0.8666,-3.4533 -1.0133,-4.9866 -0.093,-1.0534 -0.1867,-2.0534 -0.4267,-2.7467 -0.2666,-0.7333 -0.7066,-1.5733 -1.1733,-2.4533 -0.72,-1.3734 -1.5467,-2.92 -2.0533,-4.7334 -0.6134,-2.16 -1,-4.3333 -1.3867,-6.4266 L 1839.04,2517 c -0.3734,-2.0267 -0.4134,-3.9333 -0.4534,-5.7867 -0.013,-0.7733 -0.04,-1.5333 -0.08,-2.2933 -0.04,-0.6933 -0.2266,-1.56 -0.4266,-2.4667 -0.3867,-1.7333 -0.8267,-3.7066 -0.5867,-5.8933 0.2933,-2.6 1.1467,-5.04 1.8933,-7.2133 l 0.52,-1.52 c 0.8134,-2.4134 1.7334,-5.1334 3.3467,-7.6534 1.3067,-2.0266 3.24,-3.1866 4.7733,-4.1333 0.7867,-0.48 1.5334,-0.9333 2,-1.3733 0.4534,-0.4267 0.88,-0.88 1.32,-1.3467 1.3067,-1.36 2.7867,-2.9067 4.84,-4.2133 2.1734,-1.3867 4.5334,-2.6267 7.2134,-3.8 0.6133,-0.2667 1.1733,-0.5467 1.72,-0.8 1.44,-0.6934 2.9333,-1.4 5.0133,-2.0534 2.2933,-0.7066 4.7333,0.52 5.52,2.7734 0.5067,1.44 0.6267,2.7066 0.5867,3.76 1.2933,-0.4 2.8933,-0.5334 4.68,0.1066 2.8,1 3.64,2.9334 3.8933,3.9867 0.6933,2.96 -1.2933,5.04 -2.6133,6.4133 -0.7734,0.8 -1.6267,1.7067 -1.92,2.4667 -0.6,1.6133 -1.1867,3.3867 -1.3867,5.4933 -0.2,2.1334 -0.1467,3.96 0.1467,5.76 0.1733,0.9867 0.2133,1.9334 0.2666,2.8534 0.053,1.2266 0.12,2.3866 0.4534,3.2133 0.2266,0.56 0.92,1.4 1.5866,2.2133 0.6667,0.84 1.44,1.7867 2.1334,2.88 0.44,0.6934 0.8533,1.4267 1.2666,2.1867 0.6667,1.2133 1.3067,2.3467 2.0934,3.28 1.5066,1.8 2.9866,3.8267 4.7733,6.5467 1.64,2.5066 2.9467,4.7066 4.1067,6.9333 0.4,0.7867 0.8933,1.56 1.3866,2.3333 0.8534,1.36 1.8267,2.9067 2.56,4.68 0.3467,0.84 0.76,1.6667 1.1734,2.5067 0.7466,1.52 1.52,3.08 2.08,4.8667 0.6133,1.9466 1.0266,3.8933 1.4266,5.7866 0.1467,0.68 0.2934,1.3734 0.4534,2.0534 0.4,1.8133 0.52,3.6133 0.6266,5.2 0.053,0.9466 0.12,1.88 0.24,2.8 0.1334,0.8533 0.3734,1.7866 0.6134,2.7733 0.4,1.5467 0.84,3.2933 0.9466,5.16 0.12,2.2 -0.4933,4.1467 -0.9866,5.72 -0.28,0.88 -0.56,1.7733 -0.5867,2.3467 -0.093,2.52 -0.3467,5.0533 -0.7867,7.9733 -0.12,0.7733 -0.12,1.6933 -0.12,2.6667 -0.013,1.6666 -0.013,3.5466 -0.5733,5.52 -0.68,2.3866 -1.6267,4.8533 -2.96,7.7733 -0.32,0.68 -0.6,1.3867 -0.88,2.0933 -0.7067,1.76 -1.5067,3.76 -2.8,5.5867 -0.36,0.5067 -0.7067,1.0267 -1.0533,1.5333 -1.1334,1.6534 -2.3067,3.36 -3.72,4.8934 -1.5867,1.7333 -3.5334,2.6 -5.1067,3.2933 -0.7067,0.32 -1.5067,0.6667 -1.8533,0.9467 -0.64,0.5333 -1.24,1.1066 -1.8267,1.6666 -1.2133,1.16 -2.5867,2.4667 -4.3067,3.4667 -2.2666,1.3067 -4.6933,2.4133 -7.44,3.36 -0.7066,0.24 -1.4,0.5333 -2.0933,0.8267 -1.76,0.7466 -3.7733,1.5866 -6,1.7866 -1.28,0.12 -2.4667,0.1734 -3.5867,0.1734"
       style="fill:#362421;fill-opacity:1;fill-rule:nonzero;stroke:none;stroke-width:0.133333" />
    <path
       id="path341"
       d="m 1639.3333,2505.88 c 0,2.4133 -0.6533,4.6133 -1.5067,6.6133 -0.9466,2.24 -2.3466,3.96 -4.0533,5.32 -1.8267,1.4534 -3.7867,2.6667 -6.1333,2.6667 -2.3334,0 -4.7734,-0.6267 -6.6,-2.08 -1.7067,-1.36 -2.0134,-3.9333 -2.96,-6.16 -0.84,-2.0133 -1.7734,-3.9467 -1.7734,-6.36 0,-2.4267 0.8134,-4.4133 1.6534,-6.4133 0.9466,-2.24 1.1333,-5.0534 2.84,-6.4134 1.8266,-1.4666 4.5066,-0.7733 6.84,-0.7733 2.3466,0 5,-0.6533 6.8266,0.8 1.7067,1.36 1.8,4.2 2.7334,6.44 0.8533,2 2.1333,3.9333 2.1333,6.36"
       style="fill:#f4a221;fill-opacity:1;fill-rule:nonzero;stroke:none;stroke-width:0.133333" />
    <path
       id="path342"
       d="m 1623.5466,2496.5867 c -0.12,0.2933 -0.3733,1.2 -0.56,1.8266 -0.24,0.8534 -0.52,1.8134 -0.92,2.7734 -0.8,1.8666 -1.3066,3.2 -1.3066,4.6933 0,1.2933 0.52,2.52 1.1866,4.0667 l 0.24,0.56 c 0.32,0.7733 0.5867,1.5733 0.84,2.3733 0.24,0.72 0.6,1.8133 0.8267,2.08 0.84,0.6667 2.24,1.0667 3.7867,1.0667 0.8666,0 1.88,-0.5067 3.36,-1.6934 1.24,-0.9866 2.1333,-2.16 2.7333,-3.56 0.7867,-1.8666 1.16,-3.4266 1.16,-4.8933 0,-0.84 -0.4933,-1.8533 -1.0533,-3.0267 -0.2534,-0.5466 -0.5067,-1.08 -0.7334,-1.6133 -0.4266,-1.0267 -0.7066,-2.04 -0.9466,-2.9467 -0.1467,-0.5466 -0.3734,-1.36 -0.5467,-1.7466 -0.3067,-0.027 -1.3067,0.053 -1.9733,0.093 -1.3734,0.093 -2.68,0.093 -4.0534,0 -0.6533,-0.053 -1.6,-0.12 -2.04,-0.053 z m 4.0934,28.3333 c -3.5867,0 -6.9067,-1.08 -9.3734,-3.0533 -2.24,-1.7867 -3.04,-4.2534 -3.6933,-6.24 -0.1733,-0.56 -0.3467,-1.12 -0.5867,-1.6534 l -0.2133,-0.5333 c -0.8533,-1.9867 -1.9067,-4.4533 -1.9067,-7.56 0,-3.4 1.16,-6.1467 2,-8.1467 0.2,-0.48 0.3867,-1.1066 0.5867,-1.7866 0.5867,-2.0267 1.3067,-4.56 3.5733,-6.3734 2.7334,-2.1866 6.0134,-1.96 8.1867,-1.8 0.96,0.067 1.88,0.067 2.84,0 2.3067,-0.1466 5.4533,-0.3466 8.1867,1.84 2.2666,1.8134 2.9866,4.44 3.5066,6.3734 0.1734,0.68 0.3467,1.3333 0.56,1.8 0.1734,0.4133 0.36,0.8133 0.56,1.2266 0.8534,1.7867 1.9067,4 1.9067,6.8667 0,2.6933 -0.5867,5.3467 -1.8533,8.3467 -1.1734,2.76 -2.9734,5.1333 -5.36,7.0533 -2.1334,1.6933 -5.0534,3.64 -8.92,3.64"
       style="fill:#362421;fill-opacity:1;fill-rule:nonzero;stroke:none;stroke-width:0.133333" />
    <path
       id="path343"
       d="m 1729.5333,2396.9333 c 0,2.56 -0.4,5.04 -1.1467,7.3467 -0.7866,2.4 -2.5066,4.2133 -3.9733,6.2133 -1.4667,2.0267 -2.4133,4.56 -4.44,6.0267 -2,1.4533 -4.72,1.5067 -7.12,2.28 -2.32,0.76 -4.5467,2.0533 -7.12,2.0533 -2.56,0 -4.8533,-1.08 -7.1733,-1.84 -2.4,-0.7733 -5.3467,-0.6266 -7.3467,-2.0933 -2.0267,-1.4667 -3.8133,-3.5733 -5.2933,-5.6 -1.4534,-2 -2.48,-4.4933 -3.2534,-6.8933 -0.76,-2.32 -0.9066,-4.9334 -0.9066,-7.4934 0,-2.5733 0.7466,-4.9866 1.5066,-7.3066 0.7734,-2.4 2.4267,-4.2 3.8934,-6.2 1.4666,-2.0267 2.48,-4.4 4.5066,-5.8667 2,-1.4667 4.3467,-2.4133 6.7467,-3.1867 2.32,-0.76 4.76,-0.6533 7.32,-0.6533 2.5733,0 5.1067,-0.3867 7.4267,0.36 2.4,0.7867 5.1333,1.3733 7.1333,2.8267 2.0133,1.4666 2.76,4.36 4.2267,6.3733 1.4533,2 3.6533,3.7067 4.44,6.1067 0.7466,2.32 0.5733,4.9733 0.5733,7.5466"
       style="fill:#ee966b;fill-opacity:1;fill-rule:nonzero;stroke:none;stroke-width:0.133333" />
    <path
       id="path344"
       d="m 1527.68,2341.84 c -0.48,0.76 -1.2934,0.1467 -2.3734,0.5067 -2.2666,0.76 -4.4266,1.8266 -5.9866,3.1733 -1.6934,1.4667 -1.7867,4.1067 -2.76,6.08 -0.9334,1.9333 -2.1334,3.6933 -2.5067,5.92 -0.3467,2.12 0.04,4.28 0.12,6.52 0.093,2.5333 -1.0133,5.2533 -0.4933,7.7867 0.5066,2.5066 1.28,5.0666 2.1733,7.48 0.8933,2.4 2.7733,4.1866 4.0267,6.4 2.3733,-0.24 4.56,-0.2534 6.6666,-1.1334 2.16,-0.92 4.5334,-1.8133 6.32,-3.28 1.8,-1.4933 2.0934,-4.3333 3.3867,-6.28 1.28,-1.92 3.6,-3.3466 4.28,-5.6133 0.6667,-2.1733 -0.027,-4.64 -0.027,-7.04 0,-2.2667 -0.2266,-4.3333 -0.8266,-6.4 -0.6134,-2.1467 -1.76,-3.88 -2.92,-5.7333 -1.1734,-1.8667 -1.2934,-4.6934 -2.92,-6.1734 -1.64,-1.48 -4.16,-1.24 -6.16,-2.2133"
       style="fill:#ee966b;fill-opacity:1;fill-rule:nonzero;stroke:none;stroke-width:0.133333" />
    <path
       id="path345"
       d="m 1767.2666,2396.24 z m 0.4134,0.36 c 0,0 0,0 0.013,0 z m -128.9734,76.2133 c -1.6666,0 -3.16,-0.3066 -4.4933,-0.5733 -0.9467,-0.2 -1.84,-0.3733 -2.5333,-0.3867 -0.88,0.013 -1.7467,0.1467 -2.7467,0.2934 -1.4133,0.2266 -3.0133,0.48 -4.7333,0.3733 -0.7734,-0.04 -1.5334,-0.08 -2.2934,-0.12 -1.7066,-0.067 -3.4533,-0.1467 -5.2,-0.3467 -1.8,-0.2 -3.3866,-0.7333 -4.7866,-1.2 -0.92,-0.3066 -1.7867,-0.6 -2.52,-0.72 -0.9334,-0.16 -1.8934,-0.24 -2.8267,-0.3333 -1.4933,-0.1333 -3.0267,-0.28 -4.6267,-0.6533 -1.8666,-0.4267 -3.3866,-1.24 -4.7333,-1.96 -0.8267,-0.4534 -1.6133,-0.8667 -2.2267,-1.0534 -0.8,-0.24 -1.72,-0.3866 -2.7066,-0.5466 -1.4134,-0.2267 -3.0267,-0.48 -4.64,-1.08 -0.7867,-0.2934 -1.7067,-0.5067 -2.68,-0.7467 -1.4267,-0.3333 -3.0267,-0.72 -4.5867,-1.4133 -2.6533,-1.1867 -4.8933,-2.2667 -6.8267,-3.3067 -1.7066,-0.8933 -2.9733,-2.0933 -4.0933,-3.16 -0.6933,-0.64 -1.3333,-1.2533 -1.88,-1.5867 -1.48,-0.92 -2.7467,-1.9733 -3.8667,-2.9066 -0.68,-0.5734 -1.36,-1.1467 -2.08,-1.6534 -0.7066,-0.52 -1.52,-0.9866 -2.3733,-1.48 -1.2933,-0.76 -2.6267,-1.5333 -3.92,-2.6 -0.6133,-0.4933 -1.4267,-0.9733 -2.2933,-1.4666 -1.2534,-0.7334 -2.68,-1.5734 -3.9734,-2.76 l -1.2133,-1.0934 c -1.4133,-1.2933 -2.8933,-2.64 -4.2667,-4.0533 -1.3866,-1.4267 -2.1866,-3.04 -2.9066,-4.4533 -0.4134,-0.84 -0.8134,-1.64 -1.2134,-2.12 -1.2533,-1.5067 -2.3333,-3.04 -3.3866,-4.5334 L 1535,2423.64 c -0.36,-0.4933 -1.04,-1.08 -1.76,-1.6933 -1.2,-1 -2.5467,-2.1467 -3.5867,-3.8 -0.9467,-1.4934 -1.5333,-3.0534 -2.0533,-4.4134 -0.3467,-0.9333 -0.68,-1.8133 -1.0667,-2.4933 -0.4,-0.72 -0.9867,-1.48 -1.6133,-2.2933 -0.88,-1.1334 -1.88,-2.4134 -2.6534,-3.9467 l -0.6133,-1.2267 c -0.9067,-1.8 -1.84,-3.6533 -2.6667,-5.5066 -0.36,-0.8134 -0.7466,-1.6134 -1.12,-2.4134 -0.6666,-1.4266 -1.36,-2.9066 -1.96,-4.4133 -0.7066,-1.7333 -0.9333,-3.4267 -1.1333,-4.92 -0.1333,-0.9467 -0.2533,-1.84 -0.4667,-2.44 -0.3333,-0.92 -0.7866,-1.8533 -1.2666,-2.84 -0.6,-1.2667 -1.24,-2.56 -1.6934,-4.0133 -0.5466,-1.68 -0.96,-3.3334 -1.32,-4.7734 -0.2133,-0.84 -0.4133,-1.64 -0.64,-2.4133 -0.96,-3.4133 -0.3733,-6.3733 0.093,-8.76 0.08,-0.4133 0.16,-0.84 0.2266,-1.2533 0.6,-3.52 1.6667,-6.4 3.3334,-9.0534 1.7866,-2.8666 3.96,-4.88 5.8666,-6.6533 l 0.2534,-0.2267 c 2.12,-1.9733 3.7733,-2.6666 4.88,-3.1333 0.2266,-0.093 0.5333,-0.2267 0.6,-0.2667 0,0 0.013,-0.013 0.053,-0.053 -0.8,-1.16 -1.8267,-2.96 -2.1067,-5.7733 -0.1333,-1.4 -0.053,-2.8267 0.013,-4.1867 0.067,-1.1467 0.1333,-2.32 0.067,-3.48 -0.1066,-2.0667 -0.16,-4.4133 -0.1866,-7.6133 -0.013,-1.5334 0.12,-3.0267 0.24,-4.48 0.093,-1.0134 0.1866,-2.0534 0.2266,-3.12 0.027,-0.9067 0.013,-1.8267 0,-2.7734 -0.013,-1.5333 -0.04,-3.12 0.093,-4.84 0.04,-0.5733 -0.1067,-1.4533 -0.28,-2.4 -0.2534,-1.4933 -0.5867,-3.3466 -0.3334,-5.3466 0.2,-1.6267 0.52,-3.2267 0.84,-4.7733 0.1867,-0.92 0.3867,-1.8534 0.5467,-2.7867 0.28,-1.6133 0.72,-3.12 1.1333,-4.5733 0.28,-0.96 0.56,-1.9067 0.7867,-2.88 0.3733,-1.68 1.0133,-3.2 1.5733,-4.5334 0.4,-0.96 0.7867,-1.88 1.0267,-2.72 0.2,-0.7466 0.32,-1.6933 0.4267,-2.6933 0.1733,-1.4933 0.3733,-3.1867 0.9733,-4.9333 0.2933,-0.8667 0.5333,-1.7867 0.7867,-2.6934 0.4,-1.5333 0.8266,-3.1066 1.4933,-4.72 0.7867,-1.92 1.7067,-3.7866 2.6,-5.6 l 0.6933,-1.4266 c 0.8267,-1.68 1.9467,-3.0134 2.9467,-4.1867 0.6533,-0.76 1.2667,-1.4933 1.64,-2.1467 0.36,-0.64 0.68,-1.52 1.0267,-2.4533 0.52,-1.4533 1.12,-3.1067 2.1733,-4.68 1.2667,-1.9067 2.6667,-3.72 4.0267,-5.4667 l 0.6133,-0.8 c 0.4133,-0.5333 0.8267,-1.08 1.24,-1.64 1.12,-1.48 2.2667,-3.0133 3.5867,-4.4933 1.2,-1.3467 2.5733,-2.3733 3.8,-3.2667 0.8133,-0.6133 1.5866,-1.1866 2.2,-1.7733 1.28,-1.2533 2.64,-2.32 3.96,-3.36 0.6666,-0.52 1.3333,-1.04 1.9866,-1.6 0.5867,-0.48 1.2,-1.1733 1.84,-1.92 1.0134,-1.1733 2.16,-2.48 3.6934,-3.6 1.5066,-1.0933 3.1066,-1.7333 4.5333,-2.2933 0.9333,-0.3734 1.8267,-0.7334 2.48,-1.1467 0.4933,-0.3067 1.1067,-0.96 1.76,-1.6533 1.0533,-1.12 2.3867,-2.52 4.2,-3.5067 1.48,-0.8 2.9733,-1.36 4.4267,-1.8933 0.92,-0.3467 1.84,-0.6934 2.7333,-1.1067 1.7333,-0.8 3.4667,-1.0667 4.9867,-1.2933 0.9866,-0.16 1.9333,-0.2934 2.5866,-0.56 0.76,-0.2934 1.5867,-0.76 2.4667,-1.2534 1.2933,-0.7066 2.76,-1.52 4.4533,-2.0933 0.72,-0.24 1.5734,-0.6933 2.4667,-1.16 1.32,-0.7067 2.8267,-1.5067 4.5867,-2 1.7866,-0.5067 3.5066,-0.52 5.0133,-0.5333 1.0267,-0.013 2,-0.027 2.72,-0.2 0.7333,-0.1734 1.6267,-0.5334 2.56,-0.9334 1.3733,-0.5733 2.9333,-1.2133 4.7067,-1.56 1.0533,-0.2 2.0933,-0.4533 3.1333,-0.7066 1.4,-0.3334 2.84,-0.6934 4.3467,-0.9334 1.7333,-0.2666 3.3866,-0.2266 4.84,-0.1866 1.0533,0.027 2.0533,0.053 2.8666,-0.053 1.7734,-0.2266 3.4267,-0.1066 4.88,0 1.04,0.067 2.0134,0.1334 2.8,0.067 0.68,-0.067 1.5867,-0.4 2.5467,-0.7467 1.44,-0.52 3.0667,-1.1066 4.96,-1.2266 0.9733,-0.067 2.0133,-0.2134 3.0933,-0.3734 1.4534,-0.2266 2.96,-0.44 4.56,-0.48 1.8934,-0.067 3.6,0.3467 5.1067,0.6934 0.9733,0.24 1.8933,0.4533 2.5733,0.4533 2.7467,0.04 5.2134,0.093 7.6667,0.2267 1.7333,0.093 3.3467,0.4266 4.76,0.7333 1.0133,0.2 1.9733,0.4 2.8267,0.4933 0.7866,0.08 1.7733,-0.013 2.8133,-0.1066 1.48,-0.1334 3.16,-0.2934 4.9467,-0.027 1.7333,0.2533 3.3333,0.64 4.88,1.0133 0.9066,0.2134 1.7866,0.4267 2.68,0.6 1.7333,0.3467 3.3066,0.9334 4.6933,1.44 0.9467,0.36 1.8533,0.6934 2.68,0.8934 2.5467,0.6533 4.9733,1.3333 7.4,2.0933 0.8,0.24 1.7867,0.3867 2.8133,0.5333 1.4667,0.2134 3.1334,0.4534 4.8,1.08 1.7867,0.6667 3.24,1.64 4.52,2.5067 0.8134,0.5467 1.6,1.0667 2.2667,1.36 0.84,0.3733 1.7733,0.6933 2.7733,1.0267 1.4534,0.48 2.9467,0.9733 4.4667,1.76 l 0.88,0.4666 c 1.9733,1.0267 4,2.08 5.9333,3.24 0.76,0.4534 1.6667,0.84 2.64,1.2667 1.3734,0.5867 2.92,1.2533 4.3734,2.2533 1.5466,1.08 2.7466,2.36 3.8133,3.48 0.68,0.72 1.32,1.4 1.92,1.8667 0.6933,0.56 1.5467,1.0667 2.4667,1.6 1.28,0.76 2.7466,1.6133 4.04,2.7867 1.56,1.4266 2.5333,3.1333 3.32,4.5066 0.4533,0.8134 0.8933,1.5734 1.2666,1.96 0.7067,0.7334 1.44,1.4134 2.16,2.0667 1.1467,1.0533 2.3334,2.1333 3.3867,3.3867 0.6267,0.76 1.3867,1.4666 2.1867,2.2266 1.12,1.04 2.28,2.12 3.24,3.4667 1.4266,1.96 1.9866,4.0133 2.4533,5.6667 0.1733,0.6133 0.4133,1.4666 0.56,1.72 0.8933,1.48 1.3467,1.9466 1.7867,2.4 0.9466,0.9733 1.7466,1.9066 2.7733,4.3066 0.9467,2.2534 -0.1067,4.8667 -2.36,5.8267 -2.2667,0.96 -4.8667,-0.093 -5.8267,-2.36 -0.4533,-1.0667 -0.56,-1.1733 -0.96,-1.5867 -0.64,-0.6533 -1.6,-1.64 -3.0133,-3.9733 -0.7867,-1.2933 -1.1733,-2.7067 -1.52,-3.96 -0.32,-1.1067 -0.6133,-2.16 -1.0933,-2.84 -0.4667,-0.64 -1.2667,-1.4 -2.1067,-2.1867 -0.92,-0.8533 -1.96,-1.8266 -2.9333,-3 -0.68,-0.8133 -1.6,-1.64 -2.5734,-2.5333 -0.8533,-0.7867 -1.72,-1.5867 -2.56,-2.4667 -1.1466,-1.1866 -1.92,-2.5333 -2.5866,-3.72 -0.5467,-0.9466 -1.0667,-1.8533 -1.5734,-2.32 -0.6266,-0.56 -1.5733,-1.12 -2.5733,-1.7066 -1.08,-0.64 -2.32,-1.3734 -3.4933,-2.3067 -1.08,-0.8667 -1.9734,-1.8 -2.84,-2.72 -0.84,-0.88 -1.64,-1.7333 -2.4267,-2.28 -0.72,-0.4933 -1.7333,-0.9333 -2.8267,-1.4 -1.1333,-0.4933 -2.44,-1.0533 -3.7066,-1.8133 -1.68,-1.0134 -3.5067,-1.96 -5.4267,-2.96 l -0.9067,-0.4667 c -0.8933,-0.4667 -2,-0.84 -3.1733,-1.2267 -1.1467,-0.3866 -2.3333,-0.7733 -3.5733,-1.3333 -1.3734,-0.6 -2.56,-1.4 -3.6134,-2.1067 -0.96,-0.64 -1.8666,-1.2533 -2.68,-1.56 -0.7733,-0.28 -1.8266,-0.44 -2.9466,-0.6 -1.2667,-0.1866 -2.7067,-0.3866 -4.1867,-0.8533 -2.28,-0.7067 -4.5467,-1.3467 -6.9467,-1.9467 -1.28,-0.3333 -2.4533,-0.76 -3.5866,-1.1866 -1.1734,-0.4267 -2.2934,-0.84 -3.3334,-1.0534 -1,-0.2 -2,-0.44 -3.0266,-0.68 -1.4134,-0.3466 -2.76,-0.6666 -4.0934,-0.8533 -0.7333,-0.1067 -1.76,-0.013 -2.84,0.08 -1.3466,0.12 -2.8666,0.2533 -4.5066,0.093 -1.3334,-0.1333 -2.5734,-0.3866 -3.7734,-0.64 -1.2133,-0.2533 -2.36,-0.4933 -3.4266,-0.56 -2.28,-0.12 -4.56,-0.16 -7.2934,-0.2 -1.64,-0.027 -3.16,-0.3733 -4.48,-0.6933 -1.08,-0.24 -2.1333,-0.44 -2.8666,-0.4667 -1.04,0.027 -2.2134,0.2 -3.4534,0.3867 -1.24,0.1867 -2.5066,0.3733 -3.8666,0.4533 -0.6134,0.04 -1.52,0.3734 -2.48,0.72 -1.3734,0.4934 -2.92,1.0667 -4.72,1.24 -1.5334,0.1467 -3,0.04 -4.2934,-0.067 -1.1466,-0.08 -2.2266,-0.16 -3.1066,-0.04 -1.4934,0.1866 -2.96,0.1466 -4.24,0.12 -1.1734,-0.027 -2.28,-0.053 -3.1867,0.08 -1.16,0.1866 -2.3733,0.4933 -3.6533,0.8 -1.1867,0.2933 -2.3734,0.5733 -3.5867,0.8 -0.8667,0.1733 -1.8667,0.5866 -2.9333,1.0266 -1.1734,0.4934 -2.5067,1.0534 -3.9734,1.4 -1.6666,0.3867 -3.24,0.4 -4.6266,0.4134 -1.0534,0.013 -2.0534,0.027 -2.7067,0.2133 -0.8533,0.24 -1.8267,0.7467 -2.8533,1.2933 -1.1067,0.5867 -2.3734,1.2534 -3.7734,1.7334 -0.9333,0.3066 -1.9333,0.8666 -2.9733,1.44 -1.0933,0.6133 -2.2267,1.2266 -3.5067,1.7466 -1.6,0.6267 -3.1466,0.8667 -4.52,1.08 -1.04,0.1467 -2,0.3067 -2.5866,0.5734 -1.1467,0.5333 -2.28,0.96 -3.3734,1.36 -1.2266,0.4533 -2.3733,0.88 -3.3066,1.3866 -0.56,0.3067 -1.24,1.0267 -1.96,1.8 -0.96,1.0134 -2.0534,2.16 -3.4934,3.08 -1.3466,0.84 -2.7066,1.3867 -3.92,1.8667 -1.0266,0.4133 -2,0.8 -2.6,1.24 -0.72,0.5067 -1.44,1.3467 -2.2133,2.24 -0.8133,0.92 -1.72,1.9733 -2.8267,2.8933 -0.7333,0.6134 -1.4666,1.2 -2.2133,1.7734 -1.1867,0.9466 -2.3067,1.8266 -3.28,2.76 -1.0133,0.9866 -2.1067,1.8 -3.08,2.52 -0.96,0.7066 -1.8667,1.3866 -2.4667,2.0533 -1.0666,1.2 -2.0533,2.52 -3.0933,3.9067 -0.44,0.5866 -0.88,1.1733 -1.32,1.7466 l -0.64,0.8134 c -1.3067,1.6933 -2.56,3.3066 -3.64,4.9333 -0.4667,0.6933 -0.8267,1.7067 -1.2267,2.7867 -0.4266,1.1866 -0.9066,2.5333 -1.6533,3.8266 -0.7867,1.3734 -1.7333,2.4934 -2.5867,3.4934 -0.7066,0.8533 -1.3866,1.6533 -1.72,2.3333 l -0.72,1.4667 c -0.8666,1.7466 -1.68,3.4 -2.36,5.0533 -0.44,1.08 -0.7733,2.32 -1.12,3.6267 -0.3066,1.12 -0.6,2.2266 -0.9733,3.2933 -0.28,0.8267 -0.4,1.9067 -0.5333,3.0533 -0.1467,1.24 -0.3067,2.6534 -0.7067,4.08 -0.3867,1.3734 -0.92,2.64 -1.4,3.76 -0.4533,1.0934 -0.8933,2.1334 -1.0933,3.04 -0.2534,1.1467 -0.5867,2.28 -0.9067,3.4134 -0.3733,1.2666 -0.7333,2.48 -0.92,3.6 -0.1733,1.0266 -0.3867,2.0533 -0.6,3.0666 -0.2933,1.44 -0.5733,2.8 -0.7333,4.08 -0.08,0.68 0.093,1.6667 0.28,2.72 0.24,1.3733 0.52,2.9333 0.3866,4.6267 -0.1066,1.32 -0.093,2.64 -0.067,4.04 0.013,1.08 0.027,2.1466 -0.013,3.1866 -0.04,1.2267 -0.1466,2.4267 -0.2533,3.6 -0.1067,1.2934 -0.2133,2.52 -0.2133,3.6134 0.027,3.0666 0.08,5.2933 0.1866,7.2266 0.08,1.6267 0,3.12 -0.067,4.4267 -0.053,1.08 -0.12,2.1067 -0.04,2.8267 0.093,0.9466 0.3466,1.3066 0.88,2.0533 0.8933,1.28 3.0133,4.2533 0.48,8.4933 -1.7734,2.96 -3.5334,3.88 -5.32,4.6267 -0.76,0.32 -1.3067,0.5467 -2.2667,1.44 l -0.2533,0.24 c -1.6534,1.5333 -3.2267,2.9867 -4.3867,4.84 -1.0533,1.68 -1.6933,3.48 -2.0933,5.84 -0.093,0.48 -0.1867,0.9733 -0.28,1.4667 -0.36,1.8266 -0.64,3.2666 -0.2534,4.6533 0.24,0.84 0.4667,1.72 0.6934,2.6267 0.3466,1.3866 0.72,2.8266 1.1733,4.2533 0.2667,0.8533 0.7333,1.8133 1.2267,2.8533 0.5333,1.0934 1.1333,2.3334 1.6266,3.6934 0.5334,1.48 0.7334,2.96 0.9067,4.2533 0.1467,1.08 0.2933,2.0933 0.5733,2.8133 0.52,1.2667 1.12,2.56 1.7734,3.9334 0.4,0.8533 0.8,1.7066 1.1733,2.56 0.76,1.68 1.6,3.3733 2.5067,5.16 l 0.6266,1.24 c 0.3734,0.7466 1.0134,1.5866 1.7067,2.4666 0.76,0.9867 1.6267,2.1067 2.36,3.4 0.7067,1.2534 1.1867,2.56 1.6267,3.6934 0.4,1.0666 0.7733,2.08 1.24,2.8 0.32,0.5066 1.0533,1.1333 1.8266,1.7866 1.04,0.88 2.24,1.8934 3.2267,3.2667 0.3867,0.5467 0.76,1.08 1.1467,1.6133 0.9866,1.4134 1.92,2.7467 2.9466,3.9867 1.0534,1.2533 1.7334,2.6133 2.3334,3.8 0.4533,0.9333 0.8933,1.8 1.32,2.24 1.1866,1.2267 2.4933,2.4133 3.88,3.68 l 1.24,1.1333 c 0.5733,0.52 1.48,1.0534 2.4266,1.6 1.08,0.6267 2.2934,1.3334 3.44,2.2667 0.7734,0.6267 1.76,1.2 2.8,1.8133 0.9867,0.5867 2.0134,1.1867 3.0534,1.92 0.8933,0.64 1.7466,1.3467 2.6,2.0667 0.9866,0.8133 1.9066,1.5867 2.8666,2.1733 1.3067,0.8134 2.36,1.8134 3.2934,2.6934 0.7733,0.7333 1.5066,1.4266 2.1466,1.7733 1.7734,0.9333 3.8267,1.92 6.2934,3.0267 0.8133,0.36 1.88,0.6266 3.0266,0.8933 1.1334,0.2667 2.4,0.5733 3.6934,1.0533 0.8,0.2934 1.8533,0.4667 2.9733,0.64 1.16,0.1867 2.48,0.4 3.8267,0.8 1.48,0.44 2.76,1.1334 3.8933,1.7334 0.9333,0.5066 1.8267,0.9733 2.5333,1.1466 1.0134,0.2267 2.2,0.3467 3.4534,0.4667 1.16,0.1067 2.32,0.2133 3.48,0.4133 1.4133,0.24 2.7066,0.6667 3.8533,1.0534 1.08,0.36 2.0933,0.6933 2.96,0.8 1.4533,0.16 2.9867,0.2266 4.6133,0.3066 0.8,0.027 1.6134,0.067 2.4134,0.12 0.7733,0.04 1.7733,-0.12 2.84,-0.28 1.2533,-0.2 2.6933,-0.3866 4.2266,-0.4133 1.52,0.027 2.9467,0.3067 4.1867,0.56 1.0667,0.2133 2.0533,0.4267 2.8667,0.4 l 1.2533,-0.04 c 1.9867,-0.067 4.04,-0.1333 6.08,-0.32 1.1333,-0.12 2.3867,-0.3733 3.72,-0.64 1.1733,-0.24 2.36,-0.48 3.56,-0.6533 0.6533,-0.093 1.5733,-0.4934 2.5333,-0.9067 1.32,-0.5733 2.8134,-1.2267 4.56,-1.5333 1.76,-0.32 3.4,-0.1867 4.8534,-0.053 1.0666,0.08 2.0533,0.1734 2.72,0.027 1.0133,-0.2133 2.1333,-0.5867 3.2933,-0.9867 1.2267,-0.4133 2.4933,-0.84 3.8667,-1.16 1.3333,-0.32 2.6266,-0.52 3.88,-0.7066 1.2533,-0.1867 2.4266,-0.36 3.5066,-0.64 0.8,-0.2 1.7334,-0.6667 2.7334,-1.16 1.24,-0.6134 2.64,-1.3067 4.24,-1.76 1.6666,-0.4667 3.28,-0.5467 4.7066,-0.6134 1.08,-0.053 2.1067,-0.1066 2.8267,-0.32 1.0133,-0.3066 2.08,-0.76 3.2133,-1.2533 1.2,-0.5067 2.4534,-1.04 3.8,-1.4667 0.8,-0.2666 1.72,-0.7866 2.7067,-1.3333 1.1867,-0.68 2.5467,-1.44 4.12,-1.96 1.6667,-0.56 3.28,-0.72 4.72,-0.8667 1.0667,-0.1066 2.0667,-0.2133 2.76,-0.4533 1.1333,-0.4 2.2533,-0.8933 3.4533,-1.4133 1.16,-0.52 2.32,-1.0267 3.4934,-1.4667 1.1466,-0.4133 2.2666,-0.9333 3.4666,-1.48 1.1467,-0.52 2.2934,-1.04 3.44,-1.4933 1.5734,-0.6134 3.1334,-0.9067 4.5067,-1.16 1.0667,-0.2 2.0933,-0.4 2.8267,-0.6934 1.08,-0.4533 2.1466,-1.0266 3.2933,-1.64 1.0933,-0.5866 2.2133,-1.1866 3.4267,-1.72 1.3333,-0.5733 2.6133,-1.0133 3.8533,-1.4266 1.16,-0.3867 2.2533,-0.76 3.1733,-1.1867 0.9734,-0.4533 1.9467,-1.1333 2.9867,-1.8667 1.04,-0.72 2.1067,-1.48 3.3333,-2.0933 1.2267,-0.64 2.3734,-1.4533 3.48,-2.2533 0.88,-0.64 1.7334,-1.24 2.56,-1.7467 1.2134,-0.72 2.3467,-1.3067 3.3467,-1.8267 0.6933,-0.36 1.6133,-0.8266 1.96,-1.08 0.4933,-0.7333 0.6133,-1.9333 0.7733,-3.76 0.04,-0.5066 0.093,-1.0266 0.1467,-1.5333 0.1067,-1.08 0.32,-2.08 0.52,-3.0533 0.2933,-1.44 0.56,-2.8 0.3733,-3.76 -0.24,-1.2267 -0.9333,-2.56 -1.6533,-3.9734 -0.4667,-0.8933 -0.9333,-1.8133 -1.3333,-2.7733 -1.56,-3.7733 -2.3334,-5.0267 -2.5734,-5.3867 -3.3333,-2.7466 -1.8,-8.16 -0.3333,-12.0533 0.6133,-1.6133 1.5333,-3.0667 2.3467,-4.3333 0.52,-0.8267 1.0133,-1.6134 1.3333,-2.2934 0.6,-1.28 0.7333,-1.84 0.88,-2.5466 0.28,-1.2534 0.6,-2.4534 1.6667,-4.4534 1.16,-2.16 3.8533,-2.9866 6.0133,-1.8266 2.1733,1.16 2.9867,3.8533 1.8267,6.0133 -0.5867,1.0933 -0.6667,1.4667 -0.8267,2.2 -0.2133,0.9333 -0.4933,2.2267 -1.52,4.4133 -0.56,1.1734 -1.2267,2.2267 -1.8667,3.24 -0.64,1.0134 -1.24,1.96 -1.5333,2.7467 -0.6,1.5733 -0.8933,2.7067 -1.0133,3.3867 1,1.3066 2.16,3.4933 3.8133,7.4933 0.28,0.6933 0.6533,1.3867 1.0133,2.1067 0.9334,1.8 1.9867,3.84 2.48,6.32 0.5334,2.6933 0.027,5.2266 -0.3866,7.2666 -0.16,0.7467 -0.32,1.48 -0.3867,2.2134 -0.053,0.44 -0.093,0.8933 -0.1333,1.3333 -0.2134,2.5733 -0.48,5.7867 -2.7334,8.64 -1.1866,1.4933 -2.8533,2.36 -4.7733,3.3467 -0.8533,0.44 -1.8133,0.9333 -2.84,1.56 -0.64,0.3733 -1.28,0.84 -1.96,1.3333 -1.3067,0.9467 -2.7867,2.0133 -4.64,2.9467 -0.6533,0.3466 -1.4267,0.8933 -2.2533,1.4666 -1.24,0.8667 -2.6534,1.8667 -4.36,2.6534 -1.3467,0.6266 -2.7334,1.0933 -4.0667,1.5466 -1.12,0.3734 -2.1733,0.7334 -3.16,1.16 -0.8667,0.3734 -1.7733,0.8667 -2.7467,1.3867 -1.2933,0.6933 -2.6266,1.4133 -4.1466,2.04 -1.56,0.64 -3.1467,0.9333 -4.5334,1.2 -1.0933,0.2 -2.1333,0.4 -2.9466,0.72 -0.9867,0.3867 -1.9734,0.84 -2.96,1.28 -1.2934,0.6 -2.6267,1.2 -4.08,1.7333 -1,0.3734 -1.9867,0.8267 -3,1.2667 -1.28,0.56 -2.6267,1.16 -4.0667,1.6667 -1.6933,0.6 -3.36,0.76 -4.84,0.9066 -1.0533,0.1067 -2.0533,0.2134 -2.7733,0.4534 -0.76,0.2533 -1.6534,0.7466 -2.5867,1.28 -1.2667,0.7066 -2.6933,1.52 -4.3733,2.0533 -0.9467,0.3067 -1.9334,0.72 -2.9867,1.1733 -1.3067,0.56 -2.6667,1.1467 -4.1733,1.6 -1.7467,0.52 -3.44,0.6 -4.9334,0.68 -1.0533,0.053 -2.04,0.093 -2.76,0.2934 -0.7866,0.2266 -1.7066,0.68 -2.68,1.16 -1.2933,0.64 -2.76,1.3733 -4.4533,1.8133 -1.5333,0.3867 -3,0.6133 -4.4267,0.8267 -1.12,0.16 -2.1733,0.32 -3.1333,0.5466 -0.9733,0.24 -1.9867,0.5734 -3.0667,0.9467 -1.36,0.4533 -2.7733,0.9333 -4.3066,1.2667 -1.9467,0.4133 -3.7334,0.2533 -5.32,0.12 -0.9867,-0.093 -1.92,-0.16 -2.52,-0.053 -0.72,0.1334 -1.6267,0.52 -2.5867,0.9334 -1.4,0.6133 -2.9733,1.2933 -4.8133,1.56 -1.04,0.1466 -2.0534,0.36 -3.0534,0.56 -1.4933,0.3066 -3.04,0.6266 -4.64,0.7733 -2.32,0.2267 -4.52,0.2933 -6.6533,0.36 l -1.2267,0.04 c -0.1466,0.013 -0.2933,0.013 -0.44,0.013"
       style="fill:#362421;fill-opacity:1;fill-rule:nonzero;stroke:none;stroke-width:0.133333" />
    <path
       id="path346"
       d="m 1634.32,2402.2267 h -26.2667 l -7.3333,-2.5734 -10.7467,-4.2266 c 0,0 -5.5867,0.32 -5.8667,0 -0.2666,-0.3334 -7.6666,10.7466 -7.6666,10.7466 l -5.48,16.7467 v 18.88 l 4.12,7.4 6.1866,10.3067 7.4667,4.44 10.4667,3.9066 h 8.8533 l 9.2533,-3.9066 7.76,-12.4267 0.2534,-14.68 -2.8134,-4.48 -2.1466,-4.16 7.28,-6.3067 6.68,-19.6666"
       style="fill:#ea7c89;fill-opacity:1;fill-rule:nonzero;stroke:none;stroke-width:0.133333" />
    <path
       id="path347"
       d="m 1620.56,2406.28 c -0.16,0 -0.3334,0 -0.5067,0 -0.76,-0.027 -1.5333,-0.027 -2.3067,-0.027 -1.8933,0 -3.84,-0.013 -5.9333,-0.24 -0.8267,-0.093 -1.8133,-0.067 -2.84,-0.067 -1.64,0.027 -3.4933,0.04 -5.44,-0.32 -2.0533,-0.3867 -3.8,-1.2667 -5.2,-1.9734 -0.7467,-0.3733 -1.4533,-0.7333 -2.0133,-0.92 -1.9867,-0.6533 -3.5867,-1.6133 -5.0134,-2.4666 -0.6,-0.36 -1.2,-0.72 -1.8133,-1.0267 -0.6133,-0.3067 -1.4267,-0.56 -2.28,-0.8267 -1.5333,-0.48 -3.28,-1.0266 -4.9067,-2.1866 -2.36,-1.7067 -4.3866,-3.6134 -5.8933,-5.0934 -1.5867,-1.56 -2.48,-3.3466 -3.2,-4.7866 -0.3467,-0.6934 -0.68,-1.36 -0.9733,-1.7467 l -0.7867,-1.04 c -1.3333,-1.76 -2.6,-3.4133 -3.56,-5.2 -0.6667,-1.2133 -1.0933,-1.88 -1.4267,-2.3867 -0.88,-1.36 -1.32,-2.1733 -2.0533,-4.7066 -0.6933,-2.3467 0.6533,-4.8134 3.0133,-5.5067 2.36,-0.68 4.8267,0.6667 5.52,3.0133 0.44,1.5334 0.5067,1.6267 0.9867,2.3734 0.3733,0.5733 0.9333,1.44 1.7733,2.9733 0.64,1.1867 1.6534,2.52 2.8267,4.0533 l 0.8133,1.08 c 0.7867,1.04 1.3334,2.1467 1.8134,3.12 0.4933,0.9734 0.96,1.9067 1.4933,2.4267 1.3467,1.3333 2.9867,2.8667 4.84,4.2 0.4533,0.3333 1.4267,0.6267 2.36,0.92 1.1067,0.3467 2.3733,0.7467 3.6533,1.3867 0.8,0.4133 1.5734,0.8666 2.36,1.3333 1.12,0.6667 2.1867,1.3067 3.2534,1.6533 1.1866,0.4 2.2666,0.9467 3.2133,1.4267 1.04,0.52 2.0267,1.0133 2.84,1.1733 1.08,0.2 2.3467,0.1867 3.68,0.1734 1.2667,-0.027 2.56,-0.04 3.9333,0.12 1.6134,0.1733 3.2534,0.1733 4.9867,0.1733 0.84,0.013 1.68,0.013 2.5067,0.027 1.28,0.027 2.6133,-0.1467 4.04,-0.3467 1.1333,-0.1467 2.2533,-0.3067 3.3733,-0.3733 1.7867,-0.12 3.4,0.1733 4.8133,0.4133 1.1067,0.1867 2.1334,0.3733 2.7734,0.2667 1.3866,-0.2134 2.8266,-0.6534 4.36,-1.1067 0.9733,-0.2933 1.9333,-0.5867 2.8933,-0.8267 1.5333,-0.3866 3.0533,-0.96 4.6667,-1.5733 0.8,-0.3067 1.6,-0.6 2.4,-0.88 1.3333,-0.4667 2.6133,-0.76 3.84,-1.0533 1.2933,-0.2934 2.52,-0.5734 3.4666,-0.9867 1.2134,-0.5467 2.44,-1.2933 3.7334,-2.08 0.9466,-0.5867 1.8933,-1.16 2.8533,-1.68 2.1867,-1.1733 4.4,-2.4533 6.5867,-3.8133 2.08,-1.2934 4.8266,-0.6534 6.12,1.4266 1.2933,2.0934 0.6533,4.8267 -1.4267,6.12 -2.3333,1.4534 -4.72,2.84 -7.0667,4.0934 -0.8133,0.4533 -1.6266,0.9466 -2.44,1.44 -1.48,0.8933 -3,1.8266 -4.7466,2.6 -1.7334,0.7733 -3.52,1.1866 -5.08,1.5466 -1.0534,0.24 -2.04,0.4667 -2.8934,0.7734 -0.7333,0.2533 -1.4666,0.5333 -2.2,0.8133 -1.7733,0.6667 -3.6133,1.36 -5.6266,1.8667 -0.84,0.2133 -1.68,0.4666 -2.52,0.72 -1.7467,0.5333 -3.5467,1.0666 -5.5467,1.3866 -2.08,0.32 -3.9867,0 -5.6667,-0.2933 -1.0266,-0.1867 -2,-0.3467 -2.72,-0.3067 -0.92,0.053 -1.8266,0.1867 -2.7333,0.32 -1.4933,0.2 -3.1733,0.4267 -4.9733,0.4267"
       style="fill:#362421;fill-opacity:1;fill-rule:nonzero;stroke:none;stroke-width:0.133333" />
    <path
       id="path348"
       d="m 1679.9866,2388.0133 c 0,3.44 -2.76,5.28 -6.2,5.28 -3.44,0 -5.3466,-1.84 -5.3466,-5.28 0,-3.44 1.9066,-5.9333 5.3466,-5.9333 3.44,0 6.2,2.4933 6.2,5.9333"
       style="fill:#362421;fill-opacity:1;fill-rule:nonzero;stroke:none;stroke-width:0.133333" />
    <path
       id="path349"
       d="m 1573.3066,2371.52 c 0,3.44 -2.7466,5.9467 -6.1866,5.9467 -3.44,0 -6.5334,-2.5067 -6.5334,-5.9467 0,-3.4267 3.0934,-5.32 6.5334,-5.32 3.44,0 6.1866,1.8933 6.1866,5.32"
       style="fill:#362421;fill-opacity:1;fill-rule:nonzero;stroke:none;stroke-width:0.133333" />
    <path
       id="path350"
       d="m 1599.16,2474.4533 c -0.2134,0 -0.4267,-0.013 -0.64,-0.027 -3.2,-0.1734 -6.0667,-1.0267 -8.72,-1.88 -0.6,-0.2 -1.2134,-0.3734 -1.84,-0.5467 -2.1467,-0.6 -4.5734,-1.2933 -6.7067,-2.7733 -2.5333,-1.7467 -4.44,-4.0934 -6.1333,-6.16 l -0.28,-0.3467 c -1.52,-1.84 -2.24,-3.8933 -2.88,-5.7067 -0.2934,-0.8266 -0.56,-1.6133 -0.88,-2.2533 -0.2934,-0.6133 -0.7734,-1.32 -1.2667,-2.08 -1.0267,-1.5333 -2.1867,-3.28 -2.7867,-5.4933 -0.5733,-2.08 -0.68,-4.1467 -0.7733,-5.9734 -0.04,-0.8133 -0.067,-1.64 -0.16,-2.4533 -0.08,-0.7067 -0.1867,-1.4267 -0.2933,-2.1333 -0.28,-1.9734 -0.56,-4.0134 -0.4934,-6.2 0.093,-2.7334 0.5867,-5.4 1.0134,-7.76 l 0.1066,-0.5734 c 0.1334,-0.7733 0.2134,-1.56 0.2934,-2.3466 0.1733,-1.7467 0.3733,-3.72 1.1333,-5.6134 0.8533,-2.1466 2.1867,-3.8933 3.2533,-5.2933 0.4134,-0.52 0.8,-1.0267 1.1467,-1.5467 1.2667,-1.9066 2.8667,-3.28 4.16,-4.3733 0.4933,-0.4267 0.9867,-0.84 1.4267,-1.2667 0.5333,-0.5333 1.04,-1.2933 1.5866,-2.1066 0.92,-1.36 1.9734,-2.92 3.6134,-4.0267 2.7733,-1.9067 4.2666,-2.2267 5.9333,-2.4533 0.5733,-0.067 0.9867,-0.12 1.8133,-0.4267 2.2934,-0.8533 4.8534,0.32 5.7067,2.6267 0.8533,2.3066 -0.3333,4.8533 -2.6267,5.7066 -1.76,0.64 -2.9333,0.8 -3.7066,0.9067 -0.64,0.08 -0.8534,0.12 -2.12,0.9733 -0.2534,0.2134 -0.8534,1.0934 -1.2534,1.68 -0.72,1.0667 -1.5333,2.2667 -2.6666,3.4 -0.6,0.6 -1.2667,1.1734 -1.9467,1.7467 -1,0.8533 -1.9333,1.6533 -2.52,2.5333 -0.44,0.68 -0.96,1.3467 -1.48,2.04 -0.8533,1.1067 -1.6667,2.16 -2.0667,3.16 -0.2933,0.7467 -0.4133,1.96 -0.5466,3.24 -0.093,1 -0.2134,2.0267 -0.3867,3.04 l -0.1067,0.5734 c -0.4,2.1466 -0.8,4.3733 -0.8666,6.4533 -0.053,1.4133 0.1733,2.9867 0.4133,4.6533 0.1067,0.8 0.2267,1.6134 0.3067,2.4134 0.12,0.9866 0.1733,1.9866 0.2133,2.9866 0.08,1.5067 0.1467,2.92 0.4667,4.0534 0.2266,0.8533 0.8933,1.8666 1.6133,2.9333 0.6133,0.92 1.2933,1.9467 1.8667,3.1067 0.5333,1.0933 0.92,2.2133 1.2666,3.1866 0.44,1.24 0.84,2.4 1.36,3.04 L 1582,2457.44 c 1.3866,1.6933 2.8133,3.4533 4.3066,4.4933 0.92,0.6267 2.4534,1.0534 4.0667,1.5067 0.72,0.2133 1.4533,0.4133 2.16,0.64 2.1867,0.7067 4.3333,1.36 6.4667,1.4667 0.8,0.053 1.8666,-0.28 3.0533,-0.6667 0.9467,-0.3067 2.0133,-0.6533 3.16,-0.84 1.4267,-0.2267 2.7467,-0.2133 3.9067,-0.2 0.7466,0.013 1.88,0.027 2.2133,-0.1067 0.28,-0.1466 0.9333,-1.24 1.3067,-1.8933 0.5333,-0.8933 1.1333,-1.9067 1.9466,-2.8533 0.56,-0.6534 1.1734,-1.2534 1.7867,-1.8534 0.92,-0.92 1.72,-1.7066 2,-2.4 0.8,-2.0533 1.32,-4.0666 1.5467,-5.9866 0.28,-2.3734 0.3333,-4.5467 0.1866,-6.4667 -0.1066,-1.32 -0.5333,-2.7867 -0.9733,-4.3333 -0.2,-0.68 -0.3867,-1.36 -0.56,-2.0267 l -0.32,-1.1867 c -0.56,-2.08 -1.2,-4.4266 -1.1867,-6.92 0,-2.5466 0.52,-4.9733 0.96,-7.12 l 0.1734,-0.7866 c 0.6533,-3.16 1.28,-5.4667 2.0266,-7.48 0.7734,-2.0934 2.04,-3.64 3.0534,-4.8934 0.4666,-0.56 0.9333,-1.1333 1.12,-1.4933 0.68,-1.3067 0.88,-1.9333 1.0666,-2.5333 0.4267,-1.28 0.8267,-2.3467 2.28,-4.3334 1.4534,-1.9866 4.2267,-2.4133 6.2134,-0.9733 1.9866,1.4533 2.4133,4.2267 0.9733,6.2133 -0.7333,1 -0.8,1.1867 -1,1.8267 -0.2667,0.8133 -0.6267,1.9333 -1.64,3.8933 -0.6133,1.16 -1.4133,2.1467 -2.12,3.0267 -0.6933,0.8533 -1.3467,1.6533 -1.6133,2.36 -0.76,2.04 -1.3067,4.5067 -1.6534,6.1867 l -0.1733,0.8133 c -0.3867,1.8133 -0.7733,3.6933 -0.7867,5.3333 0,1.2934 0.4267,2.88 0.88,4.56 l 0.3467,1.28 c 0.1467,0.6 0.32,1.1867 0.4933,1.7867 0.52,1.8133 1.12,3.88 1.2934,6.0933 0.2,2.4934 0.1333,5.2667 -0.2134,8.2 -0.3066,2.68 -1.0133,5.44 -2.0933,8.1867 -0.9733,2.48 -2.68,4.16 -4.0533,5.5067 -0.44,0.44 -0.88,0.8666 -1.2934,1.3466 -0.2933,0.32 -0.64,0.92 -1,1.5334 -0.9866,1.68 -2.3333,3.96 -4.9333,5.3066 -2.1867,1.12 -4.4933,1.1067 -6.36,1.08 -0.88,-0.013 -1.7067,-0.027 -2.36,0.08 -0.4933,0.08 -1.16,0.2934 -1.8667,0.52 -1.5333,0.5067 -3.4133,1.12 -5.6266,1.12"
       style="fill:#362421;fill-opacity:1;fill-rule:nonzero;stroke:none;stroke-width:0.133333" />
    <path
       id="path351"
       d="m 1591.5466,2445.3733 c -2.32,0 -4.2666,-1.8 -4.4266,-4.1333 -0.053,-0.7067 -0.3334,-1.6 -0.64,-2.56 -0.48,-1.5333 -1.04,-3.28 -0.9734,-5.2533 0.067,-2.1467 0.6667,-4.0534 1.16,-5.5867 0.2667,-0.84 0.52,-1.6267 0.6134,-2.2133 0.3733,-2.52 0.9333,-5.0534 1.7333,-7.76 0.68,-2.3334 1.6533,-4.2267 2.5067,-5.9067 0.24,-0.4933 0.4933,-0.9733 0.72,-1.44 l 0.3733,-0.8 c 1.1067,-2.32 2.1333,-4.5067 3.48,-6.3333 2.2133,-3.0134 2.8267,-3.6534 4.7333,-4.88 0.3734,-0.2534 0.8534,-0.5467 1.5067,-1.0267 2,-1.4267 4.7733,-0.96 6.2,1.04 1.4267,1.9867 0.9733,4.7733 -1.0267,6.2 -0.8133,0.5733 -1.3866,0.9467 -1.8533,1.24 -0.8133,0.5333 -0.8133,0.5333 -2.3867,2.6667 -0.84,1.16 -1.6666,2.8933 -2.6133,4.8933 l -0.3867,0.8267 c -0.2666,0.5466 -0.5466,1.0933 -0.8266,1.6533 -0.7467,1.4533 -1.4534,2.8267 -1.8934,4.36 -0.6933,2.3467 -1.16,4.44 -1.48,6.5733 -0.1866,1.2934 -0.5733,2.4667 -0.9333,3.6 -0.36,1.16 -0.72,2.2534 -0.7467,3.16 -0.013,0.48 0.2934,1.4534 0.5734,2.32 0.4133,1.3334 0.8933,2.8534 1.0133,4.6 0.1867,2.44 -1.6667,4.5734 -4.12,4.7467 -0.093,0 -0.2,0.013 -0.3067,0.013"
       style="fill:#362421;fill-opacity:1;fill-rule:nonzero;stroke:none;stroke-width:0.133333" />
    <path
       id="path352"
       d="m 1587.8666,2394.2933 c 1.0667,1.1334 1.8534,0.7334 1.8534,2.28 0,2.2134 -0.6134,1.9734 -2.1867,3.5467 -2.5467,2.56 -2.9467,1.9067 -5.9333,3.96 -2.9867,2.04 -2.0934,3.7867 -5.6134,4.6267 -3.44,0.8133 -2.4133,-1.9734 -4.6,-5.4 -1.1466,-1.7867 -1.16,-4.4667 -2.12,-6.7867 -0.88,-2.12 -2.7466,-4.04 -3.0533,-6.4 -0.3733,-2.8533 0.2267,-5.4267 -0.24,-7.3467 -1.16,-4.7733 -3.1333,-2.96 -3.7867,-6.5333 -0.4133,-2.2533 -0.92,-3.0133 1.0534,-4.1733 2.7066,-1.6 3.0666,-1.0934 5.6133,0.76 3.2,2.3333 2.0933,3.16 4.5067,6.28 2.1333,2.7733 2.1866,2.7466 4.6133,5.2666 2.44,2.52 2.84,2.1334 5.2667,4.6667 2.4133,2.52 2.24,2.6933 4.6266,5.2533"
       style="fill:#362421;fill-opacity:1;fill-rule:nonzero;stroke:none;stroke-width:0.133333" />
    <path
       id="path353"
       d="m 1672.7866,2389.8133 c 2.3467,0.7467 1.2534,2.48 -0.4666,4.24 -3.52,3.6134 -3.7467,-0.1733 -8.12,5.3734 -0.9467,1.2 -2.3067,3.5333 -4.56,5.9466 -1.5067,1.6134 -3.24,3.5067 -5.2,5.3734 -1.72,1.6266 -3.92,2.9866 -5.88,4.6266 -1.88,1.5734 -3.5734,3.56 -5.6,5 -2.0534,1.4534 -4.3734,2.6 -6.5067,3.7734 -2.24,1.24 -4.7733,1.7866 -7.04,2.5466 -2.4533,0.84 -4.4533,1.2 -6.8267,1.2667 -1.8533,-3.1733 -0.76,-3.1733 0.093,-7.16 0.48,-2.2933 1.8,-4.6933 2.4666,-7 0.8534,-3.0133 2.3334,-5.2533 3.3067,-6.3867 1.1733,-1.3333 1.8933,-3.7466 3.48,-4.8133 2.5467,-1.72 2.7733,-1.1867 5.5067,-2.04 3.3333,-1.04 3.2933,-1.1867 6.68,-2.0267 3.3733,-0.84 3.8533,0.6267 7.1333,-0.5466 3.16,-1.1334 2.36,-3.2134 5.4933,-4.4267 3.9067,-1.52 4.7734,0.5867 8.5467,-1.24 3.7467,-1.8133 3.5067,-3.7867 7.4933,-2.5067"
       style="fill:#362421;fill-opacity:1;fill-rule:nonzero;stroke:none;stroke-width:0.133333" />
  </g>
</svg>
