<?xml version="1.0" encoding="UTF-8" standalone="no"?>
<!-- Created with Inkscape (http://www.inkscape.org/) -->

<svg
   version="1.1"
   id="svg1"
   width="542.78259"
   height="514.68188"
   viewBox="0 0 542.78258 514.68189"
   xmlns="http://www.w3.org/2000/svg"
   xmlns:svg="http://www.w3.org/2000/svg">
  <defs
     id="defs1" />
  <g
     id="g1"
     transform="translate(-1414.0509,-1360.8388)">
    <path
       id="path2"
       d="M 2666.6666,2962.96 H 0 V 7.4074e-5 H 2666.6666 V 2962.96"
       style="display:none;fill:#fef5e6;fill-opacity:1;fill-rule:nonzero;stroke:none;stroke-width:0.133333" />
    <path
       id="path202"
       d="m 1545.68,1403.0267 -6.96,-14.4667 -17.12,-23.7333 c 0,0 -32.48,2.44 -27.1334,42.12 l 9.64,19.7333 c 0,0 -29.2133,21.56 -41.0266,89.6667 l -41.0667,31.0133 -4.6133,7.9867 c 0,0 -0.9467,41.68 11.3733,59.2267 12.3067,17.56 36.6133,31.5733 49.04,34.6133 12.4267,3.0267 56.5067,10.28 56.5067,10.28 0,0 24.7866,6.1467 31.4666,23.6667 6.6934,17.5333 19.1067,48.1466 19.1067,48.1466 l 3.5467,10.2934 2.08,49.2666 -16.4667,68.5467 0.52,9.44 10.7867,1.28 92.24,-1.32 6.7866,-4.12 -3.24,-55.2667 c 0,0 53.7734,7.7734 76.36,2.7867 l -6.28,52.0533 0.88,4.5467 h 64.1067 40.4267 l 2.6,-9.4 2.32,-55.1467 c 0,0 22.84,-46.08 14.7733,-76.64 -8.0667,-30.5466 -24.3467,-52.3066 -85,-67.7066 l -25.2133,-8.3734 -38.0534,-15.1866 -7.8666,-16.8534 -1.3734,-45.56 0.56,-42.08 -14.1866,-45.7066 c 0,0 32.6133,-1.8934 33.1733,-49.8134 0,0 1.5733,-29.2 -19.0267,-21.3066 l -38.2,22.2266 -28.2666,-7.4533 -20.4934,-9.96 -86.7066,-16.8"
       style="fill:#9f695e;fill-opacity:1;fill-rule:nonzero;stroke:none;stroke-width:0.133333" />
    <path
       id="path203"
       d="m 1712.3066,1455.3867 c 0,0 26.3467,-10.8267 23,3.08 -3.3466,13.92 -20.24,27.3067 -32.4533,26.5867 -12.2133,-0.7334 -24.0667,-5.2134 -20.28,-14.2267 3.7867,-9 29.7333,-15.44 29.7333,-15.44"
       style="fill:#db808c;fill-opacity:1;fill-rule:nonzero;stroke:none;stroke-width:0.133333" />
    <path
       id="path204"
       d="m 1851.64,1687.5334 c -1.6134,-3.68 0.5733,-3.2667 4.12,-6.6534 1.6533,-1.5866 4.6266,-2.1866 7.2533,-3.76 2.08,-1.2666 4.4,-2.3466 7.1733,-3.32 2.3334,-0.8266 4.68,-2.2533 7.5467,-2.72 2.4667,-0.4 5.1733,0.2934 8.0533,0.2534 2.7734,-0.027 5.0534,-0.3867 7.0267,0.093 2.7867,0.6667 5.24,1.2 6.72,2.5867 1.8667,1.7466 2.9467,4.2266 3.36,6.5066 0.44,2.3867 -0.6933,4.8667 -1.0933,7.08 -0.7067,3.8267 -3.7467,4 -1.9734,7.0934 1.76,3.08 3.12,-0.013 7.44,0 2.04,0 4.3067,0.2 6.9334,0.5866 2.1733,0.3334 4.4266,0.64 6.84,1.4 2.1466,0.6667 4.5466,0.8934 6.7866,2 2.0267,1 3.9867,2.3067 6,3.7467 1.8534,1.3067 3.44,3.0267 5.2134,4.76 2.1466,2.08 3.8,4.0667 5.24,5.96 1.88,2.4933 3.44,4.5467 4.2266,6.6533 1.16,3.0934 1.84,5.8267 1.04,7.92 -0.9333,2.44 -3.48,3.84 -6.3866,4.6267 -2.2267,0.6 -4.7867,0.8933 -7.8,0.3467 -2.3467,2.92 2.6933,0.92 5.8533,4.56 1.3467,1.5733 1.6533,4.4533 3.2267,6.88 1.2266,1.88 3.3333,3.4933 4.5733,5.9466 1.0267,2.0534 1.04,4.7334 2.0267,7.2267 0.8533,2.1867 2.7066,4.1467 3.48,6.68 0.8666,2.8533 1.84,5.4267 2.1066,7.7333 0.36,3.1334 0.24,6 -0.28,8.12 -0.8,3.2134 -3.0666,5.2667 -5.1333,6.1867 -2.24,0.9867 -4.88,0.2533 -7.4667,-1.4267 -1.8933,-1.2266 -3.9333,-3.7066 -5.4666,-6.36 -3.48,0.3067 -0.027,3.6134 -1.04,7.64 -0.5067,1.9734 -0.8,4.4267 -1.72,6.8134 -0.7867,2.0666 -1.9734,4.2 -3.16,6.2933 -1.12,1.9867 -3.0534,3.5067 -4.6,5.2933 -1.48,1.7467 -3.4,2.9067 -5.3334,4.2667 -2.8666,2.0267 -4.8666,3.3067 -6.8666,3.5467 -2.8667,0.36 -5.28,-0.3734 -6.6934,-3.32 -0.9333,-1.9467 -1.32,-4.7467 -1.7733,-7.96 -0.3333,-2.3734 -0.68,-5.0667 -0.8133,-8.0534 -0.1067,-2.4933 0.7333,-5.2133 0.7333,-8.1066 0,-2.3867 -0.4667,-4.9867 -0.6933,-7.7334 -0.1867,-2.44 -1.0267,-4.96 -1.4134,-7.6133 -0.36,-2.4667 -0.48,-5.0667 -1.0133,-7.6533 -0.52,-2.48 -0.9067,-5.0534 -1.6,-7.5734 -0.6667,-2.4666 -2.0933,-4.72 -2.9467,-7.1733 -0.84,-2.4267 -0.9066,-5.16 -1.92,-7.5467 -1.0133,-2.3733 -1.92,-4.8533 -3.12,-7.12 -1.2,-2.2933 -3.48,-3.9733 -4.88,-6.12 -1.4266,-2.16 -2.1066,-4.88 -3.7333,-6.8666 -1.6533,-1.9867 -3.7467,-3.64 -5.6133,-5.4 -1.8934,-1.76 -4.5334,-2.5067 -6.6534,-3.9734 -2.1066,-1.4533 -3.4,-3.9466 -5.76,-5.0533 -2.92,-2.6667 -2.8933,-2.6267 -5.56,-5.56 -2.6533,-2.9333 -2.6133,-2.9867 -5.48,-5.72 -2.8533,-2.7333 -3.3866,-2.3867 -4.9866,-6.0133"
       style="fill:#2d1613;fill-opacity:1;fill-rule:nonzero;stroke:none;stroke-width:0.133333" />
    <path
       id="path205"
       d="m 1856.64,1868.7867 h -104.5334 v -21.6133 H 1856.64 v 21.6133"
       style="fill:#2d1613;fill-opacity:1;fill-rule:nonzero;stroke:none;stroke-width:0.133333" />
    <path
       id="path206"
       d="m 1681.1466,1868.8267 h -106.5733 l 3.8933,-18.88 h 102.68 v 18.88"
       style="fill:#2d1613;fill-opacity:1;fill-rule:nonzero;stroke:none;stroke-width:0.133333" />
    <path
       id="path207"
       d="m 1419.24,1562.0934 c 0,0 1.2266,-13.44 19.2666,-16.0134 18.0267,-2.5866 26.7867,7.72 32.9734,13.9067 6.1866,6.1867 27.3066,-8.76 59.7733,-0.52 32.4667,8.2533 54.64,78.0267 -32.7067,94.16 0,0 -39.5733,-5.04 -64.24,-31.8267 -24.6533,-26.7733 -15.0666,-59.7066 -15.0666,-59.7066"
       style="fill:#c4724e;fill-opacity:1;fill-rule:nonzero;stroke:none;stroke-width:0.133333" />
    <path
       id="path208"
       d="m 1680.8133,1864.9467 c 0,0 0,0 0,0.013 z m -23.4533,10.36 c -2.4667,0 -3.8667,-0.4 -4.8934,-0.6933 -0.7733,-0.2267 -1.2266,-0.36 -2.4266,-0.36 -2.1467,0 -3.28,-0.16 -4.28,-0.2934 -0.8534,-0.12 -1.52,-0.2133 -3.0534,-0.2133 -1.16,0 -1.5866,0.1333 -2.36,0.3733 -1.04,0.32 -2.4666,0.76 -4.96,0.76 -2.5866,0 -4.0533,-0.52 -5.12,-0.8933 -0.7466,-0.2533 -1.12,-0.3867 -2.2,-0.3867 -1.0266,0 -1.36,0.12 -2.0933,0.4 -1.0933,0.4134 -2.6,0.9734 -5.24,0.9734 -2.1067,0 -3.2267,-0.1334 -4.2133,-0.2667 -0.8267,-0.1067 -1.5467,-0.2 -3.1067,-0.2 -2.6533,0 -5.2133,-1.1067 -7.0267,-3.04 -1.8,-1.92 -2.7066,-4.4133 -2.5333,-7.0133 0.067,-1.2934 -0.027,-1.84 -0.1733,-2.6534 -0.2,-1.0666 -0.4267,-2.3733 -0.3067,-4.7333 0.1067,-2.08 0.28,-3.1733 0.44,-4.1333 0.1333,-0.8667 0.2533,-1.6134 0.3333,-3.2267 0.1067,-2.0133 0.2534,-3.08 0.3734,-4.0133 0.12,-0.8934 0.2133,-1.6667 0.3066,-3.3467 0.093,-1.9733 0.2134,-2.96 0.32,-3.9467 0.093,-0.8533 0.2,-1.7066 0.28,-3.4133 0.093,-1.6267 0.053,-2.3867 0.013,-3.2667 -0.04,-0.9733 -0.093,-2.0666 0.027,-4.1333 0.093,-1.7867 0.12,-2.68 0.1467,-3.5867 0.027,-0.9466 0.053,-1.8933 0.16,-3.7866 0.093,-1.64 0.053,-2.4 0.027,-3.2934 -0.04,-0.96 -0.08,-2.0533 0.027,-4.0933 0.1467,-2.7467 0.8934,-4.2533 1.4267,-5.36 0.3467,-0.72 0.48,-0.9867 0.5333,-1.9333 0.053,-0.8934 -0.053,-1.1467 -0.3333,-1.8934 -0.4267,-1.1066 -1.0667,-2.7733 -0.92,-5.56 0.1467,-2.84 1.0267,-4.4533 1.6,-5.52 0.3733,-0.6933 0.4933,-0.9066 0.5333,-1.76 0.067,-1.16 0.1334,-1.9866 0.1867,-2.6666 0.093,-1.0667 0.1467,-1.6534 0.08,-2.8667 -0.28,-0.2933 -0.6,-0.6267 -0.92,-0.96 -1.16,-1.2 -2.6,-2.7067 -3.7333,-4.6133 -0.88,-1.4534 -1.3467,-3.0267 -1.7734,-4.4134 -0.3333,-1.1066 -0.6533,-2.1466 -1.1066,-2.96 -0.28,-0.5066 -0.9334,-1.1866 -1.64,-1.8933 -1.12,-1.1467 -2.3867,-2.4533 -3.3467,-4.24 -0.76,-1.4133 -1.2533,-2.8267 -1.7333,-4.2133 -0.3734,-1.1067 -0.7467,-2.1467 -1.2,-3.0267 -0.7467,-1.44 -1.2267,-2.8667 -1.68,-4.2533 -0.3734,-1.1067 -0.7067,-2.1467 -1.1467,-3.0134 -0.3467,-0.68 -0.9867,-1.4666 -1.6667,-2.3066 -0.9333,-1.16 -2.0133,-2.4934 -2.8133,-4.1334 -0.7467,-1.5466 -1.48,-3.12 -2.2133,-4.6933 l -1.0934,-2.3333 c -0.48,-1.0134 -1.0266,-1.9867 -1.5733,-2.9734 -0.7067,-1.24 -1.4267,-2.52 -2.0533,-3.92 -0.6534,-1.4666 -1.12,-2.8933 -1.5734,-4.28 -0.3466,-1.0933 -0.68,-2.1333 -1.08,-3.0533 -0.6533,-1.5333 -1.0933,-3.08 -1.4666,-4.4533 -0.3067,-1.08 -0.5867,-2.0934 -0.9334,-2.96 -0.3333,-0.8 -0.9066,-1.68 -1.5066,-2.6134 -0.8134,-1.24 -1.72,-2.64 -2.3467,-4.28 -0.6133,-1.6533 -1,-3.28 -1.3333,-4.7333 -0.2534,-1.04 -0.48,-2.0133 -0.76,-2.8667 -0.48,-1.4266 -0.8134,-2.7866 -1.1334,-4.0933 -0.3066,-1.2133 -0.5866,-2.3733 -0.9466,-3.3467 -0.4267,-1.2133 -1.0534,-2.3866 -1.72,-3.64 -0.5467,-1.0133 -1.1067,-2.0533 -1.5867,-3.1733 -0.28,-0.6533 -0.5467,-1.2933 -0.8133,-1.92 -0.72,-1.7333 -1.4,-3.3733 -2.1734,-4.7333 -0.32,-0.56 -0.64,-1.12 -0.9466,-1.68 -0.9067,-1.6267 -1.76,-3.1734 -2.72,-4.28 -0.4667,-0.5467 -1.5067,-1.0667 -2.6,-1.6267 -1.0134,-0.52 -2.16,-1.1067 -3.28,-1.8933 -0.96,-0.6934 -1.7734,-1.44 -2.56,-2.1734 -1.04,-0.9333 -1.92,-1.76 -2.8667,-2.1866 -0.9867,-0.44 -2.2533,-0.7467 -3.7067,-1.0934 -1.08,-0.2666 -2.1866,-0.5333 -3.2933,-0.8666 -1.36,-0.4134 -2.9333,-0.7334 -4.6,-1.0667 -0.8667,-0.1733 -1.7467,-0.36 -2.6533,-0.56 -1.4267,-0.3067 -3,-0.5467 -4.6534,-0.8 -0.9066,-0.1467 -1.8533,-0.28 -2.8133,-0.4533 -1.68,-0.28 -3.1867,-0.8134 -4.5067,-1.2934 -1.0666,-0.3733 -2.08,-0.7466 -2.8933,-0.8666 -1.5867,-0.2267 -3.0533,-0.64 -4.36,-0.9867 -1.1467,-0.32 -2.2267,-0.6133 -3.1867,-0.7467 -1.0933,-0.1466 -2.2533,-0.2 -3.4666,-0.24 -1.3867,-0.053 -2.8267,-0.1066 -4.3067,-0.32 -0.8,-0.12 -1.84,-0.053 -2.92,0.027 -1.52,0.1067 -3.24,0.2267 -5.0533,-0.08 -2.3334,-0.4 -4.8267,-0.9067 -7.84,-1.5867 -2.3334,-0.5333 -4.6134,-1.2133 -6.8134,-1.8933 l -1,-0.2933 c -2.0533,-0.6267 -4.0133,-1.4267 -5.92,-2.1867 l -1.7333,-0.7067 c -2.24,-0.88 -4.4133,-1.9866 -6.5333,-3.04 l -0.8534,-0.44 c -1.72,-0.8533 -3.08,-2.0533 -4.2666,-3.1066 -0.7867,-0.7067 -1.5467,-1.3734 -2.2534,-1.8134 -0.6266,-0.3733 -1.4933,-0.7066 -2.4266,-1.0666 -1.52,-0.5867 -3.24,-1.2534 -4.9067,-2.4267 -0.5467,-0.4 -1.12,-0.7867 -1.68,-1.1733 -1.5733,-1.0934 -3.2133,-2.2134 -4.8533,-3.5334 -0.7067,-0.56 -1.4667,-1.12 -2.2267,-1.68 -1.3467,-0.9866 -2.72,-2 -4.1067,-3.2133 -2.1466,-1.9067 -4.2266,-3.8 -6.0133,-5.8933 -1.48,-1.7334 -2.2,-3.7467 -2.7733,-5.36 -0.32,-0.8934 -0.6134,-1.72 -0.9334,-2.24 -0.4266,-0.6667 -1.0133,-1.3734 -1.64,-2.12 -1.08,-1.2934 -2.3066,-2.7734 -3.1733,-4.64 l -0.4267,-0.9334 c -0.9866,-2.1333 -2.0133,-4.3466 -2.7733,-6.6933 -0.64,-1.9867 -0.6933,-3.8933 -0.7467,-5.5733 -0.027,-0.9867 -0.053,-1.9067 -0.2,-2.6134 -0.16,-0.8 -0.4933,-1.7066 -0.8533,-2.68 -0.56,-1.5066 -1.1867,-3.2133 -1.4,-5.1466 -0.2133,-1.9867 0.027,-3.8134 0.24,-5.4134 0.1333,-0.9866 0.2533,-1.92 0.2267,-2.68 -0.067,-2.4533 0.053,-4.72 0.16,-6.92 l 0.053,-1.0266 c 0.04,-1.0267 0.04,-2.0267 0.04,-3 0.013,-1.6134 0.013,-3.28 0.2,-4.9467 l 0.2133,-1.92 c 0.24,-2.1333 0.4667,-4.1467 0.8,-5.96 0.2134,-1.16 0.093,-1.76 -0.08,-2.5867 -0.44,-2.16 -0.6666,-4.72 2.1734,-7.7333 2.4,-2.56 4.76,-2.8933 6.16,-3.0933 0.7866,-0.12 0.9733,-0.1467 1.44,-0.48 0.6266,-0.4667 0.7066,-0.64 1.08,-1.3467 0.56,-1.08 1.4133,-2.72 3.72,-4.4267 2.1733,-1.6 3.7733,-1.9866 4.9466,-2.28 0.76,-0.1733 1.0534,-0.2533 1.8,-0.8 0.7867,-0.5733 0.96,-0.8533 1.3734,-1.52 0.6266,-0.9866 1.4933,-2.3466 3.6266,-3.92 2.2267,-1.64 3.96,-2.0133 5.1067,-2.2666 0.76,-0.16 1.0133,-0.2134 1.7067,-0.7334 1.4266,-1.04 2.12,-1.5866 2.8133,-2.12 0.7333,-0.5733 1.48,-1.1466 2.9867,-2.2533 1.0533,-0.7733 1.8266,-1.2667 2.4666,-1.68 0.6934,-0.44 1.08,-0.6933 1.6134,-1.2133 0.027,-0.6 0.053,-1.2267 0.067,-1.88 0.04,-1.5467 0.08,-3.16 0.3067,-4.7467 0.24,-1.7467 0.7467,-3.3333 1.1867,-4.7333 0.3333,-1.0267 0.6266,-1.9867 0.7866,-2.84 0.12,-0.68 0.04,-1.6534 -0.04,-2.6934 -0.1333,-1.5733 -0.28,-3.36 0.1467,-5.2666 0.3867,-1.76 1.04,-3.32 1.6267,-4.7067 0.4133,-0.9867 0.7866,-1.9067 1.0133,-2.72 0.4667,-1.7467 1.04,-3.36 1.5867,-4.92 0.3066,-0.8533 0.6,-1.6933 0.8666,-2.5333 0.3067,-0.96 0.5734,-1.92 0.8267,-2.88 0.4133,-1.52 0.84,-3.0934 1.44,-4.6534 0.6267,-1.6666 1.4,-3.1466 2.1333,-4.5733 0.44,-0.84 0.88,-1.68 1.2667,-2.5467 1.1733,-2.64 2.4,-5.0666 3.44,-7.0666 1.2667,-2.4667 2.6267,-4.7467 3.8933,-6.8667 0.44,-0.7333 0.8267,-1.6667 1.2267,-2.6533 0.5733,-1.4267 1.2267,-3.0267 2.28,-4.5334 1.52,-2.1866 3.0533,-4.4133 4.6933,-6.4533 1.1867,-1.4667 2.5334,-2.64 3.7067,-3.6667 0.76,-0.6666 1.48,-1.2933 2.04,-1.9066 0.5467,-0.5734 1.08,-1.1734 1.6,-1.76 1.2133,-1.36 2.4667,-2.76 3.8667,-4.04 0.5066,-0.4667 1,-0.9467 1.4933,-1.4134 1.4133,-1.3333 2.8667,-2.7066 4.4267,-3.96 1.5066,-1.1866 3.0933,-2.0266 4.48,-2.7733 0.88,-0.4667 1.7066,-0.9067 2.3866,-1.36 2,-1.36 3.9867,-2.48 5.8934,-3.56 l 0.92,-0.52 c 2.52,-1.44 4.8266,-2.6533 7.0266,-3.6933 0.8267,-0.3867 1.68,-0.9467 2.5867,-1.5467 1.28,-0.84 2.72,-1.7867 4.3867,-2.4267 1.88,-0.72 3.6933,-1.08 5.2933,-1.4 0.9067,-0.1733 1.7733,-0.3466 2.48,-0.5466 3.16,-0.9334 5.9467,-1.5334 7.76,-1.9067 1.6933,-0.3467 2.2933,-0.6267 2.92,-0.9333 1.32,-0.6134 2.5333,-1.1067 5.2,-1.24 2.48,-0.12 4.5467,1.7466 4.68,4.1866 0.1333,2.4534 -1.7467,4.5467 -4.2,4.68 -1.1467,0.067 -1.28,0.1334 -1.88,0.4134 -1.16,0.5466 -2.4133,1.08 -4.9333,1.6 -1.6667,0.3333 -4.2,0.88 -7.04,1.72 -1.0934,0.32 -2.2,0.5466 -3.2667,0.7466 -1.3733,0.28 -2.6667,0.5334 -3.8533,0.9867 -0.7467,0.28 -1.6667,0.8933 -2.6534,1.5333 -1.0666,0.7067 -2.28,1.52 -3.68,2.1734 -2,0.9466 -4.1066,2.0533 -6.4266,3.3733 l -0.9334,0.5333 c -1.76,1 -3.5866,2.0267 -5.3066,3.1867 -1.0667,0.72 -2.1334,1.2933 -3.1867,1.8533 -1.16,0.6134 -2.2667,1.2 -3.12,1.8934 -1.2667,1 -2.52,2.1866 -3.84,3.44 -0.52,0.4933 -1.0533,0.9866 -1.5867,1.48 -1.08,1 -2.1466,2.1866 -3.2666,3.44 -0.56,0.64 -1.1334,1.2666 -1.72,1.9066 -0.88,0.9334 -1.8,1.7467 -2.6934,2.52 -1,0.88 -1.9333,1.7067 -2.6266,2.56 -1.44,1.8 -2.8267,3.7867 -4.2934,5.9067 -0.52,0.7333 -0.9333,1.7733 -1.3866,2.8533 -0.48,1.2 -1.04,2.56 -1.8267,3.88 -1.2,2 -2.4667,4.1467 -3.6267,6.3734 -0.9866,1.8933 -2.1333,4.16 -3.2133,6.6 -0.4533,1.0133 -0.9733,2.0133 -1.4933,3.0266 -0.6534,1.2534 -1.2667,2.44 -1.72,3.64 -0.44,1.16 -0.7867,2.4534 -1.16,3.8267 -0.2934,1.08 -0.6,2.1867 -0.9467,3.28 -0.2933,0.9067 -0.6133,1.8267 -0.9467,2.7467 -0.52,1.48 -1.0133,2.8666 -1.3866,4.2933 -0.3734,1.3733 -0.8934,2.6133 -1.4,3.8133 -0.48,1.1467 -0.9334,2.24 -1.1467,3.2267 -0.1333,0.5867 -0.053,1.6267 0.027,2.6133 0.12,1.4934 0.2666,3.1734 -0.067,4.9867 -0.2533,1.4133 -0.6667,2.7067 -1.0533,3.9467 -0.3734,1.1733 -0.72,2.28 -0.8667,3.3066 -0.16,1.08 -0.1867,2.36 -0.2267,3.72 -0.027,1.3067 -0.067,2.6667 -0.2133,4.0267 -0.093,0.92 -0.48,1.7867 -1.0933,2.48 -1.8934,2.1333 -2.9467,2.8667 -4.4667,3.84 -0.5067,0.3333 -1.1333,0.7333 -1.9867,1.36 -1.4266,1.04 -2.12,1.5867 -2.8133,2.12 -0.7333,0.5733 -1.48,1.1467 -2.9867,2.2533 -2.2266,1.64 -3.9466,2.0134 -5.0933,2.2667 -0.76,0.16 -1.0133,0.2133 -1.72,0.72 -0.7867,0.5867 -0.96,0.8667 -1.3733,1.52 -0.6267,1 -1.4934,2.36 -3.6267,3.9333 -2.1867,1.6134 -3.7867,2 -4.96,2.28 -0.76,0.1867 -1.0533,0.2534 -1.7867,0.8 -0.64,0.4667 -0.72,0.64 -1.0933,1.3467 -0.56,1.0933 -1.4133,2.7333 -3.7067,4.4267 -2.2666,1.6666 -4.2533,1.9466 -5.4533,2.12 -0.2267,0.027 -0.56,0.08 -0.6533,0.1066 0,0 -0.067,0.053 -0.2134,0.1867 0.24,1.16 0.6134,3.0933 0.093,5.92 -0.2667,1.5067 -0.4667,3.28 -0.6934,5.3333 l -0.2133,1.96 c -0.1467,1.1734 -0.1467,2.52 -0.1467,3.96 0,1.0934 0,2.2267 -0.053,3.3867 l -0.053,1.0533 c -0.1067,2.0267 -0.2134,4.1334 -0.1467,6.24 0.04,1.4534 -0.1467,2.8534 -0.3067,4.08 -0.16,1.2134 -0.32,2.36 -0.2133,3.28 0.093,0.8534 0.48,1.92 0.9067,3.0534 0.4266,1.1733 0.92,2.4933 1.2133,3.9466 0.3067,1.4667 0.3467,2.8934 0.3867,4.1467 0.027,1.2 0.067,2.3333 0.32,3.12 0.5866,1.8267 1.4533,3.6933 2.3733,5.68 l 0.44,0.9467 c 0.36,0.8 1.12,1.7066 1.92,2.6666 0.7467,0.8934 1.5867,1.9067 2.32,3.0667 0.8533,1.3467 1.36,2.7467 1.8,4 0.36,1.0267 0.7467,2.08 1.1733,2.5867 1.4134,1.6533 3.24,3.3066 5.1334,4.9866 1.08,0.96 2.24,1.8134 3.48,2.72 0.8666,0.64 1.7066,1.2667 2.52,1.9067 1.4,1.12 2.8933,2.1467 4.3333,3.1467 0.6,0.4133 1.1867,0.8266 1.7733,1.2266 0.76,0.5467 1.84,0.96 2.9734,1.4 1.1866,0.4534 2.5333,0.9734 3.8266,1.76 1.4134,0.8534 2.56,1.8667 3.56,2.7734 0.8534,0.7466 1.6667,1.4666 2.3334,1.8 l 0.88,0.44 c 2.0266,1.0133 3.9333,1.9866 5.8,2.72 l 1.8266,0.7333 c 1.7867,0.72 3.4667,1.4133 5.12,1.9067 l 1.0267,0.32 c 2.1333,0.64 4.16,1.2533 6.1733,1.72 2.8667,0.64 5.2267,1.12 7.4134,1.4933 0.7466,0.1333 1.7866,0.053 2.8933,-0.027 1.4533,-0.093 3.0933,-0.2133 4.84,0.04 1.0133,0.1467 2.16,0.1867 3.36,0.24 1.3867,0.053 2.8267,0.1067 4.3467,0.32 1.5333,0.2 2.96,0.6 4.32,0.9734 1.16,0.32 2.2666,0.6133 3.3066,0.7733 1.6934,0.2533 3.2267,0.8 4.5867,1.28 1.08,0.3867 2.0933,0.7467 3.0133,0.9067 0.9067,0.16 1.8,0.2933 2.6667,0.4266 1.8,0.28 3.5067,0.5334 5.2133,0.9067 0.8534,0.2 1.6934,0.36 2.5067,0.52 1.88,0.3867 3.6533,0.7333 5.44,1.28 0.9333,0.2933 1.8667,0.5067 2.76,0.72 1.7467,0.4267 3.56,0.8533 5.3067,1.6533 2.24,1.0134 3.88,2.52 5.2133,3.7467 0.6133,0.56 1.2,1.0933 1.72,1.4667 0.5733,0.4133 1.3333,0.8 2.1467,1.2133 1.72,0.8667 3.6666,1.8667 5.2666,3.7067 1.5867,1.8266 2.7067,3.8533 3.7867,5.8133 0.2933,0.52 0.5733,1.04 0.88,1.56 1.0667,1.84 1.88,3.8267 2.68,5.7467 0.2533,0.6 0.5067,1.2133 0.7733,1.8266 0.32,0.7734 0.7734,1.6 1.2534,2.4934 0.7466,1.4 1.5866,2.9866 2.24,4.8 0.52,1.4266 0.88,2.8666 1.2133,4.2533 0.2933,1.1867 0.5733,2.3067 0.9333,3.4 0.4134,1.24 0.7067,2.4667 0.9734,3.6533 0.3066,1.2934 0.6,2.52 1.0133,3.64 0.28,0.72 0.8533,1.6134 1.4667,2.5334 0.7733,1.1866 1.6533,2.5333 2.2933,4.1333 0.5467,1.3333 0.92,2.6533 1.2667,3.9333 0.3333,1.2 0.6533,2.3334 1.0666,3.3067 0.5734,1.3067 0.9867,2.6 1.3867,3.8533 0.3867,1.2 0.7467,2.3334 1.2,3.3467 0.48,1.04 1.08,2.1067 1.7067,3.2267 0.6266,1.12 1.28,2.28 1.8666,3.5333 l 1.1067,2.36 c 0.7067,1.5333 1.4267,3.0533 2.1467,4.56 0.36,0.7333 1.04,1.56 1.7466,2.44 0.8934,1.1067 1.9067,2.36 2.68,3.8933 0.7334,1.4534 1.2134,2.92 1.6534,4.2134 0.36,1.1066 0.7066,2.1466 1.12,2.9466 0.76,1.4534 1.28,2.9334 1.72,4.2267 0.3866,1.0933 0.7333,2.12 1.16,2.9067 0.3733,0.68 1.1066,1.44 1.8933,2.2533 1.0133,1.04 2.16,2.2133 3.0267,3.7467 0.92,1.64 1.4266,3.28 1.8533,4.7333 0.3067,0.9867 0.5867,1.92 0.8933,2.44 0.6134,1.0267 1.5867,2.0267 2.52,3 0.8934,0.92 1.8134,1.88 2.5334,2.96 0.4133,0.6267 0.6666,1.3467 0.7333,2.0933 0.24,2.8134 0.1733,3.88 0.027,5.6667 -0.053,0.6267 -0.12,1.36 -0.1734,2.4133 -0.1466,2.84 -1.0266,4.44 -1.6,5.5067 -0.3733,0.7067 -0.4933,0.92 -0.5333,1.76 -0.053,0.9067 0.04,1.1467 0.3333,1.9067 0.4267,1.0933 1.0667,2.76 0.92,5.5466 -0.1466,2.7467 -0.88,4.2667 -1.4266,5.36 -0.3467,0.72 -0.48,1 -0.5334,1.9334 -0.093,1.64 -0.053,2.4133 -0.027,3.2933 0.04,0.9733 0.08,2.0533 -0.027,4.1067 -0.093,1.7866 -0.1333,2.6933 -0.16,3.5866 -0.027,0.9467 -0.053,1.8934 -0.16,3.7867 -0.08,1.6267 -0.053,2.3867 -0.013,3.2533 0.053,0.9734 0.093,2.08 -0.013,4.1334 -0.1066,1.9733 -0.2133,2.96 -0.32,3.9466 -0.093,0.8534 -0.2,1.7067 -0.2933,3.4134 -0.093,2.0133 -0.24,3.08 -0.36,4.0266 -0.1067,0.8534 -0.2133,1.6667 -0.3067,3.3334 -0.1066,2.08 -0.28,3.1733 -0.44,4.1466 -0.1333,0.8534 -0.2533,1.6 -0.3333,3.2134 -0.08,1.3333 0.027,1.8666 0.1733,2.6933 0.1867,1.0667 0.4267,2.3867 0.2934,4.76 0,0.08 -0.013,0.2267 0.1466,0.4 0.067,0.067 0.2534,0.24 0.5467,0.24 2.12,0 3.24,0.1333 4.2267,0.2667 0.8266,0.1066 1.5466,0.2 3.0933,0.2 1.0267,0 1.36,-0.1334 2.1067,-0.4134 1.0933,-0.4133 2.5866,-0.9733 5.2266,-0.9733 2.5867,0 4.0534,0.52 5.12,0.8933 0.7467,0.2534 1.12,0.3867 2.2,0.3867 1.16,0 1.5867,-0.1333 2.36,-0.3733 1.04,-0.32 2.4667,-0.7467 4.96,-0.7467 2.1467,0 3.28,0.1467 4.28,0.2933 0.8534,0.12 1.52,0.2134 3.0534,0.2134 2.4533,0 3.8666,0.4 4.88,0.6933 0.7733,0.2267 1.24,0.36 2.44,0.36 1.56,0 2.28,-0.093 3.12,-0.2 0.9866,-0.12 2.0933,-0.2533 4.2,-0.2533 1.8933,0 2.8266,0.013 3.7733,0.04 0.8933,0.027 1.7867,0.04 3.56,0.04 1.0933,0 1.48,-0.1334 2.24,-0.3867 1.0667,-0.3733 2.5333,-0.8667 5.1067,-0.8667 0.6,0 1.12,-0.1733 1.4266,-0.32 -0.1066,-1.2266 -0.24,-1.84 -0.4,-2.5866 -0.2266,-1.0134 -0.4933,-2.1734 -0.6266,-4.3867 -0.1067,-1.64 -0.2267,-2.4 -0.3734,-3.28 -0.1466,-0.96 -0.3333,-2.0533 -0.4666,-4.1333 -0.1334,-2.0667 -0.093,-3.16 -0.067,-4.1334 0.027,-0.8933 0.053,-1.6666 -0.053,-3.32 -0.08,-1.28 -0.2534,-1.8 -0.5067,-2.5733 -0.3467,-1.0533 -0.7867,-2.36 -0.9333,-4.7867 -0.1467,-2.3066 0.027,-3.5866 0.16,-4.6266 0.12,-0.84 0.2,-1.44 0.1066,-2.8667 -0.1333,-2.0267 -0.1066,-3.12 -0.093,-4.08 0.013,-0.9067 0.027,-1.68 -0.08,-3.36 -0.093,-1.36 -0.2533,-1.92 -0.4933,-2.7067 -0.3067,-1.04 -0.68,-2.32 -0.8267,-4.68 -0.1333,-2.08 -0.093,-3.2 -0.053,-4.1733 0.027,-0.88 0.067,-1.6533 -0.04,-3.28 -0.093,-1.4533 -0.2534,-2.08 -0.4534,-2.8933 -0.2533,-1 -0.5733,-2.24 -0.72,-4.5067 -0.1466,-2.4267 0.1067,-3.7867 0.32,-4.88 0.16,-0.8 0.2534,-1.3333 0.1734,-2.6267 -0.16,-2.4533 1.7066,-4.56 4.16,-4.72 2.48,-0.1333 4.56,1.7067 4.7066,4.16 0.16,2.4267 -0.1066,3.7734 -0.3066,4.8667 -0.16,0.8133 -0.2534,1.3333 -0.1734,2.64 0.093,1.4533 0.24,2.0533 0.4534,2.8933 0.2533,1 0.56,2.24 0.7066,4.5067 0.1334,2.08 0.093,3.2 0.053,4.1867 -0.04,0.88 -0.067,1.64 0.04,3.2666 0.093,1.36 0.2533,1.9334 0.48,2.7067 0.3066,1.04 0.6933,2.32 0.84,4.6667 0.1333,2.04 0.1066,3.12 0.093,4.08 -0.013,0.9066 -0.027,1.6933 0.08,3.3733 0.1467,2.3067 -0.027,3.5867 -0.16,4.6267 -0.12,0.8266 -0.2,1.44 -0.1067,2.8533 0.08,1.2933 0.2534,1.8 0.5067,2.5733 0.3467,1.0534 0.7867,2.3734 0.9333,4.8 0.1334,2.0667 0.1067,3.16 0.067,4.1334 -0.027,0.8933 -0.04,1.6666 0.067,3.32 0.093,1.64 0.2266,2.4 0.36,3.28 0.16,0.96 0.3333,2.0533 0.4666,4.1333 0.1067,1.52 0.2534,2.1867 0.44,3.0267 0.2134,1.0133 0.4667,2.16 0.6134,4.3333 0.1733,2.2133 -0.5867,4.3733 -2.1334,6.0667 -1.9333,2.08 -4.9866,3.32 -8.1866,3.32 -1.0934,0 -1.48,0.12 -2.2267,0.3866 -1.0667,0.36 -2.5333,0.8667 -5.12,0.8667 -1.88,0 -2.8267,-0.027 -3.76,-0.04 -0.8933,-0.027 -1.7867,-0.053 -3.5733,-0.053 -1.56,0 -2.28,0.093 -3.12,0.2 -0.9867,0.12 -2.0934,0.2533 -4.2,0.2533"
       style="fill:#362421;fill-opacity:1;fill-rule:nonzero;stroke:none;stroke-width:0.133333" />
    <path
       id="path209"
       d="m 1507.1733,1428.2 c -0.44,0 -0.8667,-0.067 -1.3067,-0.1866 l -0.5866,-0.1867 c -2.9334,-0.88 -3.5734,-1.28 -5.7734,-3.5333 l -1.16,-1.1867 c -1.3866,-1.3867 -3.28,-3.3067 -4.7066,-6.1867 -1.12,-2.24 -1.9867,-4.7333 -2.5734,-7.3866 -0.1066,-0.4667 -0.2266,-0.96 -0.36,-1.4667 -0.4133,-1.64 -0.9333,-3.68 -1.04,-5.9867 -0.1066,-2.4133 -0.1733,-4.7866 0.04,-7.4 0.2134,-2.52 0.92,-4.7333 1.5334,-6.68 0.1466,-0.4666 0.2933,-0.92 0.4266,-1.3733 0.76,-2.5467 1.6534,-5.24 3.0267,-7.72 1.3733,-2.4667 2.7467,-4.8533 4.5333,-6.9333 1.5467,-1.7867 3.44,-2.7734 4.96,-3.5734 0.72,-0.3733 1.4,-0.7333 1.7867,-1.04 0.68,-0.5466 1.32,-1.1866 2,-1.8666 1.2,-1.1867 2.44,-2.4134 4.0267,-3.3467 3.5466,-2.0533 7.12,-1.2133 9.48,-0.6533 3.2933,0.7733 5.5866,2.4533 7.52,5.4666 0.52,0.8267 0.8,1.04 1.3866,1.4934 0.88,0.6666 2.0934,1.6 3.4534,3.7333 0.84,1.2933 1.28,1.8667 1.8,2.52 0.56,0.72 1.2133,1.5467 2.2666,3.2 0.9734,1.5067 1.44,2.28 1.9067,3.04 0.44,0.72 0.88,1.4533 1.8,2.8933 1.4133,2.1867 1.7067,3.7334 1.9333,4.8667 0.1334,0.7333 0.2,1.0133 0.68,1.76 0.4934,0.7733 0.7467,0.96 1.3334,1.3867 0.92,0.68 2.1866,1.6 3.5866,3.7733 1.4,2.1867 1.6934,3.7333 1.92,4.8667 0.1334,0.7333 0.1867,1.0133 0.68,1.76 1.32,2.0666 0.72,4.8133 -1.3466,6.1466 -2.0667,1.32 -4.8134,0.72 -6.1467,-1.3466 -1.4,-2.1867 -1.6933,-3.7334 -1.92,-4.8667 -0.1333,-0.7333 -0.1867,-1.0133 -0.68,-1.76 -0.4933,-0.7733 -0.7333,-0.96 -1.3333,-1.3867 -0.92,-0.68 -2.1867,-1.6 -3.5734,-3.7733 -1.4,-2.1867 -1.7066,-3.7333 -1.9333,-4.8667 -0.1333,-0.7333 -0.1867,-1.0133 -0.68,-1.7733 -0.9733,-1.5067 -1.44,-2.28 -1.9067,-3.0533 -0.44,-0.72 -0.88,-1.44 -1.8,-2.8667 -0.8266,-1.3067 -1.28,-1.8667 -1.7866,-2.52 -0.5734,-0.72 -1.2134,-1.5467 -2.28,-3.2133 -0.52,-0.8134 -0.7867,-1.0134 -1.3867,-1.4667 -0.88,-0.68 -2.0933,-1.6133 -3.4533,-3.7467 -0.8134,-1.2666 -1.24,-1.4133 -1.9867,-1.5866 -1.32,-0.32 -2.5867,-0.6134 -3.0533,-0.3334 -0.6134,0.3467 -1.4134,1.1334 -2.24,1.96 -0.7734,0.76 -1.64,1.6267 -2.6667,2.4534 -1.08,0.88 -2.24,1.4933 -3.28,2.0266 -0.9733,0.5067 -1.8933,1 -2.3333,1.4934 -1.2267,1.44 -2.36,3.4 -3.4934,5.44 -0.96,1.7466 -1.6666,3.8933 -2.28,5.9466 -0.1466,0.5067 -0.3066,1.0134 -0.48,1.5334 -0.52,1.6533 -1.0133,3.2133 -1.1333,4.72 -0.1867,2.1066 -0.12,4.0933 -0.027,6.28 0.067,1.3866 0.4134,2.7466 0.7734,4.1733 0.16,0.6 0.3066,1.1867 0.4266,1.7467 0.44,1.96 1.0534,3.76 1.8534,5.36 0.7866,1.5866 1.8933,2.7066 3.0533,3.88 l 1.2267,1.24 c 0.4,0.4133 0.6533,0.6933 0.88,0.8933 0.2666,0.093 0.6,0.1867 1.08,0.3333 l 0.6266,0.1867 c 2.3467,0.72 3.6667,3.2 2.9467,5.5467 -0.5867,1.92 -2.3467,3.1466 -4.24,3.1466"
       style="fill:#362421;fill-opacity:1;fill-rule:nonzero;stroke:none;stroke-width:0.133333" />
    <path
       id="path210"
       d="m 1734.2266,1819.28 c -1.4533,0 -2.8266,-0.093 -4.1733,-0.1733 -1.04,-0.067 -2.08,-0.1467 -3.1067,-0.16 -1.04,-0.013 -2.0933,0 -3.12,0.013 -1.5466,0.027 -3.1466,0.04 -4.7333,-0.027 -1.6533,-0.067 -3.2,-0.28 -4.7067,-0.48 -1.04,-0.1467 -2.0666,-0.28 -3.08,-0.36 -1.7866,-0.12 -3.4133,-0.4934 -4.84,-0.8267 -1.0533,-0.24 -2.04,-0.4667 -2.88,-0.5467 -1.84,-0.1733 -3.5866,-0.4133 -5.24,-0.64 -0.8533,-0.12 -1.68,-0.2266 -2.4933,-0.3333 -0.9867,-0.12 -2.1067,0.013 -3.2933,0.16 -1.48,0.1867 -3.0134,0.3733 -4.64,0.12 -3.3067,-0.4933 -4.7467,-1.32 -6.04,-2.1733 -0.48,-0.32 -0.64,-0.4267 -1.5067,-0.6 -2.4,-0.4934 -3.96,-2.84 -3.48,-5.24 0.4933,-2.4134 2.8267,-3.96 5.24,-3.48 2.3867,0.48 3.5733,1.1866 4.6667,1.9066 0.52,0.3467 0.8266,0.5467 2.4533,0.8 0.4267,0.067 1.3867,-0.053 2.24,-0.16 1.5067,-0.1733 3.3867,-0.4 5.4533,-0.1466 0.84,0.093 1.7067,0.2133 2.6,0.3333 1.5467,0.2133 3.1867,0.44 4.8934,0.6133 1.4133,0.1334 2.7333,0.4267 4.0133,0.72 1.2267,0.2934 2.3867,0.56 3.48,0.6267 1.1867,0.093 2.4133,0.2533 3.64,0.4133 1.36,0.1867 2.6533,0.36 3.9067,0.4134 1.3866,0.067 2.8,0.04 4.2266,0.027 1.12,-0.013 2.2267,-0.027 3.36,-0.013 1.1734,0.013 2.36,0.08 3.56,0.16 1.4,0.093 2.7467,0.1867 4.0267,0.16 0.6133,-0.013 1.6,-0.3467 2.56,-0.6667 1.4267,-0.48 3.0533,-1.0266 4.92,-1.1333 1.44,-0.067 2.8933,-0.24 4.4267,-0.4133 1.0133,-0.12 2.0266,-0.24 3.04,-0.3334 1.3733,-0.1333 2.68,-0.12 3.9333,-0.1066 1.2933,0 2.4933,0.013 3.5733,-0.1334 1.2134,-0.1733 2.4934,-0.4933 3.84,-0.8266 1.1467,-0.2934 2.28,-0.5734 3.44,-0.8 1.7334,-0.32 3.36,-0.24 4.8,-0.16 1.0934,0.053 2.12,0.1066 2.7734,-0.053 0.6933,-0.1733 1.6133,-0.72 2.5733,-1.2933 1.2,-0.72 2.56,-1.5467 4.16,-2.0667 1.6667,-0.5466 3.2933,-0.6533 4.72,-0.76 1.04,-0.08 2.12,-0.1466 2.6933,-0.3866 2.28,-0.96 4.8667,0.12 5.8134,2.3866 0.9466,2.2667 -0.1334,4.8667 -2.3867,5.8134 -1.92,0.8 -3.8133,0.9333 -5.48,1.0533 -1.0133,0.067 -1.9733,0.1467 -2.6133,0.3467 -0.64,0.2133 -1.4667,0.7066 -2.3334,1.2266 -1.4,0.84 -3,1.8 -4.9733,2.3067 -1.96,0.48 -3.8,0.3867 -5.4267,0.3067 -1.0266,-0.053 -1.9866,-0.1067 -2.6666,0.013 -0.9867,0.1867 -1.9467,0.44 -2.92,0.68 -1.52,0.3867 -3.1067,0.7867 -4.8,1.0133 -1.72,0.24 -3.3067,0.24 -4.84,0.2134 -1.0934,0 -2.12,-0.013 -3.0534,0.08 -0.96,0.08 -1.8933,0.2 -2.8266,0.3066 -1.6134,0.1867 -3.28,0.3734 -4.9867,0.4667 -0.6667,0.04 -1.5867,0.3467 -2.5733,0.68 -1.52,0.5067 -3.2534,1.0933 -5.2267,1.12 -0.2,0.013 -0.4,0.013 -0.5867,0.013"
       style="fill:#362421;fill-opacity:1;fill-rule:nonzero;stroke:none;stroke-width:0.133333" />
    <path
       id="path211"
       d="m 1776.0266,1875.3334 c -2.2133,0 -3.44,-0.3067 -4.4133,-0.56 -0.6933,-0.1867 -1.1067,-0.2934 -2.1867,-0.2934 -2.1733,0 -3.3733,-0.28 -4.3466,-0.52 -0.7067,-0.1733 -1.1334,-0.2666 -2.2667,-0.2666 -1.5333,0 -2.3067,0.04 -3.0667,0.08 -0.8933,0.04 -1.7733,0.093 -3.5466,0.093 -2.76,0 -5.1334,-1.0133 -6.6934,-2.8533 -1.6,-1.88 -2.2266,-4.5067 -1.7466,-7.3734 0.1866,-1.4666 0.1866,-2.1733 0.1866,-3.0666 -0.013,-1.0134 -0.013,-2.1467 0.24,-4.24 l 0.8934,-7.4267 c 0.1733,-1.4533 0.1333,-2.0667 0.067,-2.9333 -0.067,-1.0267 -0.1466,-2.32 0.12,-4.5867 0.2134,-1.7733 0.2934,-2.6533 0.36,-3.5467 0.08,-0.9733 0.1467,-1.96 0.3867,-3.9066 0.2667,-2.24 0.64,-3.4534 0.9333,-4.4267 0.24,-0.8133 0.4267,-1.4533 0.6134,-2.9333 0.1466,-1.1867 0.067,-1.64 -0.093,-2.4667 -0.2,-1.0933 -0.4666,-2.5867 -0.16,-5.12 0.3334,-2.7333 1.1467,-4.2 1.76,-5.2667 0.3867,-0.7066 0.56,-1 0.68,-1.9866 0.2934,-2.44 2.52,-4.1734 4.9334,-3.88 2.44,0.2933 4.1733,2.5066 3.8933,4.9466 -0.3333,2.7334 -1.16,4.2 -1.76,5.2667 -0.4,0.7067 -0.56,1 -0.68,1.9867 -0.1467,1.2 -0.067,1.6533 0.08,2.4666 0.2,1.0934 0.48,2.5867 0.1733,5.12 -0.2666,2.24 -0.64,3.4534 -0.9333,4.4267 -0.24,0.8133 -0.44,1.4533 -0.6133,2.9333 -0.2134,1.76 -0.28,2.6534 -0.36,3.5467 -0.067,0.9733 -0.1467,1.96 -0.3867,3.9067 -0.1733,1.44 -0.1333,2.0533 -0.067,2.92 0.067,1.0266 0.1467,2.32 -0.12,4.6 l -0.8933,7.4266 c -0.1867,1.5334 -0.1867,2.28 -0.1867,3.1334 0.013,1.04 0.013,2.2133 -0.28,4.4133 0,0.013 0,0.013 0,0.027 1.3067,-0.013 2.0267,-0.04 2.7334,-0.08 0.88,-0.053 1.7733,-0.093 3.5333,-0.093 2.1867,0 3.3867,0.2934 4.3467,0.52 0.7066,0.1734 1.1333,0.2667 2.2666,0.2667 2.2134,0 3.4267,0.32 4.4134,0.5733 0.68,0.1734 1.0933,0.28 2.1866,0.28 2.4534,0 4.44,2 4.44,4.4534 0,2.4533 -1.9866,4.44 -4.44,4.44"
       style="fill:#362421;fill-opacity:1;fill-rule:nonzero;stroke:none;stroke-width:0.133333" />
    <path
       id="path212"
       d="m 1586.3333,1875.04 c -2.56,0 -4.0133,-0.4933 -5.0667,-0.8666 -0.7333,-0.2534 -1.0933,-0.3867 -2.16,-0.3867 -3.0666,0 -5.6666,-1.1867 -7.32,-3.3467 -1.6133,-2.12 -2.0666,-4.88 -1.28,-7.7733 0.3334,-1.3733 0.56,-2.28 0.76,-3.0667 0.2667,-1.0666 0.4934,-1.92 0.96,-4 0.3467,-1.5866 0.44,-2.3466 0.5334,-3.2266 0.12,-0.9867 0.2533,-2.1067 0.7066,-4.1467 0.4667,-2.1067 0.8667,-3.2 1.2134,-4.16 0.2933,-0.8 0.5466,-1.4933 0.8933,-3.0267 0.3467,-1.5733 0.4267,-2.32 0.52,-3.1866 0.1067,-1 0.2267,-2.12 0.6933,-4.2 0.2534,-1.1867 0.2267,-1.68 0.1734,-2.48 -0.08,-1.0934 -0.1734,-2.5867 0.3733,-5.04 0.5467,-2.44 1.2267,-3.6934 1.7867,-4.6934 0.3866,-0.72 0.6266,-1.1466 0.8933,-2.36 0.4,-1.7333 0.56,-2.6133 0.72,-3.4933 0.1733,-0.96 0.36,-1.92 0.7733,-3.8133 0.28,-1.2 0.24,-1.6934 0.1867,-2.5067 -0.067,-1.08 -0.1733,-2.5733 0.3733,-5.0267 0.4534,-2 0.7734,-3.04 1.0667,-3.96 0.2667,-0.8666 0.5067,-1.6133 0.8667,-3.2533 0.28,-1.28 0.5066,-2.12 0.6933,-2.8133 0.3333,-1.2134 0.4667,-1.72 0.6533,-3.8267 0.1467,-1.6267 0.067,-2.1067 -0.093,-3.0533 -0.1333,-0.8134 -0.32,-1.9334 -0.4,-3.7334 -0.1067,-2.56 0.2933,-4.0533 0.6,-5.1333 0.2133,-0.7867 0.3333,-1.2133 0.28,-2.3867 -0.067,-1.4933 -0.2,-2.1466 -0.3867,-2.9733 -0.2133,-0.9867 -0.48,-2.2133 -0.5733,-4.4667 -0.093,-2.1733 0.027,-3.3333 0.12,-4.36 0.093,-0.8666 0.16,-1.56 0.093,-3.12 -0.053,-1.2533 -0.2133,-1.7333 -0.4666,-2.5333 -0.3467,-1.0667 -0.7734,-2.4133 -0.88,-4.88 -0.08,-1.9333 -0.08,-2.9067 -0.093,-3.88 0,-0.8933 -0.013,-1.7867 -0.08,-3.5733 -0.08,-1.7334 -0.1733,-2.5867 -0.2666,-3.4534 -0.093,-1 -0.2,-2 -0.2934,-4 -0.1066,-2.4533 1.8,-4.52 4.2534,-4.6266 2.5066,-0.067 4.52,1.8 4.6266,4.2533 0.08,1.72 0.1734,2.5867 0.2534,3.44 0.1066,1 0.2133,2 0.3066,4.0133 0.08,1.9334 0.08,2.9067 0.093,3.88 0,0.8934 0.013,1.7867 0.08,3.5734 0.053,1.2666 0.2133,1.7466 0.4666,2.5333 0.3467,1.08 0.7734,2.4133 0.88,4.8933 0.093,2.16 -0.027,3.32 -0.12,4.3467 -0.093,0.8667 -0.1466,1.56 -0.093,3.12 0.067,1.4933 0.2133,2.1467 0.3867,2.9733 0.2133,0.9867 0.48,2.2134 0.5733,4.4667 0.1067,2.56 -0.2933,4.04 -0.5867,5.12 -0.2266,0.7867 -0.3466,1.2133 -0.2933,2.4 0.053,1.2667 0.1733,1.9333 0.2933,2.6533 0.24,1.48 0.4,2.7334 0.1734,5.2934 -0.24,2.7333 -0.4934,3.76 -0.92,5.3333 -0.16,0.6 -0.36,1.3467 -0.6,2.4533 -0.4534,2.0134 -0.7734,3.0534 -1.0667,3.9734 -0.2667,0.8666 -0.5067,1.6133 -0.8667,3.2533 -0.2666,1.1867 -0.24,1.68 -0.1866,2.4933 0.08,1.0934 0.1733,2.5867 -0.3734,5.0267 -0.3866,1.7467 -0.5466,2.6267 -0.72,3.4933 -0.1733,0.96 -0.3466,1.92 -0.7733,3.8267 -0.5467,2.44 -1.24,3.6933 -1.7867,4.6933 -0.4,0.72 -0.6266,1.1467 -0.8933,2.36 -0.28,1.1867 -0.24,1.68 -0.1867,2.4934 0.08,1.08 0.1734,2.5733 -0.3733,5.0266 -0.3467,1.5734 -0.4267,2.32 -0.52,3.1867 -0.1067,1 -0.2267,2.12 -0.68,4.1867 -0.48,2.1066 -0.88,3.1866 -1.2267,4.1466 -0.2933,0.8 -0.5466,1.4934 -0.88,3.04 -0.36,1.6 -0.4533,2.3467 -0.5466,3.2267 -0.12,0.9867 -0.24,2.1067 -0.7067,4.16 -0.4933,2.2133 -0.72,3.12 -1.0133,4.2533 -0.1867,0.76 -0.4134,1.6134 -0.76,3.08 0,0.013 0,0.013 -0.013,0.027 2.56,0 4.0134,0.5067 5.0667,0.8667 0.7333,0.2533 1.1067,0.3866 2.16,0.3866 1.0133,0 1.3467,-0.1333 2.08,-0.4 1.08,-0.3866 2.5467,-0.9333 5.1467,-0.9333 l 7.24,-0.013 c 2.2266,0 3.4533,0.2266 4.44,0.4133 0.8133,0.1467 1.4,0.2667 2.8,0.2667 2.4533,0 4.44,1.9866 4.44,4.44 0,2.4533 -1.9867,4.44 -4.44,4.44 -2.2267,0 -3.4534,-0.2267 -4.44,-0.4134 -0.8134,-0.1466 -1.4,-0.2666 -2.8,-0.2666 l -7.24,0.013 c -1.0134,0 -1.3467,0.1333 -2.08,0.4 -1.0667,0.4 -2.5467,0.9333 -5.1467,0.9333"
       style="fill:#362421;fill-opacity:1;fill-rule:nonzero;stroke:none;stroke-width:0.133333" />
    <path
       id="path213"
       d="m 1721.3066,1478.7467 c 2.8534,-2.0267 2.92,-0.3733 6.6667,1.3867 1.8533,0.88 3.16,3.2533 5.2133,4.84 1.7067,1.32 4.5867,1.76 6.1467,3.7066 1.36,1.7067 1.5067,4.4134 2.5733,6.6667 0.92,1.9733 2.2934,3.9333 2.8534,6.3733 0.6266,2.7067 0.3066,5.0534 0.1866,7.0534 -0.16,2.8266 -1.12,4.6666 -2.28,6.32 -1.48,2.1333 -2.8,4.4133 -4.8133,5.2 -3.5333,1.36 -6.08,-2.84 -7.4133,0.44 -1.4534,3.5733 3.56,1.04 7.0266,3.92 1.7467,1.4666 3.3467,3.72 5.12,5.8933 1.5467,1.8933 2.7467,4.2133 3.8667,6.6533 1.04,2.24 1.2267,4.7467 1.5733,7.4134 0.3467,2.5466 0.8,4.9866 0.3734,7.4266 -0.44,2.5734 -1.8934,4.6134 -3.08,6.7067 -1.3067,2.3333 -1.92,5.2267 -3.9734,6.48 -2.0933,1.2933 -4.9733,2.0667 -7.68,1.7067 -2.1733,-0.28 -4.36,-1.9467 -6.8266,-3.5867 -1.8267,-1.2267 -3.2134,-3 -5.16,-5.1067 -1.3867,-3.8 0.093,-2.9866 -0.1067,-7.9066 -0.093,-2.3334 -0.8667,-5.0534 -1.0933,-8.04 -0.2,-2.5334 0.013,-5.3067 -0.32,-8.1067 -0.3067,-2.6267 -2.0134,-5.12 -2.4534,-7.8133 -0.4533,-2.68 -0.7466,-5.3467 -1.3733,-7.9334 -0.6533,-2.7066 -0.3733,-5.6133 -1.24,-8.0533 -1.2267,-3.4533 -3.4933,-5.7333 -4.2533,-7.9067 -3.3867,-9.68 1.8533,-6.1066 -1.96,-8.3733 -2.5867,-1.5333 -2.3867,-2.76 -1.1467,-5.5867 0.5467,-1.2666 1.68,-2.6666 4.3867,-3.7866 8.76,-3.6134 4.6266,-2.72 9.1866,-5.9867"
       style="fill:#2d1613;fill-opacity:1;fill-rule:nonzero;stroke:none;stroke-width:0.133333" />
    <path
       id="path214"
       d="m 1503.5333,1501.24 c 0,2.6667 -0.7333,4.8534 -2.4667,6.6 -1.7466,1.7334 -3.9333,3.32 -6.6,3.32 -2.6533,0 -4.48,-1.9466 -6.2266,-3.6933 -1.7467,-1.7333 -3.9334,-3.56 -3.9334,-6.2267 0,-2.6533 1.5467,-5.1333 3.28,-6.88 1.7467,-1.7333 4.2267,-2.5866 6.88,-2.5866 2.6667,0 5.3867,0.6 7.12,2.3466 1.7467,1.7467 1.9467,4.4667 1.9467,7.12"
       style="fill:#362421;fill-opacity:1;fill-rule:nonzero;stroke:none;stroke-width:0.133333" />
    <path
       id="path215"
       d="m 1456.48,1575.48 c 0.3066,2.0934 -0.24,3.72 -1.1467,5.32 -1.0133,1.7734 -2.2,2.5734 -4.1867,2.8667 -1.9733,0.2933 -3.2266,-0.2667 -4.7066,-1.6667 -1.3334,-1.2666 -3.2267,-2.4133 -3.5334,-4.52 -0.32,-2.0933 -0.32,-4.6 0.5867,-6.2 1.0133,-1.7733 3.3867,-2.8133 5.3733,-3.1066 1.9734,-0.2934 3.4267,1.2 4.9067,2.6133 1.3333,1.2533 2.3867,2.5867 2.7067,4.6933"
       style="fill:#362421;fill-opacity:1;fill-rule:nonzero;stroke:none;stroke-width:0.133333" />
    <path
       id="path216"
       d="m 1492.2266,1582.6134 c -1.0533,1.84 -0.48,3.96 -0.2133,5.7866 0.28,2.0134 0.28,4.6534 2.0267,5.6534 1.7333,1 4.52,0.9333 6.4133,0.1733 1.7067,-0.68 3.3467,-2.4933 4.4,-4.3333 1.0667,-1.8267 1.2933,-4.08 1.04,-5.9067 -0.2933,-2.0133 -2.0133,-2.9867 -3.7467,-3.9867 -1.7333,-1 -3.4533,-2.0533 -5.3466,-1.2933 -1.7067,0.68 -3.5067,2.0667 -4.5734,3.9067"
       style="fill:#362421;fill-opacity:1;fill-rule:nonzero;stroke:none;stroke-width:0.133333" />
    <path
       id="path217"
       d="m 1587.2533,1525.9734 c 0,2.6666 -0.16,5.1466 -1.9067,6.8933 -1.7333,1.7467 -4.2266,3.0133 -6.88,3.0133 -2.6666,0 -5.5466,-0.88 -7.2933,-2.6133 -1.7333,-1.7467 -2.8933,-4.6267 -2.8933,-7.2933 0,-2.6534 1.96,-4.7334 3.7066,-6.48 1.7334,-1.7334 3.8134,-3.6934 6.48,-3.6934 2.6534,0 4.6267,2.0534 6.3734,3.8 1.7466,1.7467 2.4133,3.72 2.4133,6.3734"
       style="fill:#362421;fill-opacity:1;fill-rule:nonzero;stroke:none;stroke-width:0.133333" />
    <path
       id="path218"
       d="m 1487.5866,1635.5467 c -0.9333,0 -1.7866,-0.04 -2.6266,-0.1067 -2.6267,-0.2266 -5.4,-0.5333 -7.9867,-1.5333 l -0.4933,-0.1867 c -2.6534,-1.0266 -5.1734,-1.9866 -7.16,-3.8133 -2.7467,-2.5067 -3.48,-3.6267 -4.1334,-6.3067 -0.1066,-0.4266 -0.2266,-0.9466 -0.4533,-1.64 -0.7467,-2.3333 0.5467,-4.84 2.88,-5.5866 2.3467,-0.7334 4.84,0.5466 5.5867,2.88 0.3066,0.9466 0.48,1.6533 0.6133,2.2266 0.067,0.24 0.093,0.4267 0.16,0.6 0,-0.053 0.2667,0.28 1.3467,1.2667 0.7466,0.6933 2.4933,1.36 4.3466,2.0667 l 0.5067,0.2 c 1.36,0.52 3.1333,0.76 5.5733,0.9733 1.6134,0.1333 3.48,0.08 6.0667,-0.1867 1.5733,-0.16 3.0267,-0.08 4.32,0 0.9867,0.067 2.32,0.1467 2.76,-0.027 0.92,-0.3734 1.84,-1.3867 2.8,-2.4534 0.6667,-0.7333 1.3467,-1.4933 2.1467,-2.1866 1.0133,-0.88 2.0666,-1.6134 2.9866,-2.2534 0.92,-0.64 2.1734,-1.5066 2.4534,-1.9733 0.72,-1.24 0.72,-1.32 0.64,-2.1067 -0.093,-0.96 -0.24,-2.4 0.1333,-4.5333 0.4133,-2.4267 2.72,-4.0267 5.1333,-3.6267 2.4134,0.4267 4.04,2.7334 3.6134,5.1467 -0.16,0.9467 -0.1067,1.44 -0.04,2.12 0.2,2.0667 0.2133,4.04 -1.8267,7.4933 -1.2533,2.16 -3.2667,3.5467 -5.0267,4.7734 -0.8133,0.5733 -1.5866,1.1066 -2.2266,1.6666 -0.4,0.3467 -0.88,0.88 -1.3867,1.44 -1.4533,1.6 -3.2667,3.6134 -6.1067,4.7467 -2.2666,0.9067 -4.56,0.7733 -6.5866,0.6533 -1.04,-0.067 -2.0134,-0.12 -2.8667,-0.04 -1.9733,0.2134 -3.64,0.3067 -5.1467,0.3067"
       style="fill:#362421;fill-opacity:1;fill-rule:nonzero;stroke:none;stroke-width:0.133333" />
    <path
       id="path219"
       d="m 1609.2266,1853.7067 c -2.3733,0 -3.68,-0.2667 -4.7466,-0.48 -0.8534,-0.1733 -1.48,-0.3067 -2.9467,-0.3067 -2.0667,0 -3.1067,-0.067 -4.1333,-0.1333 -0.8934,-0.053 -1.7867,-0.1067 -3.5734,-0.1067 -1.7066,0 -2.5066,0.08 -3.4266,0.16 -1,0.093 -2.12,0.2 -4.2534,0.2 -2.1733,0 -3.32,-0.1333 -4.3466,-0.24 -0.8934,-0.1066 -1.6667,-0.2 -3.3334,-0.2 -2.4533,0 -4.4533,-1.9866 -4.4533,-4.44 0,-2.4533 2,-4.44 4.4533,-4.44 2.1734,0 3.32,0.1334 4.3334,0.24 0.9066,0.1067 1.68,0.1867 3.3466,0.1867 1.72,0 2.5067,-0.067 3.4267,-0.16 1,-0.093 2.1333,-0.2 4.2533,-0.2 2.0667,0 3.1067,0.067 4.1334,0.1333 0.8933,0.053 1.7866,0.12 3.5733,0.12 2.3733,0 3.68,0.2667 4.7333,0.48 0.8667,0.1734 1.48,0.3067 2.96,0.3067 2.4534,0 4.44,1.9867 4.44,4.44 0,2.4533 -1.9866,4.44 -4.44,4.44"
       style="fill:#362421;fill-opacity:1;fill-rule:nonzero;stroke:none;stroke-width:0.133333" />
    <path
       id="path220"
       d="m 1668.36,1853.2134 c -1.9334,0 -2.8934,-0.04 -3.8534,-0.067 -0.88,-0.027 -1.7733,-0.067 -3.5466,-0.067 -2.2667,0 -3.5334,-0.24 -4.5334,-0.44 -0.8266,-0.16 -1.4266,-0.28 -2.8533,-0.28 -1.72,0 -2.5733,0.053 -3.44,0.1067 -0.9867,0.053 -1.9733,0.1067 -3.9467,0.1067 -1.6933,0 -2.5333,0.067 -3.3866,0.12 -0.9734,0.067 -2,0.1466 -4,0.1466 -2.2534,0 -3.5067,-0.24 -4.52,-0.4266 -0.8267,-0.16 -1.4267,-0.28 -2.8667,-0.28 -1.7867,0 -2.68,0.027 -3.5733,0.053 -0.96,0.027 -1.9067,0.04 -3.8134,0.04 -1.28,0 -1.8,0.1467 -2.5866,0.3467 -1.0667,0.28 -2.4,0.6133 -4.8134,0.6133 -1.8933,0 -2.8266,-0.013 -3.7733,-0.027 -0.9067,-0.013 -1.8133,-0.027 -3.6267,-0.027 -2.4533,0 -4.44,-1.9867 -4.44,-4.44 0,-2.4534 1.9867,-4.4534 4.44,-4.4534 1.88,0 2.8267,0.013 3.7734,0.04 0.9066,0.013 1.8133,0.027 3.6266,0.027 1.28,0 1.8,-0.1333 2.5867,-0.3333 1.0667,-0.28 2.4,-0.6267 4.8133,-0.6267 1.7867,0 2.68,-0.027 3.5867,-0.053 0.9467,-0.013 1.8933,-0.04 3.8,-0.04 2.2667,0 3.52,0.2266 4.52,0.4266 0.84,0.16 1.44,0.2667 2.8667,0.2667 1.6933,0 2.5466,-0.053 3.3866,-0.12 0.9867,-0.067 2,-0.1333 4,-0.1333 1.72,0 2.5867,-0.053 3.44,-0.1067 0.9867,-0.053 1.9734,-0.1067 3.9467,-0.1067 2.28,0 3.5333,0.24 4.5467,0.44 0.8266,0.16 1.4266,0.28 2.84,0.28 1.9333,0 2.8933,0.027 3.8533,0.067 0.88,0.027 1.7733,0.053 3.5467,0.053 1.8266,0 2.7466,0 3.6533,-0.013 0.9333,0 1.8667,-0.013 3.72,-0.013 1.2933,0 1.8267,-0.12 2.6133,-0.32 1.0534,-0.2667 2.3734,-0.6 4.7734,-0.6 2.4533,0 4.44,1.9866 4.44,4.44 0,2.4533 -1.9867,4.44 -4.44,4.44 -1.2934,0 -1.8134,0.1333 -2.6134,0.3333 -1.0533,0.2667 -2.3733,0.6 -4.7733,0.6 -1.8267,0 -2.7467,0 -3.6533,0.013 -0.9334,0.013 -1.8667,0.013 -3.72,0.013"
       style="fill:#362421;fill-opacity:1;fill-rule:nonzero;stroke:none;stroke-width:0.133333" />
    <path
       id="path221"
       d="m 1844.16,1853.7467 c -2.68,0 -4.1867,-0.56 -5.2934,-0.96 -0.7733,-0.28 -1.1466,-0.4133 -2.24,-0.4133 -1.8266,0 -2.7466,0.013 -3.6533,0.04 -0.9733,0.027 -1.9467,0.053 -3.88,0.053 -1.68,0 -2.4667,0.067 -3.3733,0.1467 -0.9734,0.08 -2.08,0.1866 -4.16,0.1866 h -7.5334 c -1.6133,0 -2.36,0.093 -3.2266,0.2 -1.0134,0.12 -2.1467,0.2534 -4.2934,0.2534 -1.8133,0 -2.72,0.027 -3.6133,0.067 -0.9867,0.027 -1.96,0.067 -3.92,0.067 -2.1467,0 -3.2933,-0.1333 -4.2933,-0.2533 -0.8667,-0.1067 -1.6267,-0.2 -3.24,-0.2 -1.76,0 -2.64,0.053 -3.52,0.093 -1,0.053 -2,0.1067 -4,0.1067 -1.7334,0 -2.6,0.067 -3.4667,0.12 -1,0.067 -2.0267,0.1466 -4.0667,0.1466 -2.6666,0 -4.1733,-0.56 -5.28,-0.96 -0.76,-0.28 -1.1466,-0.4133 -2.24,-0.4133 -1.3733,0 -1.96,0.1333 -2.76,0.32 -1.0533,0.24 -2.3733,0.5467 -4.76,0.5467 -2.3866,0 -3.6933,-0.2934 -4.7466,-0.5334 -0.8134,-0.1866 -1.4,-0.32 -2.7734,-0.32 -2.4533,0 -4.44,-1.9866 -4.44,-4.44 0,-2.4533 1.9867,-4.4533 4.44,-4.4533 2.3734,0 3.68,0.3067 4.7334,0.5467 0.8133,0.1733 1.4,0.3066 2.7866,0.3066 1.3734,0 1.9467,-0.1333 2.76,-0.32 1.0534,-0.24 2.3734,-0.5466 4.76,-0.5466 2.6667,0 4.1867,0.5466 5.28,0.96 0.76,0.2666 1.1467,0.4133 2.24,0.4133 1.7334,0 2.6,-0.067 3.4667,-0.12 1,-0.067 2.0267,-0.1333 4.0667,-0.1333 1.76,0 2.64,-0.053 3.52,-0.1067 1,-0.053 2,-0.1067 4,-0.1067 2.1466,0 3.2933,0.1467 4.2933,0.2667 0.8667,0.093 1.6267,0.1867 3.24,0.1867 1.8,0 2.7067,-0.027 3.6133,-0.053 0.9734,-0.04 1.96,-0.08 3.92,-0.08 1.6134,0 2.36,-0.08 3.2267,-0.1866 1.0133,-0.12 2.1467,-0.2534 4.2933,-0.2534 l 7.5334,-0.013 c 1.6933,0 2.4666,-0.067 3.3733,-0.1467 0.9733,-0.093 2.08,-0.1866 4.16,-0.1866 1.8267,0 2.7467,-0.027 3.6533,-0.04 0.9734,-0.027 1.9334,-0.053 3.88,-0.053 2.6667,0 4.1867,0.56 5.2934,0.96 0.76,0.28 1.1333,0.4134 2.24,0.4134 1.3066,0 1.84,-0.1334 2.6533,-0.3467 1.08,-0.28 2.4267,-0.6267 4.88,-0.6267 1.9067,0 2.8667,0 3.8133,0.013 0.9334,0.013 1.8667,0.013 3.7334,0.013 2.4533,0 4.4533,2 4.4533,4.4533 0,2.4534 -2,4.44 -4.4533,4.44 -1.9067,0 -2.8534,-0.013 -3.8134,-0.013 -0.9333,-0.013 -1.8666,-0.027 -3.7333,-0.027 -1.3067,0 -1.84,0.1467 -2.6533,0.3467 -1.08,0.2933 -2.4267,0.64 -4.88,0.64"
       style="fill:#362421;fill-opacity:1;fill-rule:nonzero;stroke:none;stroke-width:0.133333" />
    <path
       id="path222"
       d="m 1627.8133,1578.4534 c 0,2.44 -0.1867,4.96 -0.7867,7.2133 -0.6133,2.3333 -1.9866,4.4667 -3.16,6.52 -1.2,2.0667 -3.2133,3.48 -4.8933,5.16 -1.68,1.6933 -3.1867,3.5333 -5.2533,4.7333 -2.04,1.1867 -4.2934,1.92 -6.6267,2.5467 -2.2533,0.6 -4.5733,0.8 -7.0133,0.8 -2.4534,0 -4.84,0.1067 -7.1067,-0.4933 -2.3333,-0.6267 -4.72,-1.28 -6.76,-2.4667 -2.08,-1.2 -3.1333,-3.6533 -4.8133,-5.3467 -1.68,-1.68 -3.4534,-3.1333 -4.6534,-5.2 -1.1733,-2.04 -1.6933,-4.2666 -2.32,-6.6 -0.6,-2.2533 -2.4666,-4.4266 -2.4666,-6.8666 0,-2.4534 2.0133,-4.5867 2.6133,-6.84 0.6267,-2.3334 0,-5.16 1.1867,-7.2 1.2,-2.08 3.96,-2.96 5.64,-4.64 1.68,-1.68 3.1333,-3.4667 5.2,-4.6667 2.04,-1.1733 3.9733,-2.7867 6.3066,-3.4133 2.2534,-0.6 4.72,-0.16 7.1734,-0.16 2.44,0 4.9733,-0.68 7.2266,-0.08 2.3334,0.6266 4.0267,2.7733 6.08,3.9466 2.0667,1.2 4.2134,2.16 5.8934,3.84 1.68,1.68 4.0533,3.0134 5.2533,5.0934 1.1733,2.04 0.8133,4.84 1.44,7.1733 0.6,2.2533 1.84,4.4933 1.84,6.9467"
       style="fill:#c17875;fill-opacity:1;fill-rule:nonzero;stroke:none;stroke-width:0.133333" />
    <path
       id="path223"
       d="m 1695.7466,1430.4534 c 2.28,-2.9734 -1.84,-3.3734 -4.5866,-7.08 -1.28,-1.7467 -2.6934,-3.8667 -4.3867,-6.0934 -1.4133,-1.8533 -3.7733,-3.2266 -5.4,-5.3066 -1.48,-1.9067 -2.64,-4.2 -4.2533,-6.1867 -1.56,-1.92 -3.6667,-3.4533 -5.2934,-5.3733 -1.6266,-1.9334 -2.3733,-4.6267 -4.0266,-6.4667 -1.7067,-1.92 -3.56,-3.68 -5.24,-5.4133 -1.84,-1.9067 -3.8,-3.5734 -5.5467,-5.1467 -2.0533,-1.8667 -3.9067,-3.7733 -5.72,-5 -2.3333,-1.5867 -5.2933,-2 -7.64,-3.0933 -2.6133,-1.2267 -5.1733,-1.9867 -7.64,-2.6 -2.8933,-0.72 -5.5733,-2.0934 -8,-1.9734 -3.0933,0.16 -5.44,2.0267 -7.32,3.5467 -1.9867,1.6267 -2.8933,4.3733 -2.8933,7.5467 -2.7334,2.1066 -3.0934,-1.5867 -6.9734,-2.9867 -1.9066,-0.6933 -4.2266,-1.04 -6.6666,-1.68 -2.1334,-0.5733 -4.3334,-1.1867 -6.68,-1.52 -2.2667,-0.3333 -4.4934,-0.32 -6.8,-0.2933 -2.3334,0.027 -4.7867,-0.9467 -6.9867,-0.3867 -2.9467,0.76 -4.4267,3.0267 -5.9733,4.4 -2.1734,1.9067 -2.9067,3.7467 -3.3067,5.9333 -0.7333,3.9067 1.56,4.0267 -0.2,7.32 -1.68,3.16 -3.0267,0.3467 -7.3067,0.44 -2.0933,0.04 -4.56,-0.6533 -7.16,-0.3066 -2.2666,0.2933 -4.8666,-0.013 -7.2533,0.6533 -2.2667,0.6267 -4.6133,1.6667 -6.7867,2.7333 -2.12,1.0534 -4.4533,2.2534 -6.2933,3.8267 -1.9867,1.6933 -3.1867,3.8667 -4.0933,5.5067 -1.24,2.2666 -1.64,4.72 -1.4,6.6933 0.2666,2.3467 2,4.2 3.32,5.7733 1.8666,2.2134 4.4133,3.76 5.72,3.5734 -1.0534,3.0666 -2.5734,1.8666 -4.0534,5.2 -0.8,1.7733 -0.32,4.0666 -0.4666,6.4 -0.1334,2 -1.4,4.3066 -0.5867,6.5466 0.9067,2.44 3.28,3.68 5.2133,4.9867 1.88,1.2667 3.8534,3.36 6.48,3.4533 2.1734,0.093 4.4934,-1.5733 7.04,-2.3333 2.1067,-0.6267 4.32,-1.4133 6.6134,-2.6667 1.9733,-1.0666 4.4,-1.76 6.4666,-3.3066 1.6934,-1.28 3.9467,-1.96 6.6534,-2.9067 2.1333,-0.76 4.4,-1.5867 7.0533,-2.1333 2.2933,-0.48 4.7467,-0.5467 7.36,-0.8667 2.36,-0.2933 4.6933,-2.0533 7.28,-2.2267 2.4133,-0.16 4.92,-0.48 7.48,-0.5333 2.44,-0.04 4.9467,0.5733 7.4933,0.6267 2.4534,0.053 4.9734,-0.28 7.4934,-0.1334 2.4666,0.1334 4.8533,1.7334 7.3466,1.96 2.4667,0.24 5.1067,-0.8533 7.5734,-0.5333 2.48,0.32 4.72,2.1467 7.1733,2.56 2.48,0.4133 5.2667,-0.8933 7.68,-0.3867 2.48,0.52 4.6,2.44 6.9733,3.0534 2.4667,0.64 5.24,0.027 7.5734,0.76 2.4266,0.7733 4.68,2.9333 6.9333,3.8133 3.1867,-0.8667 3.0667,-1.52 5.9867,-3.08 2.92,-1.5467 2.7733,-1.84 5.6933,-3.4 2.92,-1.56 2.2533,-3.3867 5.44,-4.3067 3.52,-1.0133 4.88,1.0534 6.8933,-1.5866"
       style="fill:#2d1613;fill-opacity:1;fill-rule:nonzero;stroke:none;stroke-width:0.133333" />
    <path
       id="path224"
       d="m 1727.8533,1419.3334 z m -29.4133,70.76 c -1.4934,0 -2.8934,-0.053 -4.2267,-0.1734 -2.3333,-0.2133 -4.7067,-0.72 -7.0133,-1.2133 l -0.8267,-0.1733 c -2.4,-0.5067 -3.9333,-2.8667 -3.4267,-5.2667 0.5067,-2.4 2.8667,-3.9467 5.2667,-3.4267 l 0.84,0.1734 c 2.1467,0.4533 4.16,0.8933 5.96,1.0533 1.9867,0.1733 4.2,0.1867 6.7733,0.04 1.1334,-0.067 2.3867,-0.48 3.72,-0.92 0.9067,-0.2933 1.8,-0.5867 2.68,-0.8 0.8534,-0.2133 1.72,-0.3867 2.5734,-0.5467 1.44,-0.28 2.7866,-0.5466 3.72,-1 1.8266,-0.8933 3.6666,-2.0533 5.4666,-3.48 0.6534,-0.5333 1.3067,-1.52 2,-2.5733 0.5334,-0.8133 1.1467,-1.7467 1.88,-2.6267 0.5467,-0.6533 1.12,-1.28 1.68,-1.9066 1,-1.08 1.9334,-2.1067 2.5067,-3.12 1.1733,-2.08 2.1333,-4.12 2.8533,-6.04 0.4267,-1.1467 0.9334,-2.1734 1.4267,-3.16 0.5733,-1.16 1.1067,-2.2534 1.3067,-3.1467 0.2,-0.8933 0.16,-2.08 0.12,-3.3467 -0.027,-1.1333 -0.067,-2.32 0.04,-3.56 0.08,-0.9333 -0.1067,-2.08 -0.32,-3.2933 -0.1867,-1.08 -0.3734,-2.2 -0.44,-3.4133 -0.027,-0.7467 -0.053,-1.4667 -0.067,-2.1734 -0.027,-1.6666 -0.067,-3.0933 -0.3333,-4.28 -0.44,-1.9733 -1.2,-3.5866 -1.9334,-5.16 -0.2266,-0.4933 -0.4533,-0.9733 -0.6533,-1.44 -0.56,-1.28 -0.9467,-2.4666 -1.2933,-3.52 -0.24,-0.7333 -0.56,-1.72 -0.7867,-2.1333 -0.88,-0.4267 -2.64,-0.067 -4.2667,0.36 -1.76,0.4533 -4.3466,1.2 -6.3733,2.4267 -0.7333,0.44 -1.6,0.8533 -2.6933,1.3866 -1.0667,0.52 -2.3734,1.1467 -3.8134,1.9467 -0.24,0.1467 -0.8666,0.8267 -1.28,1.28 -1.0533,1.1333 -2.36,2.56 -4.24,3.5733 -1.7066,0.92 -3.52,1.1467 -4.9866,1.3334 -0.8,0.1066 -1.8,0.2266 -2.2,0.44 -0.7467,0.4 -1.56,0.9866 -2.4134,1.6133 -1.0533,0.76 -2.24,1.6267 -3.5866,2.3467 -1.3467,0.7066 -2.72,1.2 -3.9334,1.64 -1.0133,0.36 -1.96,0.7066 -2.72,1.1066 -0.8,0.4267 -1.64,1.04 -2.52,1.68 -1.0666,0.7867 -2.1733,1.6 -3.4666,2.28 -0.7067,0.3734 -1.4667,1.0267 -2.2667,1.72 -1.0133,0.8534 -2.16,1.84 -3.56,2.5734 -1.28,0.68 -2.52,1.3066 -3.6933,1.8933 -0.9467,0.48 -1.84,0.92 -2.6534,1.36 -2.3866,1.2533 -3.6266,1.5867 -4.8933,1.8667 -0.5867,0.12 -0.88,0.1866 -1.84,0.6933 -2.1733,1.1467 -4.8667,0.3067 -6,-1.8667 -1.1467,-2.1733 -0.32,-4.8533 1.8533,-6 1.88,-0.9866 2.9734,-1.2666 4.0934,-1.52 0.6266,-0.1333 1.1333,-0.24 2.6266,-1.04 0.8667,-0.4533 1.8134,-0.9333 2.8267,-1.44 1.1067,-0.56 2.2933,-1.1466 3.5333,-1.8 0.52,-0.28 1.2,-0.8666 1.9334,-1.48 1.08,-0.9333 2.3066,-1.9733 3.88,-2.8133 0.72,-0.3867 1.52,-0.9733 2.3733,-1.5867 1.04,-0.7733 2.2267,-1.64 3.6,-2.3733 1.3333,-0.7067 2.6933,-1.1867 3.8933,-1.6267 1.0134,-0.36 1.9734,-0.7066 2.7467,-1.12 0.8133,-0.4266 1.6533,-1.04 2.5467,-1.6933 1.0666,-0.76 2.16,-1.56 3.44,-2.2533 1.8533,-0.9867 3.76,-1.2267 5.3066,-1.4134 0.6267,-0.08 1.5734,-0.2 1.8667,-0.3333 0.5467,-0.3067 1.24,-1.0533 1.9067,-1.7733 0.96,-1.0534 2.0533,-2.24 3.56,-3.0667 1.5866,-0.8667 3.0133,-1.5733 4.2,-2.1333 0.84,-0.4134 1.52,-0.7334 2,-1.0267 3.0133,-1.8133 6.4133,-2.8133 8.7066,-3.4 2.44,-0.64 7.52,-1.9467 11.8,1.0667 2.3467,1.6533 3.2,4.2533 3.9467,6.5466 0.2933,0.9067 0.6,1.8267 0.9867,2.7067 0.1733,0.4133 0.3733,0.8267 0.5733,1.2533 0.84,1.8134 1.8933,4.0667 2.5467,6.9734 0.4533,2.04 0.5066,4.0666 0.5466,6.0266 0.013,0.64 0.027,1.2934 0.053,1.9734 0.04,0.6533 0.1733,1.4533 0.32,2.3066 0.28,1.64 0.6,3.5067 0.4133,5.6 -0.067,0.7067 -0.04,1.56 0,2.48 0.053,1.6667 0.1067,3.5734 -0.3333,5.56 -0.44,1.96 -1.28,3.6534 -2.0267,5.16 -0.4133,0.8267 -0.8,1.6134 -1.0667,2.32 -0.88,2.36 -2.0266,4.8134 -3.4266,7.2934 -1.0667,1.9066 -2.4667,3.4266 -3.6934,4.76 -0.4666,0.52 -0.9466,1.04 -1.4,1.5866 -0.4133,0.4934 -0.84,1.1467 -1.2933,1.84 -1,1.5067 -2.12,3.2267 -3.9067,4.64 -2.2933,1.8267 -4.6933,3.3467 -7.1066,4.52 -1.9734,0.96 -4.0667,1.36 -5.9067,1.72 -0.7067,0.1334 -1.4267,0.28 -2.1333,0.4534 -0.6667,0.16 -1.3467,0.3866 -2.04,0.6133 -1.72,0.5733 -3.68,1.2133 -5.96,1.3467 -1.36,0.08 -2.6534,0.12 -3.88,0.12"
       style="fill:#362421;fill-opacity:1;fill-rule:nonzero;stroke:none;stroke-width:0.133333" />
    <path
       id="path225"
       d="m 1680.5466,1475.8134 c -0.9333,0 -1.8666,-0.28 -2.6666,-0.88 -1.96,-1.48 -2.36,-4.2667 -0.8934,-6.2267 1.4267,-1.8933 2.5734,-2.9333 4.92,-3.32 0.3734,-0.053 0.9867,-0.16 2.84,-1.2133 0.4134,-0.24 1,-0.6667 1.6267,-1.1334 1.1067,-0.84 2.5067,-1.8666 4.2667,-2.8133 1.5333,-0.8133 3.1066,-1.04 4.4933,-1.24 0.9733,-0.1333 1.8933,-0.2667 2.4667,-0.56 l 2,-1.04 c 1.32,-0.68 2.7066,-1.4 4.2133,-2.1467 0.7867,-0.4 1.6133,-1.1333 2.4933,-1.92 1.2934,-1.1466 2.76,-2.4533 4.6934,-3.2 2.48,-0.96 4.84,-0.96 6.7333,-0.96 0.84,0 1.7067,0 2.1733,-0.1066 1.08,-0.2534 2.1334,-0.6934 3.24,-1.1467 1.7734,-0.7333 3.6267,-1.4933 5.72,-1.4933 0,0 0.013,0 0.027,0 h 1.4133 c 4.5867,0.013 5.48,0.16 8.92,2.6666 l 0.4534,0.3334 c 1.9866,1.44 2.44,4.2133 1,6.2 -1.44,2 -4.2134,2.44 -6.2134,1 L 1734,1456.2667 c -0.56,-0.4 -1.1867,-0.8667 -1.3867,-0.96 -0.1733,-0.013 -1.24,-0.013 -2.28,-0.013 h -1.4667 c -0.3866,0.027 -1.5066,0.4933 -2.3333,0.8266 -1.2533,0.52 -2.8267,1.1734 -4.6267,1.5867 -2.8666,0.6667 -5.8266,-0.027 -7.7066,0.7067 -0.4267,0.16 -1.2934,0.9333 -1.9867,1.5466 -1.1467,1.0267 -2.5867,2.3067 -4.4267,3.2267 -1.4533,0.72 -2.8133,1.4267 -4.08,2.0933 l -2.04,1.0534 c -1.9066,0.9733 -3.7733,1.24 -5.2666,1.4533 -0.5734,0.08 -1.36,0.2 -1.6134,0.3067 -1.1333,0.6 -2.1333,1.3466 -3.1066,2.0666 -0.84,0.64 -1.64,1.2267 -2.5334,1.7334 -2.4,1.3733 -3.8933,1.8666 -5.0266,2.12 0,0.013 -0.013,0.013 -0.013,0.027 -0.88,1.16 -2.2133,1.7734 -3.56,1.7734"
       style="fill:#362421;fill-opacity:1;fill-rule:nonzero;stroke:none;stroke-width:0.133333" />
    <path
       id="path226"
       d="m 1790.2,1875.52 c -2.5334,0 -3.92,-0.36 -5.04,-0.6533 -0.8667,-0.2133 -1.44,-0.36 -2.8534,-0.36 -2.76,0 -5.1866,-1.1333 -6.8266,-3.1733 -1.7467,-2.1867 -2.3734,-5.16 -1.7067,-8.1734 0.2267,-1.1866 0.1867,-1.7066 0.12,-2.5733 -0.093,-1.12 -0.2133,-2.5333 0.2267,-4.96 0.3866,-2.1333 0.7333,-3.2533 1.0266,-4.2267 0.2667,-0.8533 0.4934,-1.5866 0.7867,-3.2 0.36,-2.0266 0.6133,-3.0533 0.8667,-4.04 0.2133,-0.8533 0.4266,-1.7066 0.7333,-3.44 0.2267,-1.2 0.16,-1.6533 0.053,-2.4933 -0.1466,-1.1333 -0.3466,-2.68 0.1067,-5.24 0.4933,-2.68 1.3467,-4.0933 1.96,-5.1333 0.44,-0.72 0.64,-1.0534 0.8267,-2.12 0.2666,-1.4534 0.2533,-2.0934 0.24,-2.9734 -0.013,-1.0533 -0.027,-2.3733 0.3866,-4.68 0.4134,-2.3466 0.9334,-3.5866 1.3467,-4.5866 0.32,-0.8 0.56,-1.3734 0.8133,-2.7867 0.32,-1.8 0.4534,-2.6933 0.5734,-3.6 0.1466,-0.9867 0.28,-1.9867 0.64,-3.9333 0.2533,-1.4534 0.24,-2.08 0.2266,-2.9467 -0.027,-1.08 -0.053,-2.4 0.36,-4.7333 0.4,-2.2134 0.7867,-3.3467 1.1334,-4.36 0.28,-0.84 0.5066,-1.5067 0.7866,-3.0667 0.44,-2.4133 2.76,-4.0133 5.1734,-3.5867 2.4133,0.44 4.0133,2.7467 3.5733,5.16 -0.3867,2.2134 -0.7733,3.36 -1.12,4.36 -0.2933,0.8534 -0.52,1.52 -0.8,3.08 -0.2533,1.44 -0.24,2.0667 -0.2267,2.9467 0.027,1.0667 0.053,2.3867 -0.36,4.72 -0.32,1.7867 -0.4533,2.6933 -0.5733,3.5867 -0.1467,1 -0.28,1.9866 -0.64,3.96 -0.4267,2.3466 -0.9333,3.5866 -1.3467,4.5866 -0.32,0.7867 -0.56,1.36 -0.8133,2.7734 -0.2667,1.4533 -0.2533,2.0933 -0.24,2.9733 0.013,1.0533 0.04,2.3733 -0.3867,4.68 -0.48,2.68 -1.3333,4.1067 -1.96,5.1333 -0.4266,0.72 -0.6266,1.0534 -0.8266,2.1334 -0.2134,1.2 -0.1467,1.6533 -0.04,2.4933 0.1466,1.1333 0.3466,2.68 -0.12,5.24 -0.36,2.0133 -0.6134,3.04 -0.8534,4.0133 -0.2266,0.8667 -0.44,1.72 -0.7466,3.4534 -0.3867,2.1466 -0.7334,3.2533 -1.0267,4.24 -0.2667,0.84 -0.4933,1.5733 -0.7867,3.2 -0.2266,1.28 -0.1866,1.84 -0.12,2.6666 0.093,1.1467 0.2134,2.5867 -0.2666,5.0667 -0.067,0.3067 -0.08,0.52 -0.08,0.6667 2.52,0.027 3.8666,0.3733 4.96,0.64 0.8533,0.2266 1.4266,0.3733 2.84,0.3733 1.9066,0 2.8533,-0.027 3.8,-0.067 1.0266,-0.027 2.0533,-0.067 4.0933,-0.067 1.5867,0 2.2933,-0.12 3.1733,-0.28 1.1067,-0.1867 2.36,-0.4 4.7067,-0.4 1.96,0 2.9333,-0.013 3.92,-0.013 0.9867,0 1.9733,-0.013 3.96,-0.013 1.4133,0 1.9733,-0.1467 2.84,-0.36 1.12,-0.2933 2.5067,-0.6533 5.04,-0.6533 2.12,0 3.2,0.08 4.2533,0.1466 0.9334,0.067 1.8134,0.1334 3.6267,0.1334 1.9333,0 2.9067,-0.013 3.88,-0.027 1,-0.013 2,-0.027 4,-0.027 2.1733,0 3.3333,0.1067 4.36,0.2 0.9333,0.093 1.76,0.1734 3.52,0.1734 1.68,0 2.4667,-0.1067 3.3733,-0.2134 1.0534,-0.1333 2.24,-0.2933 4.4934,-0.2933 0.08,0 0.1466,0 0.2133,0 0.2,-2.5333 0.7867,-3.9333 1.2133,-4.9733 0.32,-0.7734 0.48,-1.1734 0.5467,-2.32 0.1067,-1.88 0.1333,-2.8267 0.16,-3.76 0.04,-0.9734 0.067,-1.96 0.1733,-3.9067 0.093,-1.7467 0.08,-2.6 0.053,-3.4933 -0.027,-0.9734 -0.053,-2.0934 0.067,-4.1734 0.053,-1.0266 -0.067,-1.36 -0.3466,-2.16 -0.4,-1.1733 -0.96,-2.7733 -0.8134,-5.56 0.1067,-1.96 0.1734,-2.9333 0.2267,-3.9066 0.067,-0.9334 0.1333,-1.8667 0.24,-3.7334 0.1067,-2.1866 0.32,-3.3333 0.4933,-4.3466 0.16,-0.88 0.2934,-1.64 0.3867,-3.2667 0.1067,-2.1333 0.28,-3.2533 0.4267,-4.24 0.1333,-0.9067 0.2533,-1.6933 0.3466,-3.3867 0.067,-1.2533 -0.04,-1.8666 -0.1733,-2.6533 -0.2,-1.24 -0.4533,-2.7733 -0.04,-5.5333 0.5067,-3.2934 2.0267,-4.7067 3.4133,-5.7734 0.5067,-0.4 0.68,-0.5333 1.04,-1.4266 0.1867,-0.4667 0.3334,-1.36 0.4667,-2.24 0.2133,-1.3334 0.48,-2.9867 1.0933,-4.7067 0.5334,-1.44 1.32,-2.68 2.0267,-3.76 0.5867,-0.92 1.1467,-1.7733 1.3867,-2.5333 0.1733,-0.5067 0.2,-1.4534 0.24,-2.3734 0.053,-1.4133 0.12,-3.0266 0.6133,-4.7333 0.44,-1.52 1.16,-2.8267 1.7733,-3.9733 0.5067,-0.92 0.9867,-1.8 1.16,-2.5067 0.1734,-0.68 0.1867,-1.6667 0.1867,-2.7067 0.013,-1.3066 0.027,-2.8 0.3467,-4.36 0.3333,-1.56 0.9333,-2.92 1.4666,-4.1333 0.4134,-0.9467 0.8134,-1.84 0.92,-2.52 0.1867,-1.2533 0.2667,-2.6 0.3467,-4.0267 0.053,-0.9733 0.1067,-1.9466 0.2,-2.92 0.067,-0.72 -0.1067,-1.72 -0.28,-2.7733 -0.2,-1.2267 -0.44,-2.6267 -0.4133,-4.12 0.04,-1.48 0.2933,-2.8267 0.5333,-4.0267 0.2,-1.0533 0.3867,-2.0533 0.3467,-2.76 -0.1467,-2 -0.4534,-4.1733 -0.9334,-6.6266 -0.4133,-2.12 -1.16,-4.24 -1.8933,-6.2267 -0.36,-1 -0.6667,-2.0267 -0.96,-3.0533 -0.3867,-1.3067 -0.7467,-2.5334 -1.2267,-3.52 -0.5733,-1.1867 -1.3466,-2.3867 -2.1866,-3.6534 -0.4934,-0.76 -0.9734,-1.5066 -1.44,-2.2533 -0.76,-1.28 -1.72,-2.52 -2.72,-3.84 -0.4534,-0.5867 -0.8934,-1.16 -1.3334,-1.76 -0.8,-1.08 -1.44,-2.2267 -2,-3.2267 -0.5866,-1.0533 -1.1333,-2.04 -1.72,-2.6933 -0.4,-0.4667 -1.2533,-0.9867 -2.16,-1.52 -1.1333,-0.68 -2.4266,-1.4533 -3.6,-2.5733 -0.8933,-0.8667 -1.9466,-1.6534 -3.0666,-2.48 -0.7867,-0.6 -1.5867,-1.1867 -2.3467,-1.8134 -1.4,-1.16 -2.32,-2.52 -3.12,-3.72 -0.4933,-0.72 -1.0533,-1.5466 -1.4133,-1.8133 -1,-0.7067 -2.16,-1.3333 -3.3867,-2 -0.92,-0.4933 -1.84,-0.9867 -2.72,-1.52 -1.4,-0.8533 -2.88,-1.6133 -4.4533,-2.4133 l -1.7334,-0.8934 c -0.68,-0.3466 -1.6933,-0.5866 -2.76,-0.8266 -1.2266,-0.28 -2.6133,-0.6 -4,-1.2134 -0.8133,-0.36 -1.5866,-0.72 -2.3733,-1.0933 -1.3867,-0.6533 -2.6933,-1.2667 -3.9867,-1.7333 -1.6266,-0.6 -2.9466,-1.48 -4.1066,-2.2667 -0.7867,-0.5333 -1.6,-1.08 -2.1067,-1.2267 -0.4667,-0.1333 -1.36,-0.1733 -2.2133,-0.2 -1.44,-0.067 -3.24,-0.1333 -5.1067,-0.68 -1.44,-0.4266 -2.6933,-1.04 -3.9067,-1.64 -1.0133,-0.4933 -1.96,-0.96 -2.8533,-1.2266 -0.9867,-0.2934 -2,-0.56 -3.04,-0.8134 -1.32,-0.3333 -2.68,-0.68 -4.0133,-1.1066 -1.32,-0.4 -2.56,-0.8934 -3.7734,-1.36 -1.0266,-0.4 -2.0533,-0.8 -3.12,-1.1467 -1.3866,-0.44 -2.6533,-1.0133 -3.88,-1.56 -1.0266,-0.4533 -1.9866,-0.88 -2.92,-1.2 -0.8266,-0.2667 -1.8266,-0.4667 -2.88,-0.6533 -1.3066,-0.2534 -2.8,-0.5334 -4.2933,-1.0667 -1.3467,-0.4667 -2.6667,-1 -3.9733,-1.5333 -0.96,-0.4 -1.9067,-0.7734 -2.8667,-1.1334 -0.72,-0.2666 -1.68,-0.4266 -2.7067,-0.5866 -1.3866,-0.24 -2.96,-0.4934 -4.5333,-1.12 -1.48,-0.5734 -2.7867,-1.2667 -4.04,-1.9467 -0.9333,-0.48 -1.8,-0.9467 -2.6267,-1.3067 -0.9333,-0.4 -1.88,-0.7466 -2.8,-1.0933 -1.36,-0.5067 -2.76,-1.0267 -4.1333,-1.68 -1.6667,-0.8 -3.04,-1.7867 -4.2533,-2.6667 -0.76,-0.56 -1.48,-1.0666 -2.1067,-1.4266 -0.7867,-0.4267 -1.68,-0.7867 -2.6267,-1.16 -1.48,-0.6 -3.0133,-1.2134 -4.44,-2.2267 -2.56,-1.8267 -4.1333,-4.0533 -5.2933,-5.68 l -0.5467,-0.76 c -1.52,-2.0667 -2.7066,-4.6667 -3.64,-7.96 -0.5333,-1.8933 -0.76,-3.7867 -1,-5.8 -0.08,-0.6267 -0.16,-1.28 -0.2533,-1.9467 -0.08,-0.6666 -0.3333,-1.4933 -0.5867,-2.3866 -0.4266,-1.48 -0.9066,-3.16 -1.04,-5.08 -0.12,-1.84 0.2667,-3.4934 0.6,-4.9467 0.2267,-0.9733 0.44,-1.8933 0.4134,-2.5733 -0.013,-0.72 -0.2134,-1.64 -0.4134,-2.6134 -0.2933,-1.4 -0.64,-3 -0.64,-4.7733 0,-1.6 0.2667,-3.0933 0.4934,-4.4267 0.1866,-1.0533 0.36,-2.0533 0.3733,-2.92 0.027,-0.92 -0.08,-1.9466 -0.1867,-3.04 -0.1333,-1.2933 -0.28,-2.7733 -0.2533,-4.3066 0.027,-0.8267 -0.12,-1.84 -0.2667,-2.8934 -0.1866,-1.3333 -0.4,-2.8266 -0.36,-4.4266 0.04,-1.4267 0.2134,-2.76 0.3734,-4.0534 0.1466,-1.1466 0.28,-2.2133 0.2933,-3.2133 0.027,-1.0267 -0.067,-2.1333 -0.16,-3.2933 -0.093,-1.2667 -0.2,-2.5734 -0.1867,-3.96 0.027,-1.64 0.3467,-3.1467 0.6267,-4.4667 0.2133,-1.0267 0.4133,-1.9867 0.4133,-2.7333 0,-1.1867 -0.1066,-2.4134 -0.2133,-3.7067 -0.093,-1.1733 -0.1867,-2.32 -0.2133,-3.4667 -0.04,-1.2533 -0.1867,-2.5066 -0.3467,-3.8533 -0.1333,-1.0933 -0.2533,-2.1733 -0.32,-3.2267 -0.12,-1.6933 0.1067,-3.24 0.3067,-4.6 0.1466,-1.0533 0.2933,-2.0266 0.2133,-2.68 -0.1067,-0.88 -0.48,-1.9066 -0.8667,-3 -0.4266,-1.1866 -0.92,-2.52 -1.1733,-3.9733 -0.2,-1.1733 -0.5733,-2.3467 -0.9867,-3.6 -0.3333,-1.0533 -0.68,-2.1467 -0.9466,-3.2933 -0.4,-1.6934 -0.4267,-3.2667 -0.4534,-4.6667 -0.027,-1.0133 -0.04,-1.9733 -0.2133,-2.5467 -0.28,-0.9466 -0.84,-1.9333 -1.4533,-2.9866 -0.6134,-1.08 -1.2534,-2.1867 -1.72,-3.48 -0.4667,-1.2667 -0.84,-2.48 -1.1734,-3.6267 -0.3733,-1.24 -0.6933,-2.3067 -1.0533,-3.0933 -1.0267,-2.2667 -1.2667,-2.5867 -1.76,-3.2134 -0.4,-0.52 -0.9467,-1.2266 -1.7867,-2.5333 -1.32,-2.0667 -0.7066,-4.8133 1.3734,-6.1333 2.0666,-1.3067 4.8133,-0.7067 6.1333,1.3733 0.6,0.9467 0.9733,1.4267 1.28,1.8267 0.9467,1.2133 1.5467,2.0933 2.8667,5.0133 0.6,1.3333 1.0133,2.7333 1.4533,4.2133 0.2933,0.9867 0.6133,2.0267 1.0133,3.12 0.2,0.5734 0.6267,1.32 1.08,2.1067 0.76,1.3067 1.6934,2.9467 2.28,4.8933 0.5067,1.72 0.5334,3.4 0.5734,4.8934 0.013,1.0533 0.027,2.04 0.2133,2.8266 0.2,0.8534 0.48,1.7067 0.76,2.5867 0.4533,1.4133 0.9733,3.0267 1.28,4.8 0.12,0.68 0.44,1.5467 0.7733,2.4667 0.52,1.44 1.1067,3.08 1.3334,4.9733 0.2133,1.8133 -0.027,3.5067 -0.24,5 -0.1467,1.0267 -0.2934,1.9867 -0.24,2.7467 0.067,0.92 0.1733,1.84 0.28,2.7733 0.1733,1.48 0.36,3 0.4,4.6533 0.027,0.9734 0.1066,1.9734 0.1866,2.9734 0.12,1.4133 0.24,2.8666 0.2534,4.4266 0,1.6667 -0.32,3.2134 -0.6134,4.5734 -0.2133,1.0133 -0.4133,1.9866 -0.4266,2.7733 -0.013,0.96 0.067,2 0.16,3.1067 0.1066,1.3466 0.2266,2.7333 0.1866,4.2266 -0.04,1.44 -0.2,2.8 -0.3733,4.1067 -0.1333,1.12 -0.2667,2.1867 -0.2933,3.1733 -0.027,0.8534 0.12,1.88 0.2666,2.9467 0.1867,1.32 0.4,2.8 0.36,4.36 -0.027,0.9867 0.08,2.0667 0.2,3.2 0.1334,1.2933 0.2667,2.64 0.24,4.0667 -0.027,1.5733 -0.28,3.04 -0.5066,4.32 -0.1867,1.0666 -0.36,2.0666 -0.36,2.8933 0,0.84 0.2133,1.8533 0.44,2.9333 0.2666,1.2667 0.5733,2.6934 0.6133,4.24 0.04,1.7867 -0.32,3.3867 -0.64,4.7867 -0.2133,0.8933 -0.4267,1.8267 -0.4,2.36 0.067,0.96 0.3867,2.0533 0.72,3.2 0.3333,1.1467 0.6667,2.3333 0.8533,3.64 0.093,0.72 0.1867,1.4133 0.2667,2.0933 0.2133,1.7334 0.3867,3.2267 0.7333,4.4667 0.6267,2.2267 1.36,3.8933 2.24,5.0933 l 0.64,0.8934 c 0.92,1.2933 1.8667,2.6266 3.2,3.5733 0.56,0.4 1.5334,0.7867 2.5734,1.2 1.1066,0.4533 2.36,0.9467 3.64,1.6533 1.0933,0.6134 2.0666,1.32 3,2 1,0.72 1.9466,1.4 2.88,1.84 1.0266,0.4934 2.1866,0.92 3.4133,1.3867 1.0533,0.3867 2.1333,0.7867 3.1867,1.2533 1.1733,0.4934 2.2533,1.0667 3.2933,1.6267 1.0933,0.5733 2.1333,1.12 3.1467,1.52 0.6933,0.28 1.6666,0.44 2.7066,0.6133 1.32,0.2134 2.8267,0.4534 4.36,1.0267 1.04,0.3867 2.08,0.8 3.12,1.2267 1.1867,0.48 2.3734,0.9733 3.5734,1.4 0.8666,0.2933 1.9066,0.4933 3,0.6933 1.24,0.24 2.64,0.5067 4.0533,0.9733 1.3333,0.4534 2.5333,0.9867 3.7067,1.5067 1.0533,0.48 2.0533,0.92 3,1.2267 1.2266,0.4 2.4266,0.8533 3.6133,1.32 1.0667,0.4133 2.12,0.8266 3.1867,1.16 1.1866,0.3733 2.3733,0.6666 3.5466,0.96 1.1734,0.3066 2.3334,0.6 3.44,0.9333 1.5867,0.48 2.9734,1.16 4.1867,1.7467 0.9333,0.4666 1.8,0.8933 2.52,1.1066 0.8,0.2267 1.8267,0.2667 2.92,0.32 1.3333,0.04 2.84,0.1067 4.3467,0.5334 1.8533,0.5466 3.32,1.5333 4.6266,2.4 0.8,0.5466 1.56,1.0666 2.1734,1.2933 1.6533,0.6 3.2133,1.3333 4.72,2.04 0.7066,0.3333 1.44,0.6667 2.1733,1 0.6133,0.2667 1.4933,0.4667 2.4133,0.68 1.4934,0.3467 3.1734,0.7333 4.8667,1.6133 l 1.6533,0.84 c 1.6534,0.8534 3.36,1.72 5.0534,2.7467 0.7466,0.4667 1.5333,0.88 2.32,1.3067 1.4,0.76 2.8533,1.5466 4.2933,2.56 1.6933,1.2 2.7733,2.8133 3.6533,4.1066 0.4934,0.7334 1,1.48 1.4,1.8134 0.6534,0.5333 1.3334,1.04 2.0134,1.5466 1.2933,0.96 2.6133,1.96 3.92,3.2 0.4266,0.4267 1.1866,0.88 1.9866,1.36 1.3867,0.8267 2.9467,1.76 4.28,3.2667 1.2134,1.3867 2.0667,2.9067 2.8134,4.24 0.4666,0.8533 0.92,1.6667 1.3866,2.2933 0.4,0.5467 0.8134,1.08 1.2267,1.6267 1.1067,1.44 2.2533,2.9467 3.28,4.64 0.4,0.6667 0.8267,1.32 1.2667,1.9733 0.9466,1.4534 1.9333,2.96 2.76,4.68 0.7866,1.64 1.2666,3.28 1.7333,4.8667 0.2533,0.84 0.4933,1.68 0.7867,2.4933 0.8133,2.2267 1.7333,4.8267 2.2666,7.5867 0.56,2.8133 0.9067,5.3333 1.08,7.6933 0.1334,1.88 -0.2,3.5867 -0.4933,5.0934 -0.1733,0.92 -0.3467,1.8 -0.36,2.52 -0.013,0.6533 0.1333,1.5333 0.28,2.4533 0.2533,1.5067 0.5467,3.2133 0.3733,5.0933 -0.08,0.8534 -0.1333,1.72 -0.1866,2.5867 -0.08,1.5733 -0.1734,3.2 -0.44,4.88 -0.28,1.8267 -0.96,3.3733 -1.56,4.7467 -0.3867,0.88 -0.76,1.7066 -0.88,2.3466 -0.16,0.72 -0.16,1.6534 -0.1734,2.64 -0.013,1.4534 -0.027,3.0934 -0.4533,4.7867 -0.4533,1.8 -1.2533,3.28 -1.9733,4.5867 -0.4534,0.8266 -0.8667,1.6133 -1.0534,2.2133 -0.1866,0.6667 -0.2266,1.6133 -0.2666,2.6133 -0.053,1.4534 -0.12,3.0934 -0.6667,4.7867 -0.6133,1.84 -1.5867,3.36 -2.3733,4.5733 -0.48,0.76 -0.9467,1.48 -1.1334,1.9734 -0.3333,0.92 -0.4933,1.9733 -0.6666,3.08 -0.2267,1.3466 -0.44,2.7466 -0.9867,4.12 -1.1733,2.9333 -2.6267,4.2133 -3.8933,5.1866 0,0.013 -0.013,0.027 -0.027,0.027 0,0.013 -0.013,0.027 -0.013,0.04 -0.2,1.3733 -0.1334,1.8267 0.027,2.7333 0.16,1 0.3867,2.3734 0.28,4.6 -0.12,2.12 -0.2933,3.24 -0.44,4.2267 -0.1333,0.9067 -0.2533,1.6933 -0.3466,3.3867 -0.1067,2.1866 -0.32,3.3333 -0.4934,4.3466 -0.16,0.88 -0.2933,1.64 -0.3866,3.28 -0.093,1.92 -0.16,2.8934 -0.2267,3.8534 -0.067,0.9466 -0.1333,1.88 -0.24,3.7866 -0.053,1.0267 0.067,1.36 0.3467,2.16 0.4,1.1734 0.9733,2.7734 0.8133,5.56 -0.093,1.7334 -0.067,2.5867 -0.04,3.48 0.013,0.9867 0.04,2.0934 -0.067,4.1867 -0.1066,1.8533 -0.1333,2.7867 -0.16,3.72 -0.04,0.9867 -0.067,1.96 -0.1733,3.9333 -0.1467,2.68 -0.7733,4.1867 -1.2267,5.2667 -0.32,0.7867 -0.48,1.1867 -0.5466,2.3333 -0.3467,4.88 -3.9867,8.12 -9.08,8.12 -1.68,0 -2.4667,0.1067 -3.3734,0.2134 -1.0533,0.1333 -2.2533,0.2933 -4.4933,0.2933 -2.1867,0 -3.3467,-0.12 -4.36,-0.2133 -0.9467,-0.093 -1.76,-0.16 -3.52,-0.16 -1.9467,0 -2.92,0.013 -3.88,0.027 -1,0.013 -2,0.027 -4,0.027 -2.1333,0 -3.2133,-0.08 -4.2533,-0.16 -0.9334,-0.053 -1.8134,-0.12 -3.6267,-0.12 -1.4133,0 -1.9733,0.1467 -2.84,0.36 -1.12,0.2933 -2.5067,0.6533 -5.04,0.6533 -1.96,0 -2.9333,0 -3.92,0 -0.9867,0.013 -1.9733,0.013 -3.96,0.013 -1.5867,0 -2.28,0.1333 -3.1733,0.28 -1.1067,0.2 -2.3467,0.4133 -4.7067,0.4133 -1.8933,0 -2.8533,0.027 -3.8,0.067 -1.0267,0.027 -2.04,0.067 -4.0933,0.067"
       style="fill:#362421;fill-opacity:1;fill-rule:nonzero;stroke:none;stroke-width:0.133333" />
  </g>
</svg>
