<?xml version="1.0" encoding="UTF-8" standalone="no"?>
<!-- Created with Inkscape (http://www.inkscape.org/) -->

<svg
   version="1.1"
   id="svg1"
   width="481.2605"
   height="475.99896"
   viewBox="0 0 481.26049 475.99897"
   xmlns="http://www.w3.org/2000/svg"
   xmlns:svg="http://www.w3.org/2000/svg">
  <defs
     id="defs1" />
  <g
     id="g1"
     transform="translate(-830.0016,-543.21502)">
    <path
       id="path2"
       d="M 2666.6666,2962.96 H 0 V 7.4074e-5 H 2666.6666 V 2962.96"
       style="display:none;fill:#fef5e6;fill-opacity:1;fill-rule:nonzero;stroke:none;stroke-width:0.133333" />
    <path
       id="path31"
       d="m 959.90398,611.68006 -11.67867,2 -7.37067,0.93333 -16.49466,2.44 h -20.98 l -17.86,-8.52 h -20.68 l -18.65733,6.2 c 0,0 -15.57467,17.50667 -11.84534,31 3.72934,13.49333 9.37334,30.94667 25.572,39.97333 16.19733,9.02667 21.48533,12.90667 36.92267,12.89334 15.43733,0 30.50933,-8.88 30.50933,-8.88 0,0 -5.73333,36.09333 5.01067,78.54666 10.74266,42.44 10.74266,42.44 10.74266,42.44 0,0 -21.85866,15.13333 -17.26,67.65333 4.59867,52.52 17.36,89.02667 17.36,89.02667 l 11.59467,44.02668 5.11467,4.48 21.93066,-2.32 h 13.91334 l 10.69202,2.32 0.1293,-5.0134 v -32.46662 c 0,0 25.8627,12.14667 61.82,11.68 35.9573,-0.48 55.7293,-10.52 55.7293,-10.52 l 1.8707,36.32002 6.184,-2.32 h 30.144 12.8147 l 16.1706,-62.52002 7.9307,-34.77333 c 0,0 6.88,-26.37333 6.0067,-46.85333 -0.872,-20.48 -2.688,-33.62667 -2.688,-33.62667 l -3.8707,-16.58666 -8.0653,-16.56 8.0306,-48.01333 3.44,-30.92 -1.236,-35.14667 c 0,0 17.1374,10.53333 38.384,9.12 21.2467,-1.41333 42.7587,-9.90667 56.3507,-32.90667 13.592,-23 11.1507,-41.23999 11.1507,-41.23999 0,0 -1.7347,-21.21334 -21.4827,-20.02667 -19.7467,1.17333 -35.672,11.22667 -35.672,11.22667 l -23.34,7.48 -27.696,-0.14667 -5.2347,0.77333 -15.5666,-8.08 -21.9,-19.36 -27.172,-8.8 -21.0827,-4.21333 -29.136,-3.33333 -44.8307,0.77333 -29.968,6.49333 -9.24662,1.36 -9.64267,6.2 -24.86133,17.78667"
       style="fill:#be7d6a;fill-opacity:1;fill-rule:nonzero;stroke:none;stroke-width:0.133333" />
    <path
       id="path32"
       d="m 980.62664,569.74673 -15.40933,-14.36 -12.75467,-7.89334 c 0,0 -5.40533,18.97334 -2.12666,35.04 l 5.00266,23.21334 c 0,0 -1.208,10.06666 7.31734,3.96 8.52533,-6.09334 18.916,-14.06667 18.916,-14.06667 0,0 15.032,-5.29333 10.42266,-11.54667 -4.60933,-6.26666 -11.368,-14.34666 -11.368,-14.34666"
       style="fill:#e9af6c;fill-opacity:1;fill-rule:nonzero;stroke:none;stroke-width:0.133333" />
    <path
       id="path33"
       d="m 1064.128,808.66672 c -2.3854,-0.12 -4.7574,-0.89333 -7.1974,-0.84 -2.3946,0.0533 -4.8146,0.0267 -7.2386,0.24 -2.3934,0.21333 -4.7854,0.57333 -7.184,0.94667 -2.38,0.37333 -4.6054,1.48 -6.968,2.01333 -2.3547,0.53333 -4.8947,0.32 -7.2094,1.01333 -2.316,0.69334 -4.624,1.45334 -6.8786,2.32 -2.2614,0.86667 -4.132,2.58667 -6.3094,3.62667 -2.1893,1.04 -4.5013,1.76 -6.5813,2.97333 -2.096,1.22667 -3.7253,3.06667 -5.6853,4.45334 -1.9734,1.41333 -3.85736,2.78666 -5.67069,4.37333 -1.81867,1.6 -4.69467,2.12 -6.32667,3.89333 -1.63066,1.78667 -3.34666,3.64 -4.76666,5.6 -1.40667,1.94667 -2.43867,4.26667 -3.616,6.4 -1.156,2.09334 -1.31734,4.70667 -2.22934,6.97334 -0.97466,2.42666 -2.944,4.52 -3.544,6.96 -0.62666,2.53333 0.22934,5.29333 0.036,7.8 -0.2,2.58666 0.036,5.02666 0.32134,7.56 0.288,2.53333 0.45333,5.01333 1.26266,7.46666 0.78934,2.37334 1.37467,4.90667 2.68534,7.17334 1.24266,2.14666 2.86,4.16 4.59333,6.17333 1.60267,1.85333 3.61867,3.42666 5.66,5.16 1.86933,1.57333 3.296,4.01333 5.54667,5.46666 2.05866,1.32 4.58002,2.18667 6.96932,3.38667 2.192,1.10667 4.992,1.08 7.4693,2.06667 2.2827,0.90666 4.2054,3.10666 6.7374,3.92 2.3493,0.74666 4.832,1.50666 7.4026,2.17333 2.396,0.61333 5.08,0.41333 7.6707,0.93333 2.4307,0.49334 4.7987,1.85334 7.4027,2.26667 2.4573,0.38667 5.0946,0.13333 7.7093,0.45333 2.476,0.29334 5.092,-0.17333 7.712,0.0533 2.4907,0.21333 5.0267,0.46666 7.6493,0.61333 2.5307,0.14667 4.9614,1.2 7.3654,1.24 2.5386,0.04 5.0293,-0.04 7.4293,-0.12 2.5427,-0.08 5.06,0.12 7.448,-0.08 2.5373,-0.21333 5.0453,-0.42667 7.4133,-0.77333 2.5227,-0.37334 4.972,-0.97334 7.3054,-1.48 2.496,-0.54667 4.7466,-1.81334 7.032,-2.49334 2.4453,-0.73333 4.824,-1.42666 7.036,-2.32 2.3706,-0.94666 4.772,-1.70666 6.8813,-2.81333 2.2587,-1.18667 4.4627,-2.42667 6.432,-3.77333 2.1013,-1.44 3.864,-3.26667 5.648,-4.85334 1.892,-1.69333 3.1293,-3.90666 4.68,-5.74666 1.6293,-1.93334 3.5333,-3.56 4.8013,-5.62667 1.3214,-2.13333 2.2134,-4.45333 3.1627,-6.68 0.9813,-2.30666 1.1987,-4.77333 1.8053,-7.12 0.6227,-2.42666 2.5587,-4.58666 2.8107,-7.01333 0.2587,-2.48 -0.6813,-5.02667 -0.7867,-7.46667 -0.108,-2.49333 0.676,-5.13333 0.2134,-7.52 -0.476,-2.45333 -2.2054,-4.6 -3.028,-6.88 -0.872,-2.41333 -2.2907,-4.48 -3.528,-6.66666 -1.2534,-2.2 -2.6747,-4.17334 -4.2627,-6.14667 -1.5773,-1.97333 -2.8947,-4.12 -4.7627,-5.86667 -1.832,-1.70666 -3.5146,-3.66666 -5.5893,-5.17333 -2.024,-1.46667 -3.9307,-3.29333 -6.152,-4.57333 -2.168,-1.25334 -4.8827,-1.6 -7.2053,-2.68 -2.2734,-1.06667 -4.752,-1.64 -7.144,-2.54667 -2.3534,-0.89333 -4.6614,-1.88 -7.1,-2.62667 -2.4147,-0.74666 -4.66,-2.13333 -7.1307,-2.74666 -2.4613,-0.6 -4.8707,-1.6 -7.3613,-2.08 -2.4987,-0.46667 -5.0867,-0.57334 -7.5867,-0.93334 -2.5293,-0.34666 -5.1627,0.29334 -7.6653,0.0667 -2.556,-0.24 -5.088,0 -7.584,-0.12"
       style="fill:#f5b2af;fill-opacity:1;fill-rule:nonzero;stroke:none;stroke-width:0.133333" />
    <path
       id="path34"
       d="m 906.31731,664.48006 -28.70133,-4.21334 c 0,0 -20.25467,0.10667 -22.512,8.72 -2.25867,8.61334 -2.85333,10.65334 4.80533,16.72 7.65733,6.06667 18.22133,10.70667 29.04267,12.89334 10.82133,2.18666 28.576,-4.30667 28.576,-4.30667 0,0 7.544,1.48 10.94,-10.16 3.39733,-11.62667 4.952,-16.04 4.952,-16.04 0,0 1.664,-6.14667 -4.784,-3.6 -6.44667,2.54667 -22.31867,-0.0133 -22.31867,-0.0133"
       style="fill:#de7e81;fill-opacity:1;fill-rule:nonzero;stroke:none;stroke-width:0.133333" />
    <path
       id="path35"
       d="m 1253.7773,658.77339 c 0,0 -18.576,6.58667 -24.98,6.53333 -6.404,-0.04 -26.7107,-5.12 -26.7107,-5.12 l -5.244,-1.41333 c 0,0 -2.5,-0.84 -0.3546,7.89333 2.1453,8.73334 4.4,14.8 5.5986,17.89334 1.1974,3.09333 -1.3786,4.64 7.3814,8.50666 8.76,3.86667 23.552,9.89334 47.9746,1.46667 24.424,-8.42667 36.964,-22.01333 28.504,-31.84 -8.46,-9.82667 -21.388,-7.41333 -32.1693,-3.92"
       style="fill:#de7e81;fill-opacity:1;fill-rule:nonzero;stroke:none;stroke-width:0.133333" />
    <path
       id="path36"
       d="m 1165.6986,582.89339 22.4654,-15.34666 17.8666,-7.70667 -2.444,26.37333 -6.352,24.36 -2.4386,6.74667 c 0,0 0.2573,6.44 -8.3974,1.94667 -8.6546,-4.49334 -15.8973,-10.89334 -15.8973,-10.89334 l -10.7907,-9.53333 c 0,0 -9.0186,-3.02667 -2.7386,-8.49333 6.2786,-5.46667 8.7266,-7.45334 8.7266,-7.45334"
       style="fill:#e9af6c;fill-opacity:1;fill-rule:nonzero;stroke:none;stroke-width:0.133333" />
    <path
       id="path37"
       d="m 978.23064,816.66672 c -0.372,-2.62667 -1.30666,-4.97333 -2.304,-7.25333 -1.05066,-2.41334 -1.69066,-5.08 -3.30133,-7 -1.67733,-2.01334 -3.84533,-3.64 -5.97867,-5 -2.184,-1.38667 -4.65333,-2.4 -7.152,-2.97334 -2.46666,-0.56 -5.22266,-1.42666 -7.83466,-1.05333 -3.772,0.53333 -7.03334,3.01333 -9.91867,5.25333 0.76533,1.93334 1.31067,4.13334 0.8,6.17334 0.688,2.69333 0.59333,5.52 1.54533,8.13333 0.50667,1.4 1.76134,2.8 1.452,4.13333 0.0307,0.28 -0.47333,0.4 -0.47066,0.68 0.0133,1.41334 -0.364,2.93334 -0.28,4.34667 1.804,1.93333 3.98933,3.8 4.72,6.21333 0.728,2.38667 0.156,5.2 0.41733,7.73334 0.232,2.26666 1.368,4.48 1.47733,6.74666 0.0333,0.68 -1.03466,1.64 -0.99866,2.32 2.724,0.76 5.72,0.81334 8.648,0.4 2.612,-0.37333 5.35466,-0.70666 7.56666,-1.93333 2.24134,-1.24 3.36,-3.94667 5.07067,-5.88 1.67067,-1.90667 3.2,-3.77333 4.252,-6.16 1.01067,-2.30667 2.72267,-4.53333 3.06,-7.14667 0.32133,-2.48 -0.39867,-5.10666 -0.77067,-7.73333"
       style="fill:#db818b;fill-opacity:1;fill-rule:nonzero;stroke:none;stroke-width:0.133333" />
    <path
       id="path38"
       d="m 1187.2653,824.53339 c 0.188,-1.94667 0.2573,-3.77334 1.2973,-5.26667 0.068,-0.12 0.9067,0.0667 0.9814,-0.0533 0.184,-0.50667 -0.412,-1.33334 -0.132,-1.81334 0.2413,-0.34666 0.8693,0.0267 1.0853,-0.33333 0.036,-0.26667 0.172,-0.77333 0.2213,-1.04 0.01,-0.0533 -0.636,-0.2 -0.6293,-0.24 0.01,-0.08 0.3147,-0.12 0.32,-0.18667 0.047,-0.56 -0.02,-1.14666 0,-1.72 0.052,-1.26666 -0.644,-2.56 -0.644,-3.84 0,-0.18666 0.075,-0.34666 0.085,-0.53333 -0.011,-0.16 0.1667,-0.33333 0.1667,-0.49333 0,-4.90667 1.0867,-4.90667 1.0867,-9.8 0,-0.74667 -0.34,-1.92 -0.1707,-2.6 -2.2853,-1.34667 -5.1667,-2.53334 -7.9053,-2.94667 -2.608,-0.4 -5.3414,0.17333 -7.8134,0.72 -2.5053,0.54667 -4.6426,2.09333 -6.8413,3.45333 -2.1467,1.33334 -4.904,2.2 -6.6013,4.18667 -1.6307,1.92 -1.84,4.86667 -2.9147,7.26667 -1.0213,2.28 -2.592,4.45333 -2.992,7.08 -0.3987,2.61333 -0.644,5.29333 -0.3493,7.77333 0.312,2.61333 0.6973,5.37333 1.684,7.68 1.0266,2.41333 3.7373,3.78667 5.388,5.69333 1.692,1.96 2.752,4.72 4.9813,5.98667 2.2,1.25333 5.0427,1 7.6507,1.4 2.276,0.34667 4.3853,0.49333 6.5613,0.12 2.2147,-0.38667 4.9773,-0.45333 6.98,-1.49333 -0.2587,-2.08 -0.7493,-4.53334 -1.056,-6.6 -0.3067,-2.08 -1.152,-4.09334 -1.3027,-6.17334 -0.152,-2.08 0.656,-4.12 0.8587,-6.22666"
       style="fill:#db818b;fill-opacity:1;fill-rule:nonzero;stroke:none;stroke-width:0.133333" />
    <path
       id="path39"
       d="m 1006.44,1013.5734 h -50.49869 l -4.512,-14.17335 H 1006.44 v 14.17335"
       style="fill:#774739;fill-opacity:1;fill-rule:nonzero;stroke:none;stroke-width:0.133333" />
    <path
       id="path40"
       d="m 1175.7786,1011.3867 h -50.64 v -11.98665 h 50.64 v 11.98665"
       style="fill:#774739;fill-opacity:1;fill-rule:nonzero;stroke:none;stroke-width:0.133333" />
    <path
       id="path41"
       d="m 898.47331,703.52006 c -1.74533,0 -3.412,-0.18667 -4.91333,-0.37334 -0.7,-0.08 -1.39734,-0.16 -2.08667,-0.22666 -2.324,-0.2 -4.45733,-0.68 -6.52133,-1.16 l -1.348,-0.30667 c -0.80934,-0.17333 -1.636,-0.30667 -2.45867,-0.42667 -1.656,-0.25333 -3.53333,-0.54666 -5.39067,-1.21333 -1.876,-0.66667 -3.56533,-1.6 -5.05733,-2.44 -0.69333,-0.38667 -1.384,-0.76 -2.08533,-1.12 -1.73334,-0.85333 -3.20933,-1.94667 -4.51333,-2.92 -0.676,-0.49333 -1.34934,-1 -2.05334,-1.45333 -0.62133,-0.4 -1.45866,-0.76 -2.34533,-1.14667 -1.47067,-0.62667 -3.13867,-1.36 -4.67467,-2.58667 -1.488,-1.18666 -2.672,-2.56 -3.716,-3.77333 -0.572,-0.66667 -1.14,-1.33333 -1.75466,-1.93333 -1.36934,-1.33334 -2.44267,-2.8 -3.388,-4.09334 -0.5,-0.68 -0.99467,-1.36 -1.53067,-2 -0.524,-0.62666 -1.06933,-1.22666 -1.608,-1.82666 -1.16533,-1.28 -2.37067,-2.61334 -3.432,-4.18667 -1.36933,-2.04 -2.63733,-4.2 -3.99067,-6.82667 -0.348,-0.66666 -0.89333,-1.41333 -1.472,-2.18666 -0.99466,-1.34667 -2.12133,-2.86667 -2.78266,-4.78667 -0.77334,-2.22667 -0.916,-4.37333 -1.04134,-6.25333 -0.0467,-0.70667 -0.088,-1.4 -0.17733,-2.05334 -0.38133,-2.8 0.15333,-5.24 0.58267,-7.2 0.10666,-0.48 0.21066,-0.96 0.29733,-1.42666 0.116,-0.64 0.10933,-1.50667 0.1,-2.41334 -0.016,-1.70666 -0.0347,-3.82666 0.776,-5.93333 0.82133,-2.13333 2.21333,-3.76 3.332,-5.06666 0.568,-0.65334 1.10267,-1.28 1.44533,-1.82667 0.36,-0.57333 0.696,-1.34667 1.052,-2.16 0.71734,-1.65333 1.53067,-3.50667 3.052,-5.14667 1.65734,-1.78666 3.72,-4.01333 6.108,-5.78666 1.90667,-1.41334 4.04934,-1.85334 5.77067,-2.21334 0.83733,-0.17333 1.70267,-0.36 2.176,-0.6 0.48667,-0.22666 1.13067,-0.77333 1.81333,-1.33333 1.33867,-1.12 3.00534,-2.50667 5.268,-3.14667 2.20667,-0.64 4.33067,-0.38666 6.03333,-0.18666 0.90134,0.10666 1.75067,0.2 2.34134,0.14666 l 1.31333,-0.14666 c 2.12933,-0.24 4.33067,-0.50667 6.78667,-0.33334 3.08533,0.21334 5.64133,0.58667 8.04666,1.17334 0.49867,0.12 1.00134,0.24 1.50534,0.34666 1.94,0.44 4.14,0.94667 6.33466,1.88 l 0.33734,0.13334 c 1.90533,0.81333 3.87333,1.65333 5.82266,2.16 0.60667,0.16 1.21734,0.32 1.83334,0.49333 1.656,0.46667 3.22,0.89333 4.75733,1.13333 0.92667,0.13334 1.86533,0.32 2.81067,0.50667 1.42,0.26667 2.76133,0.53333 4.01866,0.62667 0.83467,0.0667 1.88267,-0.08 2.99867,-0.24 1.204,-0.16 2.58533,-0.33334 4.00133,-0.34667 1.568,0.04 3.15334,-0.0533 4.82934,-0.13333 0.72266,-0.04 1.44266,-0.0667 2.16,-0.0933 1.26133,-0.0533 2.46133,-0.0133 3.62266,0.04 1.23067,0.04 2.38934,0.08 3.42,0 0.63867,-0.0533 1.53334,-0.4 2.48,-0.78666 1.28,-0.50667 2.73067,-1.08 4.404,-1.26667 1.808,-0.21333 3.5,0 4.85867,0.17333 0.88933,0.10667 1.80933,0.22667 2.30133,0.16 0.92134,-0.14666 1.91867,-0.56 2.976,-1 1.17867,-0.50666 2.39867,-1.01333 3.784,-1.26666 2.364,-0.44 3.89067,-0.26667 5.12,-0.0533 0.0213,-0.0133 0.0453,-0.0267 0.0693,-0.0533 2.00533,-1.46667 2.00533,-1.46667 3.14133,-2.58667 0.46,-0.45333 1.072,-1.05333 1.972,-1.92 0.40267,-0.38666 0.80933,-0.81333 1.24,-1.26666 1.17867,-1.24 2.644,-2.77334 4.60267,-4.22667 2.132,-1.57333 4.56133,-3.05333 6.65466,-4.29333 0.48,-0.29334 1.11067,-0.86667 1.77734,-1.48 1.18133,-1.08 2.65066,-2.42667 4.59733,-3.36 1.82933,-0.89334 3.68267,-1.04 5.31733,-1.17334 1.00934,-0.08 1.964,-0.16 2.55467,-0.4 0.74533,-0.29333 1.55733,-0.69333 2.41467,-1.13333 1.36533,-0.68 2.91333,-1.46667 4.68933,-2.04 0.82803,-0.26667 1.65873,-0.58667 2.50533,-0.90667 1.4427,-0.54666 3.076,-1.16 4.836,-1.62666 1.5507,-0.41334 3.1067,-0.66667 4.612,-0.92 0.98,-0.16 1.9774,-0.32 2.9814,-0.53334 0.724,-0.14666 1.6066,-0.50666 2.5426,-0.86666 1.4147,-0.57334 3.0174,-1.21334 4.868,-1.52 1.624,-0.26667 3.1614,-0.26667 4.6494,-0.25334 1.1053,0 2.152,0 3.0906,-0.10666 1.544,-0.2 3.0734,-0.26667 4.5534,-0.33334 1.0226,-0.0533 2.06,-0.0933 3.108,-0.18666 0.7986,-0.08 1.7546,-0.30667 2.7666,-0.56 1.4254,-0.34667 3.04,-0.74667 4.8187,-0.84 1.5307,-0.0933 3.0133,-0.0267 4.4507,0.0133 1.0626,0.04 2.1386,0.08 3.2266,0.0533 0.872,-0.0133 1.876,-0.17333 2.9374,-0.33333 1.412,-0.21333 2.9626,-0.50667 4.7186,-0.44 1.7027,0 3.292,0.33333 4.6934,0.61333 1.0706,0.22667 2.0813,0.44 2.944,0.46667 1.1266,0.0267 2.2386,0.0267 3.344,0.0267 1.4786,-0.0133 2.9293,-0.0133 4.36,0.0533 1.604,0.0667 3.0946,0.28 4.5346,0.48 1.06,0.13333 2.1067,0.28 3.1454,0.34667 1.0733,0.08 2.1773,0.0667 3.3506,0.0533 1.4174,-0.0133 2.8787,-0.0267 4.3867,0.10667 0.9853,0.0933 2.0693,0.04 3.2173,-0.0133 1.4587,-0.0533 2.968,-0.12 4.5654,0.0667 2.0733,0.22667 3.8386,1.04 5.2586,1.70667 0.8387,0.38666 1.7067,0.78666 2.2267,0.85333 0.8267,0.12 1.8533,0.0533 2.94,-0.0133 1.4787,-0.10667 3.152,-0.21334 4.908,0.0933 1.0667,0.18667 2.1253,0.32 3.168,0.45333 1.4907,0.18667 3.0307,0.38667 4.56,0.72 1.736,0.37334 3.336,0.93334 4.7467,1.41334 0.9813,0.34666 1.9066,0.66666 2.7573,0.89333 0.992,0.25333 2.0253,0.44 3.1213,0.64 1.4934,0.26667 3.04,0.54667 4.584,1.02667 1.82,0.57333 3.508,1.30666 4.9987,1.94666 0.8053,0.34667 1.5933,0.68 2.3747,0.98667 2.1546,0.82667 4.1586,1.78667 5.9253,2.62667 l 1.3387,0.62666 c 1.8133,0.86667 3.3173,1.92 4.6426,2.85334 0.72,0.49333 1.4187,1 2.1387,1.41333 1.8267,1.05333 3.3587,2.24 4.712,3.28 0.604,0.46667 1.1947,0.92 1.7933,1.34667 0.776,0.56 1.6574,1.04 2.5907,1.54666 1.412,0.77334 2.872,1.56 4.2213,2.73334 1.556,1.34666 2.632,2.82666 3.5814,4.13333 0.552,0.76 1.0746,1.46667 1.548,1.93333 1.2,1.2 2.428,2.30667 3.5773,3.34667 0.5893,0.52 1.1587,1.04 1.6987,1.54667 1.1693,0.73333 1.3013,0.76 2.4133,1.02666 0.7347,0.17334 1.6947,0.4 3.1507,0.82667 0.9706,0.29333 2.2666,0.52 3.6373,0.76 1.0387,0.18667 2.1267,0.37333 3.244,0.61333 0.62,0.13334 1.6067,0.0933 2.652,0.0667 1.3013,-0.0533 2.78,-0.10667 4.3747,0.10667 l 1.18,0.16 c 1.8453,0.26666 3.752,0.53333 5.6746,0.64 2.1227,0.10666 4.3707,0.04 6.752,-0.04 1.0507,-0.0267 1.9894,-0.0133 2.936,0 1.432,0.0133 2.7827,0.04 4.0454,-0.12 0.8933,-0.10667 1.8026,-0.18667 2.72,-0.26667 1.4653,-0.12 2.8493,-0.22667 4.104,-0.52 1.2746,-0.29333 2.6386,-0.82667 4.0853,-1.38667 0.7827,-0.29333 1.5707,-0.6 2.368,-0.88 0.9307,-0.32 1.9253,-0.88 2.9773,-1.45333 1.1734,-0.65333 2.3867,-1.32 3.7787,-1.85333 1.516,-0.57334 3.0213,-0.89334 4.3467,-1.17334 1.1106,-0.24 2.16,-0.46666 2.9746,-0.78666 1.3094,-0.52 2.6307,-0.97334 3.936,-1.41334 1.104,-0.37333 2.1947,-0.73333 3.248,-1.16 1.0534,-0.41333 2.0654,-0.89333 3.0627,-1.36 1.28,-0.61333 2.604,-1.22666 4.004,-1.74666 l 1.2573,-0.46667 c 2.1187,-0.78667 4.12,-1.53333 6.1694,-2.16 0.9133,-0.28 1.7973,-0.62667 2.6653,-0.96 1.6187,-0.62667 3.2893,-1.28 5.1253,-1.61333 2.5107,-0.45334 4.836,-0.28 6.8867,-0.12 0.612,0.0533 1.2107,0.0933 1.792,0.12 0.4853,0.0267 0.9773,0.0267 1.4707,0.04 2.416,0.04 5.1546,0.0933 7.7986,1.21333 2.9694,1.25333 5.416,3.46667 7.6187,5.68 2.0627,2.05333 2.78,4.66667 3.412,6.97333 0.1733,0.62667 0.3467,1.26667 0.5587,1.90667 0.172,0.52 0.3693,1.04 0.568,1.56 0.6906,1.85333 1.552,4.14667 1.7613,6.85333 0.1667,2.16 -0.041,4.28 -0.2413,6.33334 -0.065,0.66666 -0.132,1.34666 -0.1854,2.03999 -0.052,0.66667 -0.088,1.34667 -0.1253,2.02667 -0.099,1.86667 -0.212,3.97333 -0.6413,6.16 -0.1494,0.76 -0.2747,1.53333 -0.404,2.30667 -0.2854,1.76 -0.6094,3.74666 -1.212,5.73333 -0.556,1.82667 -1.448,3.41333 -2.236,4.81333 -0.5067,0.90667 -0.9854,1.76 -1.3134,2.56 -0.3213,0.78667 -0.608,1.58667 -0.8973,2.38667 -0.6,1.68 -1.2187,3.4 -2.1307,5.14667 -1.3893,2.66666 -2.956,5.13333 -4.164,7 -1.4866,2.28 -3.0946,4.30666 -4.8906,6.53333 -0.4974,0.61333 -0.9734,1.25333 -1.4494,1.88 -1.124,1.49333 -2.288,3.04 -3.756,4.49333 -0.576,0.57334 -1.164,1.28 -1.7866,2.02667 -1.1,1.32 -2.348,2.82667 -3.9667,4.06667 -1.6693,1.28 -3.4387,2.2 -5.1493,3.08 -0.7294,0.37333 -1.456,0.74666 -2.1547,1.14666 -2.4,1.37334 -4.9533,2.6 -7.592,3.64 -1.7973,0.72 -3.5547,1 -5.1053,1.26667 -0.9307,0.14667 -1.8094,0.29333 -2.5187,0.50667 -2.712,0.81333 -5.1773,1.44 -7.536,1.92 -0.7653,0.14666 -1.6493,0.49333 -2.584,0.85333 -1.464,0.56 -3.124,1.2 -5.0107,1.4 -1.984,0.2 -3.8,-0.0267 -5.4026,-0.24 -0.92,-0.10667 -1.808,-0.25333 -2.4987,-0.21333 -2.5027,-0.0133 -4.8173,-0.21334 -7.0373,-0.44 l -0.7694,-0.0667 c -0.932,-0.0933 -1.852,-0.12 -2.7533,-0.16 -1.6467,-0.0533 -3.348,-0.12 -5.0853,-0.46667 -2.0174,-0.4 -3.7374,-1.10666 -5.2547,-1.72 -0.7493,-0.30666 -1.4707,-0.61333 -2.188,-0.84 -2.2667,-0.69333 -4.136,-1.54666 -5.7827,-2.30666 -0.5013,-0.22667 -0.9826,-0.45334 -1.4506,-0.65334 -1.292,-0.56 -1.76,-0.57333 -2.408,-0.61333 -1.5387,-0.08 -3.1214,-0.28 -5.5374,-1.89333 l 4.936,-7.4 c 0.488,0.33333 0.6854,0.4 0.6867,0.4 0.1013,0.0133 0.232,0.0133 0.372,0.0133 1.376,0.08 2.932,0.24 5.484,1.34667 0.5213,0.21333 1.0587,0.46666 1.616,0.72 1.4707,0.68 2.992,1.37333 4.7107,1.90666 1.0266,0.30667 1.992,0.70667 2.928,1.09334 1.26,0.50666 2.4506,1 3.632,1.24 1.0266,0.2 2.3013,0.24 3.6506,0.29333 1.08,0.04 2.1827,0.08 3.2987,0.18667 l 0.784,0.08 c 1.9987,0.18666 4.08,0.42666 6.132,0.38666 1.2813,0 2.492,0.14667 3.656,0.29334 1.2373,0.16 2.4,0.30666 3.3707,0.21333 0.7053,-0.08 1.684,-0.45333 2.72,-0.85333 1.1826,-0.45334 2.5213,-0.97334 4.0293,-1.28 2.0907,-0.42667 4.296,-0.98667 6.7453,-1.72 1.2467,-0.36 2.448,-0.56 3.6107,-0.76 1.22,-0.2 2.372,-0.38667 3.2893,-0.76 2.2427,-0.88 4.4094,-1.92 6.44,-3.09334 0.8147,-0.46666 1.6627,-0.90666 2.5147,-1.33333 1.42,-0.73333 2.7613,-1.42667 3.7907,-2.21333 0.8373,-0.65334 1.672,-1.65334 2.5546,-2.72 0.732,-0.86667 1.488,-1.77334 2.3747,-2.65334 1.0013,-0.98666 1.9213,-2.21333 2.896,-3.50666 0.5387,-0.72 1.0787,-1.44 1.6387,-2.13334 1.64,-2.02666 3.0986,-3.86666 4.3546,-5.8 1.1014,-1.69333 2.52,-3.93333 3.736,-6.25333 0.6307,-1.21333 1.1227,-2.58667 1.644,-4.04 0.3334,-0.92 0.668,-1.85333 1.0374,-2.76 0.5373,-1.30667 1.2026,-2.49333 1.7906,-3.53333 0.62,-1.10667 1.2054,-2.14667 1.48,-3.05334 0.432,-1.41333 0.68,-2.94666 0.9454,-4.57333 0.1426,-0.88 0.2866,-1.74667 0.4546,-2.6 0.308,-1.56 0.396,-3.18667 0.4867,-4.90667 0.041,-0.76 0.081,-1.52 0.1387,-2.25333 0.059,-0.74667 0.1293,-1.48 0.2013,-2.2 0.1707,-1.76 0.332,-3.41333 0.2253,-4.8 -0.112,-1.44 -0.6506,-2.88 -1.2213,-4.41333 -0.2413,-0.62667 -0.4747,-1.26667 -0.68,-1.88 -0.2613,-0.78667 -0.4813,-1.57333 -0.6947,-2.34667 -0.324,-1.18666 -0.728,-2.65333 -1.1253,-3.05333 -1.4947,-1.49333 -3.2333,-3.10667 -4.8067,-3.78667 -1.0546,-0.44 -2.7226,-0.46666 -4.488,-0.50666 -0.5573,0 -1.1133,-0.0133 -1.664,-0.04 -0.6893,-0.0267 -1.3986,-0.08 -2.124,-0.13334 -1.6586,-0.13333 -3.2253,-0.25333 -4.6053,0 -1.008,0.18667 -2.224,0.65334 -3.512,1.14667 -1.0667,0.41333 -2.156,0.84 -3.2773,1.17333 -1.792,0.54667 -3.672,1.25334 -5.6627,1.98667 l -1.276,0.48 c -1.0427,0.38667 -2.1373,0.90667 -3.2987,1.45333 -1.1626,0.54667 -2.344,1.09334 -3.572,1.58667 -1.196,0.46667 -2.432,0.89333 -3.684,1.32 -1.1546,0.38667 -2.3253,0.77333 -3.4866,1.24 -1.5174,0.6 -3.0574,0.93333 -4.4174,1.22667 -1.108,0.24 -2.1546,0.45333 -3.024,0.78666 -0.816,0.32 -1.7133,0.81334 -2.6626,1.33334 -1.2627,0.69333 -2.692,1.48 -4.3214,2.05333 -0.7133,0.25333 -1.4186,0.52 -2.1186,0.78667 -1.6654,0.64 -3.3867,1.30666 -5.2654,1.74666 -1.8906,0.44 -3.7493,0.6 -5.3893,0.73334 -0.7853,0.0667 -1.564,0.12 -2.3307,0.22666 -1.8906,0.24 -3.7053,0.2 -5.3093,0.17334 -0.7987,-0.0133 -1.596,-0.0267 -2.3867,0 -2.7013,0.0933 -5.136,0.16 -7.6426,0.0267 -2.2934,-0.12 -4.388,-0.41333 -6.4147,-0.69333 l -1.148,-0.16 c -0.84,-0.12 -1.82,-0.08 -2.856,-0.04 -1.4667,0.0533 -3.1333,0.10667 -4.8347,-0.25333 -1.008,-0.21334 -1.9906,-0.38667 -2.9266,-0.54667 -1.6254,-0.29333 -3.1587,-0.56 -4.6107,-0.98667 -1.2413,-0.37333 -2.064,-0.56 -2.6907,-0.70666 -2.0053,-0.48 -2.932,-0.78667 -5.4613,-2.4 -0.2347,-0.14667 -0.4573,-0.32 -0.66,-0.50667 -0.5933,-0.56 -1.2307,-1.13333 -1.892,-1.73333 -1.2493,-1.12 -2.5813,-2.32 -3.8853,-3.62667 -0.976,-0.96 -1.7347,-2 -2.468,-3.01333 -0.7347,-1 -1.428,-1.96 -2.2187,-2.64 -0.6253,-0.54667 -1.6107,-1.08 -2.6533,-1.65334 -1.0707,-0.57333 -2.284,-1.24 -3.4934,-2.10666 -0.6906,-0.49334 -1.3706,-1.01334 -2.0653,-1.54667 -1.244,-0.96 -2.4187,-1.86667 -3.7333,-2.62667 -0.9987,-0.57333 -1.9134,-1.21333 -2.7974,-1.84 -1.132,-0.78666 -2.2,-1.54666 -3.3173,-2.06666 l -1.3853,-0.66667 c -1.7,-0.8 -3.456,-1.64 -5.288,-2.34667 -0.884,-0.34666 -1.7774,-0.72 -2.6894,-1.12 -1.4253,-0.61333 -2.772,-1.18666 -4.168,-1.62666 -0.9986,-0.32 -2.2013,-0.53334 -3.476,-0.76 -1.2133,-0.21334 -2.4666,-0.44 -3.7893,-0.78667 -1.2013,-0.30667 -2.3453,-0.70667 -3.4507,-1.09333 -1.2773,-0.45334 -2.484,-0.86667 -3.6746,-1.12 -1.172,-0.25334 -2.468,-0.42667 -3.8414,-0.6 -1.1706,-0.14667 -2.3613,-0.30667 -3.56,-0.52 -0.7013,-0.12 -1.7146,-0.0533 -2.7853,0.0267 -1.4227,0.0933 -3.0333,0.2 -4.7733,-0.04 -1.8187,-0.26666 -3.3587,-0.97333 -4.7174,-1.6 -0.9666,-0.45333 -1.8786,-0.86666 -2.52,-0.94666 -0.9186,-0.10667 -2.0266,-0.0533 -3.204,-0.0133 -1.3146,0.0667 -2.8053,0.12 -4.3586,-0.0133 -1.08,-0.0933 -2.2734,-0.08 -3.5294,-0.0667 -1.2853,0.0133 -2.6093,0.0133 -4.012,-0.0667 -1.2986,-0.0933 -2.556,-0.26667 -3.7706,-0.42667 -1.3027,-0.17333 -2.532,-0.34667 -3.7334,-0.4 -1.292,-0.0533 -2.604,-0.0533 -3.9346,-0.0533 -1.192,0 -2.3947,0.0133 -3.6134,-0.0267 -1.6506,-0.04 -3.168,-0.36 -4.508,-0.64 -1.0906,-0.22667 -2.0453,-0.4 -2.924,-0.44 -1.0253,0 -2.1586,0.17333 -3.3586,0.36 -1.2827,0.18667 -2.6094,0.38667 -4.032,0.42667 -1.2707,0.0267 -2.528,-0.0133 -3.7707,-0.0533 -1.296,-0.0533 -2.5173,-0.0933 -3.6373,-0.04 -0.956,0.0533 -2.044,0.33334 -3.1974,0.61334 -1.2893,0.30666 -2.624,0.64 -4.0973,0.77333 -1.1747,0.10667 -2.3373,0.16 -3.4853,0.21333 -1.368,0.0533 -2.66,0.12 -3.8574,0.26667 -1.504,0.18667 -2.9466,0.18667 -4.2253,0.17333 -1.1707,0 -2.2773,0 -3.1627,0.14667 -0.9066,0.14667 -1.94,0.56 -3.0346,1 -1.184,0.46667 -2.5254,1 -3.988,1.32 -1.14,0.24 -2.2747,0.42667 -3.3894,0.6 -1.3573,0.22667 -2.6386,0.44 -3.7746,0.73333 -1.3174,0.34667 -2.6027,0.84 -3.9627,1.36 -0.9813,0.36 -1.9453,0.73334 -2.904,1.04 -1.1333,0.37334 -2.2547,0.93334 -3.44136,1.53334 -0.99334,0.49333 -2.02134,1.01333 -3.13067,1.45333 -1.82667,0.72 -3.648,0.86667 -5.112,0.98667 -0.77333,0.0667 -1.83333,0.16 -2.16933,0.32 -0.77467,0.37333 -1.596,1.12 -2.46667,1.92 -0.92533,0.85333 -1.97467,1.81333 -3.24533,2.56 -1.90267,1.13333 -4.09067,2.46666 -5.90267,3.8 -1.33867,0.98666 -2.41333,2.12 -3.452,3.21333 -0.524,0.54667 -1.02267,1.06667 -1.51467,1.54667 -0.864,0.82666 -1.45066,1.4 -1.89066,1.84 -1.528,1.50666 -1.72267,1.66666 -4.13867,3.44 -2.65333,1.93333 -4.54,2.06666 -6.72133,1.65333 -0.58134,-0.10667 -1.00267,-0.2 -2.11067,0.0133 -0.43467,0.08 -1.20267,0.4 -1.944,0.70667 -1.372,0.57333 -3.07867,1.29333 -5.10133,1.6 -1.71334,0.25333 -3.32134,0.0533 -4.74134,-0.13333 -1.016,-0.12 -1.97733,-0.24 -2.71066,-0.16 -0.508,0.0533 -1.34134,0.38666 -2.148,0.70666 -1.37467,0.54667 -3.084,1.22667 -5.05467,1.38667 -1.54667,0.12 -3.02533,0.0667 -4.452,0.0133 -0.98,-0.04 -1.968,-0.08 -2.96,-0.04 -0.68933,0.0267 -1.37733,0.0533 -2.06933,0.0933 -1.732,0.08 -3.53334,0.16 -5.35867,0.14666 -0.78267,-0.04 -1.7,0.12 -2.68,0.25334 -1.45467,0.2 -3.10267,0.42666 -4.86,0.30666 -1.79333,-0.13333 -3.46533,-0.45333 -5.084,-0.77333 -0.82,-0.16 -1.63333,-0.32 -2.43733,-0.44 -2.06267,-0.32 -3.96,-0.84 -5.796,-1.34667 -0.57334,-0.16 -1.14134,-0.32 -1.704,-0.46666 -2.58,-0.66667 -4.95734,-1.68 -7.05467,-2.57334 l -0.33333,-0.14666 c -1.468,-0.61334 -3.10267,-0.98667 -4.836,-1.38667 -0.54667,-0.12 -1.09067,-0.24 -1.632,-0.37333 -1.93067,-0.48 -3.95467,-0.76 -6.56,-0.94667 -1.636,-0.10667 -3.34934,0.0933 -5.16,0.29333 l -1.40134,0.16 c -1.57066,0.16 -3.02933,-0.0133 -4.312,-0.16 -0.95866,-0.10666 -2.04666,-0.24 -2.53333,-0.10666 -0.46933,0.13333 -1.30533,0.84 -2.04133,1.44 -1.00267,0.84 -2.13867,1.78666 -3.57067,2.49333 -1.48133,0.72 -2.97066,1.04 -4.28533,1.30667 -0.824,0.17333 -1.95333,0.41333 -2.29333,0.66666 -1.724,1.28 -3.404,3.08 -4.884,4.68 -0.496,0.53334 -0.94667,1.57334 -1.42267,2.65334 -0.448,1.02666 -0.95333,2.18666 -1.66,3.32 -0.696,1.11999 -1.51467,2.06666 -2.236,2.90666 -0.77733,0.90667 -1.51333,1.77333 -1.78533,2.46667 -0.20267,0.53333 -0.192,1.61333 -0.18134,2.66666 0.0107,1.21334 0.024,2.61334 -0.244,4.08 -0.104,0.57334 -0.23066,1.16 -0.36,1.74667 -0.33733,1.53333 -0.62666,2.85333 -0.45733,4.09333 0.116,0.85334 0.17867,1.74667 0.23867,2.65334 0.0973,1.46666 0.188,2.84 0.572,3.94666 0.216,0.62667 0.85333,1.49334 1.52666,2.4 0.728,0.98667 1.552,2.09334 2.228,3.4 1.18934,2.30667 2.28934,4.2 3.46267,5.93334 0.70533,1.05333 1.64933,2.09333 2.64933,3.2 0.61467,0.68 1.232,1.36 1.83067,2.08 0.66267,0.78666 1.276,1.61333 1.89067,2.45333 0.816,1.12 1.58533,2.16 2.43066,3 0.84134,0.81333 1.57067,1.66667 2.276,2.48 0.868,1.01333 1.688,1.96 2.53067,2.64 0.60533,0.48 1.59733,0.90667 2.64933,1.36 1.12,0.48 2.392,1.04 3.624,1.82667 0.86933,0.56 1.70667,1.17333 2.54267,1.8 1.10533,0.81333 2.14933,1.58666 3.17733,2.10666 0.82,0.4 1.63067,0.85334 2.444,1.30667 1.30933,0.72 2.54533,1.41333 3.736,1.84 1.056,0.37333 2.364,0.57333 3.748,0.78667 1.01467,0.16 2.03067,0.32 3.028,0.53333 l 1.41733,0.32 c 1.84534,0.42667 3.588,0.82667 5.29067,0.97333 0.784,0.0667 1.576,0.16 2.37467,0.25334 1.59466,0.18666 3.1,0.36 4.47733,0.30666 0.592,-0.04 1.57067,-0.42666 2.51733,-0.81333 1.188,-0.49333 2.53467,-1.04 4.08267,-1.32 1.36133,-0.25333 2.67467,-0.28 3.83467,-0.30667 1.168,-0.0267 2.27066,-0.0533 3.05066,-0.30666 1.01734,-0.32 2.152,-0.93334 3.35067,-1.58667 0.93467,-0.50667 1.88133,-1.01333 2.864,-1.45333 1.396,-0.64 2.81867,-1.50667 4.32533,-2.42667 0.55334,-0.33333 1.112,-0.68 1.68134,-1.01333 l 4.52266,7.65333 c -0.53733,0.32 -1.064,0.64 -1.58666,0.96 -1.66,1 -3.37734,2.05333 -5.24934,2.90667 -0.8,0.36 -1.568,0.78666 -2.32933,1.18666 -1.50267,0.81334 -3.05733,1.66667 -4.85867,2.24 -2.01466,0.64 -3.90933,0.69334 -5.58133,0.72 -0.9,0.0267 -1.75067,0.04 -2.4,0.16 -0.656,0.12 -1.48,0.45334 -2.35333,0.81334 -1.55867,0.64 -3.324,1.36 -5.428,1.46666 -0.35334,0.0133 -0.70534,0.0133 -1.05467,0.0133"
       style="fill:#362421;fill-opacity:1;fill-rule:nonzero;stroke:none;stroke-width:0.133333" />
    <path
       id="path42"
       d="m 1055.5653,939.82672 c -0.2187,0 -0.4387,0 -0.6587,-0.0133 -1.9533,-0.0933 -3.6226,-0.66666 -5.096,-1.18666 -0.92,-0.32 -1.7893,-0.61334 -2.3826,-0.66667 l -2.22,-0.16 c -1.8067,-0.12 -3.58,-0.25333 -5.324,-0.44 -1.0427,-0.10667 -2.0787,-0.16 -3.1014,-0.22667 -1.4466,-0.08 -2.9426,-0.16 -4.4666,-0.38666 -2.676,-0.37334 -5.1334,-0.77334 -7.5134,-1.21334 -1.0173,-0.18666 -2.0373,-0.30666 -3.0453,-0.41333 -1.468,-0.17333 -2.9853,-0.33333 -4.5347,-0.69333 l -1.948,-0.44 c -1.8213,-0.4 -3.704,-0.82667 -5.524,-1.34667 -1.7013,-0.48 -3.2706,-1.13333 -4.6573,-1.72 -0.8573,-0.36 -1.7027,-0.72 -2.5533,-1.01333 -0.7294,-0.25334 -1.4574,-0.49334 -2.1774,-0.73334 -1.68662,-0.56 -3.43196,-1.13333 -5.12262,-1.84 -0.74134,-0.30666 -1.48667,-0.61333 -2.22534,-0.89333 -1.63466,-0.65333 -3.32666,-1.32 -4.952,-2.16 -1.872,-0.96 -3.25066,-2.33333 -4.35866,-3.44 -0.652,-0.66667 -1.268,-1.28 -1.75734,-1.58667 -0.70933,-0.44 -1.568,-0.82666 -2.47733,-1.22666 -1.4,-0.64 -2.98667,-1.34667 -4.45333,-2.46667 -1.58267,-1.2 -2.74534,-2.58667 -3.76934,-3.81333 -0.59333,-0.70667 -1.15333,-1.37334 -1.69066,-1.88 -1.804,-1.68 -3.28134,-3.4 -4.712,-5.05334 l -0.58934,-0.69333 c -0.46,-0.52 -1.176,-1.08 -1.93466,-1.66667 -1.284,-1 -2.74134,-2.12 -3.88934,-3.8 -0.40266,-0.57333 -0.82,-1.16 -1.236,-1.73333 -1.104,-1.53333 -2.24533,-3.10666 -3.20133,-4.88 -1.332,-2.46666 -2.43333,-5.02666 -3.33467,-7.21333 -0.8,-1.93333 -0.93333,-3.88 -1.04,-5.45333 -0.064,-0.93334 -0.12533,-1.81334 -0.30133,-2.38667 -0.19467,-0.64 -0.65467,-1.42667 -1.14,-2.26667 -0.804,-1.38666 -1.71467,-2.97333 -2.144,-4.92 -0.43733,-2 -0.25467,-3.90666 -0.108,-5.42666 0.0893,-0.94667 0.17467,-1.84 0.088,-2.42667 -0.0733,-0.50667 -0.496,-1.34667 -0.904,-2.16 -0.70933,-1.42667 -1.592,-3.18667 -1.77467,-5.28 -0.18,-2.02667 0.25067,-3.88 0.596,-5.37333 0.20534,-0.89334 0.416,-1.8 0.392,-2.34667 -0.0347,-0.78667 -0.37733,-1.8 -0.74,-2.88 -0.45333,-1.34667 -0.96533,-2.86667 -1.10533,-4.57333 -0.15333,-1.85334 0.124,-3.52 0.36667,-4.98667 0.17333,-1.04 0.336,-2.02667 0.25733,-2.64 -0.16,-1.26667 -0.46933,-2.56 -0.79733,-3.92 -0.27734,-1.16 -0.55067,-2.32 -0.75067,-3.46667 -0.24133,-1.38666 -0.33867,-2.70666 -0.432,-4 -0.096,-1.28 -0.18533,-2.48 -0.412,-3.54666 -0.29467,-1.36 -0.67333,-2.72 -1.05067,-4.08 -0.30133,-1.09334 -0.60266,-2.18667 -0.87333,-3.29334 -0.14133,-0.57333 -0.66267,-1.45333 -1.16533,-2.29333 -0.79867,-1.33333 -1.70667,-2.86667 -2.20134,-4.76 -0.32666,-1.25333 -0.58266,-2.54667 -0.84,-3.86667 -0.25066,-1.28 -0.48666,-2.49333 -0.80133,-3.68 -0.28533,-1.08 -0.62133,-2.17333 -0.96267,-3.29333 -0.41466,-1.34667 -0.83733,-2.73333 -1.208,-4.16 -0.35733,-1.38667 -0.59866,-2.77333 -0.83333,-4.10667 -0.216,-1.22666 -0.41867,-2.4 -0.70267,-3.53333 -0.376,-1.50667 -0.52266,-2.98667 -0.66133,-4.4 -0.11867,-1.2 -0.23067,-2.32 -0.472,-3.34667 -0.32533,-1.37333 -0.61733,-2.78666 -0.916,-4.24 -0.228,-1.10666 -0.46,-2.22666 -0.71733,-3.37333 -0.14134,-0.62667 -0.58134,-1.49333 -1.048,-2.4 -0.716,-1.41333 -1.52667,-3 -1.93467,-4.92 -0.38667,-1.82666 -0.25733,-3.56 -0.14267,-5.09333 0.0813,-1.09333 0.15867,-2.12 0.0133,-2.84 -0.14267,-0.70667 -0.54534,-1.62667 -0.972,-2.58667 -0.61467,-1.4 -1.312,-2.98666 -1.66267,-4.82666 -0.38933,-2.06667 -0.11467,-4.01334 0.10667,-5.57334 0.136,-0.97333 0.26533,-1.88 0.192,-2.46666 -0.0987,-0.77334 -0.41067,-1.70667 -0.73867,-2.69334 -0.492,-1.46666 -1.04933,-3.14666 -1.17467,-5.04 -0.12,-1.8 0.04,-3.50666 0.18134,-5.01333 0.0973,-1.04 0.188,-2.01333 0.18133,-2.88 l -0.024,-1.96 c -0.028,-1.92 -0.0573,-3.90667 0.0453,-5.90667 0.048,-0.93333 -0.012,-1.94666 -0.0773,-3.02666 -0.092,-1.54667 -0.188,-3.16 0,-4.89334 0.284,-2.62666 0.64533,-5.25333 1.07067,-7.82666 0.164,-1 0.26666,-2.01334 0.36933,-3.02667 0.16133,-1.56 0.328,-3.17333 0.69067,-4.81333 0.4,-1.81334 0.91466,-3.50667 1.412,-5.14667 0.248,-0.82667 0.49466,-1.64 0.71866,-2.45333 0.212,-0.77334 0.41334,-1.53334 0.61467,-2.29334 0.46133,-1.74666 0.94,-3.56 1.51867,-5.30666 0.58533,-1.76 1.42133,-3.28 2.15866,-4.62667 0.496,-0.90667 0.964,-1.76 1.25467,-2.50667 0.69067,-1.77333 1.62533,-3.25333 2.45067,-4.54666 0.53733,-0.85334 1.04266,-1.65334 1.35333,-2.34667 0.436,-0.97333 0.784,-2 1.15333,-3.08 0.47467,-1.4 0.96667,-2.84 1.67734,-4.22667 0.94266,-1.85333 2.07466,-3.38666 2.98266,-4.61333 0.53334,-0.70667 1.03734,-1.4 1.36267,-1.94667 0.564,-0.97333 0.95867,-1.66666 1.26267,-2.2 1.10133,-1.92 1.21333,-2.09333 2.99733,-4.54666 1.44133,-1.98667 4.21867,-2.42667 6.20667,-0.98667 1.98666,1.44 2.42666,4.22667 0.984,6.21333 -1.568,2.16 -1.568,2.16 -2.47067,3.73334 -0.312,0.54666 -0.72,1.26666 -1.3,2.26666 -0.57067,0.97334 -1.24667,1.88 -1.9,2.76 -0.78667,1.06667 -1.6,2.16 -2.20667,3.36 -0.42133,0.81334 -0.79066,1.90667 -1.18133,3.05334 -0.39867,1.17333 -0.85067,2.49333 -1.45467,3.85333 -0.572,1.26667 -1.276,2.38667 -1.95866,3.45333 -0.66667,1.05334 -1.296,2.05334 -1.67334,3.02667 -0.50266,1.29333 -1.136,2.44 -1.748,3.56 -0.608,1.10667 -1.184,2.16 -1.51466,3.14667 -0.492,1.48 -0.91334,3.08 -1.36,4.77333 -0.20934,0.8 -0.42,1.6 -0.64267,2.4 -0.24133,0.86667 -0.508,1.74667 -0.77733,2.64 -0.46934,1.56 -0.91334,3.02667 -1.24134,4.50667 -0.252,1.14666 -0.38533,2.44 -0.528,3.81333 -0.12133,1.18667 -0.24666,2.37333 -0.44133,3.56 -0.39867,2.4 -0.736,4.86667 -1.004,7.33333 -0.10667,0.98667 -0.036,2.16 0.0373,3.41334 0.076,1.26666 0.15467,2.58666 0.0813,4 -0.088,1.70666 -0.0613,3.46666 -0.0347,5.33333 l 0.0253,2.01333 c 0.008,1.32 -0.10666,2.56 -0.22,3.77334 -0.12133,1.29333 -0.23466,2.50666 -0.16266,3.6 0.0493,0.76 0.384,1.76 0.736,2.81333 0.42933,1.29333 0.91733,2.74667 1.12533,4.38667 0.224,1.76 -0.005,3.38666 -0.208,4.82666 -0.14933,1.05334 -0.29067,2.05334 -0.17333,2.68 0.16,0.84 0.59733,1.84 1.06133,2.89334 0.57333,1.29333 1.22133,2.76 1.55467,4.42666 0.38533,1.92 0.252,3.69334 0.13466,5.25334 -0.0773,1.02666 -0.14933,2 -0.0253,2.57333 0.164,0.78667 0.64533,1.73333 1.15733,2.73333 0.664,1.29334 1.41734,2.77334 1.80267,4.49334 0.268,1.19999 0.51067,2.37333 0.75067,3.53333 0.27866,1.36 0.55333,2.68 0.85866,3.97333 0.38,1.6 0.532,3.16 0.668,4.53333 0.11334,1.14667 0.22134,2.24 0.44134,3.12 0.36,1.44 0.60133,2.81334 0.83333,4.14667 0.21333,1.22667 0.41467,2.37333 0.68267,3.4 0.33733,1.30667 0.724,2.57333 1.10133,3.8 0.376,1.22667 0.74267,2.42667 1.05733,3.62667 0.38934,1.46666 0.66534,2.88 0.932,4.24 0.22,1.13333 0.436,2.25333 0.71734,3.33333 0.176,0.66667 0.692,1.53333 1.23733,2.45333 0.79867,1.34667 1.704,2.85334 2.16,4.72 0.25067,1.02667 0.53067,2.02667 0.808,3.04 0.41067,1.48 0.83467,3.01334 1.17333,4.58667 0.35734,1.66667 0.47334,3.24 0.58667,4.77333 0.0827,1.10667 0.15867,2.16 0.32667,3.12 0.168,0.97334 0.40266,1.93334 0.63733,2.92 0.368,1.53334 0.74933,3.12 0.96933,4.86667 0.24267,1.90667 -0.048,3.66667 -0.30533,5.21333 -0.17467,1.05334 -0.33867,2.05334 -0.27733,2.81334 0.0507,0.61333 0.352,1.50666 0.67066,2.45333 0.51867,1.54667 1.108,3.28 1.19734,5.33333 0.0747,1.76 -0.29067,3.33334 -0.612,4.73334 -0.236,1.01333 -0.45867,1.97333 -0.404,2.6 0.036,0.4 0.49866,1.32 0.86933,2.06666 0.65467,1.30667 1.47067,2.93334 1.75067,4.85334 0.24266,1.65333 0.096,3.2 -0.0347,4.56 -0.10133,1.05333 -0.196,2.05333 -0.0573,2.68 0.132,0.6 0.62933,1.46666 1.156,2.37333 0.67866,1.17333 1.44933,2.50667 1.94,4.10667 0.48,1.54666 0.58266,3.06666 0.67466,4.4 0.072,1.05333 0.14134,2.06666 0.38534,2.65333 0.816,1.97333 1.80533,4.28 2.94533,6.4 0.67733,1.25333 1.604,2.53333 2.58533,3.89333 0.45467,0.62667 0.90934,1.25334 1.34934,1.89334 0.36533,0.53333 1.16533,1.16 2.01333,1.81333 1.01867,0.78667 2.17333,1.68 3.20933,2.88 l 0.60534,0.70666 c 1.32933,1.54667 2.58666,3 4.03466,4.34667 0.944,0.88 1.71067,1.8 2.452,2.68 0.792,0.94667 1.54,1.85333 2.31867,2.44 0.668,0.50667 1.67333,0.96 2.73867,1.44 1.07866,0.48 2.30266,1.04 3.512,1.78667 1.36666,0.85333 2.42666,1.90666 3.36133,2.85333 0.768,0.76 1.492,1.49333 2.10933,1.81333 1.25067,0.64 2.676,1.2 4.18534,1.8 0.79466,0.30667 1.596,0.62667 2.39733,0.97334 1.36133,0.57333 2.86533,1.06666 4.45603,1.58666 0.7627,0.25334 1.532,0.50667 2.3053,0.77334 1.0267,0.36 2.0507,0.78666 3.0867,1.21333 1.2653,0.53333 2.4587,1.04 3.64,1.37333 1.5747,0.45334 3.2533,0.82667 5.0307,1.21334 l 2.0093,0.45333 c 1.0533,0.25333 2.2587,0.38667 3.5347,0.52 1.2106,0.14667 2.4373,0.28 3.66,0.50667 2.232,0.41333 4.6426,0.8 7.1666,1.17333 1.144,0.16 2.388,0.22667 3.7054,0.30667 1.1746,0.0667 2.3613,0.13333 3.5573,0.26666 1.632,0.17334 3.2947,0.28 4.9867,0.4 l 2.2786,0.17334 c 1.7374,0.13333 3.264,0.65333 4.6107,1.12 0.9973,0.34666 1.9387,0.68 2.616,0.70666 0.784,0.04 1.792,-0.12 2.864,-0.29333 1.344,-0.22667 2.8787,-0.45333 4.5133,-0.42667 2.476,0.0533 4.8987,0.10667 7.2894,0.08 1.448,0 2.76,0.12 4.0386,0.25334 1.1854,0.12 2.2987,0.22666 3.264,0.18666 0.8814,-0.04 1.932,-0.30666 3.0427,-0.58666 1.2387,-0.32 2.6427,-0.68 4.148,-0.8 2.6907,-0.22667 5.256,-0.53334 7.1893,-0.77334 l 2.2134,-0.26666 c 1.7293,-0.2 3.3653,-0.38667 4.944,-0.65334 1.424,-0.24 2.8106,-0.30666 4.032,-0.37333 1.1813,-0.0533 2.2946,-0.10667 3.196,-0.29333 1.4613,-0.32 2.9053,-0.74667 4.432,-1.2 0.8506,-0.25334 1.6933,-0.50667 2.5306,-0.73334 1.3787,-0.37333 2.7414,-0.88 4.1827,-1.4 0.8813,-0.32 1.752,-0.64 2.624,-0.93333 1.3253,-0.44 2.6453,-0.72 3.8093,-0.96 1.184,-0.25333 2.3027,-0.49333 3.1787,-0.84 2.004,-0.81333 4.004,-1.76 5.9387,-2.68 l 0.6106,-0.28 c 0.7974,-0.38667 1.6654,-1.06667 2.5827,-1.8 0.964,-0.76 2.056,-1.62667 3.3227,-2.33333 2.0106,-1.12 4.1413,-2.33334 6.0906,-3.61334 2.3507,-1.53333 4.192,-2.82666 5.7987,-4.05333 0.8547,-0.65333 1.736,-1.26667 2.6093,-1.86667 1.1534,-0.78666 2.2414,-1.53333 3.12,-2.32 1.0147,-0.90666 1.956,-1.97333 2.952,-3.10666 0.6214,-0.70667 1.2387,-1.4 1.8734,-2.08 0.5266,-0.54667 1.0573,-1.08 1.5866,-1.62667 1.1854,-1.2 2.3054,-2.34666 3.2427,-3.50666 0.8587,-1.06667 1.8027,-2 2.636,-2.81334 0.872,-0.85333 1.6973,-1.66666 2.204,-2.42666 0.3547,-0.52 0.6147,-1.49334 0.8893,-2.53334 0.348,-1.30666 0.7427,-2.78666 1.54,-4.22666 0.6494,-1.17334 1.388,-2.22667 2.0387,-3.14667 0.7027,-1 1.368,-1.94667 1.7373,-2.78667 0.4747,-1.08 0.78,-2.33333 1.1027,-3.66666 0.2547,-1.04 0.5107,-2.06667 0.8333,-3.05334 0.5387,-1.65333 0.8654,-3.30666 1.212,-5.06666 l 0.3294,-1.62667 c 0.5186,-2.48 0.7306,-4.76 0.8693,-6.66667 0.1267,-1.73333 0.612,-3.29333 1.0013,-4.56 0.212,-0.66666 0.5307,-1.70666 0.5174,-2.04 -0.089,-0.74666 -0.432,-1.68 -0.7934,-2.66666 -0.56,-1.53334 -1.196,-3.28 -1.276,-5.28 -0.087,-2.17334 0.4974,-4.10667 0.968,-5.66667 0.2814,-0.93333 0.5494,-1.82667 0.5787,-2.44 0.024,-0.53333 -0.216,-1.46667 -0.448,-2.36 -0.4147,-1.61333 -0.932,-3.61333 -0.6693,-5.82667 0.2413,-2.02666 1.0786,-3.69333 1.8173,-5.16 0.468,-0.93333 0.9093,-1.81333 1.0147,-2.45333 0.1293,-0.77333 0.1226,-1.77333 0.116,-2.84 -0.01,-1.50667 -0.02,-3.21333 0.3226,-5.04 0.204,-1.08 0.3814,-2.2 0.5627,-3.34667 0.2227,-1.4 0.4507,-2.84 0.736,-4.32 0.196,-1.01333 0.324,-2.16 0.46,-3.34666 0.156,-1.38667 0.3173,-2.8 0.6027,-4.32 0.204,-1.08 0.4346,-2.18667 0.6706,-3.32 0.2854,-1.36 0.5814,-2.77334 0.8414,-4.22667 0.284,-1.58667 0.8386,-3.04 1.328,-4.32 0.4253,-1.10667 0.828,-2.16 0.9853,-3.10667 0.1293,-0.77333 0.096,-1.81333 0.059,-2.90666 -0.048,-1.45334 -0.1027,-3.09334 0.1706,-4.85334 0.2587,-1.66666 0.836,-3.16 1.3454,-4.46666 0.42,-1.09334 0.8146,-2.10667 0.94,-2.98667 0.176,-1.21333 0.292,-2.48 0.412,-3.74666 0.12,-1.29334 0.2453,-2.6 0.42,-3.93334 0.1106,-0.82666 0.032,-1.86666 -0.052,-2.96 -0.1014,-1.33333 -0.216,-2.84 -0.028,-4.42666 0.2253,-1.90667 0.9413,-3.56 1.516,-4.89334 0.3653,-0.84 0.744,-1.72 0.796,-2.22666 0.1426,-1.38667 0.22,-2.76 0.296,-4.10667 0.063,-1.08 0.124,-2.14667 0.212,-3.2 0.1013,-1.21333 0.1053,-2.45333 0.112,-3.77333 0,-1.2 0.012,-2.37334 0.081,-3.53334 0.088,-1.44 0.099,-2.85333 0.1107,-4.24 0.011,-1.04 0.02,-2.05333 0.053,-3.05333 0.027,-0.8 -0.1827,-1.81333 -0.4013,-2.88 -0.268,-1.30667 -0.5707,-2.77333 -0.568,-4.37333 0,-1.70667 0.3386,-3.24 0.6333,-4.6 0.2227,-1 0.4307,-1.96 0.408,-2.62667 -0.031,-0.88 -0.049,-1.74667 -0.067,-2.6 -0.035,-1.62667 -0.067,-3.16 -0.18,-4.62667 -0.075,-0.97333 -0.1266,-1.94666 -0.1773,-2.90666 -0.079,-1.50667 -0.1547,-2.93334 -0.3213,-4.28 l -0.252,-2.14667 c -0.2014,-1.74667 -0.3934,-3.41333 -0.6707,-5 -0.372,-2.12 -0.824,-4.62667 -1.3787,-7.06667 -0.156,-0.69333 -0.6253,-1.58666 -1.1226,-2.53333 -0.6307,-1.2 -1.3454,-2.56 -1.7854,-4.14667 -0.28,-1.01333 -0.732,-2.09333 -1.212,-3.22666 -0.4626,-1.09334 -0.9426,-2.24 -1.3453,-3.49334 -0.4253,-1.32 -0.676,-2.58666 -0.9187,-3.81333 -0.2306,-1.17333 -0.4506,-2.28 -0.7893,-3.22667 -0.5293,-1.46666 -0.7733,-2.93333 -0.988,-4.22666 -0.1827,-1.09334 -0.3547,-2.13334 -0.6613,-2.92 -0.8947,-2.28 0.2333,-4.85334 2.5186,-5.76 2.2814,-0.89334 4.864,0.24 5.7587,2.52 0.6467,1.65333 0.9147,3.28 1.1533,4.70666 0.1667,1.01334 0.3254,1.96 0.5814,2.66667 0.5666,1.57333 0.8746,3.13333 1.1466,4.52 0.2014,1.01333 0.3934,1.98667 0.6587,2.81333 0.2853,0.88 0.6693,1.8 1.0773,2.76 0.568,1.34667 1.1547,2.74667 1.588,4.32 0.184,0.66667 0.6214,1.49334 1.084,2.37334 0.708,1.34666 1.512,2.86666 1.9254,4.70666 0.5973,2.62667 1.076,5.26667 1.4653,7.49334 0.3227,1.85333 0.5373,3.72 0.7453,5.52 l 0.2427,2.06666 c 0.2067,1.65334 0.2933,3.30667 0.3773,4.90667 0.047,0.89333 0.093,1.8 0.1627,2.69333 0.132,1.72 0.168,3.44 0.204,5.12 0.017,0.81334 0.033,1.64 0.063,2.46667 0.063,1.78667 -0.292,3.41333 -0.6054,4.85333 -0.22,1 -0.428,1.94667 -0.4293,2.70667 0,0.69333 0.1853,1.6 0.3853,2.56 0.3,1.46667 0.6414,3.13333 0.5787,4.98667 -0.032,0.92 -0.04,1.86666 -0.048,2.81333 -0.015,1.54667 -0.031,3.12 -0.1267,4.70667 -0.06,1 -0.063,2.01333 -0.067,3.04 -0.01,1.42666 -0.012,2.90666 -0.1427,4.46666 -0.08,0.98667 -0.136,1.97334 -0.1947,2.97334 -0.084,1.48 -0.172,2.98666 -0.328,4.50666 -0.192,1.88 -0.8773,3.46667 -1.4826,4.85334 -0.3974,0.92 -0.7734,1.78666 -0.8454,2.4 -0.085,0.73333 -0.012,1.69333 0.065,2.70666 0.108,1.44 0.232,3.06667 0,4.81334 -0.16,1.21333 -0.272,2.4 -0.3827,3.58666 -0.1333,1.42667 -0.2667,2.82667 -0.4627,4.18667 -0.2693,1.88 -0.8946,3.49333 -1.4493,4.92 -0.38,0.98666 -0.7413,1.92 -0.852,2.64 -0.144,0.92 -0.1067,2.01333 -0.069,3.18666 0.047,1.41334 0.1013,3.02667 -0.1747,4.66667 -0.3067,1.82667 -0.9147,3.42667 -1.4533,4.82667 -0.3814,1 -0.7427,1.94666 -0.8787,2.69333 -0.2747,1.54667 -0.5867,3.04 -0.8893,4.49333 -0.224,1.06667 -0.4427,2.12 -0.6374,3.14667 -0.224,1.18667 -0.36,2.38667 -0.504,3.66667 -0.1493,1.30666 -0.304,2.66666 -0.5653,4.02666 -0.2667,1.38667 -0.4787,2.72 -0.6853,4.02667 -0.1947,1.24 -0.3867,2.44 -0.6054,3.6 -0.1853,0.98667 -0.1773,2.13333 -0.1693,3.34667 0.01,1.38666 0.017,2.82666 -0.236,4.34666 -0.3253,1.97334 -1.1653,3.64 -1.84,4.98667 -0.4107,0.81333 -0.8773,1.74667 -0.9347,2.22667 -0.065,0.56 0.196,1.56 0.4494,2.54666 0.3786,1.46667 0.8066,3.12 0.72,5 -0.08,1.72 -0.5414,3.24 -0.9467,4.58667 -0.3213,1.06667 -0.624,2.06667 -0.5973,2.76 0.025,0.6 0.3733,1.56 0.7426,2.57333 0.496,1.34667 1.0574,2.88 1.2734,4.66667 0.26,2.14667 -0.3347,4.05333 -0.8574,5.74667 -0.2933,0.93333 -0.572,1.82666 -0.624,2.54666 -0.1613,2.2 -0.4093,4.85334 -1.036,7.84 l -0.3066,1.53334 c -0.3654,1.85333 -0.7774,3.94666 -1.484,6.10666 -0.252,0.77334 -0.4454,1.58667 -0.6467,2.4 -0.38,1.57334 -0.812,3.34667 -1.6,5.13334 -0.7267,1.65333 -1.724,3.06666 -2.6053,4.32 -0.5734,0.81333 -1.1147,1.58666 -1.5334,2.34666 -0.2653,0.48 -0.488,1.32 -0.7253,2.21334 -0.4093,1.53333 -0.92,3.45333 -2.1093,5.21333 -1.0094,1.49333 -2.2507,2.72 -3.3467,3.8 -0.724,0.70667 -1.408,1.37333 -1.9427,2.04 -1.2106,1.50666 -2.5386,2.85333 -3.8213,4.16 -0.496,0.50666 -0.9947,1.01333 -1.4893,1.53333 -0.5587,0.58667 -1.0987,1.2 -1.6454,1.82667 -1.1226,1.26666 -2.2826,2.58666 -3.6893,3.84 -1.308,1.17333 -2.688,2.12 -4.0227,3.04 -0.748,0.52 -1.504,1.02666 -2.2346,1.58666 -1.7827,1.36 -3.7947,2.77334 -6.3307,4.44 -2.1787,1.42667 -4.4733,2.73334 -6.628,3.93334 -0.644,0.36 -1.372,0.93333 -2.1413,1.54666 -1.2094,0.96 -2.5787,2.04 -4.288,2.85334 l -0.6067,0.29333 c -2.0587,0.97333 -4.188,1.98667 -6.4533,2.89333 -1.58,0.62667 -3.128,0.96 -4.6254,1.28 -1.028,0.21334 -1.9986,0.42667 -2.8506,0.70667 -0.792,0.26667 -1.5867,0.54667 -2.388,0.84 -1.5494,0.57333 -3.152,1.16 -4.8867,1.62667 -0.7787,0.21333 -1.5613,0.45333 -2.3507,0.68 -1.612,0.48 -3.28,0.97333 -5.0533,1.36 -1.6347,0.36 -3.252,0.42666 -4.68,0.49333 -1.064,0.0533 -2.0693,0.10667 -2.9613,0.25333 -1.8107,0.30667 -3.64,0.52 -5.4094,0.72 l -2.1373,0.25334 c -2.016,0.25333 -4.6973,0.57333 -7.548,0.81333 -0.768,0.0667 -1.7027,0.30667 -2.692,0.56 -1.4267,0.36 -3.0427,0.77333 -4.8373,0.85333 -1.604,0.08 -3.1107,-0.08 -4.5614,-0.22666 -1.0866,-0.10667 -2.1266,-0.22667 -3.0546,-0.2 -2.4774,0.0133 -5.0067,-0.0267 -7.58,-0.0933 -0.8347,-0.0133 -1.8387,0.14667 -2.9014,0.32 -1.2226,0.2 -2.588,0.41334 -4.0413,0.41334"
       style="fill:#362421;fill-opacity:1;fill-rule:nonzero;stroke:none;stroke-width:0.133333" />
    <path
       id="path43"
       d="m 853.88398,684.08006 c -2.11467,0 -3.99067,-1.50667 -4.37067,-3.66667 l -0.19466,-1.06667 c -0.60934,-3.26666 -0.488,-4.01333 0.63333,-7.66666 l 0.12133,-0.4 c 0.75467,-2.46667 1.89867,-5.36 4.652,-8.05334 2.14134,-2.10666 4.68134,-3.32 7.83734,-4.48 0.52133,-0.2 1.04133,-0.46666 1.58933,-0.74666 1.67733,-0.84 3.76533,-1.89334 6.51333,-2.16 2.324,-0.24 5.12,-0.45334 8.23467,-0.29334 1.984,0.10667 3.72,0.65334 5.116,1.08 0.836,0.26667 1.624,0.50667 2.16266,0.56 0.85734,0.0933 1.84267,0 2.88534,-0.10666 1.39466,-0.13334 2.97333,-0.29334 4.62266,-0.0267 1.088,0.17333 2.13734,0.28 3.14267,0.37333 1.392,0.13334 2.83067,0.28 4.23867,0.57334 1.49733,0.32 2.84266,0.76 4.03066,1.14666 1.01334,0.33334 1.97067,0.64 2.81334,0.8 1.34266,0.26667 2.73733,0.32 4.35333,0.38667 0.71067,0.0267 1.432,0.0667 2.17067,0.10667 2.26,0.14666 4.164,0.24 6.42666,0.0667 1.39467,-0.12 2.948,-0.41333 4.74667,-0.74666 l 1.83733,-0.33334 c 1.45734,-0.26666 2.86267,-0.18666 4.1,-0.13333 1.09734,0.0533 2.13067,0.12 2.92667,-0.08 2.38667,-0.56 4.78533,0.90667 5.35733,3.29333 0.57067,2.38667 -0.90266,4.78667 -3.28933,5.36 -2.04133,0.48 -3.928,0.38667 -5.448,0.30667 -0.80133,-0.04 -1.62933,-0.08 -2.08267,0 l -1.768,0.32 c -1.95866,0.37333 -3.80666,0.72 -5.664,0.86667 -2.85333,0.22666 -5.18,0.12 -7.712,-0.0533 -0.67066,-0.04 -1.32666,-0.0667 -1.97066,-0.0933 -1.808,-0.0667 -3.676,-0.14667 -5.67334,-0.53333 -1.38533,-0.26667 -2.65466,-0.68 -3.88133,-1.08 -1.068,-0.36 -2.07733,-0.68 -3.10667,-0.90667 -0.928,-0.18667 -2.06666,-0.30667 -3.272,-0.41333 -1.17466,-0.12 -2.40133,-0.24 -3.67466,-0.44 -0.52267,-0.0933 -1.41467,0 -2.36134,0.0933 -1.36266,0.13333 -2.90266,0.28 -4.64266,0.10667 -1.43334,-0.14667 -2.75067,-0.56 -3.91467,-0.92 -1.06267,-0.33334 -2.06667,-0.64 -2.93733,-0.69334 -2.50534,-0.13333 -4.78667,0.04 -6.87867,0.25334 -1.116,0.10666 -2.18133,0.65333 -3.41467,1.26666 -0.78266,0.4 -1.59066,0.8 -2.48533,1.13334 -2.53466,0.93333 -3.808,1.61333 -4.7,2.49333 -1.26533,1.24 -1.832,2.52 -2.38133,4.30667 l -0.12133,0.4 c -0.30134,0.98666 -0.58534,1.90666 -0.61067,2.16 0.004,0.14666 0.11733,0.74666 0.216,1.28 l 0.20933,1.14666 c 0.428,2.41334 -1.184,4.72 -3.60133,5.14667 -0.26267,0.0533 -0.524,0.0667 -0.78,0.0667"
       style="fill:#362421;fill-opacity:1;fill-rule:nonzero;stroke:none;stroke-width:0.133333" />
    <path
       id="path44"
       d="m 1294.8533,673.21339 -8.8893,-0.04 c 0.01,-1.72 0.01,-1.72 -0.7147,-2.98667 -0.3693,-0.65333 -0.82,-1.44 -1.3667,-2.53333 -0.9186,-1.85333 -1.8653,-3.58667 -3.3426,-4.62667 -0.3547,-0.24 -1.8414,-0.4 -2.8254,-0.52 -0.988,-0.10666 -2.0226,-0.22666 -3.0813,-0.42666 -1.8733,-0.36 -3.9107,-0.69334 -6.4507,-0.50667 -1.544,0.10667 -2.9586,-0.04 -4.2026,-0.17333 -1.0147,-0.10667 -1.9734,-0.21334 -2.5774,-0.10667 -0.6266,0.0933 -1.4773,0.56 -2.3773,1.04 -1.1253,0.6 -2.4,1.29333 -3.9133,1.68 -1.3907,0.34667 -2.7214,0.52 -3.8947,0.66667 -1.084,0.13333 -2.1067,0.26666 -2.8867,0.50666 -1.404,0.44 -2.7373,0.74667 -4.0266,1.02667 -0.996,0.22667 -1.9747,0.44 -2.9187,0.73333 -0.6547,0.2 -1.3027,0.41334 -1.9453,0.62667 -1.6827,0.54667 -3.4214,1.12 -5.3067,1.49333 -2.06,0.4 -3.94,0.2 -5.596,0.0133 -0.8267,-0.08 -1.6373,-0.18667 -2.2973,-0.16 h -0.376 c -2.1694,0.0267 -4.6427,0.0533 -7.4387,-0.48 -1.884,-0.37334 -3.5667,-0.8 -5.1933,-1.22667 l -1.6267,-0.42667 c -0.7627,-0.18666 -1.684,-0.22666 -2.66,-0.28 -1.3467,-0.0667 -2.872,-0.14666 -4.4107,-0.62666 -1.8853,-0.6 -3.4746,-1.38667 -4.7533,-2.01334 -0.6373,-0.32 -1.2333,-0.62666 -1.8053,-0.85333 -1.5,-0.6 -2.1054,-0.70667 -2.6894,-0.82667 -1.2413,-0.24 -2.28,-0.50666 -4.3533,-1.70666 l 4.464,-7.69334 c 0.94,0.54667 1.064,0.57334 1.588,0.68 0.796,0.14667 1.9973,0.38667 4.2627,1.28 0.7866,0.30667 1.6133,0.72 2.4933,1.16 1.1013,0.54667 2.24,1.10667 3.456,1.49334 0.4573,0.14666 1.3427,0.18666 2.1987,0.22666 1.2933,0.0667 2.7586,0.14667 4.3573,0.54667 l 1.712,0.44 c 1.4933,0.38667 3.0373,0.78667 4.6453,1.09333 1.9134,0.37334 3.6494,0.34667 5.6547,0.33334 l 0.3827,-0.0133 c 1.236,0.0133 2.356,0.12 3.3546,0.22667 1.168,0.12 2.176,0.22667 2.9067,0.0933 1.3507,-0.26666 2.7627,-0.73333 4.2573,-1.22666 0.7027,-0.22667 1.408,-0.45334 2.1254,-0.68 1.212,-0.36 2.4106,-0.64 3.5693,-0.89334 1.1613,-0.26666 2.2587,-0.50666 3.3067,-0.84 1.54,-0.48 3.012,-0.66666 4.4346,-0.84 1.008,-0.13333 1.96,-0.25333 2.8174,-0.46666 0.4546,-0.12 1.1866,-0.52 1.8933,-0.89334 1.3627,-0.73333 3.0573,-1.64 5.148,-1.98666 1.7827,-0.29334 3.4653,-0.12 4.948,0.04 0.9653,0.0933 1.8747,0.2 2.6507,0.14666 3.6026,-0.25333 6.3986,0.2 8.736,0.64 0.8253,0.16 1.636,0.24 2.408,0.33334 2.224,0.24 4.7426,0.53333 6.9453,2.08 3.44,2.41333 5.16,5.85333 6.1867,7.92 0.456,0.90666 0.8333,1.57333 1.14,2.10666 1.3466,2.37334 1.8933,3.70667 1.8773,7.42667"
       style="fill:#362421;fill-opacity:1;fill-rule:nonzero;stroke:none;stroke-width:0.133333" />
    <path
       id="path45"
       d="m 956.86264,616.74673 c -1.89333,0 -3.64933,-1.21334 -4.24266,-3.12 -0.27867,-0.89334 -0.66267,-1.81334 -1.068,-2.8 -0.56,-1.34667 -1.13867,-2.74667 -1.544,-4.28 -0.652,-2.49334 -1.23867,-4.96 -1.74667,-7.33334 -0.42667,-2.01333 -0.208,-3.90666 -0.032,-5.42666 0.0987,-0.86667 0.20133,-1.74667 0.12267,-2.24 -0.27734,-1.70667 -0.38934,-3.30667 -0.49867,-4.85334 -0.06,-0.86666 -0.12,-1.73333 -0.21467,-2.58666 -0.10266,-0.92 -0.22933,-1.82667 -0.35333,-2.70667 -0.21333,-1.53333 -0.436,-3.12 -0.528,-4.72 -0.052,-0.89333 -0.25733,-1.86667 -0.47333,-2.90667 -0.288,-1.37333 -0.61334,-2.93333 -0.61867,-4.57333 -0.005,-1.89333 0.26267,-3.58667 0.49867,-5.08 0.14133,-0.89333 0.276,-1.74667 0.316,-2.44 0.0627,-1.10667 0.0213,-2.22667 -0.02,-3.30667 -0.0533,-1.41333 -0.108,-2.86666 0.076,-4.30666 0.144,-1.13334 0.0333,-1.85334 -0.084,-2.6 -0.40934,-2.65334 -0.24,-5.64 4.12933,-7.8 1.21867,-0.6 2.64933,-0.6 3.876,-0.0133 1.94267,0.92 3.60267,2 5.20933,3.02667 0.51867,0.33333 1.04,0.68 1.576,1.01333 1.888,1.17334 3.576,2.48 5.20934,3.74667 l 1.20666,0.92 c 0.756,0.57333 1.55734,1.08 2.352,1.6 1.35734,0.86667 2.76267,1.77333 4.10267,2.97333 0.696,0.61334 1.48533,1.21334 2.32133,1.84 1.26267,0.96 2.56667,1.94667 3.77734,3.17334 1.42,1.44 2.676,2.90666 3.88933,4.32 0.44933,0.52 0.89067,1.04 1.332,1.53333 0.688,0.78667 1.448,1.53333 2.252,2.32 1.07467,1.05333 2.18533,2.13333 3.15867,3.36 1.24666,1.57333 2.264,3.13333 3.16133,4.49333 0.456,0.69334 0.88667,1.34667 1.31067,1.94667 0.87866,1.22667 1.42533,1.97333 1.83733,2.52 0.95333,1.29333 1.31867,1.8 2.66133,4.05333 1.25996,2.10667 0.57336,4.84 -1.53333,6.09334 -2.108,1.25333 -4.83733,0.57333 -6.096,-1.53334 -1.18,-1.97333 -1.37067,-2.22666 -2.17333,-3.30666 -0.43334,-0.58667 -1.012,-1.37334 -1.93867,-2.68 -0.484,-0.68 -0.976,-1.42667 -1.496,-2.21334 -0.836,-1.26666 -1.70133,-2.58666 -2.70533,-3.85333 -0.62267,-0.78667 -1.48667,-1.62667 -2.40134,-2.53333 -0.888,-0.86667 -1.80666,-1.76 -2.716,-2.8 -0.46133,-0.52 -0.92666,-1.06667 -1.39733,-1.61334 -1.11733,-1.30666 -2.272,-2.64 -3.47867,-3.86666 -0.75333,-0.77334 -1.748,-1.52 -2.80133,-2.32 -0.94,-0.70667 -1.91333,-1.44 -2.876,-2.29334 -0.82267,-0.73333 -1.88,-1.41333 -3,-2.13333 -0.95333,-0.61333 -1.94,-1.25333 -2.92667,-2 l -1.25466,-0.97333 c -1.528,-1.17334 -2.97067,-2.29334 -4.484,-3.24 -0.376,-0.22667 -0.74534,-0.46667 -1.11067,-0.70667 -0.0187,0.22667 -0.044,0.44 -0.072,0.66667 -0.0907,0.70666 -0.052,1.74666 -0.0107,2.85333 0.0467,1.22667 0.0987,2.61333 0.0107,4.14667 -0.0653,1.14666 -0.24,2.25333 -0.40933,3.32 -0.20267,1.28 -0.39334,2.49333 -0.38934,3.66666 0.001,0.73334 0.20934,1.73334 0.42934,2.78667 0.26133,1.24 0.556,2.65333 0.64666,4.2 0.072,1.25333 0.26,2.58667 0.45867,4 0.13467,0.97333 0.272,1.96 0.384,2.97333 0.108,0.96 0.17733,1.94667 0.248,2.94667 0.0987,1.4 0.192,2.73333 0.40533,4.04 0.276,1.70667 0.0933,3.29333 -0.068,4.68 -0.112,0.97333 -0.22666,1.97333 -0.10266,2.56 0.47866,2.25333 1.03333,4.57333 1.65066,6.93333 0.24934,0.94667 0.68934,2.01334 1.15467,3.13334 0.46533,1.12 0.94533,2.28 1.34533,3.56 0.73067,2.33333 -0.576,4.82666 -2.92,5.56 -0.44133,0.13333 -0.88666,0.2 -1.324,0.2"
       style="fill:#362421;fill-opacity:1;fill-rule:nonzero;stroke:none;stroke-width:0.133333" />
    <path
       id="path46"
       d="m 1192.9066,625.34673 c -0.5626,0 -1.1333,-0.10667 -1.6853,-0.33334 -2.272,-0.93333 -3.3573,-3.53333 -2.4253,-5.8 0.6413,-1.56 1.5346,-2.82666 2.3226,-3.93333 0.5694,-0.8 1.1067,-1.56 1.3107,-2.12 0.328,-0.90667 0.532,-1.98667 0.7493,-3.12 0.2254,-1.18667 0.46,-2.42667 0.8654,-3.69333 0.3186,-0.98667 0.5146,-2.10667 0.7226,-3.29334 0.1987,-1.13333 0.4027,-2.30666 0.7347,-3.50666 0.4307,-1.56 1.0947,-2.89334 1.6787,-4.06667 0.4493,-0.90667 0.872,-1.76 1.0213,-2.4 0.3253,-1.4 0.5653,-2.85333 0.7973,-4.26667 0.1454,-0.86666 0.288,-1.73333 0.4454,-2.57333 0.2213,-1.17333 0.4986,-2.30667 0.7706,-3.41333 0.296,-1.21334 0.5787,-2.36 0.724,-3.37334 0.308,-2.14666 0.5747,-4.4 0.8147,-6.89333 0.077,-0.8 -0.1573,-1.81333 -0.4067,-2.88 -0.2786,-1.2 -0.596,-2.56 -0.5466,-4.01333 -0.8574,0.44 -1.7307,1.01333 -2.648,1.61333 -0.968,0.64 -1.968,1.29333 -3.0774,1.88 -0.7213,0.38667 -1.44,0.76 -2.1546,1.13333 -1.4454,0.74667 -2.8094,1.45334 -4.0867,2.21334 -1.328,0.77333 -2.6787,1.30666 -3.8707,1.78666 -1.0146,0.4 -1.972,0.77334 -2.6306,1.2 -0.6694,0.44 -1.376,1.2 -2.1254,1.98667 -0.884,0.94667 -1.8853,2.01333 -3.144,2.90667 -2.092,1.48 -4.0493,2.97333 -5.6866,4.22666 -1.2787,0.98667 -2.5774,1.70667 -3.724,2.34667 -0.9187,0.50667 -1.7867,1 -2.3374,1.45333 -2.0146,1.68 -3.82,3.25334 -5.3626,4.65334 -1.868,1.70666 -2.868,2.37333 -3.5974,2.86666 -0.5706,0.38667 -0.8573,0.57334 -1.8093,1.58667 -1.6813,1.78667 -4.4933,1.88 -6.2813,0.2 -1.7907,-1.68 -1.88,-4.49333 -0.2,-6.28 1.528,-1.62667 2.3493,-2.22667 3.3453,-2.89333 0.5787,-0.38667 1.176,-0.78667 2.5533,-2.04 1.6374,-1.49334 3.54,-3.14667 5.656,-4.92 1.1934,-1 2.4747,-1.70667 3.7134,-2.4 0.9613,-0.53334 1.8693,-1.04 2.6253,-1.61334 1.7067,-1.32 3.7507,-2.86666 5.9693,-4.44 0.5254,-0.37333 1.1414,-1.02666 1.7947,-1.72 1.0293,-1.10666 2.196,-2.34666 3.7707,-3.37333 1.404,-0.90667 2.892,-1.49333 4.204,-2.01333 0.9706,-0.38667 1.8893,-0.74667 2.612,-1.17334 1.4933,-0.88 3.0333,-1.68 4.5213,-2.45333 0.684,-0.36 1.372,-0.70667 2.0613,-1.08 0.756,-0.4 1.552,-0.92 2.3934,-1.48 1.188,-0.77333 2.536,-1.65333 4.0506,-2.37333 1.4587,-0.69334 2.8027,-1.14667 4.104,-1.57334 0.8467,-0.28 1.7054,-0.56 2.6,-0.93333 1.3667,-0.56 2.928,-0.41333 4.164,0.4 2.3534,1.56 4.6334,4.33333 2.124,8.66667 -0.3773,0.65333 -0.6053,1.05333 -0.6426,1.94666 -0.01,0.28 0.1813,1.09334 0.32,1.69334 0.3626,1.56 0.8133,3.49333 0.5973,5.74666 -0.2547,2.62667 -0.5373,5.01334 -0.8653,7.30667 -0.2067,1.44 -0.5534,2.85333 -0.8894,4.22667 -0.2346,0.96 -0.4773,1.93333 -0.668,2.94666 -0.1453,0.77334 -0.276,1.56 -0.4093,2.37334 -0.256,1.54666 -0.52,3.14666 -0.9107,4.82666 -0.3826,1.65334 -1.092,3.08 -1.716,4.33334 -0.4466,0.89333 -0.8693,1.74666 -1.072,2.49333 -0.2186,0.78667 -0.3786,1.69333 -0.548,2.66667 -0.2386,1.36 -0.5093,2.89333 -1.012,4.46666 -0.2413,0.76 -0.4146,1.66667 -0.5986,2.64 -0.2614,1.37334 -0.556,2.93334 -1.1307,4.50667 -0.6147,1.68 -1.568,3.02667 -2.4107,4.21333 -0.5626,0.8 -1.0946,1.54667 -1.3506,2.17334 -0.7054,1.72 -2.364,2.76 -4.1134,2.76"
       style="fill:#362421;fill-opacity:1;fill-rule:nonzero;stroke:none;stroke-width:0.133333" />
    <path
       id="path47"
       d="m 1070.7533,918.57338 c 0.08,0 0.1587,0 0.2387,0 1.572,0.0267 3.0266,0.28 4.3106,0.52 1.0947,0.2 2.1294,0.38667 2.9187,0.36 1.4627,-0.0533 2.9307,-0.21333 4.484,-0.38666 0.9147,-0.0933 1.8173,-0.2 2.7053,-0.26667 l 1.72,-0.14667 c 1.9227,-0.14666 3.7387,-0.29333 5.4334,-0.53333 1.3333,-0.2 2.6893,-0.54667 4.1266,-0.93333 0.9574,-0.24 1.9027,-0.49334 2.836,-0.69334 0.8414,-0.17333 1.824,-0.66666 2.8627,-1.18666 1.0907,-0.53334 2.3253,-1.16 3.7053,-1.57334 l 0.708,-0.2 c 2.104,-0.62666 4.0907,-1.22666 5.9014,-1.96 2.2106,-0.88 4.2426,-1.94666 6.2066,-2.98666 0.816,-0.42667 1.6347,-0.81334 2.444,-1.2 1.3454,-0.65334 2.6174,-1.26667 3.6374,-1.96 0.7026,-0.48 1.4146,-0.93334 2.1213,-1.38667 1.3187,-0.84 2.564,-1.64 3.516,-2.49333 1.1227,-1 2.124,-2.24 3.184,-3.54667 0.428,-0.53333 0.8533,-1.05333 1.2853,-1.57333 0.668,-0.78667 1.216,-1.89333 1.796,-3.05333 0.4494,-0.90667 0.9147,-1.84 1.5014,-2.78667 0.64,-1.04 1.3506,-1.96 1.9773,-2.77333 0.7933,-1.02667 1.476,-1.92 1.8307,-2.74667 l 0.4893,-1.13333 c 0.7813,-1.81334 1.5213,-3.52 1.944,-5.16 0.3773,-1.46667 0.5173,-3.09334 0.6653,-4.82667 0.055,-0.62667 0.108,-1.25333 0.1734,-1.88 0.1986,-1.90667 0.2333,-3.97333 0.1133,-6.70667 -0.051,-1.16 -0.3813,-2.44 -0.7307,-3.8 -0.2373,-0.92 -0.4693,-1.82666 -0.6493,-2.74666 -0.196,-1.02667 -0.32,-2.04 -0.4387,-3.06667 -0.16,-1.37333 -0.2986,-2.56 -0.644,-3.52 -0.376,-1.04 -1.0746,-2.08 -1.884,-3.28 -0.5613,-0.84 -1.1186,-1.68 -1.6146,-2.56 -0.32,-0.56 -0.628,-1.13333 -0.9334,-1.69333 -0.824,-1.52 -1.6013,-2.94667 -2.552,-4.13334 -0.8613,-1.06666 -1.528,-2.21333 -2.116,-3.22666 -0.6213,-1.05334 -1.208,-2.06667 -1.8226,-2.64 -0.7747,-0.72 -1.8827,-1.38667 -3.0574,-2.10667 -0.9373,-0.56 -1.9053,-1.14667 -2.8733,-1.85333 -0.6973,-0.50667 -1.384,-1.04 -2.0733,-1.57334 -1.276,-0.98666 -2.48,-1.93333 -3.7174,-2.64 -1.1626,-0.68 -2.512,-1.25333 -3.9413,-1.85333 -0.884,-0.37333 -1.7707,-0.76 -2.6427,-1.16 -1.16,-0.54667 -2.48,-0.97333 -3.876,-1.44 -0.9893,-0.32 -1.9813,-0.65333 -2.9613,-1.02667 -1.3467,-0.50666 -2.5693,-1.17333 -3.6467,-1.76 -1.0733,-0.58666 -2.088,-1.14666 -2.9946,-1.42666 -1.1667,-0.34667 -2.4707,-0.6 -3.8507,-0.84 -1.128,-0.21334 -2.2547,-0.42667 -3.364,-0.69334 -2.3813,-0.58666 -4.8267,-1.18666 -7.1973,-1.64 l -1.848,-0.34666 c -1.884,-0.37334 -3.6627,-0.72 -5.436,-0.97334 -1.216,-0.17333 -2.5187,-0.21333 -3.8974,-0.26666 -1.1746,-0.04 -2.3453,-0.08 -3.5026,-0.18667 -0.984,-0.0933 -2.132,0 -3.3454,0.10667 -1.292,0.10666 -2.6333,0.21333 -4.0693,0.14666 v 0 c -1.6093,-0.08 -3.044,-0.48 -4.3107,-0.84 -0.9933,-0.28 -1.904,-0.52 -2.5813,-0.52 -0.6893,0.0133 -1.644,0.29334 -2.6547,0.58667 -1.236,0.36 -2.6373,0.77333 -4.2026,0.92 -1.1147,0.0933 -2.2347,0.12 -3.3574,0.13333 -1.2786,0.0133 -2.4853,0.04 -3.5666,0.2 -1.4974,0.24 -2.9267,0.2 -4.1867,0.17334 -1.0893,-0.0267 -2.1227,-0.0533 -2.852,0.10666 -1.1173,0.25334 -2.3107,0.69334 -3.5747,1.16 -1.0173,0.37334 -2.032,0.74667 -3.0573,1.05334 -2.2013,0.66666 -4.48,1.36 -6.604,2.17333 -0.6013,0.22667 -1.376,0.82667 -2.196,1.46667 -1.0293,0.8 -2.1947,1.70666 -3.6373,2.38666 -1.6454,0.78667 -3.348,1.02667 -4.7174,1.22667 -0.812,0.10667 -1.824,0.25333 -2.1706,0.45333 -0.928,0.54667 -1.884,1.34667 -2.8987,2.2 -0.8467,0.70667 -1.692,1.4 -2.572,2.02667 -1.0853,0.77333 -2.1373,1.76 -3.2507,2.8 -0.6173,0.58667 -1.236,1.16 -1.86929,1.72 -0.6,0.52 -1.21733,1.02667 -1.836,1.54667 -1.20133,0.98666 -2.336,1.93333 -3.252,2.93333 -0.53733,0.58667 -1.036,1.54667 -1.56533,2.54667 -0.52534,1.01333 -1.12267,2.16 -1.92,3.25333 -0.696,0.97333 -1.428,1.78667 -2.136,2.58667 -0.824,0.92 -1.60134,1.8 -2.06667,2.64 -0.296,0.54666 -0.60133,1.08 -0.90933,1.61333 -0.856,1.49333 -1.66534,2.90667 -2.23734,4.33333 -0.396,0.98667 -0.57733,2.25334 -0.76666,3.6 -0.15334,1.08 -0.312,2.2 -0.59867,3.36 -0.15467,0.61334 -0.316,1.24 -0.47733,1.84 -0.46,1.73334 -0.892,3.37334 -1.01067,4.89334 -0.092,1.2 0.13333,2.52 0.39333,4.04 0.15334,0.89333 0.30267,1.77333 0.40534,2.66666 0.128,1.14667 0.14266,2.26667 0.156,3.25334 0.0173,1.38666 0.032,2.57333 0.32933,3.48 0.628,1.89333 1.63467,3.8 2.952,6.08 0.25867,0.44 0.51333,0.89333 0.77067,1.36 0.92266,1.64 1.79333,3.18666 2.888,4.45333 0.90266,1.05333 2.176,2.08 3.52533,3.16 0.584,0.46666 1.17333,0.94666 1.75467,1.42666 0.764,0.65334 1.824,1.21334 3.04933,1.86667 0.936,0.49333 1.996,1.05333 3.04669,1.72 1.3986,0.90667 2.4546,2.04 3.3866,3.05333 0.76,0.82667 1.4787,1.6 2.0787,1.90667 0.6493,0.32 1.704,0.54667 2.8187,0.77333 1.316,0.26667 2.8093,0.56 4.3266,1.17334 1.2307,0.49333 2.6227,0.88 4.0974,1.30666 0.9533,0.26667 1.9226,0.54667 2.9,0.85334 1.088,0.34666 2.1666,0.78666 3.2586,1.22666 1.2827,0.52 2.4947,1.01334 3.7,1.32 1.0494,0.26667 2.272,0.41334 3.5654,0.57334 1.2133,0.14666 2.4666,0.30666 3.7933,0.57333 1.0613,0.21333 2.1213,0.48 3.1947,0.74667 1.412,0.34666 2.744,0.68 4.0906,0.89333 0.864,0.13333 1.7334,0.29333 2.6107,0.44 1.572,0.28 3.1973,0.56 4.7987,0.74667 1.3773,0.17333 2.6666,0.46666 3.912,0.76 1.2453,0.29333 2.4226,0.56 3.5213,0.65333 1.196,0.10667 2.4013,0.28 3.6213,0.45333 1.364,0.21334 2.652,0.4 3.9107,0.46667 0.9267,0.0533 2.028,-0.0933 3.192,-0.25333 1.1613,-0.16 2.4693,-0.33334 3.832,-0.33334 z m 7.324,9.77334 c -1.5667,0 -3.04,-0.26667 -4.352,-0.50667 -1.0413,-0.18667 -2.0253,-0.36 -2.872,-0.38667 -0.7653,0.0133 -1.7267,0.12 -2.7333,0.26667 -1.4587,0.18667 -3.1094,0.42667 -4.8987,0.32 -1.656,-0.0933 -3.2027,-0.33333 -4.6987,-0.54667 -1.0426,-0.14666 -2.072,-0.30666 -3.092,-0.4 -1.7253,-0.14666 -3.3373,-0.52 -4.76,-0.85333 -1.0626,-0.24 -2.064,-0.48 -2.964,-0.58667 -1.8373,-0.21333 -3.5786,-0.52 -5.2626,-0.81333 -0.8334,-0.14667 -1.6587,-0.29333 -2.4787,-0.41333 -1.7333,-0.28 -3.3213,-0.68 -4.8587,-1.05334 -0.9426,-0.24 -1.8733,-0.48 -2.8026,-0.66666 -0.9854,-0.2 -2.016,-0.32 -3.108,-0.45334 -1.516,-0.18666 -3.0827,-0.38666 -4.6867,-0.78666 -1.7813,-0.46667 -3.4,-1.12 -4.828,-1.69334 -0.8853,-0.36 -1.7547,-0.70666 -2.636,-1 -0.884,-0.28 -1.7627,-0.53333 -2.628,-0.77333 -1.624,-0.46667 -3.304,-0.93333 -4.96,-1.6 -0.7773,-0.30667 -1.76,-0.50667 -2.8013,-0.72 -1.5614,-0.32 -3.332,-0.68 -5.04,-1.53333 -2.04002,-1.02667 -3.46802,-2.57334 -4.61469,-3.81334 -0.59867,-0.65333 -1.21867,-1.32 -1.66133,-1.61333 -0.736,-0.46667 -1.54534,-0.89333 -2.4,-1.34667 -1.54,-0.81333 -3.13067,-1.66666 -4.62267,-2.92 -0.528,-0.44 -1.064,-0.88 -1.59467,-1.30666 -1.6,-1.28 -3.256,-2.61334 -4.68533,-4.26667 -1.676,-1.94667 -2.86267,-4.05333 -3.90667,-5.92 l -0.71333,-1.25333 c -1.59333,-2.74667 -2.832,-5.12 -3.69867,-7.74667 -0.72933,-2.2 -0.75733,-4.30666 -0.78,-6.16 -0.0107,-0.85333 -0.02,-1.65333 -0.1,-2.36 -0.0827,-0.72 -0.208,-1.44 -0.332,-2.16 -0.316,-1.85333 -0.67333,-3.93333 -0.49466,-6.24 0.17866,-2.32 0.73733,-4.42666 1.27733,-6.46666 0.15067,-0.56 0.3,-1.13334 0.44133,-1.70667 0.17867,-0.72 0.30134,-1.57333 0.428,-2.48 0.24534,-1.72 0.52134,-3.66667 1.31734,-5.65333 0.80133,-2 1.804,-3.74667 2.77466,-5.44 0.284,-0.50667 0.568,-1 0.84134,-1.49334 0.94533,-1.70666 2.144,-3.05333 3.204,-4.25333 0.588,-0.65333 1.144,-1.28 1.57733,-1.88 0.42,-0.58667 0.82,-1.34667 1.244,-2.16 0.73467,-1.41333 1.568,-3 2.89333,-4.45333 1.328,-1.44 2.75467,-2.62667 4.13334,-3.77334 0.55333,-0.45333 1.10666,-0.90666 1.64533,-1.38666 0.56133,-0.49334 1.108,-1 1.65733,-1.52 1.276,-1.18667 2.59467,-2.42667 4.16,-3.53334 0.69466,-0.49333 1.35866,-1.06666 2.03066,-1.62666 1.1933,-1 2.548,-2.13334 4.1253,-3.05334 1.852,-1.08 3.82,-1.36 5.4014,-1.58666 0.8106,-0.10667 1.728,-0.24 2.1493,-0.44 0.5653,-0.26667 1.26,-0.81334 1.9973,-1.38667 1.236,-0.96 2.6374,-2.04 4.4707,-2.74667 2.428,-0.93333 4.864,-1.66666 7.2187,-2.37333 0.856,-0.25333 1.7013,-0.57333 2.548,-0.88 1.476,-0.54667 3.0013,-1.10667 4.6813,-1.49333 1.8173,-0.41334 3.5333,-0.37334 5.0507,-0.33334 0.9653,0.0267 1.8786,0.0533 2.5746,-0.0533 1.7027,-0.26667 3.2867,-0.29333 4.8174,-0.32 0.9013,-0.0133 1.8013,-0.0133 2.6946,-0.0933 0.6947,-0.0667 1.5654,-0.32 2.4894,-0.6 1.452,-0.41334 3.0986,-0.90667 4.968,-0.94667 1.952,-0.0267 3.6746,0.44 5.1786,0.86667 0.8907,0.24 1.7334,0.48 2.336,0.50666 0,0 0,0 0,0 0.8546,0.04 1.8466,-0.04 2.8973,-0.12 1.476,-0.13333 3.148,-0.26666 4.9187,-0.10666 0.9826,0.0933 1.976,0.13333 2.972,0.16 1.5506,0.0533 3.1533,0.10666 4.8346,0.34666 2.0107,0.28 3.9907,0.66667 5.9067,1.04 l 1.8,0.36 c 2.5973,0.49334 5.156,1.12 7.632,1.72 0.9573,0.24 1.9173,0.41334 2.876,0.58667 1.5693,0.28 3.1907,0.58667 4.8493,1.09333 1.7707,0.54667 3.3014,1.38667 4.652,2.12 0.9054,0.49334 1.7614,0.96 2.5347,1.25334 0.8547,0.32 1.72,0.61333 2.5827,0.89333 1.5853,0.52 3.224,1.05333 4.868,1.82667 0.7733,0.36 1.5613,0.69333 2.3466,1.02666 1.616,0.68 3.2867,1.4 4.9254,2.34667 1.7613,1.01333 3.2666,2.18667 4.7213,3.32 0.6133,0.46667 1.2227,0.94667 1.8427,1.4 0.716,0.52 1.4826,0.97333 2.2466,1.44 1.4414,0.86667 3.0747,1.85333 4.5254,3.21333 1.5653,1.46667 2.556,3.16 3.4306,4.65334 0.4747,0.81333 0.9227,1.58666 1.372,2.14666 1.4494,1.8 2.4574,3.65334 3.432,5.45334 0.28,0.52 0.5614,1.04 0.8547,1.56 0.3853,0.66666 0.8253,1.32 1.2613,1.97333 0.9934,1.48 2.1187,3.14667 2.8667,5.22667 0.6933,1.92 0.9147,3.82666 1.1107,5.50666 0.093,0.8 0.1826,1.6 0.3373,2.4 0.1427,0.74667 0.3373,1.48 0.5267,2.21334 0.4293,1.66666 0.916,3.54666 1.0066,5.64 0.093,2.14666 0.16,5 -0.1546,8.01333 -0.059,0.57333 -0.1067,1.14667 -0.1574,1.72 -0.164,1.92 -0.3506,4.09333 -0.9146,6.28 -0.596,2.32 -1.5094,4.42667 -2.392,6.46667 l -0.4707,1.09333 c -0.7987,1.86667 -1.9493,3.37333 -2.964,4.69333 -0.544,0.70667 -1.06,1.37334 -1.46,2.01334 -0.408,0.66666 -0.7533,1.37333 -1.1053,2.07999 -0.752,1.50667 -1.604,3.22667 -2.9627,4.82667 -0.3893,0.46667 -0.7733,0.94667 -1.1587,1.41333 -1.18,1.46667 -2.516,3.12 -4.1773,4.6 -1.488,1.33334 -3.0987,2.36 -4.656,3.36 -0.6267,0.4 -1.2613,0.8 -1.884,1.22667 -1.584,1.09333 -3.2293,1.88 -4.8187,2.64 -0.7093,0.33333 -1.4293,0.68 -2.1453,1.05333 -2.0613,1.09334 -4.4,2.32 -7.0373,3.37334 -2.188,0.88 -4.3627,1.53333 -6.6667,2.21333 l -0.6973,0.21333 c -0.6534,0.2 -1.4534,0.6 -2.3014,1.01334 -1.4133,0.70666 -3.016,1.50666 -4.944,1.92 -0.812,0.17333 -1.6346,0.38666 -2.4693,0.61333 -1.608,0.41333 -3.2693,0.84 -5.092,1.10667 -1.9827,0.29333 -4.028,0.45333 -6.008,0.61333 l -1.6747,0.13333 c -0.8146,0.0667 -1.6413,0.16 -2.4786,0.25334 -1.656,0.18666 -3.3707,0.37333 -5.1814,0.42666 -0.1413,0 -0.2813,0.0133 -0.4213,0.0133"
       style="fill:#362421;fill-opacity:1;fill-rule:nonzero;stroke:none;stroke-width:0.133333" />
    <path
       id="path48"
       d="m 1039.2106,848.54672 c 0.9854,1.2 2.3267,2.93333 3.3,5.28 0.8267,2 1.5627,4.05333 1.8934,6.05333 0.4386,2.65334 0.624,4.85334 -0.7307,5.96 -1.3533,1.10667 -3.5227,0.64 -6.0387,-0.30666 -1.896,-0.72 -3.6893,-2.02667 -5.4853,-3.22667 -2.1107,-1.41333 -3.5013,-3.08 -4.4867,-4.28 -1.468,-1.78667 -2.7173,-3.38667 -2.508,-5.52 0.2094,-2.13333 1.1107,-4.22667 2.8987,-5.69333 1.7867,-1.46667 3.984,-1.62667 6.1173,-1.41334 2.132,0.21334 3.5734,1.34667 5.04,3.14667"
       style="fill:#362421;fill-opacity:1;fill-rule:nonzero;stroke:none;stroke-width:0.133333" />
    <path
       id="path49"
       d="m 1086.3053,847.77339 c -0.9853,1.2 -1.1427,3.81333 -2.116,6.16 -0.8267,1.98666 -2.2533,3.88 -2.584,5.88 -0.4387,2.64 -0.7467,5.6 0.608,6.70666 1.3533,1.12 3.9733,-0.33333 6.4893,-1.28 1.896,-0.72 4.4507,-0.76 6.2454,-1.96 2.112,-1.4 3.1386,-3.82666 4.124,-5.02666 1.4666,-1.78667 1.7066,-3.54667 1.496,-5.68 -0.2094,-2.13334 0.172,-4.97334 -1.6147,-6.44 -1.7867,-1.46667 -4.5147,-0.64 -6.648,-0.42667 -2.132,0.2 -4.5333,0.28 -6,2.06667"
       style="fill:#362421;fill-opacity:1;fill-rule:nonzero;stroke:none;stroke-width:0.133333" />
    <path
       id="path50"
       d="m 986.79064,744.30672 c -0.836,2.10667 -2.88533,3.25334 -4.296,4.72 -1.57866,1.62667 -2.676,3.88 -4.604,4.50667 -2.09333,0.66667 -4.47066,0.26667 -6.49333,-0.54667 -2.02267,-0.8 -3.42667,-2.46666 -4.488,-4.38666 -0.97867,-1.77334 -2.1,-3.82667 -2.128,-6.09334 -0.024,-2.02666 0.82667,-4.17333 1.66267,-6.28 0.83466,-2.09333 2.428,-3.52 3.83866,-4.98666 1.57867,-1.62667 2.85734,-3.68 4.78534,-4.29334 2.092,-0.68 4.356,-0.0667 6.38,0.73334 2.02266,0.81333 3.04933,2.49333 4.11066,4.41333 0.98,1.77333 1.832,3.56 1.85867,5.84 0.024,2.02667 0.208,4.28 -0.62667,6.37333"
       style="fill:#362421;fill-opacity:1;fill-rule:nonzero;stroke:none;stroke-width:0.133333" />
    <path
       id="path51"
       d="m 1142.7586,744.12006 c 0.8907,2.08 1.128,4.41333 2.5774,5.84 1.6213,1.6 3.5746,2.94666 5.5186,3.50666 2.1094,0.61334 4.6654,0.74667 6.6667,-0.10666 2.0013,-0.85334 3.9907,-2.62667 5.0013,-4.58667 0.932,-1.8 1.536,-4.30667 1.5027,-6.58667 -0.029,-2.02666 -1.6307,-4.01333 -2.52,-6.08 -0.8907,-2.09333 -2.4187,-3.38666 -3.868,-4.81333 -1.6213,-1.58667 -2.9453,-3.13333 -4.8893,-3.70667 -2.1094,-0.61333 -4.5214,-1.46666 -6.5227,-0.61333 -2.0013,0.85333 -3.7547,2.82667 -4.7653,4.77333 -0.932,1.8 -1.22,4.21334 -1.1867,6.48 0.029,2.04 1.5947,3.81334 2.4853,5.89334"
       style="fill:#362421;fill-opacity:1;fill-rule:nonzero;stroke:none;stroke-width:0.133333" />
    <path
       id="path52"
       d="m 957.48531,1011.6134 h 0.02 z m 1.01867,7.6 c -1.244,0 -2.568,-0.1734 -4.53867,-0.7734 -5.41067,-1.6266 -5.38667,-5.6533 -5.376,-7.5866 0.005,-0.9467 0.0107,-1.8267 -0.33733,-3.0667 -0.31467,-1.1333 -0.53867,-2.2933 -0.776,-3.52 -0.24267,-1.2533 -0.49467,-2.56 -0.86,-3.9067 -0.36934,-1.35995 -0.52934,-2.73328 -0.684,-4.03995 -0.14267,-1.22667 -0.27867,-2.37333 -0.564,-3.45333 -0.31467,-1.2 -0.608,-2.44 -0.91334,-3.73334 -0.27466,-1.17333 -0.55866,-2.37333 -0.87866,-3.62666 -0.14267,-0.54667 -0.596,-1.34667 -1.07467,-2.2 -0.72533,-1.29334 -1.62667,-2.89334 -2.10667,-4.8 -0.44533,-1.76 -0.37866,-3.45334 -0.31866,-4.94667 0.0427,-1.05333 0.0827,-2.06667 -0.0867,-2.74667 -0.16267,-0.65333 -0.6,-1.52 -1.06267,-2.44 -0.67466,-1.33333 -1.43866,-2.84 -1.876,-4.64 -0.44266,-1.81333 -0.33466,-3.54666 -0.24,-5.06666 0.0653,-1.02667 0.12667,-2.01334 -0.024,-2.65334 -0.16266,-0.66666 -0.596,-1.54666 -1.05466,-2.48 -0.656,-1.32 -1.39867,-2.82666 -1.81734,-4.61333 -0.34533,-1.46667 -0.48666,-2.88 -0.624,-4.24 -0.116,-1.17333 -0.228,-2.28 -0.45733,-3.26667 -0.25467,-1.10666 -0.548,-2.22666 -0.84133,-3.34666 -0.344,-1.30667 -0.68934,-2.62667 -0.99734,-3.98667 -0.20133,-0.88 -0.576,-1.86667 -0.972,-2.92 -0.48533,-1.26667 -1.03466,-2.72 -1.38933,-4.29333 -0.54133,-2.41334 -1.092,-4.88 -1.648,-7.38667 -0.22,-1 -0.552,-2.05333 -0.90267,-3.17333 -0.41066,-1.30667 -0.83333,-2.65334 -1.15466,-4.13334 -0.36534,-1.66666 -0.612,-3.30666 -0.85067,-4.89333 -0.14267,-0.94667 -0.28533,-1.89333 -0.45333,-2.82667 -0.16267,-0.90666 -0.34,-1.8 -0.516,-2.69333 -0.324,-1.62667 -0.65867,-3.32 -0.89867,-5.01333 -0.25067,-1.78667 -0.192,-3.48 -0.14,-4.97333 0.0387,-1.06667 0.0733,-2.06667 -0.0107,-2.90667 -0.18133,-1.81333 -0.0307,-3.50667 0.104,-5.01333 0.092,-1.04 0.18,-2.01334 0.13334,-2.84 -0.056,-0.97334 -0.21334,-2.01334 -0.38267,-3.10667 -0.22933,-1.48 -0.46533,-3.01333 -0.48533,-4.66667 -0.0187,-1.8 0.22933,-3.48 0.44666,-4.96 0.15334,-1.02666 0.296,-2 0.328,-2.86666 0.10534,-2.82667 0.26,-5.38667 0.47334,-7.78667 0.0667,-0.76 -0.0747,-1.74667 -0.224,-2.78667 -0.22,-1.54666 -0.46934,-3.29333 -0.20134,-5.16 0.28934,-2.02666 1.028,-3.70666 1.68,-5.18666 0.392,-0.89334 0.764,-1.74667 0.89067,-2.37334 0.15867,-0.77333 0.30267,-1.54666 0.44533,-2.30666 0.336,-1.77334 0.68267,-3.61334 1.15867,-5.38667 0.60533,-2.26667 1.29867,-4.26667 1.968,-6.21333 l 0.44533,-1.29334 c 0.336,-0.98666 0.616,-1.94666 0.88934,-2.88 0.45066,-1.53333 0.91866,-3.13333 1.56266,-4.65333 0.86934,-2.04 1.92134,-3.74667 2.76534,-5.12 0.4,-0.65333 0.77866,-1.25333 1.096,-1.85333 0.83733,-1.57334 1.152,-2.34667 1.404,-2.97334 0.576,-1.41333 0.99466,-2.25333 2.58666,-4.29333 1.50667,-1.94667 4.29867,-2.29333 6.236,-0.77333 1.93734,1.50666 2.28534,4.29333 0.77734,6.22666 -0.99734,1.28 -1.068,1.45334 -1.36134,2.18667 -0.29466,0.72 -0.74133,1.82667 -1.79866,3.81333 -0.39867,0.74667 -0.86934,1.52 -1.37334,2.33334 -0.75866,1.22666 -1.544,2.50666 -2.152,3.93333 -0.44,1.04 -0.81466,2.32 -1.212,3.68 -0.30666,1.04 -0.62666,2.13333 -1.00533,3.24 l -0.46,1.33333 c -0.61733,1.78667 -1.25867,3.64 -1.78133,5.6 -0.39067,1.45334 -0.69067,3.05334 -1.01067,4.74667 -0.14933,0.78667 -0.30133,1.6 -0.468,2.41333 -0.31733,1.57334 -0.92667,2.96 -1.464,4.18667 -0.464,1.05333 -0.90133,2.05333 -1.01867,2.86667 -0.0893,0.61333 0.052,1.6 0.20134,2.65333 0.20266,1.42667 0.43466,3.04 0.27733,4.81333 -0.19867,2.26667 -0.344,4.66667 -0.444,7.34667 -0.0493,1.34667 -0.236,2.61333 -0.41733,3.84 -0.18667,1.25333 -0.36267,2.45333 -0.35067,3.54667 0.012,1.02666 0.19067,2.18666 0.38133,3.42666 0.19334,1.25334 0.392,2.54667 0.47334,3.96 0.0827,1.46667 -0.0387,2.81334 -0.156,4.13334 -0.108,1.21333 -0.21067,2.34666 -0.11334,3.33333 0.144,1.44 0.096,2.78667 0.0507,4.09333 -0.0427,1.24 -0.084,2.41334 0.0587,3.41334 0.204,1.45333 0.50266,2.95999 0.816,4.54666 0.18533,0.93333 0.37333,1.88 0.544,2.84 0.18266,1 0.33866,2.04 0.496,3.08 0.22666,1.50667 0.44133,2.93333 0.74533,4.32 0.23467,1.08 0.58267,2.18667 0.94933,3.36 0.39334,1.25333 0.79867,2.54667 1.10134,3.92 0.55466,2.49333 1.10266,4.94667 1.64266,7.34667 0.216,0.97333 0.60934,2.01333 1.02534,3.10666 0.488,1.28 0.992,2.61334 1.32933,4.09334 0.28667,1.25333 0.60933,2.49333 0.92933,3.70666 0.31734,1.21334 0.62934,2.41334 0.904,3.6 0.356,1.53334 0.508,3.04 0.64134,4.37334 0.11333,1.13333 0.22,2.2 0.432,3.10666 0.18533,0.78667 0.64533,1.72 1.13333,2.70667 0.62533,1.26667 1.336,2.70667 1.73067,4.36 0.46,1.92 0.344,3.77333 0.25066,5.26667 -0.0587,0.93333 -0.11866,1.89333 0.005,2.41333 0.19466,0.8 0.668,1.73333 1.168,2.72 0.636,1.25333 1.356,2.68 1.76133,4.32 0.47333,1.90667 0.40133,3.76 0.34133,5.24 -0.0387,0.93333 -0.076,1.89333 0.0547,2.41333 0.18933,0.76 0.69733,1.65334 1.23467,2.61334 0.70533,1.25333 1.504,2.66666 1.936,4.34666 0.33466,1.30667 0.63466,2.57334 0.924,3.8 0.28533,1.21334 0.56,2.38667 0.85466,3.50667 0.44667,1.69333 0.632,3.28 0.79734,4.68 0.12266,1.04 0.23866,2.02667 0.43733,2.76 0.44933,1.66667 0.74533,3.18665 1.00667,4.53335 0.20933,1.0933 0.392,2.04 0.60666,2.8133 0.564,2 0.656,3.6133 0.668,4.8 0.78267,0.1867 1.184,0.1467 2.108,0.067 0.73467,-0.067 1.74,-0.1467 3.124,-0.1467 0.928,0 1.19867,-0.12 1.92534,-0.4267 1.11466,-0.4666 2.644,-1.1066 5.35866,-1.1066 1.69067,0 2.536,-0.04 3.38134,-0.093 0.976,-0.053 1.95066,-0.1066 3.90133,-0.1066 2.19333,0 3.40667,0.2 4.38133,0.36 0.812,0.1466 1.45334,0.2533 2.90134,0.2533 1.55866,0 2.28266,-0.093 3.11866,-0.1867 0.97734,-0.12 2.08267,-0.2533 4.16667,-0.2533 2.656,0 4.15733,0.5867 5.25467,1.0133 0.74266,0.28 1.04933,0.4 2.044,0.4 1.36133,0 2.38663,0.1334 3.13463,0.24 0.136,0.013 0.2614,0.04 0.3814,0.053 0.092,-0.08 0.216,-0.1867 0.3746,-0.3334 0.044,-0.04 0.084,-0.08 0.1187,-0.1066 -0.01,-0.053 -0.012,-0.093 -0.017,-0.1467 -0.088,-0.6933 -0.2094,-1.64 -0.2094,-2.88 0,-0.6 -0.036,-0.6667 -0.3826,-1.32 -0.5667,-1.0667 -1.4227,-2.68 -1.4227,-5.47998 0,-2.57334 0.616,-4.08 1.0227,-5.08 0.2733,-0.66667 0.364,-0.89334 0.364,-1.72 0,-0.84 -0.097,-1.09334 -0.3627,-1.76 -0.5227,-1.30667 -0.9933,-2.68 -0.9933,-5.05334 0,-3.97333 0.095,-4.66666 1.716,-8.37333 0.3653,-0.82667 1.4813,-3.37333 4.3493,-3.81333 2.8133,-0.41334 4.5173,1.57333 5.3387,2.53333 0.6493,0.76 1.212,1.41333 2.1146,1.69333 0.932,0.29334 2.084,0.56 3.416,0.84 1.168,0.26667 2.4107,0.53334 3.704,0.88 0.5254,0.13334 1.5027,0.12 2.4454,0.12 1.4693,-0.0267 3.1293,-0.04 4.944,0.36 0.8106,0.17334 1.6293,0.37334 2.464,0.57334 1.5053,0.34666 3.064,0.72 4.652,1 1.4133,0.25333 2.6813,0.68 3.908,1.09333 1.1373,0.37333 2.2133,0.73333 3.1866,0.86667 0.8254,0.10666 1.888,0.04 3.012,-0.0267 1.304,-0.08 2.7827,-0.17333 4.352,-0.0267 1.704,0.16 3.2054,0.69334 4.5307,1.16 1.0147,0.36 1.972,0.70667 2.6733,0.73334 1.3,0.0667 2.684,0.04 4.152,0 1.0574,-0.0267 2.1187,-0.0533 3.1947,-0.04 1.3867,0.0133 2.8627,-0.08 4.4133,-0.16 0.9627,-0.0667 1.9334,-0.12 2.9094,-0.14667 1.168,-0.0533 2.352,-0.0133 3.5466,0.0267 1.344,0.04 2.6094,0.08 3.792,-0.0133 1.6667,-0.13333 3.368,-0.37333 5.172,-0.61333 l 2.108,-0.28 c 1.1267,-0.14667 2.34,-0.44 3.6254,-0.76 1.1693,-0.29333 2.3466,-0.57333 3.54,-0.78667 2.3133,-0.4 4.7213,-0.89333 7.1573,-1.44 1.216,-0.28 2.4787,-0.69333 3.816,-1.13333 1.0467,-0.33333 2.0987,-0.68 3.1707,-0.97333 1.8693,-0.52 3.732,-1.14667 5.7053,-1.81334 l 1.228,-0.4 c 1.2627,-0.42666 2.348,-0.66666 3.3053,-0.88 1.012,-0.22666 1.8854,-0.42666 2.8787,-0.81333 2.268,-0.88 4.8267,0.22667 5.736,2.48 1.2387,3.08 1.3267,4.17333 1.264,6.52 -0.012,0.44 -0.027,0.94667 -0.027,1.6 0,1.73333 -0.01,2.58667 -0.017,3.45333 -0.01,0.84 -0.017,1.66667 -0.017,3.34667 0,2.12 -0.2187,3.28 -0.396,4.22667 -0.14,0.74666 -0.2427,1.29333 -0.2427,2.57333 0,1.10664 0.116,1.53334 0.308,2.23994 0.2613,0.96 0.62,2.28 0.62,4.5734 0,0.9333 -0.116,1.7466 -0.2827,2.4533 0.78,-0.1867 1.7094,-0.32 2.784,-0.32 2.2547,0 3.5014,0.24 4.5014,0.44 0.8106,0.16 1.396,0.2667 2.7826,0.2667 1.692,0 2.5387,-0.04 3.384,-0.093 0.9747,-0.053 1.9494,-0.1066 3.8987,-0.1066 1.6627,0 2.4947,-0.067 3.3267,-0.12 0.9266,-0.067 1.9786,-0.1467 3.9573,-0.1467 2.2427,0 3.484,0.24 4.48,0.4267 0.816,0.16 1.4067,0.2666 2.8053,0.2666 1.7654,0 2.6494,-0.013 3.532,-0.04 0.9414,-0.027 1.8827,-0.053 3.7654,-0.053 h 0.9093 c 1.8,0 2.2787,0.013 3.4,-0.28 -0.059,-1.16 0.025,-2.64 0.52,-4.4133 l 0.6067,-2.1334 c 0.4293,-1.5066 0.912,-3.19994 1.4226,-5.07994 0.3227,-1.2 0.748,-2.37333 1.1587,-3.50667 0.428,-1.17333 0.8707,-2.4 1.196,-3.64 0.2507,-0.94666 0.452,-2.02666 0.6667,-3.17333 0.248,-1.33333 0.504,-2.72 0.884,-4.18667 0.296,-1.14666 0.6533,-2.32 1.0213,-3.52 0.3667,-1.2 0.7467,-2.42666 1.0693,-3.70666 0.368,-1.45334 0.9187,-2.76 1.4507,-4.01334 0.4613,-1.09333 0.896,-2.12 1.1373,-3.09333 0.132,-0.53333 0.089,-1.50667 0.049,-2.44 -0.065,-1.48 -0.1454,-3.32 0.316,-5.21333 0.356,-1.46667 0.8866,-2.77334 1.4,-4.05334 0.4413,-1.08 0.8573,-2.12 1.088,-3.08 0.22,-0.92 0.344,-2 0.4746,-3.14666 0.152,-1.30667 0.3227,-2.8 0.6814,-4.33334 0.2626,-1.12 0.4693,-2.26666 0.68,-3.42666 0.236,-1.30667 0.4773,-2.62667 0.7826,-3.96 0.2814,-1.21334 0.5414,-2.44 0.804,-3.69334 0.2547,-1.21333 0.5134,-2.42666 0.7934,-3.66666 0.424,-1.86667 1.316,-3.36 2.1013,-4.69334 0.4987,-0.84 1.0147,-1.70666 1.1467,-2.29333 0.132,-0.58667 0.079,-1.54667 0.023,-2.56 -0.085,-1.52 -0.1813,-3.25333 0.2307,-5.10667 0.404,-1.82666 1.2427,-3.33333 1.9827,-4.66666 0.5053,-0.90667 0.9826,-1.76 1.1186,-2.37334 0.1107,-0.52 -0.041,-1.54666 -0.1746,-2.46666 -0.2254,-1.53334 -0.4787,-3.28 -0.132,-5.17334 0.352,-1.93333 1.22,-3.56 1.9186,-4.86666 0.424,-0.78667 0.9067,-1.69333 0.9774,-2.17333 0.1306,-0.89334 0.065,-2 0,-3.17334 -0.077,-1.30666 -0.1654,-2.78666 0,-4.32 0.1693,-1.53333 0.252,-3.05333 0.34,-4.65333 0.051,-0.92 0.1,-1.82667 0.1653,-2.72 0.089,-1.24 0.055,-2.53333 0.019,-3.89333 -0.032,-1.17334 -0.061,-2.34667 -0.021,-3.50667 l 0.091,-2.34667 c 0.072,-1.70666 0.1427,-3.37333 0.1347,-5.02666 -0.01,-1.64 0.2533,-3.16 0.4853,-4.49334 0.192,-1.09333 0.372,-2.13333 0.3347,-2.92 -0.041,-0.89333 -0.3307,-1.96 -0.6387,-3.09333 -0.3426,-1.25333 -0.7306,-2.68 -0.8666,-4.21333 -0.1507,-1.70667 0.032,-3.29334 0.1946,-4.68 0.1254,-1.08 0.2427,-2.09334 0.1494,-2.78667 -0.1974,-1.49333 -0.508,-3.01333 -0.8094,-4.49333 -0.192,-0.94667 -0.3813,-1.86667 -0.5426,-2.77334 -0.164,-0.93333 -0.6,-1.97333 -1.0614,-3.06666 -0.492,-1.17334 -1.048,-2.49334 -1.3786,-3.94667 -0.424,-1.88 -0.3467,-3.68 -0.284,-5.12 0.039,-0.90667 0.083,-1.92 -0.048,-2.38667 -0.4827,-1.73333 -1.068,-3.37333 -1.6334,-4.97333 -0.2453,-0.69333 -0.4826,-1.36 -0.7026,-2.01333 -0.5374,-1.58667 -1.1987,-3.02667 -1.8387,-4.41334 -0.3787,-0.82666 -0.7347,-1.6 -1.036,-2.33333 -1.316,-3.18667 -1.3613,-3.26667 -2.1187,-4.56 -0.2533,-0.42667 -0.568,-0.96 -1,-1.72 -1.2106,-2.14667 -0.4626,-4.85333 1.6734,-6.06667 2.1333,-1.21333 4.8466,-0.46666 6.0586,1.68 0.4014,0.70667 0.6974,1.2 0.9334,1.61334 0.992,1.68 1.2053,2.10666 2.6733,5.66666 0.2573,0.64 0.5653,1.29334 0.892,2 0.7,1.53334 1.4947,3.25334 2.18,5.28 0.208,0.61334 0.432,1.24 0.6627,1.89334 0.5866,1.65333 1.252,3.53333 1.8173,5.56 0.5107,1.82666 0.4347,3.6 0.368,5.16 -0.047,1.05333 -0.091,2.05333 0.072,2.76 0.1573,0.69333 0.5213,1.56 0.9053,2.48 0.6,1.42666 1.2787,3.05333 1.6174,4.94666 0.148,0.84 0.3226,1.69334 0.4986,2.54667 0.3334,1.64 0.676,3.30667 0.9134,5.10667 0.2373,1.8 0.041,3.49333 -0.132,4.98666 -0.124,1.06667 -0.2414,2.06667 -0.1694,2.86667 0.065,0.74667 0.32,1.68 0.588,2.66667 0.4014,1.46666 0.856,3.14666 0.9427,5.01333 0.081,1.76 -0.204,3.4 -0.4573,4.85333 -0.184,1.06667 -0.3587,2.06667 -0.3534,2.92 0.01,1.78667 -0.065,3.6 -0.1426,5.45334 l -0.089,2.26666 c -0.033,0.98667 0,1.97334 0.024,2.97334 0.04,1.52 0.083,3.09333 -0.039,4.77333 -0.061,0.84 -0.108,1.69333 -0.1547,2.56 -0.091,1.66667 -0.1853,3.37333 -0.3787,5.14667 -0.085,0.78666 -0.028,1.77333 0.035,2.81333 0.089,1.50667 0.1893,3.2 -0.075,4.98666 -0.2946,2.01334 -1.164,3.65334 -1.9306,5.08 -0.4494,0.84 -0.9147,1.72 -1.016,2.28 -0.084,0.45334 0.057,1.42667 0.1826,2.29334 0.232,1.57333 0.5187,3.54666 0.064,5.64 -0.416,1.90666 -1.2786,3.45333 -2.04,4.81333 -0.464,0.84 -0.9426,1.69333 -1.0653,2.25333 -0.148,0.66667 -0.093,1.65334 -0.035,2.69334 0.083,1.50666 0.1774,3.2 -0.2266,5 -0.4387,1.96 -1.3987,3.57333 -2.1707,4.88 -0.476,0.8 -0.968,1.62666 -1.0827,2.13333 -0.268,1.18667 -0.516,2.36 -0.7613,3.52 -0.276,1.30667 -0.548,2.6 -0.8413,3.86667 -0.2734,1.18666 -0.4854,2.37333 -0.6974,3.53333 -0.2386,1.32 -0.4746,2.62667 -0.7733,3.89333 -0.2387,1.01334 -0.368,2.13334 -0.504,3.30667 -0.1547,1.36 -0.3147,2.76 -0.6587,4.2 -0.3866,1.61333 -0.9746,3.06667 -1.4933,4.34667 -0.4107,1.01333 -0.8,1.98666 -1.004,2.81333 -0.1627,0.68 -0.12,1.68 -0.073,2.73333 0.064,1.49334 0.1386,3.18667 -0.3014,4.96 -0.4093,1.65334 -1.0306,3.12 -1.5786,4.41334 -0.4214,1 -0.8174,1.93333 -1.0187,2.73333 -0.3613,1.42667 -0.78,2.8 -1.1893,4.13333 -0.328,1.08 -0.6494,2.10667 -0.9134,3.13334 -0.304,1.18666 -0.532,2.41333 -0.752,3.6 -0.2333,1.25333 -0.4746,2.54666 -0.8093,3.81333 -0.428,1.62667 -0.9627,3.10667 -1.4333,4.4 -0.3654,1.01333 -0.712,1.96 -0.9387,2.79994 -0.5213,1.9334 -1.0147,3.6534 -1.4547,5.2 l -0.5933,2.0934 c -0.316,1.12 -0.212,1.7333 -0.08,2.52 0.652,3.84 -0.9733,6.3733 -4.832,7.5333 -3.556,1.0667 -4.3133,1.1333 -7.5933,1.1333 h -0.884 c -1.7667,0 -2.6494,0.027 -3.532,0.04 -0.9414,0.027 -1.8827,0.053 -3.7654,0.053 -2.2453,0 -3.4853,-0.24 -4.4813,-0.4267 -0.816,-0.16 -1.4053,-0.2667 -2.804,-0.2667 -1.6627,0 -2.4947,0.053 -3.3267,0.12 -0.9266,0.067 -1.9786,0.1334 -3.9573,0.1334 -1.692,0 -2.5373,0.053 -3.384,0.1066 -0.9747,0.053 -1.9493,0.1067 -3.8987,0.1067 -2.256,0 -3.5013,-0.24 -4.5026,-0.44 -0.8107,-0.16 -1.3947,-0.28 -2.7814,-0.28 -0.596,0 -0.9853,0.1467 -1.628,0.3867 -1.5586,0.5866 -4.7946,1.8 -8.444,-1.6134 -3.7773,-3.5333 -2.264,-7.12 -1.6946,-8.4666 0.268,-0.6267 0.376,-0.9067 0.376,-1.32 0,-1.1067 -0.1147,-1.5334 -0.3067,-2.24 -0.2613,-0.96 -0.6213,-2.28 -0.6213,-4.57334 0,-2.10667 0.22,-3.28 0.396,-4.21333 0.1413,-0.76 0.2426,-1.29334 0.2426,-2.58667 0,-1.72 0.01,-2.58667 0.017,-3.44 0.01,-0.84 0.017,-1.68 0.017,-3.36 0,-0.32 0,-0.61333 0.01,-0.89333 -0.4867,0.12 -0.96,0.24 -1.4693,0.41333 l -1.2134,0.41333 c -1.992,0.66667 -4.052,1.34667 -6.1426,1.93334 -0.9454,0.26666 -1.872,0.57333 -2.7934,0.86666 -1.472,0.48 -2.9933,0.98667 -4.6146,1.34667 -2.5747,0.58667 -5.124,1.09333 -7.576,1.53333 -0.9987,0.17334 -1.98,0.41334 -2.9574,0.65334 -1.4706,0.37333 -2.992,0.74666 -4.6213,0.94666 l -2.044,0.28 c -1.84,0.25334 -3.7427,0.50667 -5.6453,0.65334 -1.6894,0.14666 -3.2707,0.0933 -4.804,0.04 -0.9867,-0.0267 -1.9707,-0.0667 -2.932,-0.0267 -0.9134,0.0267 -1.82,0.08 -2.72,0.13333 -1.6227,0.0933 -3.2867,0.21334 -4.992,0.18667 -0.9787,-0.0133 -1.952,0.0133 -2.9174,0.04 -1.5613,0.0267 -3.1813,0.0667 -4.8106,-0.0133 -1.9974,-0.0933 -3.6947,-0.69334 -5.192,-1.22667 -0.9174,-0.33333 -1.7814,-0.62667 -2.3787,-0.69333 -0.8987,-0.08 -1.9187,-0.0133 -3.0013,0.0533 -1.4267,0.08 -3.048,0.18667 -4.728,-0.04 -1.816,-0.25333 -3.42,-0.78667 -4.836,-1.25333 -0.9574,-0.33334 -1.8627,-0.62667 -2.6187,-0.76 -1.8467,-0.33334 -3.5347,-0.73334 -5.1667,-1.12 -0.7826,-0.18667 -1.552,-0.36 -2.3093,-0.53334 -0.8267,-0.17333 -1.8547,-0.17333 -2.948,-0.16 -1.4693,0.0133 -3.124,0.04 -4.8133,-0.41333 -1.1654,-0.30667 -2.2867,-0.54667 -3.34,-0.77333 -1.4787,-0.33334 -2.8747,-0.64 -4.1907,-1.05334 -0.7147,-0.22666 -1.3627,-0.50666 -1.948,-0.81333 0,0.04 0,0.08 0,0.10667 0,1.04 0.099,1.29333 0.3627,1.96 0.524,1.30666 0.9933,2.68 0.9933,5.04 0,2.57333 -0.6147,4.08 -1.0227,5.08 -0.272,0.66666 -0.364,0.89333 -0.364,1.72 0,0.5867 0.036,0.6667 0.3827,1.32 0.5667,1.0667 1.4227,2.6667 1.4227,5.48 0,0.68 0.067,1.2 0.1386,1.76 0.3094,2.4667 0.3254,4.9067 -2.8613,7.88 -3.168,2.9467 -5.4933,2.92 -7.9893,2.5867 -0.6107,-0.08 -1.18803,-0.16 -1.96003,-0.16 -2.656,0 -4.15734,-0.5867 -5.25467,-1.0134 -0.74267,-0.28 -1.04933,-0.4 -2.044,-0.4 -1.55733,0 -2.28133,0.08 -3.11867,0.1867 -0.976,0.1067 -2.08266,0.24 -4.16666,0.24 -2.192,0 -3.40534,-0.2 -4.38134,-0.36 -0.812,-0.1467 -1.45333,-0.2533 -2.90133,-0.2533 -1.69067,0 -2.536,0.053 -3.38133,0.1066 -0.976,0.053 -1.95067,0.1067 -3.90134,0.1067 -0.928,0 -1.2,0.12 -1.92533,0.4133 -1.116,0.4667 -2.64533,1.1067 -5.35867,1.1067 -1.02133,0 -1.74,0.067 -2.34933,0.12 -0.64533,0.067 -1.24267,0.1067 -1.85733,0.1067"
       style="fill:#362421;fill-opacity:1;fill-rule:nonzero;stroke:none;stroke-width:0.133333" />
    <path
       id="path53"
       d="m 959.28398,1004.7467 c -2.62534,0 -4.06534,-0.44 -5.22134,-0.7867 -0.83066,-0.2533 -1.33066,-0.4133 -2.63333,-0.4133 -2.45467,0 -4.444,-1.9867 -4.444,-4.43998 0,-2.45334 1.98933,-4.44 4.444,-4.44 2.62533,0 4.06533,0.44 5.22133,0.78666 0.83067,0.25334 1.332,0.41334 2.63334,0.41334 1.87466,0 2.81066,-0.04 3.74666,-0.08 1.028,-0.04 2.05467,-0.08 4.108,-0.08 1.86,0 2.78934,-0.0533 3.72,-0.0933 1.03334,-0.04 2.06667,-0.0933 4.13334,-0.0933 2.14133,0 3.27866,0.0933 4.28133,0.17333 0.91867,0.0667 1.78667,0.13334 3.57333,0.13334 1.35467,0 1.90267,-0.14667 2.732,-0.38667 1.136,-0.30667 2.55067,-0.70667 5.124,-0.70667 1.89067,0 2.836,-0.0267 3.78134,-0.0667 1.02133,-0.0267 2.044,-0.0667 4.088,-0.0667 2.56932,0 3.98132,0.38667 5.11732,0.70667 0.8347,0.22666 1.3853,0.37333 2.7507,0.37333 2.4546,0 4.444,2 4.444,4.45335 0,2.4533 -1.9894,4.44 -4.444,4.44 -2.5694,0 -3.9827,-0.3867 -5.1174,-0.7067 -0.836,-0.2267 -1.38662,-0.3733 -2.75062,-0.3733 -1.89067,0 -2.836,0.027 -3.78134,0.053 -1.02133,0.04 -2.044,0.08 -4.088,0.08 -1.35466,0 -1.90266,0.1467 -2.732,0.3867 -1.136,0.3066 -2.55066,0.7066 -5.124,0.7066 -2.14133,0 -3.27733,-0.093 -4.28133,-0.1733 -0.91733,-0.067 -1.78533,-0.1333 -3.57333,-0.1333 -1.86,0 -2.78934,0.04 -3.71867,0.08 -1.03467,0.053 -2.06667,0.093 -4.13467,0.093 -1.87333,0 -2.81066,0.04 -3.74666,0.08 -1.02667,0.04 -2.05467,0.08 -4.108,0.08"
       style="fill:#362421;fill-opacity:1;fill-rule:nonzero;stroke:none;stroke-width:0.133333" />
    <path
       id="path54"
       d="m 1147.6813,1004.8134 c -2.5173,0 -3.904,-0.36 -5.0173,-0.64 -0.86,-0.2134 -1.4267,-0.36 -2.836,-0.36 -1.832,0 -2.7467,0.053 -3.6627,0.1066 -1.048,0.067 -2.096,0.1334 -4.192,0.1334 -2.204,0 -3.3747,-0.1334 -4.4067,-0.24 -0.9266,-0.1067 -1.7253,-0.1867 -3.448,-0.1867 -2.4546,0 -4.4453,-1.9867 -4.4453,-4.45332 0,-2.45333 1.9907,-4.44 4.4453,-4.44 2.204,0 3.3747,0.13334 4.4067,0.24 0.9253,0.10667 1.724,0.18667 3.448,0.18667 1.832,0 2.7467,-0.0533 3.6627,-0.10667 1.048,-0.0667 2.096,-0.12 4.192,-0.12 2.5173,0 3.904,0.34667 5.0173,0.62667 0.86,0.21333 1.4267,0.36 2.836,0.36 1.8293,0 2.7453,-0.0533 3.6587,-0.10667 1.0493,-0.0667 2.0986,-0.13333 4.1946,-0.13333 2.04,0 3.0587,0.04 4.0787,0.0667 0.944,0.04 1.8893,0.0667 3.7773,0.0667 1.396,0 1.96,-0.14666 2.8107,-0.37333 1.1227,-0.28 2.52,-0.65333 5.0587,-0.65333 2.26,0 3.46,0.16 4.5186,0.30666 0.9,0.12 1.676,0.21334 3.3507,0.21334 2.4547,0 4.444,1.98666 4.444,4.44 0,2.46671 -1.9893,4.45331 -4.444,4.45331 -2.26,0 -3.46,-0.16 -4.5187,-0.3066 -0.8986,-0.12 -1.676,-0.2134 -3.3506,-0.2134 -1.396,0 -1.96,0.1467 -2.8107,0.36 -1.1227,0.3067 -2.52,0.6667 -5.0587,0.6667 -2.0373,0 -3.0573,-0.04 -4.076,-0.067 -0.9453,-0.04 -1.8906,-0.067 -3.78,-0.067 -1.828,0 -2.744,0.053 -3.6573,0.1066 -1.0493,0.067 -2.0987,0.1334 -4.196,0.1334"
       style="fill:#362421;fill-opacity:1;fill-rule:nonzero;stroke:none;stroke-width:0.133333" />
  </g>
</svg>
