<?xml version="1.0" encoding="UTF-8" standalone="no"?>
<!-- Created with Inkscape (http://www.inkscape.org/) -->

<svg
   version="1.1"
   id="svg1"
   width="337.48535"
   height="484.08887"
   viewBox="0 0 337.48535 484.08887"
   xmlns="http://www.w3.org/2000/svg"
   xmlns:svg="http://www.w3.org/2000/svg">
  <defs
     id="defs1" />
  <g
     id="g1"
     transform="translate(-2075.5799,-2183.2043)">
    <path
       id="path2"
       d="M 2666.6666,2962.96 H 0 V 7.4074e-5 H 2666.6666 V 2962.96"
       style="display:none;fill:#fef5e6;fill-opacity:1;fill-rule:nonzero;stroke:none;stroke-width:0.133333" />
    <path
       id="path354"
       d="m 2113.3466,2287.8934 c 0,0 -9.3733,23.9199 -11.9733,64.1466 -2.6,40.2267 5.9866,68.4533 5.9866,68.4533 l 4.7734,93.8534 9.9733,39.08 c 0,0 0.4267,31.0533 39.0133,58.8 l 12.3734,45.52 6.2266,-1.2667 8.5867,-7.6 7.6533,6.6667 5.72,-1.8 6.5734,-26.4534 c 0,0 53,8.6667 84.08,0.3067 l 9.2933,34.6667 12.0667,-8.8 10.2666,7.4266 14.64,-48.6666 c 0,0 21.9467,-18.4934 30.1867,-28.28 8.2533,-9.7867 8.5067,-27.8134 8.5067,-27.8134 0,0 6.0933,2.6667 7.48,-28.8133 1.3733,-31.4667 2.88,-65.0533 2.88,-65.0533 l 3.2533,-70.7734 v -47.8666 l -10.6133,-61.4533 -10.9867,-26.4534 c 0,0 -1.32,-20.6266 -3.4933,-22.1733 -2.1734,-1.5467 -23.3067,-16.7467 -23.3067,-16.7467 0,0 -38.1733,-31.72 -99.4667,-28.36 -61.3066,3.3734 -93.2933,37.0667 -93.2933,37.0667 l -20.24,13.2 -7.4,10.56 -8.76,38.6267"
       style="fill:#fab9c7;fill-opacity:1;fill-rule:nonzero;stroke:none;stroke-width:0.133333" />
    <path
       id="path355"
       d="m 2133.0799,2528.4533 -16.24,-2.6666 c 0,0 -3.8666,-2.2534 -3.0666,2.4933 0.8,4.7467 3.6133,17.6 5.7466,22.0533 l 12.7467,-6.5733 10.0533,9.6667 7.9067,-20.76 c 0,0 1,-1.2267 -2.6667,-1.8267 -3.6666,-0.6 -14.48,-2.3867 -14.48,-2.3867"
       style="fill:#f68ca8;fill-opacity:1;fill-rule:nonzero;stroke:none;stroke-width:0.133333" />
    <path
       id="path356"
       d="m 2362.4933,2535.44 -13.3867,2.4667 c 0,0 -2.1467,0.053 -1.6133,2.5733 0.5333,2.52 3.9066,18.32 3.9066,18.32 l 12.7467,-9.6267 c 0,0 11.7333,9.68 15.44,5.8134 3.6933,-3.88 3.0267,-7.8667 3.0267,-7.8667 l 1.9733,-12.2933 c 0,0 1.5067,-3.7467 -2.3067,-3.04 -3.8,0.6933 -19.7866,3.6533 -19.7866,3.6533"
       style="fill:#f68ca8;fill-opacity:1;fill-rule:nonzero;stroke:none;stroke-width:0.133333" />
    <path
       id="path357"
       d="m 2187.1066,2638.5867 -16.6,-2.72 c 0,0 -1.6,3.5466 0,9.1466 1.6,5.6 1,12.76 4.5467,12.4134 3.5466,-0.3467 12.0533,-7.2534 12.0533,-7.2534 l 12.4,5.9867 5.5067,-9.5067 c 0,0 1.2666,-7.2666 -5.1067,-6.6666 -6.3867,0.5866 -12.8,-1.4 -12.8,-1.4"
       style="fill:#f68ca8;fill-opacity:1;fill-rule:nonzero;stroke:none;stroke-width:0.133333" />
    <path
       id="path358"
       d="m 2310.0266,2641.48 -10,1.9867 c 0,0 -3.16,1.0666 -2.08,5.0933 1.08,4.0267 2.8267,13.7067 2.8267,13.7067 l 11.8533,-8.0267 11.1333,8.3867 6.04,-21.1467 c 0,0 1.4534,-4.64 -3.3333,-3.76 -4.7867,0.88 -16.44,3.76 -16.44,3.76"
       style="fill:#f68ca8;fill-opacity:1;fill-rule:nonzero;stroke:none;stroke-width:0.133333" />
    <path
       id="path359"
       d="m 2342.6399,2216.7734 c -0.9066,-3.36 2.4934,-0.7067 6.6534,-1.3067 1.9866,-0.28 4.2933,-0.3867 6.88,-0.3733 2.16,0.013 4.5066,-0.2667 6.9333,0.1333 2.1733,0.3733 4.6267,0.4267 6.92,1.2267 2.0933,0.72 4.1867,1.9466 6.3067,3.12 1.9333,1.0666 4.0133,2.2666 5.92,3.7733 2.04,1.6267 3.3466,4.2 5.3866,5.8533 2.0534,1.68 4.4934,2.84 6.4267,4.5467 2.0267,1.8 3.92,3.6133 5.6667,5.4533 1.8933,2 3.3866,4.16 4.76,6.2 1.56,2.3334 3.2666,4.44 3.9066,6.8267 0.68,2.56 -0.4,5 -1.08,7.6267 -0.6,2.2666 -0.92,4.7866 -2.7866,7.12 -1.44,1.8 -3.8667,2.9066 -6.1867,4.7466 -2.0933,1.6534 -4.04,3.08 -6.08,4.3067 -2.2933,1.3867 -4.2,3 -6.4,3.92 -2.48,1.04 -4.7067,2.3733 -7,2.92 -2.6667,0.64 -5.2133,1.3467 -7.52,1.48 -2.8667,0.1733 -5.56,0.32 -7.7067,0.053 -4.5866,-0.56 -6.2266,0.9867 -7.0133,-2.7066 -0.84,-4.0267 0.48,-4.0267 0.8667,-8.12 0.3866,-4.0934 -0.76,-4.2 -0.3734,-8.2934 0.3867,-4.0933 1,-4.04 1.3867,-8.1333 0.3867,-4.1067 1.3867,-4.0133 1.7733,-8.1067 0.3867,-4.1066 0.9734,-4.2666 -0.067,-8.2533 -0.9334,-3.6133 -2.44,-2.8 -4.6534,-5.7867 -2.2266,-3 -2.6933,-2.64 -4.92,-5.64 -2.2266,-3 -0.7333,-4.2 -3.2666,-6.9466 -2.5734,-2.76 -3.7734,-2.04 -4.7334,-5.64"
       style="fill:#fab9c7;fill-opacity:1;fill-rule:nonzero;stroke:none;stroke-width:0.133333" />
    <path
       id="path360"
       d="m 2361.1066,2279.8134 c 0.84,0 1.88,0.027 3.08,0.1733 1.84,0.2267 4.64,0.067 6.8933,-0.08 1.5467,-0.093 3.4534,-0.56 5.48,-1.0533 l 1.28,-0.3067 c 1.0534,-0.2533 2.32,-0.8533 3.6667,-1.4933 0.8667,-0.4134 1.7333,-0.8267 2.6533,-1.2 0.9867,-0.4267 2.0534,-1.1467 3.28,-1.9734 0.8134,-0.56 1.6534,-1.12 2.5334,-1.6533 1.68,-1.0133 3.4133,-2.2533 5.6133,-3.9867 1.0133,-0.8133 2.0133,-1.48 2.8933,-2.0533 1.0934,-0.72 2.12,-1.4 2.5867,-2 0.9067,-1.1333 1.2267,-2.4667 1.6267,-4.16 0.1066,-0.44 0.2133,-0.88 0.32,-1.3067 0.1466,-0.5733 0.32,-1.1333 0.48,-1.6933 0.4533,-1.5067 0.84,-2.8133 0.6133,-3.64 -0.32,-1.2 -1.3333,-2.6667 -2.4,-4.2 -0.3067,-0.4267 -0.6,-0.8667 -0.8933,-1.2933 -1.3467,-2 -2.68,-3.92 -4.3067,-5.64 -1.5733,-1.6667 -3.3867,-3.4 -5.3867,-5.1734 -0.7733,-0.6933 -1.8,-1.3466 -2.8666,-2.04 -1.12,-0.7066 -2.28,-1.4533 -3.4134,-2.3866 -1.3866,-1.12 -2.4266,-2.4267 -3.3466,-3.5867 -0.7067,-0.8933 -1.3734,-1.7333 -2,-2.2267 -1.6934,-1.3466 -3.6267,-2.4533 -5.3067,-3.3733 l -0.7333,-0.4 c -1.7467,-0.9733 -3.3867,-1.8933 -4.88,-2.4133 -1.1334,-0.4 -2.4934,-0.56 -3.92,-0.7334 -0.7867,-0.093 -1.5467,-0.1866 -2.2667,-0.3066 -1.28,-0.2134 -2.64,-0.16 -4.0933,-0.12 -0.7334,0.027 -1.4267,0.04 -2.1467,0.04 -2.0533,-0.013 -3.76,0.053 -5.2133,0.2133 1.8933,2.1733 2.2933,4.0267 2.5733,5.2667 0.16,0.7733 0.2267,1.0533 0.7067,1.7066 0.8933,1.2134 1.3866,1.68 2,2.2934 0.7466,0.7333 1.5866,1.56 2.9066,3.3333 0.52,0.6933 0.8934,0.9733 1.4534,1.4 1.5866,1.2 3.08,2.5467 3.9466,5.92 0.9334,3.64 0.8,5.1333 0.4667,7.4533 -0.093,0.6267 -0.1867,1.36 -0.28,2.3334 -0.2533,2.5866 -0.7333,3.9733 -1.12,5.0933 -0.2933,0.8667 -0.52,1.4933 -0.6667,3.0133 -0.2133,2.3734 -0.52,3.6134 -0.7866,4.7067 -0.2267,0.92 -0.4267,1.7067 -0.5867,3.4267 -0.1333,1.44 -0.027,2.04 0.1333,2.9333 0.2267,1.2133 0.4934,2.7067 0.24,5.36 -0.1866,2.0533 -0.5866,3.3467 -0.8666,4.2933 -0.2134,0.68 -0.2934,0.9734 -0.24,1.5334 0.093,0 0.2,0 0.2933,0 z m -0.027,1.3466 h 0.013 z m 5.32,7.84 c -1.16,0 -2.2666,-0.053 -3.3066,-0.1866 -1.04,-0.1334 -1.8934,-0.1067 -2.7067,-0.1067 -2.2133,0.053 -6.8,0.1067 -8.1067,-6.1067 -0.6933,-3.2933 -0.3066,-5.0133 0.2667,-6.9066 0.2267,-0.7334 0.4133,-1.3734 0.52,-2.5334 0.1467,-1.44 0.027,-2.04 -0.1333,-2.9466 -0.2134,-1.2 -0.4934,-2.6934 -0.24,-5.3467 0.2266,-2.3733 0.5333,-3.6267 0.8,-4.72 0.2266,-0.9067 0.4266,-1.6933 0.5866,-3.4267 0.24,-2.5733 0.72,-3.9733 1.1067,-5.0933 0.3067,-0.8667 0.52,-1.4933 0.6667,-3.0133 0.1066,-1.1467 0.2266,-2.0134 0.3333,-2.7334 0.2267,-1.64 0.2667,-1.8933 -0.2667,-3.9866 -0.1466,-0.5334 -0.2533,-0.7067 -0.2533,-0.7067 -0.1067,-0.1067 -0.2667,-0.2133 -0.44,-0.3467 -0.7867,-0.5866 -1.9733,-1.48 -3.24,-3.1866 -0.9067,-1.2267 -1.3867,-1.6934 -2,-2.3067 -0.7467,-0.7333 -1.6,-1.56 -2.92,-3.3333 -1.6267,-2.1867 -2,-3.9467 -2.2533,-5.12 -0.1734,-0.8134 -0.2,-0.9067 -0.7067,-1.4534 -0.6267,-0.6666 -1.0933,-1.0133 -1.64,-1.4133 -1.6933,-1.24 -3.1733,-2.56 -4.12,-6.1067 v 0 c -0.7733,-2.88 0.1467,-4.6533 1.0533,-5.6533 1.9867,-2.1733 4.7067,-1.6933 6.3334,-1.4133 0.9733,0.1733 2,0.3466 2.92,0.2133 2.1066,-0.3067 4.56,-0.4533 7.56,-0.4133 0.6,0 1.1733,-0.013 1.7866,-0.04 1.7334,-0.053 3.6934,-0.12 5.84,0.24 0.6,0.093 1.2267,0.1733 1.8667,0.24 1.7467,0.2133 3.7333,0.4533 5.7867,1.16 2.2133,0.7733 4.28,1.92 6.28,3.04 l 0.7066,0.3866 c 2.1334,1.1867 4.4134,2.5067 6.5334,4.1867 1.44,1.1333 2.5066,2.4933 3.4533,3.68 0.6933,0.88 1.3467,1.7067 1.9733,2.2133 0.76,0.6134 1.6534,1.1867 2.6134,1.8 1.3066,0.8534 2.6666,1.72 3.96,2.8667 2.2,1.9467 4.2,3.8667 5.9466,5.7067 2.0934,2.2266 3.7334,4.5733 5.2267,6.7866 0.2667,0.4 0.5467,0.8 0.8133,1.2 1.4534,2.0934 2.96,4.2534 3.6934,6.96 0.88,3.2534 0.013,6.1467 -0.68,8.4667 -0.1334,0.48 -0.28,0.9467 -0.4,1.4267 -0.093,0.36 -0.1867,0.7333 -0.2667,1.0933 -0.52,2.2133 -1.1733,4.9733 -3.3333,7.68 -1.3467,1.68 -3.0134,2.7733 -4.6267,3.84 -0.8,0.5333 -1.56,1.04 -2.28,1.6133 -2.5067,1.9867 -4.52,3.4134 -6.5333,4.6267 -0.7467,0.4533 -1.4534,0.9333 -2.1334,1.4 -1.4933,1.0133 -3.0266,2.0533 -4.8533,2.8267 -0.7733,0.32 -1.5333,0.68 -2.2533,1.0266 -1.7067,0.8134 -3.4667,1.64 -5.44,2.12 l -1.2267,0.2934 c -2.32,0.56 -4.7067,1.1466 -7.0533,1.2933 -1.9067,0.12 -3.6267,0.2133 -5.2134,0.2133"
       style="fill:#362421;fill-opacity:1;fill-rule:nonzero;stroke:none;stroke-width:0.133333" />
    <path
       id="path361"
       d="m 2150.3333,2225.7334 c 1.24,-3.24 -2.9334,-1.9334 -7.0134,-2.96 -1.9466,-0.4934 -4.3733,-0.44 -6.96,-0.6934 -2.1466,-0.2133 -4.4933,-0.6 -6.9466,-0.4533 -2.2,0.1333 -4.4267,0.9867 -6.8,1.5333 -2.1467,0.5067 -4.1334,1.6534 -6.3734,2.6 -2.0266,0.8534 -4.2266,1.4667 -6.2933,2.7734 -2.2,1.3866 -4.24,3.08 -6.44,4.5066 -2.2133,1.44 -4.6267,2.5734 -6.72,4.0667 -2.2,1.5733 -4.3067,3.1333 -6.2267,4.7733 -2.0933,1.8 -4.8,2.9334 -6.3866,4.8267 -1.8,2.1467 -2.0134,5.1467 -2.9067,7.4533 -0.9467,2.4667 -1.52,4.8134 -1.1067,7.4934 0.3467,2.3333 0.2534,5.28 1.8667,7.7866 1.2533,1.9467 4.0267,3.1067 6.1333,5.1867 1.92,1.8667 3.3334,4.0533 5.24,5.4933 2.1334,1.6134 3.9467,3.64 6.0267,4.7734 2.36,1.3066 5.0933,1.6133 7.32,2.3866 2.5733,0.92 5.0267,1.7467 7.3067,2.1334 2.8266,0.4666 5.44,0.1333 7.6,0.1066 4.6266,-0.093 6.8666,2.8934 8.0266,-0.7066 1.2667,-3.9067 -1.08,-4.2934 -1.04,-8.4134 0.053,-4.1066 1.16,-4.0933 1.2,-8.2 0.053,-4.12 0.4667,-4.12 0.5067,-8.2266 0.04,-4.12 -0.7867,-4.1334 -0.7333,-8.2534 0.04,-4.1066 -1.08,-4.2266 0.36,-8.08 1.3066,-3.4933 1.52,-3.44 4.04,-6.1866 2.52,-2.7334 3.6933,-1.6667 6.2133,-4.4134 2.52,-2.7466 0.9333,-4.4933 3.88,-6.8 3.1067,-2.4266 4.8933,-1.0133 6.2267,-4.5066"
       style="fill:#fab9c7;fill-opacity:1;fill-rule:nonzero;stroke:none;stroke-width:0.133333" />
    <path
       id="path362"
       d="m 2146.1866,2224.1467 0.1733,0.067 c 0,0 0.013,0 0.013,-0.013 l -0.1867,-0.067 z m 0,0 0.1733,0.067 z m 4.1467,1.5867 -3.96,-1.5334 c 0,0.013 -0.013,0.013 -0.013,0.013 l 3.9734,1.52 -3.9734,-1.52 z m -28.48,59.3333 c 1.24,0 2.3333,0.16 3.28,0.3467 -0.44,-1.1334 -0.96,-2.7467 -0.9334,-5.0534 0.027,-2.64 0.44,-4.0933 0.7734,-5.2666 0.24,-0.8934 0.4133,-1.48 0.4266,-2.9467 0.027,-2.28 0.16,-3.4933 0.28,-4.56 0.1067,-0.9867 0.2,-1.8267 0.2267,-3.6667 0.013,-1.6133 -0.12,-2.3333 -0.2933,-3.2533 -0.2134,-1.1067 -0.48,-2.4933 -0.4534,-4.9867 0.013,-1.1466 -0.08,-1.84 -0.1866,-2.5733 -0.28,-2.0533 -0.3867,-3.7467 0.84,-7.0267 1.32,-3.5466 1.92,-4.4 4.1333,-6.76 l 0.8,-0.8666 c 1.8667,-2.04 3.4133,-2.7467 4.5467,-3.2534 0.7333,-0.3333 1.0133,-0.4533 1.6666,-1.16 0.4267,-0.48 0.48,-0.6933 0.6934,-1.48 0.3466,-1.3466 0.9333,-3.56 3.52,-5.6666 -0.7334,-0.093 -1.5867,-0.1334 -2.48,-0.1867 -0.8934,-0.053 -1.8267,-0.1067 -2.76,-0.2 -0.5067,-0.053 -1.0134,-0.1067 -1.5467,-0.1733 -1.64,-0.1867 -3.1733,-0.36 -4.7067,-0.2667 -1.0266,0.067 -2.2933,0.4133 -3.64,0.7867 -0.7866,0.2266 -1.6,0.4533 -2.4133,0.64 -1.0533,0.24 -2.2,0.7733 -3.52,1.4 -0.6933,0.32 -1.4,0.64 -2.12,0.9466 -0.6667,0.28 -1.3333,0.5467 -2.0267,0.8 -1.32,0.5067 -2.5733,0.9734 -3.6266,1.64 -1.0267,0.6534 -2.0534,1.4 -3.1334,2.1867 -1.08,0.7867 -2.16,1.5733 -3.2666,2.2933 -1.04,0.68 -2.12,1.3067 -3.2,1.9067 -1.2134,0.6933 -2.36,1.3467 -3.36,2.0533 -1.9734,1.4134 -4.0534,2.9334 -5.92,4.5467 -1.0934,0.9333 -2.2534,1.68 -3.28,2.3467 -1.08,0.6933 -2.0934,1.3466 -2.5867,1.9466 -0.5867,0.6934 -0.9333,1.9867 -1.3067,3.36 -0.24,0.92 -0.4933,1.88 -0.8666,2.84 -0.8534,2.2267 -1.1067,3.6934 -0.8667,5.2267 0.093,0.6 0.16,1.2267 0.2267,1.8667 0.16,1.6133 0.32,3.1333 1,4.1866 0.24,0.3867 1.2933,1.12 2.0666,1.6667 1.0667,0.7467 2.28,1.6 3.44,2.7467 0.9067,0.88 1.7067,1.8133 2.4,2.6266 0.8534,0.9867 1.6534,1.92 2.4,2.4934 0.9067,0.68 1.76,1.44 2.6,2.1733 1.04,0.92 2.0267,1.7867 2.88,2.2533 1.0267,0.56 2.3467,0.8934 3.7334,1.2534 0.9466,0.24 1.9466,0.4933 2.92,0.84 2.4666,0.8666 4.6666,1.6133 6.5733,1.9333 1.6533,0.28 3.3467,0.2 4.9733,0.1067 0.64,-0.027 1.24,-0.053 1.8134,-0.067 0.093,0 0.1866,0 0.28,0 z m 6.0133,9.9067 c -0.96,0 -2.0133,-0.1734 -3.1733,-0.4934 -0.9734,-0.28 -1.9067,-0.56 -2.96,-0.52 -0.4934,0.013 -1,0.04 -1.5467,0.053 -1.8933,0.093 -4.2667,0.2133 -6.8667,-0.2267 -2.6133,-0.4267 -5.2933,-1.3333 -8.0533,-2.3067 -0.68,-0.24 -1.4133,-0.4266 -2.1733,-0.6133 -1.7734,-0.4533 -3.7867,-0.9733 -5.8,-2.0667 -1.72,-0.9466 -3.1334,-2.1866 -4.4934,-3.3866 -0.6666,-0.5867 -1.36,-1.2 -2.08,-1.7467 -1.52,-1.1467 -2.68,-2.4933 -3.7866,-3.8 -0.64,-0.7467 -1.24,-1.4533 -1.88,-2.0667 -0.64,-0.64 -1.4667,-1.2133 -2.3334,-1.8266 -1.52,-1.0667 -3.2533,-2.28 -4.44,-4.1334 -1.8133,-2.84 -2.12,-5.8666 -2.3466,-8.0666 -0.053,-0.5067 -0.1067,-0.9867 -0.1734,-1.44 -0.6,-3.96 0.4134,-7.3067 1.36,-9.7734 0.2,-0.52 0.3867,-1.2 0.5734,-1.9333 0.5466,-2.0267 1.2266,-4.56 3.0666,-6.7733 1.36,-1.6267 3.08,-2.7334 4.5867,-3.7067 0.8667,-0.56 1.68,-1.0933 2.32,-1.64 2.1467,-1.8267 4.5067,-3.56 6.5333,-5.0133 1.3734,-0.9734 2.7734,-1.7734 4.1467,-2.5467 0.92,-0.52 1.84,-1.0533 2.7333,-1.6267 0.9867,-0.64 1.9334,-1.3466 2.88,-2.0266 1.1467,-0.84 2.3334,-1.7067 3.6134,-2.52 1.8266,-1.16 3.64,-1.84 5.2533,-2.4534 0.5733,-0.2133 1.1333,-0.4266 1.68,-0.6533 0.64,-0.2667 1.24,-0.56 1.84,-0.8267 1.6267,-0.76 3.3067,-1.5466 5.2533,-2 0.6934,-0.16 1.3867,-0.36 2.0534,-0.5466 1.7333,-0.48 3.52,-0.9734 5.4933,-1.0934 2.28,-0.1466 4.4,0.093 6.2533,0.3067 0.4667,0.053 0.9334,0.1067 1.3867,0.1467 0.8267,0.08 1.64,0.1333 2.4133,0.1733 1.7334,0.1067 3.52,0.2 5.2134,0.6267 0.92,0.24 1.9733,0.3066 3,0.3866 2.2666,0.1467 5.0933,0.3334 6.72,2.9067 0.72,1.1067 1.3466,2.9733 0.3466,5.5867 v 0 c -1.5333,4.0133 -4.1866,4.9333 -5.76,5.48 -0.7333,0.2533 -1.2266,0.4133 -1.8933,0.9333 -0.3733,0.3067 -0.3733,0.3067 -0.5733,1.0667 -0.3334,1.2533 -0.8267,3.1333 -2.7467,5.24 -1.88,2.04 -3.4267,2.7333 -4.5467,3.24 -0.7466,0.3466 -1.0266,0.4666 -1.6666,1.1733 l -0.8534,0.9067 c -1.4666,1.5866 -1.4666,1.5866 -2.3066,3.8266 -0.5334,1.4134 -0.5067,1.5867 -0.3467,2.6667 0.12,0.88 0.2933,2.0933 0.2667,3.9067 -0.013,1.6133 0.12,2.3333 0.2933,3.2533 0.2133,1.1067 0.4667,2.4933 0.44,4.9867 -0.027,2.28 -0.16,3.4933 -0.28,4.56 -0.1067,0.9866 -0.2,1.84 -0.2133,3.6666 -0.027,2.6534 -0.44,4.0934 -0.7734,5.2667 -0.2533,0.8933 -0.4133,1.48 -0.4266,2.9467 -0.013,0.9066 0.16,1.3466 0.48,2.1466 0.6266,1.5334 1.5466,3.84 0.3466,7.5734 -1.04,3.1866 -3.0666,4.8 -6.0533,4.8"
       style="fill:#362421;fill-opacity:1;fill-rule:nonzero;stroke:none;stroke-width:0.133333" />
    <path
       id="path363"
       d="m 2150.2533,2230.3734 c -0.9867,0 -1.9867,-0.32 -2.8134,-1 -1.8933,-1.56 -2.1733,-4.36 -0.6266,-6.2534 0.7066,-0.8666 0.9733,-1.2933 1.2666,-1.76 0.76,-1.2266 1.3867,-2.12 3.7867,-4.3333 l 0.92,-0.8533 c 1.3733,-1.28 2.92,-2.72 4.8133,-4.2134 0.6134,-0.4933 1.2267,-1.0533 1.8534,-1.6266 1.1466,-1.04 2.44,-2.2267 4,-3.3067 l 0.6,-0.4133 c 1.72,-1.1867 3.68,-2.5334 5.7866,-3.8 1.3734,-0.8267 2.7867,-1.4534 4.1734,-2.0534 0.8933,-0.4 1.8,-0.7866 2.6933,-1.2533 0.7867,-0.4133 1.5467,-0.8933 2.3333,-1.3867 1.2534,-0.7866 2.68,-1.68 4.2934,-2.4 1.5066,-0.68 3.0533,-1.2133 4.56,-1.7333 0.8533,-0.3067 1.72,-0.6 2.5866,-0.9333 1.52,-0.5867 3.0267,-0.92 4.48,-1.2534 1.0134,-0.2266 1.9734,-0.44 2.8534,-0.72 1.5333,-0.4933 3.0666,-0.8133 4.5333,-1.12 0.9333,-0.1866 1.88,-0.3733 2.8133,-0.6266 0.56,-0.1467 1.3334,-0.5734 2.1467,-1.0267 1.32,-0.7333 2.96,-1.6267 4.92,-2.04 1.6267,-0.3333 3.2533,-0.3867 4.68,-0.4267 1.0533,-0.027 2.04,-0.053 2.9067,-0.1866 1.6266,-0.2534 3.1466,-0.2534 4.6133,-0.2534 1.0533,0.013 2.04,0.013 2.9467,-0.093 0.5333,-0.053 1.3866,-0.3867 2.2133,-0.72 1.4133,-0.5467 3.1733,-1.24 5.1867,-1.36 1.76,-0.1067 3.3866,0.1867 4.8266,0.4267 1.0134,0.1733 1.9867,0.32 2.76,0.3333 0.9334,-0.013 1.88,-0.08 2.8267,-0.1467 1.5067,-0.093 3.04,-0.2 4.7067,-0.1466 1.9066,0.053 3.5866,0.5333 5.0666,0.9466 0.9867,0.28 1.9067,0.5467 2.6134,0.5867 0.6533,0.027 1.56,-0.1867 2.56,-0.4267 1.5466,-0.36 3.3066,-0.7866 5.28,-0.6 2,0.1734 3.68,0.8534 5.16,1.44 0.92,0.36 1.7866,0.7067 2.3866,0.7867 1,0.12 2.0667,0.1467 3.1867,0.1733 1.4667,0.027 2.9867,0.067 4.5733,0.32 1.7867,0.2934 3.4667,0.6534 5.0934,1.0134 0.8533,0.1866 1.6933,0.3733 2.52,0.5333 1.72,0.3467 3.2933,0.8 4.8133,1.24 0.92,0.2533 1.8133,0.52 2.72,0.7333 2.2267,0.5467 4.2933,1.16 6.2933,1.7467 l 1.1867,0.3467 c 0.96,0.2933 2,0.48 3.0933,0.68 1.4667,0.2666 3,0.56 4.5467,1.0933 1,0.3467 2.0133,0.64 2.9867,0.92 1.4933,0.4267 3.0266,0.8667 4.52,1.48 1.96,0.8133 3.4933,2.04 4.72,3.0267 0.7333,0.5866 1.4133,1.1333 1.92,1.3866 0.8133,0.3867 1.8133,0.64 2.8933,0.92 1.4533,0.3734 3.1067,0.8 4.6667,1.6934 2.0133,1.1733 3.4666,2.64 4.6266,3.8133 0.5734,0.5867 1.12,1.1333 1.5067,1.4133 1.28,0.9067 1.76,1.0267 2.3867,1.1867 1.4933,0.3867 3.0133,0.92 5.0666,3.1067 1.6934,1.7866 1.6,4.6 -0.1866,6.28 -1.7867,1.68 -4.5867,1.6 -6.28,-0.1867 -0.4,-0.4267 -0.5734,-0.5333 -0.5734,-0.5467 -0.027,0 -0.1333,-0.013 -0.2666,-0.04 -1.36,-0.36 -2.8934,-0.8533 -5.3067,-2.5733 -1,-0.7067 -1.84,-1.56 -2.6533,-2.3867 -0.92,-0.92 -1.7867,-1.8 -2.8,-2.3866 -0.4667,-0.2667 -1.4534,-0.52 -2.4,-0.76 -1.3734,-0.36 -2.9467,-0.76 -4.5734,-1.5467 -1.4,-0.6933 -2.56,-1.6267 -3.5866,-2.44 -0.9067,-0.7333 -1.76,-1.4133 -2.5467,-1.7467 -1.04,-0.4266 -2.2667,-0.7733 -3.5867,-1.1466 -1.1333,-0.3334 -2.2933,-0.6667 -3.4533,-1.0667 -0.9067,-0.32 -2.04,-0.5333 -3.24,-0.7467 -1.2133,-0.2266 -2.5867,-0.48 -3.9733,-0.8933 l -1.2,-0.3467 c -1.9067,-0.56 -3.88,-1.1466 -5.9067,-1.64 -1.0133,-0.2533 -2.0267,-0.5333 -3.04,-0.8266 -1.4133,-0.4134 -2.76,-0.7867 -4.12,-1.0667 -0.88,-0.1733 -1.7733,-0.3733 -2.68,-0.5733 -1.5067,-0.3334 -3.0533,-0.6667 -4.5867,-0.92 -0.9866,-0.1467 -2.1466,-0.1734 -3.3733,-0.2 -1.2933,-0.04 -2.64,-0.067 -4.08,-0.24 -1.7333,-0.2134 -3.2533,-0.8267 -4.5867,-1.36 -1.0133,-0.4 -1.96,-0.7867 -2.6666,-0.84 -0.5334,-0.067 -1.48,0.1733 -2.4134,0.4 -1.5066,0.36 -3.2133,0.76 -5.16,0.6533 -1.6666,-0.1067 -3.1733,-0.5333 -4.5066,-0.9067 -1.08,-0.3066 -2.1067,-0.6 -2.9067,-0.6266 -1.2267,-0.027 -2.4933,0.053 -3.84,0.1466 -1.12,0.067 -2.2133,0.1467 -3.3067,0.16 -1.6533,0.027 -3.08,-0.24 -4.3866,-0.4666 -1.0667,-0.1867 -2.0667,-0.3467 -2.8,-0.3067 -0.6,0.027 -1.5467,0.4 -2.4534,0.76 -1.32,0.52 -2.8133,1.1067 -4.5333,1.28 -1.3733,0.1467 -2.7067,0.16 -3.8933,0.1467 -1.1734,-0.013 -2.3067,0 -3.24,0.1466 -1.4134,0.2134 -2.8,0.2534 -4.0134,0.2934 -1.16,0.027 -2.2666,0.053 -3.1333,0.24 -0.64,0.1333 -1.5067,0.6133 -2.4133,1.12 -1.2,0.6533 -2.5734,1.4133 -4.1867,1.84 -1.1067,0.2933 -2.2,0.52 -3.2933,0.7333 -1.2934,0.2667 -2.52,0.52 -3.6134,0.8667 -1.2533,0.4133 -2.4533,0.68 -3.6133,0.9466 -1.1867,0.2667 -2.32,0.52 -3.2533,0.88 -0.9467,0.36 -1.9067,0.6934 -2.8534,1.0267 -1.3733,0.4667 -2.6666,0.92 -3.8133,1.44 -1.0667,0.4667 -2.12,1.1333 -3.24,1.84 -0.9333,0.5733 -1.8933,1.1733 -2.92,1.72 -1.0667,0.56 -2.16,1.04 -3.24,1.5067 -1.1733,0.52 -2.28,1.0133 -3.1733,1.5466 -1.8667,1.12 -3.6267,2.3334 -5.32,3.4934 l -0.6,0.4133 c -1.0534,0.7333 -2.0267,1.6133 -3.04,2.5467 -0.8,0.72 -1.5734,1.4266 -2.3467,2.04 -1.6,1.2666 -3.0133,2.5733 -4.2533,3.7333 l -0.96,0.9067 c -1.68,1.5466 -1.8934,1.88 -2.2667,2.48 -0.3733,0.5866 -0.8667,1.3866 -1.9333,2.6933 -0.8667,1.0667 -2.1467,1.6267 -3.44,1.6267"
       style="fill:#362421;fill-opacity:1;fill-rule:nonzero;stroke:none;stroke-width:0.133333" />
    <path
       id="path364"
       d="m 2141.4933,2558.1867 c -2.2267,0 -4.8934,-1.08 -6.1334,-5.68 -0.12,-0.4667 -0.3333,-1.24 -0.4933,-1.4 -0.5867,-0.5734 -1.0533,-1.0534 -1.44,-1.4667 -0.2667,-0.2667 -0.4533,-0.4933 -0.6667,-0.6667 0.013,0.013 -0.3066,-0.08 -1.1733,-0.2 -0.8133,-0.1066 -1.08,-0.08 -1.1067,-0.08 -0.04,0.053 -0.24,0.1867 -0.48,0.3467 -0.6133,0.3867 -1.3466,0.8533 -2.3733,1.3733 -0.7467,0.4 -1.0667,0.6934 -1.5467,1.1467 -1.3066,1.2267 -2.7466,2.3733 -5.9466,2.8667 -2,0.2933 -3.9467,-0.7867 -4.7467,-2.64 -0.8133,-1.88 -1.3067,-3.64 -1.84,-5.5067 -0.16,-0.5867 -0.3333,-1.1733 -0.5067,-1.7867 -0.24,-0.7733 -0.5066,-1.5466 -0.7733,-2.3333 -0.5333,-1.5333 -1.1333,-3.2667 -1.5333,-5.1467 -0.1467,-0.72 -0.32,-1.44 -0.4934,-2.1866 -0.3866,-1.7067 -0.8,-3.48 -1.0933,-5.3867 -0.2533,-1.64 -0.4267,-3.3467 -0.6133,-5.0667 -0.08,-0.84 -0.1734,-1.6933 -0.2667,-2.5466 -0.1867,-1.5334 -0.16,-3 -0.1467,-4.4267 0.027,-1.12 0.04,-2.1867 -0.053,-3.1867 -0.093,-1.0133 -0.2267,-2.0533 -0.36,-3.0933 -0.1867,-1.4533 -0.3733,-2.92 -0.48,-4.4267 -0.067,-0.9733 -0.2267,-2.0266 -0.4,-3.1333 -0.2133,-1.3867 -0.44,-2.8133 -0.52,-4.36 -0.08,-1.36 -0.12,-2.7467 -0.1733,-4.1467 -0.04,-1.12 -0.067,-2.24 -0.12,-3.3733 -0.093,-1.68 0.16,-3.24 0.3733,-4.6267 0.1733,-1.08 0.3333,-2.0933 0.2933,-2.9066 l -0.32,-7.48 c -0.053,-1.24 -0.08,-2.4667 -0.1066,-3.72 -0.027,-1.24 -0.053,-2.5067 -0.1067,-3.76 -0.027,-0.6134 -0.3333,-1.52 -0.6533,-2.4667 -0.4667,-1.44 -1,-3.0667 -1.0934,-4.9333 -0.08,-1.6667 0.16,-3.2134 0.36,-4.5734 0.16,-1.08 0.32,-2.1066 0.28,-2.9333 -0.12,-2.0933 -0.24,-4.2133 -0.36,-6.3467 l -0.067,-1.0933 c -0.053,-0.92 -0.28,-1.9733 -0.5067,-3.08 -0.28,-1.2933 -0.5867,-2.76 -0.68,-4.32 -0.067,-1 -0.2667,-2.0933 -0.4933,-3.24 -0.24,-1.32 -0.48,-2.68 -0.6,-4.1467 -0.093,-1.3866 -0.093,-2.7066 -0.08,-3.9866 0.013,-1.2267 0.013,-2.3734 -0.08,-3.4667 -0.093,-1.1867 -0.28,-2.3733 -0.4667,-3.56 -0.1867,-1.2667 -0.3733,-2.5333 -0.5067,-3.8267 -0.1733,-1.8666 0.16,-3.5466 0.4534,-5.04 0.2,-0.9466 0.3866,-1.92 0.3333,-2.52 -0.08,-0.7066 -0.4133,-1.6533 -0.7733,-2.64 -0.4934,-1.3466 -1.04,-2.88 -1.24,-4.6133 -0.12,-0.9867 -0.3867,-2.08 -0.68,-3.2267 -0.3067,-1.28 -0.64,-2.6133 -0.8267,-4.0666 -0.24,-1.7734 -0.1467,-3.4534 -0.053,-4.9467 0.067,-1.0667 0.12,-2.08 0.04,-2.9067 l -0.1334,-1.1866 c -0.24,-2.2267 -0.48,-4.4134 -0.6533,-6.56 -0.08,-1.0267 -0.2667,-2.0934 -0.4667,-3.2134 -0.2666,-1.4533 -0.5333,-2.9466 -0.6133,-4.5466 -0.08,-1.6667 -0.053,-3.2667 -0.013,-4.8267 0.013,-1 0.04,-2 0.013,-2.9867 -0.053,-2.6666 -0.067,-5.28 -0.027,-7.8133 0.027,-1.92 0.4534,-3.6133 0.84,-5.1067 0.2534,-1 0.5067,-1.9466 0.5334,-2.6666 0.053,-1.0267 0.013,-2.1067 -0.04,-3.24 -0.053,-1.4667 -0.1067,-2.9867 0.027,-4.5734 0.2,-2.44 0.48,-4.7466 0.7467,-6.9866 l 0.1067,-0.7734 c 0.12,-0.9733 0.1066,-2.04 0.08,-3.1733 -0.013,-1.5067 -0.04,-3.0667 0.2266,-4.7067 0.1734,-1.0133 0.3067,-2.0266 0.44,-3.0133 0.2,-1.5733 0.4267,-3.2 0.7467,-4.7733 0.6,-2.88 1.2533,-5.5067 1.8267,-7.6934 0.4933,-1.9066 1.2266,-3.5466 1.88,-4.9866 0.4,-0.88 0.7733,-1.72 1,-2.4 0.3733,-1.1867 0.6533,-2.3334 0.92,-3.4 0.36,-1.4934 0.7066,-2.92 1.24,-4.28 0.6933,-1.7867 0.8933,-2.5733 1.0666,-3.28 0.32,-1.36 0.6134,-2.3467 1.8534,-4.5733 1.2,-2.1467 3.9066,-2.9067 6.0533,-1.7067 2.1333,1.2 2.9067,3.9067 1.7067,6.0533 -0.7334,1.3067 -0.8,1.56 -0.9734,2.3067 -0.2133,0.88 -0.5066,2.0933 -1.4266,4.44 -0.32,0.8133 -0.5867,1.9066 -0.8934,3.1733 -0.2933,1.1733 -0.6266,2.52 -1.0666,3.9333 -0.3867,1.2134 -0.8934,2.3334 -1.3867,3.4134 -0.5467,1.2133 -1.0667,2.36 -1.3733,3.5333 -0.5334,2.08 -1.16,4.5733 -1.72,7.2667 -0.2667,1.2666 -0.4534,2.6666 -0.64,4.1466 -0.1467,1.0667 -0.2934,2.16 -0.48,3.2667 -0.1334,0.88 -0.12,1.9867 -0.1067,3.16 0.013,1.32 0.04,2.8 -0.16,4.36 l -0.093,0.7867 c -0.2534,2.1466 -0.5334,4.3733 -0.72,6.64 -0.093,1.0533 -0.04,2.24 0.013,3.4933 0.04,1.28 0.093,2.5867 0.027,4.0133 -0.08,1.6267 -0.4667,3.12 -0.8,4.44 -0.28,1.12 -0.56,2.1734 -0.5734,3.0267 -0.027,2.44 -0.013,4.9467 0.04,7.52 0.013,1.1067 0,2.2133 -0.027,3.3333 -0.027,1.4667 -0.053,2.8534 0.013,4.2134 0.053,1.04 0.2667,2.1866 0.48,3.4133 0.2267,1.2933 0.4667,2.6267 0.5867,4.08 0.16,2.0667 0.3866,4.1733 0.6266,6.3067 l 0.1334,1.2 c 0.16,1.56 0.067,3.0666 -0.013,4.3866 -0.067,1.1867 -0.1333,2.3067 -0.013,3.24 0.1333,0.9734 0.3867,2.0134 0.6667,3.12 0.3333,1.36 0.68,2.76 0.8533,4.28 0.093,0.7467 0.4267,1.68 0.7867,2.6667 0.4933,1.3733 1.0533,2.9333 1.2533,4.7067 0.2,1.9466 -0.1467,3.68 -0.4533,5.2133 -0.1867,0.9333 -0.3734,1.88 -0.32,2.44 0.1066,1.1333 0.28,2.24 0.44,3.3333 0.2133,1.3334 0.4133,2.72 0.5466,4.1467 0.12,1.5067 0.1067,2.92 0.093,4.2933 0,1.1467 -0.013,2.24 0.067,3.2534 0.08,1 0.28,2.0666 0.48,3.2 0.2534,1.3466 0.5067,2.7466 0.6134,4.2666 0.053,0.9334 0.28,1.9734 0.5066,3.08 0.28,1.32 0.5867,2.8134 0.68,4.3867 l 0.067,1.08 c 0.1333,2.16 0.2533,4.2933 0.3733,6.4133 0.08,1.7334 -0.16,3.32 -0.3733,4.7334 -0.16,1.0533 -0.3067,2.04 -0.2667,2.8133 0.027,0.6533 0.3334,1.5867 0.6534,2.56 0.48,1.4133 1.0133,3.0267 1.0933,4.8667 0.053,1.3333 0.08,2.6533 0.12,3.9733 0.013,1.1733 0.04,2.3467 0.093,3.52 l 0.32,7.4533 c 0.08,1.72 -0.1733,3.3067 -0.3866,4.7067 -0.1734,1.04 -0.32,2.04 -0.2934,2.8 0.067,1.1867 0.1067,2.36 0.1334,3.5333 0.053,1.32 0.093,2.6267 0.16,3.92 0.067,1.12 0.2533,2.2934 0.44,3.52 0.1866,1.24 0.3866,2.52 0.48,3.8534 0.093,1.3333 0.2666,2.64 0.4266,3.92 0.1467,1.16 0.2934,2.3066 0.4,3.44 0.1334,1.4533 0.1067,2.7866 0.093,4.0933 -0.013,1.1867 -0.027,2.32 0.08,3.28 0.1066,0.8933 0.2,1.7733 0.2933,2.6533 0.16,1.5867 0.32,3.12 0.5467,4.6267 0.24,1.5867 0.6133,3.2 0.9733,4.76 0.1867,0.7867 0.36,1.56 0.52,2.3333 0.28,1.3334 0.7467,2.6667 1.24,4.0667 0.3067,0.92 0.6267,1.8133 0.8933,2.72 0.1467,0.5067 0.2934,1 0.4267,1.4933 0.44,-0.3066 0.96,-0.6266 1.5733,-0.9333 0.72,-0.3733 1.2267,-0.7067 1.6534,-0.9733 1.9733,-1.2534 3.68,-2.1067 7.56,-1.5867 3.8533,0.5333 5.1866,1.5333 7.1066,3.5733 0.3067,0.32 0.68,0.7067 1.1467,1.1734 0.067,0.067 0.1467,0.1333 0.2,0.2 0.6933,-1.7734 1.2,-2.6934 1.6533,-3.52 0.4134,-0.7467 0.7334,-1.3334 1.2667,-2.7467 0.56,-1.44 0.7333,-2.1333 0.9333,-2.9467 0.24,-0.9466 0.5067,-2.0266 1.24,-3.96 0.4534,-1.1733 0.52,-1.6933 0.6134,-2.48 0.12,-1.0666 0.28,-2.4 1.12,-4.6 0.8666,-2.2666 1.68,-3.3733 2.3466,-4.2666 0.4667,-0.64 0.76,-1.0267 1.1867,-2.1467 0.52,-1.36 0.64,-2 0.8133,-2.8 0.2,-1.0133 0.44,-2.16 1.2134,-4.1867 0.8666,-2.2933 3.44,-3.44 5.7333,-2.5733 2.2933,0.88 3.44,3.44 2.5733,5.7467 -0.52,1.3466 -0.6533,1.9866 -0.8133,2.7866 -0.2133,1.0134 -0.44,2.16 -1.2133,4.1867 -0.8667,2.2667 -1.6934,3.3867 -2.3467,4.28 -0.48,0.6267 -0.76,1.0133 -1.1867,2.1333 -0.4533,1.1734 -0.5066,1.6934 -0.6,2.48 -0.1333,1.0667 -0.2933,2.4 -1.1333,4.6134 -0.5467,1.44 -0.72,2.1333 -0.92,2.9466 -0.24,0.9467 -0.5067,2.0267 -1.2533,3.96 -0.7467,1.9734 -1.2934,2.9734 -1.7734,3.84 -0.4133,0.7467 -0.7333,1.3334 -1.2666,2.7467 -0.2134,0.5467 -0.24,1.1467 -0.2667,1.92 -0.067,1.7067 -0.2533,6.2267 -5.6933,7.6 -0.56,0.1467 -1.24,0.2667 -1.96,0.2667"
       style="fill:#362421;fill-opacity:1;fill-rule:nonzero;stroke:none;stroke-width:0.133333" />
    <path
       id="path365"
       d="m 2352.6533,2563.5733 c -0.7334,0 -1.5467,-0.1066 -2.4534,-0.3466 -3.9066,-1.0667 -5.6133,-3.8934 -5.0533,-8.4267 0.093,-0.7467 0.1733,-1.4 0.067,-1.9333 -0.32,-1.4934 -0.5467,-2.1734 -0.8134,-2.96 -0.2933,-0.9067 -0.64,-1.9334 -1.0533,-3.9067 -0.3733,-1.72 -0.56,-2.5733 -0.7467,-3.44 -0.2,-0.8667 -0.3866,-1.7467 -0.76,-3.5067 -0.44,-2.04 -0.52,-3.1466 -0.5866,-4.1333 -0.053,-0.8267 -0.1067,-1.48 -0.4134,-2.92 -0.5333,-2.4933 -0.32,-4.0267 -0.1733,-5.1333 0.1067,-0.76 0.1467,-1.1067 -0.053,-2.0934 -0.3067,-1.4 -0.5334,-2 -0.8267,-2.76 -0.36,-0.9333 -0.76,-2 -1.2,-4.08 -0.52,-2.4 1.0133,-4.76 3.4133,-5.28 2.4,-0.52 4.76,1.0267 5.2667,3.4267 0.3067,1.4 0.5333,2 0.8267,2.76 0.36,0.9333 0.76,2 1.2133,4.08 0.5333,2.5067 0.32,4.0267 0.1733,5.1467 -0.1066,0.76 -0.16,1.1066 0.053,2.08 0.44,2.04 0.52,3.16 0.5866,4.1466 0.053,0.8267 0.1067,1.48 0.4134,2.9067 0.36,1.72 0.56,2.5867 0.7466,3.44 0.1867,0.88 0.3867,1.76 0.76,3.5067 0.32,1.4933 0.5467,2.1733 0.8,2.96 0.3067,0.9066 0.64,1.9333 1.0667,3.9066 0.04,0.2 0.08,0.4134 0.1067,0.6 0.36,-0.3466 0.7466,-0.6933 1.2,-1.0266 0.72,-0.5467 1.0666,-1 1.5066,-1.5734 1.3867,-1.8 2.9734,-3.4666 7.0134,-3.88 4.12,-0.44 6.04,1.2534 7.5066,2.8667 0.4667,0.4933 0.7334,0.8 1.3467,1.12 1.6933,0.9067 2.76,1.84 3.4533,2.4533 0.2,0.1734 0.4534,0.3867 0.5734,0.48 0.013,-0.093 0.027,-0.1733 0.04,-0.2533 0.2266,-1.3867 0.5466,-3.2933 1.4533,-5.3867 1.2533,-2.84 1.92,-5.36 2.0267,-7.48 0.013,-0.4933 0.1066,-1.2133 0.2133,-2.12 0.1733,-1.28 0.3867,-3.0266 0.48,-5.16 l 0.3333,-7.32 c 0.013,-0.36 -0.2533,-1.3066 -0.44,-2 -0.4266,-1.48 -0.9333,-3.32 -0.8533,-5.4 0.08,-1.5866 0.4533,-3.0533 0.7867,-4.36 0.28,-1.0666 0.5333,-2.0666 0.5733,-2.92 0.04,-0.88 -0.04,-1.9066 -0.12,-2.9866 -0.1067,-1.32 -0.2133,-2.8 -0.1467,-4.36 0.08,-1.7734 0.5867,-3.3334 1.0267,-4.6934 0.32,-0.9866 0.6133,-1.9066 0.64,-2.5733 0.027,-0.4133 -0.2667,-1.36 -0.4933,-2.12 -0.4534,-1.4533 -1.0134,-3.2533 -0.92,-5.2933 0.093,-1.9334 0.7733,-3.64 1.32,-5 0.3333,-0.8534 0.6933,-1.7467 0.7066,-2.2534 0.053,-1.1333 0.067,-2.2933 0.08,-3.4533 0.013,-1.28 0.04,-2.5733 0.093,-3.88 0.027,-0.6933 -0.1467,-1.6267 -0.3334,-2.6267 -0.2533,-1.4 -0.5466,-3 -0.48,-4.7466 0.08,-1.68 0.48,-3.1867 0.8267,-4.5334 0.2667,-1.0133 0.52,-1.9733 0.5467,-2.7466 0.027,-0.68 -0.1467,-1.6134 -0.3467,-2.6 -0.28,-1.4134 -0.6,-3.0134 -0.52,-4.7867 0.093,-1.8933 0.68,-3.5067 1.2,-4.9333 0.32,-0.8667 0.6533,-1.7734 0.68,-2.3334 0.04,-0.88 -0.08,-1.9066 -0.1867,-3 -0.1333,-1.3066 -0.2933,-2.8 -0.2266,-4.36 0.04,-0.8533 -0.08,-1.88 -0.2,-2.96 -0.16,-1.32 -0.3334,-2.8133 -0.2667,-4.4 0.08,-1.4533 0.28,-2.8133 0.4667,-4.12 0.1733,-1.1333 0.3333,-2.2 0.3733,-3.2 0.067,-1.2933 0.1867,-2.5866 0.3067,-3.88 0.1066,-1.1466 0.2133,-2.2933 0.2666,-3.4266 0.04,-0.7867 -0.1066,-1.7734 -0.2666,-2.8267 -0.2134,-1.3467 -0.44,-2.88 -0.36,-4.5467 0.067,-1.52 0.3333,-2.96 0.56,-4.24 0.2,-1.0933 0.3866,-2.1333 0.44,-3.04 0.067,-1.4 0.2133,-2.72 0.3733,-4 0.1333,-1.1066 0.2667,-2.2133 0.32,-3.32 0.067,-1.32 0.2,-2.64 0.3333,-3.9466 0.12,-1.12 0.24,-2.24 0.2934,-3.3467 0.053,-1.2 0.16,-2.3867 0.2666,-3.56 0.1067,-1.28 0.2134,-2.56 0.2534,-3.8133 0.027,-1.2 0.1066,-2.3867 0.1866,-3.56 0.08,-1.28 0.1734,-2.56 0.1867,-3.8134 0,-0.6266 -0.28,-1.56 -0.5733,-2.5333 -0.4267,-1.4133 -0.92,-3.0133 -0.9334,-4.84 -0.013,-1.5333 0.16,-2.9733 0.32,-4.2667 0.1334,-1.12 0.2667,-2.1866 0.24,-3.0933 -0.027,-0.88 -0.2666,-1.92 -0.52,-3.0267 -0.2933,-1.2666 -0.6266,-2.72 -0.7066,-4.2666 -0.093,-1.7867 0.2,-3.3867 0.4533,-4.8 0.1867,-1.0134 0.36,-1.96 0.3067,-2.6134 -0.053,-0.8 -0.3734,-1.7866 -0.7067,-2.8266 -0.4133,-1.3067 -0.88,-2.76 -1.04,-4.3867 -0.1467,-1.5467 -0.093,-3.0133 -0.04,-4.2933 0.04,-1.1334 0.08,-2.2 -0.027,-3.08 -0.3066,-2.52 -0.6266,-4.9467 -0.96,-7.2667 -0.1333,-0.9333 -0.5066,-1.96 -0.8933,-3.0667 -0.4267,-1.1866 -0.9067,-2.5466 -1.1467,-4.0133 -0.3466,-2.04 -0.053,-3.92 0.1867,-5.4267 0.1067,-0.7333 0.2667,-1.7466 0.2,-2.0933 -0.2667,-1.3467 -0.6533,-2.68 -1.04,-3.9733 -0.3067,-1.08 -0.6133,-2.1067 -0.84,-3.1067 l -0.24,-1.0667 c -0.5333,-2.2933 -1,-4.3199 -1.4667,-6.0133 -0.4933,-1.8533 -0.7466,-2.1866 -1.08,-2.6533 -0.64,-0.8933 -1.28,-1.84 -1.9866,-3.8 -0.84,-2.3067 0.36,-4.8533 2.6666,-5.6933 2.3067,-0.8267 4.8534,0.36 5.6934,2.6666 0.3333,0.9334 0.5066,1.1734 0.8266,1.6134 0.84,1.1466 1.6,2.36 2.4667,5.5333 0.48,1.7867 0.9733,3.92 1.5333,6.3467 l 0.2534,1.0666 c 0.1866,0.84 0.4533,1.7067 0.7066,2.6267 0.4134,1.4 0.88,2.9866 1.2267,4.72 0.3733,1.8933 0.093,3.6533 -0.1467,5.2 -0.1466,0.96 -0.3066,1.96 -0.2,2.56 0.12,0.7066 0.44,1.6 0.7734,2.5466 0.4933,1.3867 1.04,2.96 1.3066,4.76 0.3334,2.4 0.68,4.8934 0.9867,7.4934 0.1867,1.56 0.1333,3.0133 0.08,4.44 -0.04,1.12 -0.08,2.1733 0.013,3.12 0.053,0.68 0.3467,1.5733 0.6534,2.5333 0.4533,1.4133 0.9733,3.0267 1.1066,4.88 0.1334,1.7867 -0.1733,3.4133 -0.4266,4.8533 -0.1867,1.0267 -0.3734,2 -0.3334,2.7467 0.04,0.7733 0.2667,1.72 0.4934,2.7333 0.3333,1.4 0.6933,2.9867 0.7466,4.7467 0.053,1.5867 -0.12,3.0533 -0.2933,4.4667 -0.1467,1.0933 -0.2667,2.1466 -0.2533,3.08 0,0.56 0.28,1.4666 0.5466,2.36 0.4267,1.4266 0.9734,3.2133 0.9467,5.1866 -0.013,1.4267 -0.1067,2.8534 -0.2,4.3067 -0.067,1.08 -0.1333,2.16 -0.1733,3.24 -0.04,1.4267 -0.16,2.8667 -0.28,4.32 -0.093,1.0667 -0.1867,2.1333 -0.24,3.2267 -0.067,1.28 -0.2,2.56 -0.3334,3.8533 -0.12,1.1467 -0.24,2.2933 -0.2933,3.44 -0.067,1.3733 -0.2267,2.68 -0.3733,3.9467 -0.1467,1.1733 -0.28,2.28 -0.3334,3.36 -0.067,1.5066 -0.32,2.88 -0.56,4.2133 -0.2,1.1067 -0.3866,2.1467 -0.4266,3.08 -0.04,0.7733 0.1066,1.7467 0.2666,2.7867 0.2134,1.36 0.44,2.9066 0.36,4.5733 -0.053,1.28 -0.1733,2.56 -0.2933,3.84 -0.12,1.16 -0.2267,2.3067 -0.28,3.4667 -0.067,1.4533 -0.2667,2.8 -0.4533,4.1066 -0.1734,1.1334 -0.3334,2.2 -0.3734,3.2 -0.053,0.8667 0.067,1.8934 0.2,2.9734 0.16,1.32 0.3334,2.8133 0.2534,4.4 -0.04,0.8933 0.067,1.9333 0.1866,3.0266 0.1334,1.3067 0.2934,2.7867 0.2267,4.3334 -0.093,1.9066 -0.7067,3.6133 -1.2133,4.9733 -0.32,0.8667 -0.64,1.76 -0.6667,2.28 -0.027,0.7067 0.16,1.6533 0.36,2.6533 0.28,1.4 0.5867,2.9867 0.5067,4.7334 -0.08,1.7066 -0.48,3.24 -0.8267,4.6 -0.2667,1 -0.5067,1.9466 -0.5467,2.6666 -0.027,0.7467 0.1467,1.7067 0.3467,2.7334 0.2533,1.3866 0.5467,2.9466 0.4667,4.6533 -0.053,1.2 -0.067,2.4 -0.08,3.5867 -0.013,1.2533 -0.04,2.5066 -0.093,3.7466 -0.08,2.0134 -0.7733,3.7467 -1.3333,5.1467 -0.32,0.7867 -0.6667,1.6667 -0.6933,2.1067 -0.027,0.4933 0.2666,1.4533 0.5333,2.28 0.4267,1.4133 0.9733,3.1733 0.88,5.12 -0.08,1.88 -0.6,3.4933 -1.0667,4.9333 -0.2933,0.9067 -0.5733,1.7733 -0.6,2.3333 -0.053,1.0267 0.04,2.12 0.12,3.2934 0.1067,1.2933 0.2134,2.64 0.1467,4.0533 -0.08,1.7867 -0.48,3.36 -0.84,4.76 -0.2533,0.96 -0.48,1.8667 -0.5067,2.52 -0.04,0.6667 0.2267,1.6 0.5067,2.6 0.4,1.4133 0.8533,3.0133 0.7733,4.8 l -0.3333,7.32 c -0.1067,2.5067 -0.36,4.5467 -0.5333,5.9067 -0.08,0.5866 -0.1467,1.0533 -0.16,1.3866 -0.1467,3.2134 -1.08,6.8 -2.76,10.64 -0.4667,1.08 -0.64,2.1467 -0.84,3.28 -0.3867,2.3334 -1.2934,7.7467 -8.04,7.7467 -0.053,0 -0.093,0 -0.1334,0 -3.6666,-0.027 -5.44,-1.32 -7.0666,-2.7467 -0.5467,-0.4933 -0.9734,-0.8666 -1.7467,-1.28 -1.9733,-1.04 -3.04,-2.2133 -3.7467,-2.9866 l -0.013,-0.013 c -0.013,0 -0.013,0 -0.013,0 -0.3067,0.027 -0.4934,0.067 -0.6,0.093 -0.1067,0.1066 -0.1867,0.24 -0.28,0.3733 -0.6134,0.7867 -1.52,1.9733 -3.2,3.24 -0.5734,0.4267 -0.9334,1 -1.4,1.7067 -0.8534,1.3466 -2.68,4.1866 -6.52,4.1866"
       style="fill:#362421;fill-opacity:1;fill-rule:nonzero;stroke:none;stroke-width:0.133333" />
    <path
       id="path366"
       d="m 2259.2266,2636.0667 c -1.04,0 -2.0667,-0.013 -3.1067,-0.013 -0.4133,0 -0.8266,0 -1.24,0.013 -2,-0.027 -3.72,-0.52 -5.24,-1 -0.8933,-0.28 -1.8266,-0.5734 -2.4,-0.5867 -0.9466,-0.027 -1.96,0.093 -3.0533,0.2 -1.3867,0.1467 -2.96,0.2933 -4.6,0.24 -1.6133,-0.08 -3.2267,-0.2267 -4.8267,-0.3867 -0.9333,-0.08 -1.8666,-0.1733 -2.7866,-0.24 -1.04,-0.08 -2.08,-0.1066 -3.1067,-0.1466 -1.4667,-0.04 -2.9867,-0.093 -4.5467,-0.2534 -1.0133,-0.1066 -2.04,-0.1733 -3.0533,-0.2533 -1.4933,-0.093 -3.0267,-0.2 -4.5867,-0.4133 -0.8933,-0.12 -1.9333,-0.12 -3.0266,-0.1067 -1.4267,0.013 -3.0267,0.013 -4.68,-0.2667 -2.08,-0.3466 -3.7867,-1.32 -5.16,-2.1066 -0.7467,-0.4267 -1.6,-0.9067 -2.08,-1 -0.96,-0.2 -1.9334,-0.36 -2.8934,-0.52 -1.5066,-0.2534 -3.0666,-0.52 -4.64,-0.9067 -0.84,-0.2133 -1.8533,-0.2933 -2.92,-0.3867 -1.4533,-0.12 -3.1066,-0.2666 -4.76,-0.76 -0.9866,-0.2933 -1.9866,-0.5066 -2.9733,-0.72 -1.5067,-0.3333 -3.0533,-0.68 -4.6,-1.2266 -2,-0.72 -3.56,-1.92 -4.8133,-2.8934 -0.7467,-0.56 -1.44,-1.1066 -1.96,-1.3333 -0.68,-0.2933 -1.6267,-0.4933 -2.6267,-0.6933 -1.5867,-0.3067 -3.4,-0.6667 -5.1067,-1.6534 -1.76,-1.0133 -3.0266,-2.32 -4.1466,-3.48 -0.6667,-0.6933 -1.3067,-1.36 -1.8267,-1.7066 -1.8,-1.1734 -3.4,-2.4 -4.9333,-3.5867 l -1.3467,-1.0267 c -0.5333,-0.4 -1.4133,-0.7733 -2.3467,-1.16 -1.4933,-0.6133 -3.2,-1.32 -4.6933,-2.64 -1.44,-1.2666 -2.56,-2.6666 -3.56,-3.9066 -0.6,-0.76 -1.1733,-1.4667 -1.72,-2.04 -0.6667,-0.68 -1.36,-1.3334 -2.0533,-1.96 -1.2134,-1.12 -2.4667,-2.2934 -3.5867,-3.6667 -1.3733,-1.68 -2.0667,-3.5733 -2.64,-5.0933 -0.32,-0.8534 -0.6133,-1.6667 -0.92,-2.1334 -1.72,-2.5733 -3.0267,-4.72 -4.1067,-6.7466 -0.4133,-0.76 -0.9866,-1.5467 -1.6133,-2.3734 -0.9467,-1.2533 -2.0133,-2.68 -2.7067,-4.4133 -0.8,-1.9733 -1.1733,-3.8533 -1.4933,-5.52 -0.1467,-0.7867 -0.2933,-1.56 -0.4933,-2.2667 -0.64,-2.2533 -0.8534,-4.3333 -1.0134,-6 -0.08,-0.68 -0.1333,-1.3066 -0.2266,-1.9066 -0.2,-1.3334 -0.44,-1.72 -0.7867,-2.28 -0.8533,-1.3734 -1.68,-2.9734 -1.4933,-6.08 0.1466,-2.44 2.24,-4.2934 4.6933,-4.1734 2.4533,0.1467 4.32,2.2534 4.1733,4.6934 -0.027,0.48 0.013,0.64 0.013,0.6533 0.013,0 0.08,0.093 0.16,0.2133 0.7733,1.2534 1.5866,2.7334 2.0266,5.6267 0.1067,0.7333 0.2,1.52 0.28,2.3467 0.1467,1.4666 0.3067,2.9866 0.72,4.4933 0.2667,0.9467 0.4667,1.9467 0.6667,2.9867 0.28,1.3866 0.5333,2.7066 1.0133,3.88 0.2667,0.6666 0.9067,1.52 1.5867,2.4133 0.7467,1.0133 1.6133,2.16 2.3333,3.5333 0.9467,1.76 2.1067,3.6667 3.6534,5.9867 0.88,1.3333 1.4133,2.7333 1.8666,3.9733 0.3867,1.04 0.76,2.04 1.2134,2.5867 0.7066,0.88 1.68,1.7867 2.72,2.7333 0.8,0.7467 1.6266,1.5067 2.4,2.32 0.84,0.8667 1.5733,1.7734 2.2666,2.6534 0.8534,1.0533 1.64,2.04 2.5067,2.8 0.3867,0.3466 1.3067,0.7333 2.2133,1.0933 1.3467,0.56 2.8667,1.2 4.32,2.2933 l 1.3867,1.0667 c 1.48,1.1333 2.88,2.2133 4.4,3.2 1.3467,0.8933 2.4,1.9867 3.3333,2.96 0.7867,0.8 1.52,1.56 2.1734,1.9467 0.4666,0.2533 1.4666,0.4533 2.4266,0.6533 1.3734,0.2667 2.92,0.5733 4.5067,1.28 1.48,0.6533 2.6933,1.5867 3.76,2.4133 0.88,0.68 1.72,1.32 2.4,1.56 1.0133,0.36 2.2267,0.6267 3.5067,0.92 1.2,0.2534 2.4,0.5334 3.5866,0.88 0.7867,0.24 1.8534,0.32 2.9867,0.4267 1.3067,0.1067 2.7733,0.2267 4.3067,0.6 1.24,0.3067 2.5733,0.5333 3.9866,0.7733 1.0534,0.1867 2.1334,0.36 3.2,0.5867 1.8667,0.3867 3.36,1.2267 4.68,1.9867 0.8534,0.48 1.72,0.9733 2.2534,1.0666 0.8933,0.1467 1.9866,0.1467 3.16,0.1334 1.28,0 2.7466,-0.013 4.2666,0.2 1.2667,0.16 2.5867,0.2533 3.9867,0.3466 1.12,0.08 2.2533,0.16 3.3733,0.28 1.24,0.12 2.5334,0.1734 3.9067,0.2134 1.16,0.04 2.32,0.08 3.48,0.16 0.9867,0.08 1.9733,0.1733 2.96,0.2666 1.4667,0.1334 2.92,0.28 4.4,0.3334 0.9867,0.067 2.12,-0.067 3.2933,-0.1867 1.3067,-0.1333 2.6534,-0.28 4.1067,-0.24 1.8667,0.027 3.4933,0.5333 4.92,0.9867 0.9333,0.2933 1.8933,0.5333 2.4667,0.5866 0.9733,-0.013 1.9466,0 2.9333,0 1.4933,0.013 3,0.013 4.48,-0.04 1.04,-0.04 2.1867,-0.2533 3.4,-0.4666 1.2533,-0.2134 2.56,-0.4534 3.96,-0.5467 1.28,-0.093 2.6,-0.28 4,-0.48 1.1067,-0.16 2.2133,-0.3067 3.3333,-0.4267 0.9734,-0.1066 2.0667,-0.3866 3.2267,-0.6933 1.2533,-0.3333 2.5467,-0.68 3.9867,-0.88 1.68,-0.24 3.24,-0.1067 4.6266,0 1.08,0.08 2.0934,0.16 2.8267,0.027 0.7467,-0.12 1.6933,-0.5467 2.6933,-1 1.24,-0.56 2.6667,-1.1867 4.28,-1.5334 1.7334,-0.3733 3.36,-0.32 4.7867,-0.2666 1.0533,0.04 2.04,0.08 2.6667,-0.093 1.0533,-0.2666 2.1733,-0.7333 3.3733,-1.2133 1.1067,-0.4667 2.2667,-0.9467 3.52,-1.3333 1.04,-0.3067 2.12,-0.8267 3.2667,-1.3734 1.08,-0.52 2.2,-1.0533 3.44,-1.5066 0.96,-0.36 1.92,-0.6667 2.8666,-0.9734 1.4267,-0.4666 2.76,-0.8933 3.9867,-1.4266 1.4267,-0.6134 2.8533,-0.96 4.12,-1.2534 1.1067,-0.2666 2.16,-0.52 2.88,-0.8933 0.7067,-0.3467 1.5067,-1.0667 2.36,-1.8267 0.96,-0.8666 2.0667,-1.8533 3.4,-2.6533 0.7467,-0.4533 1.5067,-0.88 2.2533,-1.3067 1.4,-0.7866 2.72,-1.5333 3.88,-2.36 1.8667,-1.3333 3.7467,-2.8133 5.5867,-4.4 0.8133,-0.6933 1.5867,-1.6666 2.4,-2.6933 0.68,-0.8667 1.3867,-1.76 2.2267,-2.64 0.9866,-1.0267 2.0533,-1.8667 3,-2.5867 0.9333,-0.72 1.8133,-1.4 2.32,-2.0666 1.3066,-1.72 2.4533,-3.6134 3.8133,-5.8934 0.64,-1.08 1.3467,-2.0133 2.0267,-2.9333 0.7866,-1.0533 1.5333,-2.04 1.9333,-2.96 0.68,-1.5333 1.2133,-3.2933 1.7733,-5.1733 l 0.4667,-1.5467 c 0.24,-0.8133 0.3067,-1.9467 0.36,-3.16 0.053,-1.1733 0.1333,-2.52 0.3867,-3.9067 0.4133,-2.2 0.84,-4.5466 1.04,-6.96 0.2133,-2.44 2.4,-4.2266 4.8,-4.0533 2.44,0.2 4.2666,2.36 4.0533,4.8 -0.2267,2.84 -0.72,5.5467 -1.16,7.8667 -0.1467,0.7866 -0.1867,1.72 -0.24,2.7066 -0.08,1.6134 -0.1733,3.4534 -0.7467,5.32 l -0.4533,1.48 c -0.6133,2.0534 -1.24,4.1734 -2.1467,6.2267 -0.8133,1.84 -1.9466,3.3467 -2.9466,4.6933 -0.5734,0.7467 -1.1067,1.4667 -1.5067,2.1334 -1.1867,2 -2.6533,4.48 -4.3867,6.7466 -1.2133,1.5867 -2.6666,2.72 -3.9466,3.7067 -0.76,0.5867 -1.48,1.1467 -2,1.6933 -0.56,0.5867 -1.12,1.28 -1.7067,2.0267 -0.9867,1.2533 -2.1067,2.6667 -3.56,3.92 -2.04,1.7467 -4.1333,3.4 -6.2133,4.88 -1.5467,1.1067 -3.1334,2 -4.68,2.88 -0.68,0.3867 -1.3734,0.7733 -2.0534,1.1867 -0.6133,0.36 -1.3066,0.9866 -2.0533,1.6533 -1.1733,1.0533 -2.52,2.2533 -4.2667,3.1333 -1.6533,0.84 -3.3333,1.24 -4.8266,1.6 -1,0.24 -1.96,0.4667 -2.68,0.7867 -1.6,0.68 -3.1867,1.2 -4.7334,1.7067 -0.8533,0.28 -1.72,0.56 -2.5866,0.8666 -0.8267,0.3067 -1.7067,0.7334 -2.6534,1.1734 -1.32,0.64 -2.8266,1.3466 -4.48,1.8666 -0.8666,0.2534 -1.7866,0.64 -2.76,1.04 -1.4133,0.5867 -2.88,1.1867 -4.5333,1.6134 -1.8667,0.48 -3.6267,0.4266 -5.1867,0.36 -1.0133,-0.027 -1.96,-0.067 -2.6133,0.08 -0.7067,0.1466 -1.5867,0.5466 -2.52,0.96 -1.3867,0.6133 -2.96,1.32 -4.8,1.64 -1.8267,0.32 -3.5333,0.1866 -5.04,0.067 -1.0267,-0.08 -1.9867,-0.1466 -2.72,-0.053 -0.8933,0.12 -1.8667,0.3867 -2.92,0.6667 -1.36,0.36 -2.92,0.7733 -4.5867,0.9466 -1.0133,0.1067 -2.0133,0.2534 -3.0133,0.3867 -1.48,0.2133 -3.0133,0.4267 -4.6,0.5467 -0.9467,0.067 -1.9733,0.24 -3.0533,0.44 -1.4534,0.2533 -2.9467,0.52 -4.5734,0.5866 -1.1066,0.04 -2.2266,0.053 -3.3333,0.053"
       style="fill:#362421;fill-opacity:1;fill-rule:nonzero;stroke:none;stroke-width:0.133333" />
    <path
       id="path367"
       d="m 2150.7733,2535.4933 c -0.2267,0 -0.48,-0.027 -0.72,-0.067 -2.2,-0.36 -3.3334,-0.72 -4.3334,-1.04 -0.8533,-0.28 -1.52,-0.4934 -3.0666,-0.7467 -1.6,-0.2533 -2.36,-0.2933 -3.24,-0.3333 -1.0134,-0.04 -2.1734,-0.08 -4.3067,-0.44 -1.2933,-0.2134 -1.84,-0.16 -2.6533,-0.067 -1.1334,0.12 -2.5467,0.2533 -4.9867,-0.1467 -1.7067,-0.28 -2.5333,-0.3466 -3.4133,-0.4266 -0.9734,-0.08 -2.0667,-0.1734 -4.1067,-0.5067 -2.4933,-0.4133 -3.7867,-1.0267 -4.8267,-1.52 -0.76,-0.36 -1.2266,-0.5733 -2.48,-0.7733 -2.4133,-0.4 -4.0533,-2.6934 -3.6533,-5.12 0.4,-2.4134 2.6933,-4.0534 5.1067,-3.6534 2.48,0.4 3.7733,1.0134 4.8266,1.52 0.76,0.3467 1.2134,0.5734 2.4667,0.7734 1.6933,0.28 2.4933,0.3466 3.4133,0.4266 0.96,0.08 2.0667,0.1734 4.1067,0.5067 1.28,0.2133 1.8267,0.16 2.64,0.067 1.1333,-0.1067 2.5467,-0.2534 5,0.1466 1.6,0.2667 2.36,0.2934 3.24,0.3334 1.0267,0.04 2.1733,0.093 4.32,0.4533 2.1867,0.36 3.32,0.72 4.3333,1.04 0.84,0.2667 1.5067,0.4933 3.0534,0.7467 2.4266,0.3866 4.0666,2.68 3.6666,5.1066 -0.36,2.1734 -2.24,3.72 -4.3866,3.72"
       style="fill:#362421;fill-opacity:1;fill-rule:nonzero;stroke:none;stroke-width:0.133333" />
    <path
       id="path368"
       d="m 2346.8533,2541.8133 c -2.1067,0 -3.9734,-1.4933 -4.3734,-3.64 -0.44,-2.4133 1.16,-4.7333 3.5734,-5.1733 l 7.4933,-1.4 c 2.0267,-0.3733 3.04,-0.4933 4.0667,-0.6133 0.88,-0.1067 1.76,-0.2134 3.4933,-0.5334 2.0133,-0.3733 3.0267,-0.4933 4.04,-0.6266 0.8933,-0.1067 1.7733,-0.2134 3.5067,-0.5334 2.4133,-0.44 3.8,-0.36 4.92,-0.2933 0.8533,0.053 1.4266,0.08 2.7733,-0.16 1.9067,-0.36 2.8533,-0.52 3.8133,-0.6933 0.9334,-0.16 1.8534,-0.32 3.72,-0.6667 2.4,-0.44 4.7334,1.1467 5.1734,3.5733 0.4533,2.4134 -1.1467,4.7334 -3.56,5.1734 -1.8934,0.3466 -2.8534,0.52 -3.8,0.68 -0.9334,0.16 -1.8667,0.3333 -3.7334,0.6666 -2.4133,0.4534 -3.8,0.3734 -4.92,0.3067 -0.8533,-0.053 -1.4266,-0.093 -2.7733,0.16 -2.0133,0.3733 -3.0267,0.4933 -4.04,0.6133 -0.88,0.1067 -1.7733,0.2134 -3.5067,0.5334 -2.0133,0.3733 -3.04,0.4933 -4.0533,0.6266 -0.88,0.093 -1.76,0.2 -3.5067,0.52 l -7.4933,1.4134 c -0.28,0.04 -0.5467,0.067 -0.8133,0.067"
       style="fill:#362421;fill-opacity:1;fill-rule:nonzero;stroke:none;stroke-width:0.133333" />
    <path
       id="path369"
       d="m 2175.3599,2662.4 c -0.6933,0 -1.3733,-0.093 -2.04,-0.2933 -2.0666,-0.6 -3.6266,-2.0934 -4.4,-4.2 -0.2533,-0.7067 -0.64,-1.8667 -1.1466,-3.3334 l -1.2134,-3.5866 c -0.5733,-1.6667 -0.5733,-3.3067 -0.5733,-4.76 0,-0.9867 0,-2 -0.2133,-2.6134 -0.2534,-0.7333 -0.7067,-1.6 -1.1867,-2.52 -0.6267,-1.2 -1.3467,-2.5466 -1.8667,-4.08 -0.4666,-1.4 -0.7466,-2.7466 -1.0133,-4.0533 -0.2267,-1.0933 -0.44,-2.12 -0.7333,-2.9867 -0.4267,-1.28 -0.8,-2.56 -1.1467,-3.8133 -0.3067,-1.0667 -0.6,-2.1067 -0.9333,-3.1067 -0.36,-1.08 -0.88,-2.1866 -1.3734,-3.24 -0.52,-1.0933 -1.0533,-2.24 -1.4533,-3.4133 -0.5867,-1.76 -0.8933,-2.28 -1.24,-2.8933 -0.44,-0.76 -0.9733,-1.7067 -1.6667,-3.7467 -0.7733,-2.3333 0.48,-4.84 2.8,-5.6267 2.3334,-0.7866 4.8534,0.4667 5.6267,2.8 0.4133,1.2134 0.6267,1.5867 0.9467,2.1467 0.6,1.04 1.16,2.0933 1.96,4.48 0.2266,0.6933 0.64,1.56 1.0666,2.4667 0.5734,1.2266 1.2267,2.6266 1.76,4.2 0.3867,1.12 0.72,2.3066 1.0534,3.52 0.32,1.12 0.64,2.2533 1.0133,3.3866 0.4667,1.3867 0.7467,2.72 1.0267,4.0134 0.2133,1.1066 0.44,2.1333 0.7333,3.0133 0.2933,0.8667 0.7867,1.8 1.3067,2.7867 0.6133,1.1866 1.2533,2.4 1.7333,3.8 0.68,2 0.68,3.92 0.68,5.4666 0.013,0.64 0.013,1.5867 0.1067,1.8934 l 1.2266,3.6266 c 0.16,0.4667 0.3067,0.8934 0.4267,1.28 0.6133,-0.3066 1.4,-0.7866 2.2933,-1.4666 0.4667,-0.36 0.7734,-0.9867 1.2267,-1.9867 0.7467,-1.6533 3.0533,-6.6933 9.3467,-4.9333 4.2133,1.1733 5.7733,2.7066 7.5066,4.7466 0.1334,0.16 0.28,0.32 0.4134,0.48 0.56,-1.08 1.16,-1.7866 1.6266,-2.32 0.4667,-0.5466 0.5467,-0.6533 0.7067,-1.28 0.2933,-1.2 0.32,-1.7066 0.3467,-2.48 0.027,-0.9733 0.08,-2.2 0.6,-4.3066 0.4133,-1.6934 0.6533,-2.5334 0.88,-3.3867 0.2133,-0.8 0.4266,-1.6 0.8266,-3.2133 0.28,-1.1467 0.2934,-1.6267 0.2934,-2.36 0.013,-1.0267 0.013,-2.28 0.56,-4.4534 0.5866,-2.3866 3.0133,-3.8266 5.3866,-3.24 2.3734,0.5867 3.8267,3 3.24,5.3867 -0.2933,1.1467 -0.2933,1.6267 -0.2933,2.3733 -0.013,1.0134 -0.027,2.28 -0.56,4.44 -0.4267,1.6934 -0.6533,2.5334 -0.88,3.3734 -0.2133,0.8133 -0.4267,1.6133 -0.8267,3.2266 -0.3066,1.2 -0.32,1.7067 -0.3466,2.48 -0.04,0.9734 -0.08,2.2 -0.6,4.3067 -0.6667,2.6667 -1.8134,4.0133 -2.5867,4.9067 -0.4667,0.56 -0.5467,0.6533 -0.7067,1.28 -0.7066,2.8133 -2.44,4.8533 -4.76,5.5866 -2.28,0.72 -4.7866,0.08 -6.88,-1.7333 -1.5466,-1.36 -2.5066,-2.48 -3.2,-3.2933 -0.8266,-0.9734 -1.1066,-1.2934 -2.12,-1.6534 -0.6666,1.44 -1.6666,3.48 -3.8,5.12 -2.4,1.8267 -5.72,3.7867 -8.96,3.7867"
       style="fill:#362421;fill-opacity:1;fill-rule:nonzero;stroke:none;stroke-width:0.133333" />
    <path
       id="path370"
       d="m 2299.1866,2658.9067 c 0,0.013 0,0.013 0,0.013 z m 1.36,8.3866 c -1.0533,0 -2.0533,-0.2133 -2.8933,-0.52 -2.16,-0.8133 -3.6534,-2.4133 -4.1067,-4.4 -0.56,-2.84 -0.08,-4.5733 0.2267,-5.7066 0.2,-0.7067 0.24,-0.84 0.1066,-1.4934 -0.28,-1.4666 -0.48,-2.12 -0.7066,-2.8933 -0.2667,-0.8667 -0.56,-1.8667 -0.92,-3.7733 -0.3867,-1.96 -0.44,-3.04 -0.5067,-3.9734 -0.04,-0.8 -0.08,-1.44 -0.3467,-2.8266 -0.1733,-0.9467 -0.3466,-1.2267 -0.7066,-1.8534 -0.5467,-0.9333 -1.2934,-2.2133 -1.76,-4.64 -0.3867,-1.9866 -0.44,-3.0666 -0.48,-4.0133 -0.053,-0.7867 -0.08,-1.4133 -0.3467,-2.8 -0.4533,-2.4 1.12,-4.7333 3.5333,-5.2 2.4134,-0.4533 4.7334,1.12 5.2,3.5333 0.3867,1.9734 0.44,3.0534 0.48,4.0134 0.04,0.7866 0.08,1.4133 0.3467,2.7866 0.1733,0.9334 0.3467,1.2267 0.7067,1.8534 0.5466,0.9333 1.2933,2.2133 1.76,4.64 0.3733,1.9733 0.44,3.04 0.4933,3.9866 0.04,0.8 0.08,1.4267 0.3467,2.8267 0.28,1.4533 0.48,2.12 0.72,2.88 0.2533,0.88 0.56,1.8667 0.92,3.7733 0.2133,1.0667 0.2533,1.9867 0.2266,2.7734 l 2.3867,-1.7334 c 0.44,-0.32 0.64,-0.6533 1.04,-1.2933 0.8133,-1.3333 2.9867,-4.8667 8.4267,-3.36 3.3866,0.9467 5.12,2.2267 6.3733,3.7867 0.1067,-0.3067 0.2267,-0.68 0.36,-1.12 0.5467,-1.8 0.84,-2.6934 1.1467,-3.6 0.28,-0.8134 0.56,-1.64 1.0533,-3.3067 0.5467,-1.7733 0.8267,-2.6667 1.1067,-3.5467 0.28,-0.84 0.5466,-1.6933 1.0533,-3.3733 0.6933,-2.32 1.4267,-3.48 2.0133,-4.4133 0.4267,-0.68 0.68,-1.0934 1.0267,-2.2534 0.36,-1.1866 0.3867,-1.68 0.4133,-2.4933 0.027,-1.0933 0.08,-2.4533 0.7734,-4.7333 0.6133,-2.0667 1.1066,-3.1067 1.5466,-4.0267 0.36,-0.76 0.64,-1.36 1.0667,-2.7867 0.5333,-1.7733 0.8267,-2.6533 1.1067,-3.5466 0.2666,-0.84 0.5466,-1.6934 1.0533,-3.4 0.7067,-2.3467 3.1867,-3.68 5.5333,-2.9734 2.36,0.7067 3.68,3.1867 2.9734,5.5467 -0.5334,1.7733 -0.8134,2.6533 -1.0934,3.5467 -0.28,0.84 -0.5466,1.6933 -1.0666,3.3866 -0.6134,2.0667 -1.1067,3.1067 -1.5467,4.0267 -0.3467,0.76 -0.64,1.36 -1.0667,2.7867 -0.36,1.1866 -0.3733,1.68 -0.4,2.4933 -0.04,1.08 -0.093,2.44 -0.7733,4.7333 -0.6933,2.3067 -1.4267,3.4667 -2.0133,4.4134 -0.4267,0.6666 -0.68,1.08 -1.0267,2.2533 -0.5333,1.7733 -0.8267,2.6533 -1.1067,3.5333 -0.28,0.8534 -0.5466,1.6934 -1.0533,3.3867 -0.5467,1.8133 -0.8533,2.7067 -1.1467,3.6 -0.28,0.8267 -0.56,1.64 -1.0666,3.3067 -0.6267,2.0933 -1.1334,3.1333 -1.5734,4.0666 -0.36,0.7467 -0.6533,1.3334 -1.08,2.7334 -1.0133,3.1066 -2.8933,4.0933 -4.3066,4.3866 -0.88,0.1867 -3.2,0.3734 -5.2667,-1.9466 -1.52,-1.72 -2.3467,-3.12 -2.9467,-4.1334 -0.5733,-0.9733 -0.72,-1.2133 -1.4533,-1.48 -0.5867,0.88 -1.4667,1.9734 -2.84,2.9734 l -6.04,4.4 c -1.1867,0.8533 -2.56,1.1866 -3.88,1.1866"
       style="fill:#362421;fill-opacity:1;fill-rule:nonzero;stroke:none;stroke-width:0.133333" />
    <path
       id="path371"
       d="m 2198.4533,2644.76 c -0.52,0 -1.0534,-0.013 -1.5867,-0.067 -2,-0.1866 -3.6933,-0.8666 -5.1867,-1.4666 -0.9466,-0.3734 -1.84,-0.7334 -2.4666,-0.8134 -0.92,-0.1066 -2,-0.04 -3.1334,0.04 -1.44,0.093 -3.08,0.2 -4.76,-0.067 -1.2133,-0.1734 -2.48,-0.2534 -3.7066,-0.32 -1.3467,-0.08 -2.76,-0.16 -4.1067,-0.4134 -3.0933,-0.5466 -4.48,-1.3066 -5.7467,-2.1066 -0.5333,-0.3334 -0.7466,-0.48 -1.72,-0.68 -2.4,-0.52 -3.9333,-2.8934 -3.4133,-5.2934 0.52,-2.3866 2.88,-3.92 5.28,-3.4 2.3333,0.5067 3.5067,1.16 4.6,1.8534 0.5867,0.3733 0.9333,0.5866 2.56,0.88 0.8267,0.1466 1.92,0.2133 3.0667,0.28 1.36,0.08 2.9066,0.1733 4.5333,0.4266 0.72,0.1067 1.7467,0.04 2.8267,-0.04 1.4533,-0.093 3.08,-0.2 4.8266,0.027 1.76,0.2133 3.2934,0.84 4.6534,1.3733 1.0266,0.4134 2,0.8 2.7066,0.8667 0.96,0.08 2.12,-0.027 3.3467,-0.1333 1.28,-0.1334 2.7333,-0.2534 4.2133,-0.2 2.4534,0.12 4.3467,2.2 4.24,4.6533 -0.12,2.4533 -2.2266,4.3333 -4.6533,4.2267 -0.8533,-0.04 -1.88,0.067 -2.96,0.16 -1.0533,0.1066 -2.2,0.2133 -3.4133,0.2133"
       style="fill:#362421;fill-opacity:1;fill-rule:nonzero;stroke:none;stroke-width:0.133333" />
    <path
       id="path372"
       d="m 2296.2666,2649.4933 c -2.1333,0 -4.0133,-1.5466 -4.3733,-3.72 -0.4,-2.4266 1.2533,-4.7066 3.6666,-5.1066 0.64,-0.1067 0.6534,-0.12 1.1334,-0.48 1.2,-0.92 2.6266,-1.8667 5.5733,-2.44 1.6933,-0.32 3.2933,-0.1067 4.7067,0.067 0.9866,0.1334 2.0133,0.2667 2.6133,0.1334 0.96,-0.2134 2.04,-0.5867 3.1733,-0.9867 1.16,-0.4133 2.3467,-0.8267 3.64,-1.16 0.9734,-0.2533 2.0267,-0.7333 3.1467,-1.24 1.0667,-0.48 2.1733,-0.9867 3.3733,-1.3733 1.3067,-0.4134 2.5467,-0.68 3.6534,-0.92 1.0133,-0.2267 2.16,-0.4667 2.64,-0.72 2.16,-1.1467 4.8533,-0.32 6,1.8533 1.1466,2.1733 0.32,4.8667 -1.8534,6.0133 -1.5466,0.8134 -3.2666,1.1867 -4.92,1.5334 -0.9466,0.2133 -1.92,0.4266 -2.8133,0.7066 -0.7067,0.2267 -1.52,0.6 -2.3867,0.9867 -1.36,0.6267 -2.8933,1.3333 -4.6533,1.7733 -0.8933,0.2267 -1.8533,0.5734 -2.8667,0.9334 -1.3466,0.4666 -2.7333,0.96 -4.2266,1.28 -2.1334,0.4666 -4.0934,0.2133 -5.6667,0.013 -0.6267,-0.093 -1.5733,-0.2133 -1.88,-0.16 -1.1333,0.2133 -1.3467,0.3867 -1.8533,0.7733 -1.1467,0.8667 -2.48,1.76 -5.0934,2.1867 -0.2533,0.04 -0.4933,0.053 -0.7333,0.053"
       style="fill:#362421;fill-opacity:1;fill-rule:nonzero;stroke:none;stroke-width:0.133333" />
    <path
       id="path373"
       d="m 2203.8133,2284.4934 c 0,2.5066 -1.04,4.5466 -2.68,6.2 -1.64,1.64 -3.68,3 -6.2,3 -2.5067,0 -5.08,-0.8267 -6.72,-2.4667 -1.64,-1.6533 -1.4667,-4.2267 -1.4667,-6.7333 0,-2.5067 0.3867,-4.52 2.0267,-6.16 1.6533,-1.6534 3.6533,-2.16 6.16,-2.16 2.52,0 5.36,-0.3334 7.0133,1.32 1.64,1.64 1.8667,4.4933 1.8667,7"
       style="fill:#362421;fill-opacity:1;fill-rule:nonzero;stroke:none;stroke-width:0.133333" />
    <path
       id="path374"
       d="m 2309.6533,2278.8 c 0,2.52 -0.9067,4.68 -2.56,6.3334 -1.64,1.64 -3.8134,3.6933 -6.32,3.6933 -2.52,0 -5.0934,-1.64 -6.7334,-3.2933 -1.6533,-1.64 -2.9466,-4.2134 -2.9466,-6.7334 0,-2.5066 1.4933,-4.8933 3.1333,-6.5333 1.6533,-1.6533 4.0267,-1.9867 6.5467,-1.9867 2.5066,0 4.76,0.4667 6.4133,2.1067 1.64,1.6533 2.4667,3.9067 2.4667,6.4133"
       style="fill:#362421;fill-opacity:1;fill-rule:nonzero;stroke:none;stroke-width:0.133333" />
    <path
       id="path375"
       d="m 2251.3466,2299.2267 c -2.3867,0.12 -4.9333,-0.2134 -7.5867,0.1866 -2.44,0.36 -5.04,0.32 -7.5733,0.9334 -2.44,0.5866 -4.9467,1.2133 -7.3733,2.0666 -2.4,0.8534 -4.36,2.7067 -6.6267,3.8267 -2.3067,1.1467 -4.28,2.5867 -6.3333,4.04 -2.1067,1.48 -4.5067,2.4533 -6.2134,4.2933 -1.7466,1.8667 -3.1066,3.9734 -4.2933,6.2267 -1.16,2.2 -3,4.32 -3.4933,6.9067 -0.4534,2.36 0.067,5.0533 0.2666,7.7466 0.1867,2.68 0.5334,5.1734 1,7.48 0.52,2.64 0.9734,5.16 1.8667,7.32 1.0267,2.4534 3.2267,3.9734 4.7467,5.84 1.5733,1.96 2.68,4.3067 4.8266,5.6934 2.0134,1.2933 4.2267,2.6533 6.76,3.5066 2.2134,0.7334 4.8267,0.7334 7.48,1.16 2.32,0.36 4.84,0.04 7.5067,0.1867 2.36,0.1333 4.84,1.5467 7.48,1.5067 2.4,-0.027 4.8667,-1.2934 7.4933,-1.44 2.5067,-0.1467 5,0.84 7.2667,0.6266 2.52,-0.2533 4.84,-1.24 7.08,-1.5866 2.52,-0.4 4.8133,-1.12 7,-1.6667 2.5067,-0.6267 4.52,-1.8933 6.5733,-2.7467 2.3867,-0.9866 4.4,-1.92 6.2134,-3.2533 2,-1.4533 4.8,-2.0933 6.1733,-4.0267 1.3333,-1.8933 1.8667,-4.4666 2.64,-6.88 0.6933,-2.12 1.3467,-4.48 1.6267,-7.0533 0.24,-2.2133 0.067,-4.6533 0.027,-7.2267 -0.053,-2.5733 -0.4533,-4.9866 -0.76,-7.2666 -0.3333,-2.56 -1.5733,-4.68 -2.2666,-6.88 -0.76,-2.44 -0.1734,-5.36 -1.4,-7.3467 -1.2934,-2.0933 -3.1734,-3.9333 -5.0267,-5.5467 -1.76,-1.5333 -4.32,-2.1066 -6.6267,-3.2133 -2.0666,-0.9733 -4.4,-1.2667 -6.9333,-1.9067 -2.2133,-0.5466 -4.3333,-2.3466 -6.92,-2.6266 -2.28,-0.2534 -4.7733,0.9733 -7.36,0.9333 -2.3067,-0.053 -4.68,0.067 -7.24,0.1867"
       style="fill:#f68ca8;fill-opacity:1;fill-rule:nonzero;stroke:none;stroke-width:0.133333" />
    <path
       id="path376"
       d="m 2234.6266,2362.16 c 0.6267,0 1.2667,0.013 1.92,0.04 1.5867,0.093 3.04,0.52 4.32,0.8933 1.08,0.32 2.1467,0.56 2.8667,0.6134 0.6666,-0.013 1.6266,-0.2667 2.64,-0.5467 1.36,-0.3733 2.9066,-0.7867 4.64,-0.8933 1.7333,-0.093 3.2933,0.16 4.6666,0.3866 0.96,0.16 1.8667,0.3067 2.44,0.2534 1.04,-0.1067 2.16,-0.4134 3.3334,-0.7334 1.1066,-0.3066 2.2533,-0.6266 3.48,-0.8266 1.6266,-0.2534 3.24,-0.68 4.8,-1.0934 0.6133,-0.1733 1.2133,-0.3333 1.8,-0.48 1.24,-0.3066 2.4133,-0.88 3.6666,-1.4933 0.7734,-0.3733 1.5334,-0.7467 2.3067,-1.0533 2.2133,-0.92 3.8667,-1.6934 5.28,-2.7334 1.0667,-0.7733 2.1733,-1.32 3.1467,-1.8133 0.6666,-0.3333 1.8,-0.8933 2.0266,-1.1867 0.6,-0.8666 1.04,-2.36 1.5067,-3.9333 0.1733,-0.5867 0.3467,-1.1733 0.5333,-1.7467 0.5334,-1.64 1.1734,-3.8133 1.4267,-6.1733 0.1467,-1.3467 0.1067,-2.9733 0.053,-4.68 -0.013,-0.6533 -0.04,-1.32 -0.053,-2 -0.027,-1.7867 -0.28,-3.6133 -0.52,-5.36 l -0.1867,-1.4 c -0.1466,-1.0933 -0.5866,-2.1867 -1.1066,-3.4667 -0.3734,-0.8933 -0.72,-1.7733 -1,-2.6666 -0.4667,-1.52 -0.5734,-2.9734 -0.6667,-4.24 -0.053,-0.72 -0.1333,-1.8134 -0.2933,-2.12 -1.0534,-1.72 -2.8667,-3.4 -4.1467,-4.4934 -0.6,-0.5333 -1.7733,-0.9866 -3.0133,-1.4666 -0.8667,-0.3334 -1.7467,-0.68 -2.6,-1.08 -1.0267,-0.4934 -2.36,-0.7734 -3.8934,-1.12 -0.72,-0.1467 -1.4533,-0.3067 -2.2,-0.4934 -1.4133,-0.36 -2.64,-0.96 -3.7333,-1.5066 -0.9733,-0.48 -1.9067,-0.9467 -2.6133,-1.0267 -0.44,-0.053 -1.44,0.16 -2.3067,0.3467 -1.3467,0.3066 -2.92,0.6266 -4.64,0.6133 -2.1333,-0.04 -4.4533,0.067 -6.8933,0.1867 l -0.2667,-4.44 0.2133,4.44 c -1,0.053 -2.0266,0.027 -3.08,0.013 -1.44,-0.04 -2.7866,-0.067 -4.0666,0.12 -1.0267,0.16 -2.08,0.2533 -3.1467,0.3333 -1.4533,0.12 -2.8133,0.24 -4.04,0.5334 -2.3867,0.5733 -4.7333,1.16 -6.9333,1.9466 -0.8667,0.3067 -1.8534,0.96 -2.9067,1.6534 -0.9467,0.64 -2.0267,1.36 -3.24,1.96 -1.7733,0.88 -3.4,2.04 -5.1333,3.2666 l -0.5867,0.4134 c -0.84,0.5866 -1.72,1.12 -2.6,1.6266 -1.2133,0.72 -2.2667,1.3467 -2.9333,2.0667 -1.3067,1.4133 -2.4534,3.08 -3.6134,5.2667 -0.4,0.7733 -0.88,1.5466 -1.3733,2.3333 -0.7733,1.2267 -1.5067,2.3867 -1.6933,3.3467 -0.2134,1.12 -0.04,2.72 0.1333,4.4 0.067,0.7333 0.1467,1.4533 0.2,2.1866 0.1733,2.4134 0.4933,4.7467 0.92,6.92 l 0.16,0.7867 c 0.4267,2.1467 0.8267,4.1733 1.4667,5.7067 0.3466,0.84 1.1733,1.6666 2.12,2.6266 0.6533,0.6534 1.3333,1.3334 1.9733,2.1334 0.5467,0.68 1.04,1.3866 1.5333,2.0933 0.8,1.16 1.4934,2.16 2.2534,2.6533 1.7866,1.1467 3.6933,2.3334 5.7466,3.0134 0.9867,0.3333 2.3467,0.48 3.7867,0.6266 0.9733,0.093 1.9867,0.2 2.9867,0.36 1,0.16 2.2533,0.1467 3.56,0.12 0.52,-0.013 1.04,-0.013 1.5733,-0.013 z m 9.0667,10.4267 c -2.0534,0 -3.8667,-0.5334 -5.3467,-0.96 -0.8933,-0.2667 -1.7333,-0.52 -2.2933,-0.5467 -0.9734,-0.053 -1.92,-0.04 -2.8534,-0.013 -1.64,0.027 -3.3333,0.053 -5.1066,-0.2267 -0.84,-0.1333 -1.68,-0.2267 -2.5067,-0.3067 -1.8533,-0.2 -3.7733,-0.4 -5.68,-1.0266 -3.04,-1.0134 -5.6,-2.5867 -7.76,-3.9867 -2.2267,-1.44 -3.6133,-3.44 -4.7333,-5.0533 -0.3734,-0.5334 -0.7334,-1.08 -1.1467,-1.5867 -0.4133,-0.4933 -0.88,-0.9733 -1.36,-1.4533 -1.3333,-1.3467 -3,-3.0267 -4.0133,-5.4667 -0.9867,-2.3467 -1.4934,-4.9067 -1.9867,-7.3867 l -0.1467,-0.7733 c -0.5066,-2.5333 -0.88,-5.2267 -1.08,-8.0133 -0.04,-0.64 -0.1066,-1.28 -0.1733,-1.92 -0.24,-2.2534 -0.48,-4.5867 -0.013,-7 0.4933,-2.6 1.8266,-4.7067 2.88,-6.4 0.3733,-0.5867 0.7333,-1.16 1.04,-1.7334 1.5066,-2.8666 3.1333,-5.2133 4.9733,-7.1866 1.5467,-1.6667 3.3333,-2.72 4.92,-3.6667 0.6667,-0.3867 1.3467,-0.7867 1.9867,-1.24 l 0.5733,-0.4 c 1.9333,-1.3733 3.9467,-2.8 6.3467,-3.9867 0.6933,-0.3333 1.44,-0.84 2.24,-1.3733 1.3866,-0.9333 2.96,-1.9733 4.8933,-2.6533 2.5867,-0.92 5.2667,-1.5867 7.7867,-2.2 1.8933,-0.4533 3.76,-0.6133 5.3866,-0.7467 0.88,-0.08 1.7467,-0.1466 2.6,-0.2666 2.0134,-0.2934 3.8934,-0.2534 5.5467,-0.2267 0.84,0.013 1.6667,0.04 2.4667,0 v 0 l 0.2133,4.44 -0.16,-4.44 c 2.6,-0.12 5.0533,-0.24 7.48,-0.2 0.72,0.067 1.6133,-0.1867 2.5733,-0.4 1.5334,-0.3333 3.2667,-0.72 5.1867,-0.5067 2.28,0.2534 4.12,1.1734 5.6,1.9067 0.7467,0.3733 1.4533,0.72 1.92,0.84 0.6533,0.16 1.3067,0.3066 1.9333,0.44 1.9067,0.4133 3.8667,0.84 5.8134,1.76 0.6666,0.32 1.3466,0.5733 2.0133,0.84 1.8133,0.6933 3.8533,1.4933 5.64,3.04 1.8533,1.6 4.2,3.8133 5.8933,6.56 1.28,2.0666 1.44,4.3066 1.5734,6.1066 0.053,0.88 0.12,1.7067 0.2933,2.24 0.2,0.6667 0.4667,1.32 0.7333,1.9734 0.6534,1.6133 1.4,3.44 1.6934,5.6533 l 0.1733,1.3467 c 0.2667,1.92 0.5733,4.0933 0.6133,6.44 0.013,0.6266 0.027,1.2533 0.04,1.8666 0.067,1.9467 0.12,3.9467 -0.093,5.92 -0.3467,3.16 -1.1467,5.8934 -1.8133,7.9334 -0.16,0.5066 -0.3067,1.0266 -0.4667,1.5333 -0.6133,2.0933 -1.32,4.4667 -2.7733,6.5333 -1.5067,2.12 -3.6134,3.1734 -5.32,4.0267 -0.72,0.36 -1.4,0.6933 -1.8534,1.0267 -2.12,1.56 -4.3866,2.6266 -7.1333,3.76 -0.6,0.2533 -1.2,0.5466 -1.8133,0.8533 -1.5334,0.7467 -3.2667,1.5867 -5.3867,2.12 -0.5467,0.1333 -1.1067,0.28 -1.68,0.44 -1.6933,0.4533 -3.6133,0.96 -5.72,1.2933 -0.72,0.1067 -1.5733,0.3467 -2.48,0.6 -1.4267,0.4 -3.04,0.84 -4.8533,1.0134 -1.72,0.1866 -3.3334,-0.093 -4.7467,-0.32 -1,-0.1734 -1.96,-0.3334 -2.6933,-0.28 -0.8134,0.04 -1.7867,0.3066 -2.8267,0.5866 -1.44,0.3867 -3.0667,0.84 -4.8533,0.8534 -0.053,0 -0.1067,0 -0.16,0"
       style="fill:#362421;fill-opacity:1;fill-rule:nonzero;stroke:none;stroke-width:0.133333" />
    <path
       id="path377"
       d="m 2243.7599,2332.8267 c 0,3.2666 -3.3733,5.2 -6.64,5.2 -3.2666,0 -5.2666,-1.9334 -5.2666,-5.2 0,-3.2667 2,-5.1867 5.2666,-5.1867 3.2667,0 6.64,1.92 6.64,5.1867"
       style="fill:#362421;fill-opacity:1;fill-rule:nonzero;stroke:none;stroke-width:0.133333" />
    <path
       id="path378"
       d="m 2266.7066,2330.8133 c 0,3.2667 -2.0933,5.64 -5.36,5.64 -3.2667,0 -5.3067,-2.3733 -5.3067,-5.64 0,-3.2666 2.04,-5.8666 5.3067,-5.8666 3.2667,0 5.36,2.6 5.36,5.8666"
       style="fill:#362421;fill-opacity:1;fill-rule:nonzero;stroke:none;stroke-width:0.133333" />
    <path
       id="path379"
       d="m 2249.6933,2402.88 c -3.8267,0 -6.9334,-0.92 -9.1867,-1.6 l -0.48,-0.1467 c -1.2533,-0.36 -2.1867,-0.5733 -2.9333,-0.7466 -3.5734,-0.8134 -5.0534,-1.6534 -7.32,-5.3067 -1.2934,-2.0933 -0.6534,-4.8267 1.4266,-6.12 2.08,-1.3067 4.8267,-0.6667 6.12,1.4267 0.3867,0.6266 0.6134,0.9333 0.7334,1.0933 0.2533,0.067 0.6666,0.16 1.0133,0.24 0.88,0.2 2,0.4533 3.4667,0.8933 l 0.52,0.1467 c 1.92,0.5733 4.1066,1.2267 6.64,1.2267 1.48,0 3.2933,-0.84 5.0533,-1.6534 0.4133,-0.2 0.84,-0.4 1.24,-0.5733 1.2,-0.5467 2.32,-1.6133 3.4933,-2.7467 0.6534,-0.6266 1.28,-1.2266 1.9334,-1.7733 l 1.0266,-0.8533 c 1.96,-1.64 1.96,-1.64 3.4667,-3.7334 l 0.3467,-0.4933 c 1.44,-1.9867 4.2133,-2.44 6.2,-1.0133 2,1.44 2.4533,4.2133 1.0133,6.2 l -0.3467,0.48 c -2.0533,2.88 -2.2933,3.1333 -4.9866,5.3866 l -1,0.8267 c -0.5067,0.4267 -0.9867,0.8933 -1.4934,1.3733 -1.52,1.4667 -3.4,3.2934 -6.0266,4.4534 l -1.12,0.52 c -2.3867,1.1066 -5.3467,2.4933 -8.8,2.4933"
       style="fill:#362421;fill-opacity:1;fill-rule:nonzero;stroke:none;stroke-width:0.133333" />
    <path
       id="path380"
       d="m 2183.3066,2338.7333 c 0,2.3734 -1.6,4.3334 -2.2933,6.4667 -0.72,2.2133 -1.1867,4.32 -2.52,6.16 -1.36,1.8533 -3.2,3 -5.0534,4.3467 -1.84,1.3333 -3.4533,2.8 -5.6666,3.52 -2.1334,0.68 -4.2934,1.5466 -6.6534,1.5466 -2.36,0 -4.4533,-1.0933 -6.5866,-1.7866 -2.2134,-0.7067 -4.08,-1.7067 -5.9067,-3.0534 -1.8667,-1.3466 -3.56,-2.6933 -4.92,-4.5466 -1.3333,-1.84 -3.0933,-3.5467 -3.8,-5.76 -0.6933,-2.12 -1.0267,-4.52 -1.0267,-6.8934 0,-2.36 -0.12,-4.9066 0.5734,-7.04 0.72,-2.2 2.8266,-3.8266 4.16,-5.6666 1.3466,-1.8667 2.92,-3.4534 4.7733,-4.8 1.84,-1.3334 3.9067,-2.1067 6.12,-2.8267 2.1333,-0.6933 4.2533,-1.6267 6.6133,-1.6267 2.36,0 4.6667,0.32 6.8,1.0134 2.2134,0.72 3.76,2.5466 5.5867,3.8933 1.8667,1.3467 3.7867,2.4667 5.1333,4.32 1.3467,1.84 3.4934,3.4667 4.2,5.68 0.6934,2.1333 0.4667,4.6933 0.4667,7.0533"
       style="fill:#f68ca8;fill-opacity:1;fill-rule:nonzero;stroke:none;stroke-width:0.133333" />
    <path
       id="path381"
       d="m 2360.0533,2336.7333 c 0,2.36 0.7333,4.8534 0.04,6.9867 -0.72,2.2 -1.7467,4.5467 -3.08,6.3867 -1.36,1.8533 -4.1867,2.3066 -6.04,3.6533 -1.84,1.3333 -3.12,3.9333 -5.3334,4.6533 -2.1333,0.6934 -4.68,-0.24 -7.04,-0.24 -2.36,0 -4.68,0.2134 -6.8133,-0.48 -2.2133,-0.72 -3.6933,-2.64 -5.5333,-3.9733 -1.8534,-1.3467 -4.5867,-1.84 -5.9467,-3.7067 -1.3333,-1.84 -2.4933,-4.0933 -3.2133,-6.2933 -0.6934,-2.1333 -0.72,-4.6267 -0.72,-6.9867 0,-2.3733 0.4533,-4.72 1.1466,-6.8533 0.7067,-2.2133 1.68,-4.44 3.0134,-6.28 1.3466,-1.8533 3.0666,-3.6133 4.92,-4.96 1.84,-1.3333 4.0533,-2.3867 6.2533,-3.1067 2.1333,-0.6933 4.5333,-0.8933 6.8933,-0.8933 2.36,0 4.68,0.44 6.8134,1.1333 2.2,0.7067 4.44,1.6 6.28,2.9334 1.8533,1.3466 3.8933,2.84 5.24,4.6933 1.3466,1.84 2.5333,4.1067 3.2533,6.32 0.6933,2.1333 -0.1333,4.64 -0.1333,7.0133"
       style="fill:#f68ca8;fill-opacity:1;fill-rule:nonzero;stroke:none;stroke-width:0.133333" />
  </g>
</svg>
