<?xml version="1.0" encoding="UTF-8" standalone="no"?>
<!-- Created with Inkscape (http://www.inkscape.org/) -->

<svg
   version="1.1"
   id="svg1"
   width="370.37537"
   height="620.73969"
   viewBox="0 0 370.37536 620.73969"
   xmlns="http://www.w3.org/2000/svg"
   xmlns:svg="http://www.w3.org/2000/svg">
  <defs
     id="defs1" />
  <g
     id="g1"
     transform="translate(-2040.0921,-399.60702)">
    <path
       id="path2"
       d="M 2666.6666,2962.96 H 0 V 7.4074e-5 H 2666.6666 V 2962.96"
       style="display:none;fill:#fef5e6;fill-opacity:1;fill-rule:nonzero;stroke:none;stroke-width:0.133333" />
    <path
       id="path110"
       d="m 2237.3066,533.46673 -3.5867,-9.49334 -4.4933,-37.77333 -5.0133,-59.81333 v -15.68 l -5.96,-6.66667 -20.2667,13.92 c 0,0 -28.8667,15.14667 -42.0933,68.38667 -13.2267,53.24 5.2933,110.08 5.2933,110.08 0,0 -48.7067,21.56 -65.6933,75.34666 l -9.84,33.93333 c 0,0 -23.4667,22.02667 -18.5734,53.84 4.8934,31.8 41.8667,58.98667 41.8667,58.98667 0,0 -15.2267,60.54666 25.8267,118.09333 0,0 -18.48,9.97333 15.0933,54.14666 0,0 -8.1867,2.50667 -9.8667,13.01332 -1.68,10.5067 12.4134,14.32 29.56,8.3333 l 16.04,2.1867 25.04,0.5333 h 64.7067 l 41.32,1 h 27.1867 l 8.6133,-8.9866 -0.28,-4.4134 c 0,0 42.9333,-4.09328 51.2933,-45.05328 8.3467,-40.97334 -14.5066,-99.17333 -18.9733,-109.14667 -4.48,-9.97333 -18.6133,-36.12 -21.6267,-61.90666 -3,-25.78667 -11.56,-74.22667 -11.56,-74.22667 l -15.2933,-57.14666 -8.4533,-21.06667 -15.0534,-25.81333 -11.68,-11.65333 27.0934,-27.08 24.4933,-27.8 18.2533,-30.26667 9.6534,-26.74666 3.9333,-26.70667 c 0,0 8.36,-41.42667 -22.8267,-23.61333 0,0 -36.7866,13.18666 -58.6,29.97333 -21.8266,16.78667 -51.3733,39.25333 -65.5333,69.28"
       style="fill:#ffffff;fill-opacity:1;fill-rule:nonzero;stroke:none;stroke-width:0.133333" />
    <path
       id="path111"
       d="m 2384.2666,457.82673 c 0,0 -34.5067,-0.72 -66.96,31.2 -32.44,31.93333 -54.2533,74.92 -54.16,82.92 0.093,7.98666 -1.12,15.89333 4.9867,16.70666 6.12,0.82667 27.68,5.89334 48.92,-9.28 21.2266,-15.18666 53.6266,-68.09333 53.6266,-68.09333 0,0 15.9334,-38.70666 13.5867,-53.45333"
       style="fill:#fabbcd;fill-opacity:1;fill-rule:nonzero;stroke:none;stroke-width:0.133333" />
    <path
       id="path112"
       d="m 2133.5066,733.96006 c 0,0 8.6533,-7.37334 23.84,2.25333 l -3.9867,3.85333 -12.6933,4.81334 -7.16,-10.92"
       style="fill:#fabbcd;fill-opacity:1;fill-rule:nonzero;stroke:none;stroke-width:0.133333" />
    <path
       id="path113"
       d="m 2075.8933,717.73339 c -0.2,1.18667 -0.8667,1.69333 -1.9067,2.37333 -0.8,1.21334 -0.9733,2.77334 -1.6267,4.06667 -0.027,0.04 -1.3733,-0.46667 -1.4,-0.41333 -0.7333,2.14666 -1.6,4.41333 -1.9866,6.66666 -0.093,0.54667 0.9733,1.52 0.6133,1.96 -0.027,0.17334 -0.3467,0.0933 -0.3867,0.26667 -0.2266,0.89333 -0.7866,1.70667 -1.04,2.6 -0.32,1.16 0.027,2.48 -0.48,3.57333 0.1067,0.56 -0.1466,1.09334 -0.32,1.65334 -0.6933,2.09333 -2.0266,4.05333 -2.4533,6.21333 0.027,0.56 0.6533,1.18667 0.6533,1.74667 0,1.09333 0.8534,2.04 0.8934,3.12 0.2266,0.54666 -1.2134,1.29333 -1.2134,1.86666 0,2.06667 -0.013,4.24 0.2134,6.29334 0.027,0.04 0.5866,0.22666 0.6133,0.26666 1.5333,2.36 1.9733,5.12 2.72,7.81333 0.7067,2.54667 2.4933,4.26667 3.3067,6.78667 2.44,-0.90667 4.68,-1.12 6.8,-2.57333 2.1333,-1.46667 4.0666,-3.34667 5.7866,-5.26667 1.72,-1.93333 2.4667,-4.54666 3.68,-6.84 1.1867,-2.26666 3.2534,-4.26666 3.88,-6.8 0.6134,-2.46666 0.32,-5.18666 0.32,-7.84 0,-2.33333 -0.7333,-4.52 -1.2133,-6.70666 -0.48,-2.26667 -0.36,-4.72 -1.2933,-6.78667 -0.96,-2.09333 -3.2,-3.37333 -4.5734,-5.2 -1.3733,-1.82667 -1.72,-4.64 -3.44,-6.14667 -1.72,-1.49333 -4.1333,-1.58666 -6.1466,-2.69333"
       style="fill:#fabbcd;fill-opacity:1;fill-rule:nonzero;stroke:none;stroke-width:0.133333" />
    <path
       id="path114"
       d="m 2256.3999,761.57339 c 0,2.45333 0.1734,4.98666 -0.3466,7.28 -0.5334,2.36 -1.5867,4.66666 -2.6267,6.8 -1.04,2.17333 -2.92,3.85333 -4.4,5.70666 -1.5067,1.88 -2.6133,4.22667 -4.48,5.72 -1.8667,1.48 -4.6267,1.57334 -6.8,2.61334 -2.1333,1.02666 -4.0133,2.70666 -6.3733,3.24 -2.2934,0.52 -4.7067,1.4 -7.16,1.4 -2.4534,0 -5.0134,-0.25334 -7.3067,-0.77334 -2.36,-0.53333 -4.7467,-1.49333 -6.88,-2.52 -2.1733,-1.05333 -3.96,-2.88 -5.8267,-4.37333 -1.88,-1.49333 -3.1866,-3.52 -4.6933,-5.38667 -1.48,-1.86666 -2.9867,-3.69333 -4.04,-5.86666 -1.0267,-2.13334 -2.24,-4.26667 -2.7733,-6.64 -0.52,-2.29334 0.32,-4.74667 0.32,-7.2 0,-2.44 0.3466,-4.62667 0.8666,-6.92 0.5334,-2.37333 1.12,-4.50667 2.16,-6.64 1.04,-2.17333 1.1067,-4.97333 2.5867,-6.84 1.5067,-1.86667 4.1333,-2.65333 6.0133,-4.14667 1.8667,-1.48 3.1067,-4.08 5.28,-5.12 2.1334,-1.04 4.72,-1.37333 7.08,-1.90666 2.2934,-0.52 4.76,-1.12 7.2134,-1.12 2.4533,0 4.7733,1.22666 7.0666,1.74666 2.36,0.53334 4.8667,0.70667 7,1.73334 2.1734,1.05333 4.2134,2.46666 6.08,3.94666 1.88,1.50667 3.9467,2.98667 5.44,4.86667 1.4934,1.86667 2.9867,3.96 4.04,6.13333 1.0267,2.13334 1.9334,4.57334 2.4667,6.94667 0.52,2.29333 0.093,4.88 0.093,7.32"
       style="fill:#fabbcd;fill-opacity:1;fill-rule:nonzero;stroke:none;stroke-width:0.133333" />
    <path
       id="path115"
       d="m 2259.5733,1003.4134 c -6.12,-2.64 -12.0267,0 -12.0267,0 l -2.04,-1.0134 c -7.1333,-4.49328 -11.0133,0.2 -16.52,-2.2266 -5.5067,-2.42668 -14.4933,0 -14.4933,0 -1.3467,0.2533 -2.3867,0.6666 -3.1734,1.2133 0,0 0,0 -0.013,-0.013 -5.84,-4.68002 -9.64,1.0266 -15.96,-2.28002 -6.32,-3.30666 -8.9733,1.26662 -12.8533,0 -3.8667,-1.26666 -12.2134,1.33332 -12.8934,6.34662 -0.6666,5.0267 6.8934,8.7067 6.8934,8.7067 l 35.8,0.6533 c 0,0.013 0.027,0.04 0.027,0.04 h 2.1734 v 0 0 h 22.6533 c 0,0 22.84,2.24 27.9333,0 5.0934,-2.24 0.6134,-8.7733 -5.5066,-11.4266"
       style="fill:#fabbcd;fill-opacity:1;fill-rule:nonzero;stroke:none;stroke-width:0.133333" />
    <path
       id="path116"
       d="m 2166.5866,1001.3734 c 0,0 -3.4933,-3.25335 -9.4933,0 0,0 -7.2934,-3.61335 -10.8934,3.2666 -3.6,6.88 1.3867,10.24 3.6667,10.24 2.2933,0 13.8667,0.96 13.8667,0.96 l 5.8266,-1 -2.9733,-13.4666"
       style="fill:#fabbcd;fill-opacity:1;fill-rule:nonzero;stroke:none;stroke-width:0.133333" />
    <path
       id="path117"
       d="m 2293.0266,995.26672 c 0,0 10.1867,0.4 13.4533,7.33328 3.2534,6.9334 5.7067,12.24 5.7067,12.24 h -25.6933 l 6.5333,-19.57328"
       style="fill:#fabbcd;fill-opacity:1;fill-rule:nonzero;stroke:none;stroke-width:0.133333" />
    <path
       id="path118"
       d="m 2192.6933,1009.72 c 2.2533,0 3.3866,0 4.52,0.013 1.1066,0.013 2.2266,0.013 4.4533,0.013 2.6267,0 4.0267,0.24 5.2533,0.4667 1.04,0.1733 1.8534,0.32 3.72,0.32 2.2534,0 3.4,0.24 4.56,0.5333 0.7067,0.1867 1.3334,0.3467 3.44,0.3467 v 0 c 0.8,0 1.8267,-0.12 2.9067,-0.24 1.5067,-0.1734 3.2,-0.3734 5.08,-0.3734 0.7333,-0.08 1.8133,-0.1866 2.9067,-0.3866 1.5066,-0.2667 3.2133,-0.5867 5.1066,-0.5867 0.013,0 0.013,0 0.027,0 1.2,0 2.4267,-0.027 3.68,-0.053 1.3867,-0.04 2.8133,-0.067 4.2667,-0.067 0.013,0 0.027,0 0.027,0 1.8534,0 3.5334,0.44 5.0134,0.8267 1.12,0.2933 2.1733,0.56 3,0.56 1.3333,0 2.6933,0.053 4.0666,0.093 1.3067,0.053 2.6134,0.093 3.9334,0.093 v 0 c 0.72,0 1.7333,-0.2666 2.8133,-0.56 1.52,-0.4133 3.2533,-0.88 5.2,-0.88 h 0.013 c 1.6934,0 3.3067,0.2667 4.72,0.5067 1.2,0.2 2.32,0.4 3.2934,0.4 v 0 c 0.96,0 2.08,-0.1867 3.2666,-0.4 1.4267,-0.24 3.04,-0.5067 4.7334,-0.5067 1.3066,0.053 2.6533,-0.027 3.96,-0.04 1.36,-0.027 2.7466,-0.027 4.0533,-0.053 h 0.013 c 1.3067,0 2.6134,-0.04 3.8934,-0.093 1.3733,-0.04 2.72,-0.093 4.0666,-0.093 0.013,0 0.013,0 0.027,0 1.8667,0 3.5733,0.3867 5.0667,0.72 1.1066,0.24 2.1466,0.4667 2.9333,0.4667 v 0 c 1.1467,0 2.36,-0.1333 3.64,-0.2933 2.8,-0.3334 5.9333,-0.3334 8.7733,-0.2134 1.24,0.04 2.4267,0.093 3.5867,0.093 1.9467,0 3.6933,0.32 5.2267,0.5866 1.0533,0.2 2.0533,0.3734 2.7733,0.3734 1.8933,0 3.56,-0.067 4.9867,-0.1334 1.16,-0.053 2.16,-0.08 3,-0.08 3.1733,0 5.3733,-0.2133 6.5466,-0.64 2.04,-0.7333 3.2,-2.2 3.5067,-2.8933 -0.08,-0.12 -0.1467,-0.24 -0.2267,-0.36 -0.7733,-1.2933 -2.2133,-3.7067 -1.3066,-7.34665 0.4533,-1.81333 2,-3.16 3.8666,-3.34667 1.16,-0.12 2.36,-0.17333 3.5467,-0.21333 1.52,-0.0667 2.9467,-0.12 4.1067,-0.34667 2.7333,-0.52 5.08,-1.09333 7.1733,-1.73333 0.7867,-0.25333 1.5867,-0.46667 2.3867,-0.69333 1.6933,-0.48 3.2933,-0.93334 4.6133,-1.53334 1.6267,-0.73333 3.2533,-1.81333 4.84,-2.86666 l 1.36,-0.89334 c 0.6133,-0.4 1.28,-1.29333 1.9733,-2.25333 0.76,-1.01333 1.6134,-2.17333 2.7467,-3.2 l 0.72,-0.65333 c 1.64,-1.46667 3.04,-2.74667 4.2133,-4.22667 0.48,-0.58667 0.96,-1.17333 1.44,-1.74667 1.0934,-1.32 2.1334,-2.56 2.8667,-3.85333 0.5733,-1.02667 1.2,-1.94667 1.8133,-2.84 0.8134,-1.18667 1.5734,-2.30667 1.9867,-3.34667 0.3333,-0.85333 0.48,-2.05333 0.64,-3.33333 0.1467,-1.18667 0.3067,-2.54667 0.6667,-3.92 0.32,-1.21333 0.4533,-2.6 0.6,-4.06667 0.12,-1.06666 0.2266,-2.13333 0.3866,-3.2 l 0.1467,-0.92 c 0.3467,-2.18666 0.68,-4.25333 0.84,-6.38666 0.12,-1.58667 0.4933,-3.04 0.8267,-4.33334 0.3066,-1.16 0.6,-2.25333 0.6,-3.12 0,-0.85333 -0.2534,-1.93333 -0.52,-3.09333 -0.32,-1.30667 -0.6667,-2.8 -0.76,-4.42667 l -0.093,-1.89333 c -0.1066,-1.94667 -0.2,-3.8 -0.3866,-5.65333 -0.16,-1.46667 -0.4134,-2.93334 -0.6934,-4.49334 -0.1733,-1 -0.3466,-2 -0.5066,-3.01333 -0.2267,-1.53333 -0.2267,-3.02667 -0.2267,-4.33333 -0.013,-1.22667 -0.013,-2.38667 -0.1867,-3.33334 -0.2266,-1.17333 -0.4,-2.34666 -0.5733,-3.53333 -0.2,-1.42667 -0.4,-2.77333 -0.68,-4.05333 -0.2,-0.86667 -0.6667,-1.88 -1.16,-2.96 -0.5733,-1.25333 -1.2267,-2.66667 -1.64,-4.25333 -0.4267,-1.66667 -0.52,-3.26667 -0.5867,-4.69334 -0.067,-1.14666 -0.12,-2.22666 -0.36,-3.01333 -0.1866,-0.65333 -0.7466,-1.50667 -1.3466,-2.42667 -0.84,-1.26666 -1.8,-2.70666 -2.36,-4.48 -0.4534,-1.4 -0.7334,-2.73333 -1.0134,-4.04 -0.28,-1.24 -0.5333,-2.4 -0.88,-3.42666 -0.6133,-1.74667 -0.76,-3.44 -0.9066,-4.93334 -0.093,-1.09333 -0.2,-2.12 -0.44,-2.77333 -0.36,-0.97333 -0.96,-1.98667 -1.5734,-3.06667 -0.6933,-1.2 -1.4133,-2.42666 -1.9733,-3.84 -0.3733,-0.89333 -1,-1.85333 -1.6667,-2.86666 -0.7466,-1.12 -1.5866,-2.4 -2.2133,-3.84 -0.7467,-1.72 -1.0533,-3.4 -1.3333,-4.88 -0.1867,-1.05334 -0.3734,-2.05334 -0.6534,-2.66667 -0.44,-0.94667 -1.16,-1.89333 -1.9066,-2.89333 -0.8134,-1.09334 -1.6667,-2.21334 -2.3334,-3.54667 -0.56,-1.09333 -1.16,-2.12 -1.7333,-3.13333 -0.76,-1.32 -1.5467,-2.68 -2.2,-4.09334 -0.8667,-1.84 -1.3067,-3.64 -1.7067,-5.22666 -0.2533,-1.01334 -0.4933,-1.98667 -0.7866,-2.70667 -0.8,-1.97333 -1.1067,-3.84 -1.3734,-5.49333 -0.1733,-1 -0.32,-1.93334 -0.56,-2.66667 -0.24,-0.76 -0.76,-1.65333 -1.32,-2.58667 -0.8533,-1.44 -1.8266,-3.09333 -2.2933,-5.12 -0.2133,-0.96 -0.5067,-1.90666 -0.7867,-2.86666 -0.4933,-1.65334 -1,-3.38667 -1.2933,-5.28 -0.28,-1.85334 -0.093,-3.6 0.067,-5.16 0.12,-1.16 0.2266,-2.25334 0.1333,-3.16 l -0.32,-2.66667 c -0.2,-1.69333 -0.4133,-3.48 -0.6133,-5.34667 -0.16,-1.44 -0.1334,-2.86666 -0.12,-4.22666 0.027,-1.33334 0.04,-2.6 -0.093,-3.8 -0.093,-0.74667 -0.44,-1.74667 -0.8,-2.8 -0.5066,-1.45334 -1.0666,-3.09334 -1.32,-4.98667 -0.16,-1.21333 -0.2533,-2.48 -0.3466,-3.77333 -0.1067,-1.37333 -0.2134,-2.78667 -0.4267,-4.17333 -0.2,-1.45334 -0.24,-2.88 -0.2667,-4.24 -0.04,-1.33334 -0.067,-2.58667 -0.2533,-3.76 -0.4,-2.49334 -0.8533,-5.13334 -1.3333,-7.88 -0.1467,-0.84 -0.5334,-1.86667 -0.9467,-2.96 -0.52,-1.38667 -1.12,-2.96 -1.4533,-4.73334 -0.3067,-1.64 -0.2934,-3.25333 -0.2934,-4.68 0.013,-1.24 0.013,-2.41333 -0.1733,-3.38666 -0.2,-0.98667 -0.5733,-2.09334 -0.96,-3.26667 -0.4533,-1.32 -0.96,-2.82667 -1.2933,-4.45333 -0.28,-1.32 -0.6,-2.66667 -0.92,-4.04 -0.2934,-1.22667 -0.5867,-2.48 -0.8667,-3.76 -0.1867,-0.89334 -0.6133,-1.93334 -1.0533,-3.02667 -0.5467,-1.36 -1.16,-2.89333 -1.5467,-4.58667 -0.3733,-1.66666 -0.4667,-3.26666 -0.56,-4.69333 -0.067,-1.17333 -0.1333,-2.28 -0.3333,-3.16 -0.24,-0.97333 -0.7067,-2.02667 -1.2134,-3.14667 -0.56,-1.25333 -1.1866,-2.66666 -1.6,-4.22666 -0.4933,-1.89334 -0.4533,-3.68 -0.44,-5.25334 0.027,-1.06666 0.04,-2.08 -0.1333,-2.69333 -0.3333,-1.17333 -0.8,-2.36 -1.3067,-3.6 -0.48,-1.2 -0.9733,-2.45333 -1.3733,-3.77333 -0.3067,-1.01334 -0.84,-2.08 -1.4,-3.2 -0.6267,-1.24 -1.2667,-2.53334 -1.7467,-3.98667 -0.6266,-1.92 -0.6666,-3.74667 -0.7066,-5.36 -0.013,-1 -0.04,-2.04 -0.2267,-2.57333 -0.36,-0.97334 -0.96,-2 -1.5867,-3.09334 -0.7066,-1.21333 -1.4266,-2.45333 -1.9866,-3.88 -0.52,-1.34666 -1.1334,-2.62666 -1.7867,-3.98666 -0.4933,-1.04 -0.9867,-2.05334 -1.4267,-3.06667 -1.0666,-2.49333 -2.1333,-4.86667 -3.1733,-7.05333 -0.5733,-1.22667 -1.3067,-2.38667 -2.0667,-3.61334 -0.64,-1.01333 -1.2666,-2.01333 -1.8,-3.02666 -0.7733,-1.44 -1.3066,-2.86667 -1.7733,-4.13333 -0.4133,-1.12 -0.8133,-2.18667 -1.2667,-2.93334 -0.8533,-1.41333 -1.8533,-2.73333 -2.8266,-4 -0.56,-0.74666 -1.0934,-1.45333 -1.6,-2.16 -0.9334,-1.32 -2.0267,-2.46666 -3.08,-3.58666 -0.6534,-0.68 -1.28,-1.34667 -1.8534,-2.01334 -1.3333,-1.54666 -2.1866,-3.18666 -2.88,-4.50666 -0.36,-0.68 -0.8533,-1.6 -1.0933,-1.85334 -0.6933,-0.6 -0.88,-0.6 -1.6533,-0.6 -4.7467,-0.0133 -6.1867,-3.17333 -6.56,-5.82666 -0.2267,-1.61334 0.44,-3.21334 1.7466,-4.18667 1.2667,-0.94667 2.4,-1.85333 3.5467,-2.77333 0.72,-0.58667 1.4533,-1.17334 2.2267,-1.77334 0.7733,-0.6 1.5333,-1.45333 2.3333,-2.36 0.88,-1 1.8933,-2.13333 3.1067,-3.13333 1.32,-1.08 2.72,-1.84 3.96,-2.52 1.0133,-0.54667 1.96,-1.06667 2.5733,-1.6 1.1467,-0.98667 2.2933,-1.77333 3.4,-2.54667 1.04,-0.70666 2.0133,-1.38666 2.7733,-2.08 0.6,-0.56 1.2,-1.46666 1.84,-2.42666 0.7867,-1.17334 1.6667,-2.52 2.8934,-3.70667 l 1.7466,-1.66667 c 1.2667,-1.22666 2.5334,-2.42666 3.7334,-3.66666 1.24,-1.26667 2.6,-2.17334 3.8133,-2.97334 0.9333,-0.61333 1.8133,-1.18666 2.32,-1.74666 0.9067,-1 1.76,-2.09334 2.6667,-3.25334 0.72,-0.92 1.4266,-1.82666 2.1733,-2.69333 0.8267,-0.98667 1.6,-2.09333 2.4267,-3.25333 0.6933,-0.98667 1.3866,-1.96 2.12,-2.89334 0.6933,-0.88 1.32,-1.94666 1.9733,-3.06666 0.64,-1.10667 1.3067,-2.25334 2.1333,-3.37334 0.6667,-0.90666 1.24,-2 1.8534,-3.14666 0.6,-1.12 1.2133,-2.26667 1.9866,-3.41334 1.2267,-1.82666 2.3734,-3.70666 3.48,-5.53333 l 0.5334,-0.85333 c 0.84,-1.4 1.8533,-2.54667 2.7333,-3.57334 0.76,-0.88 1.48,-1.72 1.9067,-2.48 0.4666,-0.85333 0.8133,-1.96 1.1866,-3.13333 0.3867,-1.22667 0.8134,-2.62667 1.48,-3.98667 0.7867,-1.58666 1.8,-2.85333 2.7067,-3.97333 0.6933,-0.85333 1.3467,-1.68 1.6267,-2.33333 0.4666,-1.06667 0.8,-2.29334 1.1466,-3.58667 0.32,-1.18667 0.6534,-2.4 1.12,-3.64 0.3467,-0.96 0.7334,-1.89333 1.1067,-2.82666 0.5867,-1.46667 1.16,-2.86667 1.5733,-4.21334 0.8267,-2.58666 1.5067,-4.96 2.08,-7.22666 0.28,-1.09334 0.3867,-2.32 0.4934,-3.64 0.1066,-1.22667 0.2133,-2.50667 0.4666,-3.82667 0.3467,-1.73333 0.9867,-3.22667 1.56,-4.54667 0.44,-1 0.8534,-1.96 0.9467,-2.64 0.2533,-1.89333 0.3733,-3.82666 0.5067,-5.69333 l 0.12,-1.8 c 0.08,-1.04 0.1733,-2.06667 0.28,-3.08 0.16,-1.58667 0.3066,-3.08 0.32,-4.42667 0.013,-1.33333 -0.1734,-2.69333 -0.3734,-4.14666 -0.1466,-1.14667 -0.2933,-2.25334 -0.36,-3.33334 -0.093,-1.49333 -0.3866,-2.97333 -0.68,-4.4 -0.2,-1.02666 -0.3866,-2.01333 -0.52,-2.94666 -0.2133,-1.58667 -0.92,-2.73334 -2.1466,-3.52 -1.3467,-0.84 -2.72,-1.04 -4.08,-0.58667 -1.6667,0.57333 -3.2934,0.77333 -4.7467,0.94667 -1.1333,0.13333 -2.2133,0.26666 -2.9733,0.54666 -0.5334,0.2 -1.3334,0.86667 -2.1067,1.53334 -1.2267,1.04 -2.6267,2.22666 -4.48,2.96 -1.84,0.72 -3.6267,0.86666 -5.2133,0.98666 -1.0134,0.08 -2.0534,0.16 -2.6,0.4 -0.7334,0.30667 -1.5867,0.97334 -2.4934,1.66667 -1.16,0.89333 -2.4666,1.90667 -4.0666,2.64 -1.1467,0.52 -2.3067,0.98667 -3.4534,1.45333 -1.3066,0.52 -2.5333,1.01334 -3.6666,1.57334 -0.8934,0.42666 -1.8267,1.12 -2.8134,1.85333 -1.08,0.78667 -2.2933,1.68 -3.68,2.41333 -1.2133,0.64 -2.4,1.17334 -3.56,1.68 -1.2266,0.53334 -2.3866,1.05334 -3.4133,1.62667 -1.52,0.86667 -3.08,1.36 -4.4533,1.8 -1.0934,0.34667 -2.12,0.68 -2.8,1.09333 -0.72,0.42667 -1.4934,1.21334 -2.3067,2.04 -1.0133,1.01334 -2.1467,2.16 -3.5867,3.09334 -1.2666,0.82666 -2.52,1.45333 -3.7466,2.05333 -1.12,0.56 -2.1867,1.09333 -3.0267,1.68 -1,0.69333 -1.96,1.53333 -2.9867,2.42667 -0.9333,0.82666 -1.9066,1.66666 -2.9733,2.46666 -0.92,0.69334 -1.8533,1.33334 -2.7733,1.98667 -1.24,0.86667 -2.4,1.68 -3.48,2.53333 -0.7734,0.62667 -1.5467,1.52 -2.36,2.45334 -0.8534,0.98666 -1.8267,2.12 -3,3.12 -1.1734,1 -2.4134,1.82666 -3.52,2.53333 -1.0267,0.68 -2,1.32 -2.7334,1.98667 -1.1333,1.05333 -2.36,1.92 -3.4266,2.68 -1.0134,0.70666 -1.9734,1.38666 -2.68,2.08 -0.5067,0.50666 -1.0134,1.44 -1.5334,2.42666 -0.7066,1.30667 -1.5066,2.8 -2.76,4.12 -1.2,1.29333 -2.5466,2.21333 -3.7466,3.04 -0.92,0.64 -1.8,1.25333 -2.3067,1.82667 -0.76,0.86666 -1.5467,1.70666 -2.32,2.54666 -1.0267,1.09334 -1.9867,2.13334 -2.84,3.18667 -0.44,0.54667 -0.84,1.53333 -1.24,2.57333 -0.5467,1.38667 -1.1733,2.96 -2.2667,4.41334 -1.0266,1.38666 -2.2266,2.46666 -3.2933,3.42666 -0.84,0.76 -1.64,1.49334 -2.0933,2.14667 -1.5734,2.28 -2.9734,4.32 -4.28,6.38667 -0.6934,1.09333 -1.44,2.13333 -2.1734,3.16 -0.8133,1.12 -1.5733,2.17333 -2.1733,3.21333 -0.6933,1.18667 -1.28,2.46667 -1.92,3.81333 -0.4933,1.05334 -0.9733,2.09334 -1.4933,3.08 -0.6534,1.24 -1.3467,2.36 -2.0267,3.44 -0.72,1.14667 -1.3867,2.21334 -1.8667,3.22667 -0.5466,1.16 -0.9733,2.41333 -1.4133,3.76 -0.3733,1.13333 -0.7733,2.30667 -1.2533,3.46667 -0.5067,1.17333 -0.8534,2.44 -1.2267,3.78666 -0.3067,1.16 -0.64,2.34667 -1.08,3.53334 -0.44,1.2 -0.92,2.33333 -1.3867,3.42666 -0.5466,1.32 -1.0666,2.56 -1.4266,3.68 -0.4534,1.44 -0.7067,2.89334 -0.9467,4.30667 -0.1867,1.12 -0.3733,2.17333 -0.6267,3.13333 -0.32,1.25334 -0.24,1.93334 -0.1466,2.78667 0.28,2.29333 0.28,4.96 -3.1867,7.65333 -4.12,3.21334 -7.4933,1.05334 -8.76,0.24 -0.8,-0.50666 -1.12,-0.70666 -2.0267,-0.68 -0.3733,0.0133 -1.3733,0.38667 -2.1066,0.65334 -1.4267,0.52 -3.2,1.17333 -5.2667,1.37333 -1.4667,0.14667 -2.84,0.0267 -4.1733,-0.0933 -1.24,-0.10667 -2.4134,-0.2 -3.4,-0.0533 -0.64,0.10667 -1.56,0.54667 -2.5467,1 -1.32,0.61334 -2.8133,1.32 -4.5733,1.72 -1.6267,0.36 -3.2,0.34667 -4.5734,0.33334 -1.16,-0.0133 -2.2533,-0.0267 -3.0266,0.2 -1.16,0.33333 -2.4134,0.86666 -3.7334,1.41333 -1.0666,0.45333 -2.16,0.92 -3.2933,1.32 -0.9733,0.34667 -2.04,0.94667 -3.1733,1.57333 -1.1067,0.61334 -2.24,1.25334 -3.5334,1.81334 l -0.4533,0.18666 c -2.0933,0.90667 -4.2533,1.84 -6.3467,2.90667 -0.8533,0.44 -1.7333,0.85333 -2.6133,1.26667 -1.44,0.66666 -2.8,1.30666 -4.08,2.06666 -0.6,0.36 -1.2,0.70667 -1.8133,1.06667 -1.6,0.93333 -3.12,1.81333 -4.5734,2.82667 -0.8933,0.61333 -1.8,1.46666 -2.7466,2.38666 -0.8934,0.84 -1.8134,1.72 -2.8667,2.56 -1.3733,1.08 -2.8533,1.74667 -4.16,2.34667 -1.0267,0.45333 -2,0.89333 -2.52,1.37333 -0.4,0.36 -0.88,1.28 -1.3467,2.16 -0.7066,1.36 -1.52,2.90667 -2.84,4.28 -1.1333,1.17334 -2.4266,2.04 -3.5466,2.81334 -0.9734,0.65333 -1.88,1.26666 -2.4134,1.87999 -0.8266,0.98667 -1.6133,2.14667 -2.4533,3.38667 -0.6267,0.92 -1.2533,1.84 -1.9333,2.74667 -0.9334,1.25333 -2.0267,2.28 -2.9867,3.17333 -0.8933,0.84 -1.7333,1.62667 -2.24,2.38667 -0.3333,0.50666 -0.6,1.53333 -0.8667,2.53333 -0.4,1.45333 -0.84,3.10667 -1.7733,4.70667 -0.6933,1.18666 -1.4533,2.22666 -2.1867,3.22666 -0.7733,1.06667 -1.5066,2.08 -2.0266,3.08 -0.64,1.26667 -1.4134,2.38667 -2.1467,3.46667 -0.72,1.06667 -1.4,2.06667 -1.84,3.04 -0.2667,0.58667 -0.4,1.61333 -0.5333,2.68 -0.1867,1.48 -0.4,3.16 -1.08,4.86667 -0.4267,1.09333 -0.92,2.17333 -1.4134,3.24 -0.6,1.29333 -1.16,2.52 -1.5866,3.73333 -0.44,1.29333 -0.9734,2.46667 -1.4934,3.61333 -0.5466,1.21334 -1.0666,2.36 -1.3866,3.46667 -0.32,1.05333 -0.68,2.12 -1.0534,3.18667 -0.48,1.41333 -0.9333,2.76 -1.28,4.09333 -0.28,1.06667 -0.4266,2.29333 -0.6,3.58667 -0.16,1.28 -0.3333,2.6 -0.64,3.98666 -0.2666,1.26667 -0.6133,2.42667 -0.9466,3.54667 -0.36,1.22667 -0.7067,2.38667 -0.9334,3.58667 -0.1066,0.58666 -0.32,1.14666 -0.6533,1.64 -1.4667,2.22666 -2.4533,3 -3.6,3.77333 -0.52,0.34667 -1,0.68 -2.08,1.92 -0.68,0.76 -1.4267,2 -2.2267,3.29333 -0.5066,0.84 -1.04,1.70667 -1.6133,2.57334 -1.1733,1.77333 -2.2933,4.01333 -3.3333,6.14666 -0.4267,0.88 -0.72,2.04 -1.0667,3.38667 -0.28,1.08 -0.5733,2.18667 -0.9467,3.29333 -0.36,1.05334 -0.7866,2.02667 -1.2133,2.97334 -0.5467,1.25333 -1.0667,2.42666 -1.3067,3.57333 -0.2133,1.02667 -0.24,2.29333 -0.2666,3.64 -0.027,1.12 -0.053,2.25333 -0.1467,3.4 -0.1333,1.38667 -0.4667,2.68 -0.7733,3.84 -0.3067,1.17333 -0.5867,2.29333 -0.5734,3.2 0,0.81333 0.28,1.88 0.5734,3.02667 0.3066,1.2 0.6533,2.56 0.8133,4.04 0.1733,1.62666 0.64,3.25333 1.12,4.97333 0.2267,0.81333 0.4667,1.62666 0.6667,2.44 0.24,0.98666 0.44,1.94666 0.64,2.90666 0.3466,1.65334 0.6666,3.21334 1.1866,4.54667 l 0.2534,0.64 c 0.9066,2.32 1.76,4.50667 2.8133,6.48 0.76,1.41333 1.2667,2.86667 1.7067,4.16 0.44,1.25333 0.84,2.44 1.36,3.2 0.44,0.65333 1.4,1.34667 2.4,2.08 1.2,0.88 2.56,1.86667 3.6933,3.22667 1.1333,1.36 1.92,2.81333 2.6267,4.09333 0.6,1.08 1.16,2.10667 1.72,2.66667 1.1866,1.21333 2.56,2.30666 3.88,3.37333 0.7733,0.62667 1.52,1.22667 2.2133,1.82667 2.08,1.8 4.1733,3.48 6.24,5 1.0533,0.77333 1.5733,0.89333 2.36,1.04 2.0267,0.42666 4.3333,1.17333 6.16,4.86666 1.64,3.32 1.3467,5.33334 0.2667,7.72 -0.3067,0.69334 -0.5867,1.30667 -0.7334,2.66667 -0.067,0.61333 -0.1466,1.26667 -0.24,1.93333 -0.2,1.72 -0.44,3.66667 -0.5733,5.74667 -0.08,1.25333 -0.28,2.49333 -0.4667,3.68 -0.2266,1.4 -0.44,2.73333 -0.4533,4.04 -0.027,1.36 0.053,2.82667 0.1333,4.38667 0.053,1.10666 0.12,2.22666 0.1467,3.37333 0.027,1.17333 0.2133,2.46667 0.4,3.84 0.1733,1.26667 0.3467,2.56 0.44,3.88 l 0.12,1.77333 c 0.12,1.94667 0.2533,3.94667 0.4933,5.93334 0.1867,1.58666 0.093,3.12 0,4.48 -0.067,1.24 -0.1466,2.4 0.013,3.33333 0.4533,2.73333 0.9466,5.30667 1.4666,7.64 l 0.32,1.46667 c 0.44,2.02666 0.8934,4.10666 1.44,6.09333 0.1867,0.66667 0.7734,1.56 1.3867,2.52 0.8,1.25333 1.72,2.68 2.3067,4.4 0.52,1.50666 0.76,3 0.9733,4.32 0.1867,1.22666 0.3733,2.38666 0.7333,3.25333 0.8934,2.16 1.9067,4.48 3.1334,7.06667 0.44,0.94666 1.1333,1.94666 1.8666,3 0.7734,1.12 1.56,2.26666 2.2667,3.6 0.52,1.01333 1.24,2.02666 2.0133,3.12 0.7467,1.05333 1.52,2.14666 2.2267,3.38666 0.6667,1.17334 1.24,2.34667 1.7867,3.48 0.5866,1.24 1.1466,2.4 1.7733,3.42667 0.6933,1.12 1.4933,2.21333 2.3333,3.36 0.72,1 1.4534,2 2.12,3.02667 1.0667,1.64 1.5867,3.34666 2.0534,4.86666 0.2933,0.98667 0.6133,2.01334 0.9733,2.52 0.48,0.69334 1.3067,1.42667 2.1867,2.2 1.0933,0.96 2.32,2.05334 3.3466,3.46667 0.68,0.93333 1.52,1.84 2.4,2.78667 0.92,0.97333 1.8667,2 2.7467,3.16 1.0533,1.4 1.8,2.86666 2.4533,4.16 0.52,1.02666 1.0134,2 1.5334,2.66666 1.0133,1.30667 2.0266,2.57334 3,3.78667 0.6533,0.81333 1.2933,1.6 1.9066,2.37333 0.7467,0.96 1.6267,1.82667 2.56,2.76 0.96,0.96 1.96,1.94667 2.84,3.06667 1.2134,1.53333 2.24,3.01333 3.16,4.33333 0.5467,0.77334 1.0534,1.52 1.56,2.18667 4.1334,5.53333 4.9467,7.69333 4.9467,9.57333 0,3.48 -1.6667,5.68 -2.8933,7.29334 -0.52,0.69333 -0.9734,1.29333 -1.2134,1.88 -0.5466,1.33331 -0.6133,4.21331 -0.6133,6.86671 0,1.9333 1.36,2.9066 2.5067,3.4 1.72,0.72 1.9733,0.68 3.6266,0.48 0.96,-0.12 2.1334,-0.2667 3.7867,-0.3067 1.72,-0.053 2.7733,-0.1067 3.68,-0.1467 1.48,-0.067 2.6,-0.12 5.4267,-0.12 z m 25.9466,10.5867 c 0,0 0,0 -0.013,0 -2.9733,0 -4.3067,-0.28 -5.6267,-0.6267 -0.64,-0.16 -1.04,-0.2533 -2.36,-0.2533 -2.6266,0 -4.0266,-0.2533 -5.2533,-0.4667 -1.04,-0.1733 -1.8667,-0.32 -3.72,-0.32 -2.2533,0 -3.3867,-0.013 -4.52,-0.013 -1.1067,-0.013 -2.2267,-0.013 -4.4533,-0.013 -2.6,0 -3.64,0.04 -5,0.1066 -0.9467,0.053 -2.0534,0.093 -3.8667,0.1467 -1.2133,0.04 -2.0933,0.1467 -2.9333,0.2533 -2.5867,0.32 -4.5467,0.4134 -8.1734,-1.12 -4.8933,-2.0666 -7.9466,-6.5066 -7.9466,-11.5866 0,-4.3734 0.2133,-7.61335 1.28,-10.22668 0.68,-1.66667 1.6,-2.89334 2.36,-3.88 0.6266,-0.84 0.9066,-1.24 1.0133,-1.56 -0.2933,-0.57334 -1.08,-1.90667 -3.1067,-4.61334 -0.56,-0.76 -1.1333,-1.58666 -1.7466,-2.45333 -0.88,-1.26667 -1.7734,-2.57333 -2.8267,-3.89333 -0.56,-0.70667 -1.32,-1.46667 -2.1467,-2.28 -1.0133,-1.01334 -2.1733,-2.17334 -3.2533,-3.53334 -0.6,-0.76 -1.2267,-1.53333 -1.8533,-2.32 -1.0134,-1.26666 -2.0534,-2.56 -3.1067,-3.90666 -1.04,-1.34667 -1.7867,-2.81334 -2.44,-4.10667 -0.5333,-1.05333 -1.04,-2.05333 -1.6267,-2.82667 -0.5866,-0.78666 -1.3333,-1.58666 -2.1333,-2.44 -0.9867,-1.05333 -2.1067,-2.25333 -3.1067,-3.62666 -0.44,-0.62667 -1.2133,-1.30667 -2.0266,-2.02667 -1.1867,-1.04 -2.52,-2.21333 -3.6267,-3.81333 -1.1467,-1.65334 -1.68,-3.42667 -2.16,-4.98667 -0.3067,-1.04 -0.6133,-2.01333 -0.9867,-2.57333 -0.5866,-0.90667 -1.2266,-1.78667 -1.8666,-2.68 -0.9067,-1.24 -1.84,-2.52 -2.7067,-3.92 -0.88,-1.42667 -1.56,-2.85334 -2.2267,-4.22667 -0.48,-0.98667 -0.9466,-1.98667 -1.4933,-2.93333 -0.4933,-0.86667 -1.12,-1.74667 -1.7733,-2.68 -0.8934,-1.28 -1.8267,-2.6 -2.6267,-4.12 -0.44,-0.84 -1.0533,-1.72 -1.6933,-2.65334 -0.8667,-1.25333 -1.8534,-2.66666 -2.6134,-4.28 -1.28,-2.73333 -2.36,-5.17333 -3.3066,-7.48 -0.7467,-1.81333 -1.04,-3.62666 -1.2934,-5.21333 -0.1733,-1.06667 -0.3333,-2.08 -0.6,-2.85333 -0.2266,-0.70667 -0.7866,-1.56 -1.3733,-2.46667 -0.8933,-1.4 -1.92,-2.98666 -2.4667,-4.94666 -0.6133,-2.22667 -1.1066,-4.45334 -1.56,-6.58667 l -0.32,-1.45333 c -0.56,-2.50667 -1.0666,-5.14667 -1.5466,-8.06667 -0.3334,-1.93333 -0.2134,-3.76 -0.12,-5.36 0.067,-1.08 0.1333,-2.10667 0.04,-2.90667 -0.2667,-2.2 -0.4,-4.32 -0.5334,-6.37333 l -0.12,-1.73333 c -0.08,-1.12 -0.24,-2.22667 -0.3866,-3.30667 -0.2134,-1.54667 -0.4267,-3.14667 -0.4667,-4.81333 -0.027,-1.05334 -0.093,-2.10667 -0.1467,-3.12 -0.08,-1.65334 -0.1733,-3.36 -0.1466,-5.02667 0.04,-1.93333 0.32,-3.70667 0.56,-5.26667 0.1733,-1.04 0.3333,-2.01333 0.3866,-2.85333 0.1467,-2.34667 0.4,-4.44 0.6267,-6.28 l 0.2133,-1.82667 c 0.3067,-2.68 1,-4.28 1.44,-5.25333 -0.027,-0.0667 -0.053,-0.13333 -0.093,-0.2 -0.027,-0.04 -0.04,-0.08 -0.053,-0.12 -1.2134,-0.24 -3.2,-0.68 -5.7867,-2.58667 -2.2533,-1.65333 -4.52,-3.48 -6.7733,-5.41333 -0.6267,-0.54667 -1.2934,-1.08 -1.9734,-1.64 -1.44,-1.16 -3.08,-2.48 -4.6266,-4.04 -1.4267,-1.45333 -2.36,-3.14667 -3.1867,-4.64 -0.56,-1.02667 -1.0933,-1.98667 -1.68,-2.68 -0.4267,-0.52 -1.24,-1.12 -2.0933,-1.74667 -1.4934,-1.09333 -3.1867,-2.33333 -4.4934,-4.24 -1.2,-1.74666 -1.8533,-3.65333 -2.4266,-5.32 -0.36,-1.06666 -0.7067,-2.06666 -1.1334,-2.85333 -1.3066,-2.44 -2.3066,-4.97333 -3.2666,-7.44 l -0.2534,-0.62667 c -0.8,-2.05333 -1.2133,-4.05333 -1.6133,-6 -0.1733,-0.84 -0.3467,-1.69333 -0.56,-2.54666 -0.1733,-0.73334 -0.3867,-1.46667 -0.5867,-2.18667 -0.5733,-2 -1.1466,-4.06666 -1.4,-6.42666 -0.093,-0.85334 -0.3466,-1.8 -0.6,-2.8 -0.3866,-1.52 -0.8266,-3.24 -0.8533,-5.10667 -0.027,-2.10667 0.4533,-3.93333 0.8667,-5.54667 0.2266,-0.90666 0.4533,-1.76 0.52,-2.42666 0.08,-0.93334 0.093,-1.85334 0.1066,-2.76 0.04,-1.69334 0.08,-3.45334 0.4534,-5.28 0.44,-2.06667 1.2,-3.81334 1.8933,-5.36 0.3333,-0.74667 0.6533,-1.48 0.9067,-2.22667 0.3066,-0.89333 0.5333,-1.78667 0.76,-2.66667 0.4266,-1.65333 0.8666,-3.37333 1.6933,-5.05333 1.1733,-2.41333 2.44,-4.93333 3.9067,-7.16 0.5066,-0.77333 0.9866,-1.54667 1.44,-2.29333 1,-1.64 1.9466,-3.2 3.1333,-4.54667 1.6933,-1.92 2.7867,-2.73333 3.7733,-3.38667 0.3067,-0.21333 0.4534,-0.30666 0.6934,-0.64 0.28,-1.26666 0.6266,-2.42666 0.96,-3.54666 0.28,-0.94667 0.5733,-1.90667 0.7866,-2.90667 0.2134,-1.01333 0.36,-2.08 0.5067,-3.22667 0.1867,-1.50666 0.4,-3.06666 0.8,-4.65333 0.4267,-1.68 0.9733,-3.25333 1.48,-4.77333 0.3333,-0.94667 0.6533,-1.90667 0.9467,-2.85334 0.4933,-1.68 1.2,-3.22666 1.8133,-4.58666 0.4533,-1 0.88,-1.94667 1.1867,-2.82667 0.56,-1.65333 1.2533,-3.14667 1.92,-4.58667 0.4266,-0.92 0.8533,-1.82666 1.2133,-2.76 0.2667,-0.68 0.4,-1.68 0.5333,-2.73333 0.2,-1.6 0.4267,-3.4 1.24,-5.2 0.7467,-1.68 1.7334,-3.13333 2.6,-4.4 0.6134,-0.89333 1.1867,-1.73333 1.5867,-2.52 0.8267,-1.62667 1.8533,-3.02667 2.76,-4.26667 0.6267,-0.85333 1.2133,-1.66666 1.6667,-2.44 0.3466,-0.6 0.6,-1.56 0.88,-2.57333 0.4266,-1.6 0.92,-3.4 2.04,-5.10667 1.08,-1.62666 2.4,-2.86666 3.5733,-3.97333 0.76,-0.72 1.48,-1.4 1.9467,-2.01333 0.6,-0.8 1.1466,-1.61333 1.6933,-2.42667 0.9333,-1.36 1.8933,-2.78666 3.04,-4.13333 1.32,-1.54667 2.8533,-2.58667 4.2,-3.49333 0.84,-0.57334 1.64,-1.12 2.1333,-1.62667 0.44,-0.46667 0.8934,-1.32 1.3734,-2.22667 0.7866,-1.50666 1.6666,-3.2 3.24,-4.62666 1.56,-1.41334 3.3066,-2.2 4.84,-2.89334 0.92,-0.41333 1.7866,-0.81333 2.28,-1.2 0.7466,-0.6 1.48,-1.29333 2.2666,-2.04 1.16,-1.10666 2.36,-2.25333 3.84,-3.26666 1.7334,-1.2 3.4667,-2.21334 5.1467,-3.18667 0.5867,-0.34667 1.16,-0.68 1.7333,-1.02667 1.64,-0.97333 3.2667,-1.73333 4.84,-2.48 0.8,-0.37333 1.5867,-0.74666 2.36,-1.13333 2.3467,-1.2 4.64,-2.18667 6.8667,-3.14667 l 0.4533,-0.2 c 0.88,-0.37333 1.7867,-0.88 2.7334,-1.41333 1.4,-0.77333 2.84,-1.57333 4.4933,-2.16 0.9733,-0.34667 1.9067,-0.74667 2.84,-1.14667 1.4933,-0.62666 3.0533,-1.28 4.7067,-1.76 2.0266,-0.58666 3.9066,-0.57333 5.5866,-0.56 0.9867,0.0133 1.92,0.0267 2.5467,-0.12 0.8133,-0.18666 1.76,-0.62666 2.7467,-1.09333 1.4266,-0.65333 3.0266,-1.41333 4.8933,-1.72 2.08,-0.33333 4.04,-0.16 5.6133,-0.0267 0.96,0.0933 1.8667,0.17334 2.5067,0.10667 0.9333,-0.0933 1.9867,-0.48 3.0933,-0.88 1.44,-0.53333 3.0667,-1.13333 4.8667,-1.18667 2.2933,-0.0933 4.0267,0.45334 5.3067,1.05334 -0.04,-1.13334 0.04,-2.58667 0.4933,-4.4 0.2,-0.73334 0.3333,-1.54667 0.48,-2.41334 0.28,-1.62666 0.6,-3.48 1.24,-5.49333 0.48,-1.49333 1.0933,-2.98667 1.7067,-4.41333 0.4133,-1 0.84,-2.01334 1.24,-3.09334 0.3066,-0.82666 0.5733,-1.77333 0.8533,-2.78666 0.4,-1.49334 0.8667,-3.18667 1.6,-4.90667 0.3733,-0.89333 0.68,-1.84 1.0133,-2.81333 0.48,-1.45334 1.0267,-3.12 1.8134,-4.76 0.6933,-1.46667 1.5333,-2.81334 2.3466,-4.12 0.6267,-0.98667 1.2,-1.92 1.7067,-2.86667 0.4533,-0.86667 0.88,-1.77333 1.3067,-2.70667 0.68,-1.45333 1.3866,-2.97333 2.28,-4.50666 0.8133,-1.41334 1.7466,-2.70667 2.6533,-3.96 0.64,-0.88 1.28,-1.77334 1.8667,-2.70667 1.4,-2.2 2.8533,-4.32 4.4666,-6.68 1.0534,-1.52 2.3467,-2.68 3.48,-3.70667 0.8267,-0.74666 1.6134,-1.45333 2.12,-2.13333 0.3867,-0.50667 0.7334,-1.41333 1.12,-2.37333 0.6,-1.53334 1.2934,-3.28 2.5867,-4.89334 1.0533,-1.29333 2.1733,-2.50666 3.2667,-3.66666 0.7066,-0.76 1.4133,-1.52 2.1066,-2.32 1.24,-1.41334 2.6934,-2.41334 3.9734,-3.30667 0.8933,-0.61333 1.7466,-1.21333 2.3066,-1.8 0.4534,-0.48 0.92,-1.34666 1.4134,-2.25333 0.7733,-1.45333 1.6533,-3.09333 3.1066,-4.53333 1.2267,-1.21334 2.5334,-2.13334 3.8,-3.02667 0.9467,-0.66667 1.8267,-1.28 2.5467,-1.94667 1.2667,-1.16 2.6533,-2.08 3.88,-2.88 0.96,-0.62666 1.8533,-1.21333 2.6,-1.85333 0.6667,-0.57333 1.3467,-1.36 2.08,-2.2 0.9867,-1.13333 2.1067,-2.42667 3.52,-3.56 1.2933,-1.04 2.64,-1.97333 3.92,-2.88 0.8533,-0.6 1.7067,-1.2 2.56,-1.82667 0.7867,-0.6 1.6,-1.29333 2.44,-2.04 1.16,-1.01333 2.36,-2.05333 3.76,-3.02666 1.3867,-0.97334 2.7867,-1.66667 4.16,-2.34667 1.04,-0.50667 2.0133,-1 2.8533,-1.54667 0.64,-0.41333 1.36,-1.13333 2.1067,-1.90666 1.12,-1.10667 2.3733,-2.37334 4.0133,-3.37334 1.5867,-0.96 3.2534,-1.49333 4.7067,-1.96 1.0667,-0.34666 2.0667,-0.65333 2.7867,-1.06666 1.4133,-0.8 2.8266,-1.42667 4.2,-2.02667 1,-0.44 2.0266,-0.89333 3.0133,-1.41333 0.7867,-0.41334 1.6267,-1.04 2.5333,-1.70667 1.2,-0.88 2.56,-1.89333 4.1734,-2.68 1.44,-0.70667 2.88,-1.28 4.28,-1.84 1.0266,-0.41333 2.0533,-0.81333 3.0666,-1.28 0.6667,-0.30667 1.4667,-0.93333 2.32,-1.58667 1.2534,-0.97333 2.6667,-2.06666 4.4667,-2.82666 1.8667,-0.8 3.72,-0.94667 5.36,-1.08 1.0533,-0.08 2.0533,-0.16 2.6533,-0.4 0.4934,-0.18667 1.2667,-0.84 2,-1.46667 1.24,-1.05333 2.7867,-2.36 4.8,-3.09333 1.72,-0.62667 3.44,-0.84 4.96,-1.02667 1.1067,-0.13333 2.16,-0.26667 2.96,-0.53333 3.9067,-1.32 8.0534,-0.8 11.68,1.49333 3.44,2.16 5.64,5.65333 6.2134,9.82667 0.093,0.77333 0.2666,1.56 0.4266,2.4 0.3334,1.64 0.7067,3.50666 0.8267,5.61333 0.053,0.86667 0.1867,1.74667 0.3067,2.66667 0.2133,1.61333 0.4666,3.44 0.4533,5.42666 -0.013,1.74667 -0.2,3.52 -0.3733,5.24 -0.093,0.93334 -0.1867,1.88 -0.2534,2.84 l -0.12,1.73334 c -0.1333,2.01333 -0.2666,4.10666 -0.5733,6.29333 -0.2533,1.90667 -0.96,3.54667 -1.5867,4.98667 -0.4266,0.98666 -0.84,1.93333 -0.9866,2.72 -0.1734,0.85333 -0.2534,1.82666 -0.3334,2.86666 -0.1333,1.53334 -0.28,3.28 -0.7466,5.09334 -0.6134,2.44 -1.3467,4.94666 -2.2134,7.70666 -0.5333,1.68 -1.1866,3.29333 -1.8133,4.86667 -0.3467,0.85333 -0.6933,1.72 -1.0267,2.61333 -0.32,0.84 -0.5866,1.81333 -0.8533,2.84 -0.4,1.48 -0.8533,3.14667 -1.5733,4.81333 -0.76,1.74667 -1.88,3.13334 -2.8534,4.34667 -0.68,0.84 -1.3066,1.64 -1.6666,2.34667 -0.36,0.74666 -0.6534,1.69333 -0.9734,2.70666 -0.4666,1.46667 -0.9866,3.13334 -1.8933,4.77334 -0.8667,1.57333 -1.9733,2.86666 -2.96,4 -0.72,0.84 -1.4,1.62666 -1.8667,2.38666 l -0.5333,0.85334 c -1.16,1.90666 -2.36,3.86666 -3.6933,5.86666 -0.52,0.77334 -1,1.68 -1.52,2.64 -0.6934,1.30667 -1.48,2.78667 -2.52,4.2 -0.5467,0.76 -1.0667,1.65334 -1.6267,2.6 -0.7467,1.28 -1.5867,2.74667 -2.68,4.12 -0.6267,0.8 -1.2267,1.64 -1.8267,2.49334 -0.8933,1.28 -1.8266,2.6 -2.9333,3.89333 -0.6533,0.77333 -1.2933,1.58667 -1.92,2.4 -0.9733,1.24 -1.9733,2.52 -3.1067,3.77333 -1.2533,1.37334 -2.7066,2.33334 -3.9866,3.17334 -0.92,0.61333 -1.7867,1.18666 -2.3467,1.76 -1.28,1.32 -2.6133,2.6 -3.9733,3.89333 l -1.6934,1.62667 c -0.5333,0.52 -1.08,1.34666 -1.6666,2.24 -0.8667,1.29333 -1.84,2.77333 -3.2534,4.06666 -1.2133,1.10667 -2.4933,1.98667 -3.72,2.84 -0.96,0.65334 -1.8666,1.28 -2.6266,1.94667 -1.36,1.17333 -2.84,1.97333 -4.1467,2.69333 -0.9867,0.53334 -1.9067,1.02667 -2.5733,1.58667 -0.68,0.54667 -1.3734,1.33333 -2.1067,2.16 -0.9733,1.10667 -2.0933,2.36 -3.5067,3.45333 -0.1333,0.12 -0.28,0.22667 -0.4266,0.33334 0.5066,0.33333 1.0266,0.72 1.5466,1.17333 1.4267,1.26667 2.2534,2.84 3.0667,4.37333 0.56,1.06667 1.08,2.06667 1.76,2.85334 0.48,0.56 1,1.10666 1.5467,1.68 1.2133,1.28 2.6,2.73333 3.8933,4.56 0.44,0.64 0.9333,1.26666 1.4267,1.92 1.0533,1.4 2.2533,2.96 3.3466,4.77333 0.8934,1.46667 1.4534,2.97333 2,4.44 0.4,1.10667 0.7867,2.13333 1.28,3.05333 0.4534,0.84 0.96,1.66667 1.4934,2.50667 0.8266,1.32 1.76,2.82667 2.56,4.50666 1.0933,2.28 2.2133,4.76 3.32,7.36 0.3866,0.90667 0.8266,1.81334 1.2666,2.73334 0.6934,1.45333 1.4134,2.94666 2.0534,4.6 0.3066,0.78666 0.8266,1.68 1.3866,2.62666 0.7734,1.33334 1.64,2.84 2.2667,4.6 0.68,1.86667 0.72,3.70667 0.76,5.33334 0.013,1.09333 0.04,2.13333 0.2667,2.8 0.2666,0.84 0.7466,1.78666 1.24,2.78666 0.68,1.34667 1.44,2.86667 1.96,4.58667 0.2933,0.96 0.6933,1.98667 1.1333,3.06667 0.56,1.4 1.1333,2.86666 1.6,4.49333 0.52,1.85333 0.4933,3.65333 0.4667,5.24 -0.013,1.09333 -0.04,2.14667 0.1466,2.86667 0.2267,0.84 0.6667,1.81333 1.12,2.84 0.6134,1.37333 1.3067,2.92 1.72,4.68 0.4134,1.65333 0.5067,3.29333 0.5867,4.74666 0.067,1.17334 0.1333,2.29334 0.3467,3.24 0.2266,1 0.6666,2.08 1.12,3.21334 0.56,1.4 1.1466,2.84 1.5066,4.46666 0.2667,1.22667 0.5467,2.44 0.8267,3.61334 0.3467,1.45333 0.68,2.86666 0.9733,4.26666 0.2267,1.10667 0.6,2.24 1.0134,3.44 0.4666,1.38667 0.9466,2.81334 1.2533,4.37334 0.36,1.85333 0.36,3.61333 0.3467,5.16 -0.013,1.12 -0.013,2.18666 0.1333,2.98666 0.1867,1 0.6,2.08 1.0267,3.22667 0.5466,1.42667 1.1066,2.90667 1.4,4.57333 0.48,2.8 0.9333,5.46667 1.3466,8 0.28,1.77334 0.32,3.46667 0.36,4.96 0.027,1.16 0.053,2.24 0.1867,3.17334 0.2533,1.68 0.3733,3.25333 0.48,4.78666 0.093,1.12 0.1733,2.22667 0.3067,3.28 0.1333,1 0.5066,2.09333 0.9066,3.24 0.48,1.4 1.0267,2.96 1.2267,4.66667 0.2,1.8 0.1867,3.48 0.16,4.97333 -0.013,1.14667 -0.04,2.22667 0.067,3.14667 0.2,1.84 0.4,3.57333 0.6,5.24 l 0.32,2.70666 c 0.2133,1.88 0.04,3.58667 -0.12,5.09334 -0.12,1.12 -0.2267,2.17333 -0.12,2.90666 0.2,1.29334 0.6,2.65334 1.0266,4.09334 0.3467,1.13333 0.68,2.28 0.9334,3.42666 0.16,0.66667 0.7066,1.58667 1.28,2.56 0.7466,1.25334 1.5866,2.66667 2.1333,4.38667 0.44,1.36 0.6533,2.66667 0.8667,3.93333 0.2133,1.32 0.4133,2.56 0.84,3.6 0.5333,1.32 0.8533,2.62667 1.1733,3.90667 0.3333,1.30667 0.64,2.56 1.1333,3.61333 0.5067,1.06667 1.16,2.21334 1.8534,3.44 0.6533,1.12 1.32,2.28 1.9466,3.52 0.32,0.64 0.9067,1.41334 1.52,2.24 0.9467,1.25334 2.0267,2.69334 2.8534,4.46667 0.7733,1.65333 1.08,3.33333 1.3466,4.82667 0.2,1.10666 0.4,2.16 0.7334,2.93333 0.32,0.74667 0.88,1.58667 1.48,2.49333 0.84,1.26667 1.7866,2.70667 2.4933,4.44 0.3333,0.81334 0.8533,1.73334 1.4133,2.69334 0.7467,1.29333 1.5867,2.74666 2.2134,4.4 0.6666,1.77333 0.8266,3.53333 0.9733,5.08 0.1067,1.09333 0.2,2.12 0.44,2.84 0.5333,1.53333 0.8667,3.02666 1.1733,4.48 0.2534,1.13333 0.48,2.21333 0.8,3.2 0.1867,0.61333 0.7334,1.42666 1.3067,2.29333 0.8933,1.36 1.9067,2.89333 2.4667,4.84 0.52,1.76 0.6133,3.49333 0.6933,5.01333 0.067,1.10667 0.12,2.14667 0.3333,2.93334 0.2134,0.82666 0.64,1.78666 1.1067,2.78666 0.6267,1.37334 1.3467,2.93334 1.7467,4.70667 0.36,1.62666 0.6,3.21333 0.8133,4.74666 0.1467,1.05334 0.3067,2.09334 0.4933,3.13334 0.3467,1.77333 0.3467,3.46666 0.3467,4.97333 0,1.10667 0.013,2.16 0.1467,3.04 0.1333,0.93333 0.3066,1.86667 0.4666,2.78667 0.28,1.64 0.5867,3.34666 0.7734,5.10666 0.2133,2.09334 0.32,4.16 0.4133,6.14667 l 0.093,1.84 c 0.053,0.84 0.2934,1.82667 0.5334,2.88 0.3733,1.53333 0.7733,3.26667 0.7733,5.16 -0.013,2 -0.48,3.78667 -0.8933,5.34667 -0.2534,1.01333 -0.5067,1.96 -0.56,2.72 -0.1867,2.50666 -0.56,4.86666 -0.92,7.14666 l -0.1467,0.90667 c -0.1467,0.90667 -0.2267,1.81333 -0.32,2.70667 -0.1733,1.74666 -0.36,3.53333 -0.8533,5.41333 -0.2134,0.8 -0.32,1.76 -0.4534,2.77333 -0.2,1.68 -0.44,3.58667 -1.1866,5.48 -0.7734,1.98667 -1.9067,3.65334 -2.9067,5.10667 -0.5067,0.73333 -1,1.45333 -1.4133,2.2 -1.1334,2 -2.48,3.62667 -3.7867,5.18667 -0.44,0.52 -0.8667,1.04 -1.2933,1.57333 -1.64,2.06667 -3.4667,3.72 -5.24,5.30667 l -0.7067,0.64 c -0.4667,0.42666 -0.9867,1.13333 -1.5467,1.89333 -1.04,1.4 -2.32,3.16 -4.3066,4.44 l -1.28,0.84 c -1.7867,1.18667 -3.8134,2.52 -6.08,3.55998 -1.92,0.8667 -3.9334,1.4267 -5.88,1.9867 -0.72,0.2 -1.4534,0.4 -2.1734,0.6267 -2.4,0.7333 -5.0533,1.3866 -8.1066,1.9733 -1.0267,0.2 -2.0667,0.3067 -3.0934,0.3733 0.4534,1.4 0.6267,3.2267 -0.2,5.48 -1.3066,3.56 -4.7866,6.8267 -8.8933,8.2934 -2.2133,0.8 -5.16,1.1466 -9.5333,1.1466 -0.7334,0 -1.6134,0.04 -2.6267,0.08 -1.52,0.067 -3.3333,0.1467 -5.36,0.1467 -1.52,0 -2.96,-0.2667 -4.3467,-0.5067 -1.28,-0.24 -2.4933,-0.4533 -3.6666,-0.4533 -1.2534,0 -2.5734,-0.053 -3.92,-0.1067 -2.2534,-0.093 -4.4934,-0.1733 -7.3867,0.16 -1.4,0.1734 -3,0.36 -4.68,0.36 v 0 c -1.7733,0 -3.4133,-0.36 -4.8533,-0.6933 -1.16,-0.2533 -2.2534,-0.4933 -3.1467,-0.4933 -1.28,-0.013 -2.5067,0.04 -3.7867,0.093 -1.3866,0.04 -2.7866,0.093 -4.2,0.093 -0.013,0 -0.04,0 -0.053,0 -1.28,0 -2.5733,0.027 -3.8533,0.04 -1.3734,0.027 -2.8267,0 -4.12,0.053 -0.9467,0 -2.0667,0.1866 -3.2534,0.3866 -1.4266,0.24 -3.04,0.5067 -4.7466,0.5067 0,0 0,0 -0.013,0 -1.7066,0 -3.32,-0.2667 -4.76,-0.5067 -1.1733,-0.2 -2.2933,-0.3866 -3.24,-0.3866 0,0 0,0 -0.013,0 -0.76,0 -1.8,0.28 -2.8933,0.5733 -1.5067,0.4 -3.2134,0.8667 -5.12,0.8667 v 0 c -1.4267,0 -2.84,-0.053 -4.24,-0.093 -1.2667,-0.053 -2.52,-0.093 -3.7734,-0.093 -1.96,0 -3.7066,-0.4533 -5.24,-0.8667 -1.0533,-0.2666 -2.0533,-0.5333 -2.76,-0.5333 0,0 -0.013,0 -0.027,0 -1.3734,0 -2.7334,0.04 -4.0534,0.067 -1.3333,0.04 -2.7466,0.053 -3.92,0.067 v 0 c -1.0933,0 -2.2666,0.2134 -3.52,0.44 -1.4266,0.2534 -2.9066,0.52 -4.48,0.52 -0.013,0 -0.013,0 -0.013,0 -1.36,0 -2.7333,0.16 -4.0533,0.32 -1.2934,0.1467 -2.6267,0.3067 -3.9334,0.3067"
       style="fill:#362421;fill-opacity:1;fill-rule:nonzero;stroke:none;stroke-width:0.133333" />
    <path
       id="path119"
       d="m 2265.8799,591.40006 c -0.8266,0 -1.6666,-0.24 -2.4133,-0.72 l -0.4133,-0.26667 c -4.52,-2.93333 -4.8267,-4.54666 -5.24,-10.25333 l -0.027,-0.32 c -0.1733,-2.36 0.3467,-4.88 0.9467,-7.81333 l 0.2933,-1.45334 c 0.1333,-0.62666 0.2267,-1.29333 0.3333,-2 0.2667,-1.84 0.6,-4.12 1.4267,-6.50666 0.6133,-1.78667 1.68,-3.26667 2.6267,-4.56 0.6933,-0.96 1.3466,-1.85334 1.7333,-2.74667 0.68,-1.50667 1.5333,-2.88 2.3467,-4.22667 0.5866,-0.94666 1.1866,-1.93333 1.7066,-2.92 1.44,-2.77333 2.64,-4.98666 3.8934,-7.14666 0.4933,-0.85334 0.9466,-1.76 1.4133,-2.69334 0.68,-1.37333 1.4533,-2.93333 2.4267,-4.46666 0.52,-0.85334 1.0266,-1.73334 1.5466,-2.62667 0.8134,-1.4 1.64,-2.84 2.6267,-4.32 1.12,-1.68 2.3333,-3.4 3.5733,-5.18667 l 1.0267,-1.45333 c 0.8533,-1.22667 1.7867,-2.42667 2.7467,-3.66667 0.7066,-0.89333 1.4133,-1.81333 2.12,-2.77333 1.3733,-1.89333 2.7866,-3.66667 4.1466,-5.38667 l 0.8,-1.01333 c 2.0534,-2.58667 3.6267,-4.52 5.1334,-6.28 0.5866,-0.68 1.16,-1.36 1.72,-2.02667 1.1333,-1.37333 2.32,-2.78666 3.5733,-4.11999 1.9333,-2.06667 3.8667,-3.94667 5.7333,-5.76 1.32,-1.28 2.6667,-2.33334 3.96,-3.34667 0.7867,-0.61333 1.56,-1.22667 2.2934,-1.86667 2.0666,-1.8 4.1066,-3.49333 6.2666,-5.18666 0.5467,-0.42667 1.1467,-1.25334 1.7734,-2.13334 0.9866,-1.36 2.1066,-2.90666 3.8133,-4.09333 1.6667,-1.16 3.4133,-1.82667 4.9467,-2.42667 0.9733,-0.38666 1.8933,-0.74666 2.5466,-1.13333 0.88,-0.53333 1.7334,-1.16 2.64,-1.82667 1.32,-0.96 2.68,-1.94666 4.24,-2.74666 1.96,-1.01334 3.9734,-1.36 5.5867,-1.65334 0.9867,-0.17333 1.9067,-0.33333 2.4667,-0.57333 0.6666,-0.28 1.4533,-0.94667 2.28,-1.65333 1.3066,-1.09334 2.8,-2.34667 4.7866,-3.02667 2.32,-0.78667 4.52,-0.68 6.3067,-0.58667 0.8267,0.04 1.76,0.08 2.1733,-0.0133 l 0.3334,-0.08 c 2.92,-0.72 5.4266,-1.33333 7.76,-1.65333 1.72,-0.24 2.3066,-0.50667 2.9333,-0.78667 1.4533,-0.66667 2.8133,-1.16 5.7467,-0.98667 2.4533,0.13334 4.3333,2.22667 4.2,4.68 -0.1334,2.44 -2.28,4.33334 -4.68,4.18667 -1.0267,-0.0533 -1.08,-0.0267 -1.6,0.21333 -1.2,0.54667 -2.6134,1.10667 -5.36,1.49334 -1.8934,0.26666 -4.2134,0.82666 -6.88,1.48 l -0.3467,0.08 c -1.6533,0.41333 -3.28,0.33333 -4.72,0.26666 -1.1867,-0.0533 -2.2933,-0.10666 -3.0133,0.12 -0.4,0.14667 -1.24,0.85334 -1.92,1.41334 -1.16,0.98666 -2.6267,2.22666 -4.4934,3.02666 -1.52,0.64 -3.0666,0.92 -4.4266,1.16 -1.1867,0.2 -2.3067,0.4 -3.0534,0.78667 -0.9466,0.49333 -1.9866,1.25333 -3.08,2.04 -1.0266,0.74667 -2.08,1.52 -3.28,2.24 -1.3066,0.8 -2.6933,1.33333 -3.9333,1.81333 -1.1733,0.45334 -2.2933,0.89334 -3.0933,1.45334 -0.4534,0.30666 -1.0667,1.16 -1.6667,1.98666 -0.92,1.28 -1.96,2.72 -3.5067,3.93334 -2.0266,1.58666 -3.9466,3.18666 -5.8933,4.88 -0.8533,0.74666 -1.7467,1.45333 -2.6533,2.16 -1.1734,0.92 -2.28,1.78666 -3.2667,2.74666 -1.7867,1.74667 -3.6533,3.54667 -5.44,5.45333 -1.08,1.14667 -2.12,2.4 -3.2267,3.72 -0.5866,0.72 -1.1866,1.42667 -1.8,2.14667 -1.4266,1.65333 -2.9333,3.50667 -4.9066,5.98667 l -0.8134,1.04 c -1.3066,1.64 -2.6533,3.34666 -3.9333,5.09333 -0.7467,1.02667 -1.52,2.01333 -2.2667,2.98667 -0.8666,1.12 -1.72,2.2 -2.4933,3.30666 l -1.0267,1.48 c -1.2,1.70667 -2.3733,3.36 -3.4533,4.98667 -0.8267,1.25333 -1.5867,2.57333 -2.3333,3.84 -0.56,1 -1.1334,1.96 -1.7067,2.89333 -0.7333,1.17334 -1.36,2.41334 -2.0133,3.72 -0.5334,1.09334 -1.08,2.17334 -1.6667,3.17334 -1.1733,2.05333 -2.32,4.14666 -3.6933,6.8 -0.6667,1.28 -1.3867,2.45333 -2.0267,3.48 -0.6933,1.14666 -1.36,2.22666 -1.8,3.2 -0.7733,1.72 -1.7733,3.10666 -2.6533,4.32 -0.6134,0.85333 -1.24,1.73333 -1.4267,2.26666 -0.56,1.6 -0.8,3.26667 -1.04,4.88 -0.12,0.86667 -0.24,1.69334 -0.4,2.45334 l -0.3067,1.50666 c -0.44,2.18667 -0.8666,4.24 -0.7866,5.37334 l 0.027,0.32 c 0.08,1.09333 0.16,2.21333 0.2534,2.81333 0.2533,0.17333 0.6133,0.41333 0.9466,0.62667 l 0.4267,0.28 c 2.0533,1.33333 2.64,4.08 1.3067,6.14666 -0.8534,1.30667 -2.28,2.02667 -3.7334,2.02667"
       style="fill:#362421;fill-opacity:1;fill-rule:nonzero;stroke:none;stroke-width:0.133333" />
    <path
       id="path120"
       d="m 2161.5866,600.73339 c -1.8133,0 -3.5067,-1.12 -4.1733,-2.92 -0.4534,-1.22666 -0.7334,-1.89333 -0.9734,-2.44 -0.5466,-1.29333 -0.8666,-2.12 -1.8,-5.34666 -0.2133,-0.74667 -0.4666,-1.52 -0.7333,-2.36 -0.52,-1.6 -1.1067,-3.4 -1.6,-5.44 -0.1867,-0.76 -0.5467,-1.69334 -0.9467,-2.68 -0.5866,-1.48 -1.24,-3.16 -1.64,-5.08 -0.4133,-1.98667 -0.1333,-3.85334 0.1067,-5.49334 0.16,-1.10666 0.3067,-2.13333 0.2,-2.82666 -0.1733,-0.97334 -0.3733,-1.94667 -0.5733,-2.94667 -0.3334,-1.58667 -0.68,-3.24 -0.9067,-5.01333 -0.1067,-0.84 -0.4133,-1.82667 -0.7333,-2.88 -0.4534,-1.49334 -0.96,-3.18667 -1.1467,-5.08 -0.093,-0.97334 -0.28,-2.02667 -0.48,-3.13334 -0.2667,-1.57333 -0.56,-3.18666 -0.6667,-4.94666 -0.1066,-1.98667 0.32,-3.78667 0.6934,-5.37334 0.2533,-1.06666 0.4933,-2.06666 0.48,-2.82666 -0.013,-0.69334 -0.28,-1.65334 -0.56,-2.68 -0.44,-1.6 -0.9334,-3.41334 -0.88,-5.46667 0.04,-1.96 0.56,-3.70667 1.0266,-5.25333 0.3067,-1.05334 0.6134,-2.05334 0.6667,-2.84 0.12,-1.92 0.3467,-3.8 0.5733,-5.62667 0.093,-0.81333 0.2,-1.64 0.28,-2.46667 0.08,-0.64 -0.08,-1.62666 -0.2533,-2.66666 -0.2667,-1.66667 -0.5733,-3.56 -0.2533,-5.64 0.28,-1.76 0.7866,-3.34667 1.28,-4.88 0.3466,-1.08 0.6666,-2.10667 0.8666,-3.08 0.2134,-1 0.3467,-2.04 0.48,-3.08 0.2134,-1.62667 0.44,-3.29333 0.8934,-5.04 0.52,-1.98667 1.52,-3.58667 2.4,-4.98667 0.5733,-0.92 1.1066,-1.77333 1.3333,-2.46666 0.7867,-2.45334 1.64,-5.08 2.6533,-7.73334 0.2934,-0.77333 0.48,-1.77333 0.6934,-2.84 0.2933,-1.58666 0.64,-3.37333 1.44,-5.16 0.7466,-1.65333 1.68,-3.06666 2.5733,-4.42666 0.6133,-0.93334 1.1867,-1.81334 1.64,-2.68 0.84,-1.58667 1.8,-2.97334 2.7467,-4.32 0.5866,-0.84 1.1733,-1.69334 1.7066,-2.57334 0.3067,-0.50666 0.5467,-1.49333 0.7867,-2.44 0.4133,-1.62666 0.9067,-3.64 2.16,-5.45333 1.1867,-1.72 2.7067,-2.88 4.0533,-3.90667 0.8534,-0.65333 1.6534,-1.26666 2.0934,-1.81333 0.4933,-0.64 0.9733,-1.54667 1.4666,-2.50667 0.7467,-1.44 1.6,-3.06666 2.92,-4.56 1.8534,-2.10666 3.88,-4.16 5.68,-5.97333 0.68,-0.69333 1.3334,-1.41333 2,-2.14667 1.1467,-1.26666 2.3467,-2.57333 3.72,-3.82666 1.6,-1.44 3.4267,-2.16 5.04,-2.78667 0.9334,-0.37333 1.9067,-0.74667 2.3867,-1.14667 0.6667,-0.53333 1.3467,-1.29333 2.08,-2.10666 1.0667,-1.17334 2.2667,-2.50667 3.8133,-3.62667 2.3067,-1.68 4.5067,-3.2 6.7334,-4.65333 2.6266,-1.72 5.7733,-1.96 8.44,-0.65334 2.8533,1.38667 4.72,4.25334 5,7.66667 0.1066,1.25333 0.3066,1.73333 0.6133,2.52 0.4267,1.05333 1.0133,2.50667 1.2267,5.10667 0.2266,2.65333 -0.1467,4.2 -0.4267,5.33333 -0.2,0.84 -0.3067,1.29333 -0.2133,2.50667 0.12,1.37333 0.3066,1.92 0.5866,2.74666 0.3734,1.06667 0.84,2.41334 1.0534,4.89334 0.1866,2.36 0.053,3.68 -0.067,4.74666 -0.093,0.89334 -0.1733,1.53334 -0.04,3.04 0.093,1.06667 0.2667,1.41334 0.64,2.16 0.5733,1.10667 1.3467,2.64 1.5867,5.44 0.1733,2.06667 0.1866,3.10667 0.2133,4.14667 0.027,0.90667 0.04,1.8 0.1867,3.6 0.1733,2.06667 0.2,3.12 0.2266,4.16 0.013,0.90667 0.027,1.8 0.1867,3.6 0.1733,2.09333 0.1733,3.22667 0.1867,4.21333 0,0.90667 0.013,1.77334 0.16,3.53334 0.1733,2.14666 0.16,3.29333 0.1466,4.30666 0,0.93334 -0.013,1.73334 0.1334,3.45334 0.1866,2.33333 0.08,3.57333 -0.027,4.68 -0.08,0.88 -0.1467,1.57333 -0.013,3.12 0.1066,1.36 0.3066,1.89333 0.5866,2.70666 0.3867,1.08 0.88,2.42667 1.08,4.94667 0.1734,2.06667 0.2,3.13333 0.2134,4.16 0.027,0.89333 0.04,1.8 0.1866,3.58666 0.1867,2.24 0.1334,3.44 0.08,4.49334 -0.053,0.89333 -0.093,1.65333 0.04,3.29333 0.1334,1.45333 0.32,2.05333 0.5734,2.89333 0.32,1.05334 0.72,2.36 0.92,4.77334 0.1333,1.49333 0.3066,2.10666 0.56,2.97333 0.2933,1.02667 0.6666,2.32 0.8666,4.69333 0.24,2.82667 -0.2933,4.48 -0.68,5.68 -0.2666,0.82667 -0.3733,1.16 -0.2933,2.2 0.1067,1.24 0.2933,1.68 0.6267,2.48 0.4533,1.06667 1.0666,2.53334 1.2933,5.17334 0.2,2.44 -1.6133,4.58666 -4.0667,4.8 -2.4266,0.2 -4.5866,-1.61334 -4.8,-4.06667 -0.093,-1.22667 -0.28,-1.66667 -0.6266,-2.46667 -0.44,-1.06666 -1.0667,-2.53333 -1.28,-5.17333 -0.24,-2.82667 0.2933,-4.48 0.68,-5.68 0.2666,-0.81333 0.3733,-1.16 0.2933,-2.2 -0.1333,-1.49333 -0.3067,-2.12 -0.56,-2.97333 -0.2933,-1.04 -0.6667,-2.33334 -0.8667,-4.70667 -0.12,-1.45333 -0.3066,-2.05333 -0.56,-2.89333 -0.3333,-1.05334 -0.7333,-2.36 -0.9333,-4.76 -0.1867,-2.24 -0.12,-3.44 -0.067,-4.49334 0.04,-0.89333 0.08,-1.65333 -0.053,-3.29333 -0.1733,-2.08 -0.2,-3.13333 -0.2133,-4.16 -0.013,-0.89333 -0.04,-1.8 -0.1867,-3.6 -0.12,-1.34666 -0.3067,-1.89333 -0.6,-2.69333 -0.3867,-1.09333 -0.8667,-2.44 -1.0667,-4.94667 -0.2,-2.33333 -0.08,-3.57333 0.013,-4.68 0.08,-0.88 0.1466,-1.57333 0.013,-3.12 -0.1733,-2.14666 -0.16,-3.29333 -0.1467,-4.30666 0.013,-0.93334 0.013,-1.73334 -0.1333,-3.45334 -0.1733,-2.10666 -0.1733,-3.22666 -0.1867,-4.22666 0,-0.90667 -0.013,-1.77334 -0.16,-3.53334 -0.1733,-2.06666 -0.1866,-3.10666 -0.2133,-4.16 -0.013,-0.89333 -0.04,-1.8 -0.1867,-3.58666 -0.1733,-2.08 -0.2,-3.12 -0.2133,-4.14667 -0.027,-0.90667 -0.04,-1.81333 -0.2,-3.6 -0.08,-1.06667 -0.2533,-1.41333 -0.64,-2.16 -0.56,-1.10667 -1.3467,-2.64 -1.5733,-5.44 -0.2,-2.36 -0.053,-3.68 0.053,-4.74667 0.1067,-0.89333 0.1733,-1.53333 0.04,-3.04 -0.1067,-1.37333 -0.2933,-1.92 -0.5867,-2.74666 -0.3733,-1.08 -0.8266,-2.41334 -1.04,-4.90667 -0.2133,-2.65333 0.16,-4.2 0.4267,-5.33333 0.2,-0.82667 0.32,-1.28 0.2133,-2.49334 -0.1066,-1.26666 -0.2933,-1.74666 -0.6133,-2.53333 -0.4267,-1.05333 -1.0133,-2.50667 -1.2267,-5.10667 0,-0.04 -0.013,-0.08 -0.013,-0.10666 -2.0667,1.34666 -4.0267,2.70666 -6.08,4.2 -0.8,0.58666 -1.6,1.46666 -2.44,2.4 -0.88,0.97333 -1.88,2.08 -3.0933,3.06666 -1.5467,1.25334 -3.24,1.90667 -4.72,2.49334 -0.9067,0.36 -1.9334,0.76 -2.3334,1.12 -1.0533,0.94666 -2.0533,2.04 -3.0933,3.2 -0.7467,0.82666 -1.4933,1.64 -2.2667,2.42666 -1.7066,1.72 -3.6533,3.68 -5.3333,5.6 -0.6,0.68 -1.1333,1.70667 -1.7067,2.8 -0.6266,1.2 -1.3466,2.57334 -2.3333,3.84 -1.1467,1.46667 -2.52,2.50667 -3.72,3.42667 -0.8533,0.65333 -1.7333,1.32 -2.1067,1.86667 -0.3466,0.50666 -0.6133,1.56 -0.8666,2.58666 -0.3867,1.50667 -0.8134,3.22667 -1.8,4.85334 -0.6267,1.06666 -1.3334,2.06666 -2.0267,3.08 -0.8133,1.16 -1.5867,2.26666 -2.16,3.36 -0.6533,1.25333 -1.3867,2.37333 -2.0933,3.44 -0.7334,1.12 -1.44,2.18666 -1.8934,3.2 -0.3733,0.82666 -0.5866,1.97333 -0.8133,3.17333 -0.2667,1.33333 -0.5467,2.85333 -1.1333,4.36 -0.9334,2.42667 -1.7334,4.92 -2.48,7.25333 -0.56,1.74667 -1.4667,3.18667 -2.2534,4.46667 -0.6,0.96 -1.1733,1.85333 -1.3466,2.53333 -0.3067,1.2 -0.4934,2.54667 -0.68,3.96 -0.16,1.2 -0.32,2.44 -0.5867,3.70667 -0.2933,1.42666 -0.7067,2.73333 -1.12,4 -0.4,1.26666 -0.7867,2.45333 -0.9467,3.53333 -0.1066,0.68 0.053,1.73333 0.24,2.84 0.24,1.50667 0.52,3.21333 0.32,5.05333 -0.093,0.86667 -0.2,1.73334 -0.3066,2.58667 -0.2134,1.77333 -0.4134,3.45333 -0.52,5.10667 -0.1067,1.81333 -0.6,3.41333 -1.0267,4.84 -0.3333,1.09333 -0.64,2.13333 -0.6533,2.88 -0.013,0.76 0.2666,1.81333 0.5733,2.92 0.4,1.44 0.84,3.06666 0.88,4.86666 0.027,1.88 -0.3733,3.57334 -0.72,5.06667 -0.2667,1.08 -0.5067,2.10667 -0.4667,2.78667 0.067,1.24 0.3067,2.54666 0.5467,3.92 0.2133,1.22666 0.44,2.50666 0.5733,3.82666 0.093,1.01334 0.44,2.14667 0.8,3.36 0.4134,1.34667 0.8267,2.73334 1.04,4.28 0.1867,1.46667 0.48,2.88 0.8,4.38667 0.2267,1.10667 0.44,2.18667 0.6267,3.26667 0.3467,2.08 0.067,4.02666 -0.16,5.58666 -0.1467,0.92 -0.2933,1.97334 -0.2,2.42667 0.24,1.16 0.7067,2.34667 1.2,3.6 0.48,1.21333 0.9867,2.48 1.32,3.84 0.4133,1.72 0.92,3.29333 1.4133,4.81333 0.3067,0.93334 0.5867,1.81334 0.8267,2.64 0.8133,2.86667 1.04,3.38667 1.44,4.33334 0.2667,0.62666 0.6,1.4 1.1333,2.84 0.84,2.30666 -0.3333,4.85333 -2.64,5.70666 -0.5066,0.18667 -1.0266,0.28 -1.5333,0.28"
       style="fill:#362421;fill-opacity:1;fill-rule:nonzero;stroke:none;stroke-width:0.133333" />
    <path
       id="path121"
       d="m 2213.6933,1019.4267 c -1.4,0 -2.7734,-0.6533 -3.64,-1.8933 -1.8667,-2.6534 -3.4934,-7.3334 -2.96,-11.8134 0.44,-3.7066 2.64,-7.11995 6.5466,-10.14662 1.2134,-0.94666 2.8,-2.6 3.9467,-4.10666 0.4,-0.52 0.7467,-0.93334 1.0267,-1.30667 0.88,-1.10667 1.04,-1.29333 1.3333,-2.33333 -0.067,-0.77334 -0.16,-1.56 -0.24,-2.34667 -0.1867,-1.56 -0.36,-3.17333 -0.44,-4.81333 -0.04,-0.96 -0.2267,-2.01334 -0.4267,-3.13334 -0.24,-1.42666 -0.52,-3.04 -0.5466,-4.73333 -0.027,-1.90667 0.3866,-3.62667 0.7466,-5.14667 0.2534,-1.02666 0.48,-2 0.4934,-2.73333 0.013,-0.78667 -0.2,-1.78667 -0.4134,-2.85333 -0.32,-1.49334 -0.6666,-3.18667 -0.6,-5.05334 0.08,-1.98666 0.6667,-3.69333 1.1867,-5.21333 0.3333,-0.97333 0.64,-1.89333 0.68,-2.54667 0.067,-1.01333 0.027,-2.10666 -0.013,-3.25333 -0.053,-1.48 -0.1067,-2.98667 0.04,-4.6 0.093,-1.01333 0.067,-2.10667 0.04,-3.28 -0.027,-1.46667 -0.053,-2.98667 0.1333,-4.58667 0.1867,-1.61333 0.4667,-3.13333 0.7467,-4.61333 0.2,-1.05333 0.4,-2.09333 0.5466,-3.13333 0.2534,-1.85334 0.8667,-3.46667 1.3867,-4.89334 0.3733,-1 0.72,-1.93333 0.84,-2.68 0.1467,-0.84 0.08,-1.89333 0.013,-3.01333 -0.093,-1.48 -0.1866,-3.16 0.1334,-4.92 0.3066,-1.65333 0.7066,-3.17333 1.08,-4.64 0.2666,-1.02667 0.5333,-2.01333 0.7333,-2.98667 0.5733,-2.77333 1.12,-5.33333 1.6667,-7.66666 0.28,-1.2 0.4133,-2.46667 0.5333,-3.69333 0.1467,-1.36 0.2933,-2.76 0.64,-4.10667 0.8133,-3.09333 1.5467,-4.34667 2.3467,-5.54667 0.3333,-0.49333 0.5066,-0.77333 0.84,-1.82666 0.7333,-2.34667 3.2266,-3.64 5.5733,-2.90667 2.3467,0.73333 3.64,3.22667 2.9067,5.57333 -0.6534,2.09334 -1.28,3.13334 -1.9334,4.09334 -0.36,0.54666 -0.6266,0.94666 -1.12,2.85333 -0.1866,0.69333 -0.2933,1.72 -0.4,2.78667 -0.16,1.42666 -0.32,3.04 -0.7333,4.79999 -0.52,2.26667 -1.0533,4.76 -1.6267,7.45334 -0.2266,1.10666 -0.52,2.24 -0.8133,3.4 -0.3467,1.32 -0.7067,2.68 -0.9467,4.04 -0.1333,0.68 -0.067,1.69333 0,2.77333 0.08,1.46667 0.1734,3.14667 -0.12,4.94667 -0.2533,1.61333 -0.8,3.08 -1.28,4.36 -0.4,1.10666 -0.7866,2.13333 -0.92,3.02666 -0.16,1.18667 -0.3866,2.37334 -0.6133,3.57334 -0.2533,1.37333 -0.5067,2.66666 -0.6533,3.97333 -0.12,1 -0.093,2.16 -0.067,3.38667 0.027,1.36 0.053,2.76 -0.093,4.26666 -0.093,1.04 -0.04,2.2 0,3.44 0.053,1.33334 0.1066,2.72 0.013,4.18667 -0.1333,1.82667 -0.6667,3.41333 -1.1467,4.82667 -0.36,1.04 -0.6933,2.01333 -0.72,2.72 -0.027,0.74666 0.1867,1.77333 0.4134,2.86666 0.2933,1.41334 0.64,3.02667 0.6133,4.78667 -0.027,1.73333 -0.4133,3.30667 -0.7467,4.70667 -0.2666,1.09333 -0.52,2.13333 -0.5066,2.92 0.027,0.98666 0.2266,2.13333 0.4266,3.34666 0.24,1.34667 0.48,2.73334 0.5467,4.25334 0.067,1.33333 0.2133,2.73333 0.3867,4.22666 0.1333,1.13334 0.2533,2.28 0.3466,3.41334 0.04,0.52 -0.013,1.04 -0.1466,1.53333 -0.8934,3.22667 -1.5067,4.17333 -3.16,6.25333 -0.2667,0.33334 -0.56,0.72 -0.92,1.18667 -1.6267,2.12 -3.76,4.30665 -5.56,5.70665 -2.44,1.8933 -3.0667,3.32 -3.1734,4.1867 -0.2266,1.9466 0.5334,4.4133 1.4134,5.6666 1.4133,2 0.92,4.7734 -1.0934,6.1867 -0.7733,0.5467 -1.6666,0.8 -2.5466,0.8"
       style="fill:#362421;fill-opacity:1;fill-rule:nonzero;stroke:none;stroke-width:0.133333" />
    <path
       id="path122"
       d="m 2276.7466,1019.6934 c -1.0267,0 -2.0533,-0.067 -3.0667,-0.1334 -0.9866,-0.067 -2.0133,-0.1466 -3.0933,-0.1466 -2.4533,0 -4.44,-1.9867 -4.44,-4.44 0,-2.4534 1.9867,-4.44 4.44,-4.44 1.28,0 2.52,0.08 3.6933,0.16 1.5067,0.093 2.92,0.2 3.7467,0.013 2.72,-0.6 4.6933,-2.08 5.64,-2.8933 0.68,-0.6134 1.1867,-2.1067 1.72,-3.6934 0.2267,-0.68 0.4533,-1.3733 0.72,-2.04 0.7733,-2.0533 1.4933,-4.38662 2.24,-7.34662 0.4267,-1.68 1.04,-3.26666 1.6267,-4.81333 0.4,-1.04 0.8,-2.12 1.16,-3.24 0.5333,-1.68 1.3333,-3.24 2.12,-4.73333 0.4666,-0.92 0.9733,-1.86667 1.4,-2.89334 0.3866,-0.90666 0.72,-1.85333 1.0666,-2.82666 0.5467,-1.56 1.1067,-3.16 1.92,-4.81334 0.3734,-0.78666 0.6667,-1.84 0.9734,-2.93333 0.4133,-1.50667 0.88,-3.2 1.7333,-4.84 0.56,-1.06667 1.0667,-2.16 1.56,-3.22667 0.64,-1.34666 1.2933,-2.74666 2.0267,-4.08 1,-1.81333 2.2533,-3.21333 3.3466,-4.45333 0.68,-0.76 1.32,-1.48 1.6267,-2.01333 1.0133,-1.77334 1.2667,-2.46667 1.52,-3.21334 0.4133,-1.17333 0.8133,-2.21333 2,-4.14666 1.28,-2.09334 4.0133,-2.76 6.1067,-1.48 2.0933,1.28 2.7466,4.02666 1.4666,6.12 -0.7733,1.26666 -0.9333,1.73333 -1.1733,2.44 -0.4267,1.21333 -0.8933,2.41333 -2.2267,4.72 -0.76,1.32 -1.7333,2.41333 -2.68,3.48 -0.8666,0.97333 -1.68,1.89333 -2.2133,2.85333 -0.5867,1.06667 -1.1467,2.26667 -1.7333,3.53333 -0.56,1.2 -1.1334,2.4 -1.7467,3.6 -0.4267,0.78667 -0.7333,1.89334 -1.0533,3.06667 -0.3734,1.37333 -0.8,2.93333 -1.5467,4.45333 -0.5733,1.2 -1.04,2.49334 -1.52,3.88 -0.4133,1.16 -0.8133,2.29334 -1.28,3.38667 -0.5333,1.26667 -1.1467,2.44 -1.68,3.48 -0.64,1.21333 -1.24,2.36 -1.5333,3.32 -0.4134,1.29333 -0.88,2.53333 -1.3334,3.73333 -0.5333,1.36 -1.0266,2.65334 -1.32,3.81334 -0.84,3.30668 -1.64,5.95998 -2.5466,8.33328 -0.2134,0.5734 -0.4134,1.1334 -0.6,1.7067 -0.84,2.5067 -1.8,5.36 -4.28,7.5333 -1.9334,1.6934 -5.16,3.92 -9.5867,4.9067 -1.0533,0.24 -2.1333,0.3067 -3.2,0.3067"
       style="fill:#362421;fill-opacity:1;fill-rule:nonzero;stroke:none;stroke-width:0.133333" />
    <path
       id="path123"
       d="m 2223.5733,955.37338 c -2.08,0 -3.9334,-1.46666 -4.36,-3.58666 -0.2667,-1.36 -0.32,-2.72 -0.3734,-3.92 -0.053,-1.21334 -0.093,-2.37334 -0.3466,-3.26667 -0.2534,-0.88 -0.48,-1.77333 -0.72,-2.66667 -0.4,-1.54666 -0.7734,-3.01333 -1.2534,-4.4 -0.3466,-1 -0.6533,-2.02666 -0.9733,-3.04 -0.44,-1.41333 -0.8533,-2.74666 -1.3333,-4 -0.9067,-2.34666 -1.88,-4.65333 -2.8267,-6.86666 -0.5467,-1.29334 -1.1867,-2.58667 -1.8133,-3.82667 -0.4934,-0.98667 -0.9734,-1.93333 -1.4,-2.88 -0.4667,-1.02667 -1.16,-2 -1.8934,-3.04 -0.72,-1.04 -1.48,-2.10667 -2.0533,-3.29333 -0.76,-1.56 -1.1867,-2.44 -1.4933,-3.10667 -0.4934,-1.05333 -0.7067,-1.50667 -1.7734,-3.49333 -1.1466,-2.17334 -0.3333,-4.85334 1.8267,-6.01334 2.1733,-1.16 4.8667,-0.33333 6.0133,1.82667 1.1867,2.21333 1.4267,2.72 1.9734,3.89333 0.3066,0.64 0.7066,1.49334 1.44,2.98667 0.2666,0.56 0.7866,1.29333 1.3333,2.08 0.8933,1.25333 1.8933,2.69333 2.7067,4.46667 0.3866,0.85333 0.8266,1.70666 1.2666,2.58666 0.68,1.37334 1.3867,2.78667 2.0534,4.33334 0.9733,2.29333 1.9733,4.69333 2.92,7.13333 0.6,1.53333 1.08,3.09333 1.5466,4.58667 0.28,0.93333 0.5734,1.86666 0.88,2.77333 0.6,1.72 1.04,3.41333 1.4667,5.06667 0.2133,0.82666 0.4267,1.65333 0.6533,2.45333 0.5467,1.92 0.6134,3.73333 0.68,5.34667 0.04,0.96 0.08,1.86666 0.2134,2.56 0.48,2.41333 -1.0934,4.74666 -3.4934,5.22666 -0.2933,0.0533 -0.5866,0.08 -0.8666,0.08"
       style="fill:#362421;fill-opacity:1;fill-rule:nonzero;stroke:none;stroke-width:0.133333" />
    <path
       id="path124"
       d="m 2325.6133,999.77338 c -0.4534,0 -0.92,-0.0667 -1.3734,-0.21333 l -1.1866,-0.38667 c -1.9467,-0.65333 -1.9467,-0.65333 -4.88,-1.10666 l -1.1067,-0.17334 c -0.88,-0.14666 -2.08,-0.13333 -3.44,-0.10666 -1.2533,0.0133 -2.68,0.0267 -4.2133,-0.0667 -1.36,-0.0933 -2.9334,-0.0267 -4.5867,0.0533 -0.9867,0.04 -1.9867,0.08 -3.04,0.10667 -1.7867,0.0133 -3.4133,-0.41333 -4.8533,-0.8 -1.1467,-0.30667 -2.2134,-0.6 -2.9334,-0.53333 -2.44,0.25333 -4.6266,-1.53334 -4.88,-3.97334 -0.24,-2.44 1.5334,-4.62666 3.9734,-4.86666 2.36,-0.24 4.48,0.33333 6.1733,0.8 0.9067,0.24 1.8267,0.50666 2.36,0.48 0.96,-0.0133 1.8933,-0.0533 2.8,-0.0933 1.92,-0.0933 3.72,-0.17333 5.5733,-0.0533 1.1734,0.08 2.36,0.0667 3.5067,0.0533 1.6267,-0.0267 3.32,-0.04 4.96,0.21334 l 1.0933,0.17333 c 3.52,0.56 3.7467,0.61333 6.28,1.45333 l 1.16,0.37334 c 2.3334,0.76 3.6,3.26666 2.84,5.6 -0.6133,1.88 -2.3466,3.06666 -4.2266,3.06666"
       style="fill:#362421;fill-opacity:1;fill-rule:nonzero;stroke:none;stroke-width:0.133333" />
    <path
       id="path125"
       d="m 2183.7199,1020.3467 c -2.0666,0 -2.9866,-0.013 -3.9333,-0.027 -1,-0.013 -2.0267,-0.027 -4.52,-0.027 -1.9067,0 -3.68,-0.5334 -5.24,-1.0134 -1.2133,-0.36 -2.36,-0.7066 -3.24,-0.7066 -1.1733,0 -2.4667,0.1733 -3.8267,0.3733 -1.4933,0.2133 -3.04,0.4267 -4.64,0.4267 -2.56,0 -4.8266,-0.2534 -6.48,-0.44 -0.8,-0.08 -1.6266,-0.1734 -1.9733,-0.1734 -4.9067,0 -8.56,-1.6533 -11.1733,-5.04 -1.68,-2.1866 -3.7867,-5.8 -2.6667,-11.88 0.6267,-3.42662 1.4933,-6.95995 3.64,-9.55995 1.1467,-1.41333 2.2533,-2.26667 3.2667,-2.82667 -0.5467,-0.70666 -1.0934,-1.44 -1.6534,-2.25333 -1.08,-1.57333 -1.8666,-3.2 -2.5733,-4.62667 -0.4133,-0.86666 -0.8267,-1.69333 -1.28,-2.48 -0.48,-0.81333 -1.16,-1.62666 -1.88,-2.49333 -0.9867,-1.2 -2.1067,-2.56 -2.9067,-4.17333 -0.9733,-1.94667 -1.3733,-3.85334 -1.7333,-5.53334 -0.2,-0.92 -0.3867,-1.8 -0.6267,-2.42666 -1.16,-3.05334 -1.9066,-5.84 -2.4266,-7.93334 -0.76,-3.06666 -1.0534,-5.81333 -1.2667,-8.32 -0.24,-2.82666 0.1733,-5.14666 0.5067,-7.01333 0.093,-0.53333 0.1866,-1.04 0.2533,-1.53333 0.2,-1.50667 0.16,-2.26667 0.1333,-2.93334 -0.08,-2.16 0.16,-3.52 1.88,-6.26666 1.3067,-2.08 4.0534,-2.70667 6.1334,-1.4 2.08,1.30666 2.7066,4.05333 1.4,6.13333 -0.3067,0.49333 -0.4667,0.77333 -0.5467,0.92 0.013,0.08 0.013,0.16 0.013,0.25333 0.04,0.86667 0.093,2.18667 -0.2,4.44 -0.08,0.62667 -0.2,1.28 -0.32,1.94667 -0.28,1.56 -0.5466,3.04 -0.4,4.70667 0.1734,2 0.4,4.34666 1.04,6.93333 0.4667,1.84 1.12,4.29333 2.1067,6.89333 0.48,1.26667 0.76,2.53334 1.0133,3.74667 0.28,1.28 0.5334,2.49333 1,3.44 0.3467,0.69333 1.0534,1.56 1.8,2.46667 0.8534,1.02666 1.8267,2.2 2.6667,3.6 0.6133,1.04 1.1333,2.09333 1.6267,3.12 0.6266,1.26666 1.2133,2.46666 1.9333,3.52 0.7867,1.16 1.6,2.17333 2.5467,3.34666 0.5733,0.72 1.1733,1.48 1.8,2.29334 1.1066,1.44 1.2266,3.38666 0.3066,4.94666 -1.7866,3.05334 -3.8,3.82667 -5.5466,4.32 -0.6134,0.16 -0.68,0.18667 -1.2,0.81334 -0.8667,1.05333 -1.4,3.51998 -1.7734,5.53328 -0.48,2.68 0.1334,3.7467 0.9867,4.8534 0.7467,0.9733 1.6933,1.5733 4.12,1.5733 0.8533,0 1.7733,0.1067 2.96,0.24 1.5333,0.1733 3.44,0.3867 5.4933,0.3867 0.9734,0 2.1467,-0.1734 3.3867,-0.3467 1.5333,-0.2133 3.28,-0.4667 5.08,-0.4667 2.1867,0 4.12,0.5867 5.8133,1.0934 1.0267,0.32 2.08,0.64 2.6667,0.64 2.5467,0 3.6,0 4.6267,0.013 0.92,0.013 1.8133,0.027 3.8266,0.027 2.4534,0 4.44,1.9866 4.44,4.44 0,2.4533 -1.9866,4.4533 -4.44,4.4533"
       style="fill:#362421;fill-opacity:1;fill-rule:nonzero;stroke:none;stroke-width:0.133333" />
    <path
       id="path126"
       d="m 2122.8133,708.56006 c 0,2.42666 0.013,5.26666 -1.5734,6.85333 -1.5866,1.58667 -4.4266,2.36 -6.8533,2.36 -2.4133,0 -5.1867,-0.85333 -6.7733,-2.44 -1.5867,-1.58667 -1.0267,-4.34667 -1.0267,-6.77333 0,-2.41334 0.24,-4.38667 1.8267,-5.97334 1.5866,-1.58666 3.56,-2.46666 5.9733,-2.46666 2.4267,0 4.0667,1.2 5.6533,2.78666 1.5867,1.58667 2.7734,3.24 2.7734,5.65334"
       style="fill:#362421;fill-opacity:1;fill-rule:nonzero;stroke:none;stroke-width:0.133333" />
    <path
       id="path127"
       d="m 2206.3466,717.33339 c 0,2.41333 -0.093,5.08 -1.68,6.66667 -1.5867,1.58666 -4.2533,1.34666 -6.68,1.34666 -2.4133,0 -4.4933,-0.34666 -6.08,-1.93333 -1.5867,-1.58667 -3.6533,-3.66667 -3.6533,-6.08 0,-2.42667 2.3333,-4.24 3.92,-5.82667 1.5866,-1.58666 3.4,-3.32 5.8133,-3.32 2.4267,0 4.7333,1.25334 6.32,2.82667 1.5867,1.6 2.04,3.89333 2.04,6.32"
       style="fill:#362421;fill-opacity:1;fill-rule:nonzero;stroke:none;stroke-width:0.133333" />
    <path
       id="path128"
       d="m 2143.0533,752.57339 c -1.28,0 -2.7734,-0.32 -4.5734,-1.14667 -4.96,-2.28 -6.1066,-4.68 -7.1866,-7.81333 -0.3334,-0.96 -0.6667,-1.94667 -1.32,-3.22667 -1.12,-2.18666 -0.2667,-4.86666 1.92,-5.97333 2.1866,-1.12 4.8666,-0.26667 5.9866,1.92 0.9467,1.84 1.4534,3.30667 1.8134,4.38667 0.6133,1.76 0.6133,1.76 2.4933,2.62666 0.2933,0.13334 0.4933,0.21334 0.64,0.26667 0.1733,-0.10667 0.3733,-0.25333 0.5333,-0.36 0.8534,-0.6 2.0267,-1.41333 3.7467,-2.18667 1.8933,-0.86666 2.72,-1.37333 3.68,-1.94666 1.0533,-0.64 2.2533,-1.37334 4.6267,-2.44 2.2266,-1.02667 4.8666,-0.0267 5.88,2.2 1.0133,2.24 0.027,4.88 -2.2134,5.89333 -1.8933,0.85333 -2.72,1.36 -3.68,1.94667 -1.0533,0.64 -2.2533,1.36 -4.6266,2.44 -0.9734,0.44 -1.64,0.89333 -2.3467,1.38666 -1.56,1.09334 -3.1733,2.02667 -5.3733,2.02667"
       style="fill:#362421;fill-opacity:1;fill-rule:nonzero;stroke:none;stroke-width:0.133333" />
    <path
       id="path129"
       d="m 2140.1066,779.33339 c -2.1333,0 -4.0133,-1.52 -4.3733,-3.69334 -0.1467,-0.8 -0.48,-1.78666 -0.84,-2.81333 -0.7067,-2.04 -1.5067,-4.34667 -1.4267,-6.96 0.067,-2.6 0.5067,-5.05333 0.8933,-7.22666 0.1467,-0.81334 0.28,-1.6 0.3867,-2.34667 0.2933,-1.96 0.3467,-2.97333 0.4,-3.88 0.08,-1.68 0.2,-2.90667 0.9467,-5.70667 0.64,-2.36 3.08,-3.76 5.4533,-3.12 2.3733,0.64 3.7733,3.08 3.1333,5.45334 -0.5733,2.09333 -0.6,2.68 -0.6666,3.85333 -0.053,0.98667 -0.12,2.33333 -0.4667,4.69333 -0.12,0.82667 -0.28,1.69334 -0.44,2.58667 -0.3467,1.97333 -0.6933,4 -0.76,5.93333 -0.027,1 0.4533,2.37333 0.9467,3.81333 0.44,1.26667 0.9333,2.69334 1.2,4.21334 0.4133,2.42666 -1.2134,4.72 -3.6267,5.13333 -0.2533,0.0533 -0.52,0.0667 -0.76,0.0667"
       style="fill:#362421;fill-opacity:1;fill-rule:nonzero;stroke:none;stroke-width:0.133333" />
    <path
       id="path130"
       d="m 2279.6533,749.28006 c -0.3067,0 -0.64,-0.04 -0.96,-0.10667 -1.2534,-0.28 -2.5867,-0.42667 -3.9867,-0.6 -1.0267,-0.12 -2.0267,-0.22667 -3.0133,-0.38667 -1.1734,-0.2 -2.4134,-0.24 -3.7334,-0.28 -1.12,-0.0533 -2.2266,-0.0933 -3.3066,-0.2 l -1.72,-0.2 c -1.8667,-0.2 -3.64,-0.4 -5.28,-0.49333 -0.96,-0.0533 -1.8934,-0.12 -2.8,-0.18667 -1.52,-0.10666 -2.9467,-0.21333 -4.2267,-0.21333 -0.013,0 -0.013,0 -0.013,0 -1.2934,0 -2.6,0.2 -3.8534,0.4 -1.0266,0.16 -2.0666,0.32 -3.1333,0.37333 -2.4667,0.14667 -3.7067,-0.0133 -4.8667,-0.18666 -0.5866,-0.0933 -0.8133,-0.13334 -1.9866,0.0533 -2.4534,0.38667 -4.7067,-1.26667 -5.0934,-3.69333 -0.3733,-2.42667 1.28,-4.70667 3.7067,-5.08 2.36,-0.37334 3.5067,-0.25334 4.7467,-0.0667 0.6533,0.10667 1.2533,0.2 3,0.10667 0.7066,-0.04 1.4533,-0.17334 2.2666,-0.29334 1.52,-0.24 3.24,-0.49333 5.2134,-0.49333 h 0.013 c 1.6,0 3.1867,0.10667 4.88,0.24 0.8533,0.0533 1.72,0.12 2.6267,0.17333 1.8933,0.0933 3.7866,0.30667 5.7733,0.53334 l 1.6933,0.18666 c 0.88,0.0933 1.7734,0.12 2.6934,0.14667 1.4533,0.0533 3.1066,0.12 4.8266,0.4 0.8534,0.13333 1.72,0.22667 2.6134,0.33333 1.56,0.18667 3.1733,0.37334 4.88,0.74667 2.4,0.53333 3.9066,2.89333 3.3733,5.29333 -0.4533,2.08 -2.2933,3.49334 -4.3333,3.49334"
       style="fill:#362421;fill-opacity:1;fill-rule:nonzero;stroke:none;stroke-width:0.133333" />
    <path
       id="path131"
       d="m 2279.7999,778.90672 c -0.5866,0 -1.1866,-0.10667 -1.76,-0.36 -1.4666,-0.62667 -3.04,-1.18667 -4.5733,-1.72 -0.6933,-0.25333 -1.3867,-0.49333 -2.0533,-0.73333 -1.2267,-0.45334 -2.3334,-0.96 -3.4,-1.45334 -1.1334,-0.52 -2.2,-1 -3.16,-1.29333 -0.7734,-0.24 -1.8267,-0.28 -2.9467,-0.33333 -1.2667,-0.04 -2.7067,-0.10667 -4.1733,-0.46667 -2.1067,-0.53333 -4.1334,-0.90667 -6.08,-1.28 l -0.8,-0.16 c -1.28,-0.24 -2.6,-0.29333 -3.8667,-0.33333 -1.0267,-0.04 -2.0933,-0.08 -3.1333,-0.21334 l -1.4,-0.18666 c -2.3867,-0.33334 -2.3867,-0.33334 -4.2934,-0.38667 l -1.04,-0.04 c -2.4533,-0.08 -4.3733,-2.13333 -4.2933,-4.58667 0.08,-2.45333 2.1733,-4.38666 4.6,-4.29333 l 1.0133,0.04 c 2.2934,0.0667 2.44,0.08 5.2,0.45334 l 1.3867,0.18666 c 0.6133,0.08 1.4267,0.10667 2.2667,0.14667 1.5466,0.0533 3.28,0.10667 5.24,0.48 l 0.7866,0.16 c 1.9734,0.37333 4.2134,0.8 6.56,1.38666 0.5867,0.14667 1.4667,0.18667 2.4,0.21334 1.5467,0.0667 3.3067,0.14666 5.1734,0.70666 1.52,0.46667 2.9066,1.10667 4.2533,1.72 0.96,0.44 1.8667,0.85334 2.7467,1.18667 0.6533,0.22667 1.3066,0.46667 1.96,0.69333 1.6666,0.58667 3.4,1.18667 5.1466,1.94667 2.2534,0.97333 3.2934,3.58667 2.32,5.84 -0.72,1.68 -2.36,2.68 -4.08,2.68"
       style="fill:#362421;fill-opacity:1;fill-rule:nonzero;stroke:none;stroke-width:0.133333" />
    <path
       id="path132"
       d="m 2044.5466,755.06672 c -1.68,0 -3.28,-0.94666 -4.0267,-2.56 -1.0533,-2.22666 -0.093,-4.86666 2.1334,-5.90666 2.84,-1.33334 5.6533,-2.29334 8.1333,-3.13334 l 0.9467,-0.33333 c 2.5466,-0.86667 4.9466,-1.68 7.36,-2.22667 2.8,-0.62666 5.4266,-0.92 7.5466,-1.14666 l 1.0534,-0.12 c 3.8,-0.42667 4.6,-0.42667 6.6933,-0.24 0.5467,0.0533 1.2267,0.12 2.24,0.17333 2.4533,0.14667 4.32,2.24 4.1733,4.69333 -0.1333,2.45334 -2.2,4.34667 -4.6933,4.18667 -1.1333,-0.0667 -1.9067,-0.14667 -2.52,-0.2 -1.3867,-0.12 -1.64,-0.14667 -4.8933,0.22667 l -1.1067,0.12 c -1.9867,0.21333 -4.24,0.45333 -6.5467,0.97333 -1.9466,0.44 -4.12,1.18667 -6.4266,1.97333 l -0.9734,0.33334 c -2.36,0.8 -4.8133,1.64 -7.2133,2.76 -0.6133,0.29333 -1.2533,0.42666 -1.88,0.42666"
       style="fill:#362421;fill-opacity:1;fill-rule:nonzero;stroke:none;stroke-width:0.133333" />
    <path
       id="path133"
       d="m 2049.6133,784.29339 c -1.2934,0 -2.5867,-0.56 -3.4534,-1.65334 -1.5466,-1.90666 -1.2533,-4.70666 0.6534,-6.24 0.6666,-0.54666 1.32,-1.09333 1.96,-1.62666 1.5866,-1.33334 3.2133,-2.72 4.9866,-3.86667 1.92,-1.25333 3.8934,-1.92 5.64,-2.50667 0.96,-0.32 1.8667,-0.62666 2.5067,-0.96 2.2667,-1.16 4.3733,-1.90666 6.2267,-2.56 0.6666,-0.24 1.2933,-0.45333 1.88,-0.69333 1.68,-0.64 2.2,-1.05333 2.8133,-1.52 1.2667,-0.97333 2.56,-1.82666 5.5067,-2.41333 2.4133,-0.46667 4.7466,1.10667 5.2133,3.50666 0.48,2.41334 -1.0933,4.74667 -3.5067,5.21334 -1.1333,0.22666 -1.2266,0.30666 -1.7866,0.73333 -0.8534,0.66667 -2.16,1.66667 -5.04,2.77333 -0.6667,0.26667 -1.3734,0.52 -2.12,0.77334 -1.6667,0.58666 -3.3867,1.2 -5.12,2.09333 -1.24,0.64 -2.52,1.06667 -3.7467,1.48 -1.36,0.45333 -2.64,0.89333 -3.6133,1.52 -1.3067,0.85333 -2.6667,2 -4.1067,3.21333 -0.6933,0.58667 -1.3867,1.17334 -2.1067,1.74667 -0.8133,0.66667 -1.8,0.98667 -2.7866,0.98667"
       style="fill:#362421;fill-opacity:1;fill-rule:nonzero;stroke:none;stroke-width:0.133333" />
  </g>
</svg>
