<?xml version="1.0" encoding="UTF-8" standalone="no"?>
<!-- Created with Inkscape (http://www.inkscape.org/) -->

<svg
   version="1.1"
   id="svg1"
   width="481.27524"
   height="478.98138"
   viewBox="0 0 481.27523 478.98139"
   xmlns="http://www.w3.org/2000/svg"
   xmlns:svg="http://www.w3.org/2000/svg">
  <defs
     id="defs1" />
  <g
     id="g1"
     transform="translate(-255.05306,-541.25872)">
    <path
       id="path2"
       d="M 2666.6666,2962.96 H 0 V 7.4074e-5 H 2666.6666 V 2962.96"
       style="display:none;fill:#fef5e6;fill-opacity:1;fill-rule:nonzero;stroke:none;stroke-width:0.133333" />
    <path
       id="path3"
       d="m 615.16398,918.40005 c 0,0 5.24667,-15.34667 31.608,-9.57333 26.36,5.78666 44.136,11.46666 55.11734,-4.61334 10.98133,-16.09333 17.788,-22.49333 15.38666,-40.67999 -2.40133,-18.17334 -11.73733,-27.66667 -12.76933,-29.64 -1.032,-1.97334 -5.26667,-21.58667 -5.26667,-21.58667 0,0 3.00267,-14.32 9.08534,-19.13333 6.084,-4.8 17.38266,-9.70667 17.38266,-9.70667 l 5.32,3.02667 v 2.68 l -13.664,8.92 -6.74133,9 0.63333,13.44 6.14,11.30666 9.34534,14.88 4.89333,13.70667 v 18.16 l -5.97867,19.48 -8.61733,14.34666 -9.29867,8.97334 -15.056,8.26666 -11.692,3.10667 -18.316,0.82667 -13.88933,-3.98667 -16.836,0.50667 -16.78667,5.68 v -17.38667"
       style="fill:#fbc9d2;fill-opacity:1;fill-rule:nonzero;stroke:none;stroke-width:0.133333" />
    <path
       id="path4"
       d="m 658.84532,1001.36 c -1.52,-1.53328 -2.87734,-3.95995 -5.232,-5.41328 -1.956,-1.2 -4.464,-1.97334 -6.92,-2.96 -2.188,-0.88 -4.53334,-1.96 -7.06667,-2.54667 -2.29067,-0.52 -4.552,-0.70667 -6.65067,-1.30667 -2.24933,-0.64 -4.72266,-0.26666 -6.81466,-0.92 -2.21867,-0.70666 -3.92267,-2.84 -6.04267,-3.46666 -2.19867,-0.65334 -4.496,-0.88 -6.67733,-1.37334 -2.05067,-0.46666 -4.15867,-0.64 -6.27734,-0.86666 1.42934,-1.97334 2.07067,-4.45334 3.364,-6.42667 1.37734,-2.10667 3.87067,-3.49333 5.052,-5.62667 1.212,-2.2 0.84,-5.14666 1.85467,-7.37333 1.036,-2.28 3.21733,-4.04 4.05867,-6.34667 0.85333,-2.34666 0.99733,-4.90666 1.66133,-7.28 0.66933,-2.38666 1.76133,-4.68 2.248,-7.10666 0.48933,-2.42667 1.156,-4.85334 1.47467,-7.30667 0.31733,-2.45333 -0.74134,-5.04 -0.584,-7.52 0.156,-2.46667 1.172,-4.89333 1.18,-7.37333 0.009,-2.46667 -1.004,-4.90667 -1.12934,-7.38667 -0.124,-2.46667 0.20934,-4.94667 -0.036,-7.42667 -0.244,-2.45333 -0.26933,-4.93333 -0.62133,-7.4 -0.34933,-2.43999 -0.168,-4.98666 -0.612,-7.42666 -0.44133,-2.42667 -1.444,-4.77333 -1.96933,-7.2 -0.52134,-2.41333 -0.384,-5 -0.97734,-7.41333 -0.592,-2.38667 -2.69333,-4.41334 -3.34666,-6.8 -0.65067,-2.38667 -1.404,-4.73334 -2.10534,-7.10667 -0.70133,-2.37333 -0.66133,-4.97333 -1.40266,-7.33333 -0.74134,-2.36 -1.00134,-4.89334 -1.77334,-7.24 -0.77466,-2.36 -1.53333,-4.72 -2.328,-7.06667 -0.79866,-2.34667 -2.196,-4.48 -3.00266,-6.81333 -0.816,-2.34667 -1.20134,-4.84 -2.01467,-7.16 -0.82133,-2.36 -2.91067,-4.25334 -3.71867,-6.57334 -0.82133,-2.34666 -1.42266,-4.76 -2.21733,-7.08 -0.83466,-2.44 -0.572,-5.16 -1.24933,-7.52 -0.708,-2.46666 -2.66267,-4.56 -3.22133,-6.96 -0.57867,-2.49333 -0.36267,-5.13333 -0.80534,-7.56 -0.45466,-2.50666 -0.42266,-5.05333 -0.75866,-7.50666 -0.344,-2.52 -0.864,-4.97334 -1.10934,-7.45334 -0.24933,-2.52 0.53467,-5.09333 0.35734,-7.57333 -0.17867,-2.52 -0.564,-5 -0.70134,-7.49333 -0.136,-2.50667 -0.12666,-5.01333 -0.24933,-7.52 -0.12267,-2.49333 -1.27333,-4.94667 -1.41333,-7.46667 -0.13734,-2.49333 0.22933,-5.02666 0.0467,-7.54666 -0.18,-2.48 -1.03066,-4.92 -1.28,-7.44 -0.244,-2.46667 0.66,-5.10667 0.324,-7.64 -0.32666,-2.44 -0.864,-4.93334 -1.3,-7.45334 -0.42133,-2.42666 -1.08266,-4.88 -1.62666,-7.38666 -0.52267,-2.4 -0.808,-4.94667 -1.46134,-7.42667 -0.62666,-2.37333 -2.376,-4.49333 -3.13866,-6.94667 -0.72934,-2.34666 -1.64934,-4.66666 -2.51734,-7.09333 -0.82666,-2.30667 -0.70666,-5.05333 -1.672,-7.44 -0.91866,-2.26667 -2.92,-4.14667 -3.97466,-6.49333 -1.004,-2.24 -2.45067,-4.32 -3.588,-6.62667 -0.876,-1.77333 -1.51467,-3.72 -2.36267,-5.6 h 14.98667 l 25.98933,-0.92 17.15866,-5.49333 10.70534,-7 9.98533,-11.50667 7.39333,-17.54666 2.324,-17.90667 -1.52133,-21.04 -4.93067,-21.42667 -8.28666,-10.05333 -4.61334,-2.50667 h -11.056 l -16.08933,3.97334 -16.26533,7.38666 -18.22667,13.72 -15.91733,17.54667 -20.99467,32.58667 c -0.80133,-0.98667 -1.60266,-1.96 -2.53066,-2.77334 -1.928,-1.70666 -4.212,-2.8 -6.136,-4.25333 -2.04534,-1.56 -3.57334,-3.68 -5.6,-4.98667 -2.16134,-1.4 -3.93734,-3.37333 -6.05867,-4.52 -2.27333,-1.22666 -4.65333,-2.18666 -6.86,-3.14666 -2.37467,-1.04 -4.688,-2.17334 -6.95867,-2.93334 -2.47066,-0.84 -5.05466,-1.10666 -7.368,-1.66666 -2.56266,-0.61334 -5.06,-1.08 -7.38133,-1.41334 -2.66533,-0.38666 -5.23733,0.08 -7.51733,-0.0267 -2.83867,-0.14667 -5.31867,0.04 -7.432,0.14666 -4.67867,0.24 -3.752,-0.24 -7.45734,0.22667 -2.31199,0 -4.68799,1.22667 -7.28266,1.4 -2.348,0.14667 -4.936,-1.17333 -7.47467,-0.86667 -2.36133,0.28 -4.632,1.78667 -7.128,2.22667 -2.36,0.41333 -5.07866,-0.53333 -7.532,0.0267 -2.348,0.54666 -4.40533,2.48 -6.81466,3.17333 -2.32267,0.66667 -4.688,1.29333 -7.048,2.12 -2.28934,0.8 -4.85467,1 -7.15867,1.94667 -2.244,0.93333 -4.68667,1.6 -6.928,2.68 -2.188,1.06666 -4.31467,2.41333 -6.484,3.64 -2.12133,1.18666 -4.44533,2.2 -6.53467,3.56 -2.04133,1.32 -3.20666,3.97333 -5.204,5.46666 -1.952,1.45334 -3.71333,3.12 -5.60933,4.73334 -1.85333,1.57333 -4.06667,2.76 -5.85333,4.49333 -1.168,1.13333 -2.176,2.42666 -3.21467,3.72 l -30.432,-34.81333 -19.97733,-17.46667 -16.51733,-10.22667 -15.63067,-3.10666 -11.12267,5.96 -6.93733,8.8 -4.256,7.82666 -3.764,8.52 c 0,0 -13.36267,23.50667 -8.84267,52.36 0,0 5.924,30.88 38.45867,36.05333 l 19.544,0.66667 12.976,-2.77333 18.03066,-3.4 c -0.53866,1.65333 -1.064,3.29333 -1.516,4.89333 -0.71466,2.53333 -1.03466,5.08 -1.60266,7.45333 -0.60934,2.56 0.10266,5.28 -0.352,7.68 -0.48934,2.57334 -1.05334,4.98667 -1.37867,7.41334 -0.35067,2.6 -1.456,5 -1.64,7.44 -0.196,2.6 0.57067,5.13333 0.54,7.58666 -0.032,2.6 -1.352,5.14667 -1.22667,7.61334 0.132,2.57333 0.6,5.09333 0.872,7.56 0.28134,2.56 0.83334,5.04 1.22534,7.50666 0.40133,2.50667 0.40666,5.08 0.88133,7.54667 0.47867,2.49333 1.11333,4.93333 1.624,7.42667 0.50533,2.45333 1.45867,4.82666 1.956,7.33333 0.484,2.44 0.96133,4.92 1.39867,7.45333 0.42266,2.44 1.14533,4.88 1.488,7.44 0.32666,2.45333 0.704,4.96 0.928,7.54667 0.21066,2.45333 -1.00667,5.04 -0.91467,7.64 0.0867,2.45333 1.09467,4.94666 1.05333,7.54666 -0.0387,2.45334 -0.172,4.97334 -0.34133,7.58667 -0.15867,2.44 -1.01467,4.89333 -1.30267,7.49333 -0.26933,2.42667 0.32134,5.05334 -0.0747,7.64 -0.37867,2.48 -0.776,4.94667 -1.23067,7.34667 -0.46533,2.46667 -1.09467,4.88 -1.62267,7.26667 -0.54266,2.46666 -1.812,4.70666 -2.40533,7.09333 -0.60667,2.42667 -1.028,4.88 -1.66933,7.24 -0.65867,2.42667 -1.08,4.88 -1.756,7.24 -0.69334,2.41333 -2.06134,4.6 -2.75334,6.94667 -0.70933,2.41333 -1.32266,4.81333 -2.00933,7.16 -0.70667,2.41333 -0.47067,5.06666 -1.12933,7.41333 -0.67734,2.42667 -1.38,4.8 -1.98134,7.16 -0.61866,2.44 -1.22799,4.82666 -1.73733,7.22666 -0.52533,2.45334 -1.408,4.81334 -1.78533,7.22667 -0.388,2.48 -0.33467,4.97333 -0.53467,7.41333 -0.20266,2.49334 -0.54,4.96 -0.512,7.41334 0.028,2.48 -0.6,5.05333 -0.30133,7.52 0.296,2.44 2.176,4.62666 2.772,7.05333 0.57867,2.37333 0.58533,4.93333 1.48,7.29333 0.852,2.25334 2.392,4.26667 3.55866,6.53334 1.09467,2.13333 2.52267,4.09333 3.92,6.24 1.30134,2 2.772,3.90666 4.35334,5.93333 1.46933,1.88 1.82,4.82667 3.54666,6.73333 1.604,1.76 4.34934,2.57334 6.188,4.36 1.712,1.68 2.50267,4.48 4.428,6.17334 1.8,1.58666 5.12534,2.78666 7.12,4.4 -1.29866,3.48 -3.896,-0.4 -8.208,0.74666 -2.09733,0.56 -4.28933,2.13334 -6.908,2.86667 -2.28,0.64 -4.64533,1.48 -7.08933,2.21333 -2.37733,0.69334 -4.656,1.8 -6.988,2.53334 -2.46933,0.78666 -4.87733,1.46666 -7.068,2.24 -2.65333,0.94666 -5.39866,0.94666 -7.26266,1.81333 -2.604,1.21333 -4.152,3.22666 -5.72667,4.31996 -2.67333,1.88 -4.87467,3.16 -5.05067,5.04 -0.18133,1.96 1.23734,4.44 3.06267,6.8667 3.28267,1.7333 2.972,-0.96 7.60533,-0.96 2.12,0 4.62534,1.52 7.428,1.52 2.29467,0 4.78667,-0.1733 7.42933,-0.1733 2.368,0 4.85734,-0.3334 7.42934,-0.3334 2.41466,0 4.90266,-0.1866 7.43466,-0.1866 2.444,0 4.92934,-1.0934 7.42934,-1.0934 2.47333,0 4.96,1.16 7.43733,1.16 2.49867,0 4.98533,0.1467 7.436,0.1467 2.53067,0 5.02133,0.2267 7.44267,0.2267 2.56933,0 5.06,0.1333 7.43733,0.1333 2.632,0 5.12667,0.04 7.436,0.04 2.77067,0 5.27467,-1.1867 7.42933,-1.1867 3.528,0 6.12267,-0.52 7.42667,-0.52 2.90267,0 4.37067,-0.6266 5.288,-2.6533 0.884,-1.9333 2.01867,-4.3867 1.90933,-6.7067 -0.172,-3.6133 -3.47333,-3.6933 -1.34133,-6.41329 2.396,-3.04 2.14933,0.84 6.924,2.09333 2.11467,0.55996 4.78267,0.59996 7.67333,1.25336 2.30667,0.52 4.62667,2.1466 7.36934,2.6666 2.392,0.4534 5.18,-0.4133 7.868,0.013 2.44533,0.4 4.93333,1.2 7.596,1.5333 2.48,0.3333 5.02133,0.88 7.66933,1.1467 2.508,0.24 5.132,-0.1467 7.772,0.027 2.528,0.1734 5.08133,0.7734 7.716,0.8667 2.54266,0.08 5.132,0.6933 7.75866,0.6933 2.492,0 4.93867,-1.1333 7.37734,-1.2533 2.496,-0.12 5.00133,0.3467 7.42666,0.1067 2.496,-0.2267 5.032,0.013 7.436,-0.32 2.49467,-0.3467 4.89067,-1.1467 7.26667,-1.5734 2.49467,-0.4533 4.94,-0.8933 7.28267,-1.4 2.496,-0.56 4.62533,-2.2533 6.92266,-2.84 2.50934,-0.65329 5.092,-0.5466 7.32934,-1.21329 2.54933,-0.76 5.16666,-0.76 7.31333,-1.48 2.668,-0.89334 4.53067,-3.08 6.48667,-3.82667 4.36533,-1.66667 5.56933,-5.69333 6.46133,-2.10667 0.95067,3.81334 -0.81333,3.30667 -2.31333,7.13334 -0.99734,2.54669 -1.524,5.09329 -1.428,7.38669 0.11333,2.6666 0.632,5.5866 4.32266,5.5866 3.80134,0 2.85467,-1.6533 7.60134,-1.6533 2.17066,0 4.736,1.5733 7.60533,1.5733 2.35067,0 4.904,-0.3333 7.61067,-0.3333 2.42533,0 4.97466,-0.08 7.60933,-0.08 2.47067,0 5.01867,-0.36 7.612,-0.36 2.50267,0 5.04666,0.2133 7.608,0.2133 2.53066,0 5.07733,0.28 7.61333,0.28 2.55733,0 5.104,0.3867 7.61333,0.3867 2.59067,0 5.14,-0.8667 7.62134,-0.8667 2.62666,0 5.176,-0.1333 7.61333,-0.1333 2.68933,0 5.24267,0.4667 7.612,0.4667 2.82533,0 5.38933,-1.3867 7.61333,-1.3867 3.45334,0 6.088,1.28 7.604,1.28 3.83334,0 4.708,-1.76 4.604,-3.9467 -0.0853,-1.7866 -0.76533,-3.8666 -3.02266,-6.16"
       style="fill:#bcb5b8;fill-opacity:1;fill-rule:nonzero;stroke:none;stroke-width:0.133333" />
    <path
       id="path5"
       d="m 413.41332,890.57339 30.072,-8.2 6.988,15.15999 -4.40666,1.77334 -6.81467,-4.48 -4.596,7.82666 -4.68,-5.89333 -6.028,5.13333 -10.53467,-11.31999"
       style="fill:#fbc9d2;fill-opacity:1;fill-rule:nonzero;stroke:none;stroke-width:0.133333" />
    <path
       id="path6"
       d="m 540.88132,890.57339 -30.07333,-8.2 -6.988,15.15999 4.40666,1.77334 6.816,-4.48 4.596,7.82666 4.67867,-5.89333 6.028,5.13333 10.536,-11.31999"
       style="fill:#fbc9d2;fill-opacity:1;fill-rule:nonzero;stroke:none;stroke-width:0.133333" />
    <path
       id="path7"
       d="m 458.30932,742.90672 12.85067,-2.21333 h 7.232 v 6.64 l -4.25067,6.97333 c 0,0 -4.23333,5.56 -11.21866,0 -6.98534,-5.57333 -4.61334,-11.4 -4.61334,-11.4"
       style="fill:#fbc9d2;fill-opacity:1;fill-rule:nonzero;stroke:none;stroke-width:0.133333" />
    <path
       id="path8"
       d="m 337.48399,994.30672 c 0,0 10.06,-2.70667 22.71067,19.05328 l -29.72267,1.7867 c 0,0 -12.556,2.1867 -14.85066,-0.9067 -2.29334,-3.0933 -2.652,-9.1866 -2.652,-9.1866 l 7.06266,-4.6 17.452,-6.14668"
       style="fill:#fbc9d2;fill-opacity:1;fill-rule:nonzero;stroke:none;stroke-width:0.133333" />
    <path
       id="path9"
       d="m 353.79199,649.81339 c 0,0 -26.80933,-40.93333 -52.05866,-39.86666 0,0 -19.61334,2.81333 -24.75867,22.46666 -9.332,35.62667 17.54533,71.10667 73.42933,47.14667 l 8.85067,-21.18667 -5.46267,-8.56"
       style="fill:#f9b1be;fill-opacity:1;fill-rule:nonzero;stroke:none;stroke-width:0.133333" />
    <path
       id="path10"
       d="m 559.37065,644.09339 14.26134,-23.65333 19.45866,-18.17333 16.276,-8.54667 20.8,2.50667 10.81467,9.05333 1.34,5.09333 c 0,0 6.08,42.14667 -50.732,50.64 l -23.82267,-2.62667 -8.396,-14.29333"
       style="fill:#f9b1be;fill-opacity:1;fill-rule:nonzero;stroke:none;stroke-width:0.133333" />
    <path
       id="path11"
       d="m 639.48665,991.05338 c 0,0 -13.888,7.73334 -17.36667,20.48002 l 22.416,-0.3867 16.316,-0.6533 v -6.48 l -21.36533,-12.96002"
       style="fill:#fbc9d2;fill-opacity:1;fill-rule:nonzero;stroke:none;stroke-width:0.133333" />
    <path
       id="path12"
       d="m 431.66266,766.06672 c 0.196,2.45333 0.22666,5.09333 -0.31467,7.36 -0.56,2.34667 -1.848,4.66667 -3.08267,6.68 -1.24666,2.04 -3.90133,2.86667 -5.71333,4.41333 -1.79333,1.54667 -3.588,2.66667 -5.81733,3.58667 -2.15067,0.90667 -4.15467,1.96 -6.60267,2.16 -2.44667,0.2 -5.03333,1.30667 -7.3,0.76 -2.348,-0.56 -4.32267,-2.45333 -6.33867,-3.69333 -2.036,-1.25334 -3.89866,-2.77334 -5.45333,-4.58667 -1.53867,-1.78667 -2.71333,-3.88 -3.64,-6.10667 -0.89333,-2.14666 -1.52533,-4.44 -1.72133,-6.89333 -0.196,-2.44 -0.0973,-4.85333 0.444,-7.12 0.56,-2.34666 2.21333,-4.14666 3.44666,-6.16 1.24667,-2.04 2.30267,-4.09333 4.11467,-5.65333 1.79333,-1.53333 3.84533,-2.6 6.07467,-3.53333 2.15066,-0.89334 4.30666,-2.05334 6.75466,-2.25334 2.44667,-0.18666 4.704,0.85334 6.96934,1.38667 2.348,0.56 4.57466,1.09333 6.59066,2.33333 2.036,1.24 3.95867,2.61334 5.51334,4.42667 1.53866,1.78667 2.08533,4.10667 3.012,6.34667 0.89333,2.14666 2.868,4.10666 3.064,6.54666"
       style="fill:#d9a1ac;fill-opacity:1;fill-rule:nonzero;stroke:none;stroke-width:0.133333" />
    <path
       id="path13"
       d="m 556.47999,756.08006 c 0.196,2.45333 -0.44667,4.68 -0.98667,6.93333 -0.56,2.36 -0.0867,5.2 -1.32133,7.21333 -1.24534,2.04 -3.14934,3.89333 -4.96134,5.45333 -1.79333,1.53334 -4.444,1.86667 -6.67333,2.8 -2.15067,0.89334 -4.34,1.4 -6.78667,1.6 -2.448,0.2 -4.92,1 -7.18533,0.46667 -2.348,-0.56 -4.82267,-1.38667 -6.83867,-2.62667 -2.036,-1.24 -3.42533,-3.48 -4.97866,-5.28 -1.53867,-1.8 -3.248,-3.62666 -4.17467,-5.86666 -0.89333,-2.14667 -0.648,-4.66667 -0.844,-7.10667 -0.196,-2.45333 -0.056,-4.72 0.484,-6.97333 0.56,-2.34667 0.41467,-5.08 1.648,-7.10667 1.24667,-2.02666 2.85733,-4.18666 4.668,-5.73333 1.79467,-1.54667 4.548,-1.89333 6.77733,-2.81333 2.15067,-0.89334 4.35467,-2.26667 6.80267,-2.46667 2.44667,-0.2 5.10267,-0.28 7.368,0.25333 2.348,0.56 4.16133,2.70667 6.17733,3.93334 2.036,1.25333 4.172,2.4 5.72534,4.21333 1.53866,1.8 3.32933,3.68 4.256,5.90667 0.89333,2.14666 0.648,4.76 0.844,7.2"
       style="fill:#d9a1ac;fill-opacity:1;fill-rule:nonzero;stroke:none;stroke-width:0.133333" />
    <path
       id="path14"
       d="m 672.88532,938.24005 c -1.61867,0 -3.17734,-0.13333 -4.69734,-0.25333 -0.568,-0.04 -1.136,-0.08 -1.704,-0.12 -1.95733,-0.13334 -3.68266,-0.68 -5.20266,-1.14667 -0.868,-0.28 -1.688,-0.53333 -2.42534,-0.66667 -0.884,-0.2 -1.756,-0.25333 -2.67733,-0.32 -1.22267,-0.0933 -2.60667,-0.18666 -4.036,-0.54666 -1.10933,-0.28 -2.3,-0.45334 -3.56,-0.62667 -0.84267,-0.12 -1.68,-0.22667 -2.50533,-0.37333 -0.66,-0.12 -1.31334,-0.26667 -1.96667,-0.41334 -1.35467,-0.29333 -2.52,-0.58666 -3.59067,-0.53333 -0.148,0.0133 -0.532,0.0133 -0.98533,0.0267 -1.39333,0.0267 -3.49733,0.0667 -5.41867,0.38666 -2.85733,0.48 -5.01866,1.13334 -5.492,1.36 -2.08133,1.30667 -4.75066,0.62667 -6.05333,-1.45333 -1.3,-2.08 -0.596,-4.85333 1.48667,-6.16 2.16533,-1.36 7.11866,-2.26667 8.58533,-2.50667 2.568,-0.44 5.17067,-0.48 6.724,-0.50666 0.36267,-0.0133 0.66933,-0.0133 0.904,-0.0267 2.224,-0.0267 4.08267,0.37333 5.728,0.73333 0.548,0.12 1.09733,0.24 1.64933,0.34667 0.70534,0.12 1.42267,0.21333 2.14667,0.32 1.452,0.2 2.95333,0.4 4.55467,0.81333 0.644,0.16 1.51733,0.22667 2.44266,0.29334 1.156,0.08 2.46667,0.17333 3.86134,0.48 1.10133,0.2 2.26,0.57333 3.28133,0.89333 1.15067,0.34667 2.23467,0.69333 3.13733,0.74667 0.60667,0.0533 1.21334,0.0933 1.82,0.14666 1.76534,0.13334 3.432,0.26667 4.99734,0.18667 1.38933,-0.0667 2.876,-0.36 4.452,-0.68 0.76133,-0.14667 1.52266,-0.29333 2.284,-0.42667 2.3,-0.38666 4.624,-1.04 6.596,-1.61333 1.04266,-0.30667 2.16,-0.89333 3.34266,-1.50667 0.91734,-0.46666 1.83734,-0.94666 2.788,-1.34666 1.06667,-0.46667 2.092,-0.8 3.08534,-1.13334 1.216,-0.4 2.36533,-0.77333 3.236,-1.28 0.84533,-0.49333 1.71733,-1.30666 2.64,-2.17333 0.77333,-0.72 1.572,-1.46667 2.50666,-2.18667 0.61867,-0.48 1.248,-0.93333 1.876,-1.38666 1.24934,-0.90667 2.43067,-1.74667 3.38267,-2.70667 0.98933,-1.01333 2.08133,-1.81333 3.04267,-2.52 0.92666,-0.68 1.80133,-1.32 2.24533,-1.90667 0.628,-0.84 1.16,-1.98666 1.72267,-3.2 0.44133,-0.96 0.89733,-1.94666 1.46533,-2.93333 0.404,-0.70667 0.82933,-1.4 1.256,-2.10667 0.832,-1.34666 1.61733,-2.64 2.15333,-3.89333 0.52934,-1.25333 0.91467,-2.68 1.324,-4.18666 0.22267,-0.82667 0.44667,-1.65334 0.69467,-2.46667 0.376,-1.22667 0.6,-2.61333 0.83867,-4.08 0.15066,-0.92 0.30266,-1.84 0.49066,-2.76 0.27867,-1.36 0.71867,-2.61333 1.10534,-3.73333 0.39466,-1.12 0.76666,-2.18667 0.87466,-3.08 0.14667,-1.24 0.084,-2.69334 0.0173,-4.21334 -0.036,-0.85333 -0.072,-1.69333 -0.0787,-2.54666 -0.02,-2.68 -0.148,-4.82667 -0.4,-6.72 -0.29067,-2.17334 -0.62133,-4.48 -1.19733,-6.61334 -0.35867,-1.32 -1.00134,-2.70666 -1.68,-4.16 -0.304,-0.65333 -0.60534,-1.32 -0.89067,-1.97333 -0.37867,-0.86667 -1.08133,-1.77333 -1.89467,-2.81333 -0.61333,-0.78667 -1.248,-1.58667 -1.85066,-2.53334 -0.036,-0.0533 -0.0707,-0.10666 -0.104,-0.16 -0.524,-0.90666 -0.98,-1.84 -1.42934,-2.77333 -0.50266,-1.02667 -0.976,-2.01333 -1.51066,-2.78667 l -1.24667,-1.77333 c -0.87733,-1.25333 -1.748,-2.49333 -2.588,-3.74667 -1.04133,-1.54666 -1.632,-3.13333 -2.15467,-4.53333 -0.28133,-0.76 -0.548,-1.48 -0.83733,-2.04 -1.28533,-2.53333 -2.14133,-4.78667 -2.69467,-7.09333 -0.15733,-0.64 -0.36533,-1.29334 -0.568,-1.94667 -0.66,-2.09333 -1.40533,-4.46667 -1.092,-7.13333 0.34934,-2.96 1.748,-5.33334 2.984,-7.41334 0.244,-0.41333 0.488,-0.82666 0.716,-1.24 1.37067,-2.45333 3.26,-4.64 5.94534,-6.88 0.27866,-0.24 0.648,-0.6 1.02,-0.94666 0.66266,-0.62667 1.372,-1.30667 2.17066,-1.94667 -0.75466,0.36 -1.46133,0.74667 -2.088,1.17333 -1.588,1.10667 -2.972,2.46667 -4.48533,4.01334 -0.80933,0.82666 -1.67333,1.52 -2.43467,2.13333 -0.88133,0.69333 -1.71466,1.36 -2.07333,1.93333 -0.632,1.02667 -1.06267,2.45334 -1.51733,3.97334 -0.16267,0.54666 -0.324,1.08 -0.49734,1.61333 -0.29466,0.90667 -0.31066,2.12 -0.328,3.52 -0.008,0.73333 -0.02,1.46667 -0.0613,2.21333 -0.02,0.34667 -0.0813,0.69334 -0.18267,1.02667 l -1.02666,3.41333 c 0.112,1.42667 0.112,2.76 0.0973,3.50667 0.38933,2.10667 1.15333,4.22667 1.70667,5.66667 l 0.39333,1.02666 c 0.69733,1.84 1.35467,3.57334 2.16933,5.05334 0.47067,0.86666 1.14934,1.76 1.86667,2.72 0.70133,0.92 1.42533,1.88 2.09067,2.97333 0.90533,1.46667 1.73733,2.98667 2.56533,4.48 l 1.00133,1.81333 c 0.38667,0.68 0.82667,1.33334 1.26134,1.98667 0.88133,1.33333 1.88,2.82667 2.59333,4.61333 0.228,0.57334 0.48667,1.13334 0.74667,1.70667 0.776,1.72 1.656,3.65333 2.02666,5.92 0.444,2.6 0.45334,5.34667 0.46,7.77333 0.008,2.4 -0.30666,4.73334 -0.61333,7 l -0.0827,0.62667 c -0.24933,1.88 -0.768,3.57333 -1.268,5.2 -0.21466,0.70667 -0.43066,1.4 -0.61466,2.12 -0.19867,0.76 -0.332,1.54667 -0.46934,2.33333 -0.27066,1.54667 -0.576,3.29334 -1.26133,5.04 -0.704,1.78667 -1.692,3.32 -2.56533,4.65334 -0.42,0.65333 -0.84134,1.29333 -1.20667,1.96 -0.33867,0.61333 -0.648,1.37333 -0.97733,2.17333 -0.612,1.50666 -1.30534,3.2 -2.496,4.76 l -0.288,0.37333 c -1.42,1.85333 -3.028,3.96 -4.928,5.66667 -2.068,1.84 -4.464,3.26666 -6.58,4.50666 l -0.53334,0.32 c -2.00666,1.18667 -4.148,1.50667 -5.86933,1.77334 -0.90267,0.13333 -1.75467,0.25333 -2.33467,0.46666 -2.64,0.97334 -5.15733,1.66667 -7.91866,2.16 -0.70267,0.13334 -1.39334,0.28 -2.08134,0.44 -1.804,0.4 -3.84933,0.85334 -6.088,0.86667 -0.66666,0 -1.53333,0.16 -2.45066,0.32 -1.80134,0.32 -3.84667,0.68 -6.08534,0.28 -2.524,-0.49333 -4.244,-1.34667 -5.76133,-2.12 -1.084,-0.54667 -2.10933,-1.05333 -3.54933,-1.53333 -2.05334,-0.66667 -4.45734,-1.29334 -7.09467,-1.85334 -2.29467,-0.49333 -4.73867,-0.98666 -7.15067,-1.18666 -2.25333,-0.18667 -4.616,-0.17334 -7.028,0.0667 -2.09066,0.2 -4.28133,0.70667 -6.50933,1.52 -2.308,0.82667 -4.85733,-0.37333 -5.68933,-2.68 -0.83334,-2.30666 0.36266,-4.85333 2.67066,-5.68 2.92667,-1.06666 5.84534,-1.73333 8.67467,-2.01333 2.93867,-0.28 5.836,-0.30667 8.61333,-0.08 2.93734,0.25333 5.816,0.82667 8.28267,1.36 2.92267,0.62667 5.60933,1.33333 7.988,2.09333 2.10267,0.69334 3.592,1.44 4.78933,2.05334 1.288,0.64 2.14,1.08 3.388,1.32 0.61467,0.10666 1.78,-0.10667 2.90934,-0.30667 1.188,-0.2 2.53733,-0.44 3.968,-0.45333 1.276,0 2.62533,-0.30667 4.18666,-0.65334 0.808,-0.18666 1.61867,-0.36 2.44267,-0.50666 2.23733,-0.4 4.276,-0.96 6.42,-1.74667 1.43733,-0.53333 2.848,-0.74667 4.09467,-0.93333 1.052,-0.14667 2.14,-0.32 2.648,-0.61334 l 0.54266,-0.32 c 1.85067,-1.10666 3.76534,-2.22666 5.18267,-3.49333 1.268,-1.13333 2.54667,-2.81333 3.78533,-4.44 l 0.292,-0.37333 c 0.472,-0.62667 0.88934,-1.64 1.33067,-2.72 0.38933,-0.96 0.83067,-2.04 1.41733,-3.09333 0.46667,-0.85334 0.99734,-1.68 1.536,-2.50667 0.70534,-1.09333 1.37334,-2.12 1.75067,-3.08 0.35733,-0.90667 0.56133,-2.08 0.77733,-3.30667 0.17867,-1.04 0.364,-2.06666 0.62267,-3.05333 0.21733,-0.84 0.46667,-1.65333 0.71733,-2.48 0.41334,-1.34667 0.80267,-2.62667 0.95734,-3.78667 l 0.0853,-0.62666 c 0.27733,-2.05334 0.53867,-4 0.53333,-5.78667 -0.007,-2.17333 -0.0147,-4.44 -0.33866,-6.33333 -0.18667,-1.13334 -0.75467,-2.38667 -1.356,-3.72 -0.31467,-0.69334 -0.62667,-1.37334 -0.904,-2.08 -0.372,-0.92 -1.03467,-1.92 -1.73867,-2.97334 -0.56,-0.84 -1.11733,-1.69333 -1.61467,-2.57333 l -1.03466,-1.86667 c -0.76267,-1.38666 -1.524,-2.77333 -2.35734,-4.13333 -0.44266,-0.72 -1.00933,-1.46667 -1.60933,-2.26667 -0.83733,-1.10666 -1.78533,-2.37333 -2.56533,-3.78666 -1.11067,-2.02667 -1.91067,-4.13334 -2.684,-6.17334 l -0.38,-0.98666 c -0.72934,-1.90667 -1.75734,-4.78667 -2.252,-7.82667 h 0.003 c -0.0467,-0.29333 -0.0653,-0.58667 -0.056,-0.88 0.0107,-0.32 0.056,-2.02667 -0.12533,-3.61333 -0.0693,-0.6 -0.0147,-1.2 0.16,-1.78667 l 1.12,-3.72 c 0.0147,-0.44 0.02,-0.88 0.0253,-1.30667 0.024,-1.85333 0.0507,-3.96 0.75867,-6.14666 0.15333,-0.48 0.296,-0.96 0.44,-1.42667 0.57467,-1.92 1.22667,-4.09333 2.48933,-6.12 1.16534,-1.88 2.71067,-3.10667 4.07467,-4.2 0.61467,-0.48 1.19467,-0.94667 1.62133,-1.38667 1.772,-1.81333 3.548,-3.56 5.78267,-5.10666 1.83333,-1.26667 3.68267,-2.08 5.472,-2.86667 0.45067,-0.2 0.90267,-0.38667 1.35467,-0.6 2.40266,-1.09333 4.74266,-1.93333 7.15466,-2.56 5.36667,-1.25333 9.94133,0.88 11.22,5.18667 1.35867,4.56 -1.43467,9.84 -6.10133,11.52 -0.85733,0.28 -1.656,0.49333 -2.46533,0.69333 -1.10134,0.28 -2.144,0.54667 -2.856,0.94667 -0.86,0.48 -1.748,1.32 -2.68667,2.21333 -0.45467,0.42667 -0.904,0.85333 -1.36,1.25333 -1.912,1.58667 -3.13867,2.97334 -3.95867,4.45334 -0.26533,0.46666 -0.54533,0.94666 -0.828,1.42666 -0.86266,1.45334 -1.67866,2.84 -1.808,3.93334 -0.092,0.78666 0.332,2.13333 0.74267,3.42666 0.26267,0.84 0.524,1.68 0.72933,2.53334 0.39467,1.64 1.004,3.22666 1.97734,5.13333 0.52133,1.02667 0.90666,2.06667 1.24666,2.98667 0.38267,1.02666 0.744,2 1.192,2.66666 0.80934,1.2 1.65067,2.38667 2.49734,3.6 l 1.26666,1.81334 c 0.93334,1.34666 1.61334,2.74666 2.21334,3.98666 0.33733,0.70667 0.672,1.4 1.06,2.08 0.40533,0.61334 0.868,1.2 1.32533,1.78667 1.03867,1.32 2.21733,2.82667 3.048,4.74667 0.25467,0.58666 0.52533,1.17333 0.79733,1.76 0.80667,1.73333 1.64,3.53333 2.19733,5.58666 0.71734,2.65334 1.09867,5.29334 1.42934,7.76 0.30133,2.28 0.45333,4.76 0.47733,7.82667 0.005,0.74667 0.0387,1.48 0.0707,2.22667 0.0787,1.81333 0.16,3.68 -0.072,5.65333 -0.224,1.86667 -0.80134,3.50667 -1.30934,4.97333 -0.324,0.92 -0.63066,1.8 -0.78933,2.57334 -0.164,0.8 -0.29467,1.6 -0.42533,2.4 -0.27467,1.69333 -0.55867,3.44 -1.10933,5.24 -0.22134,0.73333 -0.41867,1.46666 -0.616,2.2 -0.46934,1.73333 -0.95467,3.53333 -1.72534,5.34666 -0.79333,1.85333 -1.788,3.48 -2.75066,5.05333 -0.38134,0.62667 -0.76267,1.25334 -1.12267,1.88 -0.412,0.72 -0.76,1.48 -1.11467,2.25334 -0.69866,1.50666 -1.492,3.22666 -2.69333,4.81333 -1.22933,1.62667 -2.74267,2.74667 -4.07733,3.72 -0.76134,0.56 -1.48,1.09333 -1.98667,1.6 -1.47867,1.49333 -3.012,2.6 -4.49467,3.66667 -0.55466,0.41333 -1.112,0.81333 -1.65866,1.22666 -0.60134,0.46667 -1.216,1.04 -1.86534,1.65334 -1.18133,1.09333 -2.52,2.34666 -4.21866,3.34666 -1.688,0.97334 -3.42134,1.54667 -4.952,2.05334 -0.78934,0.25333 -1.58267,0.50666 -2.34534,0.84 -0.75466,0.32 -1.48266,0.70666 -2.21066,1.08 -1.43334,0.74666 -3.05867,1.58666 -4.92,2.13333 -2.22134,0.65333 -4.86134,1.38667 -7.61467,1.85333 -0.684,0.12 -1.368,0.25334 -2.05333,0.38667 -1.81334,0.36 -3.68667,0.73333 -5.71467,0.84 -0.49333,0.0267 -0.98267,0.04 -1.46533,0.04"
       style="fill:#362421;fill-opacity:1;fill-rule:nonzero;stroke:none;stroke-width:0.133333" />
    <path
       id="path15"
       d="m 658.56932,1007.9867 z m -244.468,1.52 z m -53.19333,-17.89332 c -0.33333,0 -0.67733,0.04 -1.08533,0.14667 -0.82134,0.21333 -1.80267,0.58667 -2.84134,0.97333 -1.23466,0.45334 -2.63333,0.97334 -4.15466,1.4 -1.23467,0.34667 -2.49734,0.74667 -3.784,1.14667 -1.07067,0.33333 -2.15867,0.68 -3.25867,1 -1.29867,0.38667 -2.564,0.65333 -3.79067,0.90667 -1.204,0.25333 -2.34133,0.49333 -3.34933,0.8 -1.41467,0.45333 -2.83067,1 -4.2,1.52 -0.89067,0.34666 -1.76133,0.67998 -2.612,0.98668 -1.892,0.68 -3.612,1.4933 -5.12933,2.2266 l -1.24,0.5867 c -1.66667,0.7733 -3.276,1.1467 -4.56933,1.44 -0.63334,0.1467 -1.5,0.3467 -1.76267,0.4933 -1.01333,0.7067 -1.548,1.64 -1.67067,2.96 -0.0573,0.6 0.06,1.8267 0.72534,3.1067 0.0907,-0.013 0.18533,-0.04 0.28666,-0.053 0.93734,-0.1867 2.35334,-0.48 4.576,-0.48 0.42667,0 1.31467,-0.2267 2.09734,-0.4267 1.45733,-0.3733 3.272,-0.84 5.33066,-0.84 1.012,0 2.068,-0.067 3.16133,-0.1467 2.41334,-0.16 5.088,-0.1866 7.91467,-0.1466 1.24267,0.027 2.51067,0.04 3.8,0.04 1.80267,0 3.408,0.4533 4.82533,0.8533 0.996,0.2667 1.93734,0.5333 2.608,0.5333 0.62134,0 1.53734,-0.2533 2.508,-0.52 1.44267,-0.3866 3.07867,-0.84 4.93467,-0.84 1.84533,0 3.476,0.4667 4.91333,0.8667 0.976,0.2667 1.89867,0.5333 2.528,0.5333 0.47067,0 1.40534,-0.3466 2.23067,-0.6533 1.42533,-0.52 3.19733,-1.16 5.20133,-1.16 1.928,0 3.59734,0.5067 5.07067,0.9467 0.89333,0.2666 1.81467,0.5333 2.36,0.5333 0.7,0 1.65333,-0.2667 2.664,-0.5467 1.40267,-0.3866 2.99067,-0.8266 4.76133,-0.8266 1.97867,0 3.752,0.5066 5.176,0.9066 0.86534,0.2534 1.75867,0.5067 2.25334,0.5067 1.27866,0 2.556,-0.1067 3.79066,-0.2267 1.19734,-0.1066 2.43467,-0.2133 3.63867,-0.2133 2.48,0 4.50533,0.2667 5.984,0.4667 0.6,0.067 1.084,0.1466 1.44133,0.16 0.932,0 1.57734,-0.7067 1.86267,-1.2 -0.016,-0.4 -0.19333,-1.2267 -0.31467,-1.7867 -0.21066,-0.9867 -0.45066,-2.0933 -0.50666,-3.28 -0.028,-0.6 -0.19334,-1 -0.51067,-1.7467 -0.66,-1.5333 -2.032,-4.71995 0.87333,-8.43995 3.95067,-5.06667 8.44267,-2.2 9.92,-1.25333 0.87334,0.56 1.7,1.09333 2.85867,1.4 0.94133,0.24 1.93867,0.57333 3.00267,0.92 1.35466,0.44 2.75333,0.90666 4.256,1.24 1.31466,0.29333 2.544,0.74666 3.73333,1.17333 1.236,0.44 2.404,0.86667 3.56533,1.09333 0.79867,0.14667 1.61334,0.32 2.444,0.48 1.61867,0.33334 3.30267,0.68 5.052,0.96002 0.632,0.093 1.62534,-0.013 2.67867,-0.1334 1.49733,-0.15995 3.18933,-0.35995 5.04533,-0.11995 1.772,0.23995 3.31334,0.86665 4.67334,1.43995 1.02533,0.4134 1.99466,0.8267 2.72133,0.8934 0.75333,0.067 1.792,-0.067 2.89467,-0.2267 1.42533,-0.2 3.03999,-0.4267 4.78933,-0.3067 1.83066,0.12 3.43333,0.68 4.848,1.1867 1.03066,0.3733 2.00266,0.72 2.68133,0.7333 0.752,0.027 1.82267,-0.1866 2.93067,-0.4133 1.396,-0.28 2.976,-0.6133 4.70266,-0.6133 1.37467,0 2.64667,0.1333 3.87734,0.2666 1.208,0.1334 2.34533,0.2534 3.33066,0.2134 1.57067,-0.08 3.14267,-0.2534 4.80534,-0.44 0.79733,-0.08 1.59066,-0.16 2.37866,-0.24 0.98267,-0.093 2.07867,-0.3867 3.23734,-0.6934 1.212,-0.3333 2.464,-0.6666 3.83866,-0.8533 2.344,-0.32 4.67067,-0.6933 7.11334,-1.13332 1.14933,-0.21333 2.324,-0.56 3.56666,-0.93333 1.14267,-0.33333 2.27334,-0.66667 3.40934,-0.92 1.06666,-0.24 2.11866,-0.44 3.15466,-0.62667 1.388,-0.26666 2.696,-0.52 3.912,-0.82666 1.48267,-0.38667 2.94267,-0.85334 4.356,-1.30667 0.86,-0.26667 1.70534,-0.54667 2.54,-0.78667 1.55467,-0.46666 3.03467,-0.68 4.33867,-0.88 1.064,-0.16 2.06933,-0.30666 2.78533,-0.54666 1.67067,-0.57334 3.22934,-0.84 4.60267,-1.09334 0.99067,-0.17333 1.92533,-0.33333 2.492,-0.54666 0.95467,-0.37334 1.76,-1.33334 2.472,-2.18667 0.98533,-1.18667 2.82,-3.38667 5.83467,-2.69333 1.38133,0.30666 3.19466,1.33333 3.97466,4.44 1.27334,5.05333 -1.83866,7.32 -3.16666,8.29333 -0.752,0.54667 -0.89867,0.68 -1.06934,1.11995 -0.85066,2.1734 -1.412,4.4534 -1.448,5.84 0.29334,0.093 0.79734,0.1734 1.54934,0.1734 2.40933,0 3.684,0.4133 4.88266,0.8666 0.596,0.2267 1.02667,0.3867 2.72,0.3867 0.95734,0 1.996,-0.04 3.10667,-0.08 2.43067,-0.093 5.17333,-0.12 8.15867,-0.04 2.22666,0.053 4.50933,0.093 7.26533,-0.12 2.66933,-0.2 5.71067,-0.2133 8.44933,0.053 2.39467,0.2267 4.41334,0.24 6.86267,0.027 1.352,-0.1067 2.75066,-0.2267 4.228,-0.2267 0.78933,0 1.79733,-0.2266 2.86533,-0.4533 1.41067,-0.3067 3.00933,-0.6533 4.756,-0.6533 1.75467,0 3.35733,0.3466 4.77067,0.6533 1.05866,0.2267 2.06,0.44 2.83733,0.44 1.26667,0 2.524,-0.04 3.768,-0.067 1.29467,-0.04 2.57733,-0.08 3.84133,-0.08 0.86,0 1.90267,-0.2133 3.004,-0.4533 1.37334,-0.3067 2.92934,-0.64 4.6,-0.64 1.524,0 2.94534,0.093 4.32,0.1733 2.67067,0.16 5.148,0.12 7.38134,0.04 3.53866,-0.12 6.51733,-0.12 8.648,-0.1866 0.804,-0.027 1.49866,-0.04 2.07333,-0.053 -0.49333,-0.5333 -0.96667,-1.0133 -1.228,-1.28 -0.30667,-0.3066 -0.61867,-0.64 -0.93733,-0.9733 -1.14,-1.2 -2.31734,-2.44 -3.73467,-3.3067 -0.58133,-0.35995 -1.63867,-0.63995 -2.75867,-0.93328 -1.092,-0.28 -2.33066,-0.6 -3.60533,-1.10667 -2.02667,-0.81333 -4.03333,-1.58667 -6.28,-2.10667 -0.84933,-0.18666 -1.696,-0.37333 -2.532,-0.54666 -1.78,-0.38667 -3.62,-0.77334 -5.388,-1.29334 -1.79333,-0.52 -3.31733,-1.33333 -4.66267,-2.05333 -0.956,-0.50667 -1.86,-0.98667 -2.61733,-1.22667 -1.50667,-0.48 -3.01333,-0.85333 -4.608,-1.25333 -0.93467,-0.24 -1.864,-0.48 -2.78133,-0.72 -0.94,-0.26667 -1.87067,-0.56 -2.79867,-0.85333 -1.468,-0.46667 -2.856,-0.90667 -4.17067,-1.12 -1.37733,0.49333 -2.97466,0.30666 -4.22666,-0.64 -0.14,-0.10667 -0.272,-0.22667 -0.39334,-0.34667 -0.92133,-0.18667 -1.764,-0.29333 -2.588,-0.32 -0.63733,0 -1.73066,0.4 -2.78799,0.78667 -1.22534,0.45333 -2.61467,0.96 -4.18,1.24 -1.26267,0.22666 -2.47067,0.26666 -3.63867,0.30666 -1.34533,0.0533 -2.616,0.0933 -3.636,0.42667 -2.34,0.74667 -4.84,-0.53333 -5.592,-2.86667 -0.75067,-2.34666 0.53467,-4.84 2.872,-5.6 2.18933,-0.70666 4.31867,-0.77333 6.03067,-0.84 0.90533,-0.04 1.76266,-0.0667 2.41733,-0.18666 0.796,-0.13334 1.70933,-0.46667 2.67867,-0.82667 1.68266,-0.61333 3.59066,-1.30667 5.76266,-1.32 1.32,-0.0133 2.54933,0.13333 3.71467,0.34667 0.47066,-1.08 1.00933,-2.28 1.76666,-3.44 0.728,-1.10667 1.34667,-2.34667 2,-3.65334 0.43067,-0.86666 0.86267,-1.72 1.32667,-2.56 l 0.516,-0.93333 c 1.008,-1.81333 1.96133,-3.53333 2.76,-5.28 0.63333,-1.4 1.13733,-2.86667 1.672,-4.41333 0.248,-0.72 0.49733,-1.45334 0.76133,-2.17334 0.5,-1.37333 1.16,-2.58666 1.74267,-3.65333 0.552,-1 1.07333,-1.96 1.30133,-2.77333 0.24267,-0.86667 0.312,-1.98667 0.38267,-3.16 0.0733,-1.18667 0.156,-2.53334 0.43467,-3.90667 0.20266,-1 0.448,-2 0.69466,-2.98667 0.344,-1.37333 0.668,-2.68 0.82934,-3.92 0.16666,-1.29333 0.44,-2.48 0.704,-3.62666 0.28266,-1.21334 0.548,-2.37334 0.61466,-3.41334 l 0.13734,-1.98666 c 0.13066,-1.8 0.25333,-3.49334 0.26,-5.17334 0.003,-1.04 0.0493,-2.09333 0.0973,-3.14666 0.0653,-1.42667 0.12667,-2.78667 0.0627,-4.06667 -0.056,-1.09333 -0.27334,-2.28 -0.50267,-3.54667 -0.212,-1.16 -0.432,-2.36 -0.55733,-3.62666 -0.128,-1.29334 -0.14667,-2.52 -0.164,-3.70667 -0.02,-1.28 -0.0373,-2.48 -0.192,-3.56 -0.17334,-1.21333 -0.46534,-2.48 -0.77334,-3.81333 -0.25466,-1.10667 -0.50666,-2.21333 -0.708,-3.32 -0.132,-0.70667 -0.548,-1.62667 -0.988,-2.6 -0.56666,-1.25333 -1.208,-2.66667 -1.564,-4.30667 -0.39733,-1.82666 -0.24933,-3.53333 -0.11866,-5.02666 0.0813,-0.94667 0.16533,-1.93334 0.0387,-2.44 -0.224,-0.92 -0.652,-1.92 -1.10266,-3 -0.492,-1.16 -1.05067,-2.48 -1.44134,-3.92 -0.288,-1.04 -0.70533,-2.13334 -1.14666,-3.29334 -0.44134,-1.16 -0.89734,-2.34666 -1.276,-3.64 -0.37867,-1.28 -0.65067,-2.53333 -0.91334,-3.74666 -0.26266,-1.21334 -0.51066,-2.34667 -0.84,-3.4 -0.38133,-1.21334 -0.82133,-2.41334 -1.25866,-3.61334 -0.40667,-1.10666 -0.812,-2.21333 -1.18134,-3.34666 -0.51333,-1.56 -0.71333,-3.09334 -0.88933,-4.44 -0.14133,-1.08 -0.27467,-2.09334 -0.53333,-2.85334 -0.304,-0.89333 -0.792,-1.85333 -1.308,-2.88 -0.588,-1.14666 -1.25467,-2.46666 -1.75334,-3.89333 -0.45866,-1.33333 -0.80133,-2.62667 -1.13333,-3.88 -0.30533,-1.16 -0.59333,-2.24 -0.94533,-3.25333 -0.28534,-0.81334 -0.78934,-1.72 -1.324,-2.68 -0.656,-1.18667 -1.4,-2.53334 -1.928,-4.05334 -0.452,-1.28 -0.824,-2.6 -1.192,-3.90666 -0.304,-1.09334 -0.604,-2.16 -0.964,-3.21334 -0.58267,-1.70666 -0.844,-3.37333 -1.07333,-4.84 -0.15867,-1.01333 -0.308,-1.97333 -0.53867,-2.77333 -0.232,-0.8 -0.66133,-1.70667 -1.11733,-2.65333 -0.64,-1.34667 -1.36667,-2.86667 -1.77067,-4.6 -0.39067,-1.68 -0.604,-3.29334 -0.812,-4.84 -0.12533,-0.94667 -0.24933,-1.89334 -0.41733,-2.81334 -0.18,-1 -0.412,-1.97333 -0.64,-2.94666 -0.348,-1.48 -0.708,-3.01334 -0.92934,-4.64 -0.12933,-0.94667 -0.368,-1.94667 -0.62133,-3.01334 -0.34267,-1.45333 -0.69733,-2.94666 -0.85867,-4.57333 -0.20533,-2.05333 0.272,-3.93333 0.65467,-5.45333 0.22533,-0.88 0.46,-1.81334 0.424,-2.30667 -0.0507,-0.72 -0.34667,-1.65333 -0.66133,-2.64 -0.452,-1.42667 -0.96534,-3.04 -1.064,-4.86666 -0.076,-1.37334 -0.12134,-2.76 -0.168,-4.13334 -0.0373,-1.14666 -0.0747,-2.28 -0.13067,-3.42666 -0.0533,-1.06667 -0.21333,-2.18667 -0.38267,-3.38667 -0.184,-1.30667 -0.37333,-2.64 -0.45333,-4.08 -0.092,-1.65333 0.13467,-3.2 0.33333,-4.57333 0.16,-1.09334 0.31067,-2.12 0.252,-2.93334 -0.0987,-1.34666 -0.0773,-2.64 -0.056,-3.89333 0.02,-1.26667 0.04,-2.45333 -0.0693,-3.56 -0.0733,-0.74667 -0.412,-1.72 -0.77067,-2.74667 -0.45466,-1.32 -0.97066,-2.8 -1.19333,-4.46666 -0.22267,-1.68 -0.068,-3.25334 0.068,-4.64 0.10667,-1.09334 0.208,-2.12 0.0827,-2.84 -0.108,-0.61334 -0.544,-1.50667 -1.008,-2.44 -0.644,-1.29334 -1.37334,-2.77334 -1.75467,-4.52 -0.25067,-1.14667 -0.42133,-2.32 -0.592,-3.52 -0.18933,-1.32 -0.368,-2.56 -0.67333,-3.72 -0.40667,-1.54667 -0.912,-3.12 -1.44667,-4.77334 -0.23733,-0.74666 -0.47733,-1.49333 -0.71067,-2.24 -0.25466,-0.82666 -0.76666,-1.77333 -1.308,-2.77333 -0.61333,-1.14667 -1.31066,-2.44 -1.836,-3.90667 -0.384,-1.06666 -0.70933,-2.17333 -1.03733,-3.28 -0.38267,-1.30666 -0.744,-2.54666 -1.21067,-3.69333 -0.4,-0.98667 -0.76533,-2 -1.132,-3.02667 -0.48666,-1.34666 -0.94533,-2.62666 -1.496,-3.85333 -0.41333,-0.92 -0.80533,-1.86667 -1.2,-2.81333 -0.57466,-1.37334 -1.116,-2.68 -1.74266,-3.96 -0.50934,-1.02667 -1.15467,-2.09334 -1.83734,-3.21334 -0.632,-1.04 -1.26933,-2.09333 -1.85466,-3.18666 -0.816,-1.53334 -1.69467,-3.06667 -2.59067,-4.61334 l -1.05067,-1.82666 c -0.644,-1.12 -1.40266,-2.21334 -2.20666,-3.36 -0.62534,-0.89334 -1.244,-1.78667 -1.81734,-2.69334 -1.00133,-1.58666 -1.47466,-3.21333 -1.892,-4.65333 -0.26266,-0.90667 -0.536,-1.85333 -0.82666,-2.26667 -0.32934,-0.46666 -1.16134,-1.05333 -1.96667,-1.61333 -1.196,-0.85333 -2.552,-1.8 -3.66533,-3.22667 -1.19467,-1.53333 -1.82667,-3.24 -2.33334,-4.6 -0.28933,-0.78666 -0.65066,-1.76 -0.92933,-2.08 -1.01467,-1.15999 -2.13333,-2.23999 -3.316,-3.37333 -0.612,-0.6 -1.216,-1.17333 -1.79867,-1.76 -0.55866,-0.56 -1.48266,-1.09333 -2.46266,-1.65333 -1.12934,-0.65333 -2.40934,-1.38667 -3.57867,-2.41333 -1.24267,-1.09334 -2.16667,-2.32 -2.98,-3.4 -0.648,-0.85334 -1.25867,-1.66667 -1.78933,-2.06667 -0.54667,-0.42667 -1.51467,-0.76 -2.54,-1.12 -1.27734,-0.44 -2.72534,-0.94667 -4.10534,-1.84 -1.192,-0.77333 -2.22266,-1.62667 -3.13333,-2.4 -0.912,-0.76 -1.77467,-1.48 -2.55333,-1.89333 -1.236,-0.66667 -2.33867,-1.45334 -3.30934,-2.13334 -0.99733,-0.69333 -1.94,-1.36 -2.75866,-1.72 -0.76534,-0.33333 -1.86,-0.48 -3.016,-0.65333 -1.23467,-0.17333 -2.63334,-0.36 -4.03067,-0.84 -2.684,-0.89333 -4.83067,-1.53333 -6.75867,-2 -1.368,-0.33333 -2.776,-0.46667 -4.268,-0.62667 -0.92,-0.08 -1.82,-0.17333 -2.70133,-0.30666 -1.18267,-0.17334 -2.316,-0.41334 -3.41067,-0.64 -1.34666,-0.28 -2.51066,-0.53334 -3.512,-0.58667 -1.40133,-0.0667 -2.70266,-0.24 -3.85066,-0.38667 -1.22534,-0.16 -2.38,-0.30666 -3.18267,-0.26666 -1.61067,0.0933 -1.92,0.25333 -2.432,0.52 -1.10667,0.57333 -2.28667,1.10666 -4.55867,1.4 -1.32,0.16 -2.65466,-0.04 -3.91999,-0.14667 -1.34134,-0.12 -2.608,-0.22667 -3.792,-0.14667 -1.07734,0.0667 -2.19067,0.0667 -3.316,0.0533 -1.35334,-0.0133 -2.62534,-0.0133 -3.828,0.13333 -0.96534,0.10667 -2.076,0.41333 -3.25334,0.74667 -1.176,0.32 -2.39333,0.65333 -3.73466,0.89333 -0.91734,0.16 -1.84534,0.29333 -2.78534,0.42667 -1.48933,0.21333 -2.89733,0.42666 -4.26533,0.74666 -1.07067,0.24 -2.17333,0.42667 -3.28533,0.61334 -1.336,0.21333 -2.596,0.42666 -3.74667,0.76 -0.57733,0.16 -1.38533,0.69333 -2.24133,1.25333 -1.17467,0.76 -2.50534,1.62667 -4.14267,2.2 -1.476,0.52 -2.92933,0.72 -4.212,0.90667 -1.08667,0.14666 -2.11333,0.29333 -2.82667,0.6 -0.94266,0.38666 -1.95066,1 -3.01866,1.64 -1.012,0.61333 -2.05867,1.24 -3.232,1.81333 -1.23734,0.6 -2.47334,1.33333 -3.78267,2.12 -0.784,0.46667 -1.572,0.93333 -2.376,1.38667 -1.36533,0.77333 -2.704,1.66666 -4.124,2.6 -0.60267,0.41333 -1.20933,0.81333 -1.824,1.21333 -1.244,0.8 -2.53333,1.36 -3.672,1.85333 -1.04267,0.45334 -2.028,0.88 -2.7,1.38667 -1.032,0.76 -2.07867,1.38667 -3.08933,1.98667 -1.08667,0.65333 -2.112,1.26666 -2.89734,1.93333 -0.82933,0.70667 -1.65333,1.62667 -2.52666,2.61333 -0.776,0.88 -1.55867,1.74667 -2.39467,2.56 -0.48667,0.48 -0.992,1.34667 -1.52667,2.26667 -0.66933,1.14666 -1.428,2.45333 -2.51733,3.65333 -1.26933,1.41333 -2.936,3.29333 -4.56,5.36 l -1.00133,1.26667 c -1.16667,1.46666 -2.26934,2.84 -3.28534,4.32 -0.45866,0.68 -0.93066,1.33333 -1.404,1.98666 -0.93733,1.32 -1.82133,2.54667 -2.59733,3.85334 l -0.98533,1.62666 c -0.93334,1.52 -1.81467,2.97334 -2.6,4.49334 -0.724,1.4 -1.656,2.54666 -2.47867,3.57333 -0.69467,0.85333 -1.34933,1.66667 -1.66,2.36 -0.29333,0.65333 -0.46933,1.66667 -0.65333,2.73333 -0.228,1.30667 -0.48667,2.78667 -1.06134,4.30667 -0.52266,1.37333 -0.96933,2.82667 -1.44133,4.38667 -0.24267,0.78666 -0.48933,1.6 -0.748,2.4 -0.40533,1.26666 -0.70533,2.56 -1.02267,3.93333 -0.25466,1.10667 -0.50933,2.2 -0.81066,3.26667 -0.43467,1.53333 -0.784,3.12 -1.12267,4.64 -0.188,0.85333 -0.37467,1.69333 -0.57333,2.53333 -0.43867,1.82667 -1.25867,3.32 -1.98267,4.64 -0.46533,0.85333 -0.94667,1.72 -1.04667,2.25333 -0.172,0.90667 -0.13066,2.02667 -0.088,3.21334 0.0453,1.26666 0.0973,2.72 -0.104,4.2 -0.20933,1.56 -0.29466,3.10666 -0.384,4.73333 -0.0467,0.85333 -0.0933,1.70667 -0.15733,2.53333 -0.12533,1.66667 -0.53867,3.16 -0.90267,4.48 -0.292,1.05334 -0.568,2.05334 -0.57733,2.76 -0.012,0.90667 0.232,2.01334 0.49067,3.17334 0.27333,1.22666 0.584,2.62666 0.65866,4.10666 0.0813,1.58667 -0.0947,3.06667 -0.248,4.37334 -0.13466,1.13333 -0.26133,2.2 -0.17333,3 l 0.19067,1.78666 c 0.20666,1.94667 0.39866,3.78667 0.68133,5.56 0.188,1.17334 0.50533,2.4 0.84133,3.69334 0.31067,1.18666 0.61734,2.38666 0.848,3.58666 0.248,1.28 0.552,2.56 0.85467,3.84 0.27467,1.16 0.54933,2.33334 0.79067,3.50667 0.16533,0.8 0.556,1.76 0.96933,2.77333 0.53867,1.32 1.152,2.81333 1.48667,4.50667 0.39333,1.97333 0.136,3.78666 -0.0907,5.38666 -0.136,0.94667 -0.276,1.93334 -0.17733,2.49334 0.08,0.46666 0.54666,1.32 0.95733,2.08 0.76667,1.41333 1.72,3.18666 2.00533,5.32 0.26267,1.94666 -0.0627,3.73333 -0.348,5.29333 -0.184,1.01333 -0.35866,1.96 -0.3,2.62667 0.0507,0.6 0.35467,1.46666 0.676,2.38666 0.50934,1.46667 1.144,3.28 1.21734,5.33334 0.0707,2.01333 -0.47334,3.76 -0.95334,5.32 -0.30133,0.96 -0.58666,1.88 -0.59733,2.52 l -0.016,1.14666 c -0.0293,2.12 -0.06,4.30667 -0.20933,6.61334 -0.0573,0.89333 -0.088,1.78666 -0.11867,2.68 -0.0573,1.62666 -0.11467,3.30666 -0.312,5.08 -0.0987,0.88 -0.10933,1.86666 -0.12267,2.92 -0.0187,1.46666 -0.0387,3.13333 -0.30533,4.86666 -0.25867,1.69334 -0.768,3.22667 -1.21867,4.58667 -0.32933,1 -0.64133,1.93333 -0.79733,2.77333 -0.116,0.61334 -0.036,1.54667 0.048,2.53334 0.132,1.54666 0.28,3.30666 -0.13467,5.18666 -0.36666,1.65334 -0.976,3.14667 -1.51333,4.45334 -0.40267,0.98666 -0.784,1.90666 -0.988,2.73333 -0.36933,1.48 -0.812,2.88 -1.23867,4.24 -0.31333,1 -0.62533,1.98667 -0.89466,2.98667 -0.288,1.05333 -0.50534,2.13333 -0.72267,3.21333 -0.272,1.32 -0.55067,2.70667 -0.952,4.09333 -0.41067,1.44 -0.92,2.74667 -1.41333,4.01334 -0.41467,1.06666 -0.80667,2.06666 -1.08934,3.02666 -0.344,1.17334 -0.696,2.33334 -1.04666,3.48 -0.36934,1.22667 -0.73734,2.42667 -1.09067,3.64 -0.28133,0.96 -0.568,1.90667 -0.85467,2.86667 -0.428,1.41333 -0.85066,2.81333 -1.24133,4.21333 -0.22933,0.81334 -0.30533,1.86667 -0.38267,2.98667 -0.0933,1.32 -0.19866,2.81333 -0.58666,4.33333 -0.46134,1.81333 -0.83867,3.61333 -1.21334,5.4 l -0.34933,1.65333 c -0.292,1.37334 -0.72667,2.65334 -1.108,3.78667 -0.384,1.13333 -0.74667,2.2 -0.89333,3.13333 -0.23467,1.49334 -0.33067,3.04 -0.432,4.68 -0.0493,0.8 -0.1,1.6 -0.164,2.4 -0.14267,1.72 -0.11067,3.48 -0.076,5.34667 l 0.0267,1.64 c 0.012,1.22667 -0.0867,2.36 -0.18,3.46667 -0.11066,1.28 -0.21466,2.49333 -0.0947,3.49333 0.3,2.49333 0.59066,4.72 1.10933,6.85333 0.512,2.09334 1.20933,4.32 2.07467,6.61334 0.28933,0.77333 0.92666,1.69333 1.6,2.66666 0.664,0.94667 1.416,2.04 2.05333,3.28 0.516,1 0.92533,2 1.32267,2.96 0.512,1.24 0.996,2.41334 1.61866,3.37334 1.4,2.16 2.732,4.04 4.07467,5.76 0.46667,0.6 1.28533,1.25333 2.15067,1.94666 0.99466,0.78667 2.12266,1.69334 3.16533,2.84 1.10667,1.22667 1.836,2.57334 2.48,3.77334 0.51333,0.94666 0.99733,1.84 1.50133,2.33333 1.348,1.32 2.84267,2.62667 4.424,4.01333 l 0.94534,0.84 c 0.84933,0.74667 1.85333,1.46667 2.916,2.22667 0.94266,0.68 1.89733,1.37333 2.832,2.13333 1.48933,1.2 2.04133,3.21334 1.37066,5.01334 -2.024,5.4 -6.42266,4.76 -7.86666,4.54666 -0.43867,-0.0667 -0.812,-0.12 -1.20267,-0.12 z M 317.87733,1020.24 c -1.30267,0 -2.74667,-0.32 -4.70667,-1.3466 -0.58133,-0.3067 -1.088,-0.7467 -1.48133,-1.2667 -2.24934,-3 -3.4,-6.84 -3.08,-10.2533 0.36666,-3.9334 2.26133,-7.2 5.48133,-9.45335 1.53067,-1.08 3.27067,-1.48 4.804,-1.82667 1.024,-0.24 1.99067,-0.46666 2.808,-0.84 l 1.16267,-0.56 c 1.62666,-0.77333 3.652,-1.74666 5.97733,-2.57333 0.788,-0.28 1.592,-0.58667 2.41467,-0.90667 1.49066,-0.57333 3.03066,-1.16 4.69599,-1.69333 1.444,-0.45333 2.86267,-0.74667 4.23334,-1.04 1.09733,-0.22667 2.136,-0.44 3.08533,-0.72 1.04667,-0.30667 2.08,-0.64 3.09733,-0.96 1.384,-0.42667 2.74134,-0.85333 4.068,-1.22667 1.16134,-0.33333 2.32267,-0.76 3.44534,-1.17333 0.7,-0.26667 1.41333,-0.53333 2.13466,-0.77333 -1.58933,-1.38667 -3.23066,-2.82667 -4.73866,-4.30667 -1.47334,-1.44 -2.38267,-3.12 -3.11334,-4.48 -0.444,-0.82667 -0.86266,-1.6 -1.24533,-2.01333 -0.55867,-0.62667 -1.31733,-1.22667 -2.12,-1.86667 -1.17333,-0.93333 -2.504,-2 -3.616,-3.42667 -1.50133,-1.92 -2.98133,-4.01333 -4.52267,-6.38666 -1.07066,-1.65334 -1.76666,-3.33334 -2.38,-4.82667 -0.32266,-0.78667 -0.63733,-1.56 -1.01333,-2.29333 -0.368,-0.72 -0.89333,-1.46667 -1.44933,-2.26667 -0.90667,-1.32 -1.936,-2.8 -2.61467,-4.6 -0.99066,-2.62667 -1.79466,-5.2 -2.392,-7.64 -0.63466,-2.6 -0.96266,-5.12 -1.29866,-7.89333 -0.22934,-1.92 -0.0733,-3.73334 0.064,-5.32 0.08,-0.93334 0.156,-1.81334 0.14666,-2.61334 l -0.0253,-1.57333 c -0.036,-2 -0.0733,-4.06667 0.104,-6.24 0.06,-0.73333 0.10667,-1.48 0.152,-2.22667 0.11067,-1.76 0.22267,-3.58666 0.52133,-5.49333 0.26534,-1.69333 0.792,-3.24 1.25734,-4.61333 0.33333,-0.98667 0.64933,-1.92 0.83466,-2.78667 l 0.34267,-1.61333 c 0.4,-1.92 0.804,-3.84 1.29733,-5.77333 0.19067,-0.76 0.26134,-1.73334 0.33334,-2.77334 0.10133,-1.44 0.21733,-3.06666 0.69066,-4.76 0.408,-1.45333 0.84667,-2.92 1.29067,-4.38666 0.27867,-0.92 0.56,-1.85334 0.836,-2.8 0.36,-1.22667 0.736,-2.46667 1.116,-3.72 0.34266,-1.12 0.68666,-2.25334 1.02533,-3.4 0.388,-1.32 0.868,-2.56 1.332,-3.74667 0.43867,-1.12 0.85333,-2.18667 1.152,-3.22667 0.304,-1.06666 0.53867,-2.21333 0.78667,-3.44 0.25466,-1.25333 0.51466,-2.50666 0.852,-3.76 0.30133,-1.10666 0.64666,-2.21333 0.996,-3.32 0.38533,-1.22666 0.77733,-2.45333 1.092,-3.72 0.35866,-1.45333 0.90533,-2.78666 1.388,-3.96 0.44133,-1.08 0.85733,-2.09333 1.05866,-3 0.124,-0.56 0.0387,-1.54666 -0.0413,-2.50666 -0.12533,-1.48 -0.268,-3.14667 0.0733,-4.94667 0.268,-1.41333 0.68934,-2.69333 1.096,-3.92 0.372,-1.12 0.72267,-2.17333 0.868,-3.12 0.172,-1.13333 0.18667,-2.36 0.204,-3.65333 0.0147,-1.21334 0.0307,-2.46667 0.17467,-3.77334 0.16,-1.45333 0.21067,-2.89333 0.264,-4.41333 0.0347,-0.98667 0.0693,-1.97333 0.13333,-2.94667 0.13334,-2.08 0.16267,-4.16 0.19067,-6.16 l 0.0173,-1.17333 c 0.0293,-1.90667 0.564,-3.62667 0.99467,-5.01333 0.26933,-0.88 0.576,-1.86667 0.55867,-2.36 -0.024,-0.70667 -0.36667,-1.69334 -0.72667,-2.72 -0.46533,-1.33334 -0.992,-2.84 -1.13867,-4.54667 -0.16133,-1.85333 0.14267,-3.52 0.41067,-4.98667 0.17733,-0.97333 0.36,-1.97333 0.284,-2.53333 -0.0707,-0.52 -0.57067,-1.44 -1.01333,-2.26667 -0.73734,-1.34666 -1.572,-2.89333 -1.89867,-4.78666 -0.336,-1.94667 -0.076,-3.78667 0.13467,-5.26667 0.12666,-0.89333 0.272,-1.90667 0.17333,-2.4 -0.16933,-0.85333 -0.57067,-1.84 -0.996,-2.88 -0.52267,-1.28 -1.11467,-2.73333 -1.448,-4.34666 -0.224,-1.09334 -0.48,-2.16 -0.73467,-3.24 -0.33066,-1.41334 -0.66133,-2.81334 -0.93333,-4.22667 -0.19467,-1 -0.45867,-2.01333 -0.72133,-3.01333 -0.37467,-1.44 -0.76134,-2.93334 -1.01734,-4.53334 -0.31866,-2.01333 -0.53466,-4.05333 -0.74133,-6.02666 l -0.18667,-1.74667 c -0.2,-1.81333 0.003,-3.50667 0.18,-5.01333 0.124,-1.05334 0.24134,-2.04 0.19867,-2.88 -0.0373,-0.73334 -0.24133,-1.65334 -0.45867,-2.64 -0.34,-1.53334 -0.72666,-3.26667 -0.70266,-5.2 0.0253,-1.86667 0.48933,-3.54667 0.9,-5.02667 0.28133,-1.01333 0.54533,-1.97333 0.60666,-2.77333 0.0587,-0.77334 0.10134,-1.56 0.144,-2.34667 0.096,-1.73333 0.19467,-3.53333 0.452,-5.44 0.0987,-0.73333 0.0653,-1.69333 0.028,-2.69333 -0.056,-1.54667 -0.11866,-3.30667 0.23734,-5.18667 0.36533,-1.92 1.23066,-3.49333 1.99333,-4.88 0.496,-0.90667 0.96667,-1.76 1.124,-2.42667 0.188,-0.78666 0.36267,-1.57333 0.54133,-2.38666 0.36534,-1.65334 0.74267,-3.36 1.248,-5.14667 0.26267,-0.92 0.48,-1.88 0.704,-2.84 0.344,-1.49333 0.7,-3.04 1.22134,-4.65333 0.24533,-0.76 0.476,-1.52 0.70666,-2.28 0.49467,-1.62667 1.00667,-3.29334 1.63867,-4.96 0.26933,-0.70667 0.43467,-1.65334 0.608,-2.65334 0.25733,-1.48 0.54933,-3.17333 1.29467,-4.84 0.78133,-1.74666 1.88666,-3.12 2.86266,-4.32 0.612,-0.76 1.19067,-1.48 1.5,-2.08 0.928,-1.78666 1.932,-3.44 2.904,-5.02666 l 0.94534,-1.56 c 0.96266,-1.61334 1.99866,-3.06667 3,-4.46667 0.44,-0.61333 0.87866,-1.22667 1.304,-1.84 1.19333,-1.73333 2.44666,-3.30667 3.66,-4.84 l 0.96933,-1.21333 c 1.78533,-2.26667 3.57733,-4.29334 4.93867,-5.81334 0.476,-0.52 0.944,-1.33333 1.44133,-2.18666 0.77467,-1.32 1.65067,-2.82667 3.01067,-4.16 0.68133,-0.65333 1.31066,-1.37333 1.94133,-2.08 1.03867,-1.17333 2.112,-2.38667 3.416,-3.49333 1.35467,-1.16 2.81733,-2.02667 4.10667,-2.8 0.85866,-0.50667 1.668,-0.98667 2.33733,-1.48 1.49733,-1.12 3.076,-1.8 4.46667,-2.41334 0.90133,-0.38666 1.75066,-0.76 2.37466,-1.16 0.584,-0.37333 1.16134,-0.76 1.73467,-1.14666 1.492,-0.98667 3.03467,-2.01334 4.688,-2.94667 0.74133,-0.41333 1.464,-0.85333 2.18267,-1.28 1.412,-0.84 2.87333,-1.70667 4.45333,-2.48 0.808,-0.38667 1.63733,-0.89333 2.516,-1.42667 1.30267,-0.78666 2.65067,-1.6 4.21067,-2.24 1.75333,-0.73333 3.46933,-0.97333 4.98266,-1.18666 0.964,-0.13334 1.87467,-0.26667 2.52934,-0.49334 0.62133,-0.22666 1.40133,-0.73333 2.228,-1.26666 1.3,-0.84 2.77333,-1.8 4.62133,-2.33334 1.65067,-0.48 3.23067,-0.74666 4.76,-1 0.92667,-0.14666 1.84667,-0.30666 2.73867,-0.50666 1.73066,-0.4 3.392,-0.64 4.99733,-0.86667 0.84933,-0.13333 1.69067,-0.25333 2.52,-0.4 0.91733,-0.16 1.88,-0.42667 2.9,-0.70667 1.44267,-0.4 2.93333,-0.81333 4.56267,-1 1.76,-0.21333 3.45733,-0.2 4.94666,-0.2 0.92,0.0133 1.82,0.0267 2.69867,-0.04 1.83733,-0.10666 3.568,0.04 5.09467,0.16 0.80133,0.0667 1.58266,0.14667 2.33999,0.16 0.648,-0.10666 0.844,-0.2 1.28534,-0.44 1.336,-0.69333 2.808,-1.33333 6.08133,-1.50666 1.608,-0.08 3.22,0.13333 4.78267,0.33333 1.036,0.13333 2.10533,0.26667 3.16266,0.33333 1.7,0.08 3.32667,0.42667 4.89867,0.76 0.91867,0.18667 1.86667,0.38667 2.85733,0.53334 0.74934,0.12 1.51867,0.18666 2.304,0.26666 1.64267,0.17334 3.504,0.36 5.45867,0.82667 2.188,0.52 4.57733,1.22667 7.516,2.21333 0.61733,0.21334 1.5,0.33334 2.43467,0.46667 1.61733,0.22667 3.45066,0.49333 5.32933,1.30667 1.64,0.72 3.06133,1.72 4.31467,2.6 0.84666,0.58666 1.64533,1.14666 2.42133,1.57333 1.572,0.85333 2.88133,1.94667 4.03733,2.90667 0.78534,0.65333 1.52667,1.28 2.26267,1.76 0.47867,0.30666 1.312,0.6 2.19333,0.90666 1.484,0.52 3.332,1.16 5.00267,2.42667 1.504,1.14667 2.56267,2.54667 3.49733,3.78667 0.61467,0.81333 1.19467,1.58666 1.764,2.08 0.49467,0.44 1.28534,0.89333 2.12267,1.37333 1.38,0.8 2.944,1.69333 4.348,3.10667 0.54,0.54666 1.09867,1.08 1.66667,1.62666 1.26,1.21334 2.564,2.48 3.82133,3.90667 1.364,1.56 2.04133,3.38667 2.58533,4.85333 0.324,0.88 0.65867,1.78667 1,2.21333 0.304,0.38667 1.056,0.92 1.78267,1.44 1.29467,0.90667 2.90533,2.04 4.12533,3.78667 1.13867,1.61333 1.64134,3.36 2.08667,4.88 0.276,0.96 0.53867,1.86667 0.86933,2.38667 0.5,0.8 1.04134,1.57333 1.58667,2.34666 0.88133,1.26667 1.79333,2.57334 2.63867,4.04 l 1.03066,1.8 c 0.948,1.64 1.876,3.25334 2.74,4.86667 0.504,0.94667 1.05734,1.85333 1.604,2.76 0.75467,1.24 1.53334,2.52 2.216,3.90667 0.752,1.53333 1.37334,3.02666 1.976,4.46666 0.36267,0.88 0.72134,1.74667 1.1,2.58667 0.692,1.54667 1.23067,3.04 1.752,4.48 0.328,0.92 0.65067,1.82667 1.008,2.70667 0.63334,1.56 1.07467,3.06666 1.5,4.52 0.27867,0.94666 0.55067,1.88 0.87734,2.8 0.3,0.82666 0.78133,1.73333 1.292,2.68 0.68533,1.26666 1.46,2.70666 1.96933,4.34666 0.22667,0.72 0.45733,1.44 0.68667,2.16 0.54666,1.69334 1.112,3.45334 1.58,5.22667 0.43466,1.65333 0.66,3.21333 0.876,4.73333 0.14,0.97334 0.27466,1.94667 0.48,2.88 0.14666,0.68 0.57733,1.54667 1.03333,2.48 0.69067,1.38667 1.47333,2.96 1.8,4.85334 0.33067,1.90666 0.15867,3.66666 0.007,5.22666 -0.0973,1 -0.19067,1.94667 -0.10267,2.6 0.104,0.77334 0.432,1.72 0.77733,2.72 0.48934,1.4 1.04267,3 1.22,4.8 0.16,1.6 0.13467,3.12 0.112,4.57334 -0.0187,1.10666 -0.036,2.14666 0.0333,3.10666 0.12933,1.77334 -0.11067,3.41334 -0.32134,4.86667 -0.152,1.04 -0.296,2.02667 -0.25333,2.78667 0.0573,1.05333 0.21333,2.16 0.37867,3.33333 0.19066,1.33333 0.38666,2.72 0.45866,4.2 0.0587,1.18667 0.0973,2.37333 0.13734,3.56 0.044,1.30667 0.088,2.62667 0.15866,3.93333 0.0387,0.70667 0.34134,1.66667 0.66267,2.66667 0.43467,1.37333 0.928,2.93333 1.05333,4.69333 0.13867,1.93333 -0.29333,3.64 -0.67333,5.13333 -0.22267,0.88 -0.476,1.88 -0.42533,2.38667 0.10266,1.04 0.37333,2.18667 0.66266,3.4 0.29067,1.22667 0.592,2.49333 0.78,3.86667 0.164,1.2 0.46,2.46666 0.77467,3.8 0.26267,1.12 0.52533,2.25333 0.732,3.38666 0.19333,1.06667 0.33867,2.14667 0.484,3.24 0.18666,1.4 0.364,2.73334 0.65733,4 0.184,0.8 0.64533,1.76 1.132,2.77334 0.56533,1.18666 1.20667,2.52 1.64267,4.04 0.38266,1.33333 0.58266,2.61333 0.77733,3.85333 0.18933,1.21333 0.36933,2.36 0.69867,3.33333 0.41466,1.2 0.76533,2.44 1.11466,3.68 0.31734,1.14667 0.63467,2.28 1.02534,3.4 0.27866,0.8 0.77866,1.70667 1.308,2.65334 0.65866,1.18666 1.40533,2.53333 1.94266,4.06666 0.46667,1.33334 0.81334,2.64 1.14934,3.90667 0.30266,1.14667 0.588,2.22667 0.93866,3.24 0.29867,0.86667 0.77334,1.8 1.27867,2.78667 0.60533,1.2 1.292,2.54666 1.79867,4.04 0.54266,1.6 0.74933,3.17333 0.93066,4.56 0.13734,1.06666 0.26934,2.06666 0.52134,2.82666 0.33733,1.04 0.71066,2.05334 1.08266,3.06667 0.48534,1.33333 0.97067,2.65333 1.39467,4 0.44933,1.44 0.752,2.84 1.044,4.18667 0.22667,1.04 0.44933,2.09333 0.75067,3.10666 0.28133,0.96 0.65733,1.94667 1.056,2.98667 0.49866,1.30667 1.01466,2.65333 1.41733,4.13333 0.23467,0.85334 0.63333,1.8 1.056,2.8 0.53867,1.28 1.15067,2.73334 1.54267,4.32 0.48133,1.94667 0.31733,3.82667 0.18666,5.33334 -0.0787,0.92 -0.16133,1.86666 -0.0467,2.38666 0.15333,0.70667 0.55066,1.58667 0.97066,2.52 0.61334,1.34667 1.30934,2.88 1.63734,4.68 0.176,0.97334 0.4,1.93334 0.624,2.90667 0.33733,1.45333 0.684,2.97333 0.912,4.56 0.23333,1.64 0.256,3.18666 0.28,4.68 0.0147,1.05333 0.0307,2.05333 0.12133,2.96 0.0907,0.90666 0.268,1.88 0.456,2.92 0.27067,1.48 0.552,3.01333 0.636,4.68 0.0867,1.70666 0.012,3.34666 -0.06,4.93333 -0.0427,0.92 -0.0867,1.84 -0.0893,2.76 -0.008,1.98667 -0.14667,3.92 -0.28267,5.78667 l -0.132,1.92 c -0.112,1.74666 -0.48933,3.4 -0.824,4.84 -0.22667,0.98666 -0.43867,1.90666 -0.55067,2.76 -0.22666,1.76 -0.63066,3.37333 -1.01866,4.93333 -0.21467,0.86667 -0.43067,1.72 -0.60667,2.6 -0.15733,0.77333 -0.21467,1.70667 -0.27467,2.69333 -0.0933,1.52 -0.19866,3.22667 -0.696,5.01334 -0.50133,1.78666 -1.32933,3.30666 -2.05866,4.64 -0.476,0.86666 -0.924,1.69333 -1.19467,2.42666 -0.244,0.68 -0.476,1.34667 -0.70667,2.02667 -0.57866,1.68 -1.17733,3.41333 -1.98933,5.2 -0.94533,2.08 -2.02933,4.02667 -3.07733,5.92 l -0.50667,0.90667 c -0.40533,0.73333 -0.77867,1.48 -1.156,2.24 -0.73867,1.48 -1.504,3.01333 -2.516,4.54666 -0.112,0.17334 -0.22267,0.37334 -0.33067,0.57334 0.53067,0.16 1.052,0.33333 1.568,0.49333 0.80534,0.25333 1.61467,0.52 2.43334,0.73333 0.864,0.24 1.73466,0.45334 2.612,0.68 1.65066,0.41334 3.356,0.84 5.11333,1.4 1.54,0.48 2.91333,1.21334 4.12667,1.86667 1.06,0.56 2.064,1.09333 2.98,1.36 1.44933,0.42667 3.04933,0.77333 4.74266,1.13333 0.884,0.18667 1.77867,0.37334 2.67734,0.58667 2.85866,0.65333 5.312,1.6 7.58133,2.50667 0.75333,0.29333 1.61867,0.52 2.536,0.76 1.63067,0.42666 3.476,0.90666 5.19733,1.96 2.39867,1.48 4.124,3.30666 5.50934,4.76 0.28266,0.29333 0.55733,0.58666 0.828,0.86666 2.876,2.92002 5.27066,5.61332 5.42666,8.97332 0.11467,2.4133 -0.89333,4.0133 -1.75866,4.92 -2.10134,2.2 -5.26667,2.5067 -8.37734,2.5067 -0.56666,0 -1.3,0.013 -2.184,0.053 -2.13733,0.067 -5.05866,0.053 -8.612,0.1867 -2.49333,0.08 -5.27333,0.12 -8.25466,-0.067 -1.21867,-0.067 -2.476,-0.1467 -3.76934,-0.1467 -0.71866,0 -1.69066,0.2 -2.72,0.4267 -1.44,0.32 -3.072,0.6667 -4.884,0.6667 -1.18666,0 -2.388,0.04 -3.60266,0.067 -1.32267,0.04 -2.66,0.067 -4.00667,0.067 -1.71867,0 -3.30133,-0.3333 -4.69867,-0.64 -1.07866,-0.2267 -2.096,-0.44 -2.90933,-0.44 -0.79467,0 -1.804,0.2133 -2.87333,0.4533 -1.408,0.2934 -3.00534,0.6534 -4.748,0.6534 -1.10267,0 -2.25734,0.093 -3.48,0.2 -2.75067,0.2266 -5.79867,0.2133 -8.46667,-0.053 -2.53733,-0.24 -4.56666,-0.2133 -6.904,-0.027 -2.668,0.2133 -5.56533,0.2 -8.18933,0.1333 -2.776,-0.067 -5.328,-0.04 -7.58533,0.04 -1.232,0.053 -2.384,0.093 -3.44534,0.093 -3.06666,0 -4.52533,-0.4533 -5.86933,-0.9733 -0.548,-0.2 -0.75333,-0.28 -1.73333,-0.28 -7.44134,0 -10.26934,-4.5067 -10.42934,-8.3733 -0.084,-2.0267 0.31867,-4.2134 0.83334,-6.1067 -0.98134,0.1733 -1.91734,0.36 -2.804,0.6533 -1.46667,0.4934 -2.91467,0.72 -4.31467,0.92 -1.11333,0.1734 -2.164,0.3334 -3.116,0.6134 -0.77733,0.2266 -1.56533,0.48 -2.36933,0.7333 -1.52934,0.4933 -3.112,1 -4.836,1.44 -1.5,0.3867 -3.01867,0.68 -4.488,0.96 -0.95067,0.1733 -1.91734,0.36 -2.89467,0.5733 -0.92667,0.2 -1.848,0.48 -2.78133,0.76 -1.42,0.4267 -2.89067,0.8667 -4.52667,1.16 -2.56267,0.4534 -5.00533,0.8534 -7.468,1.1867 -0.832,0.12 -1.772,0.3733 -2.76533,0.64 -1.392,0.3733 -2.97067,0.7867 -4.688,0.96 -0.75067,0.067 -1.50667,0.1467 -2.264,0.2267 -1.71867,0.1866 -3.49467,0.3866 -5.328,0.4666 -1.68134,0.093 -3.292,-0.08 -4.71734,-0.24 -1.04266,-0.1066 -2.02933,-0.2133 -2.928,-0.2133 -0.82,0 -1.836,0.2133 -2.91066,0.4267 -1.49467,0.3066 -3.18534,0.6666 -5.02667,0.6 -2.05467,-0.08 -3.80933,-0.6934 -5.356,-1.2534 -0.956,-0.3333 -1.85867,-0.6533 -2.46133,-0.6933 -0.82934,-0.067 -1.86534,0.08 -2.95867,0.24 -1.49733,0.2133 -3.19466,0.4533 -5.00533,0.2667 -2.036,-0.2 -3.74267,-0.9067 -5.248,-1.52 -0.932,-0.3867 -1.812,-0.76 -2.41467,-0.8267 -0.788,-0.1067 -1.82,0.013 -2.91066,0.1333 -1.52134,0.1734 -3.248,0.36 -5.08134,0.067 -1.876,-0.2933 -3.68133,-0.6667 -5.416,-1.0133 -0.79733,-0.1734 -1.58,-0.32 -2.348,-0.48 -1.84933,-0.3467 -3.476,-0.9334 -4.912,-1.4534 -0.97333,-0.36 -1.89333,-0.68 -2.66266,-0.8533 -1.92134,-0.44 -3.60134,-0.9867 -5.084,-1.48 -0.87867,-0.2933 -1.69867,-0.56 -2.47734,-0.7733 -0.82266,-0.2134 -1.56266,-0.48 -2.22533,-0.76 0.108,0.5466 0.188,1.1466 0.21867,1.7866 0.0213,0.4667 0.172,1.16 0.316,1.8267 0.41733,1.9333 0.988,4.5867 -0.19734,7.1867 -1.82,3.9866 -5.76133,6.56 -10.04133,6.56 -0.78,0 -1.61733,-0.1067 -2.58533,-0.2267 -1.30667,-0.1733 -2.93334,-0.3867 -4.83867,-0.3867 -0.81467,0 -1.80933,0.093 -2.86267,0.1867 -1.35866,0.12 -2.9,0.2533 -4.56666,0.2533 -1.73734,0 -3.30534,-0.4533 -4.69067,-0.8533 -1.02933,-0.2933 -2.00133,-0.56 -2.73867,-0.56 -0.55733,0 -1.48266,0.2533 -2.37866,0.5067 -1.468,0.4 -3.13334,0.8666 -5.04667,0.8666 -1.84667,0 -3.47333,-0.4933 -4.908,-0.92 -0.976,-0.2933 -1.89733,-0.56 -2.52267,-0.56 -0.43466,0 -1.38933,0.3467 -2.15866,0.6267 -1.44134,0.52 -3.23467,1.1733 -5.27334,1.1733 -1.848,0 -3.48,-0.4533 -4.91866,-0.8533 -0.97467,-0.28 -1.89467,-0.5333 -2.52267,-0.5333 -0.664,0 -1.60133,0.2533 -2.59333,0.5333 -1.42267,0.3867 -3.036,0.8267 -4.84934,0.8267 -1.89066,0 -3.544,-0.4667 -5.00133,-0.8667 -0.952,-0.2667 -1.84933,-0.52 -2.432,-0.52 -1.33733,0 -2.652,-0.027 -3.93867,-0.04 -2.46666,-0.04 -4.84,-0.027 -7.18,0.1333 -1.29999,0.08 -2.55466,0.16 -3.75733,0.16 -0.93866,0 -2.00133,0.2667 -3.12533,0.56 -1.356,0.3467 -2.75733,0.7067 -4.30267,0.7067 -1.34,0 -2.096,0.1467 -2.82666,0.2933 -0.78534,0.16 -1.53734,0.28 -2.344,0.28"
       style="fill:#362421;fill-opacity:1;fill-rule:nonzero;stroke:none;stroke-width:0.133333" />
    <path
       id="path16"
       d="m 312.74399,692.30672 c -1.588,0 -3.04533,-0.2 -4.35733,-0.4 -0.92667,-0.13333 -1.80267,-0.25333 -2.55067,-0.28 -2.51466,-0.08 -5.22133,-0.2 -7.98,-0.6 -0.68933,-0.10666 -1.624,-0.0267 -2.612,0.0533 -1.72666,0.13333 -3.684,0.29333 -5.74,-0.30667 -2.17866,-0.65333 -4.00666,-1.69333 -5.61866,-2.62667 -0.66267,-0.38666 -1.312,-0.76 -1.964,-1.08 -0.592,-0.29333 -1.19467,-0.56 -1.79467,-0.84 -1.916,-0.86666 -3.89733,-1.77333 -5.71867,-3.14666 -1.896,-1.42667 -3.32666,-3.16 -4.58933,-4.69334 -0.424,-0.52 -0.844,-1.02666 -1.276,-1.50666 -1.81733,-2.05334 -3.12667,-4.24 -4.39333,-6.36 l -0.34134,-0.57334 c -1.13066,-1.89333 -1.816,-3.86666 -2.42,-5.6 -0.236,-0.66666 -0.47066,-1.36 -0.73466,-2.02666 -0.272,-0.69334 -0.68534,-1.45334 -1.12267,-2.26667 -0.81067,-1.49333 -1.72933,-3.2 -2.21733,-5.24 -0.46534,-1.94667 -0.43467,-3.81333 -0.408,-5.46667 0.016,-0.96 0.0307,-1.88 -0.06,-2.65333 -0.076,-0.68 -0.36134,-1.54667 -0.66134,-2.46667 -0.51866,-1.58666 -1.10533,-3.38666 -1.12933,-5.46666 -0.0213,-2.06667 0.17333,-4.05334 0.36133,-5.97334 0.068,-0.68 0.136,-1.37333 0.19067,-2.04 0.152,-1.86666 0.55333,-3.55999 0.94267,-5.19999 0.20933,-0.88 0.42266,-1.76 0.572,-2.64 0.14666,-0.86667 0.22266,-1.81334 0.304,-2.82667 0.132,-1.64 0.268,-3.33333 0.724,-5.10667 0.52666,-2.02666 1.576,-3.70666 2.42133,-5.05333 0.508,-0.8 0.98667,-1.56 1.19867,-2.16 0.212,-0.58667 0.24933,-1.57333 0.28933,-2.6 0.0613,-1.58667 0.132,-3.38667 0.84133,-5.21333 0.748,-1.92 1.93467,-3.42667 2.88934,-4.65334 0.592,-0.74666 1.15066,-1.46666 1.37733,-1.98666 0.36267,-0.82667 0.61467,-1.82667 0.88133,-2.88 0.36534,-1.44 0.77867,-3.08 1.584,-4.64 1.02267,-1.98667 2.19467,-3.73334 3.228,-5.26667 0.35867,-0.52 0.708,-1.04 1.04,-1.56 l 0.30667,-0.46667 c 1.468,-2.26666 2.856,-4.41333 4.58133,-6.29333 l 0.292,-0.32 c 1.904,-2.08 3.87067,-4.22667 6.336,-5.72 2.5,-1.50667 5.09734,-1.57333 7.18534,-1.62667 0.74133,-0.0133 1.44266,-0.0267 1.99866,-0.12 0.572,-0.08 1.144,-0.21333 1.72667,-0.34666 1.96667,-0.42667 4.40933,-0.98667 7.232,-0.42667 l 0.89867,0.16 c 2.124,0.41333 4.76666,0.90667 7.41333,2.02667 1.756,0.74666 3.18533,1.89333 4.44533,2.90666 0.816,0.65334 1.58667,1.28 2.35067,1.72 0.59067,0.33334 1.44667,0.65334 2.35333,1 1.572,0.58667 3.35334,1.25334 5.07067,2.45334 1.44533,1.01333 2.816,2.16 4.14,3.26666 0.69867,0.57334 1.40267,1.16 2.124,1.73334 1.37866,1.09333 2.47066,2.37333 3.43466,3.50666 0.72134,0.84 1.40267,1.64 2.088,2.24 0.70267,0.6 1.57734,1.18667 2.504,1.8 1.21067,0.81334 2.58267,1.73334 3.848,2.89334 1.14934,1.05333 2.244,2.17333 3.336,3.29333 0.73867,0.74667 1.476,1.50667 2.23334,2.24 1.13866,1.09333 2.14533,2.22667 3.12,3.30667 0.72933,0.82666 1.45466,1.64 2.21733,2.4 0.74533,0.76 1.612,1.46666 2.528,2.22666 1.10667,0.90667 2.25067,1.85334 3.324,2.97334 0.82667,0.85333 1.69733,1.65333 2.54933,2.44 1.024,0.94666 2.084,1.92 3.072,2.97333 1.25867,1.36 2.17867,2.78667 2.99067,4.05333 0.572,0.89334 1.112,1.72 1.62267,2.29334 0.87066,0.96 1.71066,1.86666 2.504,2.72 1.00533,1.08 1.93733,2.08 2.756,3.01333 1.93866,2.21333 2.54,3.06667 3.124,3.90667 0.388,0.56 0.75466,1.08 1.72133,2.24 1.57067,1.89333 1.31333,4.69333 -0.57333,6.26666 -1.888,1.57333 -4.68934,1.30667 -6.25867,-0.57333 -1.20667,-1.45334 -1.72133,-2.18667 -2.176,-2.84 -0.48667,-0.69334 -0.90667,-1.29334 -2.524,-3.14667 -0.764,-0.86666 -1.63467,-1.8 -2.572,-2.81333 -0.824,-0.88 -1.69733,-1.81333 -2.59867,-2.81333 -0.99733,-1.10667 -1.76133,-2.29334 -2.50133,-3.45334 -0.67067,-1.04 -1.304,-2.02666 -2.024,-2.8 -0.752,-0.8 -1.64,-1.62666 -2.58133,-2.48 -0.984,-0.90666 -1.98534,-1.84 -2.94134,-2.82666 -0.716,-0.74667 -1.616,-1.49334 -2.568,-2.28 -1.04133,-0.85334 -2.11733,-1.74667 -3.17066,-2.8 -0.87734,-0.88 -1.71467,-1.81334 -2.55467,-2.76 -0.90267,-1.01334 -1.756,-1.97334 -2.65067,-2.82667 -0.82266,-0.8 -1.62533,-1.61333 -2.42933,-2.44 -0.976,-1 -1.95067,-2 -2.97733,-2.94667 -0.76667,-0.69333 -1.74667,-1.34666 -2.784,-2.04 -1.10667,-0.74666 -2.25067,-1.50666 -3.36267,-2.46666 -1.20933,-1.04 -2.192,-2.2 -3.05866,-3.21334 -0.76667,-0.89333 -1.49067,-1.74666 -2.184,-2.29333 -0.78,-0.62667 -1.54,-1.25333 -2.29334,-1.88 -1.24133,-1.04 -2.41466,-2.01333 -3.56666,-2.82667 -0.784,-0.54666 -1.892,-0.96 -3.064,-1.4 -1.21334,-0.45333 -2.46534,-0.92 -3.70534,-1.64 -1.344,-0.77333 -2.46533,-1.68 -3.45333,-2.46666 -0.89067,-0.72 -1.732,-1.38667 -2.35733,-1.65334 -1.76534,-0.74666 -3.70934,-1.12 -5.58934,-1.46666 l -0.948,-0.18667 c -1.00133,-0.18667 -2.204,0.08 -3.59466,0.38667 -0.796,0.17333 -1.58267,0.34666 -2.364,0.46666 -1.088,0.16 -2.14267,0.18667 -3.072,0.21334 -1.14934,0.0267 -2.336,0.0533 -2.82534,0.34666 -1.36533,0.82667 -2.824,2.41334 -4.368,4.10667 l -0.3,0.33333 c -1.21733,1.32 -2.40533,3.16 -3.66533,5.10667 l -0.30933,0.48 c -0.36267,0.56 -0.74267,1.12 -1.13067,1.69333 -0.94,1.4 -1.91333,2.84 -2.69467,4.36 -0.34,0.65334 -0.59733,1.68 -0.872,2.76 -0.32666,1.29334 -0.69733,2.76 -1.352,4.25334 -0.67866,1.54666 -1.66,2.81333 -2.52533,3.90666 -0.684,0.88 -1.33067,1.70667 -1.60133,2.4 -0.17067,0.44 -0.20934,1.44 -0.244,2.33334 -0.0573,1.49333 -0.13067,3.36 -0.8,5.24 -0.53867,1.50666 -1.33867,2.78666 -2.04534,3.90666 -0.596,0.94667 -1.16,1.85334 -1.33866,2.54667 -0.26534,1.02667 -0.36534,2.28 -0.472,3.6 -0.092,1.14667 -0.18934,2.33333 -0.4,3.58667 -0.18134,1.06666 -0.43334,2.14666 -0.688,3.22666 -0.32667,1.36 -0.63467,2.66667 -0.73067,3.85333 -0.06,0.72 -0.132,1.45334 -0.204,2.2 -0.17333,1.76 -0.336,3.41334 -0.31867,4.98667 0.008,0.72 0.33867,1.73333 0.68934,2.81333 0.40533,1.24 0.864,2.64 1.044,4.21334 0.15466,1.36 0.13333,2.66666 0.116,3.81333 -0.0213,1.22667 -0.0387,2.4 0.16666,3.25333 0.216,0.90667 0.78667,1.96 1.38934,3.08 0.51866,0.96 1.108,2.05334 1.576,3.24 0.30933,0.78667 0.584,1.57334 0.85866,2.36 0.508,1.46667 0.988,2.85334 1.648,3.94667 l 0.35067,0.58667 c 1.10267,1.85333 2.144,3.58666 3.40133,5 0.504,0.57333 0.99734,1.17333 1.49467,1.77333 1.04,1.26667 2.024,2.45333 3.07867,3.25333 1.044,0.78667 2.50666,1.45334 4.056,2.16 0.67466,0.30667 1.34933,0.61334 2.01466,0.93334 0.82667,0.41333 1.652,0.88 2.49067,1.36 1.29867,0.74666 2.52667,1.45333 3.69467,1.8 0.47733,0.13333 1.56266,0.0533 2.51733,-0.0267 1.372,-0.10667 2.928,-0.22667 4.60933,0.0133 2.316,0.33334 4.716,0.45334 6.96534,0.52 1.25466,0.0267 2.42533,0.2 3.55733,0.37334 1.28667,0.18666 2.49333,0.36 3.58133,0.29333 1.06,-0.0667 2.14934,-0.0667 3.26,-0.0667 1.42134,0.0133 2.764,0.0267 4.01867,-0.16 2.704,-0.37333 5.06933,-0.77333 7.23467,-1.21333 0.972,-0.2 2.07866,-0.6 3.25066,-1.02667 1.18667,-0.44 2.41333,-0.89333 3.78,-1.24 1.11333,-0.29333 2.26667,-0.50666 3.436,-0.73333 1.34667,-0.25333 2.61867,-0.48 3.80267,-0.85333 0.59733,-0.17334 1.42,-0.72 2.28933,-1.28 1.22533,-0.8 2.61467,-1.70667 4.33067,-2.30667 2.31733,-0.81333 4.852,0.41333 5.66266,2.72 0.81067,2.32 -0.412,4.85333 -2.728,5.66667 -0.69733,0.25333 -1.52933,0.78666 -2.40933,1.36 -1.284,0.84 -2.74133,1.78666 -4.53467,2.34666 -1.66666,0.50667 -3.24933,0.8 -4.78,1.09334 -0.96666,0.17333 -1.92,0.34666 -2.84,0.58666 -0.94133,0.24 -1.91733,0.6 -2.948,0.98667 -1.42933,0.52 -2.90799,1.06667 -4.53466,1.38667 -2.34933,0.48 -4.896,0.92 -7.78533,1.32 -1.888,0.26666 -3.696,0.25333 -5.29734,0.24 -0.90133,0 -1.78933,-0.0133 -2.65066,0.04 -0.35867,0.0267 -0.71067,0.0267 -1.05734,0.0267"
       style="fill:#362421;fill-opacity:1;fill-rule:nonzero;stroke:none;stroke-width:0.133333" />
    <path
       id="path17"
       d="m 596.05865,666.04006 c -1.39333,0 -2.78666,-0.0533 -4.14933,-0.12 -0.69067,-0.0267 -1.38667,-0.0533 -2.08667,-0.08 -1.70533,-0.0533 -3.32133,-0.4 -4.748,-0.70667 -1.03466,-0.22667 -2.012,-0.44 -2.91466,-0.52 -1.61734,-0.14667 -3.12534,-0.48 -4.58534,-0.8 -0.97066,-0.21333 -1.95466,-0.42667 -2.96666,-0.57333 -0.904,-0.13334 -1.82134,-0.22667 -2.748,-0.32 -1.54667,-0.14667 -3.144,-0.30667 -4.836,-0.64 -2.412,-0.45334 -3.99467,-2.77334 -3.536,-5.18667 0.46,-2.41333 2.78533,-4 5.19866,-3.54667 1.308,0.25334 2.64534,0.38667 4.06134,0.53334 1.05466,0.10666 2.09866,0.21333 3.12666,0.36 1.22534,0.17333 2.41867,0.44 3.59467,0.69333 1.25067,0.26667 2.432,0.52 3.50133,0.62667 1.44267,0.13333 2.79467,0.42666 3.98667,0.68 1.15733,0.25333 2.24933,0.49333 3.144,0.52 0.73467,0.0133 1.46533,0.0533 2.18933,0.08 1.76934,0.08 3.44267,0.14666 4.988,0.0933 1.32134,-0.0533 2.69334,-0.29333 4.14533,-0.53333 0.988,-0.17334 1.96267,-0.33334 2.92134,-0.45334 0.92533,-0.10666 1.99466,-0.50666 3.12533,-0.93333 1.07733,-0.41333 2.29867,-0.86667 3.61867,-1.16 1.01333,-0.21333 2.016,-0.38667 3.00533,-0.54667 1.38667,-0.22666 2.696,-0.44 3.78,-0.8 0.86,-0.29333 1.72267,-0.54666 2.576,-0.8 1.46533,-0.44 2.84933,-0.84 3.972,-1.38666 0.82,-0.4 1.65733,-0.76 2.492,-1.12 1.40533,-0.61334 2.732,-1.18667 3.73867,-1.86667 1.71466,-1.14667 3.47733,-2.54667 5.39066,-4.28 1.056,-0.96 2.024,-2.21333 3.04934,-3.54667 0.45066,-0.57333 0.89866,-1.16 1.35733,-1.72 0.49733,-0.61333 0.912,-1.62666 1.352,-2.70666 0.43333,-1.06667 0.92667,-2.26667 1.64,-3.45334 0.72533,-1.21333 1.576,-2.22666 2.32667,-3.11999 0.74533,-0.89334 1.448,-1.73334 1.76133,-2.45334 0.328,-0.74666 0.48667,-1.84 0.65333,-3.01333 0.16667,-1.14667 0.356,-2.45333 0.756,-3.8 0.48267,-1.6 1.27734,-2.93333 1.97867,-4.10667 0.512,-0.86666 1.04267,-1.76 1.14667,-2.30666 0.204,-1.09334 0.224,-2.38667 0.244,-3.76 0.016,-1.12 0.036,-2.22667 0.13333,-3.32 0.13333,-1.49334 0.10267,-3.08 0.0693,-4.74667 -0.0147,-0.77333 -0.0307,-1.54667 -0.0307,-2.32 0,-1.2 0.0893,-2.33333 0.176,-3.44 0.104,-1.32 0.20266,-2.57333 0.112,-3.66667 -0.092,-1.10666 -0.348,-2.26666 -0.62,-3.50666 -0.28667,-1.29334 -0.58,-2.62667 -0.72534,-4.05334 -0.13733,-1.36 -0.39066,-2.70666 -0.65733,-4.13333 -0.212,-1.12 -0.41867,-2.24 -0.57067,-3.33333 l -0.0813,-0.58667 c -0.32933,-2.38667 -0.64,-4.65333 -1.068,-6.72 -0.164,-0.78667 -0.31067,-1.57333 -0.45333,-2.33333 -0.31734,-1.70667 -0.61734,-3.30667 -1.06934,-4.64 -0.688,-2.01334 -1.54266,-4.32 -2.66,-6.09334 -0.83866,-1.33333 -2.16933,-2.26666 -3.852,-3.42666 l -0.54266,-0.38667 c -1.32267,-0.93333 -2.77334,-1.48 -5.172,-1.96 -2.08134,-0.41333 -4.02934,-0.53333 -6.31067,-0.38667 l -1.48,0.08 c -1.85067,0.10667 -3.6,0.2 -5.45867,0.61334 -2.26533,0.49333 -4.70666,1.24 -7.00933,1.97333 -1.34933,0.42667 -2.668,0.62667 -3.94267,0.81333 -1.25333,0.2 -2.43733,0.37334 -3.41466,0.74667 -2.66934,1.04 -4.768,1.94667 -6.60267,2.85333 -0.92267,0.46667 -1.89466,1.21334 -2.924,2 -0.936,0.72 -1.90133,1.46667 -3.008,2.14667 -0.94,0.57333 -1.87866,1.38667 -2.872,2.25333 -0.85733,0.74667 -1.74266,1.50667 -2.75466,2.25334 -1.19467,0.86666 -2.44134,1.50666 -3.54267,2.09333 -1.04933,0.54667 -2.04133,1.06667 -2.72,1.62667 -0.74933,0.64 -1.48133,1.53333 -2.256,2.49333 -0.79333,0.97333 -1.61333,1.98667 -2.628,2.94667 -1.67733,1.6 -3.46133,3.33333 -5.15733,5.14666 -1.22,1.29334 -2.6,2.18667 -3.81734,2.96 -0.884,0.57334 -1.71866,1.10667 -2.11733,1.57334 -0.516,0.61333 -0.97867,1.58666 -1.46933,2.6 -0.584,1.22666 -1.24667,2.6 -2.22934,3.88 -0.72933,0.94666 -1.36666,2.02666 -2.044,3.17333 -0.588,1 -1.196,2.02667 -1.90533,3.04 -0.992,1.42667 -2.14133,2.52 -3.156,3.49333 -0.77067,0.73334 -1.5,1.42667 -1.872,2.01334 -0.77867,1.21333 -1.46533,2.50666 -2.13067,3.76 -0.49466,0.93333 -0.97466,1.84 -1.472,2.69333 -0.94133,1.61333 -1.72133,3.13333 -2.47466,4.61333 -0.34,0.66667 -0.664,1.29334 -0.97867,1.89334 -1.188,2.24 -1.88533,3.22666 -2.39333,3.94666 -0.436,0.61334 -0.65334,0.92 -1.27067,2.32 -0.98667,2.25334 -3.616,3.26667 -5.856,2.29334 -2.248,-0.98667 -3.27067,-3.61334 -2.28533,-5.86667 0.91466,-2.08 1.45066,-2.89333 2.164,-3.89333 0.42666,-0.6 0.868,-1.22667 1.78266,-2.96 0.29734,-0.56 0.60134,-1.14667 0.92134,-1.77334 0.77066,-1.52 1.64666,-3.22666 2.71733,-5.06666 0.43733,-0.74667 0.856,-1.53334 1.29067,-2.36 0.71333,-1.34667 1.52266,-2.86667 2.49866,-4.4 0.948,-1.48 2.15467,-2.62667 3.22,-3.65334 0.78534,-0.74666 1.528,-1.45333 2.01334,-2.14666 0.54666,-0.78667 1.03466,-1.61334 1.53333,-2.46667 0.744,-1.25333 1.588,-2.68 2.644,-4.06667 0.42133,-0.54666 0.83333,-1.4 1.268,-2.30666 0.67733,-1.41334 1.444,-3.01334 2.69333,-4.49334 1.26134,-1.49333 2.772,-2.45333 4.10667,-3.32 0.85733,-0.54666 1.66667,-1.06666 2.13067,-1.56 1.84666,-1.97333 3.74,-3.8 5.50933,-5.49333 0.60667,-0.57333 1.21733,-1.33333 1.864,-2.13333 0.95733,-1.17334 2.04133,-2.50667 3.43867,-3.68 1.42266,-1.2 2.964,-2 4.32266,-2.70667 0.908,-0.48 1.76667,-0.92 2.43067,-1.41333 0.69867,-0.50667 1.404,-1.12 2.15067,-1.76 1.16533,-1.01334 2.48666,-2.17334 4.05466,-3.13334 0.70934,-0.42666 1.45467,-1 2.244,-1.61333 1.25467,-0.96 2.67734,-2.05333 4.36534,-2.89333 2.092,-1.04 4.43599,-2.06667 7.37733,-3.2 1.87733,-0.72 3.68,-1 5.26933,-1.24 0.98,-0.14667 1.90667,-0.29334 2.59333,-0.50667 2.504,-0.78667 5.18,-1.61333 7.79467,-2.18667 2.56667,-0.56 4.86133,-0.68 6.88667,-0.78666 l 1.37066,-0.08 c 3.052,-0.21334 5.80267,-0.04 8.64534,0.53333 2.55733,0.52 5.57066,1.32 8.536,3.41333 l 0.51466,0.36 c 2.104,1.46667 4.48934,3.12 6.28667,5.97334 1.61067,2.56 2.70133,5.46666 3.556,7.97333 0.65733,1.93333 1.032,3.93333 1.392,5.86667 0.132,0.72 0.268,1.44 0.42,2.17333 0.488,2.36 0.81867,4.76 1.16933,7.30667 l 0.0813,0.58666 c 0.132,0.96 0.316,1.92 0.50133,2.90667 0.28933,1.54667 0.58933,3.13333 0.76533,4.86667 0.0933,0.92 0.32134,1.96 0.56134,3.05333 0.308,1.4 0.65733,2.98667 0.79733,4.68 0.15067,1.8 0.02,3.48 -0.108,5.10667 -0.0707,0.90666 -0.148,1.82666 -0.148,2.74666 0,0.70667 0.0147,1.41334 0.0293,2.13334 0.0347,1.82666 0.0733,3.73333 -0.10266,5.70666 -0.0787,0.88 -0.0867,1.77334 -0.1,2.66667 -0.024,1.6 -0.0507,3.41333 -0.39467,5.26667 -0.396,2.10666 -1.424,3.82666 -2.24933,5.21333 -0.48,0.8 -0.932,1.56 -1.09867,2.12 -0.21067,0.70667 -0.33867,1.58667 -0.47333,2.52 -0.232,1.61333 -0.49467,3.44 -1.3,5.29333 -0.82667,1.89333 -2.03334,3.33333 -3.1,4.6 -0.59467,0.72 -1.15734,1.38667 -1.52534,2 -0.356,0.58667 -0.67866,1.38667 -1.02133,2.22667 -0.636,1.56 -1.35867,3.33333 -2.7,4.97333 -0.40667,0.49333 -0.80667,1.01333 -1.20933,1.53333 -1.15734,1.49334 -2.46934,3.2 -4.104,4.68 -2.24,2.04 -4.34134,3.70667 -6.42267,5.09334 -1.67867,1.13333 -3.444,1.89333 -5.152,2.62666 -0.72,0.32 -1.444,0.62667 -2.152,0.97334 -1.776,0.85333 -3.57867,1.38666 -5.32133,1.90666 -0.748,0.22667 -1.50534,0.44 -2.26,0.69334 -1.77334,0.6 -3.508,0.89333 -5.18667,1.16 -0.83733,0.13333 -1.688,0.28 -2.544,0.46666 -0.68667,0.14667 -1.50933,0.45334 -2.38,0.78667 -1.50133,0.56 -3.204,1.2 -5.19733,1.44 -0.816,0.10667 -1.644,0.24 -2.48267,0.38667 -1.59467,0.26666 -3.4,0.58666 -5.30666,0.65333 -0.51734,0.0267 -1.03734,0.0267 -1.55734,0.0267"
       style="fill:#362421;fill-opacity:1;fill-rule:nonzero;stroke:none;stroke-width:0.133333" />
    <path
       id="path18"
       d="m 359.83732,662.52006 c -1.58666,0 -3.12,-0.85334 -3.92266,-2.34667 -0.91467,-1.72 -1.11867,-1.98667 -1.72534,-2.81333 -0.45733,-0.61334 -1.06666,-1.44 -2.124,-3.01334 -0.21466,-0.32 -0.964,-0.94666 -1.56533,-1.44 -1.09333,-0.92 -2.452,-2.05333 -3.62267,-3.6 -0.91866,-1.21333 -1.52,-2.53333 -2.052,-3.70666 -0.46666,-1.02667 -0.908,-2 -1.44533,-2.62667 -0.46,-0.56 -1.26667,-1.16 -2.12,-1.81333 -1.05333,-0.8 -2.248,-1.70667 -3.35467,-2.88 -0.77333,-0.82667 -1.72133,-1.65334 -2.72666,-2.52 -0.84267,-0.73334 -1.69734,-1.48 -2.53067,-2.28 -0.5,-0.46667 -0.99733,-0.96 -1.49866,-1.45334 -1.224,-1.2 -2.38134,-2.33333 -3.644,-3.41333 -1.36,-1.17333 -2.24267,-2.56 -3.02267,-3.78666 -0.51867,-0.81334 -1.05333,-1.65334 -1.48267,-1.98667 l -0.5,-0.37333 c -1.71333,-1.32 -3.48533,-2.66667 -5.276,-3.88 -1.068,-0.70667 -2.396,-1.2 -3.80266,-1.70667 -0.76934,-0.28 -1.512,-0.56 -2.20534,-0.85333 l -0.93733,-0.4 c -1.82533,-0.8 -3.54933,-1.54667 -4.88133,-1.74667 -1.056,-0.14667 -2.40267,0.16 -3.82267,0.48 -0.69733,0.16 -1.38,0.30667 -2.044,0.42667 -1.93867,0.33333 -3.74,0.93333 -5.512,1.85333 -0.79733,0.41333 -1.628,0.77333 -2.45333,1.13333 -1.27867,0.56 -2.48534,1.09334 -3.15734,1.66667 -0.916,0.8 -1.69466,1.92 -2.52,3.12 -0.50133,0.72 -0.98666,1.41333 -1.47866,2.02667 l -0.54,0.68 c -1.62934,2.02666 -1.62934,2.02666 -2.624,3.98666 l -0.30667,0.61333 c -1.11467,2.18667 -3.78933,3.05334 -5.97867,1.93334 -2.18666,-1.10667 -3.056,-3.78667 -1.94266,-5.97333 l 0.30266,-0.58667 c 1.34534,-2.65333 1.51467,-2.92 3.61334,-5.53333 l 0.53333,-0.66667 c 0.372,-0.46667 0.732,-0.98667 1.11067,-1.53333 1,-1.45334 2.24533,-3.25334 4.01066,-4.78667 1.692,-1.45333 3.66934,-2.32 5.412,-3.08 0.65867,-0.29333 1.32134,-0.58667 1.956,-0.90667 2.54934,-1.30666 5.26,-2.22666 8.05734,-2.70666 0.51333,-0.0933 1.04266,-0.21334 1.584,-0.33334 1.952,-0.44 4.38,-1 7.08666,-0.6 2.50267,0.36 4.85867,1.38667 7.13734,2.37334 l 0.89733,0.38666 c 0.548,0.24 1.13733,0.45334 1.74667,0.66667 1.67066,0.61333 3.752,1.37333 5.71733,2.69333 2.01733,1.36 3.89733,2.8 5.716,4.18667 l 0.49733,0.37333 c 1.68267,1.29334 2.73734,2.94667 3.584,4.28 0.47067,0.73334 0.95734,1.49334 1.32,1.81334 1.484,1.28 2.80133,2.56 4.07467,3.81333 0.47733,0.46667 0.95066,0.93333 1.42933,1.4 0.72,0.68 1.46267,1.33333 2.192,1.96 1.13333,0.97333 2.304,1.98666 3.39867,3.16 0.59066,0.62666 1.38933,1.24 2.23466,1.88 1.148,0.86666 2.448,1.85333 3.54667,3.16 1.328,1.57333 2.11333,3.30666 2.744,4.69333 0.372,0.81333 0.72267,1.58667 1.04533,2.01333 0.55467,0.73334 1.364,1.41334 2.22134,2.12 1.09333,0.90667 2.33333,1.94667 3.26,3.32 0.94133,1.41334 1.484,2.14667 1.89066,2.69334 0.80667,1.09333 1.24534,1.70666 2.41334,3.89333 1.16,2.16 0.34533,4.85333 -1.81867,6.01333 -0.668,0.36 -1.38667,0.53334 -2.09467,0.53334"
       style="fill:#362421;fill-opacity:1;fill-rule:nonzero;stroke:none;stroke-width:0.133333" />
    <path
       id="path19"
       d="m 561.47999,651.62672 c -0.26134,0 -0.52667,-0.0133 -0.792,-0.0667 -2.416,-0.44 -4.02134,-2.74667 -3.58667,-5.16 0.484,-2.68 0.996,-3.72 1.72267,-5.01334 0.352,-0.62666 0.716,-1.26666 1.30933,-2.93333 0.11067,-0.30667 0.168,-1.24 0.20933,-1.93333 0.112,-1.81334 0.252,-4.08 1.35334,-6.38667 0.832,-1.74666 2.068,-3.13333 3.15866,-4.36 0.74,-0.82666 1.43734,-1.6 1.904,-2.37333 0.38667,-0.62667 0.75734,-1.46667 1.14934,-2.34667 0.696,-1.57333 1.48533,-3.34666 2.78,-5.04 l 0.52133,-0.68 c 1.39333,-1.82666 2.97333,-3.89333 4.80933,-5.8 1.34934,-1.41333 2.856,-2.44 4.312,-3.42666 0.856,-0.58667 1.664,-1.13334 2.35734,-1.70667 0.44933,-0.37333 0.89733,-0.76 1.34933,-1.14667 1.59467,-1.36 3.24267,-2.77333 5.19733,-4.05333 2.428,-1.58667 5.03867,-2.96 7.27334,-4.09333 2.576,-1.30667 4.72399,-2.37334 6.95599,-3.18667 2.096,-0.77333 4.09734,-0.88 5.70534,-0.96 0.76933,-0.04 1.496,-0.0667 2.02133,-0.17333 3.096,-0.61334 5.512,-0.85334 7.80667,-0.84 l 1.30133,0.0133 c 2.19867,0 4.472,0.0133 6.77467,0.64 2.50133,0.68 4.39466,1.92 5.916,2.92 0.43866,0.29333 0.868,0.57333 1.30666,0.84 0.684,0.4 1.372,0.74667 2.03067,1.08 1.68133,0.85333 3.42,1.73333 4.888,3.22667 2.26267,2.28 2.92133,3.50666 3.54,5.37333 0.16667,0.49333 0.32267,0.97333 0.73067,1.77333 1.10933,2.18667 0.232,4.86667 -1.95734,5.97334 -2.188,1.10666 -4.864,0.22666 -5.97333,-1.96 -0.70533,-1.38667 -1.02533,-2.34667 -1.23467,-2.98667 -0.196,-0.58667 -0.24133,-0.73333 -1.42666,-1.92 -0.45467,-0.46667 -1.492,-0.98667 -2.59067,-1.54667 -0.82533,-0.42666 -1.68267,-0.86666 -2.53733,-1.37333 -0.55734,-0.32 -1.10934,-0.68 -1.668,-1.05333 -1.19334,-0.78667 -2.224,-1.46667 -3.352,-1.77334 -1.16934,-0.32 -2.69734,-0.32 -4.468,-0.32 l -1.39334,-0.0133 c -1.67333,-0.0133 -3.51333,0.18667 -5.98533,0.66667 -1.15067,0.22666 -2.28133,0.28 -3.27867,0.33333 -1.16666,0.0667 -2.268,0.12 -3.10133,0.42667 -1.772,0.64 -3.68,1.58666 -5.98933,2.76 -2.016,1.02666 -4.35467,2.25333 -6.42,3.61333 -1.48533,0.97333 -2.852,2.13333 -4.3,3.37333 -0.48133,0.41334 -0.95867,0.82667 -1.43733,1.21334 -1.024,0.85333 -2.04934,1.54666 -3.04267,2.22666 -1.12667,0.76 -2.18933,1.49334 -2.892,2.22667 -1.492,1.56 -2.85067,3.33333 -4.164,5.05333 l -0.53067,0.69334 c -0.652,0.85333 -1.16533,2.01333 -1.70933,3.22666 -0.492,1.10667 -0.99867,2.25334 -1.688,3.38667 -0.88533,1.45333 -1.93467,2.62666 -2.85867,3.65333 -0.764,0.85333 -1.484,1.66667 -1.77066,2.26667 -0.356,0.74666 -0.42534,1.89333 -0.5,3.10666 -0.0827,1.34667 -0.17734,2.88 -0.708,4.37334 -0.852,2.38666 -1.484,3.50666 -1.94534,4.32 -0.35466,0.62666 -0.46133,0.81333 -0.71333,2.21333 -0.388,2.14667 -2.26,3.65333 -4.36933,3.65333"
       style="fill:#362421;fill-opacity:1;fill-rule:nonzero;stroke:none;stroke-width:0.133333" />
    <path
       id="path20"
       d="m 517.20932,907.66672 c -2.09467,0 -3.452,-0.88 -4.25067,-1.66667 -1.05733,-1.04 -1.52933,-2.28 -1.70666,-3.54667 -6.596,2.90667 -9.35067,-0.24 -10.41067,-2.4 -1.51733,-3.09333 -1.13467,-6.34666 1.16933,-9.94666 0.48267,-0.76 1.06134,-1.46667 1.62134,-2.14667 0.81733,-1 1.66133,-2.04 2.19866,-3.18666 0.252,-0.53334 0.44934,-1.42667 0.65867,-2.38667 0.28667,-1.30667 0.61067,-2.77333 1.25067,-4.29333 0.32933,-0.78667 0.58666,-1.77334 0.86,-2.81334 0.308,-1.18666 0.65733,-2.52 1.18933,-3.85333 0.484,-1.22667 0.93067,-2.46667 1.376,-3.69333 0.34533,-0.96 0.68933,-1.90667 1.04667,-2.85334 0.648,-1.70666 1.26266,-3.38666 1.85466,-5 l 0.572,-1.54666 c 0.544,-1.48 1.188,-2.8 1.75467,-3.96 0.44267,-0.89334 0.86,-1.76 1.10933,-2.45334 0.84267,-2.34666 1.07067,-3.04 1.36267,-3.93333 0.20133,-0.6 0.432,-1.30667 0.896,-2.65333 0.79867,-2.32 3.32667,-3.56 5.64933,-2.76 2.32134,0.8 3.55467,3.33333 2.756,5.65333 -0.444,1.28 -0.66533,1.96 -0.85733,2.54667 -0.30933,0.93333 -0.548,1.66666 -1.43867,4.14666 -0.416,1.16 -0.964,2.28 -1.49333,3.36 -0.49733,1.02667 -1.01067,2.06667 -1.39867,3.12 l -0.56666,1.54667 c -0.60267,1.64 -1.22934,3.36 -1.892,5.09333 -0.33867,0.89334 -0.66534,1.8 -0.99334,2.70667 -0.47733,1.32 -0.95733,2.65333 -1.476,3.96 -0.33066,0.82667 -0.58266,1.8 -0.85066,2.81333 -0.34,1.30667 -0.692,2.65334 -1.268,4.02667 -0.32534,0.76 -0.536,1.73333 -0.76134,2.74667 -0.29066,1.32 -0.61866,2.82666 -1.28933,4.25333 -0.79067,1.69333 -1.8,3.08 -2.68,4.18667 0.596,-0.30667 1.11733,-0.62667 1.36533,-0.90667 1.17467,-1.34667 3.04134,-1.85333 4.73734,-1.29333 1.696,0.56 2.892,2.08 3.03733,3.85333 0.007,0.08 0.012,0.17333 0.0187,0.25333 0.228,-0.28 0.47066,-0.58666 0.724,-0.89333 0.79733,-0.98667 1.97733,-1.58667 3.244,-1.65333 1.26533,-0.0533 2.50266,0.42666 3.39066,1.32 0.96534,0.98666 1.59334,2.01333 2.00667,2.95999 1.008,-0.50666 2.10267,-1.27999 3.30933,-2.71999 0.72267,-0.86667 1.50534,-1.66667 2.26267,-2.44 0.9,-0.92 1.75067,-1.78667 2.45467,-2.70667 0.84266,-1.10667 1.66933,-2.28 2.50933,-3.48 0.52533,-0.74667 1.05733,-1.50667 1.59867,-2.25333 0.63733,-0.88 1.24133,-1.86667 1.88266,-2.90667 0.63334,-1.02667 1.26934,-2.05333 1.956,-3.04 0.532,-0.77333 1.008,-1.72 1.50934,-2.72 0.57466,-1.14667 1.168,-2.33333 1.96,-3.49333 0.824,-1.22667 1.724,-2.30667 2.51733,-3.26667 0.69867,-0.84 1.35733,-1.62667 1.844,-2.36 0.852,-1.29333 1.74267,-2.44 2.528,-3.44 0.64667,-0.82667 1.25733,-1.61333 1.69467,-2.28 1.00933,-1.56 1.208,-2.08 1.45866,-2.74667 0.37334,-0.97333 0.76667,-1.92 1.8,-3.56 1.30534,-2.08 4.04934,-2.70666 6.128,-1.4 2.07867,1.30667 2.704,4.05334 1.39734,6.13334 -0.65067,1.02666 -0.79734,1.41333 -1.02,2 -0.42934,1.12 -0.89867,2.24 -2.30667,4.4 -0.648,1 -1.37467,1.93333 -2.144,2.92 -0.72,0.92 -1.464,1.88 -2.12533,2.88 -0.75067,1.13333 -1.596,2.14666 -2.41334,3.13333 -0.72933,0.88 -1.41866,1.70667 -1.99866,2.56 -0.46667,0.69333 -0.90534,1.57333 -1.372,2.50667 -0.59334,1.17333 -1.26534,2.52 -2.164,3.81333 -0.59067,0.84 -1.13334,1.73333 -1.67734,2.61333 -0.69733,1.13334 -1.41733,2.30667 -2.24933,3.46667 -0.52133,0.72 -1.03067,1.44 -1.536,2.16 -0.90533,1.28 -1.79733,2.54667 -2.70533,3.74667 -1.04267,1.36 -2.18,2.51999 -3.18267,3.54666 -0.63067,0.64 -1.24533,1.26667 -1.77867,1.89333 -3.40533,4.09334 -6.70133,5.32 -8.66933,6.06667 l -0.48,0.17333 c -1.31067,0.52 -4.04133,1.6 -6.48667,0.0667 -0.408,-0.25333 -0.74933,-0.54667 -1.032,-0.85333 -1.81333,1.73333 -3.34933,2.62666 -5.05866,2.82666 -0.324,0.0267 -0.63334,0.0533 -0.92667,0.0533"
       style="fill:#362421;fill-opacity:1;fill-rule:nonzero;stroke:none;stroke-width:0.133333" />
    <path
       id="path21"
       d="m 426.43066,907.76005 c -1.53067,0 -2.84134,-0.52 -3.41734,-0.74667 -2.29333,-0.89333 -3.72133,-2.8 -5.52933,-5.2 -0.67733,-0.90666 -1.448,-1.93333 -2.37333,-3.04 -1.41734,-1.69333 -2.944,-3.62666 -4.54134,-5.71999 -0.23466,-0.30667 -1.01466,-0.84 -1.64266,-1.26667 -1.25734,-0.85333 -2.82134,-1.92 -4.01734,-3.57333 -0.828,-1.14667 -1.55733,-2.32 -2.26133,-3.44 -0.55067,-0.89334 -1.1,-1.77334 -1.69067,-2.62667 -0.61066,-0.86667 -1.24533,-1.73333 -1.872,-2.57333 -0.80933,-1.10667 -1.61066,-2.18667 -2.35066,-3.28 -0.95467,-1.41334 -1.59067,-2.85334 -2.15334,-4.12 -0.39866,-0.89334 -0.77466,-1.74667 -1.16,-2.33334 -0.69333,-1.04 -1.38,-2.02666 -2.02933,-2.96 -0.73333,-1.05333 -1.42,-2.04 -2.02,-2.97333 -1.05467,-1.62667 -1.50133,-2.14667 -1.97333,-2.69333 -0.552,-0.64 -1.17734,-1.37334 -2.27467,-3.12 -1.308,-2.08 -0.68133,-4.82667 1.39733,-6.13334 2.07467,-1.30666 4.82267,-0.68 6.12667,1.4 0.752,1.18667 1.068,1.56 1.50533,2.08 0.58,0.66667 1.30134,1.50667 2.67734,3.64 0.552,0.85334 1.184,1.76 1.85733,2.72 0.68533,0.98667 1.41067,2.02667 2.144,3.13334 0.79867,1.21333 1.348,2.45333 1.87733,3.64 0.45067,1.02666 0.876,1.98666 1.38267,2.73333 0.67467,1 1.404,1.98667 2.14267,2.97333 0.676,0.92 1.35733,1.84 2.01466,2.78667 0.67867,0.97333 1.31334,1.98667 1.944,3 0.62267,1 1.24134,2 1.92134,2.94667 0.28,0.38666 1.09066,0.93333 1.808,1.42666 1.22133,0.82667 2.60533,1.77334 3.71866,3.22667 1.51734,1.98667 2.96267,3.81333 4.29734,5.41333 1.03333,1.24 1.89466,2.38667 2.65066,3.38667 0.024,0.04 0.0493,0.0667 0.0733,0.10666 0.44133,-0.99999 1.084,-2.03999 2.04533,-3.02666 0.88933,-0.90667 2.132,-1.37333 3.38933,-1.32 1.268,0.0533 2.448,0.65333 3.244,1.65333 0.82534,1.01334 1.52534,1.78667 2.10267,2.36 0.0267,-0.54666 0.06,-1.12 0.108,-1.72 0.14533,-1.77333 1.34133,-3.29333 3.03733,-3.85333 1.272,-0.42667 2.64,-0.24 3.74134,0.44 -0.53067,-0.81333 -1.06,-1.72 -1.53734,-2.73333 -0.72133,-1.54667 -0.97333,-3.12 -1.196,-4.52 -0.15733,-0.98667 -0.30666,-1.92 -0.58666,-2.58667 -0.36267,-0.85333 -0.76267,-1.72 -1.16534,-2.6 -0.59066,-1.28 -1.188,-2.57333 -1.72,-3.92 -0.292,-0.73333 -0.78933,-1.56 -1.31733,-2.44 -0.68267,-1.13333 -1.456,-2.41333 -2.01733,-3.89333 -0.64667,-1.69334 -0.83334,-3.33334 -0.996,-4.77334 -0.10267,-0.90666 -0.2,-1.76 -0.388,-2.28 -0.42934,-1.16 -0.896,-2.26666 -1.33334,-3.30666 -0.48266,-1.14667 -0.93733,-2.24 -1.30266,-3.25334 -0.516,-1.44 -0.788,-1.8 -1.164,-2.29333 -0.71467,-0.93333 -1.416,-1.96 -2.13734,-4.05333 -0.79866,-2.32 0.436,-4.85334 2.75734,-5.65334 2.32266,-0.78666 4.85066,0.44 5.648,2.76 0.31733,0.92 0.46133,1.10667 0.80933,1.57334 0.77867,1.02666 1.552,2.14666 2.45467,4.66666 0.31466,0.88 0.71066,1.81334 1.128,2.81334 0.48666,1.14666 1.00266,2.37333 1.48133,3.68 0.55733,1.52 0.728,3.01333 0.87867,4.34666 0.11466,1.01334 0.22266,1.96 0.472,2.61334 0.27866,0.73333 0.78666,1.57333 1.32533,2.46666 0.65733,1.09334 1.40267,2.33334 1.964,3.74667 0.47067,1.2 1.00533,2.34667 1.528,3.48 0.44533,0.96 0.88533,1.92 1.28667,2.86667 0.696,1.65333 0.96,3.30666 1.172,4.64 0.13066,0.81333 0.27733,1.73333 0.468,2.14666 0.616,1.32 1.464,2.44 2.28533,3.54667 0.49867,0.66667 0.95333,1.28 1.31867,1.85333 2.29466,3.57334 2.67733,6.98667 1.14,10.12 -1.624,3.32 -5.98934,5.49333 -10.704,3.72 -0.32134,0.50667 -0.72,0.96 -1.21734,1.38667 -0.98,0.84 -2.71066,1.77333 -5.40266,1.46666 -1.516,-0.17333 -3.06134,-0.84 -4.69467,-2.05333 -0.448,0.89333 -1.144,1.76 -2.268,2.4 -0.96133,0.53333 -1.95467,0.72 -2.86933,0.72"
       style="fill:#362421;fill-opacity:1;fill-rule:nonzero;stroke:none;stroke-width:0.133333" />
    <path
       id="path22"
       d="m 471.31199,789.88005 c -2.34134,0 -4.30134,-1.82666 -4.43467,-4.2 -0.0573,-1.04 -0.20267,-1.4 -0.492,-2.10666 -0.42133,-1.02667 -0.99866,-2.44 -1.14,-4.97334 -0.12666,-2.24 0.0653,-3.49333 0.22,-4.50666 0.11867,-0.78667 0.20534,-1.34667 0.132,-2.68 -0.108,-1.90667 -0.104,-2.88 -0.0987,-3.84 0.004,-0.82667 0.008,-1.65334 -0.0853,-3.29334 -0.11066,-1.99999 -0.0707,-3.06666 -0.0333,-3.99999 0.0333,-0.85334 0.0613,-1.58667 -0.0267,-3.16 -0.13866,-2.44 1.73733,-4.54667 4.188,-4.68 2.46133,-0.12 4.54933,1.73333 4.68667,4.18666 0.112,1.98667 0.0707,3.05334 0.0347,4 -0.0333,0.84 -0.0613,1.57334 0.0267,3.14667 0.108,1.92 0.10267,2.88 0.0987,3.84 -0.004,0.82666 -0.008,1.65333 0.084,3.30666 0.12533,2.25334 -0.0667,3.50667 -0.22,4.52 -0.12,0.77334 -0.20534,1.34667 -0.132,2.66667 0.0587,1.04 0.204,1.4 0.492,2.10667 0.42133,1.02666 0.99866,2.44 1.14133,4.97333 0.13733,2.45333 -1.73867,4.54667 -4.18933,4.68 -0.084,0.0133 -0.168,0.0133 -0.252,0.0133"
       style="fill:#362421;fill-opacity:1;fill-rule:nonzero;stroke:none;stroke-width:0.133333" />
    <path
       id="path23"
       d="m 463.44932,746.17339 c 0.076,1.45333 0.224,3.70667 1.08667,4.69333 0.62133,0.70667 2.13866,1.05334 4.17866,0.93334 0.804,-0.04 2.00534,-0.29334 3.18534,-2 1.12,-1.61334 1.47066,-3.50667 1.43466,-4.69334 l -0.66266,-0.12 c -1.436,-0.24 -2.92534,-0.50666 -4.36,-0.42666 -0.796,0.0533 -1.74533,0.42666 -2.75067,0.84 -0.67333,0.26666 -1.368,0.54666 -2.112,0.77333 z m 4.52267,14.53333 c -5.43733,0 -8.49067,-2.12 -10.12133,-3.98666 -2.93334,-3.34667 -3.156,-7.68 -3.288,-10.28 l -0.0213,-0.41334 c -0.36533,-6.48 4.68934,-7.90666 6.35067,-8.37333 0.42133,-0.12 0.864,-0.30667 1.336,-0.49333 1.40133,-0.57334 3.32133,-1.34667 5.58533,-1.46667 2.45333,-0.14667 4.72267,0.25333 6.38267,0.53333 l 0.80133,0.14667 c 4.39467,0.70667 6.95333,3.58667 7.20667,8.10667 0.19733,3.52 -0.92667,7.4 -3.00534,10.4 -2.47866,3.56 -5.93066,5.57333 -9.984,5.8 -0.42666,0.0267 -0.84133,0.0267 -1.24266,0.0267"
       style="fill:#362421;fill-opacity:1;fill-rule:nonzero;stroke:none;stroke-width:0.133333" />
    <path
       id="path24"
       d="m 469.81332,792.74672 c -2.45333,0 -4.536,-0.41333 -6.25733,-0.76 -0.56667,-0.10667 -1.11333,-0.22667 -1.64667,-0.30667 -3.82933,-0.61333 -6.64933,-1.56 -9.14666,-3.09333 -0.98534,-0.6 -1.72534,-0.98667 -2.29334,-1.28 -3.37466,-1.78667 -4.11466,-3.09333 -5.072,-7.02667 -0.58133,-2.38666 0.88,-4.78666 3.26534,-5.37333 2.388,-0.57333 4.78933,0.88 5.37066,3.26667 0.052,0.21333 0.17467,0.72 0.284,1.10666 0.0893,0.0533 0.18534,0.0933 0.288,0.14667 0.692,0.37333 1.592,0.84 2.792,1.57333 1.46,0.89334 3.284,1.48 5.91467,1.90667 0.64267,0.0933 1.30133,0.22667 1.98267,0.36 1.73066,0.34667 3.36399,0.66667 5.21999,0.57333 1.004,-0.0533 1.98,-0.0533 2.91467,-0.0533 1.17333,0.0133 2.284,0.0133 3.03467,-0.14667 1.10133,-0.22666 2.16,-0.78666 3.28266,-1.38666 0.64134,-0.34667 1.25867,-0.66667 1.86534,-0.94667 0.92666,-0.41333 1.848,-0.76 2.72133,-1.08 0.81333,-0.29333 1.92667,-0.70667 2.224,-0.94667 l 1.168,-1.04 c 0.46267,-0.4 0.98667,-0.86666 1.10667,-1.01333 0.088,-0.17333 0.38133,-1.12 0.49066,-1.48 0.72267,-2.34667 3.22,-3.66667 5.556,-2.93333 2.34667,0.72 3.66134,3.2 2.94,5.54666 -1.09866,3.56 -1.736,4.37334 -4.224,6.56 l -1.09466,0.97334 c -1.524,1.36 -3.34267,2.04 -5.10267,2.68 -0.68,0.25333 -1.40133,0.50666 -2.124,0.84 -0.44267,0.2 -0.88933,0.44 -1.35467,0.69333 -1.46533,0.77333 -3.28933,1.74667 -5.61733,2.24 -1.68133,0.34667 -3.324,0.34667 -4.92133,0.33333 -0.76267,0 -1.552,-0.0133 -2.368,0.0267 -0.40934,0.0267 -0.808,0.04 -1.19867,0.04"
       style="fill:#362421;fill-opacity:1;fill-rule:nonzero;stroke:none;stroke-width:0.133333" />
    <path
       id="path25"
       d="m 358.45066,761.62672 c -1.91867,0 -3.68667,-1.25333 -4.26,-3.18666 -0.696,-2.34667 0.64666,-4.82667 3,-5.52 0.75066,-0.21334 1.5,-0.52 2.26666,-0.81334 1.71467,-0.66666 3.65867,-1.42666 5.91467,-1.72 1.90933,-0.25333 3.77467,-0.16 5.42133,-0.08 1.028,0.0667 2.008,0.12 2.88534,0.08 1.03066,-0.04 2.05333,-0.14666 3.06266,-0.24 1.63867,-0.14666 3.32534,-0.32 5.07467,-0.26666 1.98133,0.0533 3.80267,0.30666 5.41067,0.53333 0.924,0.13333 1.80533,0.26667 2.636,0.33333 1.78533,0.13334 2.74266,0.17334 3.48266,0.2 1.35067,0.0533 2.17067,0.10667 4.62667,0.45334 2.43067,0.36 4.11467,2.61333 3.76533,5.04 -0.35066,2.42666 -2.60533,4.10666 -5.03466,3.76 -2.116,-0.30667 -2.61467,-0.32 -3.712,-0.37334 -0.81067,-0.0267 -1.86,-0.0667 -3.81334,-0.21333 -1.00666,-0.08 -2.07733,-0.24 -3.19733,-0.38667 -1.43733,-0.21333 -2.924,-0.41333 -4.39333,-0.45333 -1.21867,-0.04 -2.57067,0.0933 -4.01334,0.22667 -1.17066,0.10666 -2.356,0.22666 -3.552,0.26666 -1.29066,0.0533 -2.51466,-0.0133 -3.69866,-0.08 -1.38134,-0.0667 -2.69067,-0.13333 -3.78534,0 -1.19333,0.16 -2.48533,0.66667 -3.85333,1.2 -0.94667,0.37334 -1.92533,0.74667 -2.96933,1.05334 -0.42134,0.13333 -0.84667,0.18666 -1.264,0.18666"
       style="fill:#362421;fill-opacity:1;fill-rule:nonzero;stroke:none;stroke-width:0.133333" />
    <path
       id="path26"
       d="m 370.08532,792.94672 c -1.31066,0 -2.60933,-0.58667 -3.48666,-1.69333 -1.524,-1.92 -1.2,-4.72 0.72533,-6.24 2.32267,-1.84 4.36133,-3.29334 6.41733,-4.58667 0.58534,-0.36 1.256,-1.04 1.96667,-1.76 1.12,-1.13333 2.38933,-2.42667 4.112,-3.32 1.708,-0.90667 3.392,-1.54667 4.87867,-2.12 0.80533,-0.32 1.576,-0.61333 2.276,-0.92 2.57466,-1.17333 3.72266,-1.45333 5.06266,-1.73333 0.63334,-0.13334 1.17867,-0.25334 2.372,-0.68 2.30134,-0.85334 4.85734,0.33333 5.7,2.64 0.844,2.30666 -0.34133,4.85333 -2.648,5.70666 -1.79733,0.65334 -2.8,0.86667 -3.60666,1.02667 -0.77334,0.17333 -1.332,0.28 -3.21467,1.13333 -0.848,0.38667 -1.776,0.74667 -2.752,1.12 -1.32,0.50667 -2.684,1.02667 -3.93067,1.69334 -0.50133,0.25333 -1.22533,0.98666 -1.92533,1.69333 -0.988,1.01333 -2.11067,2.14667 -3.57467,3.06667 -1.77066,1.10666 -3.556,2.37333 -5.616,4.01333 -0.816,0.64 -1.78933,0.96 -2.756,0.96"
       style="fill:#362421;fill-opacity:1;fill-rule:nonzero;stroke:none;stroke-width:0.133333" />
    <path
       id="path27"
       d="m 544.39732,751.09339 c -1.952,0 -3.74267,-1.30667 -4.284,-3.28 -0.64933,-2.36 0.74533,-4.81333 3.112,-5.45333 2.24,-0.61334 3.256,-0.74667 4.54933,-0.85334 0.8,-0.08 1.62667,-0.16 3.53067,-0.54666 1.53067,-0.30667 3.08533,-0.37334 4.58933,-0.42667 1.22267,-0.0533 2.38,-0.0933 3.5,-0.26667 0.848,-0.12 1.8,-0.37333 2.80934,-0.62666 1.54666,-0.4 3.3,-0.84 5.2,-1.01334 0.87066,-0.0667 1.84666,-0.25333 2.88,-0.45333 1.632,-0.32 3.472,-0.70667 5.41866,-0.66667 2.27467,0.0133 4.34134,0.53334 6.164,0.98667 0.812,0.2 1.60534,0.4 2.37867,0.53333 2.42133,0.4 4.06133,2.68 3.66133,5.10667 -0.4,2.42667 -2.68933,4.05333 -5.10933,3.66667 -1,-0.17334 -2.03067,-0.42667 -3.08267,-0.68 -1.472,-0.37334 -2.86266,-0.72 -4.07733,-0.73334 -1.092,0 -2.316,0.24 -3.656,0.50667 -1.216,0.24 -2.47467,0.48 -3.82,0.6 -1.16533,0.0933 -2.42133,0.41333 -3.75067,0.76 -1.17866,0.29333 -2.39733,0.61333 -3.688,0.8 -1.61066,0.25333 -3.14,0.30667 -4.488,0.36 -1.19866,0.04 -2.332,0.0933 -3.14933,0.25333 -2.384,0.49334 -3.556,0.6 -4.49733,0.68 -0.84934,0.08 -1.36134,0.13334 -3.01334,0.58667 -0.39333,0.10667 -0.78933,0.16 -1.17733,0.16"
       style="fill:#362421;fill-opacity:1;fill-rule:nonzero;stroke:none;stroke-width:0.133333" />
    <path
       id="path28"
       d="m 576.40532,779.96005 c -0.78667,0 -1.58133,-0.2 -2.30267,-0.64 -0.78666,-0.48 -1.91866,-0.85333 -3.116,-1.25333 -1.11733,-0.37333 -2.272,-0.76 -3.45066,-1.30667 -2.044,-0.94666 -4.18667,-1.74666 -6.25867,-2.53333 l -0.34,-0.12 c -1.456,-0.54667 -2.74933,-1.21333 -3.89067,-1.81333 -1.008,-0.52 -1.96,-1 -2.684,-1.22667 -1.924,-0.6 -2.48133,-0.64 -3.25333,-0.69333 -0.84267,-0.0533 -1.88933,-0.12 -3.80267,-0.56 -2.392,-0.54667 -3.88533,-2.93334 -3.33333,-5.33334 0.55067,-2.38666 2.93867,-3.89333 5.32667,-3.33333 1.22,0.28 1.73866,0.32 2.39733,0.36 1.38933,0.0933 2.58533,0.22667 5.29867,1.06667 1.47066,0.45333 2.82,1.14666 4.12666,1.82666 1.016,0.52 1.97467,1.01334 2.94534,1.38667 l 0.33733,0.12 c 2.22533,0.84 4.528,1.70667 6.87733,2.8 0.71734,0.33333 1.58534,0.61333 2.504,0.92 1.53867,0.52 3.28267,1.09333 4.928,2.09333 2.09867,1.28 2.768,4.01334 1.49334,6.10667 -0.836,1.37333 -2.30134,2.13333 -3.80267,2.13333"
       style="fill:#362421;fill-opacity:1;fill-rule:nonzero;stroke:none;stroke-width:0.133333" />
    <path
       id="path29"
       d="m 435.12266,723.22672 c 0,2.45334 -1.636,4.50667 -3.244,6.12 -1.608,1.6 -3.65734,2.98667 -6.112,2.98667 -2.45467,0 -5.02667,-0.85333 -6.636,-2.46667 -1.608,-1.61333 -2.24,-4.18666 -2.24,-6.64 0,-2.45333 0.864,-4.78666 2.472,-6.4 1.60933,-1.61333 3.94933,-1.54666 6.404,-1.54666 2.45466,0 4.96133,-0.22667 6.56933,1.37333 1.60933,1.61333 2.78667,4.12 2.78667,6.57333"
       style="fill:#362421;fill-opacity:1;fill-rule:nonzero;stroke:none;stroke-width:0.133333" />
    <path
       id="path30"
       d="m 516.15065,718.20006 c 0,2.45333 -1.35733,4.65333 -2.96666,6.26666 -1.608,1.6 -3.80267,3.29334 -6.25734,3.29334 -2.45466,0 -5.136,-1.2 -6.744,-2.81334 -1.60933,-1.6 -1.18266,-4.29333 -1.18266,-6.74666 0,-2.45334 0.52933,-4.17334 2.13866,-5.78667 1.608,-1.6 3.33334,-3.18667 5.788,-3.18667 2.45467,0 4.58134,1.17334 6.18934,2.78667 1.60933,1.61333 3.03466,3.73333 3.03466,6.18667"
       style="fill:#362421;fill-opacity:1;fill-rule:nonzero;stroke:none;stroke-width:0.133333" />
  </g>
</svg>
