<?xml version="1.0" encoding="UTF-8" standalone="no"?>
<!-- Created with Inkscape (http://www.inkscape.org/) -->

<svg
   version="1.1"
   id="svg1"
   width="400.38013"
   height="525.073"
   viewBox="0 0 400.38012 525.073"
   xmlns="http://www.w3.org/2000/svg"
   xmlns:svg="http://www.w3.org/2000/svg">
  <defs
     id="defs1" />
  <g
     id="g1"
     transform="translate(-911.97279,-2142.1003)">
    <path
       id="path2"
       d="M 2666.6666,2962.96 H 0 V 7.4074e-5 H 2666.6666 V 2962.96"
       style="display:none;fill:#fef5e6;fill-opacity:1;fill-rule:nonzero;stroke:none;stroke-width:0.133333" />
    <path
       id="path292"
       d="m 1048.624,2634.08 c -3.4587,-2.8133 -6.916,-4.4267 -9.12,-5.76 0.1106,-2.4133 1.52,-5.12 1.548,-7.5067 0.027,-2.44 0.06,-4.88 0.017,-7.2533 -0.044,-2.4533 -1.5627,-4.8267 -1.6653,-7.1733 -0.1094,-2.4934 0.1426,-4.92 -0.012,-7.2134 -0.172,-2.5733 0.01,-5.0133 -0.192,-7.2266 -0.2414,-2.7067 -1.3027,-5.04 -1.5307,-7.08 -0.468,-4.1867 -0.62,-6.8134 -0.6707,-7.1467 -0.56,-3.7733 -3.728,-6.96 -7.5133,-6.4133 -3.7773,0.56 -6.2413,4.5866 -5.684,8.36 0.012,0.093 1.2347,2.5866 1.704,6.8533 0.2187,1.9867 -1.1107,4.4933 -0.88,7.12 0.1893,2.1467 0.06,4.4933 0.224,6.9733 0.1467,2.2267 0.724,4.52 0.8253,6.9467 0.097,2.2667 -0.2386,4.6 -0.2013,6.9867 0.037,2.3066 1.6693,4.64 1.6347,7 -0.035,2.32 -1.2134,4.4533 -1.3347,6.7733 -1.5627,1.04 -3.7587,2.24 -7.1893,2.8933 -2.316,0.44 -5.0654,1.44 -8.1654,0.96 -2.4213,-0.3733 -4.644,-1.64 -6.7373,-1.4666 -2.412,0.2133 -4.55999,1.3733 -6.54532,2.1466 -2.228,0.8534 -3.896,2.4 -5.60134,3.7067 -1.91333,1.4667 -4.136,2.48 -5.41333,4.1467 -1.592,2.08 -1.564,4.72 -2.20533,6.44 -1.32,3.5466 -0.62134,7.9333 2.904,9.2933 0.812,0.32 1.95066,-0.053 2.77466,-0.053 2.75334,0 4.58134,-2.24 5.672,-4.9467 0.34134,-0.84 2.412,-3.6933 5.64536,-5.3733 1.8226,-0.9467 4.38,-1.5467 7.516,-1.0667 0.084,0.013 -0.7107,0.24 -0.6267,0.2533 -0.1173,0.56 1.0107,1.2 0.9613,1.76 -0.192,2.16 0.2947,3.7867 0.828,5.3067 0.932,2.6667 1.3174,5.12 1.7574,5.5467 0.116,0.1066 0.516,-0.013 0.6386,0.08 0.68,0.5866 1.48,-0.36 2.16,0.2133 1.3,1.1067 2.412,2.5467 3.992,2.5467 1.96,0 4.524,-0.6534 5.8907,-2.2534 2.4707,-2.92 1.876,-8.2533 -1.0347,-10.72 -0.1813,-0.1466 -0.5173,0.36 -0.536,0.12 0.2867,-0.6133 0.6174,-2.8933 3.6254,-5.0266 2.8306,-1.0267 5.584,-1.9867 7.3826,-3.1467 1.6267,1.0267 3.304,3.64 5.9067,5.76 2.6493,2.16 0.8347,7.3467 0.7667,7.5067 -1.5,3.4933 -0.061,8.04 3.42,9.56 0.9053,0.4 2.056,0.1466 2.984,0.1466 2.66,0 5.2186,-1.56 6.3573,-4.16 0.7453,-1.6933 1.8907,-3.84 2.268,-6.3066 0.3213,-2.08 -0.892,-4.3067 -1.1867,-6.5867 -0.2746,-2.1333 -0.7346,-4.0267 -1.828,-6.04 -0.9893,-1.84 -1.6653,-3.96 -3.5306,-5.48"
       style="fill:#f79527;fill-opacity:1;fill-rule:nonzero;stroke:none;stroke-width:0.133333" />
    <path
       id="path293"
       d="m 999.38398,2653.12 c -0.005,0.013 -0.0107,0.027 -0.0173,0.04 0.007,-0.013 0.012,-0.027 0.0173,-0.04 z m 34.08262,-17.88 c 0.82,0 1.6427,0.2267 2.3654,0.68 1.3346,0.84 2.4026,2.0133 3.5333,3.2667 0.8773,0.96 1.7827,1.96 2.8147,2.8 5.332,4.3466 2.1173,12.5333 2.084,12.6266 -0.5694,1.32 -0.144,3.0134 0.804,3.6667 0.1186,0 0.2373,-0.013 0.3533,-0.027 0.3893,-0.027 0.768,-0.04 1.1227,-0.04 0.9746,0 1.8946,-0.6133 2.288,-1.5066 l 0.4533,-1 c 0.6253,-1.36 1.2733,-2.7734 1.492,-4.1867 0.044,-0.3467 -0.26,-1.4 -0.4587,-2.0933 -0.276,-0.96 -0.588,-2.0534 -0.7426,-3.2534 -0.2507,-1.9333 -0.6227,-3.2 -1.3307,-4.5066 -0.2653,-0.4934 -0.5107,-0.9867 -0.7573,-1.5067 -0.6267,-1.2933 -1.0414,-2.12 -1.6694,-2.6267 0,0 0,0 0,0 -2.2573,-1.84 -4.5266,-3.1066 -6.528,-4.2266 -0.7706,-0.4267 -1.472,-0.8134 -2.0853,-1.1867 -1.392,-0.84 -2.212,-2.3733 -2.1373,-4 0.079,-1.6933 0.5373,-3.28 0.9413,-4.68 0.2933,-1.0133 0.5947,-2.0533 0.6013,-2.68 l 0.01,-0.44 c 0.027,-2.2533 0.052,-4.4933 0.015,-6.68 -0.011,-0.5867 -0.324,-1.52 -0.624,-2.4267 -0.4506,-1.3466 -0.9613,-2.88 -1.0386,-4.6266 -0.056,-1.2934 -0.028,-2.56 0,-3.8134 0.031,-1.1866 0.059,-2.3066 -0.01,-3.3066 -0.089,-1.3334 -0.095,-2.64 -0.096,-3.9067 0,-1.16 0,-2.2667 -0.088,-3.2133 -0.097,-1.0934 -0.4027,-2.2 -0.7267,-3.36 -0.32,-1.16 -0.652,-2.36 -0.7946,-3.6267 -0.3374,-3.0133 -0.5134,-5.2267 -0.6067,-6.4 l -0.057,-0.6933 c -0.1934,-1.2934 -1.2854,-2.72 -2.4587,-2.56 -1.084,0.16 -1.976,1.5333 -1.9627,2.9066 1.0787,2.7734 1.5494,5.5334 1.756,7.4134 0.1867,1.6933 -0.172,3.2533 -0.4866,4.6266 -0.228,0.9867 -0.4427,1.92 -0.3827,2.6 0.1147,1.2934 0.1267,2.6 0.1387,3.8667 0.011,1.04 0.02,2.1067 0.092,3.2 0.055,0.84 0.196,1.76 0.3466,2.7467 0.196,1.2933 0.42,2.76 0.4854,4.3066 0.06,1.4267 -0.019,2.8 -0.096,4.12 -0.057,0.9867 -0.1187,1.9734 -0.1027,2.9867 0.01,0.4 0.3013,1.24 0.5613,1.9733 0.492,1.4134 1.1027,3.16 1.0747,5.16 -0.028,1.7867 -0.4587,3.3067 -0.8387,4.6534 -0.2426,0.8533 -0.4706,1.6666 -0.5026,2.2933 -0.073,1.4 -0.8134,2.6933 -1.992,3.48 -1.716,1.12 -4.496,2.72 -8.8107,3.5333 -0.4747,0.093 -0.964,0.2134 -1.4747,0.3334 -2.092,0.4933 -4.956,1.16 -8.2013,0.6533 -1.304,-0.2 -2.4653,-0.56 -3.4907,-0.88 -0.7626,-0.24 -1.824,-0.5333 -2.1786,-0.5467 -1.1414,0.1067 -2.4174,0.64 -3.7654,1.2134 -0.53062,0.2266 -1.05062,0.4533 -1.55996,0.6533 -1.168,0.4533 -2.22933,1.2933 -3.45733,2.2667 -0.34933,0.28 -0.69467,0.56 -1.04267,0.8266 -0.74266,0.56 -1.52,1.08 -2.28533,1.5734 -0.94667,0.6133 -1.92533,1.2533 -2.304,1.7466 -0.44667,0.5867 -0.65867,1.6 -0.88133,2.68 -0.17467,0.84 -0.356,1.72 -0.68667,2.6 -0.48,1.2934 -0.43333,2.76 0.04,3.3734 0.52133,-0.08 1.02533,-0.1334 1.47333,-0.1334 0.27334,0 0.95467,-0.68 1.55067,-2.16 0.77733,-1.92 3.68667,-5.56 7.71867,-7.6533 2.09732,-1.08 5.57602,-2.2267 10.24532,-1.5067 2.012,0.3067 3.5613,1.96 3.7507,3.9867 0.011,0.12 0.023,0.32 0.01,0.5867 0.2453,0.6266 0.396,1.3733 0.32,2.2266 -0.1053,1.1734 0.1093,2.04 0.596,3.44 0.3507,1 0.624,1.9334 0.852,2.7734 0.88,0.16 1.6747,0.5466 2.3853,1.1466 0.3347,0.28 0.66,0.5867 0.9814,0.88 0.188,0.1867 0.4413,0.4134 0.64,0.5867 1.0093,-0.093 1.8106,-0.4533 1.996,-0.6667 0.376,-0.44 0.5586,-1.3066 0.468,-2.2 -0.049,-0.4933 -0.1787,-0.96 -0.364,-1.36 -0.043,-0.027 -0.081,-0.04 -0.1147,-0.053 -1.4653,-0.68 -2.4787,-2.1467 -2.6013,-3.76 -0.055,-0.6933 0.057,-1.4 0.324,-2.04 0.4386,-1.32 1.4693,-4.3333 5.1573,-6.96 0.328,-0.2267 0.6867,-0.4267 1.0653,-0.56 l 0.4227,-0.1467 c 2.3507,-0.8533 4.7813,-1.7333 6.0693,-2.5466 0.7307,-0.48 1.5654,-0.7067 2.4,-0.7067 z m -24.3546,26.1067 c 0.012,0 0.024,0.013 0.035,0.027 -0.011,-0.013 -0.023,-0.027 -0.035,-0.027 z m 35.7213,5.8266 c -0.8933,0 -1.9547,-0.1066 -3.0533,-0.5866 -5.5827,-2.4534 -8.2014,-9.4 -5.788,-15.24 0.2906,-0.88 0.4466,-2.1067 0.3466,-2.6534 -1.448,-1.2133 -2.6133,-2.4933 -3.56,-3.5466 -0.027,-0.027 -0.055,-0.053 -0.083,-0.08 -1.3907,0.6 -2.9027,1.1466 -4.4654,1.7066 -0.056,0.04 -0.1093,0.093 -0.16,0.1334 1.0174,1.6266 1.6747,3.5466 1.8814,5.5733 0.3373,3.32 -0.5854,6.5467 -2.5347,8.84 -3.0133,3.56 -7.864,3.84 -9.2787,3.84 -2.656,0 -4.4773,-1.4267 -5.748,-2.5867 -0.576,-0.013 -1.12,-0.093 -1.6293,-0.28 -0.9707,-0.1466 -1.8067,-0.56 -2.5027,-1.2266 -1.1306,-1.1067 -1.4853,-2.44 -1.9773,-4.28 -0.2427,-0.92 -0.52,-1.96 -0.8853,-3 -0.452,-1.2934 -0.868,-2.6934 -1.04,-4.2934 -0.5734,0.1467 -1.036,0.3334 -1.3974,0.52 -1.8973,0.9867 -3.27862,2.6534 -3.63062,3.24 -1.99467,4.8134 -5.53467,7.5734 -9.73334,7.5734 -0.0533,0.013 -0.18533,0.027 -0.32,0.053 -0.916,0.12 -2.452,0.3333 -4.06,-0.2933 -5.50533,-2.1334 -7.852,-8.5867 -5.46266,-14.9867 0.0933,-0.2533 0.20933,-0.8133 0.312,-1.3067 0.35733,-1.7333 0.84666,-4.0933 2.532,-6.2933 1.30533,-1.6933 3.008,-2.8 4.51066,-3.7867 0.57734,-0.3733 1.16934,-0.7466 1.72667,-1.1733 0.3,-0.24 0.60267,-0.48 0.90933,-0.72 1.49334,-1.1867 3.35334,-2.68 5.792,-3.6133 0.41867,-0.16 0.848,-0.3467 1.28667,-0.5334 1.748,-0.7466 3.92529,-1.6666 6.47599,-1.8933 2.128,-0.1867 3.9747,0.4 5.6093,0.92 0.7947,0.24 1.5454,0.48 2.192,0.5733 1.536,0.24 3.124,-0.12 4.8054,-0.52 0.644,-0.16 1.264,-0.2933 1.8586,-0.4133 1.6707,-0.3067 2.9334,-0.7867 3.9467,-1.28 0.14,-0.6133 0.3,-1.1733 0.452,-1.7067 0.264,-0.9466 0.4933,-1.7466 0.504,-2.3733 0.01,-0.4267 -0.3173,-1.3467 -0.5747,-2.08 -0.4613,-1.3067 -1.032,-2.9467 -1.06,-4.7867 -0.021,-1.28 0.048,-2.48 0.1147,-3.6266 0.068,-1.16 0.132,-2.2534 0.089,-3.24 -0.045,-1.0667 -0.2133,-2.1734 -0.392,-3.3467 -0.172,-1.12 -0.348,-2.28 -0.428,-3.4933 -0.084,-1.2667 -0.099,-2.4934 -0.1093,-3.6934 -0.012,-1.1466 -0.023,-2.2266 -0.1067,-3.1866 -0.1826,-2.08 0.2374,-3.9067 0.5747,-5.3734 0.128,-0.56 0.3213,-1.4 0.312,-1.68 -0.22,-1.9866 -0.6947,-3.9466 -1.3333,-5.4533 -0.1414,-0.3333 -0.288,-0.8133 -0.3427,-1.1733 -0.9453,-6.4 3.3733,-12.5334 9.4253,-13.4267 5.968,-0.8933 11.5987,3.68 12.56,10.1467 0.019,0.1333 0.06,0.5333 0.112,1.1866 0.088,1.12 0.2574,3.24 0.5787,6.12 0.064,0.56 0.2893,1.3734 0.528,2.2267 0.376,1.36 0.844,3.0533 1.0147,4.9467 0.1186,1.3466 0.1213,2.6933 0.1226,4 0,1.08 0,2.1866 0.076,3.32 0.095,1.4133 0.06,2.8 0.028,4.1333 -0.028,1.04 -0.057,2.12 -0.01,3.2 0.023,0.5067 0.3093,1.36 0.588,2.2 0.4653,1.4 1.0453,3.1333 1.08,5.08 0.04,2.28 0.015,4.6 -0.013,6.9333 v 0.44 c -0.021,1.84 -0.516,3.5467 -0.952,5.0534 -0.013,0.053 -0.027,0.093 -0.039,0.1333 1.9773,1.12 4.452,2.5867 6.9267,4.6 2.1946,1.7867 3.2293,3.9333 4.0613,5.6533 0.188,0.4 0.3707,0.7734 0.572,1.1467 1.5573,2.88 2.0493,5.4533 2.3253,7.5867 0.071,0.5466 0.2654,1.2266 0.472,1.9466 0.4654,1.6267 1.044,3.64 0.7,5.8934 -0.4053,2.64 -1.4413,4.8933 -2.1986,6.5466 l -0.392,0.8667 c -1.82,4.1467 -5.912,6.8133 -10.428,6.8133 -0.1547,0 -0.32,0.013 -0.4894,0.027 -0.352,0.027 -0.764,0.053 -1.2213,0.053"
       style="fill:#362421;fill-opacity:1;fill-rule:nonzero;stroke:none;stroke-width:0.133333" />
    <path
       id="path294"
       d="m 1133.2146,2634.32 c -3.4586,-2.8267 -6.556,-4.76 -8.76,-6.0933 0.1107,-2.4134 0.1094,-5.04 0.1374,-7.4267 0.028,-2.44 -0.4,-4.84 -0.4427,-7.2 -0.044,-2.4667 1.004,-4.9067 0.9013,-7.24 -0.1093,-2.5067 -0.1266,-4.9333 -0.2813,-7.2267 -0.172,-2.5733 -0.68,-4.96 -0.8787,-7.1866 -0.2413,-2.7067 -0.104,-5.16 -0.3333,-7.2134 -0.468,-4.1733 -0.756,-6.8133 -0.8067,-7.16 -0.56,-3.7733 -4.6773,-6.6666 -8.4626,-6.12 -3.776,0.56 -5.5854,4.3467 -5.028,8.12 0.012,0.08 0.3866,2.7067 0.856,6.96 0.2186,1.9867 -0.5734,4.4534 -0.3427,7.0667 0.1893,2.16 0.3373,4.4933 0.5,6.9733 0.1467,2.2267 1.2027,4.52 1.304,6.9334 0.097,2.28 -0.1893,4.64 -0.152,7.0133 0.037,2.3067 0.248,4.6667 0.212,7.0133 -0.035,2.3334 -1.2053,4.3467 -1.3267,6.6667 -1.5613,1.0267 -3.5253,2.3067 -6.956,2.9467 -2.3173,0.44 -4.9346,0.7466 -8.0346,0.2533 -2.4214,-0.3733 -4.6654,0.28 -6.7587,0.4533 -2.412,0.2134 -4.5947,0.3867 -6.5813,1.16 -2.228,0.8667 -3.868,2.36 -5.5747,3.6667 -1.912,1.4667 -3.5667,2.8667 -4.8427,4.5333 -1.592,2.08 -3.2933,3.8134 -3.9333,5.5334 -1.3213,3.5466 0.96,7.0133 4.4853,8.3733 0.812,0.32 1.4374,1.84 2.2614,1.84 2.7546,0 5.252,-2.5467 6.3426,-5.24 0.3414,-0.8533 1.5147,-4.4133 4.7467,-6.0933 1.8227,-0.9467 4.684,-1.5867 7.8187,-1.1067 0.085,0.013 0.6986,0.8133 0.7826,0.8267 -0.1173,0.5466 -0.8146,1.08 -0.864,1.64 -0.192,2.1466 -0.34,4.1466 0.1934,5.68 0.932,2.6533 2.8013,4.2533 3.2413,4.68 0.116,0.1066 0.5213,-0.1067 0.644,0 0.68,0.5733 -0.051,1.44 0.628,2.0133 1.3013,1.1067 3.4307,1.9333 5.0107,1.9333 1.9613,0 4.4933,-1.2666 5.86,-2.8666 2.4706,-2.92 1.0866,-7.2534 -1.8254,-9.72 -0.1813,-0.16 0.7307,-0.64 0.712,-0.88 0.2867,-0.6267 0.2,-2.8534 3.208,-4.9867 2.8294,-1.0267 5.5814,-1.8267 7.38,-2.9733 1.6267,1.0133 4.204,2.3333 6.8067,4.4533 2.6493,2.16 -0.2773,8.3733 -0.3453,8.5467 -1.5,3.48 0.508,7.28 3.9893,8.8133 0.9053,0.4 1.692,0.6533 2.62,0.6533 2.66,0 4.556,-1.5333 5.6933,-4.1333 0.7454,-1.6933 1.2427,-3.7467 1.62,-6.2133 0.3214,-2.08 0.3747,-4.1067 0.081,-6.3734 -0.276,-2.1466 -0.5227,-4.1333 -1.616,-6.1466 -0.9894,-1.8267 -2.024,-3.6267 -3.8894,-5.1467"
       style="fill:#f79527;fill-opacity:1;fill-rule:nonzero;stroke:none;stroke-width:0.133333" />
    <path
       id="path295"
       d="m 1094.6813,2640.9467 z m 0.01,0 z m 0.01,0 z m 0.01,0 c 0.2386,0.027 0.472,0.08 0.6986,0.16 -0.2146,-0.067 -0.448,-0.12 -0.6986,-0.16 z m 8.5186,6.84 c 0,0.12 0,0.2533 0.013,0.3866 -0.01,-0.1333 -0.015,-0.2533 -0.013,-0.3866 z m 0.013,0.3866 z m 0,0 c 0,0.013 0,0.013 0,0.013 z m -3.5267,5.96 0.039,0.04 c -0.013,-0.013 -0.027,-0.027 -0.039,-0.04 z m 18.544,-18.72 c 0.8187,0 1.6387,0.2267 2.36,0.68 0.3707,0.2267 0.7947,0.48 1.2587,0.76 1.592,0.9334 3.7733,2.2134 5.9947,4.0267 3.288,2.68 3.6266,7.68 0.932,13.7333 -0.5054,1.1734 0.4866,2.4667 1.6933,3 0.4293,0.1867 0.704,0.28 0.832,0.28 0.388,0 0.9747,0 1.624,-1.48 0.5293,-1.2 0.9533,-2.8666 1.2973,-5.0933 0.2734,-1.7867 0.2947,-3.3733 0.065,-5.1467 -0.252,-1.96 -0.4294,-3.32 -1.1174,-4.6 -0.8746,-1.6133 -1.5853,-2.8266 -2.7866,-3.8133 v 0 c -3.092,-2.52 -5.908,-4.3067 -8.2546,-5.7333 -1.3907,-0.84 -2.2107,-2.3734 -2.136,-4 0.083,-1.84 0.1,-3.8134 0.116,-5.6934 l 0.016,-1.5866 c 0.012,-1.1067 -0.095,-2.2667 -0.2067,-3.4934 -0.1107,-1.2 -0.2147,-2.3866 -0.236,-3.5733 -0.031,-1.7067 0.2773,-3.2267 0.5493,-4.5733 0.1974,-0.9867 0.3854,-1.9067 0.356,-2.56 -0.043,-0.9867 -0.072,-1.96 -0.1013,-2.9334 -0.043,-1.4266 -0.083,-2.84 -0.1747,-4.1866 -0.084,-1.2667 -0.272,-2.5467 -0.4533,-3.8 -0.1653,-1.1334 -0.3227,-2.2267 -0.4173,-3.28 -0.1334,-1.5067 -0.1627,-2.9067 -0.188,-4.16 -0.023,-1.0934 -0.044,-2.1334 -0.136,-2.96 l -0.4227,-3.7867 c -0.2013,-1.8133 -0.328,-2.96 -0.3653,-3.24 -0.192,-1.28 -2.0094,-2.56 -3.42,-2.3467 -1.2307,0.1867 -1.436,1.9867 -1.2747,3.0667 0,0.013 0.3867,2.68 0.876,7.1333 0.1613,1.4534 0,2.8267 -0.1613,4.1467 -0.1294,1.08 -0.252,2.1067 -0.172,3.0133 0.1746,1.9734 0.3133,4.0934 0.46,6.3334 l 0.048,0.7333 c 0.043,0.6533 0.2626,1.5067 0.496,2.4133 0.348,1.36 0.7413,2.8934 0.8146,4.6267 0.06,1.4267 -0.01,2.8 -0.068,4.1333 -0.047,1 -0.097,2 -0.081,3 0.015,0.9067 0.057,1.8134 0.1,2.7334 0.067,1.4133 0.1347,2.8933 0.112,4.4133 -0.027,1.8 -0.4773,3.36 -0.8387,4.6133 -0.2466,0.8667 -0.4613,1.6134 -0.492,2.2267 -0.075,1.4 -0.8133,2.6933 -1.9933,3.48 -1.6813,1.1067 -4.22,2.7733 -8.5787,3.6 -2.388,0.4533 -5.632,0.88 -9.544,0.28 -1.0253,-0.16 -2.1746,0.013 -3.5053,0.2133 -0.744,0.1067 -1.472,0.2134 -2.184,0.2667 -2.232,0.2 -4.0133,0.36 -5.3627,0.88 -1.196,0.4667 -2.2626,1.3067 -3.4973,2.28 l -0.9747,0.7733 c -1.4786,1.12 -2.9866,2.36 -4.0213,3.7067 -0.4573,0.6 -0.9213,1.16 -1.3707,1.72 -0.764,0.9333 -1.7133,2.0933 -1.924,2.6533 -0.4586,1.24 0.94,2.3067 1.9307,2.6934 0.6387,0.24 1.1653,0.5866 1.6,0.9466 0.4427,-0.4133 0.9347,-1.0533 1.2733,-1.88 0.6254,-1.6266 2.332,-6.04 6.82,-8.3733 3.0014,-1.56 6.844,-2.1333 10.5467,-1.5467 1.6293,0.2134 2.5373,1.2667 3.08,1.8934 l 0.045,0.053 c 0.2254,0.2133 0.432,0.4533 0.612,0.7067 0.7094,1.0133 0.9667,2.2666 0.712,3.48 -0.1826,0.8533 -0.5506,1.5333 -0.8613,2.0133 -0.083,1.0667 -0.1467,2.3867 0.037,2.9067 0.28,0.8 0.728,1.4533 1.144,1.9466 0.5974,0.2134 1.0694,0.52 1.4254,0.8267 0.8293,0.7067 1.3866,1.5733 1.668,2.6 0.4346,0.1733 0.86,0.2933 1.092,0.2933 0.5266,0 1.8706,-0.6 2.4693,-1.3066 0.093,-0.1067 0.3373,-0.4 0.1627,-1.16 -0.184,-0.8134 -0.736,-1.6667 -1.472,-2.2934 -0.9974,-0.84 -1.596,-2.1333 -1.5934,-3.4533 0,-1.4 0.616,-2.4 1.1774,-3.04 0.4453,-1.5867 1.4906,-4.1467 4.6333,-6.3867 0.3293,-0.2266 0.6893,-0.4266 1.0693,-0.56 0.6387,-0.2266 1.272,-0.44 1.892,-0.6666 1.8707,-0.64 3.6374,-1.2534 4.596,-1.8667 0.7294,-0.4667 1.5654,-0.7067 2.4,-0.7067 z m -47.752,23.8534 c 0,0 0,0 0.01,0 z m 60.8227,7.52 c -1.8053,0 -3.2373,-0.52 -4.4,-1.0267 -5.944,-2.6133 -8.7053,-9.0533 -6.2907,-14.6533 0.744,-1.68 1.0547,-3.0534 1.0907,-3.76 -1.2533,-0.96 -2.5227,-1.7467 -3.6413,-2.4134 -1.2294,0.5334 -2.5534,0.9867 -3.9214,1.4667 -0.3746,0.12 -0.7546,0.2533 -1.1386,0.3867 -0.5107,0.44 -0.6854,0.8 -0.792,1.1733 0.9453,1.36 1.6266,2.8667 1.9853,4.44 0.752,3.2933 0.024,6.4533 -2.0493,8.8933 -2.2147,2.6134 -6.0187,4.44 -9.248,4.44 -2.6134,0 -5.7827,-1.2 -7.8867,-2.9733 -0.7467,-0.64 -1.2733,-1.4133 -1.576,-2.3067 -0.9173,-0.8666 -3.0867,-2.9866 -4.256,-6.32 -0.564,-1.6133 -0.6613,-3.3466 -0.6053,-4.9866 -0.4294,0.1333 -0.7947,0.28 -1.08,0.4266 -1.5054,0.7734 -2.2734,2.76 -2.5627,3.52 l -0.116,0.2934 c -1.6133,3.9866 -5.4733,8.0133 -10.4613,8.0133 -2.444,0 -3.92,-1.6533 -4.5814,-2.4267 -5.6386,-2.56 -8.3493,-8.36 -6.3306,-13.7733 0.7253,-1.9467 2.0706,-3.6 3.372,-5.1867 0.3933,-0.48 0.8,-0.9866 1.2,-1.5066 1.6613,-2.16 3.7066,-3.8534 5.668,-5.36 l 0.8613,-0.6667 c 1.5733,-1.2533 3.356,-2.6667 5.8107,-3.6133 2.5293,-0.9734 5.1213,-1.2 7.6293,-1.4267 0.7067,-0.053 1.2493,-0.1333 1.808,-0.2267 1.7,-0.2533 3.8173,-0.5733 6.1853,-0.2 2.5654,0.4 4.7414,0.1067 6.5347,-0.2266 1.604,-0.3067 2.7467,-0.7734 3.7027,-1.2934 0.1426,-0.6133 0.3093,-1.1866 0.4666,-1.7333 0.2587,-0.8933 0.4814,-1.68 0.492,-2.2933 0.019,-1.2934 -0.045,-2.5867 -0.104,-3.8667 -0.047,-1.0133 -0.093,-2.0133 -0.1093,-3 -0.019,-1.2 0.035,-2.3867 0.091,-3.56 0.056,-1.2 0.108,-2.32 0.065,-3.3467 -0.033,-0.8 -0.2813,-1.7733 -0.544,-2.7866 -0.308,-1.2134 -0.6573,-2.5734 -0.7547,-4.04 l -0.048,-0.7334 c -0.1413,-2.1733 -0.2773,-4.2266 -0.444,-6.1333 -0.1613,-1.84 0.039,-3.5067 0.1987,-4.8533 0.099,-0.8267 0.2013,-1.68 0.1533,-2.12 -0.4493,-4.08 -0.8093,-6.6267 -0.8346,-6.8 -0.9774,-6.6267 2.7946,-12.28 8.7733,-13.16 6.2867,-0.92 12.5947,3.68 13.5107,9.8533 0.035,0.24 0.176,1.4933 0.404,3.5333 l 0.4213,3.7867 c 0.1387,1.2267 0.1627,2.4667 0.1907,3.7733 0.023,1.1467 0.047,2.3467 0.1546,3.5467 0.08,0.8933 0.2187,1.8267 0.3574,2.7867 0.1973,1.3466 0.42,2.88 0.528,4.48 0.097,1.4666 0.144,2.9733 0.1906,4.52 0.028,0.9333 0.056,1.8666 0.097,2.8133 0.075,1.7333 -0.244,3.3067 -0.524,4.6933 -0.2,1 -0.388,1.9334 -0.3747,2.6667 0.017,0.9733 0.1107,1.9467 0.2,2.92 0.1267,1.4 0.26,2.8533 0.2427,4.4 l -0.015,1.5733 c -0.011,1.12 -0.021,2.2534 -0.044,3.3867 2.108,1.3467 4.476,2.9733 7.044,5.0667 v 0 c 2.456,2 3.812,4.3066 4.992,6.48 1.4747,2.7333 1.8093,5.3333 2.1053,7.6266 0.3454,2.6667 0.3134,5.0934 -0.088,7.6934 -0.4666,3.04 -1.0853,5.3733 -1.9426,7.32 -1.896,4.32 -5.4547,6.8 -9.7627,6.8"
       style="fill:#362421;fill-opacity:1;fill-rule:nonzero;stroke:none;stroke-width:0.133333" />
    <path
       id="path296"
       d="m 1015.956,2229.2667 c 0,0 -56.05469,13.9733 -71.60402,86.36 0,0 -3.00134,17.24 0,36.8266 l 0.46,25.0667 -4.88134,30.28 c 0,0 -24.096,15.76 -23.02266,52.3467 1.07333,36.5866 13.29333,57.5733 49.18,75.68 0,0 31.50666,44.96 80.84662,58.84 0,0 44.016,11.88 89.4467,0 0,0 44.4013,-7.7467 58.572,-37.64 l 22.932,-41.0534 7.7293,-39.3333 -11.948,-53.8533 -27.904,-16.68 c 0,0 -21.9293,-24.2 -26.3786,-32.6534 -4.4494,-8.4533 -11.1547,-27.5066 -11.1547,-27.5066 0,0 -2.2427,-41.3067 -8.4547,-55.56 -6.212,-14.2667 -14.564,-34.4533 -31.512,-45.6667 -16.9466,-11.2266 -45.3466,-26.2933 -92.3066,-15.4533"
       style="fill:#ffffff;fill-opacity:1;fill-rule:nonzero;stroke:none;stroke-width:0.133333" />
    <path
       id="path297"
       d="m 1169.384,2548.8133 c -2.912,-1.9333 -2.0987,-1.72 -4.9067,-5.0266 -1.2973,-1.5334 -1.9547,-3.9867 -3.4947,-6.12 -1.264,-1.76 -3.124,-3.3067 -4.4146,-5.44 -1.1534,-1.8934 -2.304,-3.9334 -3.3854,-6.1067 -1.0053,-2.0267 -1.688,-4.2667 -2.5573,-6.5067 -1.416,-3.6533 2.7627,-7.5466 6.0787,-5.4666 2.0786,1.3066 3.98,3.5733 6.7533,4.9733 2.2973,1.1467 4.748,2.5867 7.528,3.6933 2.4427,0.9734 5.204,1.3867 8.0213,2.2534 0.7454,-3.7467 -2.9186,-2.7734 -4.3333,-6.3334 -0.9893,-2.48 -0.2613,-5.1333 0.8587,-7.28 0.8946,-1.72 2.1293,-3.8133 5.704,-4.3333 2.568,-0.36 5.4293,0.1333 7.864,-0.72 2.504,-0.8933 4.6573,-2.68 6.8013,-4.0133 2.316,-1.4267 4.1733,-3.2667 5.8,-5.12 1.812,-2.0534 2.4827,-4.3867 3.0707,-6.8134 0.5853,-2.4266 0.636,-4.5733 -0.3854,-7.2133 -0.8026,-2.0933 0.3614,-4.6667 0.2694,-7.1467 -0.081,-2.2266 -0.6174,-4.52 -0.4107,-6.9733 0.1907,-2.2533 0.612,-4.5733 0.8333,-6.9733 0.2134,-2.2934 0.1187,-4.68 0.172,-7.04 0.055,-2.32 -0.26,-4.6534 -0.5346,-7 -0.2694,-2.2934 -1.4774,-4.32 -2.2294,-6.5734 -0.7146,-2.1466 -0.1253,-5 -1.42,-7.0666 -1.2866,-2.0534 -2.6093,-3.9334 -3.5666,-5.9467 -1.0867,-2.28 -2.7894,-4.1467 -3.396,-6.1733 -0.8094,-2.7067 -1.664,-5.2667 -1.4934,-7.08 0.2614,-2.7867 2.4494,-3.5867 5.452,-2.7867 1.6,0.4267 4.252,0.28 6.7427,2.12 1.5933,1.1733 2.5733,3.6533 4.5587,5.5067 1.8586,1.72 3.5533,3.4933 5.2973,5.1066 1.8573,1.72 4.688,2.2934 6.4187,3.9334 1.8253,1.7333 3.132,3.92 4.82,5.6266 1.7546,1.7734 3.8106,3.2267 5.4213,5.04 1.6387,1.84 2.108,4.6267 3.6013,6.5734 1.476,1.92 2.8934,3.84 4.2334,5.9333 1.2866,2.0267 3.4053,3.6 4.5706,5.84 1.0934,2.1067 1.5494,4.6 2.54,6.9467 0.9147,2.1733 1.332,4.5866 2.1614,7.0133 0.7613,2.2267 3.1,4.0267 3.792,6.4933 1.208,3.5867 -0.3694,3.1734 0.8466,7.6667 0.568,2.1067 2.212,4.36 2.7587,7.1333 0.4547,2.32 0.804,4.88 1.128,7.5334 0.2947,2.4133 0.86,4.9733 0.964,7.5866 0.1,2.4667 -1.6427,4.9867 -1.7813,7.56 -0.136,2.4934 0.5213,5.0667 0.1013,7.5867 -0.412,2.4667 -0.9653,4.9333 -1.708,7.3733 -0.728,2.4 -2.2733,4.4667 -3.3733,6.7734 -1.072,2.24 -1.3427,4.9866 -2.8174,7.0933 -1.4133,2.0267 -3.9386,3.16 -5.7653,5.0133 -1.7187,1.7467 -2.98,4.0667 -5.1013,5.6134 -3.1707,2.32 -2.572,1.04 -7.4027,2.4933 -2.088,0.64 -4.3613,2.6933 -7.4013,3.08 -2.328,0.2933 -5.0574,0.24 -7.9574,0.2267 -2.4106,-0.013 -5.068,-0.3867 -7.8813,-0.6934 -2.4347,-0.28 -5.0067,-0.96 -7.7493,-1.52 -2.424,-0.48 -4.888,-1.44 -7.556,-2.1866 -2.3987,-0.68 -4.6694,-2.08 -7.268,-2.9867 -2.3654,-0.84 -5.144,-0.8533 -7.676,-1.9067 -2.328,-0.96 -4.7254,-2.0666 -7.196,-3.24"
       style="fill:#ded6ce;fill-opacity:1;fill-rule:nonzero;stroke:none;stroke-width:0.133333" />
    <path
       id="path298"
       d="m 1203.4333,2415.7067 c -2.352,-2.7867 -2.296,-1.4 -6.1827,-3.7467 -1.7893,-1.0667 -3.76,-2.5333 -6.024,-4.1067 -1.856,-1.28 -3.9426,-2.56 -5.9813,-4.1733 -1.8253,-1.44 -3.6107,-3.0933 -5.4907,-4.8 -1.7533,-1.5867 -3.0666,-3.68 -4.7946,-5.4933 -1.6467,-1.7334 -3.26,-3.48 -4.8214,-5.4134 -1.712,-2.12 -3.6933,-3.72 -5.0853,-5.5466 -1.7,-2.2134 -3.2227,-4.1734 -4.472,-6.0134 -1.632,-2.4 -3.844,-4.04 -4.764,-5.9733 -1.2773,-2.68 -1.4907,-5.3733 -1.536,-7.5733 -0.051,-2.4267 0.508,-4.9867 1.7547,-7.4534 0.844,-1.68 2.412,-3.7333 3.7946,-6.1733 1.124,-2 3.004,-3.7333 4.3387,-5.8133 1.3453,-2.08 2.2973,-4.4 3.7227,-6.1734 1.7626,-2.1866 3.632,-3.8 5.2853,-4.8133 2.3707,-1.4533 4.048,-1.4667 5.5627,1.36 0.5666,4.32 0.432,4.3067 0.432,8.6533 0,4.3467 -0.2014,4.3334 0.316,8.6534 0.3693,3.0666 -0.3987,3.2666 0.48,6.24 0.8786,2.96 0.168,3.7466 2.3493,5.9333 2.828,2.8533 2.1947,-2.6 5.352,-6.3867 1.464,-1.7466 2.2013,-4.8133 4.4973,-6.8 1.8534,-1.6 5.0067,-1.84 7.4587,-3.36 2.124,-1.3333 3.6933,-4.0666 6.3027,-5.2133 2.3146,-1 5.376,-0.3467 8.096,-1.12 2.4426,-0.68 4.864,-1.76 7.652,-2.1867 2.6453,-0.4 5.116,-1.4266 7.576,-1.6 2.676,-0.2 5.2626,0.52 7.724,0.5734 2.6866,0.053 5.3386,-0.7467 7.7733,-0.4267 2.6653,0.36 4.9133,2.1733 7.2853,2.8133 2.596,0.6934 5.1427,1.0134 7.3947,1.9867 2.4573,1.08 5.2773,1.4 7.3373,2.7467 2.2387,1.4666 3.392,4.2133 5.176,5.9066 1.9307,1.8534 4.236,3.2267 5.6534,5.2534 2.512,3.4133 4.0746,2.8266 4.9253,6.9866 0.4787,2.3334 -0.8587,2.8 -3.14,3.5067 -3.4987,1.0933 -1.9747,-1.1733 -6.412,-2.44 -1.9147,-0.5333 -4.0573,-1.2933 -7.0013,-1.1733 -2.116,0.093 -4.344,0.76 -7.0467,1.44 -2.1293,0.5333 -5.54,0.72 -8.0587,1.7333 0.7694,3.7733 3.6627,0.8133 8.0494,2.6 2.0426,0.84 4.38,1.9067 6.9413,3.24 2.1093,1.1067 4.0973,2.72 6.3893,4.2133 2.056,1.3334 4.684,2.04 6.7694,3.72 1.9373,1.5467 4.4133,2.7467 6.284,4.6134 1.7666,1.76 3.1026,4.12 4.7346,6.1866 1.588,2.0134 2.964,4.12 4.3014,6.1067 1.424,2.1333 2.6613,4.3067 3.8213,6.4133 1.2333,2.2267 1.4187,4.8667 2.3787,7.08 1.012,2.3334 2.76,4.2934 3.4973,6.6 0.772,2.4134 0.8693,4.9334 1.3747,7.32 0.5226,2.4667 0.84,4.88 1.116,7.3067 0.2813,2.4933 0.4853,4.92 0.548,7.3733 0.063,2.5067 0.66,4.9867 0.5386,7.44 -0.1866,3.7467 0.015,6.7467 -0.408,8.9467 -1.5546,8.0667 -1.1173,9.1333 -5.1773,7.3733 -1.6707,-0.72 -1.6653,-0.8933 -3.0547,-2.0666 -3.2026,-2.7067 -3.4253,-2.5334 -6.296,-5.5867 -2.8693,-3.0667 -1.5453,-4.3867 -4.584,-7.28 -1.0733,-1.0267 -3.8693,-2.6 -4.0466,-1.12 -0.4734,3.9333 1.8906,3.9733 2.7493,7.84 0.8587,3.88 1.38,3.8133 1.6187,7.7733 0.2146,3.5734 0.2253,3.6267 -0.1867,7.1867 -0.4133,3.56 -0.092,3.6 -0.504,7.1733 -0.4133,3.56 -1.396,3.3734 -2.4853,6.7867 -1.2267,3.8533 -1.1747,3.8 -3.04,7.3867 -1.8667,3.5866 -1.3854,3.88 -3.78,7.1333 -2.5427,3.4667 -2.4227,3.6267 -5.4387,6.68 -3.016,3.0533 -2.4147,4.0933 -6.04,6.3867 -2.2667,1.44 -3.94,2.4533 -6.2493,1.08 -3.4627,-2.04 -2.3614,-3.7734 -4.4974,-7.1867 -1.9506,-3.1067 -1.7,-3.28 -3.5973,-6.4267 -1.8987,-3.1466 -1.0893,-3.64 -2.988,-6.7866 -1.8987,-3.16 -1.8693,-3.1734 -3.7667,-6.32 -1.9,-3.1467 -2.4826,-2.8 -4.3826,-5.96 -1.8987,-3.1467 -0.9707,-3.7067 -2.8694,-6.8534 -1.9,-3.1466 -2.156,-3 -4.056,-6.1466 -1.9,-3.16 -2.78,-2.6267 -4.6813,-5.7867 -1.9,-3.1467 -2.2947,-2.9067 -4.196,-6.0667 -1.8987,-3.1466 -1.4147,-3.44 -3.3133,-6.5866 -1.9,-3.1467 -1.4507,-3.4267 -3.352,-6.5734 -1.9,-3.16 -1.8134,-3.2133 -3.7147,-6.36 -1.9013,-3.16 -2.7267,-2.6666 -4.628,-5.8133 -1.904,-3.16 -2.2533,-2.9867 -4.0467,-6.2133 -1.7933,-3.2267 -0.784,-3.8134 -3.1613,-6.64"
       style="fill:#ded6ce;fill-opacity:1;fill-rule:nonzero;stroke:none;stroke-width:0.133333" />
    <path
       id="path299"
       d="m 1015.956,2229.2667 c 0,0 -10.3734,-20.28 -1.0987,-47.8667 9.276,-27.5866 32.2213,-37.3066 46.7707,-33.9866 14.5493,3.3066 6.048,24.1733 6.048,24.1733 l -0.7907,17.7333 0.3027,9.5067 c 0,0 11.308,-17.8 27.54,-10.8 16.232,7 5.1146,28.0133 5.1146,28.0133 0,0 18.2654,-0.1866 24.9974,13.2267 6.732,13.4267 -10.072,21.2133 -10.072,21.2133 l -14.6294,-12.4266 -21.9,-11.3334 -13.3973,-3.0933 -17.9067,-1.0267 -17.1333,2.72 -13.8453,3.9467"
       style="fill:#da2825;fill-opacity:1;fill-rule:nonzero;stroke:none;stroke-width:0.133333" />
    <path
       id="path300"
       d="m 1094.82,2605.4667 c -1.764,0 -3.3654,-0.36 -4.7854,-0.68 -1.0173,-0.24 -1.9786,-0.4534 -2.732,-0.4667 -1.7186,-0.04 -3.3893,-0.1733 -5.0066,-0.3067 -0.9027,-0.067 -1.8067,-0.1466 -2.7107,-0.2 -1.664,-0.093 -3.192,-0.3733 -4.6693,-0.64 -1.0534,-0.2 -2.048,-0.3733 -2.9934,-0.48 -1.0053,-0.093 -2.0173,-0.12 -3.0253,-0.16 -1.5067,-0.053 -3.0627,-0.1066 -4.6973,-0.3333 -0.84,-0.1333 -1.8427,-0.1067 -2.9067,-0.1067 -1.4813,0.027 -3.1613,0.053 -4.9067,-0.28 -1.816,-0.3466 -3.3933,-1.04 -4.7853,-1.64 -0.948,-0.4133 -1.8453,-0.8133 -2.6067,-1 -0.9066,-0.2133 -1.8986,-0.36 -2.9506,-0.5066 -1.5187,-0.2267 -3.088,-0.4534 -4.724,-0.9334 -1.7027,-0.5066 -3.2254,-1.24 -4.5707,-1.8933 -0.932,-0.4533 -1.8107,-0.88 -2.636,-1.1733 -0.8493,-0.3067 -1.804,-0.5467 -2.812,-0.8 -1.5187,-0.3867 -3.0893,-0.7734 -4.6987,-1.4667 l -1.448,-0.6267 c -1.8866,-0.8 -3.8386,-1.6266 -5.7386,-2.6133 -0.8334,-0.4267 -1.696,-0.8 -2.5547,-1.1867 -1.508,-0.6666 -3.0667,-1.3466 -4.5973,-2.2933 -2.2987,-1.4267 -4.54,-2.84 -6.6707,-4.4267 -1.2653,-0.9466 -2.3467,-1.9466 -3.392,-2.92 -0.784,-0.7333 -1.524,-1.4266 -2.25599,-2 -0.76,-0.6 -1.628,-1.16 -2.548,-1.76 -1.18267,-0.76 -2.40667,-1.56 -3.59067,-2.5466 -1.21733,-1.0134 -2.30666,-2.0667 -3.35866,-3.0934 -0.712,-0.68 -1.416,-1.36 -2.14134,-2.0133 -1.224,-1.08 -2.256,-2.28 -3.16533,-3.3333 -0.684,-0.7867 -1.32933,-1.5334 -1.972,-2.1467 -1.172,-1.12 -2.16133,-2.2667 -3.11867,-3.3733 -0.63866,-0.7334 -1.27333,-1.48 -1.948,-2.16 -0.44933,-0.4667 -1.24666,-0.9467 -2.09066,-1.4534 -1.31067,-0.8 -2.796,-1.6933 -4.06667,-3.1066 -1.15333,-1.2667 -2.02267,-2.6534 -2.78933,-3.88 -0.54534,-0.8667 -1.06,-1.68 -1.58534,-2.32 -1.084,-1.3067 -1.91066,-2.6934 -2.64,-3.92 -0.52133,-0.88 -1.01333,-1.7067 -1.52533,-2.3867 -0.36,-0.48 -1.08133,-1.04 -1.84667,-1.6267 -1.244,-0.9733 -2.652,-2.0666 -3.75333,-3.68 -1.02933,-1.52 -1.63333,-3.12 -2.16667,-4.52 -0.35466,-0.9333 -0.68933,-1.8133 -1.06533,-2.4266 -0.48667,-0.8134 -1.016,-1.5867 -1.54,-2.3734 -0.85733,-1.2666 -1.744,-2.5733 -2.524,-4.04 -0.896,-1.68 -1.27733,-3.3733 -1.61333,-4.8533 -0.21467,-0.9467 -0.416,-1.84 -0.69867,-2.4533 -0.22133,-0.4667 -0.83733,-1.16 -1.43333,-1.8267 -1.024,-1.1467 -2.29867,-2.5733 -3.06,-4.48 -0.73467,-1.8267 -0.864,-3.6133 -0.97734,-5.1733 -0.068,-0.96 -0.13466,-1.8667 -0.32666,-2.4267 -0.28,-0.8267 -0.676,-1.6933 -1.09467,-2.6267 -0.59067,-1.2933 -1.26133,-2.7733 -1.72133,-4.4 -0.484,-1.7066 -0.84667,-3.4133 -1.19734,-5.0533 -0.164,-0.76 -0.328,-1.5333 -0.50533,-2.3067 -0.36533,-1.5866 -0.58533,-3.1466 -0.79733,-4.6533 -0.12934,-0.92 -0.25867,-1.84 -0.42667,-2.7733 -0.368,-2.0134 -0.64133,-4.04 -0.904,-6 l -0.19333,-1.4134 c -0.11867,-0.8666 -0.36,-1.8133 -0.61467,-2.8133 -0.34533,-1.36 -0.73867,-2.9067 -0.90133,-4.56 -0.096,-0.9867 -0.26134,-1.96 -0.42534,-2.9333 -0.24,-1.44 -0.488,-2.92 -0.588,-4.52 -0.11466,-1.8534 0.24934,-3.52 0.56934,-4.9867 0.212,-0.9733 0.41066,-1.88 0.392,-2.5467 -0.0253,-0.8266 -0.288,-1.8266 -0.564,-2.8933 -0.37334,-1.4133 -0.796,-3.0267 -0.80134,-4.8 -0.004,-1.9467 0.384,-3.6533 0.72667,-5.16 0.22133,-0.96 0.43067,-1.88 0.45067,-2.5733 0.0227,-0.76 -0.20667,-1.7467 -0.45067,-2.8 -0.34667,-1.4934 -0.74,-3.1734 -0.61067,-5.04 0.14667,-2.0934 0.828,-3.9067 1.37467,-5.3734 0.33067,-0.88 0.644,-1.72 0.70933,-2.2666 l 0.23067,-2.0667 c 0.216,-1.96 0.42,-3.8133 0.71867,-5.6667 0.17333,-1.0533 0.25866,-2.1466 0.348,-3.2933 0.11066,-1.4267 0.22666,-2.9067 0.52133,-4.4133 0.27867,-1.4267 0.632,-2.7467 0.97333,-4.0267 0.29734,-1.12 0.59734,-2.2267 0.81467,-3.3467 0.208,-1.08 0.288,-2.28 0.37333,-3.56 0.0813,-1.2266 0.16534,-2.48 0.364,-3.8133 0.16134,-1.0933 0.184,-2.3467 0.20667,-3.68 0.02,-1.1733 0.044,-2.3733 0.144,-3.6 0.0867,-1.04 0.23867,-2.0933 0.39867,-3.1733 0.208,-1.4 0.40533,-2.72 0.42666,-4.0667 0.02,-1.1733 -0.0853,-2.5067 -0.19466,-3.9067 -0.088,-1.1066 -0.176,-2.24 -0.22134,-3.4133 -0.0413,-1.08 -0.02,-2.1867 0.004,-3.32 0.0307,-1.4 0.06,-2.7333 -0.0493,-4.08 -0.196,-2.4 -0.39333,-4.84 -0.68933,-7.4133 -0.21334,-1.8534 0.0147,-3.5467 0.216,-5.04 0.12933,-0.9467 0.24933,-1.84 0.20933,-2.5067 -0.036,-0.6 -0.31867,-1.4533 -0.61867,-2.3467 -0.49333,-1.48 -1.052,-3.16 -1.05733,-5.12 -0.004,-1.7733 0.13867,-3.4666 0.27467,-5.1066 0.068,-0.8134 0.136,-1.6267 0.18266,-2.4267 0.10934,-1.92 0.66534,-3.56 1.156,-5.0133 0.30134,-0.8934 0.58667,-1.7334 0.664,-2.3734 0.072,-0.6 -0.048,-1.48 -0.17466,-2.4266 -0.20934,-1.5467 -0.44667,-3.3067 -0.0893,-5.24 0.32267,-1.7467 0.92534,-3.3067 1.45734,-4.68 0.352,-0.92 0.684,-1.7734 0.87866,-2.5467 0.43467,-1.72 1.13067,-3.2267 1.744,-4.56 0.40534,-0.8667 0.78934,-1.7067 1.03467,-2.4533 0.24933,-0.7734 0.412,-1.6933 0.58533,-2.6667 0.256,-1.4266 0.54534,-3.0533 1.19734,-4.68 0.676,-1.7066 1.45866,-3.2666 2.21466,-4.7866 0.34134,-0.68 0.68,-1.3467 1.004,-2.04 0.39734,-0.8267 0.73467,-1.68 1.07334,-2.5334 0.56666,-1.4266 1.15066,-2.8933 1.972,-4.3733 0.84933,-1.52 1.88133,-2.8 2.792,-3.9333 0.61466,-0.7734 1.19466,-1.4934 1.63866,-2.1867 0.376,-0.5867 0.70534,-1.44 1.05467,-2.3467 0.544,-1.4133 1.16,-3.0133 2.26533,-4.52 1.11334,-1.5066 2.45067,-2.5866 3.63067,-3.5466 0.74667,-0.6 1.452,-1.1734 1.88533,-1.6934 1.08667,-1.3066 2.228,-2.3866 3.33334,-3.44 0.65733,-0.6133 1.31333,-1.24 1.93066,-1.8933 0.55067,-0.5867 1.092,-1.36 1.66267,-2.1733 0.828,-1.1867 1.76533,-2.52 3.02667,-3.72 1.24266,-1.1867 2.52266,-2.1867 3.76133,-3.16 0.65733,-0.52 1.312,-1.0267 1.94533,-1.56 0.54267,-0.52 0.66,-0.7334 0.904,-1.1867 0.76,-1.4 1.61734,-2.72 4.43334,-4.68 1.51466,-1.0533 3.208,-1.48 4.70266,-1.8533 1.02934,-0.2534 2.00134,-0.4934 2.70934,-0.8934 0.26266,-0.1466 0.908,-0.8266 1.33466,-1.28 1.16267,-1.2266 2.60934,-2.76 4.75869,-3.72 1.6307,-0.72 3.3147,-0.9866 4.8013,-1.2266 1.016,-0.16 1.9747,-0.3067 2.7427,-0.5867 2.332,-0.8133 4.744,-1.4667 7.2973,-2.1467 2.3027,-0.6266 4.6267,-1.08 7.0867,-1.5466 l 0.3213,-0.067 c 0.8347,-0.16 1.6707,-0.3867 2.5187,-0.6133 1.4587,-0.3734 3.112,-0.8134 4.896,-1.0267 0.8627,-0.1067 1.7347,-0.2933 2.6227,-0.48 1.46,-0.3067 3.1146,-0.64 4.884,-0.76 1.6613,-0.093 3.3053,-0.053 4.896,-0.013 0.8893,0.027 1.8013,0.067 2.6906,0.053 l 1.8094,-0.013 c 1.844,-0.027 3.756,-0.053 5.752,0.053 1.832,0.093 3.4386,0.6267 4.8586,1.1067 0.944,0.3066 1.8374,0.6133 2.5454,0.68 0.8066,0.08 1.7453,0.067 2.7346,0.053 1.444,-0.013 3.0707,-0.04 4.7894,0.2267 2.4653,0.3733 4.9306,0.8533 7.5333,1.4533 1.9547,0.4667 3.748,1.08 5.4813,1.68 0.6187,0.2133 1.2334,0.4133 1.8507,0.6267 0.8547,0.2666 1.7347,0.48 2.6067,0.6933 1.5586,0.3733 3.168,0.76 4.812,1.4533 1.8413,0.7867 3.228,1.9334 4.452,2.9467 0.7146,0.6 1.392,1.16 1.9573,1.4533 0.6933,0.3734 1.5467,0.68 2.452,1.0134 1.4253,0.5333 3.0413,1.1333 4.592,2.1333 1.588,1.04 2.7853,2.3067 3.8413,3.4133 0.652,0.6934 1.268,1.3334 1.852,1.7867 1.8747,1.4667 3.88,3.08 5.836,4.8933 0.6654,0.6134 1.3774,1.16 2.0854,1.72 1.1773,0.92 2.512,1.96 3.7133,3.2667 0.5733,0.6267 1.2507,1.24 1.9693,1.8933 1.1067,1.0134 2.36,2.16 3.452,3.5467 0.5294,0.6667 1.092,1.3333 1.652,1.9867 1.0654,1.24 2.168,2.5333 3.16,4 0.4614,0.68 0.944,1.3466 1.4267,2.0266 0.9827,1.36 2,2.7734 2.8987,4.32 0.96,1.6534 1.4093,3.36 1.8053,4.8534 0.248,0.9333 0.4827,1.8133 0.7827,2.4266 1.0626,2.1467 1.96,4.2934 2.828,6.3734 l 0.2333,0.5733 c 0.2733,0.6533 0.7973,1.4267 1.352,2.24 0.856,1.2533 1.8267,2.6933 2.4387,4.4533 0.5706,1.6534 0.8653,3.3067 1.124,4.7734 0.1733,0.9733 0.3373,1.8933 0.56,2.6933 0.5,1.8133 0.556,3.5333 0.6053,5.04 0.032,0.96 0.061,1.88 0.2067,2.5733 0.1693,0.8133 0.4906,1.7067 0.8306,2.6533 0.4947,1.3734 1.056,2.9467 1.2974,4.68 0.116,0.84 0.2546,1.6534 0.392,2.4667 0.2773,1.6533 0.5666,3.36 0.6786,5.1333 0.06,0.9334 0.1987,1.8534 0.3334,2.7734 0.228,1.5866 0.4653,3.2133 0.428,4.9466 -0.037,1.7067 -0.444,3.2267 -0.804,4.56 -0.2614,0.9734 -0.5334,1.9734 -0.484,2.5467 0.108,1.2933 0.432,2.6933 0.7733,4.1733 0.2213,0.9467 0.44,1.8934 0.6147,2.84 0.2653,1.44 0.72,2.92 1.2013,4.4667 0.248,0.8133 0.496,1.6133 0.7227,2.4133 0.368,1.32 0.5733,2.6267 0.7533,3.7867 0.1947,1.24 0.3773,2.4 0.7133,3.3067 0.4334,1.1733 1.068,2.36 1.7414,3.64 0.508,0.9466 1.0106,1.9066 1.456,2.88 1.0106,2.1866 2.104,4.3733 3.2533,6.4933 0.676,1.24 1.4893,2.4533 2.3507,3.7333 0.536,0.8 1.068,1.5867 1.5733,2.4 0.5053,0.8 1.2893,1.6267 2.1173,2.5067 0.8427,0.88 1.796,1.88 2.628,3.0533 1.0867,1.5334 1.652,3.1467 2.1507,4.56 0.3173,0.9067 0.6467,1.84 0.9653,2.24 0.6387,0.8 1.5267,1.5734 2.4667,2.4 0.948,0.8267 1.9293,1.68 2.8387,2.72 0.844,0.96 1.82,1.8267 2.8546,2.7334 0.8614,0.76 1.6947,1.5066 2.4534,2.28 1.3586,1.4 2.2626,2.96 2.9893,4.2 0.4133,0.72 0.928,1.6133 1.24,1.8933 1.8173,1.6533 1.952,4.4533 0.3013,6.28 -1.6506,1.8133 -4.46,1.9467 -6.2773,0.2933 -1.3333,-1.2 -2.1947,-2.6933 -2.9547,-4 -0.552,-0.9466 -1.0746,-1.8533 -1.6586,-2.4533 -0.6107,-0.6267 -1.292,-1.2267 -1.988,-1.84 -1.136,-1 -2.424,-2.1467 -3.6347,-3.52 -0.5227,-0.6 -1.244,-1.2267 -2.008,-1.8933 -1.144,-1 -2.4413,-2.1334 -3.5893,-3.5734 -1.2427,-1.5733 -1.8494,-3.2933 -2.384,-4.8133 -0.3347,-0.9467 -0.6494,-1.84 -1.016,-2.36 -0.4627,-0.6533 -1.1227,-1.3467 -1.8214,-2.08 -1.0426,-1.0933 -2.224,-2.3467 -3.2053,-3.9067 -0.456,-0.7333 -0.94,-1.4533 -1.424,-2.1733 -0.9347,-1.3867 -1.9027,-2.84 -2.776,-4.44 -1.2427,-2.28 -2.428,-4.64 -3.5213,-7.0267 -0.376,-0.8133 -0.8054,-1.6133 -1.2347,-2.4266 -0.7773,-1.4667 -1.5813,-2.9867 -2.2187,-4.7067 -0.648,-1.7333 -0.9213,-3.48 -1.1626,-5.0267 -0.156,-1 -0.3054,-1.9466 -0.532,-2.76 -0.2054,-0.72 -0.4307,-1.4533 -0.656,-2.1866 -0.536,-1.7334 -1.0894,-3.52 -1.4494,-5.48 -0.1506,-0.8134 -0.3426,-1.6267 -0.532,-2.4534 -0.3986,-1.72 -0.8106,-3.4933 -0.9733,-5.4266 -0.1773,-2.12 0.3427,-4.0534 0.76,-5.6134 0.2493,-0.92 0.4867,-1.8 0.5,-2.4266 0.021,-1 -0.1533,-2.2 -0.3387,-3.48 -0.1613,-1.1067 -0.328,-2.2667 -0.4066,-3.4934 -0.084,-1.3066 -0.3214,-2.72 -0.5734,-4.2133 -0.152,-0.8933 -0.3026,-1.8 -0.4306,-2.72 -0.116,-0.8267 -0.4787,-1.84 -0.8614,-2.9067 -0.408,-1.1333 -0.868,-2.4266 -1.164,-3.84 -0.3026,-1.4533 -0.3493,-2.8533 -0.3893,-4.0933 -0.036,-1.12 -0.071,-2.1733 -0.288,-2.96 -0.3347,-1.2 -0.5427,-2.3733 -0.7453,-3.52 -0.2214,-1.24 -0.4307,-2.4133 -0.7734,-3.4133 -0.2266,-0.6533 -0.7933,-1.4933 -1.3933,-2.3733 -0.7413,-1.0934 -1.58,-2.3334 -2.1973,-3.8 L 1132.9706,2286 c -0.8493,-2.04 -1.6533,-3.9733 -2.588,-5.8533 -0.6986,-1.4133 -1.076,-2.84 -1.4093,-4.1067 -0.2787,-1.04 -0.5413,-2.0266 -0.9,-2.6533 -0.6827,-1.1733 -1.5307,-2.36 -2.4293,-3.6 -0.532,-0.7467 -1.0627,-1.48 -1.5694,-2.24 -0.712,-1.04 -1.608,-2.0933 -2.556,-3.2 -0.6373,-0.7467 -1.2733,-1.4933 -1.876,-2.2533 -0.6453,-0.8267 -1.5306,-1.6267 -2.4693,-2.4934 -0.8267,-0.7466 -1.68,-1.5333 -2.5133,-2.44 -0.7067,-0.76 -1.648,-1.5066 -2.6454,-2.28 -0.8653,-0.68 -1.76,-1.3733 -2.6506,-2.2 -1.716,-1.5866 -3.5494,-3.0533 -5.2734,-4.4 -1.1013,-0.8666 -2.016,-1.8266 -2.8226,-2.68 -0.7894,-0.8266 -1.5347,-1.6133 -2.248,-2.08 -0.7094,-0.4666 -1.7307,-0.84 -2.812,-1.24 -1.092,-0.4 -2.3307,-0.8533 -3.56,-1.52 -1.3614,-0.72 -2.4707,-1.64 -3.448,-2.4533 -0.8294,-0.68 -1.612,-1.3333 -2.2574,-1.6 -0.9613,-0.4133 -2.1506,-0.6933 -3.4093,-1 -1.056,-0.2533 -2.148,-0.52 -3.284,-0.8933 -0.6653,-0.2134 -1.3253,-0.44 -1.988,-0.6667 -1.5933,-0.5467 -3.1,-1.0667 -4.62,-1.4267 -2.3707,-0.5466 -4.604,-0.9866 -6.8307,-1.32 -1.004,-0.1466 -2.1373,-0.1333 -3.348,-0.12 -1.2,0.013 -2.44,0.027 -3.7546,-0.1066 -1.688,-0.1734 -3.1614,-0.6667 -4.4614,-1.0934 -0.9626,-0.32 -1.872,-0.6266 -2.4893,-0.6533 -1.716,-0.093 -3.4827,-0.067 -5.1933,-0.053 l -1.8827,0.013 c -1.0213,0 -1.9893,-0.013 -2.9693,-0.04 -1.4587,-0.04 -2.836,-0.08 -4.0947,0 -1.144,0.067 -2.36,0.32 -3.6467,0.5867 -1.1186,0.2266 -2.22,0.4533 -3.3093,0.5866 -1.208,0.16 -2.4453,0.48 -3.756,0.8134 -1.0347,0.28 -2.056,0.5466 -3.072,0.7333 l -0.32,0.067 c -2.3027,0.44 -4.4787,0.8666 -6.4773,1.4 -2.3827,0.6533 -4.636,1.2533 -6.6534,1.96 -1.5293,0.5466 -3,0.7733 -4.2973,0.9866 -1.036,0.16 -2.0147,0.32 -2.5813,0.56 -0.5254,0.24 -1.2307,0.9867 -1.912,1.7067 -0.9454,1 -2.0174,2.1333 -3.48136,2.9467 -1.736,0.96 -3.47866,1.4 -4.876,1.7466 -0.64533,0.16 -1.52933,0.3867 -1.79466,0.5334 -1.29067,0.9066 -1.41867,1.1333 -1.67334,1.6133 -0.53466,0.9867 -1.18533,2.0667 -2.71733,3.5067 -0.0533,0.053 -0.108,0.093 -0.16533,0.1466 -0.74534,0.6267 -1.516,1.24 -2.29334,1.8534 -1.124,0.88 -2.18666,1.7066 -3.12533,2.6 -0.61733,0.5866 -1.228,1.4533 -1.87467,2.3866 -0.68933,0.9734 -1.472,2.0934 -2.452,3.1467 -0.74,0.7867 -1.52133,1.5333 -2.308,2.2667 -0.95733,0.9066 -1.86133,1.7733 -2.60933,2.6666 -0.996,1.2 -2.12933,2.12 -3.13067,2.92 -0.83466,0.68 -1.624,1.32 -2.05466,1.9067 -0.40267,0.5467 -0.75867,1.4667 -1.13734,2.4533 -0.47066,1.2267 -1.004,2.6134 -1.87066,3.96 -0.69867,1.08 -1.45467,2.0267 -2.18534,2.9334 -0.75866,0.9466 -1.47466,1.84 -1.95733,2.7066 -0.53867,0.96 -0.99467,2.1067 -1.476,3.32 -0.412,1.0267 -0.82667,2.0667 -1.30667,3.08 -0.35066,0.7334 -0.716,1.4667 -1.08266,2.2 -0.704,1.4 -1.36934,2.7334 -1.90534,4.08 -0.31866,0.8 -0.50666,1.8534 -0.70533,2.9733 -0.208,1.16 -0.444,2.48 -0.87867,3.8267 -0.40933,1.2667 -0.92533,2.3733 -1.42266,3.4533 -0.496,1.08 -0.96267,2.08 -1.196,3 -0.32667,1.2934 -0.772,2.4534 -1.204,3.5734 -0.42934,1.1066 -0.836,2.16 -1.00934,3.0933 -0.0987,0.5333 0.032,1.5067 0.15867,2.44 0.18533,1.3867 0.39733,2.9467 0.19067,4.6667 -0.18667,1.56 -0.65467,2.9466 -1.06934,4.1733 -0.34,1 -0.66133,1.96 -0.70266,2.6667 -0.0507,0.88 -0.12267,1.76 -0.19734,2.6533 -0.128,1.52 -0.24666,2.96 -0.244,4.36 10e-4,0.52 0.30667,1.44 0.6,2.32 0.44667,1.3467 0.95334,2.8667 1.06,4.6267 0.0907,1.5333 -0.10266,2.9733 -0.27333,4.24 -0.14533,1.0666 -0.28,2.0666 -0.19333,2.8266 0.30666,2.68 0.51333,5.2134 0.708,7.6 0.15466,1.9067 0.11866,3.6 0.0867,5.1067 -0.0213,0.9467 -0.044,1.88 -0.009,2.7733 0.04,1.0534 0.12133,2.0667 0.19867,3.0667 0.12266,1.5467 0.24933,3.1467 0.22266,4.7467 -0.032,1.92 -0.292,3.68 -0.52266,5.2266 -0.12934,0.88 -0.26134,1.7467 -0.332,2.6 -0.084,1.0267 -0.0973,2.04 -0.11467,3.0267 -0.028,1.5467 -0.056,3.16 -0.30267,4.8267 -0.14533,0.9733 -0.21466,2 -0.28666,3.0933 -0.1,1.4933 -0.20267,3.04 -0.516,4.6533 -0.26534,1.3867 -0.61467,2.6934 -0.95334,3.96 -0.30133,1.1334 -0.608,2.2667 -0.83866,3.44 -0.196,1 -0.28667,2.1734 -0.38134,3.4 -0.1,1.28 -0.204,2.6 -0.436,4.0267 -0.26266,1.6267 -0.456,3.3733 -0.65866,5.2133 l -0.236,2.1067 c -0.18934,1.64 -0.73334,3.0933 -1.21467,4.3733 -0.39867,1.0667 -0.77467,2.0667 -0.832,2.88 -0.036,0.52 0.18667,1.48 0.40133,2.4 0.328,1.4134 0.73734,3.16 0.67867,5.0934 -0.048,1.5333 -0.37733,2.9866 -0.66933,4.2666 -0.26,1.1467 -0.50534,2.24 -0.504,3.16 0.003,0.64 0.24933,1.5867 0.51066,2.5867 0.37334,1.4133 0.796,3.0267 0.85067,4.8667 0.052,1.76 -0.29067,3.32 -0.592,4.7066 -0.216,0.9867 -0.42133,1.92 -0.38267,2.5467 0.0707,1.1333 0.27067,2.3333 0.484,3.6 0.196,1.1733 0.38934,2.3467 0.504,3.5333 0.0973,0.9867 0.37467,2.08 0.66934,3.2267 0.304,1.2 0.62,2.44 0.80666,3.8 l 0.196,1.44 c 0.26134,1.9467 0.508,3.7867 0.84,5.6 0.18934,1.04 0.33734,2.08 0.484,3.1333 0.19334,1.3734 0.37734,2.6667 0.65734,3.8934 0.188,0.8133 0.36133,1.6266 0.536,2.44 0.33466,1.5733 0.652,3.0533 1.05733,4.4933 0.27867,0.9733 0.756,2.0267 1.26267,3.1467 0.48933,1.08 0.996,2.2 1.41733,3.44 0.55733,1.64 0.67333,3.2266 0.77467,4.6266 0.0707,0.9734 0.14266,1.9734 0.36266,2.52 0.18134,0.4534 0.85067,1.2 1.44267,1.8667 0.976,1.0933 2.084,2.3333 2.85867,4 0.684,1.4667 1.016,2.9333 1.30933,4.24 0.23333,1.0267 0.45467,2 0.78533,2.6267 0.564,1.0533 1.28667,2.1333 2.052,3.2666 0.60667,0.8934 1.21334,1.8 1.77734,2.7334 0.79333,1.3066 1.31066,2.6666 1.76533,3.8666 0.39733,1.04 0.772,2.0267 1.22,2.6934 0.30533,0.4533 1.08267,1.0533 1.83467,1.6266 1.14,0.8934 2.43333,1.8934 3.51066,3.32 0.80134,1.0667 1.44134,2.1467 2.06,3.1867 0.62,1.04 1.20667,2.0267 1.852,2.8133 0.89067,1.0667 1.58534,2.1734 2.25734,3.24 0.63066,1.0134 1.22666,1.96 1.86533,2.6667 0.392,0.4267 1.24267,0.9467 2.06533,1.44 1.22267,0.7467 2.60934,1.5733 3.84667,2.84 0.80267,0.8267 1.56,1.7067 2.32133,2.5867 0.85334,0.9866 1.65867,1.92 2.512,2.72 0.96134,0.92 1.78534,1.8666 2.58,2.8 0.79867,0.92 1.55334,1.8 2.33734,2.4933 0.82133,0.72 1.62,1.4933 2.42266,2.2667 0.98,0.96 1.90667,1.8533 2.86934,2.6533 0.77465,0.6533 1.72805,1.2667 2.73605,1.92 1.0466,0.68 2.1293,1.3867 3.2093,2.24 1.0173,0.8 1.928,1.64 2.8093,2.4667 0.912,0.84 1.7734,1.64 2.6534,2.3066 1.848,1.3734 3.9106,2.6667 6.0373,3.9867 1,0.6133 2.212,1.16 3.4973,1.72 1.0267,0.4533 2.0574,0.9067 3.0534,1.4267 1.6066,0.8266 3.3226,1.56 5.1413,2.3333 l 1.488,0.64 c 0.9533,0.4 2.1173,0.6933 3.3493,1.0133 1.1707,0.2934 2.384,0.6 3.644,1.0534 1.2694,0.4533 2.4054,1 3.5027,1.5333 1.14,0.5467 2.216,1.0667 3.2253,1.3733 1.0187,0.3067 2.208,0.4667 3.468,0.6534 1.2067,0.1733 2.4547,0.36 3.7614,0.6666 1.52,0.3734 2.8813,0.96 4.0826,1.4934 1.056,0.4533 2.0534,0.8933 2.8894,1.0533 0.8653,0.16 1.964,0.1467 3.128,0.1333 1.2973,-0.013 2.7653,-0.04 4.2906,0.1867 1.1534,0.16 2.408,0.2 3.736,0.2533 1.2027,0.04 2.4067,0.08 3.6107,0.2 1.3013,0.1334 2.52,0.36 3.6973,0.5734 1.2734,0.2266 2.476,0.4533 3.6014,0.52 0.9666,0.053 1.9333,0.1333 2.9013,0.2133 1.5507,0.12 3.0147,0.24 4.4627,0.2667 1.664,0.04 3.1866,0.3866 4.5293,0.68 1.084,0.2533 2.084,0.5466 2.884,0.4666 0.5827,-0.013 1.5467,-0.3466 2.48,-0.68 1.4093,-0.4933 3.008,-1.0666 4.8547,-1.1733 1.716,-0.093 3.2933,0.1733 4.6853,0.4 1.0667,0.1867 2.0733,0.36 2.784,0.2933 1.2507,-0.1333 2.5493,-0.3733 3.924,-0.6266 1.1333,-0.2134 2.264,-0.4267 3.396,-0.5867 2.5627,-0.36 5.02,-0.7467 7.3053,-1.16 1.192,-0.2133 2.4267,-0.5733 3.7334,-0.9467 1.1386,-0.3333 2.2733,-0.6666 3.4173,-0.92 1.4547,-0.3333 2.9,-0.76 4.4307,-1.2133 0.884,-0.2667 1.7653,-0.52 2.648,-0.76 l 2.0666,-0.56 c 1.748,-0.4667 3.4,-0.9067 4.9907,-1.4267 1.2613,-0.4133 2.4773,-0.7066 3.6533,-0.9733 1.2547,-0.2933 2.4387,-0.5733 3.4307,-0.96 1.412,-0.5467 2.8,-1.24 4.268,-1.96 0.7893,-0.3867 1.5733,-0.7733 2.36,-1.1333 1.1547,-0.5334 2.3013,-1.2534 3.5133,-2.0134 0.916,-0.5733 1.8267,-1.1466 2.756,-1.6533 l 0.2627,-0.1467 c 2.112,-1.1733 4.1053,-2.2666 5.9333,-3.48 1.2454,-0.8266 2.5347,-1.4266 3.672,-1.9466 1.0747,-0.4934 2.0907,-0.96 2.7174,-1.4667 1.9266,-1.5733 3.7586,-3.2267 5.2986,-4.8 1.5414,-1.5733 3.3027,-3.44 4.6867,-5.3067 0.4053,-0.5466 0.728,-1.6533 1.0413,-2.72 0.348,-1.2 0.744,-2.5466 1.424,-3.8666 1.1254,-2.1734 3.804,-3.04 5.9894,-1.9067 2.18,1.1333 3.0346,3.8133 1.908,5.9867 -0.2867,0.56 -0.532,1.4 -0.7907,2.28 -0.4813,1.64 -1.0787,3.6933 -2.428,5.5066 -1.7053,2.3067 -3.724,4.4534 -5.4747,6.24 -1.7973,1.84 -3.8333,3.68 -6.0506,5.48 -1.4974,1.2267 -3.1507,1.9867 -4.608,2.6534 -0.9254,0.4266 -1.7987,0.8266 -2.468,1.2666 -2.1294,1.4134 -4.376,2.6534 -6.5507,3.8534 l -0.2653,0.1466 c -0.792,0.44 -1.56,0.92 -2.3347,1.4134 -1.3933,0.8666 -2.8333,1.7733 -4.4933,2.5466 -0.7227,0.3334 -1.448,0.6934 -2.1787,1.0534 -1.5693,0.76 -3.1907,1.56 -4.9493,2.2533 -1.584,0.6133 -3.1387,0.9733 -4.6427,1.3333 -1.0347,0.24 -2.0107,0.4667 -2.9,0.76 -1.8373,0.6134 -3.6933,1.1067 -5.488,1.5734 l -1.9947,0.5466 c -0.824,0.2134 -1.6466,0.4667 -2.472,0.7067 -1.6026,0.48 -3.2586,0.9733 -5.0053,1.36 -0.9693,0.2267 -1.928,0.5067 -2.892,0.7867 -1.4693,0.4266 -2.988,0.8666 -4.636,1.16 -2.4053,0.44 -4.9853,0.8533 -7.668,1.2133 -0.9893,0.1467 -1.976,0.3333 -2.9653,0.52 -1.504,0.28 -3.06,0.5733 -4.7054,0.7333 -1.8893,0.1867 -3.6146,-0.1066 -5.1346,-0.36 -1.0147,-0.1733 -1.9667,-0.3333 -2.684,-0.2933 -0.5867,0.027 -1.512,0.36 -2.4067,0.68 -1.524,0.5333 -3.2507,1.1467 -5.272,1.1867 -0.081,0 -0.1613,0 -0.2413,0"
       style="fill:#362421;fill-opacity:1;fill-rule:nonzero;stroke:none;stroke-width:0.133333" />
    <path
       id="path301"
       d="m 1215.0253,2564.0533 c -0.052,0 -0.1013,0 -0.1533,0 l -1.1054,-0.013 c -2.1146,0.04 -4.3373,0.013 -6.732,-0.2133 -2.7133,-0.2667 -5.42,-0.7067 -7.7106,-1.12 -1.6867,-0.2934 -3.268,-0.7734 -4.796,-1.2267 -0.8814,-0.2667 -1.7734,-0.5333 -2.692,-0.76 -2.4174,-0.6 -4.84,-1.2933 -7.4094,-2.1067 -0.4773,-0.16 -1.396,-0.1733 -2.284,-0.2 -1.584,-0.027 -3.552,-0.08 -5.5333,-0.84 -1.6707,-0.64 -3.0693,-1.5866 -4.3027,-2.4133 -0.8693,-0.6 -1.6906,-1.1467 -2.436,-1.48 -0.7853,-0.3467 -1.7026,-0.6533 -2.6733,-0.9867 -1.3933,-0.4533 -2.972,-0.9866 -4.528,-1.7733 -1.6947,-0.8533 -2.9653,-2.04 -4.0867,-3.0933 -0.736,-0.6934 -1.4306,-1.3467 -2.032,-1.6934 -0.4013,-0.2266 -1.3413,-0.4 -2.1706,-0.5733 -1.5574,-0.3067 -3.4947,-0.68 -5.3067,-1.8 -1.828,-1.1333 -3.044,-2.72 -4.0213,-3.9867 -0.5107,-0.6533 -1.0894,-1.4133 -1.472,-1.68 l -1.6054,-1.1066 c -1.5306,-1.0667 -3.112,-2.1467 -4.6266,-3.36 -0.596,-0.48 -1.448,-0.92 -2.3507,-1.3867 -1.352,-0.7067 -2.884,-1.5067 -4.2573,-2.76 -1.4294,-1.2933 -2.4094,-2.76 -3.2734,-4.0667 -0.54,-0.8 -1.048,-1.56 -1.536,-2.0666 -0.5146,-0.5467 -1.3013,-1.08 -2.1333,-1.6534 -1.272,-0.88 -2.7133,-1.88 -3.9213,-3.32 -1.3614,-1.64 -2.0467,-3.4933 -2.5974,-4.9733 -0.304,-0.8267 -0.6213,-1.6667 -0.9226,-2.0933 -0.5214,-0.72 -1.1707,-1.44 -1.86,-2.2 -0.9907,-1.0934 -2.112,-2.3334 -3.0227,-3.8134 -0.464,-0.76 -1.0773,-1.52 -1.7293,-2.3333 -0.9307,-1.1733 -1.9867,-2.4933 -2.7894,-4.04 -0.86,-1.6667 -1.444,-3.3467 -1.96,-4.8267 -0.2906,-0.84 -0.5733,-1.6533 -0.9053,-2.44 -0.804,-1.88 -1.4,-3.7466 -1.9253,-5.4 -0.2094,-0.6533 -0.4147,-1.3066 -0.628,-1.9333 -0.2934,-0.8667 -0.7667,-1.7733 -1.2667,-2.72 -0.7187,-1.3867 -1.464,-2.8133 -1.888,-4.48 -0.528,-2.0667 -0.664,-4.0267 -0.772,-5.6133 -0.052,-0.7867 -0.096,-1.52 -0.2067,-2.1867 -0.56,-3.3867 -0.5893,-4.2133 -0.536,-5.92 0.016,-0.5067 0.036,-1.1467 0.021,-2.16 -0.032,-2.4533 1.9306,-4.4667 4.3853,-4.5067 2.38,-0.053 4.4707,1.9334 4.504,4.3867 0.016,1.2133 -0.01,1.96 -0.027,2.56 -0.033,1.0667 -0.043,1.3733 0.4214,4.1867 0.1666,1 0.2373,2.04 0.3066,3.04 0.092,1.3466 0.1867,2.7333 0.516,4.0266 0.1694,0.6534 0.648,1.5734 1.1547,2.5467 0.604,1.16 1.288,2.4667 1.8027,3.9867 0.232,0.68 0.4546,1.3733 0.6813,2.0933 0.488,1.5333 0.9933,3.1067 1.6333,4.6133 0.408,0.96 0.764,1.9734 1.1227,3 0.4587,1.32 0.892,2.56 1.4627,3.6667 0.3986,0.7733 1.0973,1.64 1.8373,2.5733 0.7533,0.9334 1.608,2.0134 2.36,3.24 0.4747,0.76 1.2307,1.6 2.0293,2.48 0.788,0.8667 1.6814,1.8534 2.4947,2.9867 1.0027,1.3867 1.5533,2.88 2.04,4.1867 0.3467,0.9466 0.7067,1.9066 1.0933,2.3733 0.428,0.5067 1.2574,1.08 2.136,1.6933 1.108,0.76 2.3627,1.6267 3.5054,2.8134 1.028,1.08 1.816,2.2533 2.5106,3.2933 0.6374,0.96 1.2414,1.8667 1.868,2.44 0.516,0.4667 1.42,0.9333 2.3747,1.4267 1.1827,0.6266 2.5213,1.32 3.7933,2.3333 1.2707,1.0133 2.6587,1.9733 4.1267,2.9867 l 1.6667,1.16 c 1.4893,1.04 2.5066,2.36 3.4053,3.5333 0.5907,0.76 1.2027,1.5467 1.652,1.8267 0.4427,0.28 1.4587,0.48 2.356,0.6533 1.4813,0.2933 3.1613,0.6267 4.7987,1.5467 1.5493,0.8666 2.732,1.9866 3.7746,2.96 0.7454,0.7066 1.4494,1.36 1.9894,1.64 0.984,0.4933 2.1306,0.88 3.344,1.28 1.1266,0.3733 2.2906,0.76 3.4666,1.28 1.4734,0.6533 2.72,1.5066 3.8214,2.2533 0.9146,0.6133 1.78,1.2 2.4893,1.48 0.5453,0.2 1.572,0.2267 2.564,0.2533 1.4427,0.027 3.0773,0.067 4.768,0.6 2.3907,0.76 4.6373,1.4134 6.8707,1.96 1.052,0.2667 2.076,0.5734 3.084,0.8667 1.3466,0.4133 2.6186,0.7867 3.7986,1 2.116,0.3733 4.604,0.7867 7.0067,1.0133 1.9747,0.1867 3.9613,0.2134 5.888,0.1867 h 1.132 c 2.212,0 4.52,-0.12 6.896,-0.3733 2.7893,-0.3067 4.8453,-0.6534 6.6667,-1.12 2.3853,-0.6134 4.4986,-1.1867 6.1933,-2.0134 2.1267,-1.0266 3.76,-2.1066 4.9947,-3.2933 1.1826,-1.1333 2.008,-2.56 2.5253,-4.3733 0.1573,-0.56 0.4187,-1.0667 0.7707,-1.52 0.9066,-1.16 1.448,-1.7467 1.88,-2.2134 0.5106,-0.5466 0.7213,-0.7733 2.032,-3.12 0.932,-1.6666 1.7013,-3.5333 2.4266,-5.88 0.2134,-0.6933 0.4667,-1.4 0.7294,-2.1333 0.52,-1.4533 1.0106,-2.8133 1.252,-4.3333 0.2226,-1.4 0.704,-2.6934 1.1293,-3.8267 0.4187,-1.12 0.816,-2.1733 0.8613,-3.04 0.052,-0.9867 -0.073,-2.2 -0.2026,-3.48 -0.1147,-1.1067 -0.2427,-2.3733 -0.2787,-3.68 0,-0.1333 0,-0.2667 0.01,-0.4133 0.1133,-1.7467 0.3293,-2.6934 0.4866,-3.3867 0.14,-0.6133 0.232,-1.0133 0.065,-3.2667 -0.056,-0.7466 -0.3267,-1.8533 -0.6134,-3.0266 -0.2786,-1.1467 -0.5746,-2.36 -0.8026,-3.6667 -0.1534,-0.88 -0.5094,-1.9733 -0.8867,-3.12 -0.3627,-1.1067 -0.7373,-2.2667 -1.0453,-3.4933 -0.304,-1.2 -0.4467,-2.3734 -0.5854,-3.52 -0.148,-1.2134 -0.2893,-2.36 -0.608,-3.3734 -0.5666,-1.7866 -1.3333,-4.16 -2.2546,-6.64 -0.412,-1.1066 -0.9587,-2.2933 -1.536,-3.5466 -0.4347,-0.9467 -0.8774,-1.9067 -1.2974,-2.8934 -0.304,-0.72 -0.8613,-1.5733 -1.452,-2.4666 -0.6973,-1.0534 -1.4853,-2.2534 -2.136,-3.64 l -0.464,-1 c -0.812,-1.7334 -1.648,-3.5334 -2.5813,-5.36 -0.516,-1.0134 -1.252,-2.0267 -2.0307,-3.1067 -0.6453,-0.88 -1.2866,-1.7733 -1.868,-2.7067 -0.8186,-1.32 -1.3386,-2.68 -1.7986,-3.88 -0.392,-1.0266 -0.7627,-1.9866 -1.1974,-2.5866 -1.3226,-1.8 -2.8106,-3.6534 -4.4266,-5.5467 -0.56,-0.6533 -1.1107,-1.32 -1.66,-2 -1.0107,-1.2267 -1.9627,-2.4 -2.968,-3.4133 -0.7534,-0.76 -1.732,-1.4934 -2.768,-2.2534 -0.92,-0.6933 -1.872,-1.4 -2.8067,-2.2266 -1.8333,-1.6267 -3.8053,-3.1734 -5.5093,-4.5067 -1.1747,-0.92 -2.1467,-1.9467 -3.004,-2.8667 -0.7867,-0.84 -1.5294,-1.6266 -2.224,-2.1066 -0.888,-0.6134 -1.984,-1.1467 -3.144,-1.7067 -1.0427,-0.5067 -2.1214,-1.04 -3.2,-1.6933 -0.628,-0.3734 -1.6134,-0.6534 -2.656,-0.9467 -1.2707,-0.36 -2.7107,-0.7733 -4.1294,-1.5067 -1.604,-0.84 -2.8,-1.9733 -3.8546,-2.9733 -0.692,-0.6533 -1.408,-1.32 -1.884,-1.5333 -1.2454,-0.5734 -2.588,-1.0267 -4.0107,-1.5067 -0.92,-0.3067 -1.832,-0.6267 -2.7227,-0.96 -1.0426,-0.4 -2.0693,-0.8533 -3.0866,-1.3067 -1.252,-0.5466 -2.4334,-1.08 -3.5347,-1.4133 -1.1013,-0.3333 -2.3613,-0.52 -3.6933,-0.7067 -1.132,-0.16 -2.2494,-0.3333 -3.3267,-0.5733 -1.0267,-0.2267 -2.2267,-0.2667 -3.4973,-0.3067 -1.128,-0.027 -2.2947,-0.067 -3.52,-0.2266 -2.2974,-0.32 -4.532,-0.5067 -6.8294,-0.56 -2.4533,-0.067 -4.388,-2.12 -4.3186,-4.5734 0.067,-2.4533 2.0906,-4.3866 4.5653,-4.32 2.6213,0.08 5.1667,0.28 7.7853,0.64 0.7534,0.1067 1.636,0.1334 2.5734,0.16 1.5613,0.04 3.3333,0.093 5.1973,0.52 0.8533,0.1867 1.7427,0.3067 2.6413,0.44 1.5294,0.2267 3.2614,0.4667 5.0094,1 1.6253,0.4934 3.116,1.16 4.5573,1.8 0.8653,0.3867 1.7333,0.7734 2.6227,1.1067 0.8,0.3067 1.616,0.5867 2.4373,0.8667 1.5587,0.52 3.1693,1.08 4.8013,1.8133 1.8374,0.8267 3.164,2.08 4.3334,3.1733 0.7013,0.6667 1.3626,1.2934 1.8826,1.56 0.5987,0.32 1.484,0.56 2.42,0.8267 1.488,0.4267 3.1734,0.9067 4.8214,1.8933 0.7466,0.4534 1.608,0.8667 2.5186,1.32 1.332,0.6534 2.84,1.3867 4.2667,2.36 1.4933,1.0267 2.6573,2.2667 3.684,3.36 0.6973,0.7467 1.3547,1.4534 1.9827,1.9334 1.8133,1.4133 3.916,3.08 5.9413,4.8666 0.6467,0.5734 1.4053,1.1467 2.2093,1.7334 1.2014,0.8933 2.5614,1.9066 3.7947,3.16 1.2973,1.3066 2.428,2.6933 3.5227,4.0266 0.5053,0.6267 1.0106,1.24 1.528,1.84 1.7586,2.0534 3.3866,4.0934 4.8373,6.0667 1.1467,1.56 1.78,3.2133 2.34,4.6667 0.348,0.9066 0.6773,1.7733 1.0507,2.3733 0.4693,0.76 0.9933,1.4667 1.5133,2.1867 0.9,1.2533 1.92,2.6533 2.748,4.28 0.984,1.92 1.8653,3.8133 2.7213,5.64 l 0.4574,0.9866 c 0.3773,0.8 0.9266,1.64 1.508,2.52 0.7493,1.1334 1.5986,2.4267 2.2186,3.8934 0.3814,0.9066 0.7867,1.7866 1.1827,2.64 0.6213,1.3466 1.2627,2.7466 1.7933,4.16 0.9894,2.6666 1.8027,5.1733 2.4,7.0666 0.5667,1.8 0.7734,3.4934 0.956,4.9867 0.1094,0.9067 0.2147,1.76 0.38,2.4133 0.2574,1.0134 0.576,1.9867 0.876,2.9067 0.4574,1.4 0.9307,2.84 1.192,4.3467 0.192,1.0933 0.4467,2.12 0.6814,3.08 0.3786,1.5466 0.7346,3 0.844,4.4933 0.2466,3.32 0.057,4.4933 -0.2627,5.8933 -0.108,0.4667 -0.2013,0.88 -0.268,1.7867 0.036,0.96 0.1347,1.9067 0.2293,2.8133 0.1587,1.56 0.324,3.1867 0.2374,4.8534 -0.1187,2.24 -0.8374,4.16 -1.416,5.6933 -0.304,0.8133 -0.592,1.5867 -0.6734,2.0933 -0.3706,2.3467 -1.0573,4.2534 -1.6626,5.9467 -0.2174,0.6 -0.428,1.1867 -0.6067,1.76 -0.8987,2.9067 -1.932,5.4 -3.156,7.5867 -1.672,3 -2.2267,3.7066 -3.2773,4.84 -0.232,0.2533 -0.5067,0.5466 -0.8974,1.0133 -0.9786,2.9333 -2.536,5.44 -4.636,7.4533 -1.9173,1.84 -4.2986,3.44 -7.2786,4.88 -2.432,1.1867 -5.104,1.92 -7.8574,2.6267 -2.2466,0.5733 -4.688,0.9867 -7.9133,1.3333 -2.6507,0.2934 -5.1827,0.44 -7.732,0.44"
       style="fill:#362421;fill-opacity:1;fill-rule:nonzero;stroke:none;stroke-width:0.133333" />
    <path
       id="path302"
       d="m 966.28798,2539.8667 c -0.67334,0 -1.356,-0.1467 -1.99734,-0.48 -1.56,-0.7867 -2.964,-1.6267 -4.32133,-2.44 -0.73867,-0.44 -1.46933,-0.88 -2.20267,-1.28 -1.59066,-0.8934 -3,-1.84 -4.36266,-2.7467 -0.66534,-0.4533 -1.324,-0.8933 -1.98667,-1.32 -0.53067,-0.3333 -1.41067,-0.6 -2.34267,-0.88 -1.504,-0.4667 -3.208,-0.9867 -4.792,-2.1467 -1.51333,-1.0933 -2.70933,-2.36 -3.76533,-3.48 -0.64667,-0.6933 -1.25867,-1.3333 -1.83467,-1.8266 -0.62266,-0.5334 -1.42666,-1.04 -2.27866,-1.5734 -1.29467,-0.8133 -2.76134,-1.7333 -4.03467,-3.0266 -1.464,-1.4934 -2.35733,-3.24 -3.076,-4.6267 -0.41467,-0.8 -0.80533,-1.56 -1.18,-2.04 -0.45467,-0.5733 -1.13467,-1.1733 -1.85333,-1.8133 -1.20134,-1.0667 -2.56134,-2.28 -3.596,-3.96 -1.05067,-1.6934 -1.67867,-3.4534 -2.23334,-5 -0.27866,-0.7867 -0.552,-1.5734 -0.88933,-2.2934 -1.10133,-2.3866 -2.068,-4.84 -2.872,-7.3066 -0.23467,-0.72 -0.62533,-1.5334 -1.04,-2.4 -0.69067,-1.4267 -1.472,-3.0534 -1.87467,-4.9467 -0.45066,-2.1067 -0.0947,-4.08 0.19067,-5.68 0.15467,-0.8533 0.31467,-1.7333 0.25467,-2.2133 -0.10534,-0.8534 -0.24534,-1.7067 -0.384,-2.5467 -0.26,-1.5867 -0.528,-3.2133 -0.628,-4.9867 -0.12134,-2.1066 -0.14267,-4.2266 -0.16134,-6.2666 l -0.0133,-1.24 c -0.007,-0.72 -0.20667,-1.6534 -0.41733,-2.6267 -0.30534,-1.4267 -0.652,-3.04 -0.62134,-4.84 0.036,-2.2667 0.78534,-4.2267 1.38667,-5.7867 0.32667,-0.8533 0.636,-1.6666 0.71067,-2.2133 0.088,-0.64 -0.0293,-1.5733 -0.152,-2.56 -0.21734,-1.7333 -0.46267,-3.6933 0.10266,-5.8 0.572,-2.12 1.448,-4.0133 2.22,-5.68 0.31334,-0.68 0.62134,-1.3467 0.89334,-2 0.82933,-2 1.94666,-3.64 2.932,-5.0933 0.45333,-0.6667 0.89866,-1.3067 1.28266,-1.9734 0.444,-0.7733 0.81867,-1.68 1.21334,-2.6533 0.624,-1.52 1.328,-3.24 2.496,-4.76 1.83466,-2.3867 3.71466,-4.56 5.436,-6.28 2.53866,-2.5333 4.088,-3.1333 5.71066,-3.6267 0.564,-0.1733 0.904,-0.2666 1.67734,-0.7733 2.05066,-1.3467 4.808,-0.7733 6.15333,1.28 1.34533,2.0533 0.772,4.8 -1.28133,6.1467 -1.852,1.2133 -3.14134,1.6 -3.99334,1.8666 -0.58533,0.1734 -0.82533,0.24 -1.98933,1.4 -1.45067,1.4534 -3.06267,3.32 -4.66267,5.4 -0.44266,0.5734 -0.868,1.6134 -1.32,2.72 -0.468,1.1467 -0.99866,2.44 -1.74666,3.7334 -0.48934,0.84 -1.04934,1.6666 -1.62534,2.52 -0.81733,1.2 -1.59066,2.3333 -2.072,3.5066 -0.31733,0.76 -0.67333,1.5334 -1.036,2.32 -0.684,1.4667 -1.32933,2.8667 -1.704,4.2534 -0.11333,0.4266 0.024,1.52 0.13334,2.3866 0.18,1.44 0.38533,3.0667 0.14,4.8667 -0.21467,1.5733 -0.748,2.96 -1.21867,4.1867 -0.40533,1.0666 -0.788,2.0533 -0.8,2.76 -0.012,0.7733 0.2,1.7733 0.42667,2.8266 0.27866,1.3067 0.596,2.7867 0.61466,4.3867 l 0.0133,1.2667 c 0.0173,2.0266 0.036,3.9466 0.14533,5.84 0.0747,1.2933 0.29333,2.64 0.52533,4.0533 0.15867,0.96 0.316,1.92 0.43467,2.8933 0.22667,1.8134 -0.08,3.52 -0.328,4.8934 -0.14667,0.8133 -0.332,1.84 -0.244,2.24 0.17867,0.84 0.66933,1.8666 1.19067,2.9466 0.49733,1.04 1.06266,2.2134 1.48,3.4934 0.69733,2.1333 1.53466,4.2666 2.48933,6.3333 0.47733,1.0267 0.84133,2.0533 1.19333,3.04 0.44534,1.24 0.86534,2.4133 1.41867,3.32 0.35467,0.56 1.12933,1.2533 1.95067,1.9867 0.924,0.8266 1.972,1.76 2.90533,2.9333 0.91467,1.16 1.55333,2.4 2.11733,3.4933 0.51467,0.9867 1,1.9334 1.524,2.4667 0.53734,0.5467 1.44667,1.12 2.40934,1.7333 1.03333,0.64 2.20266,1.3734 3.31866,2.32 0.94534,0.8134 1.75334,1.6667 2.53467,2.4934 0.86533,0.92 1.68533,1.7866 2.53333,2.4 0.38267,0.28 1.33067,0.5733 2.168,0.8266 1.31734,0.4134 2.956,0.9067 4.49734,1.8934 0.72266,0.4533 1.44,0.9333 2.16533,1.4133 1.27733,0.8667 2.484,1.6667 3.77333,2.3867 0.80534,0.4533 1.60667,0.9333 2.416,1.4133 1.27734,0.7733 2.48534,1.4933 3.75867,2.1333 2.19067,1.1067 3.07067,3.7734 1.96667,5.9734 -0.78134,1.5466 -2.34667,2.44 -3.972,2.44"
       style="fill:#362421;fill-opacity:1;fill-rule:nonzero;stroke:none;stroke-width:0.133333" />
    <path
       id="path303"
       d="m 1256.9986,2515 c -1.9613,0 -3.756,-1.3067 -4.2893,-3.2933 -0.348,-1.2934 -0.5667,-2.56 -0.776,-3.7734 -0.2333,-1.3466 -0.4547,-2.6133 -0.8187,-3.68 -0.2253,-0.6533 -0.8653,-1.5066 -1.5426,-2.4133 -0.8814,-1.1733 -1.8814,-2.5067 -2.5614,-4.1467 l -0.824,-2.04 c -0.704,-1.7466 -1.3666,-3.4 -2.1093,-4.96 -0.7653,-1.6 -1.14,-3.2133 -1.4693,-4.6266 -0.2547,-1.0934 -0.4947,-2.1334 -0.8374,-2.7734 -0.388,-0.72 -1.1626,-1.52 -1.9826,-2.36 -0.992,-1.0133 -2.116,-2.16 -2.9827,-3.6133 -0.988,-1.6667 -1.4973,-3.3467 -1.9467,-4.8133 -0.2906,-0.96 -0.5933,-1.96 -0.9093,-2.44 -0.8147,-1.24 -1.7693,-2.3867 -2.692,-3.48 -0.752,-0.9067 -1.4547,-1.7467 -2.0467,-2.5734 -1.2266,-1.7066 -1.6426,-2.0266 -2.2186,-2.48 -0.6867,-0.52 -1.6254,-1.2533 -3.0347,-2.9333 -1.572,-1.8933 -1.3187,-4.6933 0.5667,-6.2667 1.8826,-1.5733 4.688,-1.32 6.26,0.5734 0.784,0.9333 1.1426,1.2133 1.6373,1.5866 1.1467,0.8934 2.172,1.7734 4.0107,4.3334 0.472,0.6533 1.0386,1.3333 1.6386,2.04 1.0387,1.24 2.216,2.6533 3.32,4.3466 1.0094,1.5334 1.5214,3.2134 1.972,4.7067 0.332,1.08 0.6454,2.12 1.084,2.8533 0.324,0.5467 0.9934,1.2267 1.7014,1.96 1.16,1.1867 2.476,2.5334 3.4586,4.36 0.8974,1.68 1.3014,3.4267 1.66,4.96 0.2494,1.0667 0.4854,2.08 0.8374,2.8267 0.86,1.8 1.6066,3.6667 2.3293,5.4533 l 0.7973,1.9734 c 0.248,0.6 0.8307,1.3733 1.4494,2.2 1.012,1.3466 2.16,2.88 2.8426,4.8666 0.5934,1.7334 0.8867,3.4134 1.1694,5.0534 0.184,1.0533 0.3586,2.0666 0.6013,2.9733 0.6373,2.36 -0.768,4.8 -3.1373,5.44 -0.3867,0.1067 -0.776,0.16 -1.1574,0.16"
       style="fill:#362421;fill-opacity:1;fill-rule:nonzero;stroke:none;stroke-width:0.133333" />
    <path
       id="path304"
       d="m 1246.152,2550.4533 c -1.1494,0 -2.2974,-0.44 -3.1654,-1.32 -1.972,-2 -2.556,-3.72 -2.94,-4.8533 -0.2546,-0.7333 -0.3133,-0.92 -0.8573,-1.4667 -0.9213,-0.9333 -1.396,-1.24 -2.0533,-1.68 -0.8654,-0.56 -1.94,-1.2533 -3.536,-2.88 -1.1507,-1.1733 -1.764,-1.7066 -2.38,-2.2533 -0.6827,-0.6 -1.456,-1.2933 -2.816,-2.6667 -1.14,-1.16 -1.708,-1.6533 -2.3654,-2.2266 -0.6933,-0.6 -1.48,-1.2934 -2.8506,-2.68 -1.328,-1.3467 -1.96,-2.0534 -2.5934,-2.76 -0.5626,-0.6267 -1.1266,-1.2534 -2.3106,-2.4534 -1.7227,-1.7466 -1.7014,-4.56 0.048,-6.2933 1.748,-1.72 4.5626,-1.6933 6.2853,0.053 1.3253,1.3467 1.9587,2.0534 2.5907,2.76 0.564,0.6267 1.128,1.2534 2.312,2.4534 1.1333,1.1466 1.7,1.64 2.356,2.2133 0.6946,0.6133 1.4826,1.2933 2.86,2.6933 1.144,1.16 1.7586,1.7067 2.372,2.24 0.7173,0.64 1.46,1.2934 2.8266,2.68 0.9187,0.9334 1.3947,1.2534 2.052,1.68 0.8654,0.56 1.9414,1.2667 3.536,2.88 1.9707,2 2.5534,3.72 2.9387,4.8534 0.2533,0.7466 0.3133,0.92 0.856,1.4666 1.7227,1.7467 1.7027,4.56 -0.047,6.28 -0.8653,0.8534 -1.992,1.28 -3.1186,1.28"
       style="fill:#362421;fill-opacity:1;fill-rule:nonzero;stroke:none;stroke-width:0.133333" />
    <path
       id="path305"
       d="m 1256.344,2519.64 c -1.5414,0 -3.04,-0.8133 -3.8614,-2.24 -1.2186,-2.1333 -0.48,-4.8533 1.6507,-6.0667 1.5867,-0.9066 3.1827,-1.3333 4.592,-1.7066 0.88,-0.2267 1.8773,-0.4934 2.2707,-0.7734 l 0.428,-0.2933 c 1.948,-1.3467 3.7893,-2.6267 5.3173,-3.9333 0.9533,-0.8267 1.8227,-1.9067 2.7427,-3.04 0.64,-0.8 1.2693,-1.5734 1.9253,-2.28 1.252,-1.36 2.3,-2.88 3.4093,-4.48 l 0.7494,-1.08 c 0.6666,-0.9467 1.1613,-2.1467 1.6853,-3.4267 0.388,-0.9467 0.776,-1.88 1.2253,-2.7733 0.668,-1.32 1.4814,-2.4267 2.1974,-3.4134 0.6693,-0.92 1.3013,-1.7866 1.5146,-2.4266 0.2627,-0.8 0.272,-1.92 0.284,-3.12 0.011,-1.16 0.023,-2.4534 0.2574,-3.8 0.2786,-1.5867 0.816,-2.9734 1.2893,-4.1867 0.3733,-0.96 0.76,-1.96 0.7787,-2.52 0.045,-1.32 -0.1774,-2.7067 -0.412,-4.2 -0.1507,-0.9467 -0.2947,-1.8667 -0.38,-2.76 -0.1334,-1.3733 -0.5374,-2.7067 -0.9667,-4.1067 -0.2787,-0.92 -0.54,-1.7866 -0.728,-2.6266 -0.2413,-1.0667 -0.548,-1.5334 -0.9733,-2.1734 -1.2187,-1.84 -2.372,-4.12 -0.6187,-8.0266 0.996,-2.2134 3.5813,-3.2134 5.8067,-2.2667 2.1826,0.9333 3.784,2.48 5.196,3.8533 0.4173,0.4 0.832,0.8 1.2573,1.1734 0.4147,0.36 1.0373,0.7466 1.696,1.16 1.3133,0.8133 2.9493,1.84 4.236,3.4533 0.736,0.9333 1.3693,1.88 1.936,2.8 0.049,-1.1067 0.108,-2.24 0.288,-3.44 0.232,-1.5333 0.684,-2.92 1.0813,-4.1333 0.3467,-1.0534 0.6734,-2.0534 0.7294,-2.8 0.1506,-2.0667 0.1213,-4.1867 0.092,-6.2267 l -0.012,-0.8533 c -0.016,-1.3867 0.1226,-2.7067 0.2466,-3.8667 0.128,-1.2133 0.2507,-2.3733 0.156,-3.2533 -0.1773,-1.6534 -0.572,-3.4134 -0.9533,-5.1067 -0.14,-0.6267 -0.2787,-1.24 -0.4067,-1.84 -0.188,-0.8933 -0.6986,-1.9333 -1.2386,-3.04 -0.5067,-1.0267 -1.08,-2.1867 -1.496,-3.4667 -0.816,-2.5066 -1.5387,-4.5733 -2.4094,-6.5066 -0.4253,-0.9334 -0.7986,-1.8934 -1.1666,-2.8534 -0.5107,-1.32 -0.9934,-2.56 -1.58,-3.56 -0.5454,-0.92 -1.0347,-1.88 -1.52,-2.8266 -0.6387,-1.2534 -1.2414,-2.44 -1.9107,-3.3467 -0.7707,-1.04 -1.7733,-2.0267 -2.8347,-3.08 -0.6946,-0.6933 -1.3813,-1.3733 -2.02,-2.08 -0.5786,-0.6267 -1.5106,-1.24 -2.4973,-1.88 -1.008,-0.6533 -2.1493,-1.4 -3.2,-2.3467 -1.0973,-1 -2.3093,-1.88 -3.5893,-2.8 -0.6694,-0.48 -1.332,-0.96 -1.9787,-1.4533 -1.2667,-0.9733 -2.2627,-2.0533 -3.1413,-3 -0.7347,-0.8 -1.428,-1.56 -2.0134,-1.9333 -0.9706,-0.6267 -2.1186,-1.0934 -3.3346,-1.6 -1.02,-0.4134 -2.076,-0.8534 -3.116,-1.4134 -2.328,-1.2533 -4.4507,-2.3066 -6.3134,-3.1333 -1.0066,-0.4533 -1.608,-0.5067 -2.3053,-0.5733 -2.5333,-0.24 -5.0653,-1.0534 -6.4293,-5.4267 -0.7174,-2.2933 0.5253,-4.7467 2.8026,-5.5333 2.1214,-0.72 4.0214,-0.7334 5.548,-0.7467 0.62,-0.013 1.2547,-0.013 1.9307,-0.08 2.3347,-0.24 4.4533,-0.093 6.504,0.053 l 1.12,0.067 c 2.5053,0.16 4.9253,0.4533 7.4,0.92 l 1.5613,0.28 c 0.5454,0.093 1.0827,0.2 1.6094,0.2933 -0.5027,-0.7066 -1.0574,-1.4266 -1.6707,-2.16 -0.5133,-0.6133 -1.404,-1.2933 -2.3453,-2.0133 -0.8107,-0.6267 -1.7294,-1.32 -2.6347,-2.1467 -1.1907,-1.0933 -1.968,-2.36 -2.656,-3.48 -0.4707,-0.7733 -1.004,-1.64 -1.388,-1.9066 -1.1293,-0.7734 -2.6,-1.5067 -4.1587,-2.2667 -0.5626,-0.28 -1.1293,-0.5467 -1.692,-0.84 -0.8266,-0.4133 -1.9893,-0.7333 -3.22,-1.0667 -1.02,-0.28 -2.0546,-0.5733 -3.0693,-0.9333 -1.864,-0.6533 -4.0373,-1.4 -6.292,-1.92 -0.6213,-0.1333 -1.5973,-0.08 -2.6307,-0.027 -1.1973,0.053 -2.5586,0.1334 -4.0346,-0.04 -2.548,-0.2933 -4.5774,-0.44 -6.58,-0.48 -1.868,-0.04 -3.5507,-0.5333 -4.9027,-0.9333 -0.8787,-0.2533 -1.88,-0.56 -2.336,-0.52 -1.1347,0.08 -2.3733,0.44 -3.684,0.8133 -1.064,0.3067 -2.1613,0.6267 -3.3333,0.84 -1.092,0.1867 -2.1827,0.32 -3.2534,0.4534 -1.4133,0.16 -2.748,0.32 -3.7853,0.64 l -0.9587,0.2933 c -2.1213,0.6533 -4.124,1.2667 -5.7493,2.0133 -1.2693,0.5867 -2.4787,1.4667 -3.7613,2.4 -0.716,0.52 -1.4147,1.0267 -2.112,1.4934 -1.1214,0.7333 -2.108,1.7466 -3.152,2.8266 -0.6467,0.6667 -1.276,1.3067 -1.9187,1.88 -2.124,1.9334 -3.6507,3.7734 -4.612,4.9867 -0.6,0.76 -0.7213,1.3333 -0.9053,2.2133 -0.3294,1.56 -1.204,5.7067 -6.8134,5.96 -1.6453,0.067 -3.2053,-0.7733 -4.0386,-2.2 -1.9507,-3.3466 -2.8694,-7.2133 -3.392,-9.84 -0.1547,-0.7733 -0.3494,-1.56 -0.5414,-2.3333 -0.552,-2.24 -1.1786,-4.7733 -1.0253,-7.3867 0.16,-2.7333 1.0293,-5.12 1.7293,-7.04 0.2654,-0.7333 0.516,-1.4266 0.6787,-2 -1.9333,0.7734 -3.5413,1.6667 -4.7853,2.64 l -1.096,0.8534 c -1.3374,1.0266 -2.7187,2.08 -3.4507,3.0933 -0.5587,0.76 -0.9907,1.9733 -1.4467,3.2667 -0.308,0.8533 -0.6146,1.7066 -0.9653,2.5066 -0.3253,0.7334 -0.4547,1.8267 -0.592,2.9734 -0.12,1 -0.256,2.1333 -0.5533,3.28 -0.22,0.8533 -0.4574,1.6666 -0.688,2.4666 -0.42,1.4534 -0.7827,2.7067 -0.916,3.7467 l -0.2374,1.8267 c -0.2533,1.92 -0.2533,1.92 -0.1773,4.44 0.073,2.4533 -1.8573,4.5066 -4.3093,4.5866 -2.4294,0.093 -4.5027,-1.8666 -4.576,-4.32 -0.093,-3.0933 -0.081,-3.3733 0.252,-5.88 l 0.2306,-1.7733 c 0.2187,-1.7333 0.716,-3.44 1.196,-5.1067 0.208,-0.7066 0.4227,-1.4533 0.62,-2.2133 0.148,-0.5733 0.2374,-1.32 0.3334,-2.12 0.1893,-1.5733 0.424,-3.5333 1.28,-5.48 0.2666,-0.6133 0.4946,-1.2667 0.7293,-1.92 0.6173,-1.7333 1.316,-3.7067 2.6293,-5.5067 1.488,-2.0533 3.476,-3.5733 5.2294,-4.92 l 1.0013,-0.7733 c 2.008,-1.5867 4.496,-2.96 7.396,-4.08 2.936,-1.1333 6.2973,-0.48 8.7693,1.7067 2.5214,2.2266 3.5934,5.56 2.7987,8.68 -0.2653,1.0533 -0.6373,2.0666 -0.9987,3.0666 -0.552,1.52 -1.124,3.08 -1.208,4.52 -0.073,1.2667 0.3427,2.9467 0.7814,4.7334 0.1853,0.7466 0.3706,1.5066 0.5333,2.2666 1.688,-2.0933 3.344,-3.8533 5.1747,-5.5066 0.5093,-0.4534 1,-0.9734 1.508,-1.4934 1.272,-1.3066 2.7133,-2.7866 4.6533,-4.0666 0.58,-0.3734 1.1573,-0.8 1.752,-1.2267 1.4987,-1.0933 3.1987,-2.3333 5.2613,-3.2933 2.1787,-1.0134 4.572,-1.7334 6.8854,-2.4534 l 0.94,-0.28 c 1.8106,-0.56 3.6173,-0.7733 5.364,-0.9733 0.8933,-0.1067 1.804,-0.2133 2.716,-0.3733 0.7253,-0.1334 1.564,-0.3734 2.452,-0.6267 1.6133,-0.4667 3.44,-1 5.4973,-1.1467 2.0587,-0.1466 3.8867,0.3867 5.492,0.8667 0.972,0.28 1.8907,0.5467 2.56,0.56 2.2947,0.053 4.5867,0.2133 7.428,0.5467 0.736,0.08 1.62,0.027 2.5573,-0.013 1.5174,-0.08 3.236,-0.1733 5.052,0.24 2.7307,0.6134 5.204,1.4667 7.308,2.2134 0.8,0.2933 1.6214,0.5066 2.4307,0.7333 1.6067,0.44 3.268,0.8933 4.9053,1.72 0.5267,0.2667 1.0547,0.52 1.5814,0.7867 1.78,0.8666 3.62,1.7733 5.2933,2.92 1.9333,1.3333 3.0347,3.1333 3.92,4.5866 0.36,0.5867 0.808,1.3067 1.068,1.5467 0.6653,0.6133 1.3667,1.1467 2.0413,1.6533 1.2894,0.9867 2.6227,2.0134 3.7734,3.3867 1.9506,2.3467 3.4053,4.5867 4.456,6.2667 1.5666,2.52 1.3413,5.9066 -0.56,8.4133 -1.812,2.3867 -4.7467,3.4133 -7.464,2.6267 -1.312,-0.3734 -2.9134,-0.6667 -4.7667,-1 l -1.04,-0.1867 c 0.6733,0.3333 1.36,0.7067 2.0453,1.1467 1.5454,1 2.7174,2.2666 3.7494,3.3866 0.6933,0.76 1.3493,1.4667 1.9946,1.96 0.5827,0.44 1.1814,0.88 1.784,1.3067 1.4267,1.0267 2.9014,2.0933 4.3707,3.4267 0.5187,0.48 1.268,0.96 2.0627,1.48 1.3466,0.88 2.8733,1.8666 4.22,3.3466 0.544,0.5867 1.1293,1.1734 1.7186,1.76 1.1894,1.1734 2.5374,2.52 3.704,4.08 1.1174,1.5067 1.9227,3.0934 2.7014,4.6267 0.4,0.7867 0.8,1.5733 1.248,2.3333 0.9613,1.6267 1.6,3.28 2.22,4.88 0.308,0.8 0.6173,1.6134 0.9733,2.4 1.0387,2.2934 1.856,4.6134 2.7627,7.4 0.22,0.68 0.6093,1.48 1.0213,2.3067 0.7227,1.48 1.5413,3.1467 1.9587,5.12 0.12,0.5733 0.2493,1.1467 0.38,1.72 0.4373,1.9467 0.8893,3.96 1.1213,6.12 0.1947,1.8267 0.01,3.5867 -0.1547,5.1333 -0.108,1.0134 -0.208,1.96 -0.1973,2.8134 l 0.011,0.84 c 0.032,2.24 0.064,4.56 -0.1147,7.0133 -0.1347,1.84 -0.6733,3.48 -1.148,4.92 -0.3187,0.9733 -0.6187,1.88 -0.74,2.6933 -0.1187,0.7867 -0.16,1.7067 -0.2027,2.68 -0.068,1.52 -0.144,3.24 -0.544,5.04 -0.6866,3.0934 -3.116,5.4267 -6.1893,5.9334 -3.068,0.52 -6.124,-0.9067 -7.7747,-3.6 -0.312,-0.52 -0.624,-1.0534 -0.944,-1.6134 -0.576,-0.9866 -1.168,-2.0133 -1.8146,-2.9333 0.1706,0.8 0.3146,1.6267 0.4,2.5067 0.068,0.72 0.1893,1.4666 0.3106,2.2266 0.2774,1.7467 0.592,3.72 0.5174,5.8934 -0.072,2.0666 -0.764,3.8533 -1.3774,5.4266 -0.356,0.92 -0.692,1.7867 -0.8186,2.5067 -0.1094,0.6267 -0.116,1.4533 -0.1254,2.3467 -0.015,1.6533 -0.033,3.72 -0.7333,5.8266 -0.652,1.9734 -1.7773,3.5067 -2.7707,4.88 -0.5693,0.7734 -1.1053,1.5067 -1.4493,2.1867 -0.344,0.68 -0.6333,1.4 -0.932,2.1333 -0.6547,1.5867 -1.396,3.4 -2.6347,5.16 l -0.7146,1.0267 c -1.176,1.7067 -2.5107,3.64 -4.1814,5.44 -0.5266,0.5733 -1.0293,1.2 -1.544,1.84 -1.0786,1.3467 -2.3013,2.8533 -3.8746,4.2133 -1.8734,1.6 -3.9907,3.0667 -6.0374,4.4934 l -0.4253,0.2933 c -1.6773,1.16 -3.476,1.64 -5.0627,2.0667 -0.9666,0.2533 -1.88,0.4933 -2.4546,0.8266 -0.696,0.3867 -1.4547,0.5867 -2.204,0.5867"
       style="fill:#362421;fill-opacity:1;fill-rule:nonzero;stroke:none;stroke-width:0.133333" />
    <path
       id="path306"
       d="m 1116.372,2252.2134 c -1.3334,0 -2.5667,-0.16 -3.5947,-0.3067 l -0.7293,-0.093 c -2.436,-0.3067 -4.1667,-2.52 -3.864,-4.96 0.3013,-2.4267 2.5186,-4.1467 4.956,-3.8667 l 0.8373,0.12 c 1.3693,0.1867 3.0747,0.4133 3.728,-0.053 1.204,-0.8667 2.5293,-2.68 3.464,-4.72 0.9827,-2.1467 1.3867,-4.0534 1.1373,-5.3734 -0.112,-0.6 -1.4506,-2.08 -2.336,-3.0666 -0.432,-0.48 -0.8706,-0.96 -1.3013,-1.4667 l -0.52,-0.6133 c -1.1973,-1.4134 -2.2307,-2.6267 -3.2253,-3.24 -1.896,-1.1734 -3.5627,-1.9467 -4.9534,-2.2934 -0.856,-0.2133 -1.9893,-0.093 -3.1906,0.053 -0.8547,0.093 -1.6774,0.1733 -2.452,0.1866 -0.7334,0.013 -1.0387,0.1334 -1.5414,0.3467 -3.0293,1.24 -5.4466,0.6133 -7.8373,-2.0267 -0.7973,-0.88 -1.2067,-2.0533 -1.1387,-3.2266 0.068,-1.1867 0.608,-2.3067 1.4987,-3.0934 1.1907,-1.04 1.6267,-1.92 2.708,-4.28 0.6987,-1.52 0.7947,-3.4133 0.9067,-5.6 l 0.021,-0.4133 c 0.045,-0.8667 0.1533,-1.76 0.2667,-2.64 0.164,-1.2933 0.3506,-2.7467 0.091,-3.3733 -0.4373,-1.04 -2.0773,-2.1867 -3.664,-3.2934 l -0.952,-0.6666 c -1.6066,-1.1467 -2.9946,-2.12 -4.6613,-2.36 -1.2507,-0.1734 -2.6507,0.1066 -4.136,0.4133 -0.6027,0.1333 -1.1933,0.2533 -1.7693,0.3467 -1.3827,0.2266 -2.616,0.9333 -4.0454,1.7333 -0.3586,0.2 -0.716,0.4 -1.076,0.6 -1.316,0.72 -2.6213,1.1467 -3.7733,1.52 -0.696,0.24 -1.748,0.5867 -2.0293,0.8 -0.1614,0.16 -0.22,0.4267 -0.3134,1.52 -0.368,4.32 -2.476,6.6533 -6.2666,6.96 -3.02,0.24 -4.592,-1.0933 -5.38,-2.24 -1.772,-2.6 -0.46,-5.3067 0.408,-7.1067 0.5746,-1.1866 1.2266,-2.5333 1.3146,-3.72 0.017,-0.3066 -0.18,-1.1733 -0.324,-1.8266 -0.3586,-1.6 -0.8066,-3.6 -0.564,-5.8934 0.1467,-1.3866 0.4227,-2.7733 0.6894,-4.1066 0.216,-1.0934 0.4453,-2.2267 0.6026,-3.4134 0.1147,-0.8533 0.156,-1.8533 0.1987,-2.8933 0.06,-1.4267 0.1267,-3.04 0.396,-4.72 0.284,-1.7733 0.9827,-3.3067 1.6,-4.6533 0.44,-0.96 0.856,-1.8667 0.9933,-2.6134 0.312,-1.6666 0.1774,-3.48 -0.4146,-5.5333 -0.3427,-1.1867 -1.1867,-2.2267 -2.9147,-3.56 -1.404,-1.08 -2.976,-1.7733 -4.804,-2.1067 -2.3547,-0.4266 -4.3013,-0.52 -6.1227,-0.2933 -1.1946,0.16 -2.5693,0.7067 -4.1626,1.3333 -0.6494,0.2534 -1.3107,0.52 -1.9867,0.7734 -0.8373,0.2933 -1.7093,0.56 -2.5947,0.8133 -1.392,0.4133 -2.708,0.7867 -3.7373,1.4 -0.5547,0.3333 -1.128,0.6667 -1.7093,0.9867 -1.5227,0.8666 -2.96,1.68 -4.1347,2.6666 -1.6773,1.4267 -3.376,3.3334 -4.836,5 -0.5373,0.6134 -1.116,1.2267 -1.7027,1.8534 -1.1133,1.1733 -2.164,2.2933 -2.928,3.4533 -0.4213,0.64 -0.732,1.6667 -1.0626,2.76 -0.332,1.0933 -0.7094,2.3333 -1.3067,3.5467 -1.0307,2.08 -1.832,4.2533 -2.4813,6.0933 -0.3667,1.04 -0.5574,2.2667 -0.7587,3.56 -0.152,0.9733 -0.308,1.9467 -0.5267,2.9067 -0.5506,2.4133 -0.86,4.7333 -1.068,6.4933 -0.1386,1.16 -0.3533,2.2267 -0.56,3.2667 -0.2413,1.2133 -0.4706,2.3466 -0.4906,3.32 v 0.2 c -0.047,2.32 -0.092,4.5066 0.048,6.52 0.1146,1.6666 0.3933,3.3066 0.6626,4.9066 0.1,0.6 0.1987,1.1867 0.288,1.76 l 0.2467,1.6267 c 0.2933,1.9467 0.5467,3.64 0.8813,5.0133 0.452,1.88 0.6227,2.9067 0.748,3.6534 0.1467,0.8933 0.192,1.16 0.8,2.72 0.8854,2.2933 -0.252,4.8666 -2.5413,5.76 -2.2893,0.88 -4.864,-0.2534 -5.7493,-2.5467 -0.8934,-2.3067 -1.06,-3.16 -1.2774,-4.48 -0.1053,-0.6267 -0.244,-1.4533 -0.6186,-3.0133 -0.428,-1.76 -0.7214,-3.72 -1.032,-5.7867 l -0.2427,-1.5867 c -0.083,-0.5333 -0.1747,-1.08 -0.2693,-1.64 -0.2894,-1.72 -0.6187,-3.68 -0.764,-5.7733 -0.1667,-2.4 -0.1187,-4.7867 -0.067,-7.32 v -0.2 c 0.036,-1.76 0.3533,-3.3467 0.6613,-4.88 0.1694,-0.84 0.344,-1.6933 0.448,-2.5733 0.2347,-1.9734 0.5867,-4.6 1.2307,-7.4134 0.172,-0.76 0.2893,-1.5333 0.4093,-2.3066 0.2427,-1.56 0.5174,-3.32 1.1574,-5.1467 0.736,-2.08 1.656,-4.56 2.8933,-7.0667 0.276,-0.56 0.5187,-1.36 0.7733,-2.2 0.4747,-1.56 1.0134,-3.3333 2.1307,-5.04 1.1973,-1.8266 2.636,-3.3466 3.9053,-4.6933 0.5054,-0.5333 1.004,-1.0533 1.4667,-1.5867 1.672,-1.92 3.636,-4.12 5.7853,-5.9333 1.8174,-1.5467 3.7787,-2.6533 5.508,-3.6267 0.5214,-0.2933 1.0347,-0.5866 1.532,-0.88 2.0014,-1.2 4.0174,-1.7866 5.7974,-2.3066 0.692,-0.2 1.376,-0.4 2.0293,-0.64 0.6013,-0.2134 1.1907,-0.4534 1.7693,-0.68 1.9707,-0.7734 4.0094,-1.5867 6.32,-1.88 2.752,-0.3467 5.5614,-0.2267 8.8347,0.36 3.2573,0.6 6.084,1.8533 8.64,3.8266 2.2053,1.6934 4.884,4.16 6.024,8.12 0.9827,3.4134 1.1827,6.56 0.612,9.6267 -0.3373,1.8133 -1.0347,3.3467 -1.648,4.68 -0.4187,0.92 -0.8133,1.7867 -0.9067,2.3733 -0.1866,1.16 -0.2373,2.3734 -0.292,3.6667 -0.049,1.2133 -0.1013,2.4533 -0.2693,3.7067 -0.184,1.3733 -0.4427,2.6933 -0.696,3.9733 -0.2373,1.2 -0.4627,2.32 -0.5667,3.3067 -0.076,0.72 0.088,1.6133 0.2947,2.56 0.4187,-0.1467 0.832,-0.2934 1.2333,-0.4267 0.8747,-0.28 1.7027,-0.56 2.32,-0.8933 l 0.948,-0.5334 c 1.7907,-1 4.0187,-2.2666 6.9414,-2.7466 0.4653,-0.08 0.9413,-0.1867 1.428,-0.28 1.9706,-0.4134 4.4213,-0.9334 7.2186,-0.52 3.7894,0.5466 6.5307,2.4933 8.5334,3.9066 l 0.8986,0.64 c 2.3787,1.6534 5.3414,3.72 6.7747,7.1467 1.18,2.8133 0.8187,5.6533 0.528,7.92 -0.085,0.6667 -0.1733,1.3333 -0.2067,1.9733 l -0.021,0.4134 c -0.1307,2.56 -0.2787,5.4533 -1.48,8.3466 1.6507,-0.1733 3.6347,-0.32 5.8067,0.2134 2.312,0.5866 4.756,1.68 7.472,3.36 2.1866,1.36 3.7826,3.2266 5.324,5.0533 l 0.5,0.5867 c 0.38,0.44 0.768,0.8666 1.1493,1.2933 1.824,2.0267 3.892,4.32 4.468,7.36 0.604,3.2 0,6.8 -1.788,10.72 -0.9293,2.04 -2.9933,5.8133 -6.3507,8.24 -2.1493,1.5467 -4.46,1.9467 -6.5306,1.9467"
       style="fill:#362421;fill-opacity:1;fill-rule:nonzero;stroke:none;stroke-width:0.133333" />
    <path
       id="path307"
       d="m 988.29464,2364.56 c 0,2.4533 -1.18533,4.2133 -2.79466,5.8133 -1.608,1.6134 -3.35734,3.4267 -5.812,3.4267 -2.45467,0 -4.23067,-1.7867 -5.84,-3.4 -1.608,-1.6 -3.65467,-3.3867 -3.65467,-5.84 0,-2.4533 1.41733,-4.8533 3.02667,-6.4667 1.608,-1.6 4.01333,-1.6266 6.468,-1.6266 2.45466,0 4.36,0.52 5.968,2.1333 1.60933,1.6 2.63866,3.5067 2.63866,5.96"
       style="fill:#362421;fill-opacity:1;fill-rule:nonzero;stroke:none;stroke-width:0.133333" />
    <path
       id="path308"
       d="m 1055.3093,2364.56 c 0,2.4533 -0.952,4.2133 -2.5613,5.8133 -1.608,1.6134 -3.3587,3.84 -5.8134,3.84 -2.4546,0 -5.1733,-1.2533 -6.7813,-2.8666 -1.6093,-1.6134 -2.2813,-4.3334 -2.2813,-6.7867 0,-2.4533 1.0093,-4.8267 2.6173,-6.44 1.6093,-1.6133 3.9907,-2.1733 6.4453,-2.1733 2.4547,0 4.316,1.08 5.924,2.6933 1.6094,1.6133 2.4507,3.4667 2.4507,5.92"
       style="fill:#362421;fill-opacity:1;fill-rule:nonzero;stroke:none;stroke-width:0.133333" />
    <path
       id="path309"
       d="m 1022.776,2393.5467 c 0,2.1866 -1.4214,4.5066 -2.7174,6.8666 -1.1933,2.16 -2.1226,4.7867 -3.876,6.3867 -2.1093,1.92 -4.804,2.8 -6.8906,2.8 -2.088,0 -4.9054,-0.7467 -7.016,-2.6667 -1.752,-1.6 -3.17336,-4.0133 -4.36669,-6.1866 -1.29733,-2.3467 -1.57467,-5.0134 -1.57467,-7.2 0,-2.1867 0.412,-4.7734 1.708,-7.12 1.19334,-2.1734 3.45336,-3.6 5.20666,-5.2 2.1093,-1.92 3.9547,-3.1734 6.0427,-3.1734 2.088,0 5.0106,0.067 7.12,2 1.752,1.5867 3.2213,4.04 4.416,6.2134 1.296,2.3466 1.948,5.0933 1.948,7.28"
       style="fill:#f79527;fill-opacity:1;fill-rule:nonzero;stroke:none;stroke-width:0.133333" />
    <path
       id="path310"
       d="m 1009.2906,2382.4933 c -0.38,0 -1.2173,0.36 -3.048,2.0267 -0.5213,0.4667 -1.0813,0.9333 -1.6506,1.4 -1.128,0.9333 -2.192,1.8 -2.6574,2.6533 -0.9546,1.7334 -1.156,3.6667 -1.156,4.9734 0,2.16 0.3347,3.8133 1.0214,5.0533 1.0853,1.9733 2.2546,3.9467 3.4693,5.0533 1.1413,1.04 2.8427,1.5067 4.0213,1.5067 1.0454,0 2.656,-0.5067 3.9,-1.64 0.6547,-0.6 1.312,-1.9467 1.948,-3.24 0.3374,-0.6933 0.672,-1.3733 1.028,-2.0133 l 0.3867,-0.6934 c 0.7493,-1.36 1.7773,-3.2 1.7773,-4.0266 0,-1.5867 -0.5466,-3.6 -1.396,-5.1334 -0.964,-1.76 -2.236,-3.92 -3.5146,-5.08 -0.8467,-0.7733 -2.5747,-0.84 -4.1294,-0.84 z m 0,31.5467 c -3.6373,0 -7.3786,-1.4267 -10.00662,-3.8133 -2.17334,-1.9867 -3.816,-4.6934 -5.268,-7.3334 -1.43067,-2.6 -2.12534,-5.6533 -2.12534,-9.3466 0,-2.36 0.39067,-5.88 2.25734,-9.2667 1.28933,-2.3333 3.23466,-3.9333 4.8,-5.2267 0.44933,-0.36 0.89466,-0.7333 1.30802,-1.1066 2.3546,-2.1467 5.268,-4.3334 9.0346,-4.3334 2.1587,0 6.6507,0 10.112,3.1467 2.2347,2.0267 3.9427,4.8667 5.3174,7.36 1.5893,2.88 2.5,6.32 2.5,9.4267 0,3.1333 -1.5414,5.9066 -2.9014,8.3466 l -0.3666,0.6667 c -0.288,0.52 -0.5574,1.0667 -0.8307,1.6267 -0.956,1.9466 -2.0387,4.16 -3.9467,5.9066 -2.72,2.4667 -6.4146,3.9467 -9.884,3.9467"
       style="fill:#362421;fill-opacity:1;fill-rule:nonzero;stroke:none;stroke-width:0.133333" />
    <path
       id="path311"
       d="m 996.10798,2394.2667 c 4.36262,0 4.36262,-0.067 8.72402,-0.067 4.3653,0 4.3653,0.08 8.7293,0.08 4.3653,0 4.3653,0.1467 8.7293,0.1467"
       style="fill:#f79527;fill-opacity:1;fill-rule:nonzero;stroke:none;stroke-width:0.133333" />
    <path
       id="path312"
       d="m 1022.292,2398.8667 c -2.2534,0 -3.3814,-0.027 -4.508,-0.067 -1.0547,-0.04 -2.1107,-0.067 -4.2227,-0.067 -2.228,0 -3.3413,-0.027 -4.456,-0.04 -1.068,-0.027 -2.136,-0.053 -4.2733,-0.053 -2.148,0 -3.2227,0.013 -4.2974,0.04 -1.10529,0.013 -2.21329,0.027 -4.42662,0.027 -2.45467,0 -4.444,-1.9867 -4.444,-4.44 0,-2.4534 1.98933,-4.4534 4.444,-4.4534 2.14933,0 3.224,-0.013 4.29862,-0.027 1.1054,-0.013 2.212,-0.027 4.4254,-0.027 2.2266,0 3.3413,0.013 4.4546,0.04 1.0694,0.027 2.1374,0.04 4.2747,0.04 2.2533,0 3.38,0.04 4.5053,0.08 1.056,0.027 2.112,0.067 4.2254,0.067 2.4546,0 4.444,1.9866 4.444,4.44 0,2.4533 -1.9894,4.44 -4.444,4.44"
       style="fill:#362421;fill-opacity:1;fill-rule:nonzero;stroke:none;stroke-width:0.133333" />
    <path
       id="path313"
       d="m 1019.7533,2502.4 c -3.9813,0 -7.7733,-1.76 -10.968,-5.08 -0.7867,-0.8133 -1.34,-1.6667 -1.7307,-2.48 -0.3493,0.4933 -0.764,0.9867 -1.2613,1.4933 -2.392,2.3867 -5.4933,4.8134 -10.37999,4.5334 -3.09867,-0.1867 -6.71333,-0.68 -10.43467,-4.3334 -0.628,-0.6133 -1.264,-1.1733 -1.876,-1.7333 -1.65733,-1.4933 -3.36933,-3.0267 -4.53733,-4.9867 -2.15867,-3.6133 -2.65733,-7.3066 -2.95733,-9.52 -0.13067,-0.9866 -0.268,-1.7466 -0.38,-2.3733 -0.57867,-3.2533 -0.60667,-4.9467 1.47866,-8.6933 1.192,-2.1467 3.90134,-2.92 6.044,-1.72 2.14534,1.1866 2.916,3.8933 1.72134,6.04 -0.60534,1.0933 -0.69467,1.4133 -0.70667,1.4666 0,0.1334 0.11867,0.8134 0.21467,1.3467 0.12933,0.7333 0.28533,1.6133 0.43866,2.7467 0.24667,1.8266 0.55334,4.1066 1.776,6.1466 0.48,0.8 1.63334,1.84 2.85467,2.9467 0.70133,0.6267 1.428,1.28 2.14667,1.9867 1.57866,1.5466 2.768,1.68 4.73333,1.8 1.04667,0.053 1.74933,-0.1067 3.56933,-1.9334 0.50133,-0.5066 0.66796,-0.9466 0.96666,-1.84 0.536,-1.5733 1.98,-5.7466 7.9307,-5.4 2.8933,0.1734 6.384,1.5467 6.5746,7.08 0.037,1.08 0.083,1.12 0.2214,1.2667 1.0333,1.0667 2.6613,2.3467 4.5613,2.3467 0.8267,0 1.9613,-0.2534 3.4067,-2.2667 0.9453,-1.3067 0.9453,-1.3067 0.9306,-2.6933 -0.01,-0.7067 -0.013,-1.5467 0.036,-2.6134 0.112,-2.4533 2.1827,-4.3066 4.644,-4.2266 2.452,0.1066 4.348,2.1866 4.2347,4.64 -0.04,0.8666 -0.032,1.5333 -0.027,2.1066 0.031,2.92 -0.216,4.6534 -2.6,7.9734 -3.548,4.9333 -7.7373,5.9733 -10.6253,5.9733"
       style="fill:#c4b1b2;fill-opacity:1;fill-rule:nonzero;stroke:none;stroke-width:0.133333" />
    <path
       id="path314"
       d="m 979.64398,2393.5467 c 0,3.2933 -1.28934,5.7866 -3.44134,7.9466 -2.152,2.1467 -4.65466,4.7067 -7.94,4.7067 -3.284,0 -6.75466,-1.5867 -8.90666,-3.7467 -2.15334,-2.1466 -3.16267,-5.6133 -3.16267,-8.9066 0,-3.28 1.34667,-6.4134 3.49867,-8.5734 2.15333,-2.1466 5.28666,-3.0533 8.57066,-3.0533 3.28534,0 5.89734,1.4267 8.05067,3.5733 2.152,2.16 3.33067,4.7734 3.33067,8.0534"
       style="fill:#f7d083;fill-opacity:1;fill-rule:nonzero;stroke:none;stroke-width:0.133333" />
    <path
       id="path315"
       d="m 1070.708,2393.5467 c 0,3.2933 -1.48,5.32 -3.632,7.4666 -2.152,2.16 -4.1814,5.5334 -7.4667,5.5334 -3.284,0 -6.3093,-2.3867 -8.4613,-4.5334 -2.1534,-2.16 -4.2134,-5.1733 -4.2134,-8.4666 0,-3.28 1.768,-6.6 3.9214,-8.7467 2.152,-2.16 5.4693,-2.08 8.7533,-2.08 3.2853,0 5.58,0.9467 7.732,3.0933 2.1533,2.16 3.3667,4.4534 3.3667,7.7334"
       style="fill:#f7d083;fill-opacity:1;fill-rule:nonzero;stroke:none;stroke-width:0.133333" />
  </g>
</svg>
