<?xml version="1.0" encoding="UTF-8" standalone="no"?>
<!-- Created with Inkscape (http://www.inkscape.org/) -->

<svg
   version="1.1"
   id="svg1"
   width="429.37744"
   height="508.48486"
   viewBox="0 0 429.37743 508.48487"
   xmlns="http://www.w3.org/2000/svg"
   xmlns:svg="http://www.w3.org/2000/svg">
  <defs
     id="defs1" />
  <g
     id="g1"
     transform="translate(-2029.2542,-1374.9286)">
    <path
       id="path2"
       d="M 2666.6666,2962.96 H 0 V 7.4074e-5 H 2666.6666 V 2962.96"
       style="display:none;fill:#fef5e6;fill-opacity:1;fill-rule:nonzero;stroke:none;stroke-width:0.133333" />
    <path
       id="path227"
       d="m 2128.2533,1434.3467 c 0,0 -21.1867,1.76 -20.64,23.8667 l -4.1734,7.6666 -10.6,12.3067 -15.5466,13.92 -15.0534,10.2 c 0,0 -32.32,18.2133 -27.2133,48.7467 5.1067,30.5333 41.08,25.3733 41.08,25.3733 l 22.8,-7.7733 8.84,13.04 c 0,0 -2.56,9.7866 10.7067,25.7066 0,0 -8.8667,12.4 3.36,27.1067 l -2.5067,8.44 0.5467,7.3333 3.0933,6.9867 4.1467,4.64 3.8,2.6 -1.28,13.4267 1.28,3.7466 -2.4534,2.76 -2.88,3.52 -5.04,9.1867 -0.5066,6.9467 4.4,8.2533 -1.2934,1.72 -3.04,6.3333 -0.88,6.1867 0.6,5.1333 2.1467,5.56 2.84,4.0267 0.3733,2.4667 -2.0666,4.6933 -3.2134,7.16 -0.68,5.4 1.7067,8.52 12.4,17.92 10.8267,10.0133 0.1066,22.6134 4.3334,10.7466 4.0666,3.9067 v 11.2 l 2.84,6.0267 3.1734,5.9466 6.9333,1.8 5.5467,15.24 5.8133,5.3734 13.4,-1.04 11.8533,-1.28 11.1467,-1.5867 6.0667,-2.3467 8.3333,-5.9066 7.9067,9.2666 25.52,0.7467 h 16.7733 l 7.76,-1.2267 5.12,-3.5866 14.9467,-0.2534 6.1466,-4.56 c 0,0 28.2934,13.5467 49.9734,-9.1066 0,0 22.7733,4.1333 24.9333,-27.3067 0,0 14.6133,-8.7067 12.3867,-23.6667 0,0 10.76,-10.2 9.16,-23.1466 l 5.3866,-8.2134 v -4.7466 -5.4134 l -2.0933,-6.6933 5.4533,-4.8667 1.68,-3.4133 1.44,-6.1467 -2.6533,-6.1866 -3.8267,-8.5067 -2.8933,-5.32 1.5733,-5.24 1.32,-10.0533 -8.28,-10.04 -2.32,-5.6667 -6.9466,-11.08 -5.68,-8.6933 -5.56,-3.3067 -3.7067,-6.04 -2.3467,-13.2133 -8.8266,-7.5467 -11.8267,-4.7467 -2.7733,-11.5466 -0.6667,-7.5467 7.2667,-13.16 -1.0267,-16.6933 c 0,0 24.6267,6.4266 43.8533,3.4533 19.2267,-2.9733 40.2934,-3.2267 47.6134,-29.1067 7.32,-25.88 -23.5067,-31.4266 -23.5067,-31.4266 l -25.72,-18.8 -20.9067,-27.7334 -9.9333,-11.8533 -3.9733,-9.8 -8.4667,-10.9867 -3.8133,-12.52 -4.5734,-8.1333 -9.5333,-5.9333 h -9.0267 c 0,0 -2.8266,-20.8667 -26.28,-19.32 0,0 -3.6,-21.7734 -29.3733,-16.56 0,0 -4.04,-18.32 -29.84,-10.4134 0,0 -15.16,-9.52 -30.28,5.24 l -11.0133,-1.96 -17.7467,7.9734 -18.56,0.5733 -9.8533,7.6933 -3.6667,11.8267 -13.84,1.04 -6.3867,3.4267 -4.84,5.4 -3.1466,11.0133"
       style="fill:#faf3f1;fill-opacity:1;fill-rule:nonzero;stroke:none;stroke-width:0.133333" />
    <path
       id="path228"
       d="m 2096.7999,1519.0667 -21.9866,10.6667 -21.0667,10.1733 -12.2,8.5733 0.36,10.8134 5.1867,8.2533 4.2,5.56 6.36,2.1867 13.1733,1.4666 7.1867,-2 8.4933,-0.4666 6.4533,-4.2934 2.9334,-1.3466 v -4.9734 -4.3866 -6.4 l 2.9066,-4.9734 v -6.4933 -5.32 l -2,-17.04"
       style="fill:#f5b6b4;fill-opacity:1;fill-rule:nonzero;stroke:none;stroke-width:0.133333" />
    <path
       id="path229"
       d="m 2379.9733,1536.3334 16.04,8.92 7.9333,3.96 4,1.96 9.5067,4.4533 5.96,2.6267 7.5733,3.6666 6,3.56 1.7333,3.8667 0.2534,6.7067 -1.9867,6.44 -2.2,5.0133 -7.1733,3.1467 -10.9867,2.76 -11.7067,1.2933 -7.9333,0.16 -10.4133,-0.5733 -22.0534,-5.6267 3.8667,-6.9467 1.7067,-7.48 1.12,-8.64 -1.12,-4.76 2.1466,-4.8933 2.32,-5.4133 5.4134,-14.2"
       style="fill:#f5b6b4;fill-opacity:1;fill-rule:nonzero;stroke:none;stroke-width:0.133333" />
    <path
       id="path230"
       d="m 2222.4399,1562.0534 c 4.4134,-3.9467 10.1867,-5.84 15.92,-7.52 -0.4266,-7.2934 -6.8,-13.1067 -14.6266,-13.1067 -5.76,0 -10.72,3.1333 -13.12,7.6933 1.2933,1.48 2.76,2.8134 4.2266,4.1334 1.6267,1.48 3.0934,3.0266 4.4534,4.7466 1.08,1.3467 2.1333,2.6934 3.1466,4.0534"
       style="fill:#f5b6b4;fill-opacity:1;fill-rule:nonzero;stroke:none;stroke-width:0.133333" />
    <path
       id="path231"
       d="m 2221.7599,1868.5734 c -0.2133,-4.0934 -4.1466,-7.2 -8.7866,-6.96 -3.8534,0.2133 -6.9467,2.6933 -7.76,5.88 -1.16,-3.08 -4.4934,-5.2134 -8.3467,-5.0134 -3.8533,0.2134 -6.9467,2.6934 -7.76,5.88 -1.16,-3.08 -4.4933,-5.2133 -8.3467,-5.0133 -4.64,0.2533 -8.2266,3.7733 -8,7.8667 0.2134,4.0933 4.16,7.2 8.7867,6.96 0.1867,-0.013 0.3733,-0.053 0.5467,-0.08 v 0.013 l 14.64,-0.8267 c 0.3066,0.013 0.6133,0.04 0.92,0.027 0.3466,-0.027 0.6666,-0.08 1,-0.1333 h 0.12 l 14.5733,-0.7467 c 0.1467,0 0.28,0.013 0.4267,0.013 0.1066,-0.013 0.2133,-0.04 0.32,-0.053 l 0.3333,-0.013 v -0.027 c 4.3067,-0.5333 7.5467,-3.88 7.3333,-7.7733"
       style="fill:#f5b6b4;fill-opacity:1;fill-rule:nonzero;stroke:none;stroke-width:0.133333" />
    <path
       id="path232"
       d="m 2285.7066,1869.6934 c -0.027,-4.0934 -3.8267,-7.3867 -8.4667,-7.3467 -3.8666,0.027 -7.0666,2.36 -8.0133,5.5067 -1.0133,-3.12 -4.2533,-5.4134 -8.12,-5.3867 -3.8533,0.04 -7.0533,2.3733 -8.0133,5.52 -1.0134,-3.12 -4.2534,-5.4133 -8.12,-5.3867 -4.64,0.04 -8.3734,3.4 -8.3334,7.4934 0.027,4.0933 3.8134,7.3866 8.4667,7.3466 0.1867,0 0.36,-0.027 0.5467,-0.04 v 0.013 l 14.6533,-0.16 c 0.3067,0.027 0.6133,0.067 0.92,0.053 0.3467,0 0.6667,-0.04 1,-0.08 h 0.12 l 14.6,-0.08 c 0.1333,0.013 0.28,0.04 0.4133,0.027 0.12,0 0.2134,-0.027 0.3334,-0.027 h 0.3333 v -0.027 c 4.32,-0.3466 7.72,-3.5333 7.68,-7.4266"
       style="fill:#f5b6b4;fill-opacity:1;fill-rule:nonzero;stroke:none;stroke-width:0.133333" />
    <path
       id="path233"
       d="m 2349.7599,1864.5334 c 0.3734,-4.08 -3.08,-7.7334 -7.7066,-8.1467 -3.84,-0.3333 -7.2534,1.68 -8.52,4.7067 -0.6934,-3.2 -3.6934,-5.8 -7.5467,-6.1334 -3.32,-0.3066 -6.32,1.16 -7.88,3.52 -1.68,3.56 -3.92,6.8534 -6.1867,10.08 l 11.8267,1.0267 c 0.3067,0.053 0.6,0.12 0.92,0.1467 0.3333,0.027 0.6667,0.027 1,0.013 l 0.12,0.013 14.5333,1.3467 c 0.1334,0.013 0.2667,0.053 0.4134,0.067 0.1066,0.013 0.2133,-0.013 0.32,0 l 0.3333,0.027 v -0.027 c 4.3467,0.08 8.0267,-2.76 8.3733,-6.64"
       style="fill:#f5b6b4;fill-opacity:1;fill-rule:nonzero;stroke:none;stroke-width:0.133333" />
    <path
       id="path234"
       d="m 2165.1199,1559.2934 c 0,2.5733 -1.0266,4.8666 -1.96,7.1066 -0.96,2.3067 -2.32,4.2134 -4.0666,5.96 -1.7467,1.7467 -3.6534,3.0934 -5.9734,4.0534 -2.24,0.9333 -4.52,2.04 -7.0933,2.04 -2.56,0 -5.3067,-0.013 -7.5467,-0.9334 -2.3066,-0.96 -4.48,-2.7066 -6.2133,-4.4533 -1.7467,-1.7467 -2.72,-4.2267 -3.68,-6.5333 -0.9333,-2.24 -2.2,-4.6667 -2.2,-7.24 0,-2.56 2.0667,-4.6534 3,-6.8934 0.96,-2.3066 2.2,-4.0666 3.9333,-5.8 1.7467,-1.7466 3.12,-3.9066 5.44,-4.8666 2.2267,-0.92 4.7067,-1.3467 7.2667,-1.3467 2.5733,0 5.2533,-0.08 7.4933,0.84 2.3067,0.96 4.8134,2.28 6.56,4.0267 1.7467,1.7333 1.7867,4.7733 2.7467,7.0933 0.92,2.2267 2.2933,4.3867 2.2933,6.9467"
       style="fill:#f5b6b4;fill-opacity:1;fill-rule:nonzero;stroke:none;stroke-width:0.133333" />
    <path
       id="path235"
       d="m 2326.8666,1577.8534 c 0,2.56 -0.7333,5.0666 -1.6533,7.3066 -0.96,2.3067 -2.7334,4.1067 -4.48,5.8534 -1.7467,1.7466 -3.2534,4.1866 -5.5734,5.1466 -2.24,0.92 -5.0133,1.0534 -7.5866,1.0534 -2.56,0 -5.3067,-0.2267 -7.5467,-1.1467 -2.3067,-0.96 -3.44,-3.7333 -5.1867,-5.48 -1.7466,-1.7467 -3.5333,-3.28 -4.4933,-5.6 -0.92,-2.24 -1.4,-4.5733 -1.4,-7.1333 0,-2.5734 0.88,-4.7334 1.8,-6.9734 0.96,-2.32 1.5467,-4.8266 3.2933,-6.5733 1.7334,-1.7467 3.6,-3.8933 5.92,-4.8533 2.2267,-0.92 5.0534,-0.92 7.6134,-0.92 2.5733,0 5.12,0.6533 7.3466,1.5733 2.32,0.96 4.44,2.48 6.1867,4.2133 1.7333,1.7467 2.2667,4.28 3.2267,6.5867 0.92,2.24 2.5333,4.3733 2.5333,6.9467"
       style="fill:#f5b6b4;fill-opacity:1;fill-rule:nonzero;stroke:none;stroke-width:0.133333" />
    <path
       id="path236"
       d="m 2329.8266,1431.1334 c 0,0.013 0,0.013 0,0.013 z m 0,0.027 c 0,0.28 0.013,0.5467 0.053,0.7867 -0.04,-0.2533 -0.053,-0.52 -0.053,-0.7867 z m 22.6,206.9734 z M 2148.5199,1798.04 Z m 6.84,42.5067 z m 0.04,-0.12 c 0.1067,0.4133 0.6134,1.2933 0.9334,1.84 0.5333,0.92 1.1333,1.9467 1.5466,3.1467 0.4134,1.1733 0.6134,2.3466 0.7734,3.3733 0.1333,0.72 0.3066,1.8267 0.5066,2.12 1.0267,1.28 2.8,2.4933 4.4,3.5067 1.2534,0.7866 2.6667,1.32 4.8667,1.8266 1.3333,0.3067 2.4533,1.2134 3.0267,2.4667 1.3466,2.8933 1.2533,4.6667 1.0133,6.36 -0.093,0.68 -0.16,1.12 0.04,2.1733 0.2933,1.6134 0.8133,3.8934 1.84,5.08 0.7067,0.84 1.9067,1.8267 3.6267,1.8267 2.24,0 3.28,0.093 4.2933,0.2 0.9333,0.093 1.8133,0.1733 4.08,0.1733 0.8933,0 2.0267,-0.1733 3.2267,-0.3466 1.5466,-0.24 3.3066,-0.5067 5.1466,-0.5067 1.4534,0 2.8934,-0.04 4.3067,-0.08 4.2,-0.093 8.0667,0.053 10.5467,0.2667 0.68,0.053 1.24,0.12 1.6666,0.1333 0.4,-0.1867 1.2,-0.72 1.76,-1.08 0.8534,-0.5733 1.8267,-1.2133 2.9334,-1.7867 1.08,-0.56 2.1733,-0.9333 3.16,-1.2666 1.04,-0.3467 2.12,-0.72 2.6,-1.1334 1.8666,-1.6666 3.52,-3.5733 4.1066,-4.7333 0.84,-1.6667 2.6134,-2.64 4.48,-2.4267 1.8534,0.2134 3.3867,1.56 3.8134,3.3734 0.5866,2.4 0.2266,4 -0.16,5.3066 -0.013,0.067 -0.027,0.12 -0.053,0.1734 0.027,0.053 0.053,0.12 0.08,0.2133 l 0.28,0.6533 c 0.3734,0.9467 0.8134,2.0267 1.28,2.2267 0.8267,0.36 3.4134,0.36 4.8134,0.36 1.2666,0 2.56,0.027 3.88,0.053 1.2933,0.013 2.6133,0.04 3.9333,0.04 0.7867,0 1.8133,-0.2533 2.8933,-0.5066 1.4667,-0.36 3.1334,-0.76 4.9467,-0.76 2.08,0 3.9333,0.6266 5.4267,1.12 0.9333,0.3066 1.8933,0.6133 2.4133,0.6133 1.2,0 2.4133,-0.1333 3.7067,-0.28 2.7733,-0.3067 5.7866,-0.32 8.4533,-0.4933 1.28,-0.093 2.4533,-0.1734 3.5067,-0.1734 1.08,0 3.5866,0 4.7466,-0.44 0.067,-0.027 0.1334,-0.053 0.1867,-0.067 0,-0.013 0.013,-0.04 0.013,-0.053 0.4667,-1.04 1.44,-3.2 4.5867,-4.3733 3.2533,-1.2133 5.3333,-0.7733 7.1867,-0.2133 0.84,0.2533 1.2533,0.3866 2.4,0.2266 2.4266,-0.36 5.08,-0.76 6.8933,-1.6533 1.7467,-0.8667 3.28,-2.4533 3.72,-3.8533 0.5467,-1.7467 2.12,-2.9734 3.9467,-3.0934 1.84,-0.093 3.5466,0.9067 4.32,2.5734 0.64,1.4 0.8533,2.5733 0.9066,3.4533 0.4534,0.093 1.7467,0.08 2.8,0.067 l 1.5734,-0.013 c 2,0 3.68,0.36 5.0266,0.6667 0.6134,0.1333 1.3734,0.2933 1.68,0.2933 2.4267,0 3.1067,-0.08 3.6,-0.1333 0.8267,-0.093 1.4534,-0.1467 3.32,-0.053 1.36,0.067 2.1867,0.1733 2.88,0.2533 0.9334,0.12 1.32,0.1733 3.3734,-0.08 1.32,-0.1467 3,-0.7333 4.7733,-1.3333 l 1.08,-0.3734 c 1.0267,-0.3466 2.08,-1.2 3.3067,-2.2 0.36,-0.28 0.7066,-0.5733 1.08,-0.8533 0.7866,-0.6267 1.64,-1.12 2.3733,-1.5467 0.28,-0.16 0.64,-0.3733 0.96,-0.5733 -0.04,-0.2267 -0.08,-0.4533 -0.1067,-0.6933 -0.1333,-1.3467 0.36,-2.68 1.3334,-3.6267 0.9733,-0.9333 2.32,-1.3867 3.6666,-1.2133 1.64,0.2266 3.48,-0.04 5.7067,-0.4934 l 1.1067,-0.2133 c 1.6666,-0.32 3.1066,-0.6 4.16,-1.1867 1.08,-0.6133 2.04,-1.68 3.1466,-2.92 l 0.7734,-0.84 c 1.3066,-1.44 2.56,-2.8 3.2533,-4.32 0.9467,-2.0533 1.44,-3.6666 1.6267,-5.2133 0.053,-0.5067 0.12,-1 0.1866,-1.4933 0.2134,-1.5067 0.3867,-2.6934 0.16,-3.8 -0.4133,-2.0267 0.6267,-4.0667 2.52,-4.9334 l 0.24,-0.1066 c 1.8934,-0.8667 3.5467,-1.6 4.68,-2.6667 0.6934,-0.6533 1.3334,-1.9867 1.96,-3.28 0.3067,-0.64 0.6134,-1.28 0.9467,-1.8933 0.3467,-0.64 0.7467,-1.3067 1.16,-1.96 0.72,-1.1867 1.4667,-2.4 1.6133,-3.28 0.28,-1.6134 0.1067,-3.3467 -0.2533,-5.6267 -0.2667,-1.7467 0.52,-3.4933 2.0267,-4.4533 1.64,-1.04 2.96,-1.9734 4.0133,-3.2134 1.04,-1.2133 1.8667,-3.16 2.6133,-4.88 0.2267,-0.52 0.2267,-1.6133 0.24,-2.6533 0,-0.8267 0,-1.76 0.1067,-2.7333 0.2133,-2.12 0.1733,-3.6667 -0.12,-5.1734 -0.04,-0.1466 -0.1067,-0.68 -0.1067,-1.2266 v 0 c -0.1333,-1.4134 0.4,-2.8267 1.48,-3.7734 1.5734,-1.4 3.2,-2.84 4.0934,-4.48 1.1333,-2.08 2.0933,-3.9333 2.36,-5.7066 0.2533,-1.68 -0.027,-3.68 -0.5334,-6.1467 -0.1066,-0.5333 -0.6666,-1.6133 -1.08,-2.3867 -0.32,-0.6133 -0.6266,-1.2 -0.88,-1.7466 -0.7866,-1.7334 -0.3733,-3.8 1.04,-5.0934 0.4134,-0.3866 0.8534,-0.7866 1.3067,-1.1733 1.28,-1.1333 2.6133,-2.2933 3.16,-3.32 0.8933,-1.7067 1.8533,-3.72 2.1333,-5.68 0.2667,-1.84 -0.1333,-4.08 -0.52,-6.0267 -0.4266,-2.0933 -1.28,-4.08 -2.6,-6.0933 -1.0933,-1.6533 -3.1866,-3.24 -5.2933,-4.72 -1.2267,-0.8533 -1.9333,-2.2667 -1.8933,-3.76 0.04,-1.48 0.8133,-2.8533 2.08,-3.6533 1.5466,-0.96 2.7333,-2.1334 3.08,-2.7467 0.16,-0.2933 0.1333,-1.32 0.12,-2.16 -0.013,-0.3733 -0.013,-0.7467 -0.013,-1.12 0,-2.3067 -0.4133,-3.2933 -1.04,-4.0667 l -0.5733,-0.7066 c -0.96,-1.2134 -1.8667,-2.3467 -2.5867,-2.4934 -2.08,-0.44 -3.56,-2.28 -3.5333,-4.4 0,-0.2533 -0.08,-0.5333 -0.28,-1.2 -0.1867,-0.6133 -0.3733,-1.2533 -0.52,-1.9733 -0.4533,-2.24 -0.8933,-4.2 -1.72,-5.6 -0.8533,-1.4667 -2.32,-2.8 -4.0133,-4.2667 -1.32,-1.1333 -3.2667,-1.9333 -5.16,-2.7066 -1.8934,-0.7734 -3.0134,-2.7334 -2.72,-4.76 0.1333,-0.84 0.44,-1.5334 0.72,-2.0534 -0.2267,-1.36 -1.08,-2.8533 -2.4,-4.1733 -1.1067,-1.1067 -2.52,-1.8267 -3.9867,-2.04 -0.2933,0.08 -0.6,0.12 -0.9067,0.12 -1.4266,0.053 -2.8,-0.6 -3.68,-1.7333 -0.8666,-1.1334 -1.1333,-2.6267 -0.72,-4 0.72,-2.3467 0.72,-5.1867 0.013,-8.68 -0.28,-1.3467 -1.1467,-2.64 -2.16,-4.1334 -0.3067,-0.4666 -0.6267,-0.9333 -0.92,-1.4 l -0.2667,-0.4133 c -1.24,-1.9467 -2.2267,-3.4933 -3.6133,-4.5067 -1.7867,-1.3066 -3.6667,-2.2133 -5.7334,-2.7733 -0.56,-0.1467 -1.1066,-0.3067 -1.6666,-0.48 -1.7467,-0.52 -3.2534,-0.9733 -4.6,-0.8267 -1.84,0.2 -3.6,-0.76 -4.44,-2.4 -0.4534,-0.9066 -0.6934,-1.2533 -1.24,-1.8933 -1.12,-1.28 -1.4,-3.08 -0.7467,-4.64 0,-0.2267 -0.053,-0.64 -0.093,-0.96 -0.08,-0.6267 -0.1734,-1.4133 -0.1734,-2.28 0,-4.0933 -1.36,-5.1467 -1.8133,-5.4933 -1.8267,-1.4134 -2.2533,-4.0134 -0.9867,-5.9467 0.9734,-1.48 1.5067,-2.9467 1.6,-4.3733 l -0.013,-0.013 c -0.1867,-0.4666 -0.44,-1.12 -0.56,-1.9066 -0.2667,-1.7734 0.56,-3.52 2.08,-4.4534 2.08,-1.2666 4.1333,-2.6666 5.0533,-4.3066 1.28,-2.2534 1.9734,-4.56 1.9734,-6.48 0,-0.4534 -0.64,-1.5467 -1.1067,-2.3334 -0.44,-0.7333 -0.9333,-1.5733 -1.3333,-2.4933 -0.7067,-1.6133 -1.8,-3.1467 -3.0934,-4.3467 -1.32,-1.2266 -1.7733,-3.1466 -1.1333,-4.8266 0.64,-1.6934 2.24,-2.8267 4.0533,-2.88 0.32,-0.027 1.3467,-0.3467 1.8934,-0.52 0.5466,-0.16 1.0533,-0.32 1.48,-0.4267 0.8933,-0.2267 1.8266,-0.16 2.6933,0.1733 1.4533,0.5734 3.1467,1.0267 4.92,1.5067 l 1.6,0.4533 c 1.3867,0.3734 2.6133,0.9734 3.7067,1.4934 1,0.48 1.96,0.9333 2.7466,1.0933 0.9867,0.2 2.16,0.2533 3.4,0.32 1.1334,0.053 2.3067,0.1067 3.5334,0.28 0.92,0.12 2.0266,0.08 3.2,0.027 1.1333,-0.04 2.4266,-0.08 3.76,0.013 1.6133,0.12 3.04,0.5467 4.3066,0.92 0.9867,0.2933 1.92,0.5733 2.5867,0.5867 1.0133,0.013 2.04,0.08 3.0533,0.1333 1.4,0.08 2.72,0.1733 3.9334,0.1067 2.08,-0.093 4.24,-0.3334 6.32,-0.5734 l 0.6266,-0.067 c 0.8667,-0.093 1.7467,-0.1734 2.6134,-0.24 1.5466,-0.1334 2.9866,-0.2534 4.28,-0.5067 1.1866,-0.2267 2.4266,-0.68 3.7466,-1.16 0.9467,-0.3467 1.8667,-0.68 2.7867,-0.96 l 0.1867,-0.053 c 2.2533,-0.6667 4.3733,-1.3067 6.12,-2.1067 1.24,-0.56 2.4266,-1.5067 3.6933,-2.4933 0.5067,-0.4 1.0133,-0.8 1.5067,-1.16 1.2133,-0.8934 2.2666,-2.12 3.36,-3.4134 0.52,-0.6 1.0266,-1.1866 1.5466,-1.7466 1.5734,-1.7067 3.1867,-3.5334 4.3467,-5.4667 1.1733,-1.9733 2.36,-4.08 3.0667,-6.2267 l 0.3333,-1.0133 c 0.6933,-2.0667 1.36,-4.0133 1.4933,-5.6933 0.1334,-1.6267 -0.2666,-3.36 -0.68,-5.2 -0.1066,-0.48 -0.2133,-0.96 -0.3066,-1.44 l -0.1067,-0.48 c -0.4533,-2.1734 -0.88,-4.2267 -1.6667,-5.2934 -1.3333,-1.8133 -2.76,-3.0266 -3.8133,-3.2266 l -1.1067,-0.2267 c -1.8266,-0.3467 -3.92,-0.76 -6.1466,-1.4533 -1.6667,-0.52 -3.24,-1.2267 -4.7467,-1.9067 -0.68,-0.3067 -1.3733,-0.6133 -2.0933,-0.92 -0.5334,-0.2133 -1.32,-0.3867 -2.1734,-0.56 -1.44,-0.3067 -3.2533,-0.6933 -5,-1.6267 l -0.6133,-0.32 c -1.92,-1.0133 -3.9067,-2.0666 -5.8933,-3.3866 -1.56,-1.0267 -2.68,-2.32 -3.6667,-3.4667 -0.6133,-0.7067 -1.1733,-1.36 -1.72,-1.8 -0.4667,-0.3733 -1.1867,-0.76 -1.96,-1.1733 -1.3733,-0.7334 -2.9333,-1.5734 -4.3467,-2.96 -0.5333,-0.5334 -1.12,-1.04 -1.7066,-1.56 -1.1867,-1.0534 -2.5334,-2.2534 -3.72,-3.68 -1.1334,-1.3467 -1.9867,-2.7734 -2.8134,-4.16 -0.44,-0.72 -0.88,-1.4534 -1.3466,-2.1467 -0.6934,-1 -1.4934,-1.96 -2.3467,-3 -0.8,-0.96 -1.6,-1.9333 -2.32,-2.9467 -0.6267,-0.8533 -1.2267,-1.7066 -1.8267,-2.56 -0.8533,-1.2266 -1.6933,-2.4266 -2.5733,-3.5733 -0.88,-1.1733 -1.8,-2.2667 -2.6933,-3.3333 -0.72,-0.8534 -1.4267,-1.6934 -2.0934,-2.5467 -1.1866,-1.48 -1.9066,-3.04 -2.56,-4.4 -0.44,-0.9333 -0.84,-1.8 -1.2266,-2.28 -0.6267,-0.7467 -1.56,-1.4133 -2.5467,-2.1067 -1.1467,-0.8133 -2.3333,-1.6533 -3.3467,-2.8266 -0.9866,-1.16 -1.6,-1.6267 -2.1866,-2.08 -1.44,-1.1334 -2.5467,-2.16 -3.7467,-5.1067 -0.2267,-0.5333 -0.3333,-1.0933 -0.3333,-1.68 v -0.9467 c 0.013,-1.92 0.027,-3.9066 -0.4534,-5.1733 -0.5066,-1.3067 -1.6,-2.4933 -2.8533,-3.88 l -0.68,-0.7467 c -0.4267,-0.48 -0.84,-0.9733 -1.2533,-1.4666 -1.0267,-1.2134 -1.9067,-2.28 -2.8534,-2.76 -1.64,-0.84 -2.5866,-2.6 -2.3866,-4.44 0.1333,-1.12 0.56,-1.9734 0.9066,-2.56 -0.12,-1.7734 -0.6266,-3.7867 -1.44,-5.7734 -1,-2.3733 -2.2533,-4.4133 -3.56,-5.7066 -1.4266,-1.44 -3.8533,-2.5467 -5.8,-3.36 -1.8933,-0.7867 -4.08,-1.24 -6.1733,-1.28 -0.1067,0.053 -0.2133,0.1066 -0.3333,0.1466 -0.6134,0.2667 -1.4534,0.6267 -2.4667,0.7867 -1.2933,0.2 -2.6133,-0.1867 -3.6,-1.0533 -0.2533,-0.2134 -0.4667,-0.4534 -0.6667,-0.72 -0.4533,-0.52 -1.24,-1.56 -1.24,-3.12 v -0.52 c 0,-2.2534 0,-4.3734 -0.6133,-5.8667 -0.3867,-0.92 -1.4267,-1.8533 -2.6267,-2.92 -0.6266,-0.5467 -1.24,-1.1067 -1.8133,-1.68 -0.8,-0.8 -1.4933,-1.6533 -2.0933,-2.4133 -0.8267,-1.04 -1.68,-2.1067 -2.36,-2.3867 -0.8934,-0.3733 -2.44,-0.2933 -4.08,-0.2133 -1.8267,0.093 -3.6667,0.067 -5.2934,-0.053 -1.6,-0.1333 -2.4666,-0.1866 -3.2,0.1334 -1.3066,0.56 -2.8,0.4533 -4.0266,-0.2667 -1.2267,-0.7333 -2.0267,-2 -2.16,-3.4133 -0.067,-0.7334 -0.4134,-1.3334 -1.1334,-2.4934 -0.4533,-0.72 -0.9066,-1.4666 -1.32,-2.3066 -1.0133,-2.0267 -2.12,-3.5467 -3.48,-4.7867 l -0.96,-0.9067 c -1.3333,-1.2533 -2.5866,-2.44 -3.8133,-2.92 -1.9467,-0.7466 -4.2,-1.52 -6.0933,-1.52 -1.3067,0 -2.4667,0.3867 -4.0667,0.9334 l -0.7067,0.2266 c -1.12,0.3734 -2.3466,0.28 -3.4,-0.2533 -1.0533,-0.5333 -1.84,-1.4533 -2.2133,-2.5733 -0.9467,-2.8934 -1.8667,-4.6934 -3.08,-6.0267 -0.6267,-0.6933 -2.1867,-1.24 -3.6933,-1.7733 -0.9467,-0.3334 -1.88,-0.68 -2.76,-1.0667 -1.8134,-0.8 -3.7334,-1.1467 -6.44,-1.1467 -3.8134,0 -6.2667,0.48 -8.2,1.6 -1.3734,0.8 -3.08,0.8 -4.4534,0 -2.08,-1.2 -4.76,-1.7866 -8.2133,-1.7866 -1.1867,0 -2.3067,-0.16 -3.28,-0.3067 -0.7867,-0.1067 -1.96,-0.28 -2.3067,-0.1733 -0.3866,0.1333 -1.2133,0.9866 -1.8266,1.6133 -0.6534,0.6933 -1.4134,1.4667 -2.3067,2.1733 -1,0.7734 -2,1.2934 -2.8,1.72 -0.64,0.3334 -1.2933,0.68 -1.4533,0.9067 -1.3067,1.9733 -3.9067,2.5733 -5.9334,1.4133 -0.1866,-0.013 -0.4933,-0.013 -0.7333,0 -0.96,0.013 -2.2933,0.04 -3.7867,-0.4133 -1.16,-0.3467 -2.1333,-0.88 -3,-1.3333 -0.48,-0.2667 -1.2266,-0.6667 -1.4933,-0.7067 -0.6533,0 -1.72,0.56 -2.8533,1.1467 -0.8,0.4133 -1.6934,0.8666 -2.6667,1.24 -1.0133,0.4 -2.0267,0.6666 -2.9333,0.9066 -1.16,0.3067 -2.36,0.6267 -2.8267,1.04 -1.4667,1.3334 -2.5467,2.7334 -3.48,4.56 -0.6,1.1734 -1.6667,2.0134 -2.9467,2.3067 -1.2666,0.3067 -2.6,0.027 -3.6533,-0.7467 -1.1733,-0.8666 -2.3067,-1.4133 -4.3333,-2.08 -0.2934,-0.1066 -1.3734,0.04 -2.0934,0.1467 -0.92,0.1333 -1.96,0.28 -3.1066,0.28 -2.5067,0 -4.24,0.2933 -5.9734,1.0133 -0.4933,0.2 -1,0.4 -1.48,0.5867 -1.76,0.6933 -3.28,1.28 -4.1866,2.2 -0.9067,0.8933 -1.48,2.3867 -2.16,4.12 -0.2,0.52 -0.4,1.04 -0.6134,1.56 -0.36,0.8533 -0.7866,1.6933 -1.24,2.5467 -0.4533,0.8666 -0.88,1.7066 -1.12,2.4266 0.2267,0.4934 0.4134,1.0934 0.4534,1.8 0.1066,1.5067 -0.5734,2.96 -1.7867,3.8667 -1.2267,0.8933 -2.8133,1.1067 -4.2267,0.5733 -1.56,-0.6 -3.4933,-0.8933 -5.88,-0.8933 -2.3333,0 -4.72,0.1067 -6.4933,0.84 -1.8,0.7467 -3.72,2.08 -5.4,3.7733 -1.4267,1.4134 -2.4267,3.6534 -3.24,5.64 -0.8267,1.9867 -1.2533,4.12 -1.2533,6.2934 0,2.4533 -1.9867,4.4533 -4.44,4.4533 -2.1067,0 -4.2134,0.7467 -6.1734,1.56 -1.8533,0.7733 -3.4933,1.8933 -5.1466,3.5467 -0.64,0.6533 -1.3734,1.28 -2.1067,1.9066 -1.1333,0.9467 -2.2933,1.9334 -2.6267,2.7334 -0.4533,1.0933 -0.4,2.9733 -0.36,4.7866 0.013,0.6267 0.027,1.24 0.027,1.8534 0,1.2533 0.12,2.3866 0.3467,3.4533 0.36,1.6933 -0.2934,3.44 -1.68,4.48 -0.093,0.067 -0.1734,0.12 -0.2667,0.1733 -0.013,0.053 -0.027,0.1067 -0.04,0.16 -0.4667,1.36 -0.9733,2.6134 -2.92,5.1734 -1.0933,1.44 -2.7867,3.64 -4.8667,6.08 -1.24,1.44 -2.6,2.8666 -4.04,4.36 l -1.2666,1.32 c -1.12,1.1866 -2.36,2.12 -3.5467,3.0133 -0.8933,0.6667 -1.72,1.2933 -2.4267,1.96 -0.5866,0.5467 -1.1466,1.12 -1.7333,1.6933 -1.2,1.1867 -2.4533,2.4267 -3.88,3.64 -0.64,0.56 -1.2667,1.1334 -1.9067,1.7067 -1.2266,1.12 -2.4933,2.2667 -3.9466,3.3867 -1.3467,1.0266 -2.7334,1.7733 -4.08,2.48 -0.9467,0.5066 -1.84,0.9866 -2.6,1.5066 l -0.96,0.6667 c -1.7334,1.2 -3.5334,2.44 -5.4934,3.6133 -0.7733,0.48 -1.5733,1.2667 -2.4133,2.0934 -0.8533,0.84 -1.8133,1.7866 -2.9467,2.6 -1.7066,1.2266 -3.7066,2.6933 -5.5066,4.2533 -2.0267,1.76 -3.6134,3.2667 -4.9867,4.76 -0.6133,0.64 -1.2267,1.2667 -1.84,1.88 -1.08,1.08 -2.0933,2.0933 -2.8133,3.1067 -0.9334,1.2933 -1.6534,2.7866 -2.4267,4.3733 -0.2533,0.52 -0.5067,1.04 -0.76,1.5467 l -0.2,0.3733 c -1,1.9867 -1.9467,3.8533 -2.4933,5.6533 -0.28,0.9334 -0.64,1.8667 -0.9867,2.8 -0.5067,1.3067 -0.9867,2.5467 -1.08,3.52 -0.053,0.5734 0.2667,1.6134 0.5733,2.6134 0.3467,1.16 0.7467,2.4533 0.8934,3.8933 0.093,0.9333 0.1333,1.8667 0.16,2.8 0.053,1.3733 0.093,2.68 0.4,3.6933 0.3333,1.08 1.0266,2.28 1.7466,3.5467 0.44,0.76 0.88,1.52 1.28,2.3067 0.7734,1.5066 1.92,2.72 3.6267,4.3066 1.28,1.2 2.7733,2.2 4.9733,3.3467 1.3067,0.68 2.3734,1.5867 3.3067,2.3733 0.7467,0.64 1.6,1.3734 2.12,1.52 0.52,0.1467 1.6133,0.053 2.5867,-0.027 1.28,-0.1067 2.72,-0.2134 4.2666,-0.027 1.56,0.1867 2.9467,0.7067 4.16,1.1467 0.96,0.36 1.9334,0.72 2.52,0.72 0,0 0.013,0 0.027,0 0.3733,-0.013 1.4133,-0.4934 2.1067,-0.8 1.2933,-0.6 2.7733,-1.2934 4.5333,-1.5467 1.6933,-0.2533 3.2533,-0.053 4.6267,0.12 0.8666,0.1067 1.9466,0.24 2.3866,0.12 0.84,-0.24 1.84,-0.84 2.9067,-1.4667 0.9467,-0.5733 2.0267,-1.2133 3.2,-1.7333 1.76,-0.7733 3.8,-1.8933 6.0667,-3.32 1.0933,-0.68 2.4266,-0.8533 3.6533,-0.4933 1.24,0.3733 2.2533,1.2666 2.7733,2.44 0.6267,1.3866 1.88,2.76 3.2134,4.2266 l 0.3333,0.36 c 1.5733,1.72 3.08,2.9867 4.4667,3.76 1.8266,1.0267 2.6933,3.2 2.08,5.2 -0.2267,0.7067 -0.5067,1.4534 -0.8,2.2134 -0.4534,1.1866 -0.9734,2.5066 -0.9734,3.3066 0,1.2134 0.64,2.6667 1.32,4.2134 0.2934,0.6666 0.5867,1.3333 0.8534,2 0.3066,0.7866 0.5733,1.6 0.8266,2.4266 0.5067,1.5334 0.9734,2.9867 1.6534,3.7334 1.1866,1.3066 2.7733,2.3866 5.3066,3.6533 1.1734,0.5867 2.0267,1.6667 2.3334,2.9467 0.3066,1.28 0.027,2.64 -0.76,3.6933 -0.44,0.5867 -0.6667,1.4267 -1.0134,2.76 -0.2,0.76 -0.4,1.5333 -0.6666,2.32 -0.3734,1.1467 -0.92,2.1733 -1.4,3.08 -0.4134,0.7867 -0.9867,1.8533 -0.9867,2.3067 0,2.12 0.5733,4.64 1.5867,7.0933 0.8533,2.08 2.5066,3.88 4.1466,5.52 1.3867,1.3867 1.7067,3.52 0.7867,5.24 -1.2667,2.3733 -1.9067,5.1733 -1.9067,8.3333 0,0.5467 0.3867,1.4267 0.8,2.36 0.3467,0.7734 0.7467,1.64 1.04,2.6134 0.32,1.04 0.4934,2.04 0.6534,2.92 0.16,0.8933 0.3333,1.8933 0.5866,2.2666 1.2267,1.8 2.4,3.1334 3.5734,4.0667 1.5333,1.2267 2.7333,1.9333 4.2533,2.5333 1.2533,0.4934 2.2133,1.52 2.6133,2.8 0.4,1.28 0.2,2.68 -0.5466,3.8 l -0.24,0.3734 c -0.9867,1.48 -1.7067,2.5466 -2.1067,3.88 -0.5333,1.7333 -0.8267,3.6933 -0.8267,5.36 0.04,0.12 0.3334,0.7733 0.5334,1.2 0.3866,0.84 0.8266,1.8 1.08,2.8933 0.3733,1.6533 -0.2267,3.3867 -1.5467,4.4533 -0.84,0.68 -1.6133,1.8534 -2.4267,3.1067 -0.2533,0.3733 -0.4933,0.7467 -0.7466,1.12 -0.36,0.52 -0.72,1.0267 -1.0934,1.52 -0.7733,1.04 -1.44,1.9467 -1.7066,2.8 -0.24,0.7867 -0.56,1.5867 -0.8934,2.3867 -0.4133,1.0266 -0.8533,2.0933 -0.8533,2.76 0,1.6533 0.48,3.5733 0.8533,4.88 0.3334,1.1866 1.0267,2.3466 1.8534,3.6933 l 0.28,0.48 c 1.0133,1.6933 0.8,3.84 -0.5334,5.2933 -1.1866,1.28 -1.9066,3.1467 -2.7466,5.2934 l -0.1734,0.44 c -0.28,0.7066 -0.6,1.4266 -0.92,2.16 -0.7066,1.5466 -1.3733,3.0133 -1.3733,4.1733 0,0.3733 0.5067,1.3867 0.8267,2.0667 0.44,0.8666 0.92,1.8533 1.2666,2.96 l 0.24,0.8 c 0.48,1.6133 0.8934,3.0133 1.5734,4.0266 1.1466,1.7067 2.0933,2.9467 3.2933,3.9334 1.0267,0.84 1.6267,2.1066 1.6267,3.4266 0,1.3467 -0.6,2.6 -1.6267,3.4534 -0.76,0.6133 -1.4,1.6266 -2.1467,2.8 -0.28,0.44 -0.56,0.88 -0.8533,1.32 l -0.6133,0.8933 c -0.9067,1.3067 -1.68,2.4533 -2.0267,3.5733 -0.1333,0.44 -0.28,0.8934 -0.4267,1.3467 -0.4666,1.4133 -0.9066,2.76 -0.9066,3.84 0,0.9733 0.56,2.24 1.1466,3.5867 0.3467,0.7733 0.68,1.5333 0.9467,2.2933 l 0.4,1.1067 c 0.6133,1.76 1.2,3.4133 2.08,4.48 l 0.4533,0.5466 c 1.3067,1.5734 2.44,2.9467 3.8,3.7334 1.0534,0.6266 1.8,1.6533 2.0667,2.8533 0.3867,1.6933 1.3733,3.28 2.52,5.12 1.1333,1.8 2.48,3.36 3.9467,4.5467 0.5466,0.4533 1.8133,0.8 3.0266,1.1333 0.92,0.24 1.8267,0.4933 2.68,0.8133 1.8534,0.68 3.0267,2.4934 2.9067,4.4534 -0.04,0.6933 -0.2133,1.2933 -0.3867,1.8933 -0.027,0.08 -0.053,0.1733 -0.08,0.2533 0.013,3.0134 0.1467,5.88 1.32,8.0534 0.72,1.3466 0.7067,2.96 -0.04,4.28 -0.7866,1.4133 -0.7466,3.4 -0.6933,5.92 0.013,0.6533 0.027,1.32 0.027,2 0,1.08 -0.1334,2.0933 -0.2534,2.9866 -0.093,0.7467 -0.24,1.8534 -0.1333,2.1867 0.1333,0.3867 0.8933,1.1733 1.4533,1.76 0.6,0.64 1.28,1.3467 1.8934,2.2 0.8133,1.1067 2.16,2.36 3.88,3.6133 1.5066,1.0934 2.1733,3 1.6666,4.7867 -0.3466,1.24 -0.96,2.3333 -1.5066,3.3067 -0.2667,0.4533 -0.64,1.1333 -0.7734,1.4933 z m 30.9467,42.9867 c -2.72,0 -3.9067,-0.12 -4.96,-0.2267 -0.8667,-0.08 -1.6133,-0.16 -3.4133,-0.16 -3.9867,0 -7.68,-1.7467 -10.4,-4.9333 -2.3734,-2.7867 -3.28,-6.4 -3.8,-9.24 -0.4267,-2.24 -0.28,-3.7067 -0.1467,-4.72 -1.5467,-0.4934 -3.1733,-1.1734 -4.8133,-2.2134 -2.2267,-1.4 -4.76,-3.16 -6.6134,-5.48 -1.6133,-2.0266 -2,-4.3333 -2.3066,-6.2 -0.12,-0.7333 -0.24,-1.44 -0.4,-1.8933 -0.1467,-0.4 -0.5067,-1.0133 -0.84,-1.6133 -0.92,-1.5734 -2.16,-3.72 -2.16,-6.4134 0,-1.8 0.6533,-3.36 1.3466,-4.6933 -1.1466,-1.04 -2.1066,-2.1067 -2.88,-3.16 -0.2666,-0.3733 -0.7066,-0.8267 -1.16,-1.3067 -1.2,-1.2666 -2.7066,-2.84 -3.4666,-5.1466 -0.72,-2.24 -0.44,-4.36 -0.2267,-6.08 0.093,-0.68 0.1733,-1.3334 0.1733,-1.84 0,-0.6134 -0.013,-1.2134 -0.027,-1.8134 -0.053,-2.5733 -0.1067,-5.4266 0.8533,-8.2533 -1.16,-3.0933 -1.3867,-6.32 -1.4267,-9.4267 -1.6,-0.48 -3.3466,-1.16 -4.88,-2.4133 -2.2133,-1.8 -4.24,-4.12 -5.8533,-6.7067 -1.12,-1.8 -2.3333,-3.76 -3.1467,-6.0933 -1.88,-1.44 -3.28,-3.1333 -4.56,-4.68 l -0.44,-0.52 c -1.9066,-2.2933 -2.8266,-4.92 -3.64,-7.2267 l -0.36,-1.0266 c -0.2133,-0.5867 -0.4666,-1.16 -0.7333,-1.7467 -0.84,-1.92 -1.9067,-4.32 -1.9067,-7.16 0,-2.4933 0.7467,-4.7733 1.3467,-6.6 0.1333,-0.3867 0.2533,-0.7867 0.3733,-1.1733 0.7467,-2.44 2.0534,-4.3467 3.2134,-6.0267 l 0.56,-0.8133 c 0.2533,-0.3734 0.4933,-0.7467 0.72,-1.12 0.2666,-0.4267 0.5466,-0.8667 0.8533,-1.3067 -0.68,-0.8667 -1.2933,-1.7333 -1.8667,-2.5867 -1.44,-2.1466 -2.12,-4.4266 -2.72,-6.44 l -0.2266,-0.76 c -0.12,-0.4133 -0.4134,-0.9866 -0.72,-1.6 -0.7867,-1.5866 -1.76,-3.56 -1.76,-6.0133 0,-3.08 1.2,-5.72 2.16,-7.8533 0.2666,-0.5734 0.5333,-1.1467 0.7466,-1.72 l 0.1734,-0.4267 c 0.6666,-1.7067 1.3866,-3.56 2.4533,-5.3333 -0.6267,-1.1334 -1.1867,-2.3867 -1.5867,-3.8134 -0.5066,-1.8 -1.1733,-4.52 -1.1733,-7.2666 0,-2.4134 0.84,-4.4667 1.5067,-6.12 0.2266,-0.5467 0.4533,-1.0934 0.6266,-1.64 0.7067,-2.3067 1.96,-4 3.0667,-5.48 0.2933,-0.4 0.5867,-0.8 0.8667,-1.2134 0.2266,-0.3333 0.4533,-0.6666 0.6666,-1 0.56,-0.8666 1.1734,-1.8 1.88,-2.6933 -0.48,-1.1333 -0.9733,-2.52 -0.9733,-4.0933 0,-2.5467 0.4267,-5.36 1.2133,-7.9334 0.2667,-0.88 0.5867,-1.68 0.9334,-2.4266 -0.6267,-0.4267 -1.2667,-0.9067 -1.9334,-1.44 -1.88,-1.48 -3.64,-3.44 -5.3733,-5.9867 -1.3467,-1.96 -1.72,-4.0667 -2.0133,-5.76 -0.12,-0.68 -0.2267,-1.32 -0.3867,-1.8267 -0.1333,-0.4533 -0.3867,-1.0266 -0.6533,-1.6133 -0.7067,-1.5867 -1.5867,-3.5467 -1.5867,-5.9867 0,-3.4266 0.5467,-6.6133 1.6133,-9.5333 -1.5066,-1.7333 -2.96,-3.7467 -3.96,-6.1467 -1.0266,-2.48 -2.2533,-6.32 -2.2533,-10.5066 0,-2.6534 1.12,-4.76 2.0133,-6.4534 0.3467,-0.6666 0.68,-1.2933 0.8267,-1.7466 0.2,-0.5867 0.3467,-1.1734 0.4933,-1.7334 0.1067,-0.4133 0.2134,-0.8666 0.3467,-1.32 -1.4267,-0.9333 -2.8667,-2.08 -4.1733,-3.5066 -1.9867,-2.1734 -2.8134,-4.7334 -3.5467,-7 -0.2133,-0.6534 -0.4133,-1.3067 -0.6667,-1.9334 -0.2133,-0.5466 -0.4533,-1.0933 -0.6933,-1.6533 -0.92,-2.0933 -2.08,-4.7067 -2.08,-7.7867 0,-1.8666 0.5067,-3.6133 1.0533,-5.1466 -1.16,-0.9467 -2.32,-2.0534 -3.4933,-3.3467 l -0.32,-0.3467 c -0.6933,-0.76 -1.4267,-1.5466 -2.1333,-2.4266 -1.2,0.6666 -2.3467,1.2266 -3.4534,1.7066 -0.6666,0.3067 -1.4133,0.7467 -2.2133,1.2267 -1.44,0.8533 -3.08,1.84 -5.04,2.3867 -2.1733,0.6266 -4.2533,0.36 -5.92,0.1466 -0.8533,-0.1066 -1.7333,-0.2133 -2.2267,-0.1466 -0.4933,0.08 -1.3066,0.4533 -2.1066,0.8266 -1.52,0.7067 -3.4267,1.5867 -5.6934,1.6134 -2.3066,0.027 -4.1866,-0.68 -5.76,-1.2534 -0.84,-0.32 -1.6266,-0.6133 -2.1733,-0.6666 -0.64,-0.093 -1.52,-0.013 -2.44,0.067 -1.7467,0.1334 -3.7067,0.3067 -5.7867,-0.3066 -2.3466,-0.68 -4.04,-2.12 -5.4,-3.2667 -0.6133,-0.52 -1.2533,-1.0533 -1.68,-1.2933 -2.9066,-1.5067 -5.0266,-2.96 -6.9066,-4.7067 -1.8534,-1.72 -3.9734,-3.8133 -5.48,-6.7467 -0.3334,-0.6666 -0.7067,-1.2933 -1.0667,-1.9333 -0.9067,-1.56 -1.92,-3.3333 -2.5467,-5.3867 -0.6533,-2.1466 -0.7333,-4.1866 -0.7866,-6 -0.027,-0.7333 -0.04,-1.4666 -0.12,-2.1866 -0.053,-0.5734 -0.3067,-1.36 -0.56,-2.2 -0.5067,-1.6667 -1.1467,-3.76 -0.9067,-6.0934 0.2133,-2.16 0.96,-4.1066 1.6133,-5.8266 0.28,-0.72 0.56,-1.4534 0.7867,-2.1867 0.76,-2.5467 1.9333,-4.8533 3.08,-7.0933 l 0.1867,-0.3734 c 0.24,-0.4666 0.4666,-0.9466 0.6933,-1.4266 0.8533,-1.7467 1.8267,-3.7467 3.1867,-5.6534 1.1466,-1.6 2.48,-2.9333 3.76,-4.2133 0.5466,-0.5467 1.0933,-1.0933 1.6133,-1.6533 1.6133,-1.7334 3.4133,-3.4534 5.68,-5.4134 2.08,-1.8 4.2667,-3.4133 6.1467,-4.76 0.5733,-0.4133 1.2133,-1.0533 1.8933,-1.72 1.12,-1.0933 2.3733,-2.3466 4.04,-3.3466 1.7333,-1.0667 3.4267,-2.2267 5.0667,-3.3467 l 0.9733,-0.68 c 1.1733,-0.8 2.3867,-1.44 3.4533,-2.0133 1.0667,-0.5734 2.08,-1.1067 2.84,-1.6934 1.16,-0.88 2.24,-1.8666 3.3867,-2.9066 0.6933,-0.64 1.4,-1.28 2.1067,-1.88 1.1733,-1.0134 2.3066,-2.1334 3.4,-3.2134 0.6266,-0.6133 1.24,-1.2266 1.8666,-1.8266 1.08,-1.0267 2.2134,-1.8667 3.2134,-2.6267 0.9466,-0.7067 1.8266,-1.36 2.44,-2.0133 l 1.2933,-1.3467 c 1.3467,-1.4133 2.6267,-2.7333 3.6933,-3.9867 1.9334,-2.2666 3.52,-4.3333 4.5467,-5.68 1.2267,-1.6133 1.36,-2.0266 1.5733,-2.6533 0.28,-0.8267 0.6,-1.68 1.2934,-2.92 -0.08,-0.8133 -0.1067,-1.64 -0.1067,-2.4933 0,-0.5467 -0.013,-1.08 -0.027,-1.6267 -0.067,-2.6133 -0.1466,-5.5733 1.04,-8.4133 1.1467,-2.7867 3.32,-4.6267 5.0667,-6.12 0.56,-0.4667 1.1067,-0.92 1.5867,-1.4 2.4666,-2.48 5.0933,-4.2667 8.0133,-5.48 1.6267,-0.6667 3.4533,-1.3467 5.4533,-1.7867 0.3067,-1.96 0.84,-3.8667 1.6134,-5.72 1.24,-2.9733 2.72,-6.0667 5.16,-8.5067 1.7733,-1.7733 4.64,-4.1866 8.2933,-5.7066 3.2,-1.32 6.6533,-1.5067 9.8933,-1.5067 1.12,0 2.1867,0.053 3.2,0.1467 0.44,-1.1734 1,-2.2134 1.4934,-3.16 0.32,-0.6134 0.64,-1.2134 0.8933,-1.84 0.1867,-0.4534 0.3733,-0.92 0.5467,-1.3734 0.9066,-2.32 1.9333,-4.96 4.1466,-7.1866 2.2267,-2.2267 4.88,-3.2667 7.2267,-4.1867 0.44,-0.1733 0.8933,-0.3333 1.32,-0.52 2.8267,-1.1733 5.72,-1.6933 9.3867,-1.6933 0.52,0 1.1733,-0.093 1.8666,-0.1867 1.7067,-0.24 3.8534,-0.5467 6.1334,0.2133 0.8666,0.28 1.76,0.6 2.68,1 0.88,-1.1333 1.8666,-2.2 2.9733,-3.2 2.0667,-1.8533 4.5333,-2.5066 6.52,-3.04 0.7333,-0.2 1.44,-0.3733 2.0133,-0.6 0.5067,-0.2 1.12,-0.5066 1.7734,-0.8533 1.84,-0.9467 4.12,-2.12 6.9866,-2.12 2.3867,0 4.28,1.0133 5.6534,1.76 0.5066,0.2667 1.04,0.56 1.3333,0.64 0.1733,0.053 0.68,0.053 1.08,0.04 0.5333,0 1.1733,-0.013 1.8667,0.053 0.8133,-0.5866 1.6133,-1 2.2933,-1.36 0.5867,-0.3066 1.0933,-0.5733 1.4667,-0.8666 0.3866,-0.3067 0.8666,-0.7867 1.36,-1.3067 1.3066,-1.3467 2.92,-3.0267 5.3466,-3.8667 2.36,-0.8133 4.64,-0.48 6.4667,-0.2 0.76,0.1067 1.4667,0.2134 2,0.2134 4.0267,0 7.4667,0.6133 10.4533,1.88 3.64,-1.48 7.4,-1.7067 10.4134,-1.7067 3.9866,0 7.08,0.6 10.0533,1.92 0.6667,0.2933 1.3867,0.5467 2.12,0.8 2.3067,0.8267 5.1867,1.84 7.32,4.2 1.4533,1.6133 2.52,3.4133 3.3467,5.16 1.0666,-0.24 2.2266,-0.4 3.52,-0.4 3.36,0 6.5866,1.08 9.3066,2.1333 2.84,1.1067 4.88,3.0267 6.6934,4.72 l 0.8666,0.8134 c 2.16,1.9866 3.9467,4.4 5.44,7.4 0.28,0.5733 0.6,1.08 0.9067,1.56 0.3333,0.5333 0.6933,1.12 1.0267,1.76 0.9333,0 1.84,0.053 2.6533,0.12 1.28,0.1066 2.72,0.12 4.1467,0.04 2.4266,-0.12 5.1866,-0.2667 7.9333,0.88 2.7733,1.1466 4.5067,3.32 5.8933,5.0533 0.5067,0.6267 0.9867,1.2267 1.4267,1.6667 0.4533,0.4666 0.9467,0.8933 1.4267,1.32 1.68,1.4933 3.7733,3.36 4.9466,6.16 0.6667,1.6133 0.9867,3.2666 1.1467,4.88 3.1067,0.093 6.32,0.7866 9.1467,1.9466 2.7066,1.12 6.1333,2.7467 8.68,5.28 2.6933,2.7067 4.4666,6.1734 5.48,8.6 0.9733,2.36 2.1466,6.0134 2.1466,9.96 0,0.2534 -0.027,0.5067 -0.053,0.7334 0.8533,0.84 1.6,1.72 2.2933,2.5466 0.3334,0.4134 0.68,0.8267 1.04,1.2134 l 0.6267,0.6933 c 1.6267,1.7867 3.48,3.8133 4.5867,6.6933 1.08,2.8267 1.0666,5.7867 1.0533,8.4 0.1467,0.28 0.2933,0.3867 0.6667,0.68 0.7466,0.5867 1.88,1.48 3.4533,3.3067 0.2933,0.3467 1.0267,0.8533 1.72,1.3467 1.2933,0.92 2.9067,2.0533 4.28,3.72 1.0933,1.3333 1.8,2.8266 2.4133,4.1466 0.4934,1.0267 0.9467,1.9867 1.48,2.68 0.6267,0.7734 1.28,1.5467 1.9334,2.3334 1,1.1866 2,2.3866 2.9866,3.6666 0.9334,1.2534 1.84,2.5467 2.76,3.8667 0.5734,0.8133 1.1467,1.6267 1.7467,2.4533 0.6133,0.84 1.2933,1.6667 1.9733,2.48 0.9467,1.1467 1.9067,2.32 2.8267,3.6534 0.5733,0.84 1.1067,1.7066 1.6267,2.5866 0.68,1.1334 1.3333,2.2134 2.0133,3.0267 0.7733,0.92 1.7733,1.8133 2.8133,2.7467 0.7067,0.6133 1.3867,1.2266 2.0267,1.8533 0.5067,0.4933 1.3867,0.9733 2.32,1.4667 1.04,0.56 2.2267,1.2 3.3467,2.0933 1.16,0.9467 2.0666,1.9867 2.8666,2.92 0.6667,0.7733 1.2934,1.5067 1.8267,1.8533 1.6267,1.08 3.4267,2.0267 5.16,2.9467 l 0.6267,0.32 c 0.64,0.3467 1.6266,0.56 2.6666,0.7733 1.16,0.2534 2.4667,0.52 3.7734,1.08 0.7866,0.32 1.56,0.6667 2.3066,1.0134 1.32,0.5866 2.5734,1.16 3.7334,1.52 1.76,0.5466 3.5066,0.88 5.2,1.2133 l 1.16,0.2267 v 0 c 3.3466,0.6666 6.4533,2.9066 9.2266,6.6666 1.9334,2.6267 2.5867,5.7467 3.2134,8.7734 l 0.093,0.4666 c 0.093,0.4267 0.1867,0.8534 0.2933,1.2934 0.4934,2.1866 1.1067,4.8933 0.8534,7.88 -0.2134,2.76 -1.08,5.3333 -1.92,7.8133 l -0.32,0.96 c -0.9867,2.9733 -2.52,5.72 -3.88,8 -1.5867,2.6267 -3.5467,4.88 -5.44,6.9333 -0.4534,0.48 -0.88,0.9867 -1.32,1.5067 -1.32,1.5333 -2.8134,3.28 -4.84,4.7733 -0.4267,0.32 -0.8534,0.6534 -1.2934,1 -1.5466,1.2134 -3.2933,2.5867 -5.4933,3.6 -2.32,1.0534 -4.8267,1.8 -7.2667,2.5334 l -0.2,0.053 c -0.7466,0.2267 -1.4933,0.5067 -2.2666,0.7867 -1.52,0.5466 -3.24,1.1866 -5.12,1.5466 -1.7467,0.3334 -3.5067,0.48 -5.2,0.6267 -0.8,0.067 -1.5867,0.1333 -2.3867,0.2267 l -0.6133,0.067 c -2.24,0.2534 -4.5467,0.5067 -6.92,0.6134 -1.68,0.067 -3.2934,-0.013 -4.8534,-0.1067 -0.8933,-0.053 -1.7866,-0.1067 -2.68,-0.12 -1.88,-0.027 -3.5333,-0.5333 -4.9866,-0.96 -0.9067,-0.2667 -1.7734,-0.5333 -2.4134,-0.5733 -0.84,-0.067 -1.7733,-0.04 -2.76,0.013 -1.4266,0.053 -3.0533,0.1067 -4.7333,-0.1067 -0.92,-0.1333 -1.8533,-0.1733 -2.7867,-0.2133 -1.5066,-0.08 -3.08,-0.16 -4.7066,-0.4933 -1.88,-0.3734 -3.4534,-1.12 -4.84,-1.7867 -0.84,-0.4 -1.6267,-0.7733 -2.2667,-0.96 l -1.4267,-0.3867 c 0.1334,0.2134 0.2667,0.44 0.4,0.68 0.9867,1.6667 2.3467,3.96 2.3467,6.8534 0,4.4 -1.7067,8.3333 -3.1333,10.8533 -1.3467,2.3867 -3.28,4.1867 -5.3867,5.7067 0,0.053 0,0.1066 0,0.1733 0,2.2267 -0.4667,4.4267 -1.3867,6.5733 1.7067,2.52 2.5734,5.7467 2.5734,9.6667 0,0.4 0.053,0.8 0.1066,1.1867 0.067,0.6133 0.16,1.36 0.16,2.2 1.6934,0.2133 3.24,0.6666 4.6667,1.0933 0.48,0.1467 0.9733,0.2933 1.4533,0.4133 3.1467,0.8534 5.9734,2.2267 8.6534,4.1734 2.7333,2 4.3333,4.4933 5.8666,6.9066 l 0.2534,0.4 c 0.2666,0.4134 0.5466,0.8134 0.8133,1.2267 1.3467,1.9867 2.8667,4.2533 3.4933,7.3467 0.5867,2.8666 0.8134,5.5066 0.6667,7.9466 2.3067,0.7867 4.44,2.1067 6.2,3.8667 3.1067,3.0933 4.88,6.8533 5.04,10.6133 1.3733,0.6934 2.7733,1.5467 4.04,2.64 2.2133,1.92 4.3333,3.8534 5.88,6.5067 1.5067,2.5733 2.16,5.4 2.7467,8.32 0.08,0.4133 0.2,0.7733 0.3066,1.12 0.067,0.2267 0.1467,0.4533 0.2134,0.7067 2.08,1.2266 3.5066,3.0266 4.6533,4.4666 l 0.5067,0.64 c 2.6933,3.3067 3.04,6.9067 3.04,9.6667 l 0.013,0.9333 c 0.04,1.9067 0.08,4.28 -1.2533,6.68 -0.4,0.7334 -0.9067,1.4134 -1.4534,2.04 1.1867,1.0934 2.2667,2.28 3.1334,3.6134 1.9733,2.9866 3.24,6 3.8933,9.2266 0.5467,2.68 1.08,5.8134 0.6133,9.0667 -0.48,3.2933 -1.8266,6.1733 -3.08,8.5467 -0.9866,1.88 -2.4,3.36 -3.8,4.6533 0.4667,0.96 0.8934,2.04 1.12,3.16 0.5867,2.9333 1.08,6.08 0.6,9.24 -0.52,3.4667 -2.16,6.4533 -3.3466,8.64 -1.1734,2.1467 -2.7467,3.8667 -4.2667,5.2933 0.2533,2.32 0.12,4.3867 -0.04,6 -0.067,0.6134 -0.067,1.24 -0.067,1.8667 -0.013,1.76 -0.013,3.9467 -0.96,6.12 -0.9333,2.1867 -2.1066,4.9067 -4.0133,7.1467 -1.1467,1.3466 -2.3867,2.4133 -3.64,3.3466 0.1733,1.76 0.2,3.6667 -0.1333,5.6667 -0.44,2.5733 -1.76,4.7067 -2.8134,6.4267 -0.32,0.52 -0.64,1.04 -0.9066,1.5466 -0.2667,0.4934 -0.52,1.0134 -0.7734,1.5334 -0.9333,1.9333 -1.9866,4.12 -3.8933,5.9066 -1.4133,1.32 -2.9733,2.2667 -4.5333,3.0667 -0.04,1.1333 -0.1867,2.1867 -0.3334,3.1867 -0.053,0.4133 -0.1066,0.84 -0.16,1.2666 -0.2933,2.52 -1.0266,4.96 -2.3733,7.9067 -1.28,2.7867 -3.1467,4.8133 -4.7867,6.6133 l -0.6933,0.7734 c -1.4267,1.5866 -3.0533,3.4 -5.4133,4.7333 -2.3067,1.2933 -4.72,1.76 -6.8534,2.1733 l -1,0.2 c -1.1466,0.2267 -2.3333,0.44 -3.56,0.5867 -1.2933,2.64 -3.6,3.9867 -5.2933,4.9733 -0.5467,0.32 -1.0667,0.6134 -1.3867,0.8667 -0.32,0.2533 -0.64,0.5067 -0.9466,0.76 -1.6534,1.3467 -3.5334,2.8533 -6.0667,3.72 l -1.0267,0.3467 c -2.1333,0.7333 -4.3466,1.4933 -6.6,1.76 -2.9866,0.36 -4.0533,0.2666 -5.5466,0.08 -0.5334,-0.067 -1.1734,-0.1467 -2.2134,-0.2 -1.2666,-0.067 -1.4666,-0.04 -1.8666,0 -0.88,0.1066 -1.8934,0.2 -4.6134,0.2 -1.28,0 -2.4533,-0.2534 -3.5866,-0.5067 -1.08,-0.24 -2.0934,-0.4667 -3.12,-0.4667 l -1.4667,0.013 c -2.6133,0.04 -4.88,0.067 -7.0533,-1.0534 -0.6267,-0.32 -1.1867,-0.6533 -1.6667,-1 -0.96,0.76 -2,1.4267 -3.12,1.9734 -3.0933,1.5466 -6.6267,2.0666 -9.4667,2.48 -3.1866,0.4666 -5.1066,-0.1067 -6.36,-0.4934 -0.6533,-0.1866 -0.7733,-0.2266 -1.1733,-0.093 -0.5333,1.1733 -1.6533,3.32 -5.0933,4.6133 -2.2134,0.84 -4.7467,1.0134 -7.88,1.0134 -0.8667,0 -1.8267,0.067 -2.88,0.1466 -1.4667,0.093 -3.12,0.2134 -4.9334,0.2134 -0.92,0 -2,0.12 -3.16,0.2533 -1.4,0.1467 -3,0.3333 -4.6933,0.3333 -1.96,0 -3.68,-0.5733 -5.2,-1.0666 -0.9733,-0.3334 -1.9867,-0.6667 -2.64,-0.6667 -0.76,0 -1.7867,0.2533 -2.8667,0.5067 -1.4666,0.36 -3.1333,0.7466 -4.9733,0.7466 -1.36,0 -2.7333,-0.013 -4.08,-0.04 -1.2667,-0.013 -2.5067,-0.04 -3.7333,-0.04 -3.32,0 -6.04,-0.08 -8.3867,-1.1066 -2.9467,-1.3067 -4.4133,-3.6267 -5.3067,-5.5334 -1.5866,1.0934 -3.28,1.68 -4.6933,2.16 -0.7467,0.2534 -1.4533,0.4934 -1.9467,0.7467 -0.6666,0.3467 -1.36,0.8 -2.08,1.28 -1.8133,1.2 -3.8666,2.5733 -6.44,2.5733 -0.6266,0 -1.5333,-0.067 -2.6666,-0.1733 -2.44,-0.2 -5.8534,-0.32 -9.56,-0.2267 -2.6267,0.067 -5.2267,0 -8.3334,0.48 -1.48,0.2267 -3,0.4534 -4.5733,0.4534"
       style="fill:#362421;fill-opacity:1;fill-rule:nonzero;stroke:none;stroke-width:0.133333" />
    <path
       id="path237"
       d="m 2100.8799,1548.3334 h 0.013 z m -2.6933,25.3066 c -1.3467,0 -2.6667,-0.6 -3.5467,-1.7466 -2.7333,-3.6267 -2.8133,-7.8134 -2.8666,-10.5867 l -0.027,-1 c -0.12,-3.2267 0.2533,-4.7333 0.7467,-6.36 0.16,-0.5333 0.2933,-0.9867 0.4,-1.68 -1.9867,-4.12 -0.2134,-7.64 0.4266,-8.8933 0.7467,-1.48 1.48,-2.36 2.1867,-3.04 -0.7333,-1.32 -1.32,-2.6667 -1.7733,-4.2534 -0.9467,-3.2266 -1.3867,-6.1066 -1.3067,-8.5733 0.067,-2.5467 0.9467,-4.68 1.6667,-6.4 0.2266,-0.5733 0.4666,-1.1333 0.6266,-1.6533 0.28,-0.96 0.4534,-1.6534 0.6,-2.2 0.5467,-2.1734 0.8667,-3 2.4534,-5.52 1.3066,-2.08 4.0533,-2.7067 6.1333,-1.4 2.08,1.3066 2.7067,4.0533 1.4,6.1333 -1.0267,1.6267 -1.0267,1.6267 -1.3867,3 -0.1466,0.6133 -0.3466,1.3867 -0.6666,2.48 -0.2667,0.9067 -0.6134,1.7467 -0.96,2.56 -0.4667,1.1467 -0.96,2.3467 -0.9867,3.24 -0.04,1.5067 0.2933,3.5867 0.96,5.8533 0.4133,1.4267 0.9867,2.5334 2.3467,4.5334 0.88,1.3066 1.0133,2.9866 0.3333,4.4133 -1.0267,2.1467 -2.04,3.1333 -3,3.9467 -0.3733,0.32 -0.44,0.3733 -0.7067,0.8933 -0.3466,0.6933 -0.36,0.9067 -0.36,0.9467 v 0 c 0,0 0.027,0.12 0.2,0.3733 0.6,0.84 0.8934,1.8667 0.8134,2.8933 -0.1734,2.52 -0.5867,3.9067 -0.8934,4.92 -0.28,0.9067 -0.44,1.4667 -0.3733,3.4667 0.013,0.3733 0.027,0.76 0.027,1.16 0.04,2.0933 0.08,4.0667 1.0666,5.3733 1.4934,1.9467 1.1067,4.7467 -0.8533,6.2267 -0.8,0.6 -1.7467,0.8933 -2.68,0.8933"
       style="fill:#362421;fill-opacity:1;fill-rule:nonzero;stroke:none;stroke-width:0.133333" />
    <path
       id="path238"
       d="m 2045.2666,1574.7734 c -1.5067,0 -2.9867,-0.7734 -3.8133,-2.16 l -0.28,-0.4667 c -2.0534,-3.4 -2.2134,-3.8 -3.52,-8.3067 -0.8534,-3 -0.6534,-6.2666 -0.48,-9.1333 l 0.04,-0.7067 c 0.2533,-4.24 2.32,-7.56 3.8666,-9.6933 1.8934,-2.6533 4.3867,-4.6533 7.84,-6.3067 0.7867,-0.3866 1.7067,-0.96 2.6667,-1.5733 1.2133,-0.7733 2.5867,-1.64 4.1467,-2.4 1.28,-0.6133 2.5866,-1.1067 3.8533,-1.5867 1.2133,-0.4666 2.3467,-0.8933 3.4133,-1.4133 0.6534,-0.32 1.4534,-0.9867 2.2934,-1.6933 1.1733,-1 2.5066,-2.12 4.2,-2.9467 1.2533,-0.6 2.5333,-1.16 3.8,-1.7067 1.1466,-0.4933 2.28,-0.9866 3.3733,-1.52 1.68,-0.8 3.3333,-1.2266 4.8,-1.6133 1.0667,-0.2667 2.0667,-0.5333 2.7467,-0.8533 0.88,-0.4267 1.76,-1.1867 2.6933,-1.9867 1.1333,-0.96 2.3067,-1.96 3.7867,-2.68 2.48,-1.2133 3.72,-1.56 4.9866,-1.8667 0.68,-0.1733 1.1334,-0.28 2.3867,-0.8933 2.2133,-1.08 4.8667,-0.16 5.9333,2.0533 1.08,2.2134 0.16,4.8667 -2.0533,5.9467 -1.9467,0.9333 -2.9867,1.24 -4.1467,1.52 -0.7466,0.1867 -1.3866,0.3467 -3.2266,1.24 -0.4534,0.2133 -1.1867,0.84 -1.88,1.44 -1.2,1.0267 -2.6934,2.2933 -4.6,3.2267 -1.48,0.7066 -3.04,1.1066 -4.4134,1.4666 -1.16,0.2934 -2.2666,0.5867 -3.1333,1 -1.2133,0.5867 -2.4667,1.1334 -3.7333,1.68 -1.1467,0.4934 -2.3067,1 -3.4534,1.56 -0.68,0.32 -1.48,1 -2.3333,1.72 -1.16,0.9867 -2.4933,2.1067 -4.16,2.9067 -1.4133,0.6933 -2.7867,1.2133 -4.12,1.72 -1.1467,0.4267 -2.2133,0.84 -3.16,1.2933 -1.08,0.52 -2.1333,1.1867 -3.2267,1.8934 -1.1466,0.72 -2.32,1.4666 -3.5866,2.08 -2.12,1.0133 -3.4534,2.0533 -4.48,3.48 -1.4534,2.0133 -2.1067,3.52 -2.2,5.0266 l -0.04,0.7334 c -0.1467,2.2666 -0.2934,4.6 0.1466,6.12 1.04,3.6133 1.04,3.6133 2.5867,6.2 l 0.28,0.4666 c 1.2667,2.1067 0.5867,4.84 -1.52,6.0934 -0.72,0.4266 -1.5067,0.64 -2.28,0.64"
       style="fill:#362421;fill-opacity:1;fill-rule:nonzero;stroke:none;stroke-width:0.133333" />
    <path
       id="path239"
       d="m 2373.0666,1510.9067 h 0.013 z m -12.2933,81.4667 c -1.4267,0 -2.8267,-0.68 -3.68,-1.9467 -1.3734,-2.04 -0.84,-4.8 1.2,-6.1733 0.6533,-0.44 1.3066,-0.8534 1.9333,-1.24 1.2667,-0.7867 2.3467,-1.4534 2.9333,-2.16 0.92,-1.0934 1.4534,-2.4667 2.08,-4.0534 l 0.48,-1.1733 c 0.2,-0.4933 0.4,-0.9733 0.6134,-1.4533 0.6933,-1.6134 1.28,-3 1.44,-4.2 0.2666,-2.24 0.5066,-4.56 0.3333,-6.3467 -0.093,-0.9867 -0.2533,-1.3333 -0.52,-1.8533 -1.0133,-2.04 -1.3867,-3.9467 -0.093,-7.1067 0.4,-1 1.16,-1.8133 2.12,-2.2933 0.88,-0.44 1.2266,-1.1067 1.9866,-2.88 l 0.88,-1.96 c 1,-2.2 1,-2.2 1.2267,-4.9067 0.04,-0.5467 0.2,-1.0933 0.44,-1.5867 0.067,-0.24 -0.027,-1.0933 -0.1067,-1.6533 -0.093,-0.8 -0.2133,-1.7067 -0.1733,-2.7067 0.053,-2.12 -0.067,-3.6 -0.4133,-4.7733 -0.3067,-1.0667 -0.52,-1.4933 -0.7734,-1.9867 -0.6266,-1.2 -1.1066,-2.2933 -1.3333,-4.7466 -0.067,-0.7067 0.04,-1.4134 0.2933,-2.0667 0.5334,-1.3333 0.6267,-2.6533 0.72,-4.1867 0.027,-0.5333 0.067,-1.0666 0.1067,-1.5733 0.1067,-1.0667 0.2933,-2.1067 0.4667,-3.0933 0.1466,-0.84 0.3866,-2.12 0.32,-2.52 -0.16,-0.4934 -0.2934,-0.7734 -0.36,-0.9334 -0.093,-0.04 -0.1867,-0.08 -0.28,-0.1333 -0.68,-0.36 -1.7334,-0.8933 -3.0134,-1.9333 -1.9066,-1.5334 -2.2,-4.3334 -0.6533,-6.24 1.5467,-1.92 4.3467,-2.2134 6.2533,-0.6667 0.5734,0.4667 0.9734,0.68 1.4934,0.9467 2.3333,1.2 3.8133,2.56 5.0266,6.2933 0.76,2.3333 0.3334,4.6933 -0.04,6.7733 -0.1333,0.76 -0.28,1.5467 -0.36,2.36 -0.04,0.4134 -0.067,0.8267 -0.093,1.2667 -0.1067,1.6267 -0.2267,3.5867 -0.9067,5.7733 0.053,0.2 0.12,0.3467 0.2534,0.6 0.3466,0.68 0.88,1.6934 1.4266,3.6 0.6,2.1067 0.84,4.4134 0.7467,7.4934 -0.013,0.32 0.053,0.8266 0.12,1.36 0.1733,1.4533 0.44,3.5466 -0.36,5.76 -0.3067,3.3866 -0.5867,4.2 -1.9333,7.1733 l -0.8,1.7733 c -0.7067,1.6267 -1.68,3.8934 -3.8,5.7334 0.4266,0.9866 0.8133,2.24 0.9866,4.0666 0.24,2.6267 -0.027,5.52 -0.3733,8.2534 -0.2933,2.4666 -1.2133,4.5866 -2.0933,6.6266 -0.1867,0.44 -0.3734,0.88 -0.56,1.3334 l -0.4267,1.0533 c -0.7867,2.0133 -1.6933,4.2933 -3.52,6.4933 -1.5067,1.8 -3.32,2.92 -5.08,4 -0.5333,0.3334 -1.0933,0.68 -1.6533,1.0534 -0.76,0.52 -1.6134,0.76 -2.48,0.76"
       style="fill:#362421;fill-opacity:1;fill-rule:nonzero;stroke:none;stroke-width:0.133333" />
    <path
       id="path240"
       d="m 2435.0133,1592.0534 c -0.6,0 -1.2267,-0.1334 -1.8134,-0.3867 -2.24,-1.0133 -3.24,-3.64 -2.24,-5.88 0.48,-1.08 0.48,-1.16 0.4934,-1.92 0.013,-0.76 0.04,-1.9067 0.3333,-3.7333 0.1333,-0.8 0.3333,-1.6267 0.5733,-2.4934 0.3067,-1.1866 0.6,-2.2933 0.5067,-3.12 -0.1867,-1.6266 -0.4933,-3.6933 -1.3067,-5.2266 -0.2,-0.3867 -1.3333,-1.2 -2.08,-1.7334 -0.68,-0.4933 -1.3733,-0.9866 -2.0266,-1.5333 -0.6,-0.5067 -1.2,-1.0933 -1.8134,-1.72 -0.84,-0.8533 -1.64,-1.6667 -2.44,-2 -0.88,-0.3733 -1.8,-0.68 -2.7333,-1 -1.3467,-0.4533 -2.7467,-0.9333 -4.2,-1.5867 -0.6267,-0.28 -1.5467,-0.48 -2.5333,-0.6933 -1.4134,-0.3067 -3.0134,-0.6533 -4.6,-1.4133 -1.7467,-0.8267 -3.08,-2.0667 -4.1467,-3.0667 -0.6667,-0.6133 -1.3467,-1.2533 -1.8267,-1.48 -0.9466,-0.4667 -1.9466,-0.8667 -3.0266,-1.2933 -1.2134,-0.4934 -2.48,-1 -3.72,-1.6267 -1.0667,-0.5333 -2.1334,-1.0133 -3.16,-1.48 -1.2134,-0.5467 -2.3734,-1.08 -3.4667,-1.64 -1.4667,-0.7467 -2.7867,-1.5467 -3.9467,-2.2533 -0.84,-0.5067 -1.64,-0.9867 -2.4,-1.3867 -1.48,-0.7867 -1.9733,-0.88 -2.6133,-1 -1.2,-0.2267 -2.3467,-0.5067 -4.3333,-1.5733 -2.1467,-1.1734 -2.96,-3.88 -1.7867,-6.0267 1.1733,-2.16 3.8667,-2.9733 6.0267,-1.7867 0.9333,0.4934 1.1866,0.5467 1.7733,0.6534 1.2667,0.2533 2.6133,0.5733 5.0667,1.8533 0.9066,0.48 1.8533,1.0533 2.8666,1.6667 1.0934,0.6533 2.2134,1.3333 3.4134,1.9466 0.96,0.4934 2,0.96 3.0666,1.4534 1.1334,0.5066 2.3067,1.04 3.4934,1.64 0.9066,0.4533 1.9333,0.8666 3.0266,1.3066 1.1734,0.4667 2.3867,0.9467 3.6267,1.56 1.6667,0.8134 2.8933,1.96 3.9867,2.9734 0.68,0.64 1.3866,1.2933 1.88,1.5333 0.68,0.32 1.6533,0.5333 2.6933,0.7467 1.32,0.2933 2.8133,0.6133 4.2933,1.2933 1.0667,0.4667 2.2,0.8533 3.4,1.2667 1.1334,0.3866 2.2534,0.7733 3.32,1.2133 2.44,1.0267 4.12,2.7333 5.3334,3.9733 0.4,0.3867 0.76,0.7734 1.1466,1.0934 0.5067,0.4133 1.04,0.8 1.5467,1.16 1.68,1.2133 3.5867,2.5733 4.76,4.8133 1.4933,2.8533 2,5.9733 2.28,8.3867 0.28,2.48 -0.2933,4.64 -0.76,6.3733 -0.1467,0.5733 -0.3067,1.12 -0.3867,1.64 -0.1866,1.2 -0.2,1.84 -0.2133,2.4667 -0.027,1.6133 -0.1333,2.8533 -1.2667,5.4133 -0.7466,1.64 -2.3733,2.6267 -4.0666,2.6267"
       style="fill:#362421;fill-opacity:1;fill-rule:nonzero;stroke:none;stroke-width:0.133333" />
    <path
       id="path241"
       d="m 2236.2799,1424.92 c -0.36,0 -0.96,0.027 -1.92,0.16 -1.2133,0.16 -1.72,0.56 -2.12,1.1067 -0.8,1.0933 -1.0133,2.4267 -1.0533,3.3467 -0.093,1.8 -0.1867,3.9466 0.3867,4.92 0.1066,0.1866 0.2266,0.3733 0.3733,0.5466 1.4267,-0.4666 2.4267,-0.8933 3.2533,-1.5866 l 0.8,-0.6667 c 0.7334,-0.6 1.7334,-1.4133 1.9067,-1.8533 0.9067,-2.3067 0.8667,-3.1867 0.8133,-3.4534 -0.1066,-0.48 -0.8666,-1.6133 -1.9866,-2.4933 -0.053,-0.013 -0.2,-0.027 -0.4534,-0.027 z m 1.64,22.1067 c -2.1866,0 -4.4133,-0.32 -6.56,-1.4133 -0.4,-0.2134 -0.8933,-0.48 -1.4133,-0.8 -0.7867,0.1466 -1.6,0.2533 -2.4667,0.2666 -0.5866,0 -1.1866,0.067 -1.8,0.1334 -1.8,0.1733 -4.04,0.3866 -6.32,-0.2934 -2.9333,-0.88 -5.3466,-2.7466 -7.28,-4.24 -2.4266,-1.88 -3.8666,-4.3733 -5.1333,-6.7733 -1.5067,-2.84 -1.6267,-5.6933 -1.6267,-8.3733 0,-3.04 0.7467,-5.7467 2.28,-8.28 1.48,-2.44 3.28,-4.88 6.4,-6.2534 2.2534,-1 4.8667,0.013 5.8667,2.2534 0.9867,2.2533 -0.027,4.88 -2.2667,5.8666 -0.84,0.3734 -1.52,1.2934 -2.4,2.76 -0.7066,1.1467 -0.9866,2.2134 -1,3.6667 0,1.7467 0.04,3.16 0.6,4.2 0.84,1.6 1.6934,3.1067 2.72,3.8933 1.4267,1.1067 3.04,2.36 4.3867,2.76 0.24,0.08 0.4933,0.12 0.9333,0.093 -0.76,-2.52 -0.64,-5.1067 -0.5466,-7.28 0.1466,-3.16 1.1066,-6 2.7733,-8.28 1.92,-2.6267 4.6533,-4.2 8.1067,-4.6534 2.04,-0.28 5.8666,-0.8 9.0133,1.6534 1,0.7733 4.32,3.6133 5.2,7.56 0.72,3.2 -0.3467,6.4666 -1.2133,8.6666 -0.3334,0.8667 -0.7867,1.6134 -1.28,2.2934 1.9066,-1.36 4.5733,-1 6.0533,0.8666 1.52,1.92 1.2,4.7067 -0.7333,6.24 -3.08,2.44 -6.6934,3.0534 -9.1334,3.2934 -1.04,0.1066 -2.0933,0.1733 -3.16,0.1733"
       style="fill:#d4bdbc;fill-opacity:1;fill-rule:nonzero;stroke:none;stroke-width:0.133333" />
    <path
       id="path242"
       d="m 2177.7466,1523.6134 c 0,2.2933 -0.52,4.2266 -2.0267,5.7333 -1.4933,1.5067 -3.44,3.0267 -5.7333,3.0267 -2.2933,0 -4.2667,-1.4667 -5.7733,-2.9734 -1.5067,-1.5066 -2.6667,-3.4933 -2.6667,-5.7866 0,-2.2934 0.56,-4.88 2.0533,-6.3867 1.5067,-1.5067 4.0934,-1.1067 6.3867,-1.1067 2.2933,0 4.52,-0.027 6.0267,1.48 1.5066,1.4934 1.7333,3.72 1.7333,6.0134"
       style="fill:#362421;fill-opacity:1;fill-rule:nonzero;stroke:none;stroke-width:0.133333" />
    <path
       id="path243"
       d="m 2296.4399,1533.12 c 0,2.2934 -0.7333,4.0667 -2.24,5.5734 -1.4933,1.4933 -3.2666,1.9466 -5.56,1.9466 -2.2933,0 -3.7733,-0.7466 -5.2666,-2.24 -1.5067,-1.5066 -2.36,-2.9866 -2.36,-5.28 0,-2.2933 0.2666,-4.36 1.76,-5.8533 1.5066,-1.5067 3.5733,-2.3067 5.8666,-2.3067 2.2934,0 4.04,1.12 5.5467,2.6134 1.5067,1.5066 2.2533,3.2533 2.2533,5.5466"
       style="fill:#362421;fill-opacity:1;fill-rule:nonzero;stroke:none;stroke-width:0.133333" />
    <path
       id="path244"
       d="m 2223.0133,1564 c -0.4267,0 -0.88,-0.027 -1.36,-0.093 -3.56,-0.4933 -5.0134,-2.1867 -6.2,-3.88 -0.2934,-0.4267 -0.5467,-0.7867 -0.9334,-1.1867 -1.3733,-1.4133 -1.9466,-2.4666 -2.4533,-3.5066 -0.2667,-0.5334 -0.36,-0.7334 -0.88,-1.2534 -1.7067,-1.76 -1.6533,-4.5866 0.1067,-6.2933 1.76,-1.7067 4.5733,-1.6667 6.28,0.1067 1.3733,1.4133 1.9466,2.4666 2.4666,3.5066 0.2534,0.5334 0.3467,0.72 0.8667,1.2534 0.8267,0.8666 1.3733,1.6133 1.7733,2.1866 0.7334,-0.8133 1.8934,-1.96 3.8134,-2.8 1.5733,-0.6933 2.3733,-1.0266 3.1733,-1.36 0.76,-0.32 1.52,-0.6266 3.0267,-1.2933 2.2533,-0.9733 4.8666,0.053 5.8533,2.2933 0.9867,2.2534 -0.04,4.8667 -2.2933,5.8534 -1.5734,0.6933 -2.3734,1.0266 -3.1734,1.36 -0.76,0.3066 -1.52,0.6266 -3.0266,1.2933 -0.3734,0.16 -0.5334,0.32 -1.0134,0.8667 -0.8933,1 -2.6266,2.9466 -6.0266,2.9466"
       style="fill:#362421;fill-opacity:1;fill-rule:nonzero;stroke:none;stroke-width:0.133333" />
    <path
       id="path245"
       d="m 2207.3466,1584.8134 c -0.7867,0 -1.56,-0.053 -2.3467,-0.16 -2.4666,-0.3334 -4.4666,-1.4534 -6.0666,-2.3467 -0.64,-0.36 -1.2534,-0.6933 -1.7334,-0.8933 -2.5333,-1.0134 -5.1866,-2.1334 -7.3333,-3.6267 -0.7867,-0.5467 -1.3733,-0.9333 -1.84,-1.24 -2.0133,-1.32 -2.5867,-1.8 -4.6,-4.2133 -1.5733,-1.8934 -1.32,-4.6934 0.56,-6.2667 1.8933,-1.5733 4.6933,-1.32 6.2667,0.5733 1.3466,1.6267 1.3466,1.6267 2.6533,2.48 0.52,0.3334 1.16,0.76 2.0133,1.3467 1.4,0.9733 3.5334,1.8667 5.6,2.7067 1,0.4 1.8934,0.8933 2.7467,1.3733 1.1067,0.6133 2.1333,1.1867 2.96,1.3067 1.3067,0.1733 3.0933,-0.04 4.9867,-0.2667 l 1.28,-0.1467 c 0.6533,-0.067 1.32,-0.36 2.44,-0.88 0.2666,-0.12 0.5333,-0.24 0.8266,-0.36 0.12,-0.3066 0.2267,-0.5866 0.32,-0.8533 0.72,-1.84 0.9067,-2.3333 1.28,-5.24 0.2934,-2.3467 0.4534,-3.52 0.6134,-4.68 0.1466,-1.1467 0.3066,-2.2933 0.5866,-4.5867 0.3067,-2.44 2.52,-4.1733 4.96,-3.8666 2.44,0.3066 4.1734,2.5333 3.8667,4.96 -0.2933,2.3466 -0.4533,3.52 -0.6133,4.68 -0.16,1.1466 -0.3067,2.2933 -0.6,4.5866 -0.48,3.8534 -0.8934,5.04 -1.8,7.3734 -0.2667,0.6533 -0.5734,1.44 -0.9467,2.5066 -0.4533,1.2667 -1.4533,2.2667 -2.7333,2.7067 -0.7734,0.2667 -1.44,0.5733 -2.0667,0.8667 -1.4267,0.6533 -3.04,1.3866 -5.1467,1.6266 l -1.2133,0.1334 c -1.6133,0.2 -3.2667,0.4 -4.92,0.4"
       style="fill:#362421;fill-opacity:1;fill-rule:nonzero;stroke:none;stroke-width:0.133333" />
    <path
       id="path246"
       d="m 2235.1999,1587.76 c -0.2533,0 -0.52,-0.013 -0.7733,-0.027 -2.7067,-0.2 -4.8933,-1.2267 -6.6533,-2.0534 -0.6934,-0.3333 -1.36,-0.64 -1.8267,-0.7866 -1.4533,-0.44 -2.2,-0.52 -2.9333,-0.6134 -1.7734,-0.2 -3.2267,-0.48 -5.8534,-2.2533 -2.04,-1.3733 -2.5733,-4.1333 -1.2,-6.1733 1.3734,-2.0267 4.1334,-2.5734 6.1734,-1.2 1.0266,0.7066 1.08,0.7066 1.8933,0.8 0.9067,0.1066 2.2933,0.2666 4.5067,0.9333 1.0666,0.3333 2.0666,0.8 3.0133,1.24 1.2667,0.6 2.4667,1.16 3.5333,1.24 0.6534,0.053 1.8267,-0.2933 2.9734,-0.6267 1.1466,-0.3333 2.44,-0.7066 3.8666,-0.92 1.9467,-0.2933 4.0134,-0.9733 6.5067,-1.9066 l 1.2933,-0.48 c 1.8,-0.6534 3.5067,-1.2667 5.12,-2.2267 2.0934,-1.2667 4.8267,-0.5867 6.0934,1.52 1.2666,2.1067 0.5866,4.84 -1.52,6.0933 -2.3467,1.4134 -4.6534,2.24 -6.6667,2.9734 l -1.2,0.44 c -3.0267,1.1333 -5.6,1.9733 -8.32,2.3733 -0.8267,0.1333 -1.7333,0.3867 -2.6933,0.6667 -1.6134,0.4666 -3.4,0.9866 -5.3334,0.9866"
       style="fill:#362421;fill-opacity:1;fill-rule:nonzero;stroke:none;stroke-width:0.133333" />
    <path
       id="path247"
       d="m 2197.9599,1720.6134 h 0.027 z m 12.56,28.4666 c -0.68,0 -1.3733,-0.1466 -2.0133,-0.48 -3.92,-1.9866 -6.5067,-4.7333 -7.7067,-6.1866 -2.4133,-2.9467 -2.44,-6.32 -2.4533,-8.56 -0.013,-0.4934 0,-0.9734 -0.053,-1.4134 -0.12,-1.1333 -0.08,-2.1066 0.04,-2.96 -0.4934,0.04 -1,0.013 -1.5467,-0.053 -2.88,-0.3867 -5.1067,-1.9867 -7.0667,-3.6533 l -0.3866,-0.3334 c -1.88,-1.5866 -4,-3.3733 -4.72,-6.2666 -0.9734,-3.9067 -0.9334,-4.8534 0.4133,-8.44 0.8667,-2.2934 3.4267,-3.4667 5.72,-2.6 2.2933,0.8666 3.4667,3.4266 2.6,5.72 -0.2267,0.6133 -0.4933,1.3066 -0.5333,1.52 0.027,0.08 0.2533,0.9466 0.4266,1.6533 0.1334,0.2 1.12,1.0267 1.8267,1.6267 l 0.4133,0.3466 c 0.72,0.6134 1.7067,1.4134 2.3467,1.5867 0.24,-0.093 0.6667,-0.3467 0.96,-0.52 1.2,-0.6933 3.1867,-1.8667 5.64,-1.0667 1.0667,0.3467 2.5467,1.2134 3.4667,3.3334 1.6533,3.84 0.32,6.36 -0.4,7.7066 -0.3867,0.72 -0.4267,0.8 -0.36,1.4134 0.08,0.72 0.093,1.5066 0.093,2.3333 0.013,1.2133 0.027,2.4667 0.44,2.9867 1.2933,1.56 3.0667,2.9866 4.8667,3.9066 2.1866,1.1067 3.0666,3.7867 1.9466,5.9734 -0.7866,1.5466 -2.3466,2.4266 -3.96,2.4266"
       style="fill:#d4bdbc;fill-opacity:1;fill-rule:nonzero;stroke:none;stroke-width:0.133333" />
    <path
       id="path248"
       d="m 2195.9999,1768.6667 c -2.92,0 -5.0133,-0.8 -6.28,-4.04 -1.3333,0.067 -2.5466,0.093 -3.6133,0.08 -3.2533,-0.04 -5.6667,-0.5333 -7.4133,-0.96 -0.8667,-0.2133 -1.56,-0.36 -2.12,-0.48 -1.88,-0.4133 -3.84,-0.84 -4.9467,-2.96 -1.0933,-2.0533 -0.3333,-3.92 0.067,-4.92 0.1066,-0.2533 0.2266,-0.5467 0.36,-0.92 0.8133,-2.32 3.3333,-3.5467 5.6533,-2.7333 1.5467,0.5333 2.6133,1.84 2.9067,3.3333 0.067,0.013 0.1333,0.027 0.2,0.053 1.36,0.3334 3.0666,0.68 5.4,0.7067 1.64,0.013 3.64,-0.067 6.1466,-0.28 1.84,-0.1467 3.56,0.8533 4.36,2.5067 0.2934,0.6133 0.52,1.16 0.7067,1.6533 0.6267,-0.067 1.3067,-0.1333 1.8933,-0.2 2.4667,-0.2533 4.64,1.5067 4.8934,3.9467 0.2666,2.44 -1.4934,4.6266 -3.9334,4.8933 -1.5866,0.1733 -3.0133,0.32 -4.28,0.32"
       style="fill:#d4bdbc;fill-opacity:1;fill-rule:nonzero;stroke:none;stroke-width:0.133333" />
    <path
       id="path249"
       d="m 2227.5333,1871.56 c -0.28,0 -0.56,-0.027 -0.84,-0.08 -2.4134,-0.4533 -4,-2.7866 -3.5334,-5.2 0.4534,-2.3866 1.2667,-3.68 1.8,-4.5333 0.36,-0.56 0.4667,-0.7333 0.6,-1.4533 0.2267,-1.2 0.2,-1.5867 0.16,-2.3467 -0.053,-0.7867 -0.12,-1.84 0.04,-3.5733 0.1867,-2.12 0.093,-3 -0.027,-4.2267 -0.12,-1.16 -0.28,-2.6133 -0.1734,-5.0667 0.08,-1.8533 0.7467,-3.5333 1.32,-5.0266 0.28,-0.7067 0.5467,-1.36 0.68,-1.8934 0.4267,-1.6 0.8534,-2.5733 1.1467,-3.2133 0.2667,-0.5733 0.2667,-0.6 0.2667,-1.4933 0,-1.2267 -0.067,-1.9067 -0.12,-2.4 -0.2267,-2.36 -0.04,-2.9867 1.68,-8.9334 1.0933,-3.7333 2.64,-6.6133 4.72,-8.8133 1.2933,-1.3467 2.7466,-2.1867 3.92,-2.8667 0.8533,-0.4933 1.6533,-0.96 1.92,-1.3733 0.2133,-0.36 0.6,-1.9333 0.4533,-4.48 -0.04,-0.6933 -0.053,-1.28 -0.08,-1.7867 -0.027,-0.7733 -0.04,-1.1733 -0.1467,-1.5466 -0.9866,0.1866 -2.2,0.3066 -3.76,0.2533 -0.2933,0.013 -0.96,0.1067 -1.6,0.2 -1.3866,0.2267 -3.12,0.5067 -5.2,0.36 -3.7866,-0.24 -6.5333,-1.6533 -8.5333,-2.68 -0.4,-0.2 -0.7867,-0.4 -1.16,-0.5733 -1.2267,-0.5734 -2.0933,-0.88 -2.8,-1.1334 -3.28,-1.1733 -4.4267,-2.2933 -6.08,-6.04 -1,-2.24 0.013,-4.8666 2.2533,-5.8666 2.24,-0.9867 4.8667,0.013 5.8667,2.2533 0.2533,0.5733 0.4267,0.92 0.5333,1.1333 0.12,0.053 0.2534,0.093 0.4134,0.1467 0.7733,0.28 1.96,0.6933 3.5733,1.4533 0.4667,0.2134 0.9467,0.4667 1.4533,0.72 1.6,0.8267 3.12,1.6 5.0667,1.72 1.08,0.08 2.12,-0.093 3.2133,-0.2666 1.0267,-0.16 2.08,-0.3334 3.2267,-0.3067 1.7333,0.027 2.4267,-0.2133 2.9867,-0.4133 4.5866,-1.7067 6.64,1.72 7.4133,3.0133 1.8533,3.0667 2.08,4.5067 2.16,7.28 0.027,0.44 0.04,0.9467 0.08,1.56 0.16,2.8667 -0.013,6.88 -1.8,9.72 -1.44,2.28 -3.4133,3.4267 -5,4.3467 -0.8267,0.4666 -1.52,0.88 -1.9333,1.3066 -1.08,1.1467 -1.9467,2.8267 -2.6134,5.16 -0.7466,2.5334 -1.3733,4.72 -1.4133,5.1734 0,0.1333 0.027,0.2666 0.04,0.44 0.053,0.6266 0.1467,1.5733 0.16,3.2 0.013,2.6133 -0.4533,3.8533 -1.0533,5.1866 -0.2267,0.5067 -0.4267,0.9334 -0.6534,1.8267 -0.28,1.0267 -0.6666,2.0133 -1,2.88 -0.28,0.6933 -0.6933,1.76 -0.72,2.1467 -0.067,1.8133 0.027,2.72 0.1334,3.7866 0.1466,1.3734 0.3066,2.9467 0.04,5.9334 -0.093,1.04 -0.067,1.5866 -0.027,2.2133 0.08,1.28 0.1067,2.44 -0.2933,4.56 -0.4534,2.3867 -1.2667,3.68 -1.8134,4.5467 -0.3466,0.5466 -0.4533,0.72 -0.5866,1.4533 -0.4134,2.12 -2.28,3.6133 -4.36,3.6133"
       style="fill:#362421;fill-opacity:1;fill-rule:nonzero;stroke:none;stroke-width:0.133333" />
    <path
       id="path250"
       d="m 2233.5733,1831.0934 c -2.44,0 -4.4267,-1.9734 -4.44,-4.4267 -0.013,-2.28 -0.1334,-3.9867 -0.6667,-5.4133 l -0.32,-0.9067 c -0.68,-1.84 -1.32,-3.5867 -2.0667,-4.6933 -0.5333,-0.7867 -0.7333,-0.8934 -1.28,-1.2134 -1.4,-0.7866 -2.8533,-1.7733 -4.16,-4.4133 -0.32,-0.6533 -0.48,-1.3867 -0.4666,-2.1067 0.053,-1.3866 -0.1467,-2.72 -0.32,-4.0133 -0.08,-0.5333 -0.1467,-1.0267 -0.2,-1.5067 l -0.1867,-1.72 c -0.053,-0.52 -0.067,-0.8133 -0.12,-1.0666 -0.067,-0.1734 -0.1867,-0.4134 -0.3733,-0.8134 l -0.3467,-0.7733 c -1,-2.24 0,-4.8667 2.24,-5.88 2.2267,-0.9867 4.8667,0 5.8667,2.24 l 0.3333,0.72 c 0.8933,1.96 1.0133,2.44 1.24,4.68 l 0.1733,1.6267 c 0.04,0.3866 0.1067,0.8 0.1734,1.24 0.16,1.1333 0.3466,2.48 0.4,3.9866 0.04,0.027 0.08,0.053 0.1333,0.067 1.2267,0.7067 2.68,1.6533 4.2533,3.9467 1.36,2.0133 2.2267,4.3733 3.0534,6.6533 l 0.32,0.8667 c 1.08,2.9333 1.1866,5.8933 1.2,8.44 0.013,2.4533 -1.96,4.4533 -4.4134,4.48 -0.013,0 -0.013,0 -0.027,0"
       style="fill:#362421;fill-opacity:1;fill-rule:nonzero;stroke:none;stroke-width:0.133333" />
    <path
       id="path251"
       d="m 2312.8266,1868.9467 c -0.88,0 -1.76,-0.2533 -2.5333,-0.7867 -2.0134,-1.4 -2.52,-4.1733 -1.12,-6.1866 1.28,-1.8667 2.3066,-2.7334 3.04,-3.3734 0.6133,-0.52 0.9333,-0.7866 1.68,-2.16 0.5333,-0.9866 0.9866,-2.3733 1.4666,-3.84 0.32,-0.9733 0.64,-1.9466 0.9867,-2.8666 0.3067,-0.7867 0.16,-2.28 0.013,-3.7067 -0.093,-0.9067 -0.1866,-1.7867 -0.2,-2.64 -0.04,-1.2 -0.1333,-1.9333 -0.2266,-2.6 -0.2934,-2.1733 -0.2934,-3.56 0.92,-6.8 1,-2.64 1.92,-3.76 3.16,-4.7867 0.12,-0.1066 0.5866,-0.7733 1.5466,-3.7733 0.7467,-2.3467 1.0534,-4.6533 0.84,-6.1467 -0.16,-1.0133 -0.2533,-1.12 -0.76,-1.7066 -1.0666,-1.2 -2.1466,-2.6267 -2.72,-5.4 -0.2533,-1.2667 0.053,-2.5734 0.84,-3.6 l 0.2267,-0.3067 c 0.7867,-1.0133 1.9867,-2.56 2.28,-3.7333 0.067,-0.24 0.067,-0.24 -0.1067,-0.8267 -0.3733,-1.2667 -1.1733,-3.9067 1.0267,-7.0933 0.6133,-0.8934 1.5333,-1.5334 2.5867,-1.7867 0.7466,-0.1867 1.7466,-0.9333 2.8,-1.72 0.4666,-0.36 0.9466,-0.7067 1.44,-1.0533 1.5333,-1.0534 2.84,-2.36 4.2666,-3.8134 1.1467,-1.16 1.48,-1.6266 1.8934,-2.2133 0.4933,-0.6933 1.0533,-1.48 2.4,-2.88 0.16,-0.1733 0.3466,-0.32 0.5333,-0.4667 1.8667,-1.4 2.28,-2.5466 2.44,-3.3866 0.2,-1.04 0.1333,-1.2934 -0.067,-2.04 -0.2933,-1.1334 -0.7466,-2.8267 -0.2666,-5.6667 0.1733,-1.0133 0.6666,-1.92 1.4266,-2.6 0.8934,-0.7867 1.8267,-1.48 2.6534,-2.08 0.9066,-0.6667 1.9333,-1.4133 2.2933,-1.9067 0.9733,-1.3066 1.56,-2.9333 2.1333,-4.4933 l 0.2934,-0.7867 c 0.76,-2.0133 0.8933,-3.9333 0.92,-5.3733 0.027,-1.1467 -0.08,-1.5067 -0.2267,-1.96 -0.5333,-1.7067 -0.68,-3.12 0.067,-5.72 0.2,-0.7333 0.6,-1.4 1.1333,-1.9333 1.72,-1.72 2.7333,-3.5467 3.12,-5.5867 0.72,-3.76 0.72,-3.76 -0.9333,-5.84 -1.5334,-1.9067 -1.2267,-4.7067 0.6933,-6.24 1.9067,-1.5333 4.7067,-1.2267 6.24,0.6933 4.0133,5.0134 3.8267,7.2667 2.7333,13.04 -0.6266,3.3334 -2.1466,6.3867 -4.52,9.0934 0.32,1.04 0.64,2.36 0.5867,4.6533 -0.053,1.9733 -0.2533,4.9867 -1.48,8.2933 l -0.28,0.72 c -0.7067,1.96 -1.6,4.3867 -3.3333,6.7334 -1.16,1.5733 -2.6934,2.6933 -4.1734,3.7733 -0.2,0.1467 -0.4,0.2933 -0.6,0.44 0.027,0.1467 0.067,0.2933 0.12,0.48 0.4,1.5467 0.72,3.16 0.2134,5.9333 -0.64,3.4 -2.4534,6.2267 -5.5467,8.64 -0.7067,0.7467 -0.9733,1.12 -1.3333,1.6134 -0.6534,0.92 -1.2667,1.7466 -2.7867,3.2933 -1.68,1.72 -3.3733,3.3867 -5.56,4.8933 -0.4,0.28 -0.7867,0.5734 -1.1867,0.8667 -0.88,0.6667 -1.84,1.3733 -2.92,1.9867 0.2534,1.0933 0.4134,2.6266 -0.08,4.5466 -0.5066,1.9467 -1.4933,3.6667 -2.4666,5.0667 1.1466,1.32 2.28,2.9067 2.7733,6.12 0.4267,2.8667 0.013,6.48 -1.16,10.1867 -1.5867,5 -2.6667,6.5333 -4.36,7.92 0,-0.027 -0.16,0.2 -0.4933,1.0666 -0.56,1.4934 -0.56,1.4934 -0.4267,2.4934 0.1067,0.7866 0.24,1.8666 0.2933,3.5333 0.013,0.6267 0.093,1.2933 0.16,1.96 0.2267,2.2533 0.52,5.04 -0.5466,7.8267 -0.3067,0.7733 -0.5734,1.6 -0.84,2.4266 -0.5867,1.7867 -1.1867,3.64 -2.12,5.3467 -1.4134,2.5733 -2.5067,3.6267 -3.68,4.64 -0.5467,0.4533 -0.8934,0.76 -1.5334,1.68 -0.8666,1.2533 -2.2533,1.92 -3.6533,1.92"
       style="fill:#362421;fill-opacity:1;fill-rule:nonzero;stroke:none;stroke-width:0.133333" />
    <path
       id="path252"
       d="m 2358.3466,1667.1734 c -0.9067,0 -1.8133,-0.2667 -2.6,-0.84 -1.9867,-1.44 -2.44,-4.2134 -1,-6.2 0.7333,-1.0267 1.0533,-2.08 1.16,-3.8934 0.067,-1.12 0.2667,-2.2 0.44,-3.1466 0.1733,-0.9734 0.3867,-2.1734 0.28,-2.68 -0.3733,-1.6534 -0.5333,-1.9334 -0.9867,-2.68 -0.3866,-0.6267 -0.9066,-1.48 -1.5466,-2.9067 -1,-2.24 -0.013,-4.8667 2.2266,-5.88 2.24,-1 4.8667,-0.013 5.88,2.2267 0.4134,0.9333 0.72,1.4266 1.0267,1.9466 0.8533,1.3734 1.44,2.5067 2.08,5.4 0.48,2.2267 0.1067,4.3067 -0.2133,6.1467 -0.1467,0.7733 -0.28,1.5067 -0.3067,2.12 -0.1467,2.36 -0.6,5.4533 -2.8267,8.5467 -0.88,1.2 -2.24,1.84 -3.6133,1.84"
       style="fill:#362421;fill-opacity:1;fill-rule:nonzero;stroke:none;stroke-width:0.133333" />
    <path
       id="path253"
       d="m 2364.3333,1709.3334 c -2.3067,0 -4.2534,-1.7734 -4.4267,-4.1067 -0.067,-0.7333 -0.08,-1.48 -0.1067,-2.2133 -0.053,-1.3734 -0.093,-2.7867 -0.3866,-3.52 -0.3067,-0.7734 -0.5334,-1.3867 -0.72,-1.8934 -0.64,-1.68 -0.6667,-1.7733 -1.9334,-3.5733 -1.4,-2.0133 -0.92,-4.7867 1.0934,-6.1867 2.0133,-1.4133 4.7866,-0.92 6.1866,1.08 1.8267,2.6 2.1467,3.36 2.9734,5.56 0.1733,0.4667 0.3866,1.04 0.68,1.76 0.84,2.1734 0.92,4.4667 0.9866,6.48 0.013,0.6134 0.04,1.2267 0.08,1.8267 0.1867,2.44 -1.64,4.5867 -4.0933,4.7733 -0.1067,0 -0.2267,0.013 -0.3333,0.013"
       style="fill:#d4bdbc;fill-opacity:1;fill-rule:nonzero;stroke:none;stroke-width:0.133333" />
  </g>
</svg>
